M48
;DRILL file {KiCad no-vcs-found-36e5906~58~ubuntu16.04.1} date Tue Jul 11 16:23:07 2017
;FORMAT={-:-/ absolute / inch / decimal}
FMAT,2
INCH,TZ
T1C0.012
T2C0.012
T3C0.020
T4C0.024
T5C0.035
T6C0.039
T7C0.043
T8C0.047
T9C0.071
T10C0.126
T11C0.130
%
G90
G05
M72
T1
X3.9547Y-3.9112
T2
X2.765Y-3.645
X2.765Y-4.295
X2.765Y-4.42
X2.765Y-4.58
X2.81Y-4.1
X2.84Y-3.89
X2.855Y-3.04
X2.855Y-3.09
X2.855Y-3.135
X2.855Y-3.19
X2.855Y-3.24
X2.855Y-3.29
X2.855Y-3.54
X2.87Y-3.34
X2.905Y-3.45
X2.925Y-3.4
X2.925Y-3.43
X2.95Y-3.825
X2.95Y-3.85
X2.955Y-4.655
X2.965Y-4.185
X2.99Y-4.655
X3.01Y-3.585
X3.015Y-3.745
X3.025Y-4.22
X3.035Y-3.76
X3.04Y-3.59
X3.05Y-3.715
X3.06Y-3.775
X3.07Y-3.59
X3.075Y-3.53
X3.085Y-3.715
X3.095Y-3.53
X3.095Y-4.5
X3.095Y-4.53
X3.115Y-3.53
X3.115Y-3.715
X3.135Y-4.975
X3.15Y-4.955
X3.155Y-3.87
X3.16Y-3.83
X3.18Y-4.935
X3.21Y-4.925
X3.215Y-3.52
X3.215Y-3.545
X3.215Y-3.57
X3.25Y-3.73
X3.28Y-3.73
X3.285Y-4.31
X3.3Y-4.115
X3.31Y-3.82
X3.32Y-3.38
X3.32Y-3.41
X3.35Y-4.53
X3.35Y-4.715
X3.35Y-4.78
X3.375Y-3.4
X3.375Y-3.43
X3.39Y-3.475
X3.395Y-3.725
X3.4Y-3.895
X3.42Y-3.81
X3.45Y-4.78
X3.515Y-4.13
X3.53Y-3.855
X3.53Y-3.875
X3.545Y-4.13
X3.555Y-4.78
X3.595Y-4.5
X3.66Y-4.245
X3.695Y-3.555
X3.72Y-3.555
X3.745Y-4.995
X3.8Y-4.025
X3.855Y-4.01
X3.91Y-3.575
X3.955Y-4.025
X3.975Y-3.995
X4.005Y-4.015
X4.03Y-3.76
X4.055Y-3.77
X4.07Y-3.925
X4.075Y-3.825
X4.115Y-3.775
X4.14Y-3.8
X4.165Y-3.89
X4.17Y-3.985
X4.17Y-4.005
X4.17Y-4.025
X4.19Y-3.515
X4.25Y-4.245
X4.365Y-4.635
X4.37Y-3.765
X4.385Y-4.65
X4.39Y-3.75
X4.55Y-4.725
X4.56Y-3.185
X4.56Y-3.36
X4.595Y-4.38
X4.715Y-4.055
X4.715Y-4.155
X4.715Y-4.32
X4.715Y-4.485
X4.715Y-4.66
X4.715Y-4.8
X3.8838Y-3.8403
X3.8838Y-3.8797
X3.9153Y-3.8088
X3.9153Y-3.9112
X3.9547Y-3.8088
X3.9862Y-3.8403
X3.9862Y-3.8797
T3
X3.75Y-3.57
T4
X2.855Y-2.935
X2.91Y-3.715
X2.91Y-3.765
X2.91Y-3.985
X2.91Y-4.02
X2.91Y-4.11
X2.91Y-4.27
X2.91Y-4.31
X2.92Y-3.575
X2.92Y-4.585
X2.96Y-3.575
X2.96Y-4.585
X2.975Y-2.925
X2.975Y-3.075
X2.975Y-3.2
X2.985Y-3.295
X3.Y-3.49
X3.Y-4.585
X3.035Y-2.995
X3.1Y-2.925
X3.1Y-3.075
X3.165Y-2.995
X3.225Y-2.925
X3.225Y-3.075
X3.26Y-4.23
X3.26Y-4.27
X3.275Y-2.995
X3.315Y-4.07
X3.325Y-2.925
X3.325Y-3.075
X3.365Y-3.935
X3.385Y-2.995
X3.4Y-4.27
X3.425Y-2.935
X3.495Y-4.195
X3.495Y-4.235
X3.495Y-4.47
X3.495Y-4.645
X3.55Y-4.33
X3.55Y-4.375
X3.55Y-4.415
X3.585Y-2.685
X3.585Y-2.735
X3.605Y-3.47
X3.605Y-4.125
X3.61Y-2.94
X3.64Y-3.47
X3.65Y-2.94
X3.695Y-4.37
X3.695Y-4.41
X3.695Y-4.45
X3.7Y-4.725
X3.71Y-3.615
X3.75Y-2.775
X3.75Y-4.82
X3.8Y-2.7
X3.825Y-2.975
X3.835Y-4.86
X3.84Y-4.495
X3.85Y-2.775
X3.85Y-3.225
X3.855Y-4.365
X3.89Y-4.12
X3.925Y-2.7
X3.925Y-2.85
X3.925Y-3.
X3.925Y-3.15
X3.935Y-4.495
X3.955Y-4.365
X3.98Y-4.605
X3.98Y-4.665
X3.98Y-4.77
X3.985Y-4.545
X4.Y-2.775
X4.Y-2.925
X4.Y-3.075
X4.Y-3.225
X4.03Y-4.715
X4.03Y-4.82
X4.045Y-4.435
X4.06Y-3.98
X4.06Y-4.015
X4.075Y-2.7
X4.075Y-2.85
X4.075Y-3.
X4.075Y-3.15
X4.075Y-3.575
X4.08Y-4.375
X4.08Y-4.665
X4.08Y-4.77
X4.13Y-4.545
X4.15Y-2.775
X4.15Y-3.225
X4.155Y-4.36
X4.175Y-2.975
X4.18Y-4.495
X4.19Y-3.705
X4.19Y-3.745
X4.2Y-2.7
X4.225Y-4.61
X4.235Y-4.36
X4.25Y-2.775
X4.25Y-4.495
X4.255Y-3.665
X4.295Y-4.195
X4.305Y-3.705
X4.305Y-3.745
X4.305Y-3.785
X4.335Y-4.195
X4.375Y-4.735
X4.405Y-4.93
X4.435Y-4.135
X4.435Y-4.695
X4.435Y-4.76
X4.45Y-4.93
X4.46Y-4.4
X4.5Y-4.4
X4.5Y-4.465
X4.515Y-4.135
X4.515Y-4.175
X4.515Y-4.215
X4.55Y-4.66
X4.59Y-4.66
X2.785Y-4.815
X2.815Y-4.75
X2.815Y-4.885
X2.88Y-4.72
X2.88Y-4.91
X2.945Y-4.75
X2.945Y-4.88
X2.975Y-4.815
X3.0697Y-3.149
X3.0697Y-3.237
X3.0697Y-3.334
X3.1607Y-3.149
X3.1607Y-3.334
X3.2537Y-3.149
X3.2537Y-3.237
X3.2537Y-3.334
X4.485Y-2.8
X4.515Y-2.735
X4.515Y-2.87
X4.58Y-2.705
X4.58Y-2.895
X4.645Y-2.735
X4.645Y-2.865
X4.675Y-2.8
T5
X3.8254Y-3.4488
X3.8754Y-3.3488
X3.9254Y-3.4488
X3.9754Y-3.3488
X4.0254Y-3.4488
X4.0754Y-3.3488
X4.1254Y-3.4488
X4.1754Y-3.3488
T6
X2.79Y-5.04
X2.89Y-5.04
X2.99Y-5.04
X3.09Y-5.04
X3.19Y-5.04
X3.29Y-5.04
X3.39Y-5.04
X3.49Y-5.04
X3.59Y-5.04
X3.69Y-5.04
X3.79Y-5.04
X3.89Y-5.04
X3.99Y-5.04
X4.09Y-5.04
X4.19Y-5.04
X4.29Y-5.04
X4.39Y-5.04
X4.49Y-5.04
X4.59Y-5.04
X4.69Y-5.04
X3.1607Y-3.242
T7
X3.7398Y-2.8981
X3.8398Y-2.8981
X4.1602Y-2.8981
X4.2602Y-2.8981
T8
X3.935Y-3.86
T9
X3.6929Y-3.2051
X4.3071Y-3.2051
T10
X3.775Y-3.085
X4.225Y-3.085
T11
X2.88Y-4.815
X4.58Y-2.8
T4
X4.4664Y-3.6083G85X4.49Y-3.6083
G05
X4.4664Y-3.8917G85X4.49Y-3.8917
G05
X4.603Y-3.6083G85X4.6267Y-3.6083
G05
X4.603Y-3.8917G85X4.6267Y-3.8917
G05
T0
M30
