G04 #@! TF.GenerationSoftware,KiCad,Pcbnew,no-vcs-found-36e5906~58~ubuntu16.04.1*
G04 #@! TF.CreationDate,2017-07-11T16:23:02+03:00*
G04 #@! TF.ProjectId,ESP32-GATEWAY_Rev_B,45535033322D474154455741595F5265,A*
G04 #@! TF.SameCoordinates,Original
G04 #@! TF.FileFunction,Soldermask,Top*
G04 #@! TF.FilePolarity,Negative*
%FSLAX46Y46*%
G04 Gerber Fmt 4.6, Leading zero omitted, Abs format (unit mm)*
G04 Created by KiCad (PCBNEW no-vcs-found-36e5906~58~ubuntu16.04.1) date Tue Jul 11 16:23:02 2017*
%MOMM*%
%LPD*%
G01*
G04 APERTURE LIST*
%ADD10C,0.100000*%
%ADD11C,0.254000*%
%ADD12R,1.371600X0.426600*%
%ADD13C,1.254000*%
%ADD14C,1.600000*%
%ADD15C,6.700000*%
%ADD16R,3.701600X3.701600*%
%ADD17R,0.800000X0.800000*%
%ADD18R,1.822400X1.822400*%
%ADD19R,0.351600X0.901600*%
%ADD20R,0.901600X0.351600*%
%ADD21R,1.117600X1.117600*%
%ADD22R,0.601600X0.881600*%
%ADD23C,1.700000*%
%ADD24C,2.400000*%
%ADD25R,6.400000X6.400000*%
%ADD26R,1.801600X1.001600*%
%ADD27R,1.001600X1.801600*%
%ADD28R,1.601600X3.201600*%
%ADD29C,0.800000*%
%ADD30R,1.601600X0.901600*%
%ADD31C,3.600000*%
%ADD32C,2.050000*%
%ADD33C,3.100000*%
%ADD34C,1.810000*%
%ADD35R,1.625600X1.371600*%
%ADD36R,1.371600X1.625600*%
%ADD37R,1.600000X1.800000*%
%ADD38C,1.400000*%
%ADD39R,3.601600X1.701600*%
%ADD40R,0.901600X0.901600*%
%ADD41R,0.482600X1.117600*%
%ADD42R,0.736600X1.117600*%
%ADD43R,0.651600X1.301600*%
%ADD44R,1.879600X1.117600*%
%ADD45R,2.400000X2.100000*%
%ADD46R,1.101600X1.501600*%
%ADD47R,4.927600X1.201600*%
%ADD48R,1.501600X1.101600*%
%ADD49R,1.301600X0.651600*%
%ADD50O,2.200000X1.600000*%
%ADD51R,1.100000X1.200000*%
%ADD52C,0.700000*%
%ADD53R,2.250000X0.425000*%
%ADD54C,1.879600*%
%ADD55R,1.879600X1.879600*%
%ADD56R,2.178000X2.686000*%
G04 APERTURE END LIST*
D10*
D11*
X120396000Y-101473000D02*
X120396000Y-129286000D01*
X119380000Y-101473000D02*
X120396000Y-101473000D01*
X119380000Y-89027000D02*
X119380000Y-101473000D01*
X120396000Y-89027000D02*
X119380000Y-89027000D01*
X120396000Y-67056000D02*
X120396000Y-89027000D01*
X120396000Y-67056000D02*
X89154000Y-67056000D01*
X69596000Y-129286000D02*
X120396000Y-129286000D01*
X69596000Y-73152000D02*
X69596000Y-129286000D01*
X89154000Y-73152000D02*
X89154000Y-67056000D01*
X69596000Y-73152000D02*
X89154000Y-73152000D01*
D12*
X105346500Y-122686000D03*
X105346500Y-122036000D03*
X105346500Y-121386000D03*
X105346500Y-120736000D03*
X105346500Y-120086000D03*
X105346500Y-119436000D03*
X105346500Y-118786000D03*
X105346500Y-118136000D03*
X105346500Y-117486000D03*
X105346500Y-116836000D03*
X98107500Y-116836000D03*
X98107500Y-117486000D03*
X98107500Y-118136000D03*
X98107500Y-118786000D03*
X98107500Y-119436000D03*
X98107500Y-120086000D03*
X98107500Y-120736000D03*
X98107500Y-121386000D03*
X98107500Y-122036000D03*
X98107500Y-122686000D03*
D13*
X118872000Y-124079000D03*
D14*
X113919000Y-71120000D03*
X118745000Y-71120000D03*
X117983000Y-72771000D03*
X114681000Y-72898000D03*
X117983000Y-69469000D03*
X114681000Y-69469000D03*
X116332000Y-73533000D03*
X116332000Y-68707000D03*
D15*
X116332000Y-71120000D03*
X73152000Y-122301000D03*
D14*
X73152000Y-119888000D03*
X73152000Y-124714000D03*
X71501000Y-120650000D03*
X74803000Y-120650000D03*
X71501000Y-124079000D03*
X74803000Y-123952000D03*
X75565000Y-122301000D03*
X70739000Y-122301000D03*
D16*
X99949000Y-98044000D03*
D17*
X101249000Y-97544000D03*
X101249000Y-98544000D03*
X100449000Y-99344000D03*
X99449000Y-99344000D03*
X98649000Y-98544000D03*
X98649000Y-97544000D03*
X99449000Y-96744000D03*
X100449000Y-96744000D03*
D18*
X99949000Y-98044000D03*
D19*
X98199000Y-95594000D03*
X98699000Y-95594000D03*
X99199000Y-95594000D03*
X99699000Y-95594000D03*
X100199000Y-95594000D03*
X100699000Y-95594000D03*
X101199000Y-95594000D03*
X101699000Y-95594000D03*
D20*
X102399000Y-96294000D03*
X102399000Y-96794000D03*
X102399000Y-97294000D03*
X102399000Y-97794000D03*
X102399000Y-98294000D03*
X102399000Y-98794000D03*
X102399000Y-99294000D03*
X102399000Y-99794000D03*
D19*
X101699000Y-100494000D03*
X101199000Y-100494000D03*
X100699000Y-100494000D03*
X100199000Y-100494000D03*
X99699000Y-100494000D03*
X99199000Y-100494000D03*
X98699000Y-100494000D03*
X98199000Y-100494000D03*
D20*
X97499000Y-99794000D03*
X97499000Y-99294000D03*
X97499000Y-98794000D03*
X97499000Y-98294000D03*
X97499000Y-97794000D03*
X97499000Y-97294000D03*
X97499000Y-96794000D03*
X97499000Y-96294000D03*
D21*
X104775000Y-92583000D03*
X104775000Y-90805000D03*
D22*
X104775000Y-91694000D03*
D23*
X77969600Y-84682800D03*
D24*
X80281000Y-82346000D03*
D25*
X80310000Y-82333000D03*
D26*
X89010000Y-74673000D03*
X89010000Y-75943000D03*
X89010000Y-77213000D03*
X89010000Y-78483000D03*
X89010000Y-79753000D03*
X89010000Y-81023000D03*
X89010000Y-82293000D03*
X89010000Y-83563000D03*
X89010000Y-84833000D03*
X89010000Y-86103000D03*
X89010000Y-87373000D03*
X89010000Y-88643000D03*
X89010000Y-89913000D03*
X89010000Y-91183000D03*
D27*
X85740000Y-92633000D03*
X84470000Y-92633000D03*
X83200000Y-92633000D03*
X81930000Y-92633000D03*
X80660000Y-92633000D03*
X79390000Y-92633000D03*
X78120000Y-92633000D03*
X76850000Y-92633000D03*
X75580000Y-92633000D03*
X74310000Y-92633000D03*
D26*
X71010000Y-91143000D03*
X71010000Y-89873000D03*
X71010000Y-88603000D03*
X71010000Y-87333000D03*
X71010000Y-86063000D03*
X71010000Y-84793000D03*
X71010000Y-83523000D03*
X71010000Y-82253000D03*
X71010000Y-80983000D03*
X71010000Y-79713000D03*
X71010000Y-78443000D03*
X71010000Y-77173000D03*
X71010000Y-75903000D03*
X71010000Y-74633000D03*
D23*
X82643200Y-84682800D03*
X77969600Y-79983800D03*
X82643200Y-79983800D03*
X80281000Y-79983800D03*
X80281000Y-84682800D03*
X77969600Y-82219000D03*
X82643200Y-82219000D03*
D28*
X81577000Y-114275000D03*
X81577000Y-108215000D03*
D29*
X70607000Y-105585000D03*
X82407000Y-105585000D03*
X82407000Y-116855000D03*
X70607000Y-117945000D03*
D30*
X72327000Y-107275000D03*
X72327000Y-108375000D03*
X72327000Y-109475000D03*
X72327000Y-110575000D03*
X72327000Y-111675000D03*
X72327000Y-112775000D03*
X72327000Y-113875000D03*
X72327000Y-114975000D03*
D31*
X95885000Y-78359000D03*
X107315000Y-78359000D03*
D32*
X105670000Y-73610500D03*
X94990000Y-73610500D03*
D33*
X93800000Y-81409000D03*
X109400000Y-81409000D03*
D32*
X108210000Y-73610500D03*
X97530000Y-73610500D03*
D34*
X97165000Y-87599000D03*
X98435000Y-85059000D03*
X99705000Y-87599000D03*
X100975000Y-85059000D03*
X102245000Y-87599000D03*
X103515000Y-85059000D03*
X104785000Y-87599000D03*
X106055000Y-85059000D03*
D35*
X112395000Y-122047000D03*
X112395000Y-124079000D03*
D21*
X105664000Y-104902000D03*
X105664000Y-103124000D03*
X104140000Y-104902000D03*
X104140000Y-103124000D03*
D36*
X85217000Y-112014000D03*
X87249000Y-112014000D03*
D21*
X106426000Y-92583000D03*
X106426000Y-90805000D03*
X109474000Y-104775000D03*
X109474000Y-102997000D03*
X97790000Y-104902000D03*
X97790000Y-103124000D03*
X103632000Y-94234000D03*
X105410000Y-94234000D03*
X94488000Y-94615000D03*
X92710000Y-94615000D03*
X94488000Y-99822000D03*
X92710000Y-99822000D03*
X92710000Y-98298000D03*
X94488000Y-98298000D03*
X105029000Y-98679000D03*
X106807000Y-98679000D03*
D37*
X90551000Y-100838000D03*
X90551000Y-98298000D03*
X88011000Y-98298000D03*
X88011000Y-100838000D03*
D38*
X118872000Y-77978000D03*
D39*
X115443000Y-124644000D03*
X115443000Y-122244000D03*
D36*
X107569000Y-104648000D03*
X107569000Y-102616000D03*
D35*
X85217000Y-113919000D03*
X87249000Y-113919000D03*
D40*
X117094000Y-85344000D03*
X118618000Y-85344000D03*
D21*
X83185000Y-95758000D03*
X81407000Y-95758000D03*
X82931000Y-103759000D03*
X81153000Y-103759000D03*
X85852000Y-102997000D03*
X85852000Y-101219000D03*
X91694000Y-71501000D03*
X91694000Y-73279000D03*
X111633000Y-77851000D03*
X111633000Y-76073000D03*
X98552000Y-90805000D03*
X98552000Y-92583000D03*
X85344000Y-115824000D03*
X87122000Y-115824000D03*
X96266000Y-92583000D03*
X96266000Y-90805000D03*
X102362000Y-90805000D03*
X102362000Y-92583000D03*
X100076000Y-92583000D03*
X100076000Y-90805000D03*
X90170000Y-103378000D03*
X88392000Y-103378000D03*
X110109000Y-122809000D03*
X108331000Y-122809000D03*
X87884000Y-95758000D03*
X89662000Y-95758000D03*
X106807000Y-100203000D03*
X105029000Y-100203000D03*
X94488000Y-93091000D03*
X92710000Y-93091000D03*
X110109000Y-121285000D03*
X108331000Y-121285000D03*
X95758000Y-116967000D03*
X93980000Y-116967000D03*
D41*
X94996000Y-104775000D03*
X94234000Y-104775000D03*
X94996000Y-103251000D03*
X94234000Y-103251000D03*
D42*
X95885000Y-104775000D03*
X95885000Y-103251000D03*
X93345000Y-104775000D03*
X93345000Y-103251000D03*
X102235000Y-104775000D03*
X102235000Y-103251000D03*
X99695000Y-104775000D03*
X99695000Y-103251000D03*
D41*
X101346000Y-104775000D03*
X100584000Y-104775000D03*
X101346000Y-103251000D03*
X100584000Y-103251000D03*
D43*
X118171000Y-117064000D03*
X116271000Y-117064000D03*
X118171000Y-119664000D03*
X117221000Y-119664000D03*
X116271000Y-119664000D03*
D21*
X85344000Y-110236000D03*
X87122000Y-110236000D03*
D35*
X71120000Y-97155000D03*
X79248000Y-97155000D03*
X71120000Y-102997000D03*
X79248000Y-102997000D03*
D44*
X92075000Y-86995000D03*
X92075000Y-83439000D03*
X92075000Y-79375000D03*
X92075000Y-75819000D03*
D13*
X77470000Y-124079000D03*
X118872000Y-75057000D03*
D21*
X93980000Y-114300000D03*
X95758000Y-114300000D03*
X109474000Y-114300000D03*
X111252000Y-114300000D03*
X93980000Y-121158000D03*
X95758000Y-121158000D03*
X108331000Y-119253000D03*
X110109000Y-119253000D03*
X79502000Y-101092000D03*
X79502000Y-99314000D03*
D45*
X113070000Y-106680000D03*
X118070000Y-106680000D03*
D46*
X117345460Y-101894640D03*
X118300500Y-104104440D03*
X116398040Y-104104440D03*
D47*
X97917000Y-112395000D03*
X107315000Y-112395000D03*
D48*
X89829640Y-116207540D03*
X92039440Y-115252500D03*
X92039440Y-117154960D03*
X89702640Y-119763540D03*
X91912440Y-118808500D03*
X91912440Y-120710960D03*
D21*
X114681000Y-103886000D03*
X112903000Y-103886000D03*
X93980000Y-118745000D03*
X95758000Y-118745000D03*
X83185000Y-97282000D03*
X81407000Y-97282000D03*
X81407000Y-98806000D03*
X83185000Y-98806000D03*
X84963000Y-98679000D03*
X84963000Y-96901000D03*
X116967000Y-87122000D03*
X118745000Y-87122000D03*
X114173000Y-119761000D03*
X114173000Y-117983000D03*
X114173000Y-114681000D03*
X114173000Y-116459000D03*
D36*
X117983000Y-112903000D03*
X115951000Y-112903000D03*
X115951000Y-114935000D03*
X117983000Y-114935000D03*
D21*
X86360000Y-119761000D03*
X88138000Y-119761000D03*
D49*
X81504000Y-100269000D03*
X81504000Y-102169000D03*
X84104000Y-100269000D03*
X84104000Y-101219000D03*
X84104000Y-102169000D03*
D46*
X88077000Y-124163000D03*
X89977000Y-124163000D03*
X89027000Y-121963000D03*
X82743000Y-124163000D03*
X84643000Y-124163000D03*
X83693000Y-121963000D03*
D21*
X86360000Y-122555000D03*
X86360000Y-124333000D03*
D50*
X117217000Y-91650000D03*
X113747000Y-91650000D03*
X113747000Y-98850000D03*
X117217000Y-98850000D03*
D51*
X118367000Y-93750000D03*
X118367000Y-96750000D03*
D52*
X115067000Y-93250000D03*
X115067000Y-97250000D03*
D53*
X114067000Y-93950000D03*
X114067000Y-94600000D03*
X114067000Y-95250000D03*
X114067000Y-95900000D03*
X114067000Y-96550000D03*
D54*
X111506000Y-128016000D03*
X114046000Y-128016000D03*
X119126000Y-128016000D03*
X116586000Y-128016000D03*
X106426000Y-128016000D03*
X108966000Y-128016000D03*
X103886000Y-128016000D03*
X101346000Y-128016000D03*
X96266000Y-128016000D03*
X98806000Y-128016000D03*
X93726000Y-128016000D03*
X91186000Y-128016000D03*
X86106000Y-128016000D03*
X88646000Y-128016000D03*
X83566000Y-128016000D03*
X81026000Y-128016000D03*
D55*
X70866000Y-128016000D03*
D54*
X73406000Y-128016000D03*
X75946000Y-128016000D03*
X78486000Y-128016000D03*
D40*
X117094000Y-80899000D03*
X118618000Y-80899000D03*
D21*
X116967000Y-82677000D03*
X118745000Y-82677000D03*
X87376000Y-106299000D03*
X85598000Y-106299000D03*
X85598000Y-104648000D03*
X87376000Y-104648000D03*
D56*
X113647000Y-109982000D03*
X118001000Y-109982000D03*
M02*
