G04 #@! TF.GenerationSoftware,KiCad,Pcbnew,5.1.0-unknown-f7d35cf~86~ubuntu18.04.1*
G04 #@! TF.CreationDate,2019-04-25T16:16:15+03:00*
G04 #@! TF.ProjectId,ESP32-GATEWAY_Rev_F,45535033-322d-4474-9154-455741595f52,F*
G04 #@! TF.SameCoordinates,Original*
G04 #@! TF.FileFunction,Legend,Bot*
G04 #@! TF.FilePolarity,Positive*
%FSLAX46Y46*%
G04 Gerber Fmt 4.6, Leading zero omitted, Abs format (unit mm)*
G04 Created by KiCad (PCBNEW 5.1.0-unknown-f7d35cf~86~ubuntu18.04.1) date 2019-04-25 16:16:15*
%MOMM*%
%LPD*%
G04 APERTURE LIST*
%ADD10C,0.254000*%
%ADD11C,0.190500*%
%ADD12C,0.635000*%
%ADD13C,0.400000*%
%ADD14C,0.700000*%
%ADD15C,0.500000*%
%ADD16C,0.100000*%
%ADD17C,0.508000*%
%ADD18C,0.150000*%
%ADD19C,0.127000*%
%ADD20C,0.200000*%
%ADD21C,0.420000*%
%ADD22C,0.370000*%
%ADD23C,0.380000*%
%ADD24C,1.000000*%
%ADD25C,0.317500*%
%ADD26C,0.350000*%
%ADD27C,0.381000*%
%ADD28C,0.180000*%
G04 APERTURE END LIST*
D10*
X119773095Y-125651380D02*
X119724714Y-125603000D01*
X119627952Y-125554619D01*
X119386047Y-125554619D01*
X119289285Y-125603000D01*
X119240904Y-125651380D01*
X119192523Y-125748142D01*
X119192523Y-125844904D01*
X119240904Y-125990047D01*
X119821476Y-126570619D01*
X119192523Y-126570619D01*
X118563571Y-125554619D02*
X118466809Y-125554619D01*
X118370047Y-125603000D01*
X118321666Y-125651380D01*
X118273285Y-125748142D01*
X118224904Y-125941666D01*
X118224904Y-126183571D01*
X118273285Y-126377095D01*
X118321666Y-126473857D01*
X118370047Y-126522238D01*
X118466809Y-126570619D01*
X118563571Y-126570619D01*
X118660333Y-126522238D01*
X118708714Y-126473857D01*
X118757095Y-126377095D01*
X118805476Y-126183571D01*
X118805476Y-125941666D01*
X118757095Y-125748142D01*
X118708714Y-125651380D01*
X118660333Y-125603000D01*
X118563571Y-125554619D01*
X115316000Y-125603000D02*
X115316000Y-123571000D01*
X117221000Y-123571000D02*
X117221000Y-125603000D01*
X77343000Y-118745000D02*
X77343000Y-125603000D01*
X79121000Y-125603000D02*
X79121000Y-118745000D01*
X81026000Y-123698000D02*
X81026000Y-125603000D01*
X79121000Y-125603000D02*
X81026000Y-125603000D01*
D11*
X115987285Y-124006428D02*
X115951000Y-124042714D01*
X115914714Y-124115285D01*
X115914714Y-124296714D01*
X115951000Y-124369285D01*
X115987285Y-124405571D01*
X116059857Y-124441857D01*
X116132428Y-124441857D01*
X116241285Y-124405571D01*
X116676714Y-123970142D01*
X116676714Y-124441857D01*
X115914714Y-124913571D02*
X115914714Y-124986142D01*
X115951000Y-125058714D01*
X115987285Y-125095000D01*
X116059857Y-125131285D01*
X116205000Y-125167571D01*
X116386428Y-125167571D01*
X116531571Y-125131285D01*
X116604142Y-125095000D01*
X116640428Y-125058714D01*
X116676714Y-124986142D01*
X116676714Y-124913571D01*
X116640428Y-124841000D01*
X116604142Y-124804714D01*
X116531571Y-124768428D01*
X116386428Y-124732142D01*
X116205000Y-124732142D01*
X116059857Y-124768428D01*
X115987285Y-124804714D01*
X115951000Y-124841000D01*
X115914714Y-124913571D01*
D10*
X117221000Y-125603000D02*
X115316000Y-125603000D01*
X117221000Y-118745000D02*
X117221000Y-123571000D01*
X117221000Y-118745000D02*
X77343000Y-118745000D01*
X117221000Y-123571000D02*
X79121000Y-123571000D01*
X115316000Y-118745000D02*
X115316000Y-123571000D01*
X111506000Y-118745000D02*
X111506000Y-123571000D01*
X109601000Y-118745000D02*
X109601000Y-123571000D01*
X107696000Y-118745000D02*
X107696000Y-123571000D01*
X105791000Y-118745000D02*
X105791000Y-123571000D01*
X103886000Y-118745000D02*
X103886000Y-123571000D01*
X101981000Y-118745000D02*
X101981000Y-123571000D01*
X100076000Y-118745000D02*
X100076000Y-123571000D01*
X98171000Y-118745000D02*
X98171000Y-123571000D01*
X96266000Y-118745000D02*
X96266000Y-123571000D01*
X94361000Y-118745000D02*
X94361000Y-123571000D01*
X92456000Y-118745000D02*
X92456000Y-123571000D01*
X90551000Y-118745000D02*
X90551000Y-123571000D01*
X88646000Y-118745000D02*
X88646000Y-123571000D01*
X86741000Y-118745000D02*
X86741000Y-123571000D01*
X84836000Y-118745000D02*
X84836000Y-123571000D01*
X82931000Y-118745000D02*
X82931000Y-123571000D01*
X81026000Y-118872000D02*
X81026000Y-123571000D01*
X113411000Y-118745000D02*
X113411000Y-123571000D01*
X96489761Y-99126523D02*
X96489761Y-97856523D01*
X95945476Y-99126523D02*
X95945476Y-98461285D01*
X96005952Y-98340333D01*
X96126904Y-98279857D01*
X96308333Y-98279857D01*
X96429285Y-98340333D01*
X96489761Y-98400809D01*
X95522142Y-98279857D02*
X95038333Y-98279857D01*
X95340714Y-97856523D02*
X95340714Y-98945095D01*
X95280238Y-99066047D01*
X95159285Y-99126523D01*
X95038333Y-99126523D01*
X94796428Y-98279857D02*
X94312619Y-98279857D01*
X94615000Y-97856523D02*
X94615000Y-98945095D01*
X94554523Y-99066047D01*
X94433571Y-99126523D01*
X94312619Y-99126523D01*
X93889285Y-98279857D02*
X93889285Y-99549857D01*
X93889285Y-98340333D02*
X93768333Y-98279857D01*
X93526428Y-98279857D01*
X93405476Y-98340333D01*
X93345000Y-98400809D01*
X93284523Y-98521761D01*
X93284523Y-98884619D01*
X93345000Y-99005571D01*
X93405476Y-99066047D01*
X93526428Y-99126523D01*
X93768333Y-99126523D01*
X93889285Y-99066047D01*
X92800714Y-99066047D02*
X92679761Y-99126523D01*
X92437857Y-99126523D01*
X92316904Y-99066047D01*
X92256428Y-98945095D01*
X92256428Y-98884619D01*
X92316904Y-98763666D01*
X92437857Y-98703190D01*
X92619285Y-98703190D01*
X92740238Y-98642714D01*
X92800714Y-98521761D01*
X92800714Y-98461285D01*
X92740238Y-98340333D01*
X92619285Y-98279857D01*
X92437857Y-98279857D01*
X92316904Y-98340333D01*
X91712142Y-99005571D02*
X91651666Y-99066047D01*
X91712142Y-99126523D01*
X91772619Y-99066047D01*
X91712142Y-99005571D01*
X91712142Y-99126523D01*
X91712142Y-98340333D02*
X91651666Y-98400809D01*
X91712142Y-98461285D01*
X91772619Y-98400809D01*
X91712142Y-98340333D01*
X91712142Y-98461285D01*
X90200238Y-97796047D02*
X91288809Y-99428904D01*
X88869761Y-97796047D02*
X89958333Y-99428904D01*
X88567380Y-98279857D02*
X88325476Y-99126523D01*
X88083571Y-98521761D01*
X87841666Y-99126523D01*
X87599761Y-98279857D01*
X87236904Y-98279857D02*
X86995000Y-99126523D01*
X86753095Y-98521761D01*
X86511190Y-99126523D01*
X86269285Y-98279857D01*
X85906428Y-98279857D02*
X85664523Y-99126523D01*
X85422619Y-98521761D01*
X85180714Y-99126523D01*
X84938809Y-98279857D01*
X84455000Y-99005571D02*
X84394523Y-99066047D01*
X84455000Y-99126523D01*
X84515476Y-99066047D01*
X84455000Y-99005571D01*
X84455000Y-99126523D01*
X83668809Y-99126523D02*
X83789761Y-99066047D01*
X83850238Y-99005571D01*
X83910714Y-98884619D01*
X83910714Y-98521761D01*
X83850238Y-98400809D01*
X83789761Y-98340333D01*
X83668809Y-98279857D01*
X83487380Y-98279857D01*
X83366428Y-98340333D01*
X83305952Y-98400809D01*
X83245476Y-98521761D01*
X83245476Y-98884619D01*
X83305952Y-99005571D01*
X83366428Y-99066047D01*
X83487380Y-99126523D01*
X83668809Y-99126523D01*
X82519761Y-99126523D02*
X82640714Y-99066047D01*
X82701190Y-98945095D01*
X82701190Y-97856523D01*
X82035952Y-99126523D02*
X82035952Y-98279857D01*
X82035952Y-97856523D02*
X82096428Y-97917000D01*
X82035952Y-97977476D01*
X81975476Y-97917000D01*
X82035952Y-97856523D01*
X82035952Y-97977476D01*
X81431190Y-99126523D02*
X81431190Y-98279857D01*
X81431190Y-98400809D02*
X81370714Y-98340333D01*
X81249761Y-98279857D01*
X81068333Y-98279857D01*
X80947380Y-98340333D01*
X80886904Y-98461285D01*
X80886904Y-99126523D01*
X80886904Y-98461285D02*
X80826428Y-98340333D01*
X80705476Y-98279857D01*
X80524047Y-98279857D01*
X80403095Y-98340333D01*
X80342619Y-98461285D01*
X80342619Y-99126523D01*
X79254047Y-99066047D02*
X79375000Y-99126523D01*
X79616904Y-99126523D01*
X79737857Y-99066047D01*
X79798333Y-98945095D01*
X79798333Y-98461285D01*
X79737857Y-98340333D01*
X79616904Y-98279857D01*
X79375000Y-98279857D01*
X79254047Y-98340333D01*
X79193571Y-98461285D01*
X79193571Y-98582238D01*
X79798333Y-98703190D01*
X78770238Y-99126523D02*
X78105000Y-98279857D01*
X78770238Y-98279857D02*
X78105000Y-99126523D01*
X77621190Y-99005571D02*
X77560714Y-99066047D01*
X77621190Y-99126523D01*
X77681666Y-99066047D01*
X77621190Y-99005571D01*
X77621190Y-99126523D01*
X76472142Y-99066047D02*
X76593095Y-99126523D01*
X76835000Y-99126523D01*
X76955952Y-99066047D01*
X77016428Y-99005571D01*
X77076904Y-98884619D01*
X77076904Y-98521761D01*
X77016428Y-98400809D01*
X76955952Y-98340333D01*
X76835000Y-98279857D01*
X76593095Y-98279857D01*
X76472142Y-98340333D01*
X75746428Y-99126523D02*
X75867380Y-99066047D01*
X75927857Y-99005571D01*
X75988333Y-98884619D01*
X75988333Y-98521761D01*
X75927857Y-98400809D01*
X75867380Y-98340333D01*
X75746428Y-98279857D01*
X75565000Y-98279857D01*
X75444047Y-98340333D01*
X75383571Y-98400809D01*
X75323095Y-98521761D01*
X75323095Y-98884619D01*
X75383571Y-99005571D01*
X75444047Y-99066047D01*
X75565000Y-99126523D01*
X75746428Y-99126523D01*
X74778809Y-99126523D02*
X74778809Y-98279857D01*
X74778809Y-98400809D02*
X74718333Y-98340333D01*
X74597380Y-98279857D01*
X74415952Y-98279857D01*
X74295000Y-98340333D01*
X74234523Y-98461285D01*
X74234523Y-99126523D01*
X74234523Y-98461285D02*
X74174047Y-98340333D01*
X74053095Y-98279857D01*
X73871666Y-98279857D01*
X73750714Y-98340333D01*
X73690238Y-98461285D01*
X73690238Y-99126523D01*
X70448714Y-126443619D02*
X71029285Y-126443619D01*
X70739000Y-126443619D02*
X70739000Y-125427619D01*
X70835761Y-125572761D01*
X70932523Y-125669523D01*
X71029285Y-125717904D01*
D12*
X109709857Y-93127285D02*
X108693857Y-93127285D01*
X108258428Y-94723857D02*
X109709857Y-94723857D01*
X109709857Y-91675857D01*
X108258428Y-91675857D01*
X107097285Y-94578714D02*
X106661857Y-94723857D01*
X105936142Y-94723857D01*
X105645857Y-94578714D01*
X105500714Y-94433571D01*
X105355571Y-94143285D01*
X105355571Y-93853000D01*
X105500714Y-93562714D01*
X105645857Y-93417571D01*
X105936142Y-93272428D01*
X106516714Y-93127285D01*
X106807000Y-92982142D01*
X106952142Y-92837000D01*
X107097285Y-92546714D01*
X107097285Y-92256428D01*
X106952142Y-91966142D01*
X106807000Y-91821000D01*
X106516714Y-91675857D01*
X105791000Y-91675857D01*
X105355571Y-91821000D01*
X104049285Y-94723857D02*
X104049285Y-91675857D01*
X102888142Y-91675857D01*
X102597857Y-91821000D01*
X102452714Y-91966142D01*
X102307571Y-92256428D01*
X102307571Y-92691857D01*
X102452714Y-92982142D01*
X102597857Y-93127285D01*
X102888142Y-93272428D01*
X104049285Y-93272428D01*
X101291571Y-91675857D02*
X99404714Y-91675857D01*
X100420714Y-92837000D01*
X99985285Y-92837000D01*
X99695000Y-92982142D01*
X99549857Y-93127285D01*
X99404714Y-93417571D01*
X99404714Y-94143285D01*
X99549857Y-94433571D01*
X99695000Y-94578714D01*
X99985285Y-94723857D01*
X100856142Y-94723857D01*
X101146428Y-94578714D01*
X101291571Y-94433571D01*
X98243571Y-91966142D02*
X98098428Y-91821000D01*
X97808142Y-91675857D01*
X97082428Y-91675857D01*
X96792142Y-91821000D01*
X96647000Y-91966142D01*
X96501857Y-92256428D01*
X96501857Y-92546714D01*
X96647000Y-92982142D01*
X98388714Y-94723857D01*
X96501857Y-94723857D01*
X95195571Y-93562714D02*
X92873285Y-93562714D01*
X89825285Y-91821000D02*
X90115571Y-91675857D01*
X90551000Y-91675857D01*
X90986428Y-91821000D01*
X91276714Y-92111285D01*
X91421857Y-92401571D01*
X91567000Y-92982142D01*
X91567000Y-93417571D01*
X91421857Y-93998142D01*
X91276714Y-94288428D01*
X90986428Y-94578714D01*
X90551000Y-94723857D01*
X90260714Y-94723857D01*
X89825285Y-94578714D01*
X89680142Y-94433571D01*
X89680142Y-93417571D01*
X90260714Y-93417571D01*
X88519000Y-93853000D02*
X87067571Y-93853000D01*
X88809285Y-94723857D02*
X87793285Y-91675857D01*
X86777285Y-94723857D01*
X86196714Y-91675857D02*
X84455000Y-91675857D01*
X85325857Y-94723857D02*
X85325857Y-91675857D01*
X83439000Y-93127285D02*
X82423000Y-93127285D01*
X81987571Y-94723857D02*
X83439000Y-94723857D01*
X83439000Y-91675857D01*
X81987571Y-91675857D01*
X80971571Y-91675857D02*
X80245857Y-94723857D01*
X79665285Y-92546714D01*
X79084714Y-94723857D01*
X78359000Y-91675857D01*
X77343000Y-93853000D02*
X75891571Y-93853000D01*
X77633285Y-94723857D02*
X76617285Y-91675857D01*
X75601285Y-94723857D01*
X74004714Y-93272428D02*
X74004714Y-94723857D01*
X75020714Y-91675857D02*
X74004714Y-93272428D01*
X72988714Y-91675857D01*
D11*
X116386428Y-120432285D02*
X116386428Y-121012857D01*
X116676714Y-120722571D02*
X116096142Y-120722571D01*
X115914714Y-121738571D02*
X115914714Y-121375714D01*
X116277571Y-121339428D01*
X116241285Y-121375714D01*
X116205000Y-121448285D01*
X116205000Y-121629714D01*
X116241285Y-121702285D01*
X116277571Y-121738571D01*
X116350142Y-121774857D01*
X116531571Y-121774857D01*
X116604142Y-121738571D01*
X116640428Y-121702285D01*
X116676714Y-121629714D01*
X116676714Y-121448285D01*
X116640428Y-121375714D01*
X116604142Y-121339428D01*
X115914714Y-121992571D02*
X116676714Y-122246571D01*
X115914714Y-122500571D01*
X112141000Y-120069428D02*
X112104714Y-119996857D01*
X112104714Y-119888000D01*
X112141000Y-119779142D01*
X112213571Y-119706571D01*
X112286142Y-119670285D01*
X112431285Y-119634000D01*
X112540142Y-119634000D01*
X112685285Y-119670285D01*
X112757857Y-119706571D01*
X112830428Y-119779142D01*
X112866714Y-119888000D01*
X112866714Y-119960571D01*
X112830428Y-120069428D01*
X112794142Y-120105714D01*
X112540142Y-120105714D01*
X112540142Y-119960571D01*
X112866714Y-120432285D02*
X112104714Y-120432285D01*
X112104714Y-120722571D01*
X112141000Y-120795142D01*
X112177285Y-120831428D01*
X112249857Y-120867714D01*
X112358714Y-120867714D01*
X112431285Y-120831428D01*
X112467571Y-120795142D01*
X112503857Y-120722571D01*
X112503857Y-120432285D01*
X112866714Y-121194285D02*
X112104714Y-121194285D01*
X112104714Y-121484571D02*
X112104714Y-121956285D01*
X112395000Y-121702285D01*
X112395000Y-121811142D01*
X112431285Y-121883714D01*
X112467571Y-121920000D01*
X112540142Y-121956285D01*
X112721571Y-121956285D01*
X112794142Y-121920000D01*
X112830428Y-121883714D01*
X112866714Y-121811142D01*
X112866714Y-121593428D01*
X112830428Y-121520857D01*
X112794142Y-121484571D01*
X112866714Y-122319142D02*
X112866714Y-122464285D01*
X112830428Y-122536857D01*
X112794142Y-122573142D01*
X112685285Y-122645714D01*
X112540142Y-122682000D01*
X112249857Y-122682000D01*
X112177285Y-122645714D01*
X112141000Y-122609428D01*
X112104714Y-122536857D01*
X112104714Y-122391714D01*
X112141000Y-122319142D01*
X112177285Y-122282857D01*
X112249857Y-122246571D01*
X112431285Y-122246571D01*
X112503857Y-122282857D01*
X112540142Y-122319142D01*
X112576428Y-122391714D01*
X112576428Y-122536857D01*
X112540142Y-122609428D01*
X112503857Y-122645714D01*
X112431285Y-122682000D01*
X114046000Y-120831428D02*
X114009714Y-120758857D01*
X114009714Y-120650000D01*
X114046000Y-120541142D01*
X114118571Y-120468571D01*
X114191142Y-120432285D01*
X114336285Y-120396000D01*
X114445142Y-120396000D01*
X114590285Y-120432285D01*
X114662857Y-120468571D01*
X114735428Y-120541142D01*
X114771714Y-120650000D01*
X114771714Y-120722571D01*
X114735428Y-120831428D01*
X114699142Y-120867714D01*
X114445142Y-120867714D01*
X114445142Y-120722571D01*
X114771714Y-121194285D02*
X114009714Y-121194285D01*
X114771714Y-121629714D01*
X114009714Y-121629714D01*
X114771714Y-121992571D02*
X114009714Y-121992571D01*
X114009714Y-122174000D01*
X114046000Y-122282857D01*
X114118571Y-122355428D01*
X114191142Y-122391714D01*
X114336285Y-122428000D01*
X114445142Y-122428000D01*
X114590285Y-122391714D01*
X114662857Y-122355428D01*
X114735428Y-122282857D01*
X114771714Y-122174000D01*
X114771714Y-121992571D01*
X110236000Y-120069428D02*
X110199714Y-119996857D01*
X110199714Y-119888000D01*
X110236000Y-119779142D01*
X110308571Y-119706571D01*
X110381142Y-119670285D01*
X110526285Y-119634000D01*
X110635142Y-119634000D01*
X110780285Y-119670285D01*
X110852857Y-119706571D01*
X110925428Y-119779142D01*
X110961714Y-119888000D01*
X110961714Y-119960571D01*
X110925428Y-120069428D01*
X110889142Y-120105714D01*
X110635142Y-120105714D01*
X110635142Y-119960571D01*
X110961714Y-120432285D02*
X110199714Y-120432285D01*
X110199714Y-120722571D01*
X110236000Y-120795142D01*
X110272285Y-120831428D01*
X110344857Y-120867714D01*
X110453714Y-120867714D01*
X110526285Y-120831428D01*
X110562571Y-120795142D01*
X110598857Y-120722571D01*
X110598857Y-120432285D01*
X110961714Y-121194285D02*
X110199714Y-121194285D01*
X110199714Y-121484571D02*
X110199714Y-121956285D01*
X110490000Y-121702285D01*
X110490000Y-121811142D01*
X110526285Y-121883714D01*
X110562571Y-121920000D01*
X110635142Y-121956285D01*
X110816571Y-121956285D01*
X110889142Y-121920000D01*
X110925428Y-121883714D01*
X110961714Y-121811142D01*
X110961714Y-121593428D01*
X110925428Y-121520857D01*
X110889142Y-121484571D01*
X110199714Y-122609428D02*
X110199714Y-122464285D01*
X110236000Y-122391714D01*
X110272285Y-122355428D01*
X110381142Y-122282857D01*
X110526285Y-122246571D01*
X110816571Y-122246571D01*
X110889142Y-122282857D01*
X110925428Y-122319142D01*
X110961714Y-122391714D01*
X110961714Y-122536857D01*
X110925428Y-122609428D01*
X110889142Y-122645714D01*
X110816571Y-122682000D01*
X110635142Y-122682000D01*
X110562571Y-122645714D01*
X110526285Y-122609428D01*
X110490000Y-122536857D01*
X110490000Y-122391714D01*
X110526285Y-122319142D01*
X110562571Y-122282857D01*
X110635142Y-122246571D01*
X108331000Y-120069428D02*
X108294714Y-119996857D01*
X108294714Y-119888000D01*
X108331000Y-119779142D01*
X108403571Y-119706571D01*
X108476142Y-119670285D01*
X108621285Y-119634000D01*
X108730142Y-119634000D01*
X108875285Y-119670285D01*
X108947857Y-119706571D01*
X109020428Y-119779142D01*
X109056714Y-119888000D01*
X109056714Y-119960571D01*
X109020428Y-120069428D01*
X108984142Y-120105714D01*
X108730142Y-120105714D01*
X108730142Y-119960571D01*
X109056714Y-120432285D02*
X108294714Y-120432285D01*
X108294714Y-120722571D01*
X108331000Y-120795142D01*
X108367285Y-120831428D01*
X108439857Y-120867714D01*
X108548714Y-120867714D01*
X108621285Y-120831428D01*
X108657571Y-120795142D01*
X108693857Y-120722571D01*
X108693857Y-120432285D01*
X109056714Y-121194285D02*
X108294714Y-121194285D01*
X108294714Y-121484571D02*
X108294714Y-121956285D01*
X108585000Y-121702285D01*
X108585000Y-121811142D01*
X108621285Y-121883714D01*
X108657571Y-121920000D01*
X108730142Y-121956285D01*
X108911571Y-121956285D01*
X108984142Y-121920000D01*
X109020428Y-121883714D01*
X109056714Y-121811142D01*
X109056714Y-121593428D01*
X109020428Y-121520857D01*
X108984142Y-121484571D01*
X108294714Y-122645714D02*
X108294714Y-122282857D01*
X108657571Y-122246571D01*
X108621285Y-122282857D01*
X108585000Y-122355428D01*
X108585000Y-122536857D01*
X108621285Y-122609428D01*
X108657571Y-122645714D01*
X108730142Y-122682000D01*
X108911571Y-122682000D01*
X108984142Y-122645714D01*
X109020428Y-122609428D01*
X109056714Y-122536857D01*
X109056714Y-122355428D01*
X109020428Y-122282857D01*
X108984142Y-122246571D01*
X106426000Y-120069428D02*
X106389714Y-119996857D01*
X106389714Y-119888000D01*
X106426000Y-119779142D01*
X106498571Y-119706571D01*
X106571142Y-119670285D01*
X106716285Y-119634000D01*
X106825142Y-119634000D01*
X106970285Y-119670285D01*
X107042857Y-119706571D01*
X107115428Y-119779142D01*
X107151714Y-119888000D01*
X107151714Y-119960571D01*
X107115428Y-120069428D01*
X107079142Y-120105714D01*
X106825142Y-120105714D01*
X106825142Y-119960571D01*
X107151714Y-120432285D02*
X106389714Y-120432285D01*
X106389714Y-120722571D01*
X106426000Y-120795142D01*
X106462285Y-120831428D01*
X106534857Y-120867714D01*
X106643714Y-120867714D01*
X106716285Y-120831428D01*
X106752571Y-120795142D01*
X106788857Y-120722571D01*
X106788857Y-120432285D01*
X107151714Y-121194285D02*
X106389714Y-121194285D01*
X106389714Y-121484571D02*
X106389714Y-121956285D01*
X106680000Y-121702285D01*
X106680000Y-121811142D01*
X106716285Y-121883714D01*
X106752571Y-121920000D01*
X106825142Y-121956285D01*
X107006571Y-121956285D01*
X107079142Y-121920000D01*
X107115428Y-121883714D01*
X107151714Y-121811142D01*
X107151714Y-121593428D01*
X107115428Y-121520857D01*
X107079142Y-121484571D01*
X106643714Y-122609428D02*
X107151714Y-122609428D01*
X106353428Y-122428000D02*
X106897714Y-122246571D01*
X106897714Y-122718285D01*
X104521000Y-119670285D02*
X104484714Y-119597714D01*
X104484714Y-119488857D01*
X104521000Y-119380000D01*
X104593571Y-119307428D01*
X104666142Y-119271142D01*
X104811285Y-119234857D01*
X104920142Y-119234857D01*
X105065285Y-119271142D01*
X105137857Y-119307428D01*
X105210428Y-119380000D01*
X105246714Y-119488857D01*
X105246714Y-119561428D01*
X105210428Y-119670285D01*
X105174142Y-119706571D01*
X104920142Y-119706571D01*
X104920142Y-119561428D01*
X105246714Y-120033142D02*
X104484714Y-120033142D01*
X104484714Y-120323428D01*
X104521000Y-120396000D01*
X104557285Y-120432285D01*
X104629857Y-120468571D01*
X104738714Y-120468571D01*
X104811285Y-120432285D01*
X104847571Y-120396000D01*
X104883857Y-120323428D01*
X104883857Y-120033142D01*
X105246714Y-120795142D02*
X104484714Y-120795142D01*
X104484714Y-121303142D02*
X104484714Y-121448285D01*
X104521000Y-121520857D01*
X104593571Y-121593428D01*
X104738714Y-121629714D01*
X104992714Y-121629714D01*
X105137857Y-121593428D01*
X105210428Y-121520857D01*
X105246714Y-121448285D01*
X105246714Y-121303142D01*
X105210428Y-121230571D01*
X105137857Y-121158000D01*
X104992714Y-121121714D01*
X104738714Y-121121714D01*
X104593571Y-121158000D01*
X104521000Y-121230571D01*
X104484714Y-121303142D01*
X104484714Y-121883714D02*
X104484714Y-122355428D01*
X104775000Y-122101428D01*
X104775000Y-122210285D01*
X104811285Y-122282857D01*
X104847571Y-122319142D01*
X104920142Y-122355428D01*
X105101571Y-122355428D01*
X105174142Y-122319142D01*
X105210428Y-122282857D01*
X105246714Y-122210285D01*
X105246714Y-121992571D01*
X105210428Y-121920000D01*
X105174142Y-121883714D01*
X104484714Y-122609428D02*
X104484714Y-123081142D01*
X104775000Y-122827142D01*
X104775000Y-122936000D01*
X104811285Y-123008571D01*
X104847571Y-123044857D01*
X104920142Y-123081142D01*
X105101571Y-123081142D01*
X105174142Y-123044857D01*
X105210428Y-123008571D01*
X105246714Y-122936000D01*
X105246714Y-122718285D01*
X105210428Y-122645714D01*
X105174142Y-122609428D01*
X102616000Y-119670285D02*
X102579714Y-119597714D01*
X102579714Y-119488857D01*
X102616000Y-119380000D01*
X102688571Y-119307428D01*
X102761142Y-119271142D01*
X102906285Y-119234857D01*
X103015142Y-119234857D01*
X103160285Y-119271142D01*
X103232857Y-119307428D01*
X103305428Y-119380000D01*
X103341714Y-119488857D01*
X103341714Y-119561428D01*
X103305428Y-119670285D01*
X103269142Y-119706571D01*
X103015142Y-119706571D01*
X103015142Y-119561428D01*
X103341714Y-120033142D02*
X102579714Y-120033142D01*
X102579714Y-120323428D01*
X102616000Y-120396000D01*
X102652285Y-120432285D01*
X102724857Y-120468571D01*
X102833714Y-120468571D01*
X102906285Y-120432285D01*
X102942571Y-120396000D01*
X102978857Y-120323428D01*
X102978857Y-120033142D01*
X103341714Y-120795142D02*
X102579714Y-120795142D01*
X102579714Y-121303142D02*
X102579714Y-121448285D01*
X102616000Y-121520857D01*
X102688571Y-121593428D01*
X102833714Y-121629714D01*
X103087714Y-121629714D01*
X103232857Y-121593428D01*
X103305428Y-121520857D01*
X103341714Y-121448285D01*
X103341714Y-121303142D01*
X103305428Y-121230571D01*
X103232857Y-121158000D01*
X103087714Y-121121714D01*
X102833714Y-121121714D01*
X102688571Y-121158000D01*
X102616000Y-121230571D01*
X102579714Y-121303142D01*
X102579714Y-121883714D02*
X102579714Y-122355428D01*
X102870000Y-122101428D01*
X102870000Y-122210285D01*
X102906285Y-122282857D01*
X102942571Y-122319142D01*
X103015142Y-122355428D01*
X103196571Y-122355428D01*
X103269142Y-122319142D01*
X103305428Y-122282857D01*
X103341714Y-122210285D01*
X103341714Y-121992571D01*
X103305428Y-121920000D01*
X103269142Y-121883714D01*
X102652285Y-122645714D02*
X102616000Y-122682000D01*
X102579714Y-122754571D01*
X102579714Y-122936000D01*
X102616000Y-123008571D01*
X102652285Y-123044857D01*
X102724857Y-123081142D01*
X102797428Y-123081142D01*
X102906285Y-123044857D01*
X103341714Y-122609428D01*
X103341714Y-123081142D01*
D10*
X77343000Y-125603000D02*
X79121000Y-125603000D01*
D11*
X78576714Y-119525142D02*
X77814714Y-119525142D01*
X77814714Y-119815428D01*
X77851000Y-119888000D01*
X77887285Y-119924285D01*
X77959857Y-119960571D01*
X78068714Y-119960571D01*
X78141285Y-119924285D01*
X78177571Y-119888000D01*
X78213857Y-119815428D01*
X78213857Y-119525142D01*
X78576714Y-120287142D02*
X77814714Y-120287142D01*
X78576714Y-120650000D02*
X77814714Y-120650000D01*
X78576714Y-121085428D01*
X77814714Y-121085428D01*
X78576714Y-122028857D02*
X77814714Y-122028857D01*
X78359000Y-122282857D01*
X77814714Y-122536857D01*
X78576714Y-122536857D01*
X78359000Y-122863428D02*
X78359000Y-123226285D01*
X78576714Y-122790857D02*
X77814714Y-123044857D01*
X78576714Y-123298857D01*
X78576714Y-123552857D02*
X77814714Y-123552857D01*
X77814714Y-123843142D01*
X77851000Y-123915714D01*
X77887285Y-123952000D01*
X77959857Y-123988285D01*
X78068714Y-123988285D01*
X78141285Y-123952000D01*
X78177571Y-123915714D01*
X78213857Y-123843142D01*
X78213857Y-123552857D01*
X78504142Y-124314857D02*
X78540428Y-124351142D01*
X78576714Y-124314857D01*
X78540428Y-124278571D01*
X78504142Y-124314857D01*
X78576714Y-124314857D01*
X78105000Y-124314857D02*
X78141285Y-124351142D01*
X78177571Y-124314857D01*
X78141285Y-124278571D01*
X78105000Y-124314857D01*
X78177571Y-124314857D01*
X100711000Y-119670285D02*
X100674714Y-119597714D01*
X100674714Y-119488857D01*
X100711000Y-119380000D01*
X100783571Y-119307428D01*
X100856142Y-119271142D01*
X101001285Y-119234857D01*
X101110142Y-119234857D01*
X101255285Y-119271142D01*
X101327857Y-119307428D01*
X101400428Y-119380000D01*
X101436714Y-119488857D01*
X101436714Y-119561428D01*
X101400428Y-119670285D01*
X101364142Y-119706571D01*
X101110142Y-119706571D01*
X101110142Y-119561428D01*
X101436714Y-120033142D02*
X100674714Y-120033142D01*
X100674714Y-120323428D01*
X100711000Y-120396000D01*
X100747285Y-120432285D01*
X100819857Y-120468571D01*
X100928714Y-120468571D01*
X101001285Y-120432285D01*
X101037571Y-120396000D01*
X101073857Y-120323428D01*
X101073857Y-120033142D01*
X101436714Y-120795142D02*
X100674714Y-120795142D01*
X100674714Y-121303142D02*
X100674714Y-121448285D01*
X100711000Y-121520857D01*
X100783571Y-121593428D01*
X100928714Y-121629714D01*
X101182714Y-121629714D01*
X101327857Y-121593428D01*
X101400428Y-121520857D01*
X101436714Y-121448285D01*
X101436714Y-121303142D01*
X101400428Y-121230571D01*
X101327857Y-121158000D01*
X101182714Y-121121714D01*
X100928714Y-121121714D01*
X100783571Y-121158000D01*
X100711000Y-121230571D01*
X100674714Y-121303142D01*
X101436714Y-122355428D02*
X101436714Y-121920000D01*
X101436714Y-122137714D02*
X100674714Y-122137714D01*
X100783571Y-122065142D01*
X100856142Y-121992571D01*
X100892428Y-121920000D01*
X100674714Y-122609428D02*
X100674714Y-123117428D01*
X101436714Y-122790857D01*
X98806000Y-119670285D02*
X98769714Y-119597714D01*
X98769714Y-119488857D01*
X98806000Y-119380000D01*
X98878571Y-119307428D01*
X98951142Y-119271142D01*
X99096285Y-119234857D01*
X99205142Y-119234857D01*
X99350285Y-119271142D01*
X99422857Y-119307428D01*
X99495428Y-119380000D01*
X99531714Y-119488857D01*
X99531714Y-119561428D01*
X99495428Y-119670285D01*
X99459142Y-119706571D01*
X99205142Y-119706571D01*
X99205142Y-119561428D01*
X99531714Y-120033142D02*
X98769714Y-120033142D01*
X98769714Y-120323428D01*
X98806000Y-120396000D01*
X98842285Y-120432285D01*
X98914857Y-120468571D01*
X99023714Y-120468571D01*
X99096285Y-120432285D01*
X99132571Y-120396000D01*
X99168857Y-120323428D01*
X99168857Y-120033142D01*
X99531714Y-120795142D02*
X98769714Y-120795142D01*
X98769714Y-121303142D02*
X98769714Y-121448285D01*
X98806000Y-121520857D01*
X98878571Y-121593428D01*
X99023714Y-121629714D01*
X99277714Y-121629714D01*
X99422857Y-121593428D01*
X99495428Y-121520857D01*
X99531714Y-121448285D01*
X99531714Y-121303142D01*
X99495428Y-121230571D01*
X99422857Y-121158000D01*
X99277714Y-121121714D01*
X99023714Y-121121714D01*
X98878571Y-121158000D01*
X98806000Y-121230571D01*
X98769714Y-121303142D01*
X99531714Y-122355428D02*
X99531714Y-121920000D01*
X99531714Y-122137714D02*
X98769714Y-122137714D01*
X98878571Y-122065142D01*
X98951142Y-121992571D01*
X98987428Y-121920000D01*
X98769714Y-123008571D02*
X98769714Y-122863428D01*
X98806000Y-122790857D01*
X98842285Y-122754571D01*
X98951142Y-122682000D01*
X99096285Y-122645714D01*
X99386571Y-122645714D01*
X99459142Y-122682000D01*
X99495428Y-122718285D01*
X99531714Y-122790857D01*
X99531714Y-122936000D01*
X99495428Y-123008571D01*
X99459142Y-123044857D01*
X99386571Y-123081142D01*
X99205142Y-123081142D01*
X99132571Y-123044857D01*
X99096285Y-123008571D01*
X99060000Y-122936000D01*
X99060000Y-122790857D01*
X99096285Y-122718285D01*
X99132571Y-122682000D01*
X99205142Y-122645714D01*
X96901000Y-119670285D02*
X96864714Y-119597714D01*
X96864714Y-119488857D01*
X96901000Y-119380000D01*
X96973571Y-119307428D01*
X97046142Y-119271142D01*
X97191285Y-119234857D01*
X97300142Y-119234857D01*
X97445285Y-119271142D01*
X97517857Y-119307428D01*
X97590428Y-119380000D01*
X97626714Y-119488857D01*
X97626714Y-119561428D01*
X97590428Y-119670285D01*
X97554142Y-119706571D01*
X97300142Y-119706571D01*
X97300142Y-119561428D01*
X97626714Y-120033142D02*
X96864714Y-120033142D01*
X96864714Y-120323428D01*
X96901000Y-120396000D01*
X96937285Y-120432285D01*
X97009857Y-120468571D01*
X97118714Y-120468571D01*
X97191285Y-120432285D01*
X97227571Y-120396000D01*
X97263857Y-120323428D01*
X97263857Y-120033142D01*
X97626714Y-120795142D02*
X96864714Y-120795142D01*
X96864714Y-121303142D02*
X96864714Y-121448285D01*
X96901000Y-121520857D01*
X96973571Y-121593428D01*
X97118714Y-121629714D01*
X97372714Y-121629714D01*
X97517857Y-121593428D01*
X97590428Y-121520857D01*
X97626714Y-121448285D01*
X97626714Y-121303142D01*
X97590428Y-121230571D01*
X97517857Y-121158000D01*
X97372714Y-121121714D01*
X97118714Y-121121714D01*
X96973571Y-121158000D01*
X96901000Y-121230571D01*
X96864714Y-121303142D01*
X97626714Y-122355428D02*
X97626714Y-121920000D01*
X97626714Y-122137714D02*
X96864714Y-122137714D01*
X96973571Y-122065142D01*
X97046142Y-121992571D01*
X97082428Y-121920000D01*
X96864714Y-123044857D02*
X96864714Y-122682000D01*
X97227571Y-122645714D01*
X97191285Y-122682000D01*
X97155000Y-122754571D01*
X97155000Y-122936000D01*
X97191285Y-123008571D01*
X97227571Y-123044857D01*
X97300142Y-123081142D01*
X97481571Y-123081142D01*
X97554142Y-123044857D01*
X97590428Y-123008571D01*
X97626714Y-122936000D01*
X97626714Y-122754571D01*
X97590428Y-122682000D01*
X97554142Y-122645714D01*
X94996000Y-119670285D02*
X94959714Y-119597714D01*
X94959714Y-119488857D01*
X94996000Y-119380000D01*
X95068571Y-119307428D01*
X95141142Y-119271142D01*
X95286285Y-119234857D01*
X95395142Y-119234857D01*
X95540285Y-119271142D01*
X95612857Y-119307428D01*
X95685428Y-119380000D01*
X95721714Y-119488857D01*
X95721714Y-119561428D01*
X95685428Y-119670285D01*
X95649142Y-119706571D01*
X95395142Y-119706571D01*
X95395142Y-119561428D01*
X95721714Y-120033142D02*
X94959714Y-120033142D01*
X94959714Y-120323428D01*
X94996000Y-120396000D01*
X95032285Y-120432285D01*
X95104857Y-120468571D01*
X95213714Y-120468571D01*
X95286285Y-120432285D01*
X95322571Y-120396000D01*
X95358857Y-120323428D01*
X95358857Y-120033142D01*
X95721714Y-120795142D02*
X94959714Y-120795142D01*
X94959714Y-121303142D02*
X94959714Y-121448285D01*
X94996000Y-121520857D01*
X95068571Y-121593428D01*
X95213714Y-121629714D01*
X95467714Y-121629714D01*
X95612857Y-121593428D01*
X95685428Y-121520857D01*
X95721714Y-121448285D01*
X95721714Y-121303142D01*
X95685428Y-121230571D01*
X95612857Y-121158000D01*
X95467714Y-121121714D01*
X95213714Y-121121714D01*
X95068571Y-121158000D01*
X94996000Y-121230571D01*
X94959714Y-121303142D01*
X95721714Y-122355428D02*
X95721714Y-121920000D01*
X95721714Y-122137714D02*
X94959714Y-122137714D01*
X95068571Y-122065142D01*
X95141142Y-121992571D01*
X95177428Y-121920000D01*
X95213714Y-123008571D02*
X95721714Y-123008571D01*
X94923428Y-122827142D02*
X95467714Y-122645714D01*
X95467714Y-123117428D01*
X93091000Y-119670285D02*
X93054714Y-119597714D01*
X93054714Y-119488857D01*
X93091000Y-119380000D01*
X93163571Y-119307428D01*
X93236142Y-119271142D01*
X93381285Y-119234857D01*
X93490142Y-119234857D01*
X93635285Y-119271142D01*
X93707857Y-119307428D01*
X93780428Y-119380000D01*
X93816714Y-119488857D01*
X93816714Y-119561428D01*
X93780428Y-119670285D01*
X93744142Y-119706571D01*
X93490142Y-119706571D01*
X93490142Y-119561428D01*
X93816714Y-120033142D02*
X93054714Y-120033142D01*
X93054714Y-120323428D01*
X93091000Y-120396000D01*
X93127285Y-120432285D01*
X93199857Y-120468571D01*
X93308714Y-120468571D01*
X93381285Y-120432285D01*
X93417571Y-120396000D01*
X93453857Y-120323428D01*
X93453857Y-120033142D01*
X93816714Y-120795142D02*
X93054714Y-120795142D01*
X93054714Y-121303142D02*
X93054714Y-121448285D01*
X93091000Y-121520857D01*
X93163571Y-121593428D01*
X93308714Y-121629714D01*
X93562714Y-121629714D01*
X93707857Y-121593428D01*
X93780428Y-121520857D01*
X93816714Y-121448285D01*
X93816714Y-121303142D01*
X93780428Y-121230571D01*
X93707857Y-121158000D01*
X93562714Y-121121714D01*
X93308714Y-121121714D01*
X93163571Y-121158000D01*
X93091000Y-121230571D01*
X93054714Y-121303142D01*
X93816714Y-122355428D02*
X93816714Y-121920000D01*
X93816714Y-122137714D02*
X93054714Y-122137714D01*
X93163571Y-122065142D01*
X93236142Y-121992571D01*
X93272428Y-121920000D01*
X93054714Y-122609428D02*
X93054714Y-123081142D01*
X93345000Y-122827142D01*
X93345000Y-122936000D01*
X93381285Y-123008571D01*
X93417571Y-123044857D01*
X93490142Y-123081142D01*
X93671571Y-123081142D01*
X93744142Y-123044857D01*
X93780428Y-123008571D01*
X93816714Y-122936000D01*
X93816714Y-122718285D01*
X93780428Y-122645714D01*
X93744142Y-122609428D01*
X91186000Y-119670285D02*
X91149714Y-119597714D01*
X91149714Y-119488857D01*
X91186000Y-119380000D01*
X91258571Y-119307428D01*
X91331142Y-119271142D01*
X91476285Y-119234857D01*
X91585142Y-119234857D01*
X91730285Y-119271142D01*
X91802857Y-119307428D01*
X91875428Y-119380000D01*
X91911714Y-119488857D01*
X91911714Y-119561428D01*
X91875428Y-119670285D01*
X91839142Y-119706571D01*
X91585142Y-119706571D01*
X91585142Y-119561428D01*
X91911714Y-120033142D02*
X91149714Y-120033142D01*
X91149714Y-120323428D01*
X91186000Y-120396000D01*
X91222285Y-120432285D01*
X91294857Y-120468571D01*
X91403714Y-120468571D01*
X91476285Y-120432285D01*
X91512571Y-120396000D01*
X91548857Y-120323428D01*
X91548857Y-120033142D01*
X91911714Y-120795142D02*
X91149714Y-120795142D01*
X91149714Y-121303142D02*
X91149714Y-121448285D01*
X91186000Y-121520857D01*
X91258571Y-121593428D01*
X91403714Y-121629714D01*
X91657714Y-121629714D01*
X91802857Y-121593428D01*
X91875428Y-121520857D01*
X91911714Y-121448285D01*
X91911714Y-121303142D01*
X91875428Y-121230571D01*
X91802857Y-121158000D01*
X91657714Y-121121714D01*
X91403714Y-121121714D01*
X91258571Y-121158000D01*
X91186000Y-121230571D01*
X91149714Y-121303142D01*
X91911714Y-122355428D02*
X91911714Y-121920000D01*
X91911714Y-122137714D02*
X91149714Y-122137714D01*
X91258571Y-122065142D01*
X91331142Y-121992571D01*
X91367428Y-121920000D01*
X91222285Y-122645714D02*
X91186000Y-122682000D01*
X91149714Y-122754571D01*
X91149714Y-122936000D01*
X91186000Y-123008571D01*
X91222285Y-123044857D01*
X91294857Y-123081142D01*
X91367428Y-123081142D01*
X91476285Y-123044857D01*
X91911714Y-122609428D01*
X91911714Y-123081142D01*
X89281000Y-120033142D02*
X89244714Y-119960571D01*
X89244714Y-119851714D01*
X89281000Y-119742857D01*
X89353571Y-119670285D01*
X89426142Y-119634000D01*
X89571285Y-119597714D01*
X89680142Y-119597714D01*
X89825285Y-119634000D01*
X89897857Y-119670285D01*
X89970428Y-119742857D01*
X90006714Y-119851714D01*
X90006714Y-119924285D01*
X89970428Y-120033142D01*
X89934142Y-120069428D01*
X89680142Y-120069428D01*
X89680142Y-119924285D01*
X90006714Y-120396000D02*
X89244714Y-120396000D01*
X89244714Y-120686285D01*
X89281000Y-120758857D01*
X89317285Y-120795142D01*
X89389857Y-120831428D01*
X89498714Y-120831428D01*
X89571285Y-120795142D01*
X89607571Y-120758857D01*
X89643857Y-120686285D01*
X89643857Y-120396000D01*
X90006714Y-121158000D02*
X89244714Y-121158000D01*
X89244714Y-121666000D02*
X89244714Y-121811142D01*
X89281000Y-121883714D01*
X89353571Y-121956285D01*
X89498714Y-121992571D01*
X89752714Y-121992571D01*
X89897857Y-121956285D01*
X89970428Y-121883714D01*
X90006714Y-121811142D01*
X90006714Y-121666000D01*
X89970428Y-121593428D01*
X89897857Y-121520857D01*
X89752714Y-121484571D01*
X89498714Y-121484571D01*
X89353571Y-121520857D01*
X89281000Y-121593428D01*
X89244714Y-121666000D01*
X89498714Y-122645714D02*
X90006714Y-122645714D01*
X89208428Y-122464285D02*
X89752714Y-122282857D01*
X89752714Y-122754571D01*
X87376000Y-120033142D02*
X87339714Y-119960571D01*
X87339714Y-119851714D01*
X87376000Y-119742857D01*
X87448571Y-119670285D01*
X87521142Y-119634000D01*
X87666285Y-119597714D01*
X87775142Y-119597714D01*
X87920285Y-119634000D01*
X87992857Y-119670285D01*
X88065428Y-119742857D01*
X88101714Y-119851714D01*
X88101714Y-119924285D01*
X88065428Y-120033142D01*
X88029142Y-120069428D01*
X87775142Y-120069428D01*
X87775142Y-119924285D01*
X88101714Y-120396000D02*
X87339714Y-120396000D01*
X87339714Y-120686285D01*
X87376000Y-120758857D01*
X87412285Y-120795142D01*
X87484857Y-120831428D01*
X87593714Y-120831428D01*
X87666285Y-120795142D01*
X87702571Y-120758857D01*
X87738857Y-120686285D01*
X87738857Y-120396000D01*
X88101714Y-121158000D02*
X87339714Y-121158000D01*
X87339714Y-121666000D02*
X87339714Y-121811142D01*
X87376000Y-121883714D01*
X87448571Y-121956285D01*
X87593714Y-121992571D01*
X87847714Y-121992571D01*
X87992857Y-121956285D01*
X88065428Y-121883714D01*
X88101714Y-121811142D01*
X88101714Y-121666000D01*
X88065428Y-121593428D01*
X87992857Y-121520857D01*
X87847714Y-121484571D01*
X87593714Y-121484571D01*
X87448571Y-121520857D01*
X87376000Y-121593428D01*
X87339714Y-121666000D01*
X87412285Y-122282857D02*
X87376000Y-122319142D01*
X87339714Y-122391714D01*
X87339714Y-122573142D01*
X87376000Y-122645714D01*
X87412285Y-122682000D01*
X87484857Y-122718285D01*
X87557428Y-122718285D01*
X87666285Y-122682000D01*
X88101714Y-122246571D01*
X88101714Y-122718285D01*
X85471000Y-120033142D02*
X85434714Y-119960571D01*
X85434714Y-119851714D01*
X85471000Y-119742857D01*
X85543571Y-119670285D01*
X85616142Y-119634000D01*
X85761285Y-119597714D01*
X85870142Y-119597714D01*
X86015285Y-119634000D01*
X86087857Y-119670285D01*
X86160428Y-119742857D01*
X86196714Y-119851714D01*
X86196714Y-119924285D01*
X86160428Y-120033142D01*
X86124142Y-120069428D01*
X85870142Y-120069428D01*
X85870142Y-119924285D01*
X86196714Y-120396000D02*
X85434714Y-120396000D01*
X85434714Y-120686285D01*
X85471000Y-120758857D01*
X85507285Y-120795142D01*
X85579857Y-120831428D01*
X85688714Y-120831428D01*
X85761285Y-120795142D01*
X85797571Y-120758857D01*
X85833857Y-120686285D01*
X85833857Y-120396000D01*
X86196714Y-121158000D02*
X85434714Y-121158000D01*
X85434714Y-121666000D02*
X85434714Y-121811142D01*
X85471000Y-121883714D01*
X85543571Y-121956285D01*
X85688714Y-121992571D01*
X85942714Y-121992571D01*
X86087857Y-121956285D01*
X86160428Y-121883714D01*
X86196714Y-121811142D01*
X86196714Y-121666000D01*
X86160428Y-121593428D01*
X86087857Y-121520857D01*
X85942714Y-121484571D01*
X85688714Y-121484571D01*
X85543571Y-121520857D01*
X85471000Y-121593428D01*
X85434714Y-121666000D01*
X85434714Y-122682000D02*
X85434714Y-122319142D01*
X85797571Y-122282857D01*
X85761285Y-122319142D01*
X85725000Y-122391714D01*
X85725000Y-122573142D01*
X85761285Y-122645714D01*
X85797571Y-122682000D01*
X85870142Y-122718285D01*
X86051571Y-122718285D01*
X86124142Y-122682000D01*
X86160428Y-122645714D01*
X86196714Y-122573142D01*
X86196714Y-122391714D01*
X86160428Y-122319142D01*
X86124142Y-122282857D01*
X83892571Y-119216714D02*
X83892571Y-119470714D01*
X84291714Y-119579571D02*
X84291714Y-119216714D01*
X83529714Y-119216714D01*
X83529714Y-119579571D01*
X84255428Y-119869857D02*
X84291714Y-119978714D01*
X84291714Y-120160142D01*
X84255428Y-120232714D01*
X84219142Y-120269000D01*
X84146571Y-120305285D01*
X84074000Y-120305285D01*
X84001428Y-120269000D01*
X83965142Y-120232714D01*
X83928857Y-120160142D01*
X83892571Y-120015000D01*
X83856285Y-119942428D01*
X83820000Y-119906142D01*
X83747428Y-119869857D01*
X83674857Y-119869857D01*
X83602285Y-119906142D01*
X83566000Y-119942428D01*
X83529714Y-120015000D01*
X83529714Y-120196428D01*
X83566000Y-120305285D01*
X84291714Y-120631857D02*
X83529714Y-120631857D01*
X83529714Y-120922142D01*
X83566000Y-120994714D01*
X83602285Y-121031000D01*
X83674857Y-121067285D01*
X83783714Y-121067285D01*
X83856285Y-121031000D01*
X83892571Y-120994714D01*
X83928857Y-120922142D01*
X83928857Y-120631857D01*
X84364285Y-121212428D02*
X84364285Y-121793000D01*
X83892571Y-121974428D02*
X83892571Y-122228428D01*
X84291714Y-122337285D02*
X84291714Y-121974428D01*
X83529714Y-121974428D01*
X83529714Y-122337285D01*
X84291714Y-122663857D02*
X83529714Y-122663857D01*
X84291714Y-123099285D01*
X83529714Y-123099285D01*
X80481714Y-124804714D02*
X80481714Y-124369285D01*
X80481714Y-124587000D02*
X79719714Y-124587000D01*
X79828571Y-124514428D01*
X79901142Y-124441857D01*
X79937428Y-124369285D01*
X81661000Y-120831428D02*
X81624714Y-120758857D01*
X81624714Y-120650000D01*
X81661000Y-120541142D01*
X81733571Y-120468571D01*
X81806142Y-120432285D01*
X81951285Y-120396000D01*
X82060142Y-120396000D01*
X82205285Y-120432285D01*
X82277857Y-120468571D01*
X82350428Y-120541142D01*
X82386714Y-120650000D01*
X82386714Y-120722571D01*
X82350428Y-120831428D01*
X82314142Y-120867714D01*
X82060142Y-120867714D01*
X82060142Y-120722571D01*
X82386714Y-121194285D02*
X81624714Y-121194285D01*
X82386714Y-121629714D01*
X81624714Y-121629714D01*
X82386714Y-121992571D02*
X81624714Y-121992571D01*
X81624714Y-122174000D01*
X81661000Y-122282857D01*
X81733571Y-122355428D01*
X81806142Y-122391714D01*
X81951285Y-122428000D01*
X82060142Y-122428000D01*
X82205285Y-122391714D01*
X82277857Y-122355428D01*
X82350428Y-122282857D01*
X82386714Y-122174000D01*
X82386714Y-121992571D01*
X80191428Y-119507000D02*
X80191428Y-120087571D01*
X80481714Y-119797285D02*
X79901142Y-119797285D01*
X79719714Y-120377857D02*
X79719714Y-120849571D01*
X80010000Y-120595571D01*
X80010000Y-120704428D01*
X80046285Y-120777000D01*
X80082571Y-120813285D01*
X80155142Y-120849571D01*
X80336571Y-120849571D01*
X80409142Y-120813285D01*
X80445428Y-120777000D01*
X80481714Y-120704428D01*
X80481714Y-120486714D01*
X80445428Y-120414142D01*
X80409142Y-120377857D01*
X80409142Y-121176142D02*
X80445428Y-121212428D01*
X80481714Y-121176142D01*
X80445428Y-121139857D01*
X80409142Y-121176142D01*
X80481714Y-121176142D01*
X79719714Y-121466428D02*
X79719714Y-121938142D01*
X80010000Y-121684142D01*
X80010000Y-121793000D01*
X80046285Y-121865571D01*
X80082571Y-121901857D01*
X80155142Y-121938142D01*
X80336571Y-121938142D01*
X80409142Y-121901857D01*
X80445428Y-121865571D01*
X80481714Y-121793000D01*
X80481714Y-121575285D01*
X80445428Y-121502714D01*
X80409142Y-121466428D01*
X79719714Y-122155857D02*
X80481714Y-122409857D01*
X79719714Y-122663857D01*
D10*
X117348000Y-84709000D02*
G75*
G02X117602000Y-84455000I254000J0D01*
G01*
X117602000Y-87757000D02*
G75*
G02X117348000Y-87503000I0J254000D01*
G01*
X119380000Y-87503000D02*
G75*
G02X119126000Y-87757000I-254000J0D01*
G01*
X119126000Y-84455000D02*
G75*
G02X119380000Y-84709000I0J-254000D01*
G01*
X119380000Y-87503000D02*
X119380000Y-84709000D01*
X117602000Y-87757000D02*
X119126000Y-87757000D01*
X117602000Y-84455000D02*
X119126000Y-84455000D01*
X117348000Y-84709000D02*
X117348000Y-87503000D01*
D13*
X87446747Y-114300000D02*
G75*
G03X87446747Y-114300000I-337447J0D01*
G01*
D14*
X87122000Y-113525300D02*
X86614000Y-113017300D01*
X85521800Y-112941100D02*
X84886800Y-113550700D01*
X84912200Y-115506500D02*
X85471000Y-116090700D01*
X83286600Y-116103400D02*
X83743800Y-115646200D01*
X82300800Y-116103400D02*
X83286600Y-116103400D01*
D13*
X82154324Y-116078000D02*
G75*
G03X82154324Y-116078000I-366324J0D01*
G01*
D14*
X81788000Y-113385600D02*
X81788000Y-114985800D01*
D13*
X82148818Y-112852200D02*
G75*
G03X82148818Y-112852200I-373518J0D01*
G01*
X80915759Y-116052600D02*
G75*
G03X80915759Y-116052600I-359659J0D01*
G01*
D14*
X80568800Y-115544600D02*
X80568800Y-112953800D01*
X80568800Y-112953800D02*
X79730600Y-112953800D01*
X79730600Y-112953800D02*
X79121000Y-113461800D01*
X79019400Y-114249200D02*
X79019400Y-113538000D01*
X78943200Y-113461800D02*
X78308200Y-112953800D01*
D13*
X79390318Y-114782600D02*
G75*
G03X79390318Y-114782600I-370918J0D01*
G01*
D14*
X78308200Y-112953800D02*
X77419200Y-112953800D01*
D13*
X77769729Y-116065300D02*
G75*
G03X77769729Y-116065300I-363229J0D01*
G01*
X71906666Y-116154200D02*
G75*
G03X71906666Y-116154200I-329466J0D01*
G01*
D14*
X71907400Y-115798600D02*
X72745600Y-114985800D01*
D15*
X73253600Y-114884200D02*
X72720200Y-114884200D01*
D14*
X74396600Y-116103400D02*
X73253600Y-114985800D01*
X75717400Y-116103400D02*
X74396600Y-116103400D01*
X76149200Y-115671600D02*
X75717400Y-116103400D01*
X76149200Y-113436400D02*
X76149200Y-115671600D01*
X76149200Y-113411000D02*
X75666600Y-112903000D01*
X75618500Y-112928400D02*
X74396600Y-112928400D01*
X74396600Y-112928400D02*
X73304400Y-113995200D01*
D15*
X73279000Y-114109500D02*
X72720200Y-114109500D01*
D14*
X71856600Y-113118900D02*
X72720200Y-114012600D01*
D13*
X71847735Y-112763300D02*
G75*
G03X71847735Y-112763300I-359435J0D01*
G01*
D14*
X74930000Y-114503200D02*
X76149200Y-114503200D01*
D13*
X74781659Y-114503200D02*
G75*
G03X74781659Y-114503200I-359659J0D01*
G01*
D14*
X86550500Y-116116100D02*
X85509100Y-116116100D01*
X87109300Y-115557300D02*
X87109300Y-114795300D01*
X87122000Y-115544600D02*
X86537800Y-116116100D01*
X87122000Y-113576100D02*
X87122000Y-113817400D01*
X84899500Y-113538000D02*
X84899500Y-115468400D01*
X85521800Y-112928400D02*
X86525100Y-112928400D01*
X77406500Y-112941100D02*
X77406500Y-115544600D01*
X83743800Y-115658900D02*
X83743800Y-112928400D01*
D16*
X83743800Y-112585500D02*
X84023200Y-112585500D01*
X84048600Y-112585500D02*
X84048600Y-115735100D01*
X84035900Y-112585500D02*
X84048600Y-112585500D01*
X84023200Y-112585500D02*
X84035900Y-112585500D01*
X83908900Y-112674400D02*
X83972400Y-112661700D01*
X83426300Y-112585500D02*
X83426300Y-115620800D01*
X83731100Y-112585500D02*
X83426300Y-112585500D01*
X83604100Y-112661700D02*
X83489800Y-112661700D01*
X82105500Y-113271300D02*
X82105500Y-115290600D01*
X81470500Y-115290600D02*
X81470500Y-113271300D01*
X81495900Y-115290600D02*
X81470500Y-115290600D01*
X82105500Y-115290600D02*
X81495900Y-115290600D01*
X81965800Y-115227100D02*
X82029300Y-115227100D01*
X81622900Y-115227100D02*
X81534000Y-115227100D01*
X80886300Y-115633500D02*
X80886300Y-112649000D01*
X79641700Y-112636300D02*
X79057500Y-113118900D01*
X80886300Y-112636300D02*
X79641700Y-112636300D01*
X80733900Y-112699800D02*
X80810100Y-112699800D01*
X77076300Y-115658900D02*
X77076300Y-112649000D01*
X78397100Y-112636300D02*
X79019400Y-113131600D01*
X78371700Y-112636300D02*
X78397100Y-112636300D01*
X77076300Y-112636300D02*
X78371700Y-112636300D01*
X77076300Y-112649000D02*
X77076300Y-112636300D01*
X77228700Y-112712500D02*
X77127100Y-112712500D01*
X74282300Y-112598200D02*
X73025000Y-113842800D01*
X74333100Y-112598200D02*
X74282300Y-112598200D01*
X75704700Y-112598200D02*
X74333100Y-112598200D01*
D10*
X92074556Y-106196371D02*
G75*
G02X91821000Y-106807000I-865696J1511D01*
G01*
X90628020Y-104701180D02*
G75*
G02X91135200Y-105732580I-991420J-1127920D01*
G01*
X91545340Y-106837046D02*
G75*
G02X91135200Y-105740200I1118940J1043506D01*
G01*
X91822788Y-106935791D02*
G75*
G02X91518740Y-106809540I752J431051D01*
G01*
X91256340Y-106929613D02*
G75*
G02X90754200Y-106133900I709440J1003993D01*
G01*
X90374795Y-104795066D02*
G75*
G02X90728800Y-105785920I-1408755J-1061974D01*
G01*
X90907927Y-106935303D02*
G75*
G02X90708480Y-106911140I-1327J824263D01*
G01*
X90706497Y-106910453D02*
G75*
G02X90126820Y-106636820I205183J1185493D01*
G01*
X90102946Y-106614974D02*
G75*
G02X89789000Y-105857040I757934J757934D01*
G01*
X89789283Y-105857487D02*
G75*
G02X89860120Y-105488740I992857J447D01*
G01*
X89924148Y-104554136D02*
G75*
G02X89860120Y-105488740I-1478808J-368184D01*
G01*
X91226000Y-104575511D02*
G75*
G02X91948000Y-105219500I-601340J-1400909D01*
G01*
X92001794Y-105315321D02*
G75*
G02X92202000Y-106070400I-1323794J-755079D01*
G01*
X92203874Y-106070901D02*
G75*
G02X92118180Y-106514900I-1195674J501D01*
G01*
X92247720Y-107189612D02*
G75*
G02X91955620Y-107068620I0J413092D01*
G01*
X92605134Y-107039954D02*
G75*
G02X92247720Y-107188000I-357414J357414D01*
G01*
X92978258Y-107205710D02*
G75*
G02X92710000Y-106553000I653762J650170D01*
G01*
X93215978Y-107823280D02*
G75*
G02X92710000Y-106598720I1228842J1224560D01*
G01*
X96780379Y-103284186D02*
G75*
G02X95437960Y-103499920I-1812319J6992786D01*
G01*
X93656130Y-104073934D02*
G75*
G02X94919800Y-103573580I2134890J-3545866D01*
G01*
X92589641Y-105151765D02*
G75*
G02X93644720Y-104081580I3831299J-2722035D01*
G01*
X92709155Y-106426069D02*
G75*
G02X92829380Y-105488740I762845J378529D01*
G01*
X93000473Y-105300156D02*
G75*
G02X95554800Y-104030780I3654147J-4148444D01*
G01*
X97891541Y-103219778D02*
G75*
G02X95864680Y-103969820I-2631381J3997218D01*
G01*
X93157549Y-107511559D02*
G75*
G02X92710000Y-106426000I1086611J1083019D01*
G01*
X92583760Y-104774243D02*
G75*
G02X92643960Y-104096820I3049780J70363D01*
G01*
X92790736Y-103493585D02*
G75*
G02X94841060Y-101981000I2144304J-760715D01*
G01*
X98704952Y-101836522D02*
G75*
G02X96989900Y-102176580I-1268012J1900222D01*
G01*
X96678933Y-105760013D02*
G75*
G02X94813120Y-106426000I-1738813J1924813D01*
G01*
X98699464Y-103340447D02*
G75*
G02X96718120Y-105722420I-8344044J4925607D01*
G01*
X92986860Y-106149140D02*
G75*
G02X93705680Y-106151680I358140J-360680D01*
G01*
X94297500Y-106428066D02*
G75*
G02X93759020Y-106205020I0J761526D01*
G01*
X94615000Y-110236000D02*
G75*
G02X93091000Y-108712000I0J1524000D01*
G01*
X107950000Y-108712000D02*
G75*
G02X106426000Y-110236000I-1524000J0D01*
G01*
X106426000Y-107188000D02*
G75*
G02X107950000Y-108712000I0J-1524000D01*
G01*
X93091000Y-108712000D02*
G75*
G02X94615000Y-107188000I1524000J0D01*
G01*
X91059000Y-106807000D02*
X90551000Y-106807000D01*
X90932000Y-106680000D02*
X90297000Y-106680000D01*
X90805000Y-106553000D02*
X90170000Y-106553000D01*
X90805000Y-106426000D02*
X90043000Y-106426000D01*
X90754200Y-106299000D02*
X89916000Y-106299000D01*
X90678000Y-106172000D02*
X89916000Y-106172000D01*
X90678000Y-106045000D02*
X89916000Y-106045000D01*
X90678000Y-105918000D02*
X89916000Y-105918000D01*
X90678000Y-105791000D02*
X89916000Y-105791000D01*
X90678000Y-105664000D02*
X89916000Y-105664000D01*
X90678000Y-105537000D02*
X89916000Y-105537000D01*
X90678000Y-105410000D02*
X90043000Y-105410000D01*
X90551000Y-105283000D02*
X90043000Y-105283000D01*
X90551000Y-105156000D02*
X90043000Y-105156000D01*
X90170000Y-104648000D02*
X90170000Y-105156000D01*
X90297000Y-104648000D02*
X90297000Y-105156000D01*
X90424000Y-104267000D02*
X89916000Y-104267000D01*
X90551000Y-104394000D02*
X89916000Y-104394000D01*
X90805000Y-104521000D02*
X90043000Y-104521000D01*
X90297000Y-104648000D02*
X91186000Y-104648000D01*
X90170000Y-104648000D02*
X90297000Y-104648000D01*
X90043000Y-104648000D02*
X90170000Y-104648000D01*
X90805000Y-104775000D02*
X91313000Y-104775000D01*
X90932000Y-104902000D02*
X91567000Y-104902000D01*
X90932000Y-105029000D02*
X91694000Y-105029000D01*
X91059000Y-105156000D02*
X91821000Y-105156000D01*
X91059000Y-105283000D02*
X91948000Y-105283000D01*
X91186000Y-105410000D02*
X91948000Y-105410000D01*
X91186000Y-105537000D02*
X91948000Y-105537000D01*
X91186000Y-105664000D02*
X92075000Y-105664000D01*
X91186000Y-105791000D02*
X92075000Y-105791000D01*
X91948000Y-106553000D02*
X91440000Y-106553000D01*
X91948000Y-106426000D02*
X91313000Y-106426000D01*
X92075000Y-106299000D02*
X91313000Y-106299000D01*
X92075000Y-106172000D02*
X91313000Y-106172000D01*
X91948000Y-106045000D02*
X91313000Y-106045000D01*
X91440000Y-105918000D02*
X91440000Y-106426000D01*
X91186000Y-105918000D02*
X91694000Y-106807000D01*
X91440000Y-105918000D02*
X91186000Y-105918000D01*
X91821000Y-105918000D02*
X91440000Y-105918000D01*
X91948000Y-106553000D02*
X91948000Y-106680000D01*
X91948000Y-106426000D02*
X91948000Y-106553000D01*
X91948000Y-106045000D02*
X91948000Y-106426000D01*
X91948000Y-105918000D02*
X91948000Y-106045000D01*
X91821000Y-105918000D02*
X91821000Y-106553000D01*
X91948000Y-105918000D02*
X91821000Y-105918000D01*
X92075000Y-105918000D02*
X91948000Y-105918000D01*
X92075000Y-106172000D02*
X92075000Y-105918000D01*
X92075000Y-106194860D02*
X92075000Y-106172000D01*
X91135200Y-105740200D02*
X91135200Y-105732580D01*
X91518740Y-106809540D02*
X91546680Y-106837480D01*
D17*
X94869000Y-105410000D02*
X96139000Y-105156000D01*
X94488000Y-105537000D02*
X94869000Y-105410000D01*
X94361000Y-105410000D02*
X94488000Y-105537000D01*
X94361000Y-105283000D02*
X94361000Y-105410000D01*
X94869000Y-105029000D02*
X94361000Y-105283000D01*
X95123000Y-105029000D02*
X94869000Y-105029000D01*
X96139000Y-104775000D02*
X95123000Y-105029000D01*
X96647000Y-104775000D02*
X96139000Y-104775000D01*
X96774000Y-104902000D02*
X96647000Y-104775000D01*
X96647000Y-105029000D02*
X96774000Y-104902000D01*
X96012000Y-105537000D02*
X96647000Y-105029000D01*
X95504000Y-105664000D02*
X96012000Y-105537000D01*
X95123000Y-105791000D02*
X95504000Y-105664000D01*
X94488000Y-105791000D02*
X95123000Y-105791000D01*
X94107000Y-105664000D02*
X94488000Y-105791000D01*
X93853000Y-105664000D02*
X94107000Y-105664000D01*
X93726000Y-105410000D02*
X93853000Y-105664000D01*
X93853000Y-105283000D02*
X93726000Y-105410000D01*
X94488000Y-104775000D02*
X93853000Y-105283000D01*
X95504000Y-104521000D02*
X94488000Y-104775000D01*
X96647000Y-104394000D02*
X95504000Y-104521000D01*
X96774000Y-104394000D02*
X96647000Y-104394000D01*
X96901000Y-104521000D02*
X96774000Y-104394000D01*
X97663000Y-103886000D02*
X96901000Y-104521000D01*
X97028000Y-103886000D02*
X97790000Y-103505000D01*
X96291400Y-104140000D02*
X97028000Y-103886000D01*
X95681800Y-104140000D02*
X96291400Y-104140000D01*
X94284800Y-104622600D02*
X95681800Y-104140000D01*
X93599000Y-105029000D02*
X94284800Y-104622600D01*
X93091000Y-105537000D02*
X93599000Y-105029000D01*
X92837000Y-106045000D02*
X93091000Y-105537000D01*
X93091000Y-105791000D02*
X92837000Y-106045000D01*
X93472000Y-105664000D02*
X93091000Y-105791000D01*
X94234000Y-106172000D02*
X93472000Y-105664000D01*
X95123000Y-106172000D02*
X94234000Y-106172000D01*
X96012000Y-105918000D02*
X95123000Y-106172000D01*
X96520000Y-105537000D02*
X96012000Y-105918000D01*
X97409000Y-104648000D02*
X96520000Y-105537000D01*
X97663000Y-104267000D02*
X97409000Y-104648000D01*
X98044000Y-103759000D02*
X97663000Y-104267000D01*
X98173540Y-103251000D02*
X98552000Y-102364540D01*
X98173540Y-103632000D02*
X98173540Y-103251000D01*
X98552000Y-103124000D02*
X98173540Y-103632000D01*
X98679000Y-102616000D02*
X98552000Y-103124000D01*
X99187000Y-101727000D02*
X98679000Y-102616000D01*
X93599000Y-103251000D02*
X95250000Y-103251000D01*
X93726000Y-102870000D02*
X98679000Y-102793800D01*
X93726000Y-103124000D02*
X93726000Y-102870000D01*
X93726000Y-102616000D02*
X93726000Y-102870000D01*
X98298000Y-102616000D02*
X93726000Y-102616000D01*
X97790000Y-102743000D02*
X98298000Y-102616000D01*
X96520000Y-103124000D02*
X97790000Y-102743000D01*
X95377000Y-103251000D02*
X96520000Y-103124000D01*
X95250000Y-103251000D02*
X95377000Y-103251000D01*
X94742000Y-103251000D02*
X95250000Y-103251000D01*
X94107000Y-103632000D02*
X94742000Y-103251000D01*
X93726000Y-103124000D02*
X93345000Y-103632000D01*
X93980000Y-103632000D02*
X93726000Y-103124000D01*
X93345000Y-104013000D02*
X93980000Y-103632000D01*
X92837000Y-104648000D02*
X93345000Y-104013000D01*
X92964000Y-103632000D02*
X92837000Y-104648000D01*
X93218000Y-103124000D02*
X92964000Y-103632000D01*
X93726000Y-102616000D02*
X93218000Y-103124000D01*
X94361000Y-102235000D02*
X93726000Y-102616000D01*
X96012000Y-102235000D02*
X94361000Y-102235000D01*
X97028000Y-102364540D02*
X96012000Y-102235000D01*
X98173540Y-102364540D02*
X97028000Y-102364540D01*
D10*
X99187000Y-101727000D02*
X98173540Y-102364540D01*
X90728800Y-105742740D02*
X90754200Y-106133900D01*
X91808300Y-106934000D02*
X91821000Y-106934000D01*
X90906600Y-106934000D02*
X91262200Y-106934000D01*
X90103960Y-106613960D02*
X90126820Y-106636820D01*
X89789000Y-104013000D02*
X89923620Y-104551480D01*
X90805000Y-104394000D02*
X89789000Y-104013000D01*
X91226640Y-104574340D02*
X90805000Y-104394000D01*
X92001340Y-105313480D02*
X91948000Y-105219500D01*
X91821000Y-106934000D02*
X92118180Y-106514900D01*
X91955620Y-107068620D02*
X91821000Y-106934000D01*
X92710000Y-106934000D02*
X92605860Y-107040680D01*
X93472000Y-107696000D02*
X92981780Y-107205780D01*
X92710000Y-106598720D02*
X92710000Y-106553000D01*
X93345000Y-107823000D02*
X92837000Y-107061000D01*
X96786700Y-103284020D02*
X98173540Y-102870000D01*
X94919800Y-103573580D02*
X95437960Y-103499920D01*
X93644720Y-104081580D02*
X93652340Y-104076500D01*
X92585540Y-105156000D02*
X92588080Y-105153460D01*
X92999560Y-105300780D02*
X92829380Y-105488740D01*
X95864680Y-103969820D02*
X95554800Y-104030780D01*
X98173540Y-102870000D02*
X97891600Y-103217980D01*
X93345000Y-107696000D02*
X93159580Y-107510580D01*
X92687140Y-106380280D02*
X92710000Y-106426000D01*
X92585540Y-104775000D02*
X92585540Y-105156000D01*
X92791280Y-103497380D02*
X92643960Y-104096820D01*
X96989900Y-102176580D02*
X94841060Y-101981000D01*
X99568000Y-101219000D02*
X98706940Y-101838760D01*
X94813120Y-106426000D02*
X94297500Y-106426000D01*
X96718120Y-105722420D02*
X96682560Y-105757980D01*
X99568000Y-101219000D02*
X98701860Y-103334820D01*
X92986860Y-106151680D02*
X92710000Y-106426000D01*
X93759020Y-106205020D02*
X93705680Y-106151680D01*
X106426000Y-110236000D02*
X94615000Y-110236000D01*
X94615000Y-107188000D02*
X106426000Y-107188000D01*
D18*
X94694000Y-116663000D02*
X94694000Y-117425000D01*
X99266000Y-116663000D02*
X94694000Y-116663000D01*
X99266000Y-117425000D02*
X99266000Y-116663000D01*
X94694000Y-117425000D02*
X99266000Y-117425000D01*
X94744800Y-116713800D02*
X99164400Y-116713800D01*
X99215200Y-116815400D02*
X94744800Y-116815400D01*
X94744800Y-116967800D02*
X99164400Y-116967800D01*
X94744800Y-117120200D02*
X99164400Y-117120200D01*
X99215200Y-116866200D02*
X94795600Y-116866200D01*
X99215200Y-117018600D02*
X94744800Y-117018600D01*
X94795600Y-117221800D02*
X99164400Y-117221800D01*
X99215200Y-117323400D02*
X94795600Y-117323400D01*
D10*
X99060000Y-111887000D02*
X94869000Y-116078000D01*
X98933000Y-115951000D02*
X94869000Y-112014000D01*
X97917000Y-115570000D02*
X96520000Y-115570000D01*
X97917000Y-115570000D02*
X98171000Y-112522000D01*
X98425000Y-112395000D02*
X95504000Y-112395000D01*
X97409000Y-115951000D02*
X97409000Y-115697000D01*
X97917000Y-115951000D02*
X97409000Y-115951000D01*
X97917000Y-115570000D02*
X97917000Y-115951000D01*
X96012000Y-115062000D02*
X95885000Y-113030000D01*
X96413609Y-115570000D02*
G75*
G03X96413609Y-115570000I-401609J0D01*
G01*
X97790000Y-111760000D02*
X97790000Y-112268000D01*
X97917000Y-111760000D02*
X97790000Y-111760000D01*
X97917000Y-112268000D02*
X97917000Y-111760000D01*
X95504000Y-112903000D02*
X95504000Y-112395000D01*
X95885000Y-112903000D02*
X95504000Y-112903000D01*
X95885000Y-112395000D02*
X95885000Y-112903000D01*
X95758000Y-112522000D02*
X95758000Y-112649000D01*
X95758000Y-112395000D02*
X95631000Y-112776000D01*
X95758000Y-112522000D02*
X95758000Y-112649000D01*
X95631000Y-112522000D02*
X95631000Y-112903000D01*
X95758000Y-112522000D02*
X95631000Y-112522000D01*
X95758000Y-112903000D02*
X95758000Y-112522000D01*
X97155000Y-113284000D02*
X97155000Y-112903000D01*
X96266000Y-113284000D02*
X97155000Y-113284000D01*
X96266000Y-112903000D02*
X96266000Y-113284000D01*
X97155000Y-112903000D02*
X96266000Y-112903000D01*
X97028000Y-113030000D02*
X96393000Y-113030000D01*
X96774000Y-111506000D02*
X97155000Y-111506000D01*
X96774000Y-111633000D02*
X96774000Y-111506000D01*
X97155000Y-111633000D02*
X96774000Y-111633000D01*
X97155000Y-111506000D02*
X97155000Y-111633000D01*
X95885000Y-112268000D02*
G75*
G02X98171000Y-112268000I1143000J-1143000D01*
G01*
D19*
X96139000Y-115570000D02*
G75*
G03X96139000Y-115570000I-127000J0D01*
G01*
D10*
X119201037Y-107629960D02*
G75*
G03X119201037Y-107629960I-1802237J0D01*
G01*
D20*
X116238020Y-108793280D02*
X118671340Y-106372660D01*
D21*
X79712820Y-108506260D02*
X79161640Y-107083860D01*
D22*
X80058260Y-108320840D02*
X79740760Y-108526580D01*
D13*
X80848200Y-108869480D02*
X80068420Y-108338620D01*
D23*
X81424780Y-108331000D02*
X80860900Y-108869480D01*
D22*
X81409540Y-108331000D02*
X80876140Y-107497880D01*
X81234280Y-106570780D02*
X80876140Y-107454700D01*
X82212180Y-106329480D02*
X81262220Y-106547920D01*
D23*
X82202020Y-105552240D02*
X82207100Y-106339640D01*
D22*
X82214720Y-105539540D02*
X81196180Y-105359200D01*
X81165700Y-105323640D02*
X80817720Y-104457500D01*
X81394300Y-103555800D02*
X80838040Y-104406700D01*
D23*
X81404460Y-103532940D02*
X80904080Y-102999540D01*
D22*
X80855820Y-102974140D02*
X80027780Y-103626920D01*
X79966820Y-103616760D02*
X79121000Y-103210360D01*
X78861920Y-102176580D02*
X79067660Y-103190040D01*
X78869540Y-102163880D02*
X78084680Y-102163880D01*
X78102460Y-102184200D02*
X77889100Y-103202740D01*
X77889100Y-103202740D02*
X76987400Y-103652320D01*
X76974700Y-103647240D02*
X76070460Y-103012800D01*
X76070460Y-103014780D02*
X75516740Y-103560880D01*
X75516740Y-103563420D02*
X76133960Y-104353360D01*
X76133960Y-104353360D02*
X75793600Y-105290620D01*
X75793600Y-105290620D02*
X74711560Y-105519220D01*
X74711560Y-105519220D02*
X74711560Y-106354880D01*
X74711560Y-106354880D02*
X75725020Y-106525060D01*
X75725020Y-106525060D02*
X76131420Y-107436920D01*
X76080620Y-108884720D02*
X76916280Y-108318300D01*
X76916280Y-108318300D02*
X77254100Y-108503720D01*
X77254100Y-108503720D02*
X77828140Y-107063540D01*
X77817980Y-107061000D02*
G75*
G02X77447140Y-105196640I746760J1117600D01*
G01*
X77436980Y-105211880D02*
G75*
G02X79362300Y-105013760I1061720J-863600D01*
G01*
X79387700Y-105039160D02*
G75*
G02X79311500Y-106893360I-965200J-889000D01*
G01*
X76131420Y-107436920D02*
X75511660Y-108323380D01*
X76065380Y-108877100D02*
X75511660Y-108331000D01*
D18*
X79631540Y-108686600D02*
X78981300Y-107017820D01*
X80015080Y-108483400D02*
X79669640Y-108704380D01*
X80027780Y-108473240D02*
X80853280Y-109037120D01*
X80860900Y-109044740D02*
X81582260Y-108351320D01*
X81589880Y-108348780D02*
X80992980Y-107485180D01*
X82351880Y-106441240D02*
X81280000Y-106636820D01*
X82351880Y-105448100D02*
X82351880Y-106433620D01*
X82354420Y-105445560D02*
X81183480Y-105242360D01*
X81285080Y-105247440D02*
X80949800Y-104414320D01*
X81546700Y-103563420D02*
X80952340Y-104416860D01*
X81567020Y-103527860D02*
X80893920Y-102814120D01*
X80881220Y-102811580D02*
X79910940Y-103527860D01*
X79946500Y-103459280D02*
X79042260Y-103080820D01*
X78958440Y-102064820D02*
X79159100Y-103090980D01*
X78948280Y-102057200D02*
X77983080Y-102057200D01*
X77983080Y-102057200D02*
X77757020Y-103228140D01*
X77767180Y-103146860D02*
X76962000Y-103484680D01*
X77081380Y-103532940D02*
X76070460Y-102859840D01*
X76065380Y-102857300D02*
X75371960Y-103548180D01*
X75366880Y-103555800D02*
X76070460Y-104546400D01*
X75981560Y-104437180D02*
X75615800Y-105305860D01*
X74678540Y-106207560D02*
X75785980Y-106431080D01*
X74594720Y-105465880D02*
X74597260Y-106423460D01*
X75732640Y-106654600D02*
X74609960Y-106443780D01*
X75628500Y-106621580D02*
X76009500Y-107602020D01*
X75661520Y-108257340D02*
X76146660Y-108788200D01*
X76057760Y-109032040D02*
X75374500Y-108341160D01*
X76944220Y-108417360D02*
X76067920Y-109037120D01*
X76080620Y-108722160D02*
X76901040Y-108193840D01*
X76763880Y-108389420D02*
X77292200Y-108717080D01*
X77292200Y-108717080D02*
X77678280Y-107736640D01*
X77683360Y-107038140D02*
X77155040Y-108419900D01*
X82059780Y-105636060D02*
X82059780Y-106286300D01*
X82202020Y-105691940D02*
X81086960Y-105445560D01*
X80672940Y-104424480D02*
X81059020Y-105422700D01*
X80667860Y-104429560D02*
X81269840Y-103520240D01*
X80911700Y-103075740D02*
X80027780Y-103797100D01*
X77640180Y-107096560D02*
X77462380Y-106974640D01*
X77462380Y-106974640D02*
X77086460Y-106263440D01*
X77086460Y-106263440D02*
X77086460Y-105745280D01*
X77081380Y-105757980D02*
X77315060Y-105084880D01*
X77315060Y-105084880D02*
X77825600Y-104655620D01*
X77825600Y-104655620D02*
X78640940Y-104495600D01*
X78640940Y-104487980D02*
X79512160Y-104917240D01*
X79512160Y-104917240D02*
X79931260Y-105648760D01*
X79936340Y-105653840D02*
X79804260Y-106476800D01*
X79799180Y-106507280D02*
X79705200Y-106677460D01*
X79799180Y-106507280D02*
X79705200Y-106677460D01*
X79575660Y-106728260D02*
X79316580Y-107066080D01*
X79207360Y-106842560D02*
X78981300Y-107017820D01*
X77706220Y-106845100D02*
X77960220Y-107010200D01*
X77843380Y-107299760D02*
X77965300Y-107015280D01*
X80022700Y-103794560D02*
X79039720Y-103301800D01*
X79692500Y-106707940D02*
X79385160Y-106974640D01*
D24*
X80708500Y-108137960D02*
X79855060Y-107116880D01*
X81744820Y-105933240D02*
X80327500Y-105872280D01*
X80759300Y-103647240D02*
X79697580Y-104754680D01*
X78498700Y-102671880D02*
X78493620Y-104185720D01*
X76233020Y-103728520D02*
X77345540Y-104795320D01*
X75242420Y-105912920D02*
X76710540Y-105999280D01*
X80032860Y-107965240D02*
X79667100Y-107203240D01*
X80698340Y-107066080D02*
X80134460Y-106586020D01*
X80947260Y-106420920D02*
X80241140Y-106293920D01*
X80622140Y-105176320D02*
X80180180Y-105336340D01*
X80446880Y-104696260D02*
X79989680Y-104985820D01*
X79448660Y-103919020D02*
X79273400Y-104277160D01*
X79014320Y-103659940D02*
X78846680Y-104269540D01*
X77749400Y-103675180D02*
X77970380Y-104360980D01*
X77162660Y-103926640D02*
X77581760Y-104513380D01*
X76293980Y-104795320D02*
X76949300Y-105161080D01*
X76052680Y-105488740D02*
X76774040Y-105636060D01*
X76888340Y-106646980D02*
X76278740Y-106753660D01*
X77208380Y-107066080D02*
X76591160Y-107393740D01*
X77322680Y-107203240D02*
X76141580Y-108216700D01*
X77322680Y-107111800D02*
X76989940Y-107843320D01*
D10*
X113030000Y-116078000D02*
G75*
G02X113157000Y-116205000I0J-127000D01*
G01*
X112903000Y-116141500D02*
G75*
G02X112966500Y-116078000I63500J0D01*
G01*
X112964071Y-116334545D02*
G75*
G02X112903000Y-116268500I2429J63505D01*
G01*
X113347500Y-115951000D02*
G75*
G02X112966500Y-116332000I-381000J0D01*
G01*
X113158048Y-114555575D02*
G75*
G02X113347500Y-114871500I-168688J-315925D01*
G01*
X113155549Y-114554142D02*
G75*
G02X112839500Y-114236500I478971J792622D01*
G01*
X112964935Y-115063845D02*
G75*
G02X112268000Y-114617500I153965J1007685D01*
G01*
X112521068Y-115824674D02*
G75*
G02X112522000Y-116141500I-316568J-159346D01*
G01*
X112521967Y-116141600D02*
G75*
G02X112395000Y-116268500I-190467J63600D01*
G01*
X111193275Y-115380493D02*
G75*
G02X111633000Y-115506500I-825195J-3709947D01*
G01*
X111632915Y-115507965D02*
G75*
G02X112204500Y-116268500I-284395J-808795D01*
G01*
X111570708Y-115063166D02*
G75*
G02X112522000Y-115824000I-285688J-1332334D01*
G01*
X111058461Y-115317576D02*
G75*
G02X110236000Y-114871500I147819J1253796D01*
G01*
X109727301Y-114681474D02*
G75*
G02X110236000Y-114871500I64199J-604046D01*
G01*
X111251915Y-113730114D02*
G75*
G02X111036100Y-113792000I-182795J230214D01*
G01*
X111252721Y-113728678D02*
G75*
G02X112839500Y-114236500I466639J-1274902D01*
G01*
X112966500Y-116078000D02*
X113030000Y-116078000D01*
X112966500Y-116078000D02*
X112966500Y-115062000D01*
X112903000Y-116268500D02*
X112903000Y-116141500D01*
X113347500Y-114871500D02*
X113347500Y-115951000D01*
X112395000Y-116268500D02*
X112242600Y-116268500D01*
X109410500Y-114681000D02*
X109728000Y-114681000D01*
X111036100Y-113792000D02*
X109855000Y-113792000D01*
X113411000Y-113855500D02*
X108077000Y-117348000D01*
X109855000Y-113792000D02*
X111633000Y-110236000D01*
X109410500Y-114681000D02*
X109855000Y-113792000D01*
X108077000Y-117348000D02*
X109410500Y-114681000D01*
X115189000Y-117348000D02*
X108077000Y-117348000D01*
X111633000Y-110236000D02*
X115189000Y-117348000D01*
X104711500Y-99123500D02*
G75*
G02X104965500Y-98869500I254000J0D01*
G01*
X104965500Y-102171500D02*
G75*
G02X104711500Y-101917500I0J254000D01*
G01*
X106743500Y-101917500D02*
G75*
G02X106489500Y-102171500I-254000J0D01*
G01*
X106489500Y-98869500D02*
G75*
G02X106743500Y-99123500I0J-254000D01*
G01*
X106743500Y-101917500D02*
X106743500Y-99123500D01*
X104965500Y-102171500D02*
X106489500Y-102171500D01*
X104965500Y-98869500D02*
X106489500Y-98869500D01*
X104711500Y-99123500D02*
X104711500Y-101917500D01*
D25*
X118938523Y-78419476D02*
X118938523Y-77814714D01*
X117668523Y-77814714D01*
X118273285Y-78842809D02*
X118273285Y-79266142D01*
X118938523Y-79447571D02*
X118938523Y-78842809D01*
X117668523Y-78842809D01*
X117668523Y-79447571D01*
X118938523Y-79991857D02*
X117668523Y-79991857D01*
X117668523Y-80294238D01*
X117729000Y-80475666D01*
X117849952Y-80596619D01*
X117970904Y-80657095D01*
X118212809Y-80717571D01*
X118394238Y-80717571D01*
X118636142Y-80657095D01*
X118757095Y-80596619D01*
X118878047Y-80475666D01*
X118938523Y-80294238D01*
X118938523Y-79991857D01*
X119059476Y-80959476D02*
X119059476Y-81927095D01*
X118273285Y-82229476D02*
X118273285Y-82652809D01*
X118938523Y-82834238D02*
X118938523Y-82229476D01*
X117668523Y-82229476D01*
X117668523Y-82834238D01*
X118938523Y-84043761D02*
X118938523Y-83318047D01*
X118938523Y-83680904D02*
X117668523Y-83680904D01*
X117849952Y-83559952D01*
X117970904Y-83439000D01*
X118031380Y-83318047D01*
D26*
X105233288Y-109002285D02*
X105305860Y-109074857D01*
X105523574Y-109147428D01*
X105668717Y-109147428D01*
X105886431Y-109074857D01*
X106031574Y-108929714D01*
X106104145Y-108784571D01*
X106176717Y-108494285D01*
X106176717Y-108276571D01*
X106104145Y-107986285D01*
X106031574Y-107841142D01*
X105886431Y-107696000D01*
X105668717Y-107623428D01*
X105523574Y-107623428D01*
X105305860Y-107696000D01*
X105233288Y-107768571D01*
X104362431Y-109147428D02*
X104507574Y-109074857D01*
X104580145Y-109002285D01*
X104652717Y-108857142D01*
X104652717Y-108421714D01*
X104580145Y-108276571D01*
X104507574Y-108204000D01*
X104362431Y-108131428D01*
X104144717Y-108131428D01*
X103999574Y-108204000D01*
X103927002Y-108276571D01*
X103854431Y-108421714D01*
X103854431Y-108857142D01*
X103927002Y-109002285D01*
X103999574Y-109074857D01*
X104144717Y-109147428D01*
X104362431Y-109147428D01*
X103201288Y-109147428D02*
X103201288Y-108131428D01*
X103201288Y-108276571D02*
X103128717Y-108204000D01*
X102983574Y-108131428D01*
X102765860Y-108131428D01*
X102620717Y-108204000D01*
X102548145Y-108349142D01*
X102548145Y-109147428D01*
X102548145Y-108349142D02*
X102475574Y-108204000D01*
X102330431Y-108131428D01*
X102112717Y-108131428D01*
X101967574Y-108204000D01*
X101895002Y-108349142D01*
X101895002Y-109147428D01*
X101169288Y-108131428D02*
X101169288Y-109655428D01*
X101169288Y-108204000D02*
X101024145Y-108131428D01*
X100733860Y-108131428D01*
X100588717Y-108204000D01*
X100516145Y-108276571D01*
X100443574Y-108421714D01*
X100443574Y-108857142D01*
X100516145Y-109002285D01*
X100588717Y-109074857D01*
X100733860Y-109147428D01*
X101024145Y-109147428D01*
X101169288Y-109074857D01*
X99572717Y-109147428D02*
X99717860Y-109074857D01*
X99790431Y-108929714D01*
X99790431Y-107623428D01*
X98992145Y-109147428D02*
X98992145Y-108131428D01*
X98992145Y-107623428D02*
X99064717Y-107696000D01*
X98992145Y-107768571D01*
X98919574Y-107696000D01*
X98992145Y-107623428D01*
X98992145Y-107768571D01*
X97613288Y-109147428D02*
X97613288Y-108349142D01*
X97685860Y-108204000D01*
X97831002Y-108131428D01*
X98121288Y-108131428D01*
X98266431Y-108204000D01*
X97613288Y-109074857D02*
X97758431Y-109147428D01*
X98121288Y-109147428D01*
X98266431Y-109074857D01*
X98339002Y-108929714D01*
X98339002Y-108784571D01*
X98266431Y-108639428D01*
X98121288Y-108566857D01*
X97758431Y-108566857D01*
X97613288Y-108494285D01*
X96887574Y-108131428D02*
X96887574Y-109147428D01*
X96887574Y-108276571D02*
X96815002Y-108204000D01*
X96669860Y-108131428D01*
X96452145Y-108131428D01*
X96307002Y-108204000D01*
X96234431Y-108349142D01*
X96234431Y-109147428D01*
X95726431Y-108131428D02*
X95145860Y-108131428D01*
X95508717Y-107623428D02*
X95508717Y-108929714D01*
X95436145Y-109074857D01*
X95291002Y-109147428D01*
X95145860Y-109147428D01*
D27*
X105119714Y-106246748D02*
X105627714Y-105521034D01*
X105990571Y-106246748D02*
X105990571Y-104722748D01*
X105410000Y-104722748D01*
X105264857Y-104795320D01*
X105192285Y-104867891D01*
X105119714Y-105013034D01*
X105119714Y-105230748D01*
X105192285Y-105375891D01*
X105264857Y-105448462D01*
X105410000Y-105521034D01*
X105990571Y-105521034D01*
X104248857Y-106246748D02*
X104394000Y-106174177D01*
X104466571Y-106101605D01*
X104539142Y-105956462D01*
X104539142Y-105521034D01*
X104466571Y-105375891D01*
X104394000Y-105303320D01*
X104248857Y-105230748D01*
X104031142Y-105230748D01*
X103886000Y-105303320D01*
X103813428Y-105375891D01*
X103740857Y-105521034D01*
X103740857Y-105956462D01*
X103813428Y-106101605D01*
X103886000Y-106174177D01*
X104031142Y-106246748D01*
X104248857Y-106246748D01*
X103087714Y-106246748D02*
X103087714Y-104722748D01*
X103087714Y-105448462D02*
X102216857Y-105448462D01*
X102216857Y-106246748D02*
X102216857Y-104722748D01*
X101563714Y-106174177D02*
X101346000Y-106246748D01*
X100983142Y-106246748D01*
X100838000Y-106174177D01*
X100765428Y-106101605D01*
X100692857Y-105956462D01*
X100692857Y-105811320D01*
X100765428Y-105666177D01*
X100838000Y-105593605D01*
X100983142Y-105521034D01*
X101273428Y-105448462D01*
X101418571Y-105375891D01*
X101491142Y-105303320D01*
X101563714Y-105158177D01*
X101563714Y-105013034D01*
X101491142Y-104867891D01*
X101418571Y-104795320D01*
X101273428Y-104722748D01*
X100910571Y-104722748D01*
X100692857Y-104795320D01*
D10*
X118587068Y-108419327D02*
X118587068Y-106719327D01*
X118015640Y-106719327D01*
X117872782Y-106800280D01*
X117801354Y-106881232D01*
X117729925Y-107043137D01*
X117729925Y-107285994D01*
X117801354Y-107447899D01*
X117872782Y-107528851D01*
X118015640Y-107609803D01*
X118587068Y-107609803D01*
X117087068Y-108419327D02*
X117087068Y-106719327D01*
X117087068Y-107366946D02*
X116944211Y-107285994D01*
X116658497Y-107285994D01*
X116515640Y-107366946D01*
X116444211Y-107447899D01*
X116372782Y-107609803D01*
X116372782Y-108095518D01*
X116444211Y-108257422D01*
X116515640Y-108338375D01*
X116658497Y-108419327D01*
X116944211Y-108419327D01*
X117087068Y-108338375D01*
X83432298Y-111099379D02*
X83537060Y-111046998D01*
X83589440Y-110994617D01*
X83641821Y-110889855D01*
X83641821Y-110575569D01*
X83589440Y-110470807D01*
X83537060Y-110418426D01*
X83432298Y-110366045D01*
X83275155Y-110366045D01*
X83170393Y-110418426D01*
X83118012Y-110470807D01*
X83065631Y-110575569D01*
X83065631Y-110889855D01*
X83118012Y-110994617D01*
X83170393Y-111046998D01*
X83275155Y-111099379D01*
X83432298Y-111099379D01*
X82594202Y-110366045D02*
X82594202Y-111466045D01*
X82594202Y-110418426D02*
X82489440Y-110366045D01*
X82279917Y-110366045D01*
X82175155Y-110418426D01*
X82122774Y-110470807D01*
X82070393Y-110575569D01*
X82070393Y-110889855D01*
X82122774Y-110994617D01*
X82175155Y-111046998D01*
X82279917Y-111099379D01*
X82489440Y-111099379D01*
X82594202Y-111046998D01*
X81179917Y-111046998D02*
X81284679Y-111099379D01*
X81494202Y-111099379D01*
X81598964Y-111046998D01*
X81651345Y-110942236D01*
X81651345Y-110523188D01*
X81598964Y-110418426D01*
X81494202Y-110366045D01*
X81284679Y-110366045D01*
X81179917Y-110418426D01*
X81127536Y-110523188D01*
X81127536Y-110627950D01*
X81651345Y-110732712D01*
X80656107Y-110366045D02*
X80656107Y-111099379D01*
X80656107Y-110470807D02*
X80603726Y-110418426D01*
X80498964Y-110366045D01*
X80341821Y-110366045D01*
X80237060Y-110418426D01*
X80184679Y-110523188D01*
X80184679Y-111099379D01*
D28*
X79116797Y-111145580D02*
X79116797Y-110145580D01*
X78688225Y-111145580D02*
X78688225Y-110621771D01*
X78735844Y-110526533D01*
X78831082Y-110478914D01*
X78973940Y-110478914D01*
X79069178Y-110526533D01*
X79116797Y-110574152D01*
X77783463Y-111145580D02*
X77783463Y-110621771D01*
X77831082Y-110526533D01*
X77926320Y-110478914D01*
X78116797Y-110478914D01*
X78212035Y-110526533D01*
X77783463Y-111097961D02*
X77878701Y-111145580D01*
X78116797Y-111145580D01*
X78212035Y-111097961D01*
X78259654Y-111002723D01*
X78259654Y-110907485D01*
X78212035Y-110812247D01*
X78116797Y-110764628D01*
X77878701Y-110764628D01*
X77783463Y-110717009D01*
X77307273Y-111145580D02*
X77307273Y-110478914D01*
X77307273Y-110669390D02*
X77259654Y-110574152D01*
X77212035Y-110526533D01*
X77116797Y-110478914D01*
X77021559Y-110478914D01*
X76259654Y-111145580D02*
X76259654Y-110145580D01*
X76259654Y-111097961D02*
X76354892Y-111145580D01*
X76545368Y-111145580D01*
X76640606Y-111097961D01*
X76688225Y-111050342D01*
X76735844Y-110955104D01*
X76735844Y-110669390D01*
X76688225Y-110574152D01*
X76640606Y-110526533D01*
X76545368Y-110478914D01*
X76354892Y-110478914D01*
X76259654Y-110526533D01*
X75878701Y-110478914D02*
X75688225Y-111145580D01*
X75497749Y-110669390D01*
X75307273Y-111145580D01*
X75116797Y-110478914D01*
X74307273Y-111145580D02*
X74307273Y-110621771D01*
X74354892Y-110526533D01*
X74450130Y-110478914D01*
X74640606Y-110478914D01*
X74735844Y-110526533D01*
X74307273Y-111097961D02*
X74402511Y-111145580D01*
X74640606Y-111145580D01*
X74735844Y-111097961D01*
X74783463Y-111002723D01*
X74783463Y-110907485D01*
X74735844Y-110812247D01*
X74640606Y-110764628D01*
X74402511Y-110764628D01*
X74307273Y-110717009D01*
X73831082Y-111145580D02*
X73831082Y-110478914D01*
X73831082Y-110669390D02*
X73783463Y-110574152D01*
X73735844Y-110526533D01*
X73640606Y-110478914D01*
X73545368Y-110478914D01*
X72831082Y-111097961D02*
X72926320Y-111145580D01*
X73116797Y-111145580D01*
X73212035Y-111097961D01*
X73259654Y-111002723D01*
X73259654Y-110621771D01*
X73212035Y-110526533D01*
X73116797Y-110478914D01*
X72926320Y-110478914D01*
X72831082Y-110526533D01*
X72783463Y-110621771D01*
X72783463Y-110717009D01*
X73259654Y-110812247D01*
D25*
X115606285Y-102936523D02*
X115606285Y-101666523D01*
X115122476Y-101666523D01*
X115001523Y-101727000D01*
X114941047Y-101787476D01*
X114880571Y-101908428D01*
X114880571Y-102089857D01*
X114941047Y-102210809D01*
X115001523Y-102271285D01*
X115122476Y-102331761D01*
X115606285Y-102331761D01*
X114336285Y-102936523D02*
X114336285Y-101666523D01*
X114336285Y-102271285D02*
X113610571Y-102271285D01*
X113610571Y-102936523D02*
X113610571Y-101666523D01*
X112763904Y-102331761D02*
X112763904Y-102936523D01*
X113187238Y-101666523D02*
X112763904Y-102331761D01*
X112340571Y-101666523D01*
X112219619Y-103057476D02*
X111252000Y-103057476D01*
X110223904Y-102936523D02*
X110647238Y-102331761D01*
X110949619Y-102936523D02*
X110949619Y-101666523D01*
X110465809Y-101666523D01*
X110344857Y-101727000D01*
X110284380Y-101787476D01*
X110223904Y-101908428D01*
X110223904Y-102089857D01*
X110284380Y-102210809D01*
X110344857Y-102271285D01*
X110465809Y-102331761D01*
X110949619Y-102331761D01*
X109740095Y-102876047D02*
X109558666Y-102936523D01*
X109256285Y-102936523D01*
X109135333Y-102876047D01*
X109074857Y-102815571D01*
X109014380Y-102694619D01*
X109014380Y-102573666D01*
X109074857Y-102452714D01*
X109135333Y-102392238D01*
X109256285Y-102331761D01*
X109498190Y-102271285D01*
X109619142Y-102210809D01*
X109679619Y-102150333D01*
X109740095Y-102029380D01*
X109740095Y-101908428D01*
X109679619Y-101787476D01*
X109619142Y-101727000D01*
X109498190Y-101666523D01*
X109195809Y-101666523D01*
X109014380Y-101727000D01*
X108651523Y-101666523D02*
X107925809Y-101666523D01*
X108288666Y-102936523D02*
X108288666Y-101666523D01*
X106837238Y-102936523D02*
X107562952Y-102936523D01*
X107200095Y-102936523D02*
X107200095Y-101666523D01*
X107321047Y-101847952D01*
X107442000Y-101968904D01*
X107562952Y-102029380D01*
M02*
