G04 #@! TF.GenerationSoftware,KiCad,Pcbnew,5.1.0-unknown-c054944~86~ubuntu18.04.1*
G04 #@! TF.CreationDate,2019-04-30T09:52:51+03:00*
G04 #@! TF.ProjectId,ESP32-GATEWAY_Rev_F,45535033-322d-4474-9154-455741595f52,F*
G04 #@! TF.SameCoordinates,Original*
G04 #@! TF.FileFunction,Legend,Top*
G04 #@! TF.FilePolarity,Positive*
%FSLAX46Y46*%
G04 Gerber Fmt 4.6, Leading zero omitted, Abs format (unit mm)*
G04 Created by KiCad (PCBNEW 5.1.0-unknown-c054944~86~ubuntu18.04.1) date 2019-04-30 09:52:51*
%MOMM*%
%LPD*%
G04 APERTURE LIST*
%ADD10C,0.381000*%
%ADD11C,0.254000*%
%ADD12C,0.190500*%
%ADD13C,0.400000*%
%ADD14C,0.700000*%
%ADD15C,0.500000*%
%ADD16C,0.100000*%
%ADD17C,0.127000*%
%ADD18C,0.050000*%
%ADD19C,0.200000*%
%ADD20C,0.150000*%
%ADD21C,0.177800*%
%ADD22C,0.158750*%
G04 APERTURE END LIST*
D10*
X91258571Y-108349142D02*
X91766571Y-108349142D01*
X91984285Y-109147428D02*
X91258571Y-109147428D01*
X91258571Y-107623428D01*
X91984285Y-107623428D01*
X92564857Y-109074857D02*
X92782571Y-109147428D01*
X93145428Y-109147428D01*
X93290571Y-109074857D01*
X93363142Y-109002285D01*
X93435714Y-108857142D01*
X93435714Y-108712000D01*
X93363142Y-108566857D01*
X93290571Y-108494285D01*
X93145428Y-108421714D01*
X92855142Y-108349142D01*
X92710000Y-108276571D01*
X92637428Y-108204000D01*
X92564857Y-108058857D01*
X92564857Y-107913714D01*
X92637428Y-107768571D01*
X92710000Y-107696000D01*
X92855142Y-107623428D01*
X93218000Y-107623428D01*
X93435714Y-107696000D01*
X94088857Y-109147428D02*
X94088857Y-107623428D01*
X94669428Y-107623428D01*
X94814571Y-107696000D01*
X94887142Y-107768571D01*
X94959714Y-107913714D01*
X94959714Y-108131428D01*
X94887142Y-108276571D01*
X94814571Y-108349142D01*
X94669428Y-108421714D01*
X94088857Y-108421714D01*
X95467714Y-107623428D02*
X96411142Y-107623428D01*
X95903142Y-108204000D01*
X96120857Y-108204000D01*
X96266000Y-108276571D01*
X96338571Y-108349142D01*
X96411142Y-108494285D01*
X96411142Y-108857142D01*
X96338571Y-109002285D01*
X96266000Y-109074857D01*
X96120857Y-109147428D01*
X95685428Y-109147428D01*
X95540285Y-109074857D01*
X95467714Y-109002285D01*
X96991714Y-107768571D02*
X97064285Y-107696000D01*
X97209428Y-107623428D01*
X97572285Y-107623428D01*
X97717428Y-107696000D01*
X97790000Y-107768571D01*
X97862571Y-107913714D01*
X97862571Y-108058857D01*
X97790000Y-108276571D01*
X96919142Y-109147428D01*
X97862571Y-109147428D01*
X98515714Y-108566857D02*
X99676857Y-108566857D01*
X101200857Y-107696000D02*
X101055714Y-107623428D01*
X100838000Y-107623428D01*
X100620285Y-107696000D01*
X100475142Y-107841142D01*
X100402571Y-107986285D01*
X100330000Y-108276571D01*
X100330000Y-108494285D01*
X100402571Y-108784571D01*
X100475142Y-108929714D01*
X100620285Y-109074857D01*
X100838000Y-109147428D01*
X100983142Y-109147428D01*
X101200857Y-109074857D01*
X101273428Y-109002285D01*
X101273428Y-108494285D01*
X100983142Y-108494285D01*
X101854000Y-108712000D02*
X102579714Y-108712000D01*
X101708857Y-109147428D02*
X102216857Y-107623428D01*
X102724857Y-109147428D01*
X103015142Y-107623428D02*
X103886000Y-107623428D01*
X103450571Y-109147428D02*
X103450571Y-107623428D01*
X104394000Y-108349142D02*
X104902000Y-108349142D01*
X105119714Y-109147428D02*
X104394000Y-109147428D01*
X104394000Y-107623428D01*
X105119714Y-107623428D01*
X105627714Y-107623428D02*
X105990571Y-109147428D01*
X106280857Y-108058857D01*
X106571142Y-109147428D01*
X106934000Y-107623428D01*
X107442000Y-108712000D02*
X108167714Y-108712000D01*
X107296857Y-109147428D02*
X107804857Y-107623428D01*
X108312857Y-109147428D01*
X109111142Y-108421714D02*
X109111142Y-109147428D01*
X108603142Y-107623428D02*
X109111142Y-108421714D01*
X109619142Y-107623428D01*
D11*
X71156285Y-126189619D02*
X70575714Y-126189619D01*
X70866000Y-126189619D02*
X70866000Y-125173619D01*
X70769238Y-125318761D01*
X70672476Y-125415523D01*
X70575714Y-125463904D01*
X91778666Y-111457619D02*
X91440000Y-110973809D01*
X91198095Y-111457619D02*
X91198095Y-110441619D01*
X91585142Y-110441619D01*
X91681904Y-110490000D01*
X91730285Y-110538380D01*
X91778666Y-110635142D01*
X91778666Y-110780285D01*
X91730285Y-110877047D01*
X91681904Y-110925428D01*
X91585142Y-110973809D01*
X91198095Y-110973809D01*
X92601142Y-111409238D02*
X92504380Y-111457619D01*
X92310857Y-111457619D01*
X92214095Y-111409238D01*
X92165714Y-111312476D01*
X92165714Y-110925428D01*
X92214095Y-110828666D01*
X92310857Y-110780285D01*
X92504380Y-110780285D01*
X92601142Y-110828666D01*
X92649523Y-110925428D01*
X92649523Y-111022190D01*
X92165714Y-111118952D01*
X92988190Y-110780285D02*
X93230095Y-111457619D01*
X93472000Y-110780285D01*
X93859047Y-111360857D02*
X93907428Y-111409238D01*
X93859047Y-111457619D01*
X93810666Y-111409238D01*
X93859047Y-111360857D01*
X93859047Y-111457619D01*
X94681523Y-110925428D02*
X94342857Y-110925428D01*
X94342857Y-111457619D02*
X94342857Y-110441619D01*
X94826666Y-110441619D01*
D12*
X80572428Y-122301000D02*
X80536142Y-122264714D01*
X80463571Y-122155857D01*
X80427285Y-122083285D01*
X80391000Y-121974428D01*
X80354714Y-121793000D01*
X80354714Y-121647857D01*
X80391000Y-121466428D01*
X80427285Y-121357571D01*
X80463571Y-121285000D01*
X80536142Y-121176142D01*
X80572428Y-121139857D01*
X81298142Y-121938142D02*
X81261857Y-121974428D01*
X81153000Y-122010714D01*
X81080428Y-122010714D01*
X80971571Y-121974428D01*
X80899000Y-121901857D01*
X80862714Y-121829285D01*
X80826428Y-121684142D01*
X80826428Y-121575285D01*
X80862714Y-121430142D01*
X80899000Y-121357571D01*
X80971571Y-121285000D01*
X81080428Y-121248714D01*
X81153000Y-121248714D01*
X81261857Y-121285000D01*
X81298142Y-121321285D01*
X81552142Y-122301000D02*
X81588428Y-122264714D01*
X81661000Y-122155857D01*
X81697285Y-122083285D01*
X81733571Y-121974428D01*
X81769857Y-121793000D01*
X81769857Y-121647857D01*
X81733571Y-121466428D01*
X81697285Y-121357571D01*
X81661000Y-121285000D01*
X81588428Y-121176142D01*
X81552142Y-121139857D01*
X82677000Y-121321285D02*
X82713285Y-121285000D01*
X82785857Y-121248714D01*
X82967285Y-121248714D01*
X83039857Y-121285000D01*
X83076142Y-121321285D01*
X83112428Y-121393857D01*
X83112428Y-121466428D01*
X83076142Y-121575285D01*
X82640714Y-122010714D01*
X83112428Y-122010714D01*
X83584142Y-121248714D02*
X83656714Y-121248714D01*
X83729285Y-121285000D01*
X83765571Y-121321285D01*
X83801857Y-121393857D01*
X83838142Y-121539000D01*
X83838142Y-121720428D01*
X83801857Y-121865571D01*
X83765571Y-121938142D01*
X83729285Y-121974428D01*
X83656714Y-122010714D01*
X83584142Y-122010714D01*
X83511571Y-121974428D01*
X83475285Y-121938142D01*
X83439000Y-121865571D01*
X83402714Y-121720428D01*
X83402714Y-121539000D01*
X83439000Y-121393857D01*
X83475285Y-121321285D01*
X83511571Y-121285000D01*
X83584142Y-121248714D01*
X84563857Y-122010714D02*
X84128428Y-122010714D01*
X84346142Y-122010714D02*
X84346142Y-121248714D01*
X84273571Y-121357571D01*
X84201000Y-121430142D01*
X84128428Y-121466428D01*
X84926714Y-122010714D02*
X85071857Y-122010714D01*
X85144428Y-121974428D01*
X85180714Y-121938142D01*
X85253285Y-121829285D01*
X85289571Y-121684142D01*
X85289571Y-121393857D01*
X85253285Y-121321285D01*
X85217000Y-121285000D01*
X85144428Y-121248714D01*
X84999285Y-121248714D01*
X84926714Y-121285000D01*
X84890428Y-121321285D01*
X84854142Y-121393857D01*
X84854142Y-121575285D01*
X84890428Y-121647857D01*
X84926714Y-121684142D01*
X84999285Y-121720428D01*
X85144428Y-121720428D01*
X85217000Y-121684142D01*
X85253285Y-121647857D01*
X85289571Y-121575285D01*
D11*
X98600260Y-67360800D02*
X100401120Y-67360800D01*
X99400360Y-72161400D02*
X98600260Y-67360800D01*
X99601020Y-72161400D02*
X99400360Y-72161400D01*
X100401120Y-67360800D02*
X99601020Y-72161400D01*
X102798880Y-67360800D02*
X104599740Y-67360800D01*
X103598980Y-72161400D02*
X102798880Y-67360800D01*
X103799640Y-72161400D02*
X103598980Y-72161400D01*
X104599740Y-67360800D02*
X103799640Y-72161400D01*
X110600000Y-67359000D02*
X110600000Y-74359000D01*
X109600000Y-67359000D02*
X110600000Y-67359000D01*
X92600000Y-67359000D02*
X92600000Y-74359000D01*
X93600000Y-67359000D02*
X92600000Y-67359000D01*
X99001580Y-72859900D02*
X98000820Y-67360800D01*
X100002340Y-72859900D02*
X99001580Y-72859900D01*
X101000560Y-67360800D02*
X100002340Y-72859900D01*
X103197660Y-72859900D02*
X102199440Y-67360800D01*
X104198420Y-72859900D02*
X103197660Y-72859900D01*
X105199180Y-67360800D02*
X104198420Y-72859900D01*
X95501460Y-68859400D02*
X95501460Y-69060060D01*
X95501460Y-68859400D02*
X95702120Y-68859400D01*
X95900240Y-69359780D02*
X95501460Y-68859400D01*
X96202500Y-68859400D02*
X96202500Y-69060060D01*
X96202500Y-68859400D02*
X96400620Y-68859400D01*
X96601280Y-69359780D02*
X96202500Y-68859400D01*
X97533460Y-70561200D02*
X97533460Y-72499220D01*
X96832420Y-70561200D02*
X97533460Y-70561200D01*
X95834200Y-69761100D02*
X95834200Y-71361300D01*
X95933260Y-70561200D02*
X96733360Y-71361300D01*
X96733360Y-69761100D02*
X95933260Y-70561200D01*
X96733360Y-69761100D02*
X96733360Y-71361300D01*
X95034100Y-70561200D02*
X95732600Y-70561200D01*
X95034100Y-72588120D02*
X95034100Y-70561200D01*
X106199940Y-68859400D02*
X106199940Y-69060060D01*
X106199940Y-68859400D02*
X106398060Y-68859400D01*
X106598720Y-69359780D02*
X106199940Y-68859400D01*
X106898440Y-68859400D02*
X106898440Y-69060060D01*
X106898440Y-68859400D02*
X107099100Y-68859400D01*
X107299760Y-69359780D02*
X106898440Y-68859400D01*
X105700000Y-70559000D02*
X105700000Y-72459000D01*
X106398060Y-70561200D02*
X105699560Y-70561200D01*
X106499660Y-71361300D02*
X106499660Y-69761100D01*
X106598720Y-70561200D02*
X107398820Y-69761100D01*
X107398820Y-71361300D02*
X106598720Y-70561200D01*
X107400000Y-71359000D02*
X107400000Y-69759000D01*
X108200000Y-70559000D02*
X107500000Y-70559000D01*
X108200000Y-72559000D02*
X108200000Y-70559000D01*
X109600000Y-83109000D02*
X109600000Y-89359000D01*
X109600000Y-67359000D02*
X109600000Y-79609000D01*
X93600000Y-67359000D02*
X109600000Y-67359000D01*
X93600000Y-79609000D02*
X93600000Y-67359000D01*
X93600000Y-89359000D02*
X93600000Y-83109000D01*
X109600000Y-89359000D02*
X93600000Y-89359000D01*
X103700000Y-72159000D02*
X103050000Y-67369000D01*
X103710000Y-72009000D02*
X104360000Y-67379000D01*
X103720000Y-71399000D02*
X103160000Y-67369000D01*
X103710000Y-71109000D02*
X104120000Y-67379000D01*
X103730000Y-70589000D02*
X103370000Y-67379000D01*
X103680000Y-69879000D02*
X103870000Y-67369000D01*
X103770000Y-68999000D02*
X103570000Y-67359000D01*
X103600000Y-68229000D02*
X103740000Y-67419000D01*
X99510000Y-71969000D02*
X98790000Y-67369000D01*
X99500000Y-71799000D02*
X100170000Y-67379000D01*
X99510000Y-71219000D02*
X98990000Y-67489000D01*
X99450000Y-70749000D02*
X99930000Y-67389000D01*
X99580000Y-69999000D02*
X99180000Y-67429000D01*
X99550000Y-69579000D02*
X99700000Y-67399000D01*
X99620000Y-68969000D02*
X99340000Y-67389000D01*
X99510000Y-68259000D02*
X99510000Y-67389000D01*
X77284580Y-116852700D02*
X75577700Y-117944900D01*
X70609460Y-106027220D02*
X70609460Y-117513100D01*
X71038720Y-105585260D02*
X81975960Y-105585260D01*
X71038720Y-117944900D02*
X75557380Y-117944900D01*
X82405220Y-116123720D02*
X82405220Y-116423440D01*
X82405220Y-110025180D02*
X82405220Y-112473740D01*
X82405220Y-106017060D02*
X82405220Y-106486960D01*
X81975960Y-116852700D02*
X77284580Y-116852700D01*
D13*
X80868147Y-124206000D02*
G75*
G03X80868147Y-124206000I-337447J0D01*
G01*
D14*
X80518000Y-123431300D02*
X81026000Y-122923300D01*
X82118200Y-122847100D02*
X82753200Y-123456700D01*
X82727800Y-125412500D02*
X82169000Y-125996700D01*
X84353400Y-126009400D02*
X83896200Y-125552200D01*
X85339200Y-126009400D02*
X84353400Y-126009400D01*
D13*
X86218324Y-125984000D02*
G75*
G03X86218324Y-125984000I-366324J0D01*
G01*
D14*
X85852000Y-123291600D02*
X85852000Y-124891800D01*
D13*
X86238218Y-122758200D02*
G75*
G03X86238218Y-122758200I-373518J0D01*
G01*
X87443559Y-125958600D02*
G75*
G03X87443559Y-125958600I-359659J0D01*
G01*
D14*
X87071200Y-125450600D02*
X87071200Y-122859800D01*
X87071200Y-122859800D02*
X87909400Y-122859800D01*
X87909400Y-122859800D02*
X88519000Y-123367800D01*
X88620600Y-124155200D02*
X88620600Y-123444000D01*
X88696800Y-123367800D02*
X89331800Y-122859800D01*
D13*
X88991518Y-124688600D02*
G75*
G03X88991518Y-124688600I-370918J0D01*
G01*
D14*
X89331800Y-122859800D02*
X90220800Y-122859800D01*
D13*
X90596729Y-125971300D02*
G75*
G03X90596729Y-125971300I-363229J0D01*
G01*
X96392266Y-126060200D02*
G75*
G03X96392266Y-126060200I-329466J0D01*
G01*
D14*
X95732600Y-125704600D02*
X94894400Y-124891800D01*
D15*
X94386400Y-124790200D02*
X94919800Y-124790200D01*
D14*
X93243400Y-126009400D02*
X94386400Y-124891800D01*
X91922600Y-126009400D02*
X93243400Y-126009400D01*
X91490800Y-125577600D02*
X91922600Y-126009400D01*
X91490800Y-123342400D02*
X91490800Y-125577600D01*
X91490800Y-123317000D02*
X91973400Y-122809000D01*
X92021500Y-122834400D02*
X93243400Y-122834400D01*
X93243400Y-122834400D02*
X94335600Y-123901200D01*
D15*
X94361000Y-124015500D02*
X94919800Y-124015500D01*
D14*
X95783400Y-123024900D02*
X94919800Y-123918600D01*
D13*
X96511135Y-122669300D02*
G75*
G03X96511135Y-122669300I-359435J0D01*
G01*
D14*
X92710000Y-124409200D02*
X91490800Y-124409200D01*
D13*
X93577659Y-124409200D02*
G75*
G03X93577659Y-124409200I-359659J0D01*
G01*
D14*
X81089500Y-126022100D02*
X82130900Y-126022100D01*
X80530700Y-125463300D02*
X80530700Y-124701300D01*
X80518000Y-125450600D02*
X81102200Y-126022100D01*
X80518000Y-123482100D02*
X80518000Y-123723400D01*
X82740500Y-123444000D02*
X82740500Y-125374400D01*
X82118200Y-122834400D02*
X81114900Y-122834400D01*
X90233500Y-122847100D02*
X90233500Y-125450600D01*
X83896200Y-125564900D02*
X83896200Y-122834400D01*
D16*
X83896200Y-122491500D02*
X83616800Y-122491500D01*
X83591400Y-122491500D02*
X83591400Y-125641100D01*
X83604100Y-122491500D02*
X83591400Y-122491500D01*
X83616800Y-122491500D02*
X83604100Y-122491500D01*
X83731100Y-122580400D02*
X83667600Y-122567700D01*
X84213700Y-122491500D02*
X84213700Y-125526800D01*
X83908900Y-122491500D02*
X84213700Y-122491500D01*
X84035900Y-122567700D02*
X84150200Y-122567700D01*
X85534500Y-123177300D02*
X85534500Y-125196600D01*
X86169500Y-125196600D02*
X86169500Y-123177300D01*
X86144100Y-125196600D02*
X86169500Y-125196600D01*
X85534500Y-125196600D02*
X86144100Y-125196600D01*
X85674200Y-125133100D02*
X85610700Y-125133100D01*
X86017100Y-125133100D02*
X86106000Y-125133100D01*
X86753700Y-125539500D02*
X86753700Y-122555000D01*
X87998300Y-122542300D02*
X88582500Y-123024900D01*
X86753700Y-122542300D02*
X87998300Y-122542300D01*
X86906100Y-122605800D02*
X86829900Y-122605800D01*
X90563700Y-125564900D02*
X90563700Y-122555000D01*
X89242900Y-122542300D02*
X88620600Y-123037600D01*
X89268300Y-122542300D02*
X89242900Y-122542300D01*
X90563700Y-122542300D02*
X89268300Y-122542300D01*
X90563700Y-122555000D02*
X90563700Y-122542300D01*
X90411300Y-122618500D02*
X90512900Y-122618500D01*
X93357700Y-122504200D02*
X94615000Y-123748800D01*
X93306900Y-122504200D02*
X93357700Y-122504200D01*
X91935300Y-122504200D02*
X93306900Y-122504200D01*
D11*
X90297000Y-98298000D02*
X89281000Y-98298000D01*
X90297000Y-96774000D02*
X89281000Y-96774000D01*
D17*
X85674200Y-101092000D02*
X86512400Y-101092000D01*
X85674200Y-102870000D02*
X86512400Y-102870000D01*
D11*
X89280999Y-98298000D02*
X90296999Y-98298000D01*
X89280999Y-99822000D02*
X90296999Y-99822000D01*
X89027000Y-96545400D02*
X89027000Y-95834200D01*
X88188800Y-96545400D02*
X89027000Y-96545400D01*
X88188800Y-93700600D02*
X89027000Y-93700600D01*
X89027000Y-94411800D02*
X89027000Y-93700600D01*
X89280999Y-99822000D02*
X90296999Y-99822000D01*
X89280999Y-101346000D02*
X90296999Y-101346000D01*
X88239600Y-104140000D02*
X88950800Y-104140000D01*
X88239600Y-103301800D02*
X88239600Y-104140000D01*
X91084400Y-103301800D02*
X91084400Y-104140000D01*
X90373200Y-104140000D02*
X91084400Y-104140000D01*
D13*
X116774000Y-111457000D02*
X116774000Y-108457000D01*
D11*
X118323360Y-111584740D02*
X113324640Y-111584740D01*
X113324640Y-108379260D02*
X118323360Y-108379260D01*
X115189000Y-109347000D02*
X115189000Y-110617000D01*
X115189000Y-110617000D02*
X116205000Y-109982000D01*
X115189000Y-109347000D02*
X116205000Y-109982000D01*
X116205000Y-109347000D02*
X116205000Y-110617000D01*
X86995000Y-105410000D02*
X85979000Y-105410000D01*
X86995000Y-103886000D02*
X85979000Y-103886000D01*
X81534000Y-120650000D02*
X80518000Y-120650000D01*
X81534000Y-119126000D02*
X80518000Y-119126000D01*
X117348000Y-81915000D02*
X118364000Y-81915000D01*
X117348000Y-83439000D02*
X118364000Y-83439000D01*
D17*
X119253000Y-81483200D02*
X118237000Y-81483200D01*
X118237000Y-80264000D02*
X119253000Y-80264000D01*
D16*
X117596000Y-80899000D02*
X118116000Y-80899000D01*
X117766000Y-80789000D02*
X117766000Y-81009000D01*
X117766000Y-80789000D02*
X117876000Y-80889000D01*
X117766000Y-81009000D02*
X117866000Y-80909000D01*
X117956000Y-80789000D02*
X117956000Y-81009000D01*
D18*
X118033800Y-81144600D02*
X117903800Y-81254600D01*
X117902200Y-81253600D02*
X117982200Y-81243600D01*
X117902200Y-81253600D02*
X117902200Y-81173600D01*
X117686800Y-81253600D02*
X117686800Y-81173600D01*
X117686800Y-81253600D02*
X117766800Y-81243600D01*
X117826800Y-81123600D02*
X117696800Y-81233600D01*
D11*
X119265700Y-80327500D02*
X119418100Y-80454500D01*
X119265700Y-81419700D02*
X119405400Y-81292700D01*
X119418100Y-80454500D02*
X119418100Y-81280000D01*
X119253000Y-81381600D02*
X119253000Y-80340200D01*
X69596000Y-126746000D02*
X69596000Y-129286000D01*
X74676000Y-129032000D02*
X74930000Y-129286000D01*
X74422000Y-129286000D02*
X74676000Y-129032000D01*
X71882000Y-129286000D02*
X70104000Y-129286000D01*
X72136000Y-129032000D02*
X71882000Y-129286000D01*
X72390000Y-129286000D02*
X72136000Y-129032000D01*
X74422000Y-129286000D02*
X72390000Y-129286000D01*
X70104000Y-129286000D02*
X69596000Y-129286000D01*
X69850000Y-129286000D02*
X69596000Y-129032000D01*
X69596000Y-127000000D02*
X69850000Y-126746000D01*
X76962000Y-129286000D02*
X74930000Y-129286000D01*
X77216000Y-129032000D02*
X76962000Y-129286000D01*
X80010000Y-129286000D02*
X79756000Y-129032000D01*
X79502000Y-129286000D02*
X77470000Y-129286000D01*
X79756000Y-129032000D02*
X79502000Y-129286000D01*
X79502000Y-126746000D02*
X79756000Y-127000000D01*
X77470000Y-126746000D02*
X79502000Y-126746000D01*
X77216000Y-127000000D02*
X77470000Y-126746000D01*
X76962000Y-126746000D02*
X77216000Y-127000000D01*
X74930000Y-126746000D02*
X76962000Y-126746000D01*
X74676000Y-127000000D02*
X74930000Y-126746000D01*
X74422000Y-126746000D02*
X74676000Y-127000000D01*
X72390000Y-126746000D02*
X74422000Y-126746000D01*
X72136000Y-127000000D02*
X72390000Y-126746000D01*
X71882000Y-126746000D02*
X72136000Y-127000000D01*
X69850000Y-126746000D02*
X71882000Y-126746000D01*
X69596000Y-126746000D02*
X69850000Y-126746000D01*
X79756000Y-127000000D02*
X80010000Y-126746000D01*
X80010000Y-126746000D02*
X82042000Y-126746000D01*
X84582000Y-126746000D02*
X84836000Y-127000000D01*
X82042000Y-129286000D02*
X80010000Y-129286000D01*
X77470000Y-129286000D02*
X77216000Y-129032000D01*
X84836000Y-129032000D02*
X84582000Y-129286000D01*
X82550000Y-126746000D02*
X84582000Y-126746000D01*
X82296000Y-127000000D02*
X82550000Y-126746000D01*
X84582000Y-129286000D02*
X82550000Y-129286000D01*
X82296000Y-129032000D02*
X82042000Y-129286000D01*
X82550000Y-129286000D02*
X82296000Y-129032000D01*
X82042000Y-126746000D02*
X82296000Y-127000000D01*
X84582000Y-126746000D02*
X84836000Y-127000000D01*
X84836000Y-129032000D02*
X84582000Y-129286000D01*
X84582000Y-129286000D02*
X82550000Y-129286000D01*
X82550000Y-126746000D02*
X84582000Y-126746000D01*
X82296000Y-127000000D02*
X82550000Y-126746000D01*
X82550000Y-129286000D02*
X82296000Y-129032000D01*
X87630000Y-129286000D02*
X87376000Y-129032000D01*
X87376000Y-127000000D02*
X87630000Y-126746000D01*
X87630000Y-126746000D02*
X89662000Y-126746000D01*
X89662000Y-129286000D02*
X87630000Y-129286000D01*
X89916000Y-129032000D02*
X89662000Y-129286000D01*
X89662000Y-126746000D02*
X89916000Y-127000000D01*
X87122000Y-126746000D02*
X87376000Y-127000000D01*
X87630000Y-129286000D02*
X87376000Y-129032000D01*
X87376000Y-129032000D02*
X87122000Y-129286000D01*
X89662000Y-129286000D02*
X87630000Y-129286000D01*
X87376000Y-127000000D02*
X87630000Y-126746000D01*
X87630000Y-126746000D02*
X89662000Y-126746000D01*
X89916000Y-129032000D02*
X89662000Y-129286000D01*
X87122000Y-129286000D02*
X85090000Y-129286000D01*
X89662000Y-126746000D02*
X89916000Y-127000000D01*
X85090000Y-126746000D02*
X87122000Y-126746000D01*
X84836000Y-127000000D02*
X85090000Y-126746000D01*
X85090000Y-129286000D02*
X84836000Y-129032000D01*
X90170000Y-129286000D02*
X89916000Y-129032000D01*
X89916000Y-127000000D02*
X90170000Y-126746000D01*
X90170000Y-126746000D02*
X92202000Y-126746000D01*
X94742000Y-126746000D02*
X94996000Y-127000000D01*
X92202000Y-129286000D02*
X90170000Y-129286000D01*
X94996000Y-129032000D02*
X94742000Y-129286000D01*
X92710000Y-126746000D02*
X94742000Y-126746000D01*
X92456000Y-127000000D02*
X92710000Y-126746000D01*
X94742000Y-129286000D02*
X92710000Y-129286000D01*
X92456000Y-129032000D02*
X92202000Y-129286000D01*
X92710000Y-129286000D02*
X92456000Y-129032000D01*
X92202000Y-126746000D02*
X92456000Y-127000000D01*
X94742000Y-126746000D02*
X94996000Y-127000000D01*
X94996000Y-129032000D02*
X94742000Y-129286000D01*
X94742000Y-129286000D02*
X92710000Y-129286000D01*
X92710000Y-126746000D02*
X94742000Y-126746000D01*
X92456000Y-127000000D02*
X92710000Y-126746000D01*
X92710000Y-129286000D02*
X92456000Y-129032000D01*
X97790000Y-129286000D02*
X97536000Y-129032000D01*
X97536000Y-127000000D02*
X97790000Y-126746000D01*
X97790000Y-126746000D02*
X99822000Y-126746000D01*
X99822000Y-129286000D02*
X97790000Y-129286000D01*
X100076000Y-129032000D02*
X99822000Y-129286000D01*
X99822000Y-126746000D02*
X100076000Y-127000000D01*
X97282000Y-126746000D02*
X97536000Y-127000000D01*
X97790000Y-129286000D02*
X97536000Y-129032000D01*
X97536000Y-129032000D02*
X97282000Y-129286000D01*
X99822000Y-129286000D02*
X97790000Y-129286000D01*
X97536000Y-127000000D02*
X97790000Y-126746000D01*
X97790000Y-126746000D02*
X99822000Y-126746000D01*
X100076000Y-129032000D02*
X99822000Y-129286000D01*
X97282000Y-129286000D02*
X95250000Y-129286000D01*
X99822000Y-126746000D02*
X100076000Y-127000000D01*
X95250000Y-126746000D02*
X97282000Y-126746000D01*
X94996000Y-127000000D02*
X95250000Y-126746000D01*
X95250000Y-129286000D02*
X94996000Y-129032000D01*
X100330000Y-129286000D02*
X100076000Y-129032000D01*
X100076000Y-127000000D02*
X100330000Y-126746000D01*
X100330000Y-126746000D02*
X102362000Y-126746000D01*
X104902000Y-126746000D02*
X105156000Y-127000000D01*
X102362000Y-129286000D02*
X100330000Y-129286000D01*
X105156000Y-129032000D02*
X104902000Y-129286000D01*
X102870000Y-126746000D02*
X104902000Y-126746000D01*
X102616000Y-127000000D02*
X102870000Y-126746000D01*
X104902000Y-129286000D02*
X102870000Y-129286000D01*
X102616000Y-129032000D02*
X102362000Y-129286000D01*
X102870000Y-129286000D02*
X102616000Y-129032000D01*
X102362000Y-126746000D02*
X102616000Y-127000000D01*
X104902000Y-126746000D02*
X105156000Y-127000000D01*
X105156000Y-129032000D02*
X104902000Y-129286000D01*
X104902000Y-129286000D02*
X102870000Y-129286000D01*
X102870000Y-126746000D02*
X104902000Y-126746000D01*
X102616000Y-127000000D02*
X102870000Y-126746000D01*
X102870000Y-129286000D02*
X102616000Y-129032000D01*
X107950000Y-129286000D02*
X107696000Y-129032000D01*
X107696000Y-127000000D02*
X107950000Y-126746000D01*
X107950000Y-126746000D02*
X109982000Y-126746000D01*
X109982000Y-129286000D02*
X107950000Y-129286000D01*
X110236000Y-129032000D02*
X109982000Y-129286000D01*
X109982000Y-126746000D02*
X110236000Y-127000000D01*
X107442000Y-126746000D02*
X107696000Y-127000000D01*
X107950000Y-129286000D02*
X107696000Y-129032000D01*
X107696000Y-129032000D02*
X107442000Y-129286000D01*
X109982000Y-129286000D02*
X107950000Y-129286000D01*
X107696000Y-127000000D02*
X107950000Y-126746000D01*
X107950000Y-126746000D02*
X109982000Y-126746000D01*
X110236000Y-129032000D02*
X109982000Y-129286000D01*
X107442000Y-129286000D02*
X105410000Y-129286000D01*
X109982000Y-126746000D02*
X110236000Y-127000000D01*
X105410000Y-126746000D02*
X107442000Y-126746000D01*
X105156000Y-127000000D02*
X105410000Y-126746000D01*
X105410000Y-129286000D02*
X105156000Y-129032000D01*
X115570000Y-129286000D02*
X115316000Y-129032000D01*
X115316000Y-127000000D02*
X115570000Y-126746000D01*
X115570000Y-126746000D02*
X117602000Y-126746000D01*
X120142000Y-126746000D02*
X120396000Y-127000000D01*
X117602000Y-129286000D02*
X115570000Y-129286000D01*
X120396000Y-129032000D02*
X120142000Y-129286000D01*
X120396000Y-127000000D02*
X120396000Y-129032000D01*
X118110000Y-126746000D02*
X120142000Y-126746000D01*
X117856000Y-127000000D02*
X118110000Y-126746000D01*
X120142000Y-129286000D02*
X118110000Y-129286000D01*
X117856000Y-129032000D02*
X117602000Y-129286000D01*
X118110000Y-129286000D02*
X117856000Y-129032000D01*
X117602000Y-126746000D02*
X117856000Y-127000000D01*
X120142000Y-126746000D02*
X120396000Y-127000000D01*
X120396000Y-129032000D02*
X120142000Y-129286000D01*
X120142000Y-129286000D02*
X118110000Y-129286000D01*
X118110000Y-126746000D02*
X120142000Y-126746000D01*
X117856000Y-127000000D02*
X118110000Y-126746000D01*
X118110000Y-129286000D02*
X117856000Y-129032000D01*
X113030000Y-129286000D02*
X112776000Y-129032000D01*
X112776000Y-127000000D02*
X113030000Y-126746000D01*
X113030000Y-126746000D02*
X115062000Y-126746000D01*
X115062000Y-129286000D02*
X113030000Y-129286000D01*
X115316000Y-129032000D02*
X115062000Y-129286000D01*
X115062000Y-126746000D02*
X115316000Y-127000000D01*
X112522000Y-126746000D02*
X112776000Y-127000000D01*
X113030000Y-129286000D02*
X112776000Y-129032000D01*
X112776000Y-129032000D02*
X112522000Y-129286000D01*
X115062000Y-129286000D02*
X113030000Y-129286000D01*
X112776000Y-127000000D02*
X113030000Y-126746000D01*
X113030000Y-126746000D02*
X115062000Y-126746000D01*
X115316000Y-129032000D02*
X115062000Y-129286000D01*
X112522000Y-129286000D02*
X110490000Y-129286000D01*
X115062000Y-126746000D02*
X115316000Y-127000000D01*
X110490000Y-126746000D02*
X112522000Y-126746000D01*
X110236000Y-127000000D02*
X110490000Y-126746000D01*
X110490000Y-129286000D02*
X110236000Y-129032000D01*
X119367000Y-91550000D02*
X119367000Y-98950000D01*
X114867000Y-98950000D02*
X116067000Y-98950000D01*
X113367000Y-97050000D02*
X113367000Y-98050000D01*
X113367000Y-92450000D02*
X113367000Y-93450000D01*
X118367000Y-91550000D02*
X119367000Y-91550000D01*
X120467000Y-91186000D02*
X120467000Y-99314000D01*
X119367000Y-98950000D02*
X118367000Y-98950000D01*
X114867000Y-91550000D02*
X116067000Y-91550000D01*
X120396000Y-91186000D02*
X119380000Y-91567000D01*
X120396000Y-99314000D02*
X119380000Y-98933000D01*
X87757000Y-120523000D02*
X86741000Y-120523000D01*
X87757000Y-118999000D02*
X86741000Y-118999000D01*
X117475000Y-115951000D02*
X116459000Y-115951000D01*
X117475000Y-113919000D02*
X116459000Y-113919000D01*
X117475000Y-113919000D02*
X116459000Y-113919000D01*
X117475000Y-111887000D02*
X116459000Y-111887000D01*
X113411000Y-116078000D02*
X113411000Y-115062000D01*
X114935000Y-116078000D02*
X114935000Y-115062000D01*
X114935000Y-118364000D02*
X114935000Y-119380000D01*
X113411000Y-118364000D02*
X113411000Y-119380000D01*
X118364000Y-87884000D02*
X117348000Y-87884000D01*
X118364000Y-86360000D02*
X117348000Y-86360000D01*
X83693000Y-100965000D02*
X83693000Y-101981000D01*
X82169000Y-100965000D02*
X82169000Y-101981000D01*
X81788000Y-98044000D02*
X82804000Y-98044000D01*
X81788000Y-99568000D02*
X82804000Y-99568000D01*
X82804000Y-98044000D02*
X81788000Y-98044000D01*
X82804000Y-96520000D02*
X81788000Y-96520000D01*
X95377000Y-119507000D02*
X94361000Y-119507000D01*
X95377000Y-117983000D02*
X94361000Y-117983000D01*
X114300000Y-104648000D02*
X113284000Y-104648000D01*
X114300000Y-103124000D02*
X113284000Y-103124000D01*
X116260000Y-108030000D02*
X116260000Y-105330000D01*
X113070000Y-108030000D02*
X118070000Y-108030000D01*
X116700000Y-108030000D02*
X116700000Y-105330000D01*
X118070000Y-105330000D02*
X113070000Y-105330000D01*
X109347000Y-116713000D02*
X110363000Y-116713000D01*
X109347000Y-118237000D02*
X110363000Y-118237000D01*
X95377000Y-121920000D02*
X94361000Y-121920000D01*
X95377000Y-120396000D02*
X94361000Y-120396000D01*
X109855000Y-113538000D02*
X110871000Y-113538000D01*
X109855000Y-115062000D02*
X110871000Y-115062000D01*
X95377000Y-115062000D02*
X94361000Y-115062000D01*
X95377000Y-113538000D02*
X94361000Y-113538000D01*
X90932000Y-76835000D02*
X90932000Y-78359000D01*
X93218000Y-76835000D02*
X93218000Y-78359000D01*
X93218000Y-85979000D02*
X93218000Y-84455000D01*
X90932000Y-85979000D02*
X90932000Y-84455000D01*
X86741000Y-111633000D02*
X85725000Y-111633000D01*
X86741000Y-110109000D02*
X85725000Y-110109000D01*
X95377000Y-117729000D02*
X94361000Y-117729000D01*
X95377000Y-116205000D02*
X94361000Y-116205000D01*
X109347000Y-118237000D02*
X110363000Y-118237000D01*
X109347000Y-119761000D02*
X110363000Y-119761000D01*
X94107000Y-93853000D02*
X93091000Y-93853000D01*
X94107000Y-92329000D02*
X93091000Y-92329000D01*
X105410000Y-99441000D02*
X106426000Y-99441000D01*
X105410000Y-100965000D02*
X106426000Y-100965000D01*
X101219000Y-123761500D02*
X102235000Y-123761500D01*
X101219000Y-125285500D02*
X102235000Y-125285500D01*
X100838000Y-91186000D02*
X100838000Y-92202000D01*
X99314000Y-91186000D02*
X99314000Y-92202000D01*
X103124000Y-91186000D02*
X103124000Y-92202000D01*
X101600000Y-91186000D02*
X101600000Y-92202000D01*
X97028000Y-91186000D02*
X97028000Y-92202000D01*
X95504000Y-91186000D02*
X95504000Y-92202000D01*
X86741000Y-117221000D02*
X85725000Y-117221000D01*
X86741000Y-115697000D02*
X85725000Y-115697000D01*
X99314000Y-91186000D02*
X99314000Y-92202000D01*
X97790000Y-91186000D02*
X97790000Y-92202000D01*
X112395000Y-76454000D02*
X112395000Y-77470000D01*
X110871000Y-76454000D02*
X110871000Y-77470000D01*
X90932000Y-72898000D02*
X90932000Y-71882000D01*
X92456000Y-72898000D02*
X92456000Y-71882000D01*
X80391000Y-101981000D02*
X80391000Y-100965000D01*
X81915000Y-101981000D02*
X81915000Y-100965000D01*
X82550000Y-104521000D02*
X81534000Y-104521000D01*
X82550000Y-102997000D02*
X81534000Y-102997000D01*
X81788000Y-94996000D02*
X82804000Y-94996000D01*
X81788000Y-96520000D02*
X82804000Y-96520000D01*
D17*
X119253000Y-85928200D02*
X118237000Y-85928200D01*
X118237000Y-84709000D02*
X119253000Y-84709000D01*
D16*
X117596000Y-85344000D02*
X118116000Y-85344000D01*
X117766000Y-85234000D02*
X117766000Y-85454000D01*
X117766000Y-85234000D02*
X117876000Y-85334000D01*
X117766000Y-85454000D02*
X117866000Y-85354000D01*
X117956000Y-85234000D02*
X117956000Y-85454000D01*
D18*
X118033800Y-85589600D02*
X117903800Y-85699600D01*
X117902200Y-85698600D02*
X117982200Y-85688600D01*
X117902200Y-85698600D02*
X117902200Y-85618600D01*
X117686800Y-85698600D02*
X117686800Y-85618600D01*
X117686800Y-85698600D02*
X117766800Y-85688600D01*
X117826800Y-85568600D02*
X117696800Y-85678600D01*
D11*
X119265700Y-84772500D02*
X119418100Y-84899500D01*
X119265700Y-85864700D02*
X119405400Y-85737700D01*
X119418100Y-84899500D02*
X119418100Y-85725000D01*
X119253000Y-85826600D02*
X119253000Y-84785200D01*
X106426000Y-99441000D02*
X105410000Y-99441000D01*
X106426000Y-97917000D02*
X105410000Y-97917000D01*
X94107000Y-99060000D02*
X93091000Y-99060000D01*
X94107000Y-97536000D02*
X93091000Y-97536000D01*
X94107000Y-100584000D02*
X93091000Y-100584000D01*
X94107000Y-99060000D02*
X93091000Y-99060000D01*
X94107000Y-95631000D02*
X93091000Y-95631000D01*
X94107000Y-94107000D02*
X93091000Y-94107000D01*
X104013000Y-93472000D02*
X105029000Y-93472000D01*
X104013000Y-94996000D02*
X105029000Y-94996000D01*
X98552000Y-103505000D02*
X98552000Y-104521000D01*
X97028000Y-103505000D02*
X97028000Y-104521000D01*
X110236000Y-103378000D02*
X110236000Y-104394000D01*
X108712000Y-103378000D02*
X108712000Y-104394000D01*
X107188000Y-91186000D02*
X107188000Y-92202000D01*
X105664000Y-91186000D02*
X105664000Y-92202000D01*
X85725000Y-111633000D02*
X86741000Y-111633000D01*
X85725000Y-113665000D02*
X86741000Y-113665000D01*
X103378000Y-104521000D02*
X103378000Y-103505000D01*
X104902000Y-104521000D02*
X104902000Y-103505000D01*
X104902000Y-104521000D02*
X104902000Y-103505000D01*
X106426000Y-104521000D02*
X106426000Y-103505000D01*
X111379000Y-123571000D02*
X111379000Y-122555000D01*
X113411000Y-123571000D02*
X113411000Y-122555000D01*
D19*
X97226873Y-95145860D02*
G75*
G03X97226873Y-95145860I-176013J0D01*
G01*
D11*
X97850960Y-95544640D02*
X97624900Y-95544640D01*
X102448360Y-95544640D02*
X102047040Y-95544640D01*
X102448360Y-95945960D02*
X102448360Y-95544640D01*
X102448360Y-100543360D02*
X102448360Y-100142040D01*
X102047040Y-100543360D02*
X102448360Y-100543360D01*
X97449640Y-100543360D02*
X97850960Y-100543360D01*
X97449640Y-100142040D02*
X97449640Y-100543360D01*
X97449640Y-95719900D02*
X97449640Y-95945960D01*
X97624900Y-95544640D02*
X97449640Y-95719900D01*
X98996500Y-123190000D02*
X104457500Y-123190000D01*
X98996500Y-115951000D02*
X98996500Y-123571000D01*
X104457500Y-123571000D02*
X104457500Y-115951000D01*
X98996500Y-115951000D02*
X104457500Y-115951000D01*
X104457500Y-123571000D02*
X98996500Y-123571000D01*
D17*
X86664800Y-115443000D02*
X85826600Y-115443000D01*
X86664800Y-113665000D02*
X85826600Y-113665000D01*
D11*
X90170000Y-118338600D02*
X90170000Y-119049800D01*
X91008200Y-118338600D02*
X90170000Y-118338600D01*
X91008200Y-121183400D02*
X90170000Y-121183400D01*
X90170000Y-120472200D02*
X90170000Y-121183400D01*
X90297000Y-114782600D02*
X90297000Y-115493800D01*
X91135200Y-114782600D02*
X90297000Y-114782600D01*
X91135200Y-117627400D02*
X90297000Y-117627400D01*
X90297000Y-116916200D02*
X90297000Y-117627400D01*
X113943000Y-123244000D02*
X113943000Y-123644000D01*
X116943000Y-123244000D02*
X116943000Y-123644000D01*
D19*
X115693000Y-123344000D02*
G75*
G02X115193000Y-123344000I-250000J0D01*
G01*
X116193000Y-123344000D02*
G75*
G02X115693000Y-123344000I-250000J0D01*
G01*
X115193000Y-123344000D02*
G75*
G02X114693000Y-123344000I-250000J0D01*
G01*
X116193000Y-123294000D02*
X116543000Y-123294000D01*
X114693000Y-123294000D02*
X114343000Y-123294000D01*
D11*
X118618000Y-117805200D02*
X118618000Y-118935500D01*
X115811300Y-117805200D02*
X115811300Y-118935500D01*
X118770400Y-102362000D02*
X118059200Y-102362000D01*
X118770400Y-103200200D02*
X118770400Y-102362000D01*
X115925600Y-103200200D02*
X115925600Y-102362000D01*
X116636800Y-102362000D02*
X115925600Y-102362000D01*
D17*
X106680000Y-104063800D02*
X106680000Y-103225600D01*
X108458000Y-104063800D02*
X108458000Y-103225600D01*
D11*
X102958900Y-105486200D02*
X102958900Y-102539800D01*
X102946200Y-105486200D02*
X102768400Y-105486200D01*
X102971600Y-102539800D02*
X102755700Y-102539800D01*
X99148900Y-105486200D02*
X98958400Y-105486200D01*
X98958400Y-105486200D02*
X98958400Y-102539800D01*
X98958400Y-102539800D02*
X99174300Y-102539800D01*
X92621100Y-102539800D02*
X92621100Y-105486200D01*
X92633800Y-102539800D02*
X92811600Y-102539800D01*
X92608400Y-105486200D02*
X92824300Y-105486200D01*
X96431100Y-102539800D02*
X96621600Y-102539800D01*
X96621600Y-102539800D02*
X96621600Y-105486200D01*
X96621600Y-105486200D02*
X96405700Y-105486200D01*
D20*
X97663000Y-110744000D02*
X97663000Y-111125000D01*
X97663000Y-114046000D02*
X97663000Y-113665000D01*
X107569000Y-114046000D02*
X107569000Y-113665000D01*
X107569000Y-110744000D02*
X107569000Y-111125000D01*
X108331000Y-109855000D02*
X108331000Y-111125000D01*
X108331000Y-114935000D02*
X108331000Y-113665000D01*
X96901000Y-114935000D02*
X96901000Y-113665000D01*
X96901000Y-109855000D02*
X96901000Y-111125000D01*
X97663000Y-114046000D02*
X98298000Y-114681000D01*
X98298000Y-114681000D02*
X106934000Y-114681000D01*
X106934000Y-114681000D02*
X107569000Y-114046000D01*
X107569000Y-110744000D02*
X106934000Y-110109000D01*
X106934000Y-110109000D02*
X98298000Y-110109000D01*
X98298000Y-110109000D02*
X97663000Y-110744000D01*
X108331000Y-114935000D02*
X96901000Y-114935000D01*
X96901000Y-109855000D02*
X108331000Y-109855000D01*
D11*
X87160000Y-92633000D02*
X86560000Y-92633000D01*
X72860000Y-92633000D02*
X73510000Y-92633000D01*
X71010000Y-67133000D02*
X71010000Y-73753000D01*
X89010000Y-92633000D02*
X89010000Y-91883000D01*
X89010000Y-92633000D02*
X86560000Y-92633000D01*
X71010000Y-92633000D02*
X73510000Y-92633000D01*
X71010000Y-92633000D02*
X71010000Y-91883000D01*
X89010000Y-67133000D02*
X89010000Y-73753000D01*
X71010000Y-73133000D02*
X89010000Y-73133000D01*
X71010000Y-67133000D02*
X89010000Y-67133000D01*
X76484000Y-102397000D02*
X76484000Y-103597000D01*
X76484000Y-103597000D02*
X73884000Y-103597000D01*
X73884000Y-102397000D02*
X73884000Y-103597000D01*
X76484000Y-102397000D02*
X73884000Y-102397000D01*
X72284000Y-105097000D02*
X78084000Y-105097000D01*
X72284000Y-100897000D02*
X72284000Y-105097000D01*
X78084000Y-100897000D02*
X72284000Y-100897000D01*
X78084000Y-105097000D02*
X78084000Y-100897000D01*
X76484000Y-96555000D02*
X76484000Y-97755000D01*
X76484000Y-97755000D02*
X73884000Y-97755000D01*
X73884000Y-96555000D02*
X73884000Y-97755000D01*
X76484000Y-96555000D02*
X73884000Y-96555000D01*
X72284000Y-99255000D02*
X78084000Y-99255000D01*
X72284000Y-95055000D02*
X72284000Y-99255000D01*
X78084000Y-95055000D02*
X72284000Y-95055000D01*
X78084000Y-99255000D02*
X78084000Y-95055000D01*
X85979000Y-107188000D02*
X86995000Y-107188000D01*
X85979000Y-108712000D02*
X86995000Y-108712000D01*
X81534000Y-119126000D02*
X80518000Y-119126000D01*
X81534000Y-117602000D02*
X80518000Y-117602000D01*
X78359000Y-119126000D02*
X77343000Y-119126000D01*
X78359000Y-117602000D02*
X77343000Y-117602000D01*
X78359000Y-120650000D02*
X77343000Y-120650000D01*
X78359000Y-119126000D02*
X77343000Y-119126000D01*
X86995000Y-106934000D02*
X85979000Y-106934000D01*
X86995000Y-105410000D02*
X85979000Y-105410000D01*
X85572600Y-99364800D02*
X85572600Y-99771200D01*
X86893400Y-100990400D02*
X86106000Y-100990400D01*
X86893400Y-100330000D02*
X86893400Y-100990400D01*
X86893400Y-98145600D02*
X86893400Y-98806000D01*
X86106000Y-98145600D02*
X86893400Y-98145600D01*
X108381800Y-122148600D02*
X106476800Y-122148600D01*
X108381800Y-123520200D02*
X106476800Y-123520200D01*
X107467400Y-123520200D02*
X106476800Y-122148600D01*
X108381800Y-122148600D02*
X107467400Y-123520200D01*
X107429300Y-121564400D02*
X107429300Y-124040900D01*
X106451400Y-125615700D02*
X106451400Y-124320300D01*
X108458000Y-125603000D02*
X108458000Y-124307600D01*
X106451400Y-125628400D02*
X108445300Y-125628400D01*
X106438700Y-119976900D02*
X106438700Y-121348500D01*
X108458000Y-119976900D02*
X108458000Y-121348500D01*
X106438700Y-119976900D02*
X108458000Y-119976900D01*
X108534200Y-123469400D02*
X110439200Y-123469400D01*
X108534200Y-122097800D02*
X110439200Y-122097800D01*
X109448600Y-122097800D02*
X110439200Y-123469400D01*
X108534200Y-123469400D02*
X109448600Y-122097800D01*
X109486700Y-124053600D02*
X109486700Y-121577100D01*
X110464600Y-120002300D02*
X110464600Y-121297700D01*
X108458000Y-120015000D02*
X108458000Y-121310400D01*
X110464600Y-119989600D02*
X108470700Y-119989600D01*
X110477300Y-125641100D02*
X110477300Y-124269500D01*
X108458000Y-125641100D02*
X108458000Y-124269500D01*
X110477300Y-125641100D02*
X108458000Y-125641100D01*
X104013000Y-92202000D02*
X104013000Y-91186000D01*
X105537000Y-92202000D02*
X105537000Y-91186000D01*
D12*
X110707714Y-88609714D02*
X110707714Y-88972571D01*
X109945714Y-88972571D01*
X110490000Y-88392000D02*
X110490000Y-88029142D01*
X110707714Y-88464571D02*
X109945714Y-88210571D01*
X110707714Y-87956571D01*
X110707714Y-87702571D02*
X109945714Y-87702571D01*
X110707714Y-87267142D01*
X109945714Y-87267142D01*
X110707714Y-86505142D02*
X110707714Y-86940571D01*
X110707714Y-86722857D02*
X109945714Y-86722857D01*
X110054571Y-86795428D01*
X110127142Y-86868000D01*
X110163428Y-86940571D01*
D11*
X84216119Y-115116428D02*
X83200119Y-115116428D01*
X83925833Y-114777761D01*
X83200119Y-114439095D01*
X84216119Y-114439095D01*
X84216119Y-113955285D02*
X83200119Y-113955285D01*
X84119357Y-112890904D02*
X84167738Y-112939285D01*
X84216119Y-113084428D01*
X84216119Y-113181190D01*
X84167738Y-113326333D01*
X84070976Y-113423095D01*
X83974214Y-113471476D01*
X83780690Y-113519857D01*
X83635547Y-113519857D01*
X83442023Y-113471476D01*
X83345261Y-113423095D01*
X83248500Y-113326333D01*
X83200119Y-113181190D01*
X83200119Y-113084428D01*
X83248500Y-112939285D01*
X83296880Y-112890904D01*
X84216119Y-111874904D02*
X83732309Y-112213571D01*
X84216119Y-112455476D02*
X83200119Y-112455476D01*
X83200119Y-112068428D01*
X83248500Y-111971666D01*
X83296880Y-111923285D01*
X83393642Y-111874904D01*
X83538785Y-111874904D01*
X83635547Y-111923285D01*
X83683928Y-111971666D01*
X83732309Y-112068428D01*
X83732309Y-112455476D01*
X83200119Y-111245952D02*
X83200119Y-111052428D01*
X83248500Y-110955666D01*
X83345261Y-110858904D01*
X83538785Y-110810523D01*
X83877452Y-110810523D01*
X84070976Y-110858904D01*
X84167738Y-110955666D01*
X84216119Y-111052428D01*
X84216119Y-111245952D01*
X84167738Y-111342714D01*
X84070976Y-111439476D01*
X83877452Y-111487857D01*
X83538785Y-111487857D01*
X83345261Y-111439476D01*
X83248500Y-111342714D01*
X83200119Y-111245952D01*
X84312880Y-110617000D02*
X84312880Y-109842904D01*
X84167738Y-109649380D02*
X84216119Y-109504238D01*
X84216119Y-109262333D01*
X84167738Y-109165571D01*
X84119357Y-109117190D01*
X84022595Y-109068809D01*
X83925833Y-109068809D01*
X83829071Y-109117190D01*
X83780690Y-109165571D01*
X83732309Y-109262333D01*
X83683928Y-109455857D01*
X83635547Y-109552619D01*
X83587166Y-109601000D01*
X83490404Y-109649380D01*
X83393642Y-109649380D01*
X83296880Y-109601000D01*
X83248500Y-109552619D01*
X83200119Y-109455857D01*
X83200119Y-109213952D01*
X83248500Y-109068809D01*
X84216119Y-108633380D02*
X83200119Y-108633380D01*
X83200119Y-108391476D01*
X83248500Y-108246333D01*
X83345261Y-108149571D01*
X83442023Y-108101190D01*
X83635547Y-108052809D01*
X83780690Y-108052809D01*
X83974214Y-108101190D01*
X84070976Y-108149571D01*
X84167738Y-108246333D01*
X84216119Y-108391476D01*
X84216119Y-108633380D01*
X84216119Y-107085190D02*
X84216119Y-107665761D01*
X84216119Y-107375476D02*
X83200119Y-107375476D01*
X83345261Y-107472238D01*
X83442023Y-107569000D01*
X83490404Y-107665761D01*
D12*
X91440000Y-96864714D02*
X91186000Y-96501857D01*
X91004571Y-96864714D02*
X91004571Y-96102714D01*
X91294857Y-96102714D01*
X91367428Y-96139000D01*
X91403714Y-96175285D01*
X91440000Y-96247857D01*
X91440000Y-96356714D01*
X91403714Y-96429285D01*
X91367428Y-96465571D01*
X91294857Y-96501857D01*
X91004571Y-96501857D01*
X92129428Y-96102714D02*
X91766571Y-96102714D01*
X91730285Y-96465571D01*
X91766571Y-96429285D01*
X91839142Y-96393000D01*
X92020571Y-96393000D01*
X92093142Y-96429285D01*
X92129428Y-96465571D01*
X92165714Y-96538142D01*
X92165714Y-96719571D01*
X92129428Y-96792142D01*
X92093142Y-96828428D01*
X92020571Y-96864714D01*
X91839142Y-96864714D01*
X91766571Y-96828428D01*
X91730285Y-96792142D01*
X84963000Y-103722714D02*
X84600142Y-103722714D01*
X84600142Y-102960714D01*
X85616142Y-103722714D02*
X85180714Y-103722714D01*
X85398428Y-103722714D02*
X85398428Y-102960714D01*
X85325857Y-103069571D01*
X85253285Y-103142142D01*
X85180714Y-103178428D01*
D21*
X91973400Y-99051533D02*
X92007266Y-99085400D01*
X92041133Y-99187000D01*
X92041133Y-99254733D01*
X92007266Y-99356333D01*
X91939533Y-99424066D01*
X91871800Y-99457933D01*
X91736333Y-99491800D01*
X91634733Y-99491800D01*
X91499266Y-99457933D01*
X91431533Y-99424066D01*
X91363800Y-99356333D01*
X91329933Y-99254733D01*
X91329933Y-99187000D01*
X91363800Y-99085400D01*
X91397666Y-99051533D01*
X91397666Y-98780600D02*
X91363800Y-98746733D01*
X91329933Y-98679000D01*
X91329933Y-98509666D01*
X91363800Y-98441933D01*
X91397666Y-98408066D01*
X91465400Y-98374200D01*
X91533133Y-98374200D01*
X91634733Y-98408066D01*
X92041133Y-98814466D01*
X92041133Y-98374200D01*
D12*
X85144428Y-94705714D02*
X85579857Y-94705714D01*
X85362142Y-95467714D02*
X85362142Y-94705714D01*
X86233000Y-95467714D02*
X85797571Y-95467714D01*
X86015285Y-95467714D02*
X86015285Y-94705714D01*
X85942714Y-94814571D01*
X85870142Y-94887142D01*
X85797571Y-94923428D01*
X91948000Y-101436714D02*
X91694000Y-101073857D01*
X91512571Y-101436714D02*
X91512571Y-100674714D01*
X91802857Y-100674714D01*
X91875428Y-100711000D01*
X91911714Y-100747285D01*
X91948000Y-100819857D01*
X91948000Y-100928714D01*
X91911714Y-101001285D01*
X91875428Y-101037571D01*
X91802857Y-101073857D01*
X91512571Y-101073857D01*
X92601142Y-100674714D02*
X92456000Y-100674714D01*
X92383428Y-100711000D01*
X92347142Y-100747285D01*
X92274571Y-100856142D01*
X92238285Y-101001285D01*
X92238285Y-101291571D01*
X92274571Y-101364142D01*
X92310857Y-101400428D01*
X92383428Y-101436714D01*
X92528571Y-101436714D01*
X92601142Y-101400428D01*
X92637428Y-101364142D01*
X92673714Y-101291571D01*
X92673714Y-101110142D01*
X92637428Y-101037571D01*
X92601142Y-101001285D01*
X92528571Y-100965000D01*
X92383428Y-100965000D01*
X92310857Y-101001285D01*
X92274571Y-101037571D01*
X92238285Y-101110142D01*
X91893571Y-104394000D02*
X91893571Y-104648000D01*
X92292714Y-104648000D02*
X91530714Y-104648000D01*
X91530714Y-104285142D01*
X91893571Y-103994857D02*
X91893571Y-103740857D01*
X92292714Y-103632000D02*
X92292714Y-103994857D01*
X91530714Y-103994857D01*
X91530714Y-103632000D01*
X91530714Y-103414285D02*
X91530714Y-102978857D01*
X92292714Y-103196571D02*
X91530714Y-103196571D01*
X92292714Y-102325714D02*
X92292714Y-102761142D01*
X92292714Y-102543428D02*
X91530714Y-102543428D01*
X91639571Y-102616000D01*
X91712142Y-102688571D01*
X91748428Y-102761142D01*
X111070571Y-110326714D02*
X111070571Y-109564714D01*
X111252000Y-109564714D01*
X111360857Y-109601000D01*
X111433428Y-109673571D01*
X111469714Y-109746142D01*
X111506000Y-109891285D01*
X111506000Y-110000142D01*
X111469714Y-110145285D01*
X111433428Y-110217857D01*
X111360857Y-110290428D01*
X111252000Y-110326714D01*
X111070571Y-110326714D01*
X111796285Y-109637285D02*
X111832571Y-109601000D01*
X111905142Y-109564714D01*
X112086571Y-109564714D01*
X112159142Y-109601000D01*
X112195428Y-109637285D01*
X112231714Y-109709857D01*
X112231714Y-109782428D01*
X112195428Y-109891285D01*
X111760000Y-110326714D01*
X112231714Y-110326714D01*
X84074000Y-105754714D02*
X83820000Y-105391857D01*
X83638571Y-105754714D02*
X83638571Y-104992714D01*
X83928857Y-104992714D01*
X84001428Y-105029000D01*
X84037714Y-105065285D01*
X84074000Y-105137857D01*
X84074000Y-105246714D01*
X84037714Y-105319285D01*
X84001428Y-105355571D01*
X83928857Y-105391857D01*
X83638571Y-105391857D01*
X84328000Y-104992714D02*
X84799714Y-104992714D01*
X84545714Y-105283000D01*
X84654571Y-105283000D01*
X84727142Y-105319285D01*
X84763428Y-105355571D01*
X84799714Y-105428142D01*
X84799714Y-105609571D01*
X84763428Y-105682142D01*
X84727142Y-105718428D01*
X84654571Y-105754714D01*
X84436857Y-105754714D01*
X84364285Y-105718428D01*
X84328000Y-105682142D01*
X83058000Y-120232714D02*
X82804000Y-119869857D01*
X82622571Y-120232714D02*
X82622571Y-119470714D01*
X82912857Y-119470714D01*
X82985428Y-119507000D01*
X83021714Y-119543285D01*
X83058000Y-119615857D01*
X83058000Y-119724714D01*
X83021714Y-119797285D01*
X82985428Y-119833571D01*
X82912857Y-119869857D01*
X82622571Y-119869857D01*
X83348285Y-119543285D02*
X83384571Y-119507000D01*
X83457142Y-119470714D01*
X83638571Y-119470714D01*
X83711142Y-119507000D01*
X83747428Y-119543285D01*
X83783714Y-119615857D01*
X83783714Y-119688428D01*
X83747428Y-119797285D01*
X83312000Y-120232714D01*
X83783714Y-120232714D01*
X117729000Y-84545714D02*
X117475000Y-84182857D01*
X117293571Y-84545714D02*
X117293571Y-83783714D01*
X117583857Y-83783714D01*
X117656428Y-83820000D01*
X117692714Y-83856285D01*
X117729000Y-83928857D01*
X117729000Y-84037714D01*
X117692714Y-84110285D01*
X117656428Y-84146571D01*
X117583857Y-84182857D01*
X117293571Y-84182857D01*
X118454714Y-84545714D02*
X118019285Y-84545714D01*
X118237000Y-84545714D02*
X118237000Y-83783714D01*
X118164428Y-83892571D01*
X118091857Y-83965142D01*
X118019285Y-84001428D01*
X113574285Y-81243714D02*
X113211428Y-81243714D01*
X113211428Y-80481714D01*
X113828285Y-80844571D02*
X114082285Y-80844571D01*
X114191142Y-81243714D02*
X113828285Y-81243714D01*
X113828285Y-80481714D01*
X114191142Y-80481714D01*
X114517714Y-81243714D02*
X114517714Y-80481714D01*
X114699142Y-80481714D01*
X114808000Y-80518000D01*
X114880571Y-80590571D01*
X114916857Y-80663142D01*
X114953142Y-80808285D01*
X114953142Y-80917142D01*
X114916857Y-81062285D01*
X114880571Y-81134857D01*
X114808000Y-81207428D01*
X114699142Y-81243714D01*
X114517714Y-81243714D01*
X115678857Y-81243714D02*
X115243428Y-81243714D01*
X115461142Y-81243714D02*
X115461142Y-80481714D01*
X115388571Y-80590571D01*
X115316000Y-80663142D01*
X115243428Y-80699428D01*
D11*
X75855285Y-126219857D02*
X75806904Y-126268238D01*
X75661761Y-126316619D01*
X75565000Y-126316619D01*
X75419857Y-126268238D01*
X75323095Y-126171476D01*
X75274714Y-126074714D01*
X75226333Y-125881190D01*
X75226333Y-125736047D01*
X75274714Y-125542523D01*
X75323095Y-125445761D01*
X75419857Y-125349000D01*
X75565000Y-125300619D01*
X75661761Y-125300619D01*
X75806904Y-125349000D01*
X75855285Y-125397380D01*
X76484238Y-125300619D02*
X76677761Y-125300619D01*
X76774523Y-125349000D01*
X76871285Y-125445761D01*
X76919666Y-125639285D01*
X76919666Y-125977952D01*
X76871285Y-126171476D01*
X76774523Y-126268238D01*
X76677761Y-126316619D01*
X76484238Y-126316619D01*
X76387476Y-126268238D01*
X76290714Y-126171476D01*
X76242333Y-125977952D01*
X76242333Y-125639285D01*
X76290714Y-125445761D01*
X76387476Y-125349000D01*
X76484238Y-125300619D01*
X77355095Y-126316619D02*
X77355095Y-125300619D01*
X77935666Y-126316619D01*
X77935666Y-125300619D01*
X78951666Y-126316619D02*
X78371095Y-126316619D01*
X78661380Y-126316619D02*
X78661380Y-125300619D01*
X78564619Y-125445761D01*
X78467857Y-125542523D01*
X78371095Y-125590904D01*
X110677476Y-99773619D02*
X110677476Y-100596095D01*
X110725857Y-100692857D01*
X110774238Y-100741238D01*
X110871000Y-100789619D01*
X111064523Y-100789619D01*
X111161285Y-100741238D01*
X111209666Y-100692857D01*
X111258047Y-100596095D01*
X111258047Y-99773619D01*
X111693476Y-100741238D02*
X111838619Y-100789619D01*
X112080523Y-100789619D01*
X112177285Y-100741238D01*
X112225666Y-100692857D01*
X112274047Y-100596095D01*
X112274047Y-100499333D01*
X112225666Y-100402571D01*
X112177285Y-100354190D01*
X112080523Y-100305809D01*
X111887000Y-100257428D01*
X111790238Y-100209047D01*
X111741857Y-100160666D01*
X111693476Y-100063904D01*
X111693476Y-99967142D01*
X111741857Y-99870380D01*
X111790238Y-99822000D01*
X111887000Y-99773619D01*
X112128904Y-99773619D01*
X112274047Y-99822000D01*
X113048142Y-100257428D02*
X113193285Y-100305809D01*
X113241666Y-100354190D01*
X113290047Y-100450952D01*
X113290047Y-100596095D01*
X113241666Y-100692857D01*
X113193285Y-100741238D01*
X113096523Y-100789619D01*
X112709476Y-100789619D01*
X112709476Y-99773619D01*
X113048142Y-99773619D01*
X113144904Y-99822000D01*
X113193285Y-99870380D01*
X113241666Y-99967142D01*
X113241666Y-100063904D01*
X113193285Y-100160666D01*
X113144904Y-100209047D01*
X113048142Y-100257428D01*
X112709476Y-100257428D01*
X113725476Y-100402571D02*
X114499571Y-100402571D01*
X114983380Y-99773619D02*
X114983380Y-100596095D01*
X115031761Y-100692857D01*
X115080142Y-100741238D01*
X115176904Y-100789619D01*
X115370428Y-100789619D01*
X115467190Y-100741238D01*
X115515571Y-100692857D01*
X115563952Y-100596095D01*
X115563952Y-99773619D01*
X115999380Y-100499333D02*
X116483190Y-100499333D01*
X115902619Y-100789619D02*
X116241285Y-99773619D01*
X116579952Y-100789619D01*
X117499190Y-100789619D02*
X117160523Y-100305809D01*
X116918619Y-100789619D02*
X116918619Y-99773619D01*
X117305666Y-99773619D01*
X117402428Y-99822000D01*
X117450809Y-99870380D01*
X117499190Y-99967142D01*
X117499190Y-100112285D01*
X117450809Y-100209047D01*
X117402428Y-100257428D01*
X117305666Y-100305809D01*
X116918619Y-100305809D01*
X117789476Y-99773619D02*
X118370047Y-99773619D01*
X118079761Y-100789619D02*
X118079761Y-99773619D01*
X119240904Y-100789619D02*
X118660333Y-100789619D01*
X118950619Y-100789619D02*
X118950619Y-99773619D01*
X118853857Y-99918761D01*
X118757095Y-100015523D01*
X118660333Y-100063904D01*
D12*
X87013142Y-121629714D02*
X86759142Y-121266857D01*
X86577714Y-121629714D02*
X86577714Y-120867714D01*
X86868000Y-120867714D01*
X86940571Y-120904000D01*
X86976857Y-120940285D01*
X87013142Y-121012857D01*
X87013142Y-121121714D01*
X86976857Y-121194285D01*
X86940571Y-121230571D01*
X86868000Y-121266857D01*
X86577714Y-121266857D01*
X87267142Y-120867714D02*
X87738857Y-120867714D01*
X87484857Y-121158000D01*
X87593714Y-121158000D01*
X87666285Y-121194285D01*
X87702571Y-121230571D01*
X87738857Y-121303142D01*
X87738857Y-121484571D01*
X87702571Y-121557142D01*
X87666285Y-121593428D01*
X87593714Y-121629714D01*
X87376000Y-121629714D01*
X87303428Y-121593428D01*
X87267142Y-121557142D01*
X87992857Y-120867714D02*
X88500857Y-120867714D01*
X88174285Y-121629714D01*
D11*
X119869857Y-115231333D02*
X119918238Y-115279714D01*
X119966619Y-115424857D01*
X119966619Y-115521619D01*
X119918238Y-115666761D01*
X119821476Y-115763523D01*
X119724714Y-115811904D01*
X119531190Y-115860285D01*
X119386047Y-115860285D01*
X119192523Y-115811904D01*
X119095761Y-115763523D01*
X118999000Y-115666761D01*
X118950619Y-115521619D01*
X118950619Y-115424857D01*
X118999000Y-115279714D01*
X119047380Y-115231333D01*
X119289285Y-114360476D02*
X119966619Y-114360476D01*
X118902238Y-114602380D02*
X119627952Y-114844285D01*
X119627952Y-114215333D01*
X119869857Y-112945333D02*
X119918238Y-112993714D01*
X119966619Y-113138857D01*
X119966619Y-113235619D01*
X119918238Y-113380761D01*
X119821476Y-113477523D01*
X119724714Y-113525904D01*
X119531190Y-113574285D01*
X119386047Y-113574285D01*
X119192523Y-113525904D01*
X119095761Y-113477523D01*
X118999000Y-113380761D01*
X118950619Y-113235619D01*
X118950619Y-113138857D01*
X118999000Y-112993714D01*
X119047380Y-112945333D01*
X118950619Y-112606666D02*
X118950619Y-111977714D01*
X119337666Y-112316380D01*
X119337666Y-112171238D01*
X119386047Y-112074476D01*
X119434428Y-112026095D01*
X119531190Y-111977714D01*
X119773095Y-111977714D01*
X119869857Y-112026095D01*
X119918238Y-112074476D01*
X119966619Y-112171238D01*
X119966619Y-112461523D01*
X119918238Y-112558285D01*
X119869857Y-112606666D01*
D12*
X113120714Y-115805857D02*
X112757857Y-116059857D01*
X113120714Y-116241285D02*
X112358714Y-116241285D01*
X112358714Y-115951000D01*
X112395000Y-115878428D01*
X112431285Y-115842142D01*
X112503857Y-115805857D01*
X112612714Y-115805857D01*
X112685285Y-115842142D01*
X112721571Y-115878428D01*
X112757857Y-115951000D01*
X112757857Y-116241285D01*
X112431285Y-115515571D02*
X112395000Y-115479285D01*
X112358714Y-115406714D01*
X112358714Y-115225285D01*
X112395000Y-115152714D01*
X112431285Y-115116428D01*
X112503857Y-115080142D01*
X112576428Y-115080142D01*
X112685285Y-115116428D01*
X113120714Y-115551857D01*
X113120714Y-115080142D01*
X112358714Y-114608428D02*
X112358714Y-114535857D01*
X112395000Y-114463285D01*
X112431285Y-114427000D01*
X112503857Y-114390714D01*
X112649000Y-114354428D01*
X112830428Y-114354428D01*
X112975571Y-114390714D01*
X113048142Y-114427000D01*
X113084428Y-114463285D01*
X113120714Y-114535857D01*
X113120714Y-114608428D01*
X113084428Y-114681000D01*
X113048142Y-114717285D01*
X112975571Y-114753571D01*
X112830428Y-114789857D01*
X112649000Y-114789857D01*
X112503857Y-114753571D01*
X112431285Y-114717285D01*
X112395000Y-114681000D01*
X112358714Y-114608428D01*
X113247714Y-118345857D02*
X112884857Y-118599857D01*
X113247714Y-118781285D02*
X112485714Y-118781285D01*
X112485714Y-118491000D01*
X112522000Y-118418428D01*
X112558285Y-118382142D01*
X112630857Y-118345857D01*
X112739714Y-118345857D01*
X112812285Y-118382142D01*
X112848571Y-118418428D01*
X112884857Y-118491000D01*
X112884857Y-118781285D01*
X113247714Y-117620142D02*
X113247714Y-118055571D01*
X113247714Y-117837857D02*
X112485714Y-117837857D01*
X112594571Y-117910428D01*
X112667142Y-117983000D01*
X112703428Y-118055571D01*
X113247714Y-117257285D02*
X113247714Y-117112142D01*
X113211428Y-117039571D01*
X113175142Y-117003285D01*
X113066285Y-116930714D01*
X112921142Y-116894428D01*
X112630857Y-116894428D01*
X112558285Y-116930714D01*
X112522000Y-116967000D01*
X112485714Y-117039571D01*
X112485714Y-117184714D01*
X112522000Y-117257285D01*
X112558285Y-117293571D01*
X112630857Y-117329857D01*
X112812285Y-117329857D01*
X112884857Y-117293571D01*
X112921142Y-117257285D01*
X112957428Y-117184714D01*
X112957428Y-117039571D01*
X112921142Y-116967000D01*
X112884857Y-116930714D01*
X112812285Y-116894428D01*
X117729000Y-89117714D02*
X117475000Y-88754857D01*
X117293571Y-89117714D02*
X117293571Y-88355714D01*
X117583857Y-88355714D01*
X117656428Y-88392000D01*
X117692714Y-88428285D01*
X117729000Y-88500857D01*
X117729000Y-88609714D01*
X117692714Y-88682285D01*
X117656428Y-88718571D01*
X117583857Y-88754857D01*
X117293571Y-88754857D01*
X118382142Y-88609714D02*
X118382142Y-89117714D01*
X118200714Y-88319428D02*
X118019285Y-88863714D01*
X118491000Y-88863714D01*
D22*
X80043261Y-101754214D02*
X79740880Y-101965880D01*
X80043261Y-102117071D02*
X79408261Y-102117071D01*
X79408261Y-101875166D01*
X79438500Y-101814690D01*
X79468738Y-101784452D01*
X79529214Y-101754214D01*
X79619928Y-101754214D01*
X79680404Y-101784452D01*
X79710642Y-101814690D01*
X79740880Y-101875166D01*
X79740880Y-102117071D01*
X79408261Y-101179690D02*
X79408261Y-101482071D01*
X79710642Y-101512309D01*
X79680404Y-101482071D01*
X79650166Y-101421595D01*
X79650166Y-101270404D01*
X79680404Y-101209928D01*
X79710642Y-101179690D01*
X79771119Y-101149452D01*
X79922309Y-101149452D01*
X79982785Y-101179690D01*
X80013023Y-101209928D01*
X80043261Y-101270404D01*
X80043261Y-101421595D01*
X80013023Y-101482071D01*
X79982785Y-101512309D01*
X79619928Y-100605166D02*
X80043261Y-100605166D01*
X79378023Y-100756357D02*
X79831595Y-100907547D01*
X79831595Y-100514452D01*
X79347785Y-99601261D02*
X79136119Y-99298880D01*
X78984928Y-99601261D02*
X78984928Y-98966261D01*
X79226833Y-98966261D01*
X79287309Y-98996500D01*
X79317547Y-99026738D01*
X79347785Y-99087214D01*
X79347785Y-99177928D01*
X79317547Y-99238404D01*
X79287309Y-99268642D01*
X79226833Y-99298880D01*
X78984928Y-99298880D01*
X79892071Y-99177928D02*
X79892071Y-99601261D01*
X79740880Y-98936023D02*
X79589690Y-99389595D01*
X79982785Y-99389595D01*
X80496833Y-98966261D02*
X80375880Y-98966261D01*
X80315404Y-98996500D01*
X80285166Y-99026738D01*
X80224690Y-99117452D01*
X80194452Y-99238404D01*
X80194452Y-99480309D01*
X80224690Y-99540785D01*
X80254928Y-99571023D01*
X80315404Y-99601261D01*
X80436357Y-99601261D01*
X80496833Y-99571023D01*
X80527071Y-99540785D01*
X80557309Y-99480309D01*
X80557309Y-99329119D01*
X80527071Y-99268642D01*
X80496833Y-99238404D01*
X80436357Y-99208166D01*
X80315404Y-99208166D01*
X80254928Y-99238404D01*
X80224690Y-99268642D01*
X80194452Y-99329119D01*
X79347785Y-98458261D02*
X79136119Y-98155880D01*
X78984928Y-98458261D02*
X78984928Y-97823261D01*
X79226833Y-97823261D01*
X79287309Y-97853500D01*
X79317547Y-97883738D01*
X79347785Y-97944214D01*
X79347785Y-98034928D01*
X79317547Y-98095404D01*
X79287309Y-98125642D01*
X79226833Y-98155880D01*
X78984928Y-98155880D01*
X79892071Y-98034928D02*
X79892071Y-98458261D01*
X79740880Y-97793023D02*
X79589690Y-98246595D01*
X79982785Y-98246595D01*
X80527071Y-97823261D02*
X80224690Y-97823261D01*
X80194452Y-98125642D01*
X80224690Y-98095404D01*
X80285166Y-98065166D01*
X80436357Y-98065166D01*
X80496833Y-98095404D01*
X80527071Y-98125642D01*
X80557309Y-98186119D01*
X80557309Y-98337309D01*
X80527071Y-98397785D01*
X80496833Y-98428023D01*
X80436357Y-98458261D01*
X80285166Y-98458261D01*
X80224690Y-98428023D01*
X80194452Y-98397785D01*
X97188261Y-119407214D02*
X96885880Y-119618880D01*
X97188261Y-119770071D02*
X96553261Y-119770071D01*
X96553261Y-119528166D01*
X96583500Y-119467690D01*
X96613738Y-119437452D01*
X96674214Y-119407214D01*
X96764928Y-119407214D01*
X96825404Y-119437452D01*
X96855642Y-119467690D01*
X96885880Y-119528166D01*
X96885880Y-119770071D01*
X96764928Y-118862928D02*
X97188261Y-118862928D01*
X96523023Y-119014119D02*
X96976595Y-119165309D01*
X96976595Y-118772214D01*
X96613738Y-118560547D02*
X96583500Y-118530309D01*
X96553261Y-118469833D01*
X96553261Y-118318642D01*
X96583500Y-118258166D01*
X96613738Y-118227928D01*
X96674214Y-118197690D01*
X96734690Y-118197690D01*
X96825404Y-118227928D01*
X97188261Y-118590785D01*
X97188261Y-118197690D01*
X113383785Y-102649261D02*
X113172119Y-102346880D01*
X113020928Y-102649261D02*
X113020928Y-102014261D01*
X113262833Y-102014261D01*
X113323309Y-102044500D01*
X113353547Y-102074738D01*
X113383785Y-102135214D01*
X113383785Y-102225928D01*
X113353547Y-102286404D01*
X113323309Y-102316642D01*
X113262833Y-102346880D01*
X113020928Y-102346880D01*
X113595452Y-102014261D02*
X113988547Y-102014261D01*
X113776880Y-102256166D01*
X113867595Y-102256166D01*
X113928071Y-102286404D01*
X113958309Y-102316642D01*
X113988547Y-102377119D01*
X113988547Y-102528309D01*
X113958309Y-102588785D01*
X113928071Y-102619023D01*
X113867595Y-102649261D01*
X113686166Y-102649261D01*
X113625690Y-102619023D01*
X113595452Y-102588785D01*
X114381642Y-102014261D02*
X114442119Y-102014261D01*
X114502595Y-102044500D01*
X114532833Y-102074738D01*
X114563071Y-102135214D01*
X114593309Y-102256166D01*
X114593309Y-102407357D01*
X114563071Y-102528309D01*
X114532833Y-102588785D01*
X114502595Y-102619023D01*
X114442119Y-102649261D01*
X114381642Y-102649261D01*
X114321166Y-102619023D01*
X114290928Y-102588785D01*
X114260690Y-102528309D01*
X114230452Y-102407357D01*
X114230452Y-102256166D01*
X114260690Y-102135214D01*
X114290928Y-102074738D01*
X114321166Y-102044500D01*
X114381642Y-102014261D01*
D12*
X111723714Y-107242428D02*
X110961714Y-107242428D01*
X110961714Y-107061000D01*
X110998000Y-106952142D01*
X111070571Y-106879571D01*
X111143142Y-106843285D01*
X111288285Y-106807000D01*
X111397142Y-106807000D01*
X111542285Y-106843285D01*
X111614857Y-106879571D01*
X111687428Y-106952142D01*
X111723714Y-107061000D01*
X111723714Y-107242428D01*
X110961714Y-106153857D02*
X110961714Y-106299000D01*
X110998000Y-106371571D01*
X111034285Y-106407857D01*
X111143142Y-106480428D01*
X111288285Y-106516714D01*
X111578571Y-106516714D01*
X111651142Y-106480428D01*
X111687428Y-106444142D01*
X111723714Y-106371571D01*
X111723714Y-106226428D01*
X111687428Y-106153857D01*
X111651142Y-106117571D01*
X111578571Y-106081285D01*
X111397142Y-106081285D01*
X111324571Y-106117571D01*
X111288285Y-106153857D01*
X111252000Y-106226428D01*
X111252000Y-106371571D01*
X111288285Y-106444142D01*
X111324571Y-106480428D01*
X111397142Y-106516714D01*
X106698142Y-117747142D02*
X106661857Y-117783428D01*
X106553000Y-117819714D01*
X106480428Y-117819714D01*
X106371571Y-117783428D01*
X106299000Y-117710857D01*
X106262714Y-117638285D01*
X106226428Y-117493142D01*
X106226428Y-117384285D01*
X106262714Y-117239142D01*
X106299000Y-117166571D01*
X106371571Y-117094000D01*
X106480428Y-117057714D01*
X106553000Y-117057714D01*
X106661857Y-117094000D01*
X106698142Y-117130285D01*
X106988428Y-117130285D02*
X107024714Y-117094000D01*
X107097285Y-117057714D01*
X107278714Y-117057714D01*
X107351285Y-117094000D01*
X107387571Y-117130285D01*
X107423857Y-117202857D01*
X107423857Y-117275428D01*
X107387571Y-117384285D01*
X106952142Y-117819714D01*
X107423857Y-117819714D01*
X108077000Y-117311714D02*
X108077000Y-117819714D01*
X107895571Y-117021428D02*
X107714142Y-117565714D01*
X108185857Y-117565714D01*
D22*
X97127785Y-121566214D02*
X97158023Y-121596452D01*
X97188261Y-121687166D01*
X97188261Y-121747642D01*
X97158023Y-121838357D01*
X97097547Y-121898833D01*
X97037071Y-121929071D01*
X96916119Y-121959309D01*
X96825404Y-121959309D01*
X96704452Y-121929071D01*
X96643976Y-121898833D01*
X96583500Y-121838357D01*
X96553261Y-121747642D01*
X96553261Y-121687166D01*
X96583500Y-121596452D01*
X96613738Y-121566214D01*
X96613738Y-121324309D02*
X96583500Y-121294071D01*
X96553261Y-121233595D01*
X96553261Y-121082404D01*
X96583500Y-121021928D01*
X96613738Y-120991690D01*
X96674214Y-120961452D01*
X96734690Y-120961452D01*
X96825404Y-120991690D01*
X97188261Y-121354547D01*
X97188261Y-120961452D01*
X96553261Y-120749785D02*
X96553261Y-120356690D01*
X96795166Y-120568357D01*
X96795166Y-120477642D01*
X96825404Y-120417166D01*
X96855642Y-120386928D01*
X96916119Y-120356690D01*
X97067309Y-120356690D01*
X97127785Y-120386928D01*
X97158023Y-120417166D01*
X97188261Y-120477642D01*
X97188261Y-120659071D01*
X97158023Y-120719547D01*
X97127785Y-120749785D01*
D12*
X110635142Y-113048142D02*
X110598857Y-113084428D01*
X110490000Y-113120714D01*
X110417428Y-113120714D01*
X110308571Y-113084428D01*
X110236000Y-113011857D01*
X110199714Y-112939285D01*
X110163428Y-112794142D01*
X110163428Y-112685285D01*
X110199714Y-112540142D01*
X110236000Y-112467571D01*
X110308571Y-112395000D01*
X110417428Y-112358714D01*
X110490000Y-112358714D01*
X110598857Y-112395000D01*
X110635142Y-112431285D01*
X110925428Y-112431285D02*
X110961714Y-112395000D01*
X111034285Y-112358714D01*
X111215714Y-112358714D01*
X111288285Y-112395000D01*
X111324571Y-112431285D01*
X111360857Y-112503857D01*
X111360857Y-112576428D01*
X111324571Y-112685285D01*
X110889142Y-113120714D01*
X111360857Y-113120714D01*
X111651142Y-112431285D02*
X111687428Y-112395000D01*
X111760000Y-112358714D01*
X111941428Y-112358714D01*
X112014000Y-112395000D01*
X112050285Y-112431285D01*
X112086571Y-112503857D01*
X112086571Y-112576428D01*
X112050285Y-112685285D01*
X111614857Y-113120714D01*
X112086571Y-113120714D01*
D22*
X95984785Y-115669785D02*
X95954547Y-115700023D01*
X95863833Y-115730261D01*
X95803357Y-115730261D01*
X95712642Y-115700023D01*
X95652166Y-115639547D01*
X95621928Y-115579071D01*
X95591690Y-115458119D01*
X95591690Y-115367404D01*
X95621928Y-115246452D01*
X95652166Y-115185976D01*
X95712642Y-115125500D01*
X95803357Y-115095261D01*
X95863833Y-115095261D01*
X95954547Y-115125500D01*
X95984785Y-115155738D01*
X96226690Y-115155738D02*
X96256928Y-115125500D01*
X96317404Y-115095261D01*
X96468595Y-115095261D01*
X96529071Y-115125500D01*
X96559309Y-115155738D01*
X96589547Y-115216214D01*
X96589547Y-115276690D01*
X96559309Y-115367404D01*
X96196452Y-115730261D01*
X96589547Y-115730261D01*
X97194309Y-115730261D02*
X96831452Y-115730261D01*
X97012880Y-115730261D02*
X97012880Y-115095261D01*
X96952404Y-115185976D01*
X96891928Y-115246452D01*
X96831452Y-115276690D01*
D12*
X90569142Y-78086857D02*
X90605428Y-78123142D01*
X90641714Y-78232000D01*
X90641714Y-78304571D01*
X90605428Y-78413428D01*
X90532857Y-78486000D01*
X90460285Y-78522285D01*
X90315142Y-78558571D01*
X90206285Y-78558571D01*
X90061142Y-78522285D01*
X89988571Y-78486000D01*
X89916000Y-78413428D01*
X89879714Y-78304571D01*
X89879714Y-78232000D01*
X89916000Y-78123142D01*
X89952285Y-78086857D01*
X89952285Y-77796571D02*
X89916000Y-77760285D01*
X89879714Y-77687714D01*
X89879714Y-77506285D01*
X89916000Y-77433714D01*
X89952285Y-77397428D01*
X90024857Y-77361142D01*
X90097428Y-77361142D01*
X90206285Y-77397428D01*
X90641714Y-77832857D01*
X90641714Y-77361142D01*
X89879714Y-76889428D02*
X89879714Y-76816857D01*
X89916000Y-76744285D01*
X89952285Y-76708000D01*
X90024857Y-76671714D01*
X90170000Y-76635428D01*
X90351428Y-76635428D01*
X90496571Y-76671714D01*
X90569142Y-76708000D01*
X90605428Y-76744285D01*
X90641714Y-76816857D01*
X90641714Y-76889428D01*
X90605428Y-76962000D01*
X90569142Y-76998285D01*
X90496571Y-77034571D01*
X90351428Y-77070857D01*
X90170000Y-77070857D01*
X90024857Y-77034571D01*
X89952285Y-76998285D01*
X89916000Y-76962000D01*
X89879714Y-76889428D01*
X90569142Y-85706857D02*
X90605428Y-85743142D01*
X90641714Y-85852000D01*
X90641714Y-85924571D01*
X90605428Y-86033428D01*
X90532857Y-86106000D01*
X90460285Y-86142285D01*
X90315142Y-86178571D01*
X90206285Y-86178571D01*
X90061142Y-86142285D01*
X89988571Y-86106000D01*
X89916000Y-86033428D01*
X89879714Y-85924571D01*
X89879714Y-85852000D01*
X89916000Y-85743142D01*
X89952285Y-85706857D01*
X90641714Y-84981142D02*
X90641714Y-85416571D01*
X90641714Y-85198857D02*
X89879714Y-85198857D01*
X89988571Y-85271428D01*
X90061142Y-85344000D01*
X90097428Y-85416571D01*
X90641714Y-84618285D02*
X90641714Y-84473142D01*
X90605428Y-84400571D01*
X90569142Y-84364285D01*
X90460285Y-84291714D01*
X90315142Y-84255428D01*
X90024857Y-84255428D01*
X89952285Y-84291714D01*
X89916000Y-84328000D01*
X89879714Y-84400571D01*
X89879714Y-84545714D01*
X89916000Y-84618285D01*
X89952285Y-84654571D01*
X90024857Y-84690857D01*
X90206285Y-84690857D01*
X90278857Y-84654571D01*
X90315142Y-84618285D01*
X90351428Y-84545714D01*
X90351428Y-84400571D01*
X90315142Y-84328000D01*
X90278857Y-84291714D01*
X90206285Y-84255428D01*
X88283142Y-110961714D02*
X88029142Y-110598857D01*
X87847714Y-110961714D02*
X87847714Y-110199714D01*
X88138000Y-110199714D01*
X88210571Y-110236000D01*
X88246857Y-110272285D01*
X88283142Y-110344857D01*
X88283142Y-110453714D01*
X88246857Y-110526285D01*
X88210571Y-110562571D01*
X88138000Y-110598857D01*
X87847714Y-110598857D01*
X88936285Y-110453714D02*
X88936285Y-110961714D01*
X88754857Y-110163428D02*
X88573428Y-110707714D01*
X89045142Y-110707714D01*
X89262857Y-110199714D02*
X89734571Y-110199714D01*
X89480571Y-110490000D01*
X89589428Y-110490000D01*
X89662000Y-110526285D01*
X89698285Y-110562571D01*
X89734571Y-110635142D01*
X89734571Y-110816571D01*
X89698285Y-110889142D01*
X89662000Y-110925428D01*
X89589428Y-110961714D01*
X89371714Y-110961714D01*
X89299142Y-110925428D01*
X89262857Y-110889142D01*
D22*
X97188261Y-117248214D02*
X96885880Y-117459880D01*
X97188261Y-117611071D02*
X96553261Y-117611071D01*
X96553261Y-117369166D01*
X96583500Y-117308690D01*
X96613738Y-117278452D01*
X96674214Y-117248214D01*
X96764928Y-117248214D01*
X96825404Y-117278452D01*
X96855642Y-117308690D01*
X96885880Y-117369166D01*
X96885880Y-117611071D01*
X96764928Y-116703928D02*
X97188261Y-116703928D01*
X96523023Y-116855119D02*
X96976595Y-117006309D01*
X96976595Y-116613214D01*
X97188261Y-116038690D02*
X97188261Y-116401547D01*
X97188261Y-116220119D02*
X96553261Y-116220119D01*
X96643976Y-116280595D01*
X96704452Y-116341071D01*
X96734690Y-116401547D01*
D12*
X106698142Y-119343714D02*
X106444142Y-118980857D01*
X106262714Y-119343714D02*
X106262714Y-118581714D01*
X106553000Y-118581714D01*
X106625571Y-118618000D01*
X106661857Y-118654285D01*
X106698142Y-118726857D01*
X106698142Y-118835714D01*
X106661857Y-118908285D01*
X106625571Y-118944571D01*
X106553000Y-118980857D01*
X106262714Y-118980857D01*
X107351285Y-118835714D02*
X107351285Y-119343714D01*
X107169857Y-118545428D02*
X106988428Y-119089714D01*
X107460142Y-119089714D01*
X107895571Y-118581714D02*
X107968142Y-118581714D01*
X108040714Y-118618000D01*
X108077000Y-118654285D01*
X108113285Y-118726857D01*
X108149571Y-118872000D01*
X108149571Y-119053428D01*
X108113285Y-119198571D01*
X108077000Y-119271142D01*
X108040714Y-119307428D01*
X107968142Y-119343714D01*
X107895571Y-119343714D01*
X107823000Y-119307428D01*
X107786714Y-119271142D01*
X107750428Y-119198571D01*
X107714142Y-119053428D01*
X107714142Y-118872000D01*
X107750428Y-118726857D01*
X107786714Y-118654285D01*
X107823000Y-118618000D01*
X107895571Y-118581714D01*
D22*
X92428785Y-91981261D02*
X92217119Y-91678880D01*
X92065928Y-91981261D02*
X92065928Y-91346261D01*
X92307833Y-91346261D01*
X92368309Y-91376500D01*
X92398547Y-91406738D01*
X92428785Y-91467214D01*
X92428785Y-91557928D01*
X92398547Y-91618404D01*
X92368309Y-91648642D01*
X92307833Y-91678880D01*
X92065928Y-91678880D01*
X92640452Y-91346261D02*
X93033547Y-91346261D01*
X92821880Y-91588166D01*
X92912595Y-91588166D01*
X92973071Y-91618404D01*
X93003309Y-91648642D01*
X93033547Y-91709119D01*
X93033547Y-91860309D01*
X93003309Y-91920785D01*
X92973071Y-91951023D01*
X92912595Y-91981261D01*
X92731166Y-91981261D01*
X92670690Y-91951023D01*
X92640452Y-91920785D01*
X93335928Y-91981261D02*
X93456880Y-91981261D01*
X93517357Y-91951023D01*
X93547595Y-91920785D01*
X93608071Y-91830071D01*
X93638309Y-91709119D01*
X93638309Y-91467214D01*
X93608071Y-91406738D01*
X93577833Y-91376500D01*
X93517357Y-91346261D01*
X93396404Y-91346261D01*
X93335928Y-91376500D01*
X93305690Y-91406738D01*
X93275452Y-91467214D01*
X93275452Y-91618404D01*
X93305690Y-91678880D01*
X93335928Y-91709119D01*
X93396404Y-91739357D01*
X93517357Y-91739357D01*
X93577833Y-91709119D01*
X93608071Y-91678880D01*
X93638309Y-91618404D01*
D12*
X107460142Y-101690714D02*
X107206142Y-101327857D01*
X107024714Y-101690714D02*
X107024714Y-100928714D01*
X107315000Y-100928714D01*
X107387571Y-100965000D01*
X107423857Y-101001285D01*
X107460142Y-101073857D01*
X107460142Y-101182714D01*
X107423857Y-101255285D01*
X107387571Y-101291571D01*
X107315000Y-101327857D01*
X107024714Y-101327857D01*
X107714142Y-100928714D02*
X108185857Y-100928714D01*
X107931857Y-101219000D01*
X108040714Y-101219000D01*
X108113285Y-101255285D01*
X108149571Y-101291571D01*
X108185857Y-101364142D01*
X108185857Y-101545571D01*
X108149571Y-101618142D01*
X108113285Y-101654428D01*
X108040714Y-101690714D01*
X107823000Y-101690714D01*
X107750428Y-101654428D01*
X107714142Y-101618142D01*
X108621285Y-101255285D02*
X108548714Y-101219000D01*
X108512428Y-101182714D01*
X108476142Y-101110142D01*
X108476142Y-101073857D01*
X108512428Y-101001285D01*
X108548714Y-100965000D01*
X108621285Y-100928714D01*
X108766428Y-100928714D01*
X108839000Y-100965000D01*
X108875285Y-101001285D01*
X108911571Y-101073857D01*
X108911571Y-101110142D01*
X108875285Y-101182714D01*
X108839000Y-101219000D01*
X108766428Y-101255285D01*
X108621285Y-101255285D01*
X108548714Y-101291571D01*
X108512428Y-101327857D01*
X108476142Y-101400428D01*
X108476142Y-101545571D01*
X108512428Y-101618142D01*
X108548714Y-101654428D01*
X108621285Y-101690714D01*
X108766428Y-101690714D01*
X108839000Y-101654428D01*
X108875285Y-101618142D01*
X108911571Y-101545571D01*
X108911571Y-101400428D01*
X108875285Y-101327857D01*
X108839000Y-101291571D01*
X108766428Y-101255285D01*
X101237142Y-126392214D02*
X100983142Y-126029357D01*
X100801714Y-126392214D02*
X100801714Y-125630214D01*
X101092000Y-125630214D01*
X101164571Y-125666500D01*
X101200857Y-125702785D01*
X101237142Y-125775357D01*
X101237142Y-125884214D01*
X101200857Y-125956785D01*
X101164571Y-125993071D01*
X101092000Y-126029357D01*
X100801714Y-126029357D01*
X101491142Y-125630214D02*
X101962857Y-125630214D01*
X101708857Y-125920500D01*
X101817714Y-125920500D01*
X101890285Y-125956785D01*
X101926571Y-125993071D01*
X101962857Y-126065642D01*
X101962857Y-126247071D01*
X101926571Y-126319642D01*
X101890285Y-126355928D01*
X101817714Y-126392214D01*
X101600000Y-126392214D01*
X101527428Y-126355928D01*
X101491142Y-126319642D01*
X102652285Y-125630214D02*
X102289428Y-125630214D01*
X102253142Y-125993071D01*
X102289428Y-125956785D01*
X102362000Y-125920500D01*
X102543428Y-125920500D01*
X102616000Y-125956785D01*
X102652285Y-125993071D01*
X102688571Y-126065642D01*
X102688571Y-126247071D01*
X102652285Y-126319642D01*
X102616000Y-126355928D01*
X102543428Y-126392214D01*
X102362000Y-126392214D01*
X102289428Y-126355928D01*
X102253142Y-126319642D01*
D22*
X100363261Y-94515214D02*
X100060880Y-94726880D01*
X100363261Y-94878071D02*
X99728261Y-94878071D01*
X99728261Y-94636166D01*
X99758500Y-94575690D01*
X99788738Y-94545452D01*
X99849214Y-94515214D01*
X99939928Y-94515214D01*
X100000404Y-94545452D01*
X100030642Y-94575690D01*
X100060880Y-94636166D01*
X100060880Y-94878071D01*
X99728261Y-94303547D02*
X99728261Y-93910452D01*
X99970166Y-94122119D01*
X99970166Y-94031404D01*
X100000404Y-93970928D01*
X100030642Y-93940690D01*
X100091119Y-93910452D01*
X100242309Y-93910452D01*
X100302785Y-93940690D01*
X100333023Y-93970928D01*
X100363261Y-94031404D01*
X100363261Y-94212833D01*
X100333023Y-94273309D01*
X100302785Y-94303547D01*
X99728261Y-93698785D02*
X99728261Y-93305690D01*
X99970166Y-93517357D01*
X99970166Y-93426642D01*
X100000404Y-93366166D01*
X100030642Y-93335928D01*
X100091119Y-93305690D01*
X100242309Y-93305690D01*
X100302785Y-93335928D01*
X100333023Y-93366166D01*
X100363261Y-93426642D01*
X100363261Y-93608071D01*
X100333023Y-93668547D01*
X100302785Y-93698785D01*
X102649261Y-94515214D02*
X102346880Y-94726880D01*
X102649261Y-94878071D02*
X102014261Y-94878071D01*
X102014261Y-94636166D01*
X102044500Y-94575690D01*
X102074738Y-94545452D01*
X102135214Y-94515214D01*
X102225928Y-94515214D01*
X102286404Y-94545452D01*
X102316642Y-94575690D01*
X102346880Y-94636166D01*
X102346880Y-94878071D01*
X102014261Y-94303547D02*
X102014261Y-93910452D01*
X102256166Y-94122119D01*
X102256166Y-94031404D01*
X102286404Y-93970928D01*
X102316642Y-93940690D01*
X102377119Y-93910452D01*
X102528309Y-93910452D01*
X102588785Y-93940690D01*
X102619023Y-93970928D01*
X102649261Y-94031404D01*
X102649261Y-94212833D01*
X102619023Y-94273309D01*
X102588785Y-94303547D01*
X102074738Y-93668547D02*
X102044500Y-93638309D01*
X102014261Y-93577833D01*
X102014261Y-93426642D01*
X102044500Y-93366166D01*
X102074738Y-93335928D01*
X102135214Y-93305690D01*
X102195690Y-93305690D01*
X102286404Y-93335928D01*
X102649261Y-93698785D01*
X102649261Y-93305690D01*
X96553261Y-94515214D02*
X96250880Y-94726880D01*
X96553261Y-94878071D02*
X95918261Y-94878071D01*
X95918261Y-94636166D01*
X95948500Y-94575690D01*
X95978738Y-94545452D01*
X96039214Y-94515214D01*
X96129928Y-94515214D01*
X96190404Y-94545452D01*
X96220642Y-94575690D01*
X96250880Y-94636166D01*
X96250880Y-94878071D01*
X95918261Y-94303547D02*
X95918261Y-93910452D01*
X96160166Y-94122119D01*
X96160166Y-94031404D01*
X96190404Y-93970928D01*
X96220642Y-93940690D01*
X96281119Y-93910452D01*
X96432309Y-93910452D01*
X96492785Y-93940690D01*
X96523023Y-93970928D01*
X96553261Y-94031404D01*
X96553261Y-94212833D01*
X96523023Y-94273309D01*
X96492785Y-94303547D01*
X96553261Y-93305690D02*
X96553261Y-93668547D01*
X96553261Y-93487119D02*
X95918261Y-93487119D01*
X96008976Y-93547595D01*
X96069452Y-93608071D01*
X96099690Y-93668547D01*
D12*
X84981142Y-118200714D02*
X84727142Y-117837857D01*
X84545714Y-118200714D02*
X84545714Y-117438714D01*
X84836000Y-117438714D01*
X84908571Y-117475000D01*
X84944857Y-117511285D01*
X84981142Y-117583857D01*
X84981142Y-117692714D01*
X84944857Y-117765285D01*
X84908571Y-117801571D01*
X84836000Y-117837857D01*
X84545714Y-117837857D01*
X85271428Y-117511285D02*
X85307714Y-117475000D01*
X85380285Y-117438714D01*
X85561714Y-117438714D01*
X85634285Y-117475000D01*
X85670571Y-117511285D01*
X85706857Y-117583857D01*
X85706857Y-117656428D01*
X85670571Y-117765285D01*
X85235142Y-118200714D01*
X85706857Y-118200714D01*
X86069714Y-118200714D02*
X86214857Y-118200714D01*
X86287428Y-118164428D01*
X86323714Y-118128142D01*
X86396285Y-118019285D01*
X86432571Y-117874142D01*
X86432571Y-117583857D01*
X86396285Y-117511285D01*
X86360000Y-117475000D01*
X86287428Y-117438714D01*
X86142285Y-117438714D01*
X86069714Y-117475000D01*
X86033428Y-117511285D01*
X85997142Y-117583857D01*
X85997142Y-117765285D01*
X86033428Y-117837857D01*
X86069714Y-117874142D01*
X86142285Y-117910428D01*
X86287428Y-117910428D01*
X86360000Y-117874142D01*
X86396285Y-117837857D01*
X86432571Y-117765285D01*
D22*
X98839261Y-94515214D02*
X98536880Y-94726880D01*
X98839261Y-94878071D02*
X98204261Y-94878071D01*
X98204261Y-94636166D01*
X98234500Y-94575690D01*
X98264738Y-94545452D01*
X98325214Y-94515214D01*
X98415928Y-94515214D01*
X98476404Y-94545452D01*
X98506642Y-94575690D01*
X98536880Y-94636166D01*
X98536880Y-94878071D01*
X98264738Y-94273309D02*
X98234500Y-94243071D01*
X98204261Y-94182595D01*
X98204261Y-94031404D01*
X98234500Y-93970928D01*
X98264738Y-93940690D01*
X98325214Y-93910452D01*
X98385690Y-93910452D01*
X98476404Y-93940690D01*
X98839261Y-94303547D01*
X98839261Y-93910452D01*
X98476404Y-93547595D02*
X98446166Y-93608071D01*
X98415928Y-93638309D01*
X98355452Y-93668547D01*
X98325214Y-93668547D01*
X98264738Y-93638309D01*
X98234500Y-93608071D01*
X98204261Y-93547595D01*
X98204261Y-93426642D01*
X98234500Y-93366166D01*
X98264738Y-93335928D01*
X98325214Y-93305690D01*
X98355452Y-93305690D01*
X98415928Y-93335928D01*
X98446166Y-93366166D01*
X98476404Y-93426642D01*
X98476404Y-93547595D01*
X98506642Y-93608071D01*
X98536880Y-93638309D01*
X98597357Y-93668547D01*
X98718309Y-93668547D01*
X98778785Y-93638309D01*
X98809023Y-93608071D01*
X98839261Y-93547595D01*
X98839261Y-93426642D01*
X98809023Y-93366166D01*
X98778785Y-93335928D01*
X98718309Y-93305690D01*
X98597357Y-93305690D01*
X98536880Y-93335928D01*
X98506642Y-93366166D01*
X98476404Y-93426642D01*
D12*
X111977714Y-80118857D02*
X111614857Y-80372857D01*
X111977714Y-80554285D02*
X111215714Y-80554285D01*
X111215714Y-80264000D01*
X111252000Y-80191428D01*
X111288285Y-80155142D01*
X111360857Y-80118857D01*
X111469714Y-80118857D01*
X111542285Y-80155142D01*
X111578571Y-80191428D01*
X111614857Y-80264000D01*
X111614857Y-80554285D01*
X111288285Y-79828571D02*
X111252000Y-79792285D01*
X111215714Y-79719714D01*
X111215714Y-79538285D01*
X111252000Y-79465714D01*
X111288285Y-79429428D01*
X111360857Y-79393142D01*
X111433428Y-79393142D01*
X111542285Y-79429428D01*
X111977714Y-79864857D01*
X111977714Y-79393142D01*
X111215714Y-79139142D02*
X111215714Y-78631142D01*
X111977714Y-78957714D01*
X91276714Y-70339857D02*
X90913857Y-70593857D01*
X91276714Y-70775285D02*
X90514714Y-70775285D01*
X90514714Y-70485000D01*
X90551000Y-70412428D01*
X90587285Y-70376142D01*
X90659857Y-70339857D01*
X90768714Y-70339857D01*
X90841285Y-70376142D01*
X90877571Y-70412428D01*
X90913857Y-70485000D01*
X90913857Y-70775285D01*
X90587285Y-70049571D02*
X90551000Y-70013285D01*
X90514714Y-69940714D01*
X90514714Y-69759285D01*
X90551000Y-69686714D01*
X90587285Y-69650428D01*
X90659857Y-69614142D01*
X90732428Y-69614142D01*
X90841285Y-69650428D01*
X91276714Y-70085857D01*
X91276714Y-69614142D01*
X90514714Y-68961000D02*
X90514714Y-69106142D01*
X90551000Y-69178714D01*
X90587285Y-69215000D01*
X90696142Y-69287571D01*
X90841285Y-69323857D01*
X91131571Y-69323857D01*
X91204142Y-69287571D01*
X91240428Y-69251285D01*
X91276714Y-69178714D01*
X91276714Y-69033571D01*
X91240428Y-68961000D01*
X91204142Y-68924714D01*
X91131571Y-68888428D01*
X90950142Y-68888428D01*
X90877571Y-68924714D01*
X90841285Y-68961000D01*
X90805000Y-69033571D01*
X90805000Y-69178714D01*
X90841285Y-69251285D01*
X90877571Y-69287571D01*
X90950142Y-69323857D01*
D22*
X79027261Y-101754214D02*
X78724880Y-101965880D01*
X79027261Y-102117071D02*
X78392261Y-102117071D01*
X78392261Y-101875166D01*
X78422500Y-101814690D01*
X78452738Y-101784452D01*
X78513214Y-101754214D01*
X78603928Y-101754214D01*
X78664404Y-101784452D01*
X78694642Y-101814690D01*
X78724880Y-101875166D01*
X78724880Y-102117071D01*
X78452738Y-101512309D02*
X78422500Y-101482071D01*
X78392261Y-101421595D01*
X78392261Y-101270404D01*
X78422500Y-101209928D01*
X78452738Y-101179690D01*
X78513214Y-101149452D01*
X78573690Y-101149452D01*
X78664404Y-101179690D01*
X79027261Y-101542547D01*
X79027261Y-101149452D01*
X78603928Y-100605166D02*
X79027261Y-100605166D01*
X78362023Y-100756357D02*
X78815595Y-100907547D01*
X78815595Y-100514452D01*
X79220785Y-104681261D02*
X79009119Y-104378880D01*
X78857928Y-104681261D02*
X78857928Y-104046261D01*
X79099833Y-104046261D01*
X79160309Y-104076500D01*
X79190547Y-104106738D01*
X79220785Y-104167214D01*
X79220785Y-104257928D01*
X79190547Y-104318404D01*
X79160309Y-104348642D01*
X79099833Y-104378880D01*
X78857928Y-104378880D01*
X79825547Y-104681261D02*
X79462690Y-104681261D01*
X79644119Y-104681261D02*
X79644119Y-104046261D01*
X79583642Y-104136976D01*
X79523166Y-104197452D01*
X79462690Y-104227690D01*
X80369833Y-104046261D02*
X80248880Y-104046261D01*
X80188404Y-104076500D01*
X80158166Y-104106738D01*
X80097690Y-104197452D01*
X80067452Y-104318404D01*
X80067452Y-104560309D01*
X80097690Y-104620785D01*
X80127928Y-104651023D01*
X80188404Y-104681261D01*
X80309357Y-104681261D01*
X80369833Y-104651023D01*
X80400071Y-104620785D01*
X80430309Y-104560309D01*
X80430309Y-104409119D01*
X80400071Y-104348642D01*
X80369833Y-104318404D01*
X80309357Y-104288166D01*
X80188404Y-104288166D01*
X80127928Y-104318404D01*
X80097690Y-104348642D01*
X80067452Y-104409119D01*
X79347785Y-96045261D02*
X79136119Y-95742880D01*
X78984928Y-96045261D02*
X78984928Y-95410261D01*
X79226833Y-95410261D01*
X79287309Y-95440500D01*
X79317547Y-95470738D01*
X79347785Y-95531214D01*
X79347785Y-95621928D01*
X79317547Y-95682404D01*
X79287309Y-95712642D01*
X79226833Y-95742880D01*
X78984928Y-95742880D01*
X79952547Y-96045261D02*
X79589690Y-96045261D01*
X79771119Y-96045261D02*
X79771119Y-95410261D01*
X79710642Y-95500976D01*
X79650166Y-95561452D01*
X79589690Y-95591690D01*
X80496833Y-95621928D02*
X80496833Y-96045261D01*
X80345642Y-95380023D02*
X80194452Y-95833595D01*
X80587547Y-95833595D01*
D12*
X110744000Y-85180714D02*
X110744000Y-84418714D01*
X111034285Y-84418714D01*
X111106857Y-84455000D01*
X111143142Y-84491285D01*
X111179428Y-84563857D01*
X111179428Y-84672714D01*
X111143142Y-84745285D01*
X111106857Y-84781571D01*
X111034285Y-84817857D01*
X110744000Y-84817857D01*
X111433428Y-84418714D02*
X111614857Y-85180714D01*
X111760000Y-84636428D01*
X111905142Y-85180714D01*
X112086571Y-84418714D01*
X112812285Y-85180714D02*
X112558285Y-84817857D01*
X112376857Y-85180714D02*
X112376857Y-84418714D01*
X112667142Y-84418714D01*
X112739714Y-84455000D01*
X112776000Y-84491285D01*
X112812285Y-84563857D01*
X112812285Y-84672714D01*
X112776000Y-84745285D01*
X112739714Y-84781571D01*
X112667142Y-84817857D01*
X112376857Y-84817857D01*
X113501714Y-85180714D02*
X113138857Y-85180714D01*
X113138857Y-84418714D01*
X113755714Y-84781571D02*
X114009714Y-84781571D01*
X114118571Y-85180714D02*
X113755714Y-85180714D01*
X113755714Y-84418714D01*
X114118571Y-84418714D01*
X114445142Y-85180714D02*
X114445142Y-84418714D01*
X114626571Y-84418714D01*
X114735428Y-84455000D01*
X114808000Y-84527571D01*
X114844285Y-84600142D01*
X114880571Y-84745285D01*
X114880571Y-84854142D01*
X114844285Y-84999285D01*
X114808000Y-85071857D01*
X114735428Y-85144428D01*
X114626571Y-85180714D01*
X114445142Y-85180714D01*
X115606285Y-85180714D02*
X115170857Y-85180714D01*
X115388571Y-85180714D02*
X115388571Y-84418714D01*
X115316000Y-84527571D01*
X115243428Y-84600142D01*
X115170857Y-84636428D01*
X117547571Y-78994000D02*
X117475000Y-78957714D01*
X117366142Y-78957714D01*
X117257285Y-78994000D01*
X117184714Y-79066571D01*
X117148428Y-79139142D01*
X117112142Y-79284285D01*
X117112142Y-79393142D01*
X117148428Y-79538285D01*
X117184714Y-79610857D01*
X117257285Y-79683428D01*
X117366142Y-79719714D01*
X117438714Y-79719714D01*
X117547571Y-79683428D01*
X117583857Y-79647142D01*
X117583857Y-79393142D01*
X117438714Y-79393142D01*
X117910428Y-79719714D02*
X117910428Y-78957714D01*
X118345857Y-79719714D01*
X118345857Y-78957714D01*
X118708714Y-79719714D02*
X118708714Y-78957714D01*
X118890142Y-78957714D01*
X118999000Y-78994000D01*
X119071571Y-79066571D01*
X119107857Y-79139142D01*
X119144142Y-79284285D01*
X119144142Y-79393142D01*
X119107857Y-79538285D01*
X119071571Y-79610857D01*
X118999000Y-79683428D01*
X118890142Y-79719714D01*
X118708714Y-79719714D01*
X119869857Y-79719714D02*
X119434428Y-79719714D01*
X119652142Y-79719714D02*
X119652142Y-78957714D01*
X119579571Y-79066571D01*
X119507000Y-79139142D01*
X119434428Y-79175428D01*
X107460142Y-97681142D02*
X107423857Y-97717428D01*
X107315000Y-97753714D01*
X107242428Y-97753714D01*
X107133571Y-97717428D01*
X107061000Y-97644857D01*
X107024714Y-97572285D01*
X106988428Y-97427142D01*
X106988428Y-97318285D01*
X107024714Y-97173142D01*
X107061000Y-97100571D01*
X107133571Y-97028000D01*
X107242428Y-96991714D01*
X107315000Y-96991714D01*
X107423857Y-97028000D01*
X107460142Y-97064285D01*
X108185857Y-97753714D02*
X107750428Y-97753714D01*
X107968142Y-97753714D02*
X107968142Y-96991714D01*
X107895571Y-97100571D01*
X107823000Y-97173142D01*
X107750428Y-97209428D01*
X108621285Y-97318285D02*
X108548714Y-97282000D01*
X108512428Y-97245714D01*
X108476142Y-97173142D01*
X108476142Y-97136857D01*
X108512428Y-97064285D01*
X108548714Y-97028000D01*
X108621285Y-96991714D01*
X108766428Y-96991714D01*
X108839000Y-97028000D01*
X108875285Y-97064285D01*
X108911571Y-97136857D01*
X108911571Y-97173142D01*
X108875285Y-97245714D01*
X108839000Y-97282000D01*
X108766428Y-97318285D01*
X108621285Y-97318285D01*
X108548714Y-97354571D01*
X108512428Y-97390857D01*
X108476142Y-97463428D01*
X108476142Y-97608571D01*
X108512428Y-97681142D01*
X108548714Y-97717428D01*
X108621285Y-97753714D01*
X108766428Y-97753714D01*
X108839000Y-97717428D01*
X108875285Y-97681142D01*
X108911571Y-97608571D01*
X108911571Y-97463428D01*
X108875285Y-97390857D01*
X108839000Y-97354571D01*
X108766428Y-97318285D01*
D22*
X95603785Y-98524785D02*
X95573547Y-98555023D01*
X95482833Y-98585261D01*
X95422357Y-98585261D01*
X95331642Y-98555023D01*
X95271166Y-98494547D01*
X95240928Y-98434071D01*
X95210690Y-98313119D01*
X95210690Y-98222404D01*
X95240928Y-98101452D01*
X95271166Y-98040976D01*
X95331642Y-97980500D01*
X95422357Y-97950261D01*
X95482833Y-97950261D01*
X95573547Y-97980500D01*
X95603785Y-98010738D01*
X96208547Y-98585261D02*
X95845690Y-98585261D01*
X96027119Y-98585261D02*
X96027119Y-97950261D01*
X95966642Y-98040976D01*
X95906166Y-98101452D01*
X95845690Y-98131690D01*
X96420214Y-97950261D02*
X96843547Y-97950261D01*
X96571404Y-98585261D01*
X95603785Y-100048785D02*
X95573547Y-100079023D01*
X95482833Y-100109261D01*
X95422357Y-100109261D01*
X95331642Y-100079023D01*
X95271166Y-100018547D01*
X95240928Y-99958071D01*
X95210690Y-99837119D01*
X95210690Y-99746404D01*
X95240928Y-99625452D01*
X95271166Y-99564976D01*
X95331642Y-99504500D01*
X95422357Y-99474261D01*
X95482833Y-99474261D01*
X95573547Y-99504500D01*
X95603785Y-99534738D01*
X96208547Y-100109261D02*
X95845690Y-100109261D01*
X96027119Y-100109261D02*
X96027119Y-99474261D01*
X95966642Y-99564976D01*
X95906166Y-99625452D01*
X95845690Y-99655690D01*
X96752833Y-99474261D02*
X96631880Y-99474261D01*
X96571404Y-99504500D01*
X96541166Y-99534738D01*
X96480690Y-99625452D01*
X96450452Y-99746404D01*
X96450452Y-99988309D01*
X96480690Y-100048785D01*
X96510928Y-100079023D01*
X96571404Y-100109261D01*
X96692357Y-100109261D01*
X96752833Y-100079023D01*
X96783071Y-100048785D01*
X96813309Y-99988309D01*
X96813309Y-99837119D01*
X96783071Y-99776642D01*
X96752833Y-99746404D01*
X96692357Y-99716166D01*
X96571404Y-99716166D01*
X96510928Y-99746404D01*
X96480690Y-99776642D01*
X96450452Y-99837119D01*
X93190785Y-96492785D02*
X93160547Y-96523023D01*
X93069833Y-96553261D01*
X93009357Y-96553261D01*
X92918642Y-96523023D01*
X92858166Y-96462547D01*
X92827928Y-96402071D01*
X92797690Y-96281119D01*
X92797690Y-96190404D01*
X92827928Y-96069452D01*
X92858166Y-96008976D01*
X92918642Y-95948500D01*
X93009357Y-95918261D01*
X93069833Y-95918261D01*
X93160547Y-95948500D01*
X93190785Y-95978738D01*
X93795547Y-96553261D02*
X93432690Y-96553261D01*
X93614119Y-96553261D02*
X93614119Y-95918261D01*
X93553642Y-96008976D01*
X93493166Y-96069452D01*
X93432690Y-96099690D01*
X94370071Y-95918261D02*
X94067690Y-95918261D01*
X94037452Y-96220642D01*
X94067690Y-96190404D01*
X94128166Y-96160166D01*
X94279357Y-96160166D01*
X94339833Y-96190404D01*
X94370071Y-96220642D01*
X94400309Y-96281119D01*
X94400309Y-96432309D01*
X94370071Y-96492785D01*
X94339833Y-96523023D01*
X94279357Y-96553261D01*
X94128166Y-96553261D01*
X94067690Y-96523023D01*
X94037452Y-96492785D01*
D12*
X104158142Y-96030142D02*
X104121857Y-96066428D01*
X104013000Y-96102714D01*
X103940428Y-96102714D01*
X103831571Y-96066428D01*
X103759000Y-95993857D01*
X103722714Y-95921285D01*
X103686428Y-95776142D01*
X103686428Y-95667285D01*
X103722714Y-95522142D01*
X103759000Y-95449571D01*
X103831571Y-95377000D01*
X103940428Y-95340714D01*
X104013000Y-95340714D01*
X104121857Y-95377000D01*
X104158142Y-95413285D01*
X104883857Y-96102714D02*
X104448428Y-96102714D01*
X104666142Y-96102714D02*
X104666142Y-95340714D01*
X104593571Y-95449571D01*
X104521000Y-95522142D01*
X104448428Y-95558428D01*
X105537000Y-95594714D02*
X105537000Y-96102714D01*
X105355571Y-95304428D02*
X105174142Y-95848714D01*
X105645857Y-95848714D01*
X97427142Y-106698142D02*
X97390857Y-106734428D01*
X97282000Y-106770714D01*
X97209428Y-106770714D01*
X97100571Y-106734428D01*
X97028000Y-106661857D01*
X96991714Y-106589285D01*
X96955428Y-106444142D01*
X96955428Y-106335285D01*
X96991714Y-106190142D01*
X97028000Y-106117571D01*
X97100571Y-106045000D01*
X97209428Y-106008714D01*
X97282000Y-106008714D01*
X97390857Y-106045000D01*
X97427142Y-106081285D01*
X98152857Y-106770714D02*
X97717428Y-106770714D01*
X97935142Y-106770714D02*
X97935142Y-106008714D01*
X97862571Y-106117571D01*
X97790000Y-106190142D01*
X97717428Y-106226428D01*
X98406857Y-106008714D02*
X98878571Y-106008714D01*
X98624571Y-106299000D01*
X98733428Y-106299000D01*
X98806000Y-106335285D01*
X98842285Y-106371571D01*
X98878571Y-106444142D01*
X98878571Y-106625571D01*
X98842285Y-106698142D01*
X98806000Y-106734428D01*
X98733428Y-106770714D01*
X98515714Y-106770714D01*
X98443142Y-106734428D01*
X98406857Y-106698142D01*
X111397142Y-104375857D02*
X111433428Y-104412142D01*
X111469714Y-104521000D01*
X111469714Y-104593571D01*
X111433428Y-104702428D01*
X111360857Y-104775000D01*
X111288285Y-104811285D01*
X111143142Y-104847571D01*
X111034285Y-104847571D01*
X110889142Y-104811285D01*
X110816571Y-104775000D01*
X110744000Y-104702428D01*
X110707714Y-104593571D01*
X110707714Y-104521000D01*
X110744000Y-104412142D01*
X110780285Y-104375857D01*
X111469714Y-103650142D02*
X111469714Y-104085571D01*
X111469714Y-103867857D02*
X110707714Y-103867857D01*
X110816571Y-103940428D01*
X110889142Y-104013000D01*
X110925428Y-104085571D01*
X110780285Y-103359857D02*
X110744000Y-103323571D01*
X110707714Y-103251000D01*
X110707714Y-103069571D01*
X110744000Y-102997000D01*
X110780285Y-102960714D01*
X110852857Y-102924428D01*
X110925428Y-102924428D01*
X111034285Y-102960714D01*
X111469714Y-103396142D01*
X111469714Y-102924428D01*
X110508142Y-92564857D02*
X110544428Y-92601142D01*
X110580714Y-92710000D01*
X110580714Y-92782571D01*
X110544428Y-92891428D01*
X110471857Y-92964000D01*
X110399285Y-93000285D01*
X110254142Y-93036571D01*
X110145285Y-93036571D01*
X110000142Y-93000285D01*
X109927571Y-92964000D01*
X109855000Y-92891428D01*
X109818714Y-92782571D01*
X109818714Y-92710000D01*
X109855000Y-92601142D01*
X109891285Y-92564857D01*
X110580714Y-91839142D02*
X110580714Y-92274571D01*
X110580714Y-92056857D02*
X109818714Y-92056857D01*
X109927571Y-92129428D01*
X110000142Y-92202000D01*
X110036428Y-92274571D01*
X110580714Y-91113428D02*
X110580714Y-91548857D01*
X110580714Y-91331142D02*
X109818714Y-91331142D01*
X109927571Y-91403714D01*
X110000142Y-91476285D01*
X110036428Y-91548857D01*
X88537142Y-113175142D02*
X88500857Y-113211428D01*
X88392000Y-113247714D01*
X88319428Y-113247714D01*
X88210571Y-113211428D01*
X88138000Y-113138857D01*
X88101714Y-113066285D01*
X88065428Y-112921142D01*
X88065428Y-112812285D01*
X88101714Y-112667142D01*
X88138000Y-112594571D01*
X88210571Y-112522000D01*
X88319428Y-112485714D01*
X88392000Y-112485714D01*
X88500857Y-112522000D01*
X88537142Y-112558285D01*
X89262857Y-113247714D02*
X88827428Y-113247714D01*
X89045142Y-113247714D02*
X89045142Y-112485714D01*
X88972571Y-112594571D01*
X88900000Y-112667142D01*
X88827428Y-112703428D01*
X89734571Y-112485714D02*
X89807142Y-112485714D01*
X89879714Y-112522000D01*
X89916000Y-112558285D01*
X89952285Y-112630857D01*
X89988571Y-112776000D01*
X89988571Y-112957428D01*
X89952285Y-113102571D01*
X89916000Y-113175142D01*
X89879714Y-113211428D01*
X89807142Y-113247714D01*
X89734571Y-113247714D01*
X89662000Y-113211428D01*
X89625714Y-113175142D01*
X89589428Y-113102571D01*
X89553142Y-112957428D01*
X89553142Y-112776000D01*
X89589428Y-112630857D01*
X89625714Y-112558285D01*
X89662000Y-112522000D01*
X89734571Y-112485714D01*
X103759000Y-106698142D02*
X103722714Y-106734428D01*
X103613857Y-106770714D01*
X103541285Y-106770714D01*
X103432428Y-106734428D01*
X103359857Y-106661857D01*
X103323571Y-106589285D01*
X103287285Y-106444142D01*
X103287285Y-106335285D01*
X103323571Y-106190142D01*
X103359857Y-106117571D01*
X103432428Y-106045000D01*
X103541285Y-106008714D01*
X103613857Y-106008714D01*
X103722714Y-106045000D01*
X103759000Y-106081285D01*
X104121857Y-106770714D02*
X104267000Y-106770714D01*
X104339571Y-106734428D01*
X104375857Y-106698142D01*
X104448428Y-106589285D01*
X104484714Y-106444142D01*
X104484714Y-106153857D01*
X104448428Y-106081285D01*
X104412142Y-106045000D01*
X104339571Y-106008714D01*
X104194428Y-106008714D01*
X104121857Y-106045000D01*
X104085571Y-106081285D01*
X104049285Y-106153857D01*
X104049285Y-106335285D01*
X104085571Y-106407857D01*
X104121857Y-106444142D01*
X104194428Y-106480428D01*
X104339571Y-106480428D01*
X104412142Y-106444142D01*
X104448428Y-106407857D01*
X104484714Y-106335285D01*
X105664000Y-106698142D02*
X105627714Y-106734428D01*
X105518857Y-106770714D01*
X105446285Y-106770714D01*
X105337428Y-106734428D01*
X105264857Y-106661857D01*
X105228571Y-106589285D01*
X105192285Y-106444142D01*
X105192285Y-106335285D01*
X105228571Y-106190142D01*
X105264857Y-106117571D01*
X105337428Y-106045000D01*
X105446285Y-106008714D01*
X105518857Y-106008714D01*
X105627714Y-106045000D01*
X105664000Y-106081285D01*
X106099428Y-106335285D02*
X106026857Y-106299000D01*
X105990571Y-106262714D01*
X105954285Y-106190142D01*
X105954285Y-106153857D01*
X105990571Y-106081285D01*
X106026857Y-106045000D01*
X106099428Y-106008714D01*
X106244571Y-106008714D01*
X106317142Y-106045000D01*
X106353428Y-106081285D01*
X106389714Y-106153857D01*
X106389714Y-106190142D01*
X106353428Y-106262714D01*
X106317142Y-106299000D01*
X106244571Y-106335285D01*
X106099428Y-106335285D01*
X106026857Y-106371571D01*
X105990571Y-106407857D01*
X105954285Y-106480428D01*
X105954285Y-106625571D01*
X105990571Y-106698142D01*
X106026857Y-106734428D01*
X106099428Y-106770714D01*
X106244571Y-106770714D01*
X106317142Y-106734428D01*
X106353428Y-106698142D01*
X106389714Y-106625571D01*
X106389714Y-106480428D01*
X106353428Y-106407857D01*
X106317142Y-106371571D01*
X106244571Y-106335285D01*
X112159142Y-120523000D02*
X112195428Y-120559285D01*
X112231714Y-120668142D01*
X112231714Y-120740714D01*
X112195428Y-120849571D01*
X112122857Y-120922142D01*
X112050285Y-120958428D01*
X111905142Y-120994714D01*
X111796285Y-120994714D01*
X111651142Y-120958428D01*
X111578571Y-120922142D01*
X111506000Y-120849571D01*
X111469714Y-120740714D01*
X111469714Y-120668142D01*
X111506000Y-120559285D01*
X111542285Y-120523000D01*
X112231714Y-119797285D02*
X112231714Y-120232714D01*
X112231714Y-120015000D02*
X111469714Y-120015000D01*
X111578571Y-120087571D01*
X111651142Y-120160142D01*
X111687428Y-120232714D01*
D11*
X95110904Y-95709619D02*
X95110904Y-96532095D01*
X95159285Y-96628857D01*
X95207666Y-96677238D01*
X95304428Y-96725619D01*
X95497952Y-96725619D01*
X95594714Y-96677238D01*
X95643095Y-96628857D01*
X95691476Y-96532095D01*
X95691476Y-95709619D01*
X96610714Y-96048285D02*
X96610714Y-96725619D01*
X96368809Y-95661238D02*
X96126904Y-96386952D01*
X96755857Y-96386952D01*
X98095404Y-124157619D02*
X98095404Y-124980095D01*
X98143785Y-125076857D01*
X98192166Y-125125238D01*
X98288928Y-125173619D01*
X98482452Y-125173619D01*
X98579214Y-125125238D01*
X98627595Y-125076857D01*
X98675976Y-124980095D01*
X98675976Y-124157619D01*
X99643595Y-124157619D02*
X99159785Y-124157619D01*
X99111404Y-124641428D01*
X99159785Y-124593047D01*
X99256547Y-124544666D01*
X99498452Y-124544666D01*
X99595214Y-124593047D01*
X99643595Y-124641428D01*
X99691976Y-124738190D01*
X99691976Y-124980095D01*
X99643595Y-125076857D01*
X99595214Y-125125238D01*
X99498452Y-125173619D01*
X99256547Y-125173619D01*
X99159785Y-125125238D01*
X99111404Y-125076857D01*
X105679119Y-124342071D02*
X105630738Y-124438833D01*
X105582357Y-124487214D01*
X105485595Y-124535595D01*
X105195309Y-124535595D01*
X105098547Y-124487214D01*
X105050166Y-124438833D01*
X105001785Y-124342071D01*
X105001785Y-124196928D01*
X105050166Y-124100166D01*
X105098547Y-124051785D01*
X105195309Y-124003404D01*
X105485595Y-124003404D01*
X105582357Y-124051785D01*
X105630738Y-124100166D01*
X105679119Y-124196928D01*
X105679119Y-124342071D01*
D12*
X88773000Y-115533714D02*
X88410142Y-115533714D01*
X88410142Y-114771714D01*
X89353571Y-115025714D02*
X89353571Y-115533714D01*
X89172142Y-114735428D02*
X88990714Y-115279714D01*
X89462428Y-115279714D01*
X89081428Y-118908285D02*
X89008857Y-118872000D01*
X88936285Y-118799428D01*
X88827428Y-118690571D01*
X88754857Y-118654285D01*
X88682285Y-118654285D01*
X88718571Y-118835714D02*
X88646000Y-118799428D01*
X88573428Y-118726857D01*
X88537142Y-118581714D01*
X88537142Y-118327714D01*
X88573428Y-118182571D01*
X88646000Y-118110000D01*
X88718571Y-118073714D01*
X88863714Y-118073714D01*
X88936285Y-118110000D01*
X89008857Y-118182571D01*
X89045142Y-118327714D01*
X89045142Y-118581714D01*
X89008857Y-118726857D01*
X88936285Y-118799428D01*
X88863714Y-118835714D01*
X88718571Y-118835714D01*
X89734571Y-118073714D02*
X89371714Y-118073714D01*
X89335428Y-118436571D01*
X89371714Y-118400285D01*
X89444285Y-118364000D01*
X89625714Y-118364000D01*
X89698285Y-118400285D01*
X89734571Y-118436571D01*
X89770857Y-118509142D01*
X89770857Y-118690571D01*
X89734571Y-118763142D01*
X89698285Y-118799428D01*
X89625714Y-118835714D01*
X89444285Y-118835714D01*
X89371714Y-118799428D01*
X89335428Y-118763142D01*
D11*
X91470238Y-114348380D02*
X91373476Y-114300000D01*
X91276714Y-114203238D01*
X91131571Y-114058095D01*
X91034809Y-114009714D01*
X90938047Y-114009714D01*
X90986428Y-114251619D02*
X90889666Y-114203238D01*
X90792904Y-114106476D01*
X90744523Y-113912952D01*
X90744523Y-113574285D01*
X90792904Y-113380761D01*
X90889666Y-113284000D01*
X90986428Y-113235619D01*
X91179952Y-113235619D01*
X91276714Y-113284000D01*
X91373476Y-113380761D01*
X91421857Y-113574285D01*
X91421857Y-113912952D01*
X91373476Y-114106476D01*
X91276714Y-114203238D01*
X91179952Y-114251619D01*
X90986428Y-114251619D01*
X92292714Y-113574285D02*
X92292714Y-114251619D01*
X92050809Y-113187238D02*
X91808904Y-113912952D01*
X92437857Y-113912952D01*
X117750166Y-122633619D02*
X117266357Y-122633619D01*
X117266357Y-121617619D01*
X118040452Y-121714380D02*
X118088833Y-121666000D01*
X118185595Y-121617619D01*
X118427500Y-121617619D01*
X118524261Y-121666000D01*
X118572642Y-121714380D01*
X118621023Y-121811142D01*
X118621023Y-121907904D01*
X118572642Y-122053047D01*
X117992071Y-122633619D01*
X118621023Y-122633619D01*
X119077619Y-120281095D02*
X119900095Y-120281095D01*
X119996857Y-120232714D01*
X120045238Y-120184333D01*
X120093619Y-120087571D01*
X120093619Y-119894047D01*
X120045238Y-119797285D01*
X119996857Y-119748904D01*
X119900095Y-119700523D01*
X119077619Y-119700523D01*
X119174380Y-119265095D02*
X119126000Y-119216714D01*
X119077619Y-119119952D01*
X119077619Y-118878047D01*
X119126000Y-118781285D01*
X119174380Y-118732904D01*
X119271142Y-118684523D01*
X119367904Y-118684523D01*
X119513047Y-118732904D01*
X120093619Y-119313476D01*
X120093619Y-118684523D01*
D12*
X119579571Y-103886000D02*
X119579571Y-104140000D01*
X119978714Y-104140000D02*
X119216714Y-104140000D01*
X119216714Y-103777142D01*
X119579571Y-103486857D02*
X119579571Y-103232857D01*
X119978714Y-103124000D02*
X119978714Y-103486857D01*
X119216714Y-103486857D01*
X119216714Y-103124000D01*
X119216714Y-102906285D02*
X119216714Y-102470857D01*
X119978714Y-102688571D02*
X119216714Y-102688571D01*
X119289285Y-102253142D02*
X119253000Y-102216857D01*
X119216714Y-102144285D01*
X119216714Y-101962857D01*
X119253000Y-101890285D01*
X119289285Y-101854000D01*
X119361857Y-101817714D01*
X119434428Y-101817714D01*
X119543285Y-101854000D01*
X119978714Y-102289428D01*
X119978714Y-101817714D01*
X107569000Y-106770714D02*
X107206142Y-106770714D01*
X107206142Y-106008714D01*
X107750428Y-106008714D02*
X108222142Y-106008714D01*
X107968142Y-106299000D01*
X108077000Y-106299000D01*
X108149571Y-106335285D01*
X108185857Y-106371571D01*
X108222142Y-106444142D01*
X108222142Y-106625571D01*
X108185857Y-106698142D01*
X108149571Y-106734428D01*
X108077000Y-106770714D01*
X107859285Y-106770714D01*
X107786714Y-106734428D01*
X107750428Y-106698142D01*
X100402571Y-106770714D02*
X100148571Y-106407857D01*
X99967142Y-106770714D02*
X99967142Y-106008714D01*
X100257428Y-106008714D01*
X100330000Y-106045000D01*
X100366285Y-106081285D01*
X100402571Y-106153857D01*
X100402571Y-106262714D01*
X100366285Y-106335285D01*
X100330000Y-106371571D01*
X100257428Y-106407857D01*
X99967142Y-106407857D01*
X100729142Y-106770714D02*
X100729142Y-106008714D01*
X100983142Y-106553000D01*
X101237142Y-106008714D01*
X101237142Y-106770714D01*
X101527428Y-106008714D02*
X101999142Y-106008714D01*
X101745142Y-106299000D01*
X101854000Y-106299000D01*
X101926571Y-106335285D01*
X101962857Y-106371571D01*
X101999142Y-106444142D01*
X101999142Y-106625571D01*
X101962857Y-106698142D01*
X101926571Y-106734428D01*
X101854000Y-106770714D01*
X101636285Y-106770714D01*
X101563714Y-106734428D01*
X101527428Y-106698142D01*
X94052571Y-106770714D02*
X93798571Y-106407857D01*
X93617142Y-106770714D02*
X93617142Y-106008714D01*
X93907428Y-106008714D01*
X93980000Y-106045000D01*
X94016285Y-106081285D01*
X94052571Y-106153857D01*
X94052571Y-106262714D01*
X94016285Y-106335285D01*
X93980000Y-106371571D01*
X93907428Y-106407857D01*
X93617142Y-106407857D01*
X94379142Y-106770714D02*
X94379142Y-106008714D01*
X94633142Y-106553000D01*
X94887142Y-106008714D01*
X94887142Y-106770714D01*
X95213714Y-106081285D02*
X95250000Y-106045000D01*
X95322571Y-106008714D01*
X95504000Y-106008714D01*
X95576571Y-106045000D01*
X95612857Y-106081285D01*
X95649142Y-106153857D01*
X95649142Y-106226428D01*
X95612857Y-106335285D01*
X95177428Y-106770714D01*
X95649142Y-106770714D01*
D11*
X107980238Y-116380380D02*
X107883476Y-116332000D01*
X107786714Y-116235238D01*
X107641571Y-116090095D01*
X107544809Y-116041714D01*
X107448047Y-116041714D01*
X107496428Y-116283619D02*
X107399666Y-116235238D01*
X107302904Y-116138476D01*
X107254523Y-115944952D01*
X107254523Y-115606285D01*
X107302904Y-115412761D01*
X107399666Y-115316000D01*
X107496428Y-115267619D01*
X107689952Y-115267619D01*
X107786714Y-115316000D01*
X107883476Y-115412761D01*
X107931857Y-115606285D01*
X107931857Y-115944952D01*
X107883476Y-116138476D01*
X107786714Y-116235238D01*
X107689952Y-116283619D01*
X107496428Y-116283619D01*
X108270523Y-115267619D02*
X108899476Y-115267619D01*
X108560809Y-115654666D01*
X108705952Y-115654666D01*
X108802714Y-115703047D01*
X108851095Y-115751428D01*
X108899476Y-115848190D01*
X108899476Y-116090095D01*
X108851095Y-116186857D01*
X108802714Y-116235238D01*
X108705952Y-116283619D01*
X108415666Y-116283619D01*
X108318904Y-116235238D01*
X108270523Y-116186857D01*
X89649904Y-92280619D02*
X89649904Y-93103095D01*
X89698285Y-93199857D01*
X89746666Y-93248238D01*
X89843428Y-93296619D01*
X90036952Y-93296619D01*
X90133714Y-93248238D01*
X90182095Y-93199857D01*
X90230476Y-93103095D01*
X90230476Y-92280619D01*
X90617523Y-92280619D02*
X91246476Y-92280619D01*
X90907809Y-92667666D01*
X91052952Y-92667666D01*
X91149714Y-92716047D01*
X91198095Y-92764428D01*
X91246476Y-92861190D01*
X91246476Y-93103095D01*
X91198095Y-93199857D01*
X91149714Y-93248238D01*
X91052952Y-93296619D01*
X90762666Y-93296619D01*
X90665904Y-93248238D01*
X90617523Y-93199857D01*
X85265380Y-90592095D02*
X85217000Y-90543714D01*
X85168619Y-90446952D01*
X85168619Y-90205047D01*
X85217000Y-90108285D01*
X85265380Y-90059904D01*
X85362142Y-90011523D01*
X85458904Y-90011523D01*
X85604047Y-90059904D01*
X86184619Y-90640476D01*
X86184619Y-90011523D01*
X85507285Y-89140666D02*
X86184619Y-89140666D01*
X85120238Y-89382571D02*
X85845952Y-89624476D01*
X85845952Y-88995523D01*
X74754619Y-90011523D02*
X74754619Y-90592095D01*
X74754619Y-90301809D02*
X73738619Y-90301809D01*
X73883761Y-90398571D01*
X73980523Y-90495333D01*
X74028904Y-90592095D01*
X73738619Y-89092285D02*
X73738619Y-89576095D01*
X74222428Y-89624476D01*
X74174047Y-89576095D01*
X74125666Y-89479333D01*
X74125666Y-89237428D01*
X74174047Y-89140666D01*
X74222428Y-89092285D01*
X74319190Y-89043904D01*
X74561095Y-89043904D01*
X74657857Y-89092285D01*
X74706238Y-89140666D01*
X74754619Y-89237428D01*
X74754619Y-89479333D01*
X74706238Y-89576095D01*
X74657857Y-89624476D01*
X85156523Y-74754619D02*
X85785476Y-74754619D01*
X85446809Y-75141666D01*
X85591952Y-75141666D01*
X85688714Y-75190047D01*
X85737095Y-75238428D01*
X85785476Y-75335190D01*
X85785476Y-75577095D01*
X85737095Y-75673857D01*
X85688714Y-75722238D01*
X85591952Y-75770619D01*
X85301666Y-75770619D01*
X85204904Y-75722238D01*
X85156523Y-75673857D01*
X86366047Y-75190047D02*
X86269285Y-75141666D01*
X86220904Y-75093285D01*
X86172523Y-74996523D01*
X86172523Y-74948142D01*
X86220904Y-74851380D01*
X86269285Y-74803000D01*
X86366047Y-74754619D01*
X86559571Y-74754619D01*
X86656333Y-74803000D01*
X86704714Y-74851380D01*
X86753095Y-74948142D01*
X86753095Y-74996523D01*
X86704714Y-75093285D01*
X86656333Y-75141666D01*
X86559571Y-75190047D01*
X86366047Y-75190047D01*
X86269285Y-75238428D01*
X86220904Y-75286809D01*
X86172523Y-75383571D01*
X86172523Y-75577095D01*
X86220904Y-75673857D01*
X86269285Y-75722238D01*
X86366047Y-75770619D01*
X86559571Y-75770619D01*
X86656333Y-75722238D01*
X86704714Y-75673857D01*
X86753095Y-75577095D01*
X86753095Y-75383571D01*
X86704714Y-75286809D01*
X86656333Y-75238428D01*
X86559571Y-75190047D01*
X73950285Y-75770619D02*
X73369714Y-75770619D01*
X73660000Y-75770619D02*
X73660000Y-74754619D01*
X73563238Y-74899761D01*
X73466476Y-74996523D01*
X73369714Y-75044904D01*
X73841428Y-86570428D02*
X74180095Y-86570428D01*
X74325238Y-87102619D02*
X73841428Y-87102619D01*
X73841428Y-86086619D01*
X74325238Y-86086619D01*
X74712285Y-87054238D02*
X74857428Y-87102619D01*
X75099333Y-87102619D01*
X75196095Y-87054238D01*
X75244476Y-87005857D01*
X75292857Y-86909095D01*
X75292857Y-86812333D01*
X75244476Y-86715571D01*
X75196095Y-86667190D01*
X75099333Y-86618809D01*
X74905809Y-86570428D01*
X74809047Y-86522047D01*
X74760666Y-86473666D01*
X74712285Y-86376904D01*
X74712285Y-86280142D01*
X74760666Y-86183380D01*
X74809047Y-86135000D01*
X74905809Y-86086619D01*
X75147714Y-86086619D01*
X75292857Y-86135000D01*
X75728285Y-87102619D02*
X75728285Y-86086619D01*
X76115333Y-86086619D01*
X76212095Y-86135000D01*
X76260476Y-86183380D01*
X76308857Y-86280142D01*
X76308857Y-86425285D01*
X76260476Y-86522047D01*
X76212095Y-86570428D01*
X76115333Y-86618809D01*
X75728285Y-86618809D01*
X76744285Y-86715571D02*
X77518380Y-86715571D01*
X77905428Y-86086619D02*
X78147333Y-87102619D01*
X78340857Y-86376904D01*
X78534380Y-87102619D01*
X78776285Y-86086619D01*
X79743904Y-87102619D02*
X79405238Y-86618809D01*
X79163333Y-87102619D02*
X79163333Y-86086619D01*
X79550380Y-86086619D01*
X79647142Y-86135000D01*
X79695523Y-86183380D01*
X79743904Y-86280142D01*
X79743904Y-86425285D01*
X79695523Y-86522047D01*
X79647142Y-86570428D01*
X79550380Y-86618809D01*
X79163333Y-86618809D01*
X80372857Y-86086619D02*
X80566380Y-86086619D01*
X80663142Y-86135000D01*
X80759904Y-86231761D01*
X80808285Y-86425285D01*
X80808285Y-86763952D01*
X80759904Y-86957476D01*
X80663142Y-87054238D01*
X80566380Y-87102619D01*
X80372857Y-87102619D01*
X80276095Y-87054238D01*
X80179333Y-86957476D01*
X80130952Y-86763952D01*
X80130952Y-86425285D01*
X80179333Y-86231761D01*
X80276095Y-86135000D01*
X80372857Y-86086619D01*
X81437238Y-86086619D02*
X81630761Y-86086619D01*
X81727523Y-86135000D01*
X81824285Y-86231761D01*
X81872666Y-86425285D01*
X81872666Y-86763952D01*
X81824285Y-86957476D01*
X81727523Y-87054238D01*
X81630761Y-87102619D01*
X81437238Y-87102619D01*
X81340476Y-87054238D01*
X81243714Y-86957476D01*
X81195333Y-86763952D01*
X81195333Y-86425285D01*
X81243714Y-86231761D01*
X81340476Y-86135000D01*
X81437238Y-86086619D01*
X82308095Y-87102619D02*
X82308095Y-86086619D01*
X82646761Y-86812333D01*
X82985428Y-86086619D01*
X82985428Y-87102619D01*
X83469238Y-86715571D02*
X84243333Y-86715571D01*
X84630380Y-86086619D02*
X85259333Y-86086619D01*
X84920666Y-86473666D01*
X85065809Y-86473666D01*
X85162571Y-86522047D01*
X85210952Y-86570428D01*
X85259333Y-86667190D01*
X85259333Y-86909095D01*
X85210952Y-87005857D01*
X85162571Y-87054238D01*
X85065809Y-87102619D01*
X84775523Y-87102619D01*
X84678761Y-87054238D01*
X84630380Y-87005857D01*
X85646380Y-86183380D02*
X85694761Y-86135000D01*
X85791523Y-86086619D01*
X86033428Y-86086619D01*
X86130190Y-86135000D01*
X86178571Y-86183380D01*
X86226952Y-86280142D01*
X86226952Y-86376904D01*
X86178571Y-86522047D01*
X85598000Y-87102619D01*
X86226952Y-87102619D01*
X76502380Y-70344666D02*
X77107142Y-70344666D01*
X76381428Y-70707523D02*
X76804761Y-69437523D01*
X77228095Y-70707523D01*
X77651428Y-69860857D02*
X77651428Y-70707523D01*
X77651428Y-69981809D02*
X77711904Y-69921333D01*
X77832857Y-69860857D01*
X78014285Y-69860857D01*
X78135238Y-69921333D01*
X78195714Y-70042285D01*
X78195714Y-70707523D01*
X78619047Y-69860857D02*
X79102857Y-69860857D01*
X78800476Y-69437523D02*
X78800476Y-70526095D01*
X78860952Y-70647047D01*
X78981904Y-70707523D01*
X79102857Y-70707523D01*
X80010000Y-70647047D02*
X79889047Y-70707523D01*
X79647142Y-70707523D01*
X79526190Y-70647047D01*
X79465714Y-70526095D01*
X79465714Y-70042285D01*
X79526190Y-69921333D01*
X79647142Y-69860857D01*
X79889047Y-69860857D01*
X80010000Y-69921333D01*
X80070476Y-70042285D01*
X80070476Y-70163238D01*
X79465714Y-70284190D01*
X80614761Y-69860857D02*
X80614761Y-70707523D01*
X80614761Y-69981809D02*
X80675238Y-69921333D01*
X80796190Y-69860857D01*
X80977619Y-69860857D01*
X81098571Y-69921333D01*
X81159047Y-70042285D01*
X81159047Y-70707523D01*
X81763809Y-69860857D02*
X81763809Y-70707523D01*
X81763809Y-69981809D02*
X81824285Y-69921333D01*
X81945238Y-69860857D01*
X82126666Y-69860857D01*
X82247619Y-69921333D01*
X82308095Y-70042285D01*
X82308095Y-70707523D01*
X83457142Y-70707523D02*
X83457142Y-70042285D01*
X83396666Y-69921333D01*
X83275714Y-69860857D01*
X83033809Y-69860857D01*
X82912857Y-69921333D01*
X83457142Y-70647047D02*
X83336190Y-70707523D01*
X83033809Y-70707523D01*
X82912857Y-70647047D01*
X82852380Y-70526095D01*
X82852380Y-70405142D01*
X82912857Y-70284190D01*
X83033809Y-70223714D01*
X83336190Y-70223714D01*
X83457142Y-70163238D01*
X70678523Y-73623714D02*
X70618047Y-73744666D01*
X70557571Y-73805142D01*
X70436619Y-73865619D01*
X70073761Y-73865619D01*
X69952809Y-73805142D01*
X69892333Y-73744666D01*
X69831857Y-73623714D01*
X69831857Y-73442285D01*
X69892333Y-73321333D01*
X69952809Y-73260857D01*
X70073761Y-73200380D01*
X70436619Y-73200380D01*
X70557571Y-73260857D01*
X70618047Y-73321333D01*
X70678523Y-73442285D01*
X70678523Y-73623714D01*
X71198619Y-101497190D02*
X70714809Y-101835857D01*
X71198619Y-102077761D02*
X70182619Y-102077761D01*
X70182619Y-101690714D01*
X70231000Y-101593952D01*
X70279380Y-101545571D01*
X70376142Y-101497190D01*
X70521285Y-101497190D01*
X70618047Y-101545571D01*
X70666428Y-101593952D01*
X70714809Y-101690714D01*
X70714809Y-102077761D01*
X71150238Y-101110142D02*
X71198619Y-100965000D01*
X71198619Y-100723095D01*
X71150238Y-100626333D01*
X71101857Y-100577952D01*
X71005095Y-100529571D01*
X70908333Y-100529571D01*
X70811571Y-100577952D01*
X70763190Y-100626333D01*
X70714809Y-100723095D01*
X70666428Y-100916619D01*
X70618047Y-101013380D01*
X70569666Y-101061761D01*
X70472904Y-101110142D01*
X70376142Y-101110142D01*
X70279380Y-101061761D01*
X70231000Y-101013380D01*
X70182619Y-100916619D01*
X70182619Y-100674714D01*
X70231000Y-100529571D01*
X70182619Y-100239285D02*
X70182619Y-99658714D01*
X71198619Y-99949000D02*
X70182619Y-99949000D01*
X71198619Y-98787857D02*
X71198619Y-99368428D01*
X71198619Y-99078142D02*
X70182619Y-99078142D01*
X70327761Y-99174904D01*
X70424523Y-99271666D01*
X70472904Y-99368428D01*
X70666428Y-96072476D02*
X70714809Y-95927333D01*
X70763190Y-95878952D01*
X70859952Y-95830571D01*
X71005095Y-95830571D01*
X71101857Y-95878952D01*
X71150238Y-95927333D01*
X71198619Y-96024095D01*
X71198619Y-96411142D01*
X70182619Y-96411142D01*
X70182619Y-96072476D01*
X70231000Y-95975714D01*
X70279380Y-95927333D01*
X70376142Y-95878952D01*
X70472904Y-95878952D01*
X70569666Y-95927333D01*
X70618047Y-95975714D01*
X70666428Y-96072476D01*
X70666428Y-96411142D01*
X70182619Y-95395142D02*
X71005095Y-95395142D01*
X71101857Y-95346761D01*
X71150238Y-95298380D01*
X71198619Y-95201619D01*
X71198619Y-95008095D01*
X71150238Y-94911333D01*
X71101857Y-94862952D01*
X71005095Y-94814571D01*
X70182619Y-94814571D01*
X70182619Y-94475904D02*
X70182619Y-93895333D01*
X71198619Y-94185619D02*
X70182619Y-94185619D01*
X71198619Y-93024476D02*
X71198619Y-93605047D01*
X71198619Y-93314761D02*
X70182619Y-93314761D01*
X70327761Y-93411523D01*
X70424523Y-93508285D01*
X70472904Y-93605047D01*
D12*
X88537142Y-108802714D02*
X88283142Y-108439857D01*
X88101714Y-108802714D02*
X88101714Y-108040714D01*
X88392000Y-108040714D01*
X88464571Y-108077000D01*
X88500857Y-108113285D01*
X88537142Y-108185857D01*
X88537142Y-108294714D01*
X88500857Y-108367285D01*
X88464571Y-108403571D01*
X88392000Y-108439857D01*
X88101714Y-108439857D01*
X89262857Y-108802714D02*
X88827428Y-108802714D01*
X89045142Y-108802714D02*
X89045142Y-108040714D01*
X88972571Y-108149571D01*
X88900000Y-108222142D01*
X88827428Y-108258428D01*
X89734571Y-108040714D02*
X89807142Y-108040714D01*
X89879714Y-108077000D01*
X89916000Y-108113285D01*
X89952285Y-108185857D01*
X89988571Y-108331000D01*
X89988571Y-108512428D01*
X89952285Y-108657571D01*
X89916000Y-108730142D01*
X89879714Y-108766428D01*
X89807142Y-108802714D01*
X89734571Y-108802714D01*
X89662000Y-108766428D01*
X89625714Y-108730142D01*
X89589428Y-108657571D01*
X89553142Y-108512428D01*
X89553142Y-108331000D01*
X89589428Y-108185857D01*
X89625714Y-108113285D01*
X89662000Y-108077000D01*
X89734571Y-108040714D01*
X83058000Y-118454714D02*
X82804000Y-118091857D01*
X82622571Y-118454714D02*
X82622571Y-117692714D01*
X82912857Y-117692714D01*
X82985428Y-117729000D01*
X83021714Y-117765285D01*
X83058000Y-117837857D01*
X83058000Y-117946714D01*
X83021714Y-118019285D01*
X82985428Y-118055571D01*
X82912857Y-118091857D01*
X82622571Y-118091857D01*
X83420857Y-118454714D02*
X83566000Y-118454714D01*
X83638571Y-118418428D01*
X83674857Y-118382142D01*
X83747428Y-118273285D01*
X83783714Y-118128142D01*
X83783714Y-117837857D01*
X83747428Y-117765285D01*
X83711142Y-117729000D01*
X83638571Y-117692714D01*
X83493428Y-117692714D01*
X83420857Y-117729000D01*
X83384571Y-117765285D01*
X83348285Y-117837857D01*
X83348285Y-118019285D01*
X83384571Y-118091857D01*
X83420857Y-118128142D01*
X83493428Y-118164428D01*
X83638571Y-118164428D01*
X83711142Y-118128142D01*
X83747428Y-118091857D01*
X83783714Y-118019285D01*
X74694142Y-118962714D02*
X74440142Y-118599857D01*
X74258714Y-118962714D02*
X74258714Y-118200714D01*
X74549000Y-118200714D01*
X74621571Y-118237000D01*
X74657857Y-118273285D01*
X74694142Y-118345857D01*
X74694142Y-118454714D01*
X74657857Y-118527285D01*
X74621571Y-118563571D01*
X74549000Y-118599857D01*
X74258714Y-118599857D01*
X75419857Y-118962714D02*
X74984428Y-118962714D01*
X75202142Y-118962714D02*
X75202142Y-118200714D01*
X75129571Y-118309571D01*
X75057000Y-118382142D01*
X74984428Y-118418428D01*
X76145571Y-118962714D02*
X75710142Y-118962714D01*
X75927857Y-118962714D02*
X75927857Y-118200714D01*
X75855285Y-118309571D01*
X75782714Y-118382142D01*
X75710142Y-118418428D01*
X78105000Y-121756714D02*
X77851000Y-121393857D01*
X77669571Y-121756714D02*
X77669571Y-120994714D01*
X77959857Y-120994714D01*
X78032428Y-121031000D01*
X78068714Y-121067285D01*
X78105000Y-121139857D01*
X78105000Y-121248714D01*
X78068714Y-121321285D01*
X78032428Y-121357571D01*
X77959857Y-121393857D01*
X77669571Y-121393857D01*
X78540428Y-121321285D02*
X78467857Y-121285000D01*
X78431571Y-121248714D01*
X78395285Y-121176142D01*
X78395285Y-121139857D01*
X78431571Y-121067285D01*
X78467857Y-121031000D01*
X78540428Y-120994714D01*
X78685571Y-120994714D01*
X78758142Y-121031000D01*
X78794428Y-121067285D01*
X78830714Y-121139857D01*
X78830714Y-121176142D01*
X78794428Y-121248714D01*
X78758142Y-121285000D01*
X78685571Y-121321285D01*
X78540428Y-121321285D01*
X78467857Y-121357571D01*
X78431571Y-121393857D01*
X78395285Y-121466428D01*
X78395285Y-121611571D01*
X78431571Y-121684142D01*
X78467857Y-121720428D01*
X78540428Y-121756714D01*
X78685571Y-121756714D01*
X78758142Y-121720428D01*
X78794428Y-121684142D01*
X78830714Y-121611571D01*
X78830714Y-121466428D01*
X78794428Y-121393857D01*
X78758142Y-121357571D01*
X78685571Y-121321285D01*
X88646000Y-106262714D02*
X88392000Y-105899857D01*
X88210571Y-106262714D02*
X88210571Y-105500714D01*
X88500857Y-105500714D01*
X88573428Y-105537000D01*
X88609714Y-105573285D01*
X88646000Y-105645857D01*
X88646000Y-105754714D01*
X88609714Y-105827285D01*
X88573428Y-105863571D01*
X88500857Y-105899857D01*
X88210571Y-105899857D01*
X88900000Y-105500714D02*
X89408000Y-105500714D01*
X89081428Y-106262714D01*
X84527571Y-97880714D02*
X84527571Y-97118714D01*
X84709000Y-97118714D01*
X84817857Y-97155000D01*
X84890428Y-97227571D01*
X84926714Y-97300142D01*
X84963000Y-97445285D01*
X84963000Y-97554142D01*
X84926714Y-97699285D01*
X84890428Y-97771857D01*
X84817857Y-97844428D01*
X84709000Y-97880714D01*
X84527571Y-97880714D01*
X85616142Y-97372714D02*
X85616142Y-97880714D01*
X85434714Y-97082428D02*
X85253285Y-97626714D01*
X85725000Y-97626714D01*
X104974571Y-126392214D02*
X104974571Y-125630214D01*
X105156000Y-125630214D01*
X105264857Y-125666500D01*
X105337428Y-125739071D01*
X105373714Y-125811642D01*
X105410000Y-125956785D01*
X105410000Y-126065642D01*
X105373714Y-126210785D01*
X105337428Y-126283357D01*
X105264857Y-126355928D01*
X105156000Y-126392214D01*
X104974571Y-126392214D01*
X105664000Y-125630214D02*
X106135714Y-125630214D01*
X105881714Y-125920500D01*
X105990571Y-125920500D01*
X106063142Y-125956785D01*
X106099428Y-125993071D01*
X106135714Y-126065642D01*
X106135714Y-126247071D01*
X106099428Y-126319642D01*
X106063142Y-126355928D01*
X105990571Y-126392214D01*
X105772857Y-126392214D01*
X105700285Y-126355928D01*
X105664000Y-126319642D01*
X110880071Y-126328714D02*
X110880071Y-125566714D01*
X111061500Y-125566714D01*
X111170357Y-125603000D01*
X111242928Y-125675571D01*
X111279214Y-125748142D01*
X111315500Y-125893285D01*
X111315500Y-126002142D01*
X111279214Y-126147285D01*
X111242928Y-126219857D01*
X111170357Y-126292428D01*
X111061500Y-126328714D01*
X110880071Y-126328714D01*
X112041214Y-126328714D02*
X111605785Y-126328714D01*
X111823500Y-126328714D02*
X111823500Y-125566714D01*
X111750928Y-125675571D01*
X111678357Y-125748142D01*
X111605785Y-125784428D01*
X108421714Y-92691857D02*
X108058857Y-92945857D01*
X108421714Y-93127285D02*
X107659714Y-93127285D01*
X107659714Y-92837000D01*
X107696000Y-92764428D01*
X107732285Y-92728142D01*
X107804857Y-92691857D01*
X107913714Y-92691857D01*
X107986285Y-92728142D01*
X108022571Y-92764428D01*
X108058857Y-92837000D01*
X108058857Y-93127285D01*
X107732285Y-92401571D02*
X107696000Y-92365285D01*
X107659714Y-92292714D01*
X107659714Y-92111285D01*
X107696000Y-92038714D01*
X107732285Y-92002428D01*
X107804857Y-91966142D01*
X107877428Y-91966142D01*
X107986285Y-92002428D01*
X108421714Y-92437857D01*
X108421714Y-91966142D01*
X107659714Y-91276714D02*
X107659714Y-91639571D01*
X108022571Y-91675857D01*
X107986285Y-91639571D01*
X107950000Y-91567000D01*
X107950000Y-91385571D01*
X107986285Y-91313000D01*
X108022571Y-91276714D01*
X108095142Y-91240428D01*
X108276571Y-91240428D01*
X108349142Y-91276714D01*
X108385428Y-91313000D01*
X108421714Y-91385571D01*
X108421714Y-91567000D01*
X108385428Y-91639571D01*
X108349142Y-91675857D01*
M02*
