%TF.GenerationSoftware,KiCad,Pcbnew,5.1.0-rc2-unknown-036be7d~80~ubuntu16.04.1*%
%TF.CreationDate,2024-06-10T14:47:57+03:00*%
%TF.ProjectId,ESP32-GATEWAY_Rev_I,45535033-322d-4474-9154-455741595f52,I*%
%TF.SameCoordinates,PX425f360PY7b4bf70*%
%TF.FileFunction,Legend,Bot*%
%TF.FilePolarity,Positive*%
%FSLAX46Y46*%
G04 Gerber Fmt 4.6, Leading zero omitted, Abs format (unit mm)*
G04 Created by KiCad (PCBNEW 5.1.0-rc2-unknown-036be7d~80~ubuntu16.04.1) date 2024-06-10 14:47:57*
%MOMM*%
%LPD*%
G04 APERTURE LIST*
%ADD10C,0.254000*%
%ADD11C,0.190500*%
%ADD12C,0.317500*%
%ADD13C,0.635000*%
%ADD14C,0.300000*%
%ADD15C,0.400000*%
%ADD16C,0.700000*%
%ADD17C,0.500000*%
%ADD18C,0.100000*%
%ADD19C,0.508000*%
%ADD20C,0.150000*%
%ADD21C,0.127000*%
%ADD22C,0.200000*%
%ADD23C,0.420000*%
%ADD24C,0.370000*%
%ADD25C,0.380000*%
%ADD26C,1.000000*%
%ADD27C,0.350000*%
%ADD28C,0.381000*%
%ADD29C,0.180000*%
G04 APERTURE END LIST*
D10*
X50177095Y3634620D02*
X50128714Y3683000D01*
X50031952Y3731381D01*
X49790047Y3731381D01*
X49693285Y3683000D01*
X49644904Y3634620D01*
X49596523Y3537858D01*
X49596523Y3441096D01*
X49644904Y3295953D01*
X50225476Y2715381D01*
X49596523Y2715381D01*
X48967571Y3731381D02*
X48870809Y3731381D01*
X48774047Y3683000D01*
X48725666Y3634620D01*
X48677285Y3537858D01*
X48628904Y3344334D01*
X48628904Y3102429D01*
X48677285Y2908905D01*
X48725666Y2812143D01*
X48774047Y2763762D01*
X48870809Y2715381D01*
X48967571Y2715381D01*
X49064333Y2763762D01*
X49112714Y2812143D01*
X49161095Y2908905D01*
X49209476Y3102429D01*
X49209476Y3344334D01*
X49161095Y3537858D01*
X49112714Y3634620D01*
X49064333Y3683000D01*
X48967571Y3731381D01*
X45720000Y3683000D02*
X45720000Y5715000D01*
X47625000Y5715000D02*
X47625000Y3683000D01*
X7747000Y10541000D02*
X7747000Y3683000D01*
X9525000Y3683000D02*
X9525000Y10541000D01*
X11430000Y5588000D02*
X11430000Y3683000D01*
X9525000Y3683000D02*
X11430000Y3683000D01*
D11*
X46391285Y5279572D02*
X46355000Y5243286D01*
X46318714Y5170715D01*
X46318714Y4989286D01*
X46355000Y4916715D01*
X46391285Y4880429D01*
X46463857Y4844143D01*
X46536428Y4844143D01*
X46645285Y4880429D01*
X47080714Y5315858D01*
X47080714Y4844143D01*
X46318714Y4372429D02*
X46318714Y4299858D01*
X46355000Y4227286D01*
X46391285Y4191000D01*
X46463857Y4154715D01*
X46609000Y4118429D01*
X46790428Y4118429D01*
X46935571Y4154715D01*
X47008142Y4191000D01*
X47044428Y4227286D01*
X47080714Y4299858D01*
X47080714Y4372429D01*
X47044428Y4445000D01*
X47008142Y4481286D01*
X46935571Y4517572D01*
X46790428Y4553858D01*
X46609000Y4553858D01*
X46463857Y4517572D01*
X46391285Y4481286D01*
X46355000Y4445000D01*
X46318714Y4372429D01*
D10*
X47625000Y3683000D02*
X45720000Y3683000D01*
X47625000Y10541000D02*
X47625000Y5715000D01*
X47625000Y10541000D02*
X7747000Y10541000D01*
X47625000Y5715000D02*
X9525000Y5715000D01*
X45720000Y10541000D02*
X45720000Y5715000D01*
X41910000Y10541000D02*
X41910000Y5715000D01*
X40005000Y10541000D02*
X40005000Y5715000D01*
X38100000Y10541000D02*
X38100000Y5715000D01*
X36195000Y10541000D02*
X36195000Y5715000D01*
X34290000Y10541000D02*
X34290000Y5715000D01*
X32385000Y10541000D02*
X32385000Y5715000D01*
X30480000Y10541000D02*
X30480000Y5715000D01*
X28575000Y10541000D02*
X28575000Y5715000D01*
X26670000Y10541000D02*
X26670000Y5715000D01*
X24765000Y10541000D02*
X24765000Y5715000D01*
X22860000Y10541000D02*
X22860000Y5715000D01*
X20955000Y10541000D02*
X20955000Y5715000D01*
X19050000Y10541000D02*
X19050000Y5715000D01*
X17145000Y10541000D02*
X17145000Y5715000D01*
X15240000Y10541000D02*
X15240000Y5715000D01*
X13335000Y10541000D02*
X13335000Y5715000D01*
X11430000Y10414000D02*
X11430000Y5715000D01*
X43815000Y10541000D02*
X43815000Y5715000D01*
D12*
X26639761Y31937477D02*
X26639761Y33207477D01*
X26095476Y31937477D02*
X26095476Y32602715D01*
X26155952Y32723667D01*
X26276904Y32784143D01*
X26458333Y32784143D01*
X26579285Y32723667D01*
X26639761Y32663191D01*
X25672142Y32784143D02*
X25188333Y32784143D01*
X25490714Y33207477D02*
X25490714Y32118905D01*
X25430238Y31997953D01*
X25309285Y31937477D01*
X25188333Y31937477D01*
X24946428Y32784143D02*
X24462619Y32784143D01*
X24765000Y33207477D02*
X24765000Y32118905D01*
X24704523Y31997953D01*
X24583571Y31937477D01*
X24462619Y31937477D01*
X24039285Y32784143D02*
X24039285Y31514143D01*
X24039285Y32723667D02*
X23918333Y32784143D01*
X23676428Y32784143D01*
X23555476Y32723667D01*
X23495000Y32663191D01*
X23434523Y32542239D01*
X23434523Y32179381D01*
X23495000Y32058429D01*
X23555476Y31997953D01*
X23676428Y31937477D01*
X23918333Y31937477D01*
X24039285Y31997953D01*
X22950714Y31997953D02*
X22829761Y31937477D01*
X22587857Y31937477D01*
X22466904Y31997953D01*
X22406428Y32118905D01*
X22406428Y32179381D01*
X22466904Y32300334D01*
X22587857Y32360810D01*
X22769285Y32360810D01*
X22890238Y32421286D01*
X22950714Y32542239D01*
X22950714Y32602715D01*
X22890238Y32723667D01*
X22769285Y32784143D01*
X22587857Y32784143D01*
X22466904Y32723667D01*
X21862142Y32058429D02*
X21801666Y31997953D01*
X21862142Y31937477D01*
X21922619Y31997953D01*
X21862142Y32058429D01*
X21862142Y31937477D01*
X21862142Y32723667D02*
X21801666Y32663191D01*
X21862142Y32602715D01*
X21922619Y32663191D01*
X21862142Y32723667D01*
X21862142Y32602715D01*
X20350238Y33267953D02*
X21438809Y31635096D01*
X19019761Y33267953D02*
X20108333Y31635096D01*
X18717380Y32784143D02*
X18475476Y31937477D01*
X18233571Y32542239D01*
X17991666Y31937477D01*
X17749761Y32784143D01*
X17386904Y32784143D02*
X17145000Y31937477D01*
X16903095Y32542239D01*
X16661190Y31937477D01*
X16419285Y32784143D01*
X16056428Y32784143D02*
X15814523Y31937477D01*
X15572619Y32542239D01*
X15330714Y31937477D01*
X15088809Y32784143D01*
X14605000Y32058429D02*
X14544523Y31997953D01*
X14605000Y31937477D01*
X14665476Y31997953D01*
X14605000Y32058429D01*
X14605000Y31937477D01*
X13818809Y31937477D02*
X13939761Y31997953D01*
X14000238Y32058429D01*
X14060714Y32179381D01*
X14060714Y32542239D01*
X14000238Y32663191D01*
X13939761Y32723667D01*
X13818809Y32784143D01*
X13637380Y32784143D01*
X13516428Y32723667D01*
X13455952Y32663191D01*
X13395476Y32542239D01*
X13395476Y32179381D01*
X13455952Y32058429D01*
X13516428Y31997953D01*
X13637380Y31937477D01*
X13818809Y31937477D01*
X12669761Y31937477D02*
X12790714Y31997953D01*
X12851190Y32118905D01*
X12851190Y33207477D01*
X12185952Y31937477D02*
X12185952Y32784143D01*
X12185952Y33207477D02*
X12246428Y33147000D01*
X12185952Y33086524D01*
X12125476Y33147000D01*
X12185952Y33207477D01*
X12185952Y33086524D01*
X11581190Y31937477D02*
X11581190Y32784143D01*
X11581190Y32663191D02*
X11520714Y32723667D01*
X11399761Y32784143D01*
X11218333Y32784143D01*
X11097380Y32723667D01*
X11036904Y32602715D01*
X11036904Y31937477D01*
X11036904Y32602715D02*
X10976428Y32723667D01*
X10855476Y32784143D01*
X10674047Y32784143D01*
X10553095Y32723667D01*
X10492619Y32602715D01*
X10492619Y31937477D01*
X9404047Y31997953D02*
X9525000Y31937477D01*
X9766904Y31937477D01*
X9887857Y31997953D01*
X9948333Y32118905D01*
X9948333Y32602715D01*
X9887857Y32723667D01*
X9766904Y32784143D01*
X9525000Y32784143D01*
X9404047Y32723667D01*
X9343571Y32602715D01*
X9343571Y32481762D01*
X9948333Y32360810D01*
X8920238Y31937477D02*
X8255000Y32784143D01*
X8920238Y32784143D02*
X8255000Y31937477D01*
X7771190Y32058429D02*
X7710714Y31997953D01*
X7771190Y31937477D01*
X7831666Y31997953D01*
X7771190Y32058429D01*
X7771190Y31937477D01*
X6622142Y31997953D02*
X6743095Y31937477D01*
X6985000Y31937477D01*
X7105952Y31997953D01*
X7166428Y32058429D01*
X7226904Y32179381D01*
X7226904Y32542239D01*
X7166428Y32663191D01*
X7105952Y32723667D01*
X6985000Y32784143D01*
X6743095Y32784143D01*
X6622142Y32723667D01*
X5896428Y31937477D02*
X6017380Y31997953D01*
X6077857Y32058429D01*
X6138333Y32179381D01*
X6138333Y32542239D01*
X6077857Y32663191D01*
X6017380Y32723667D01*
X5896428Y32784143D01*
X5715000Y32784143D01*
X5594047Y32723667D01*
X5533571Y32663191D01*
X5473095Y32542239D01*
X5473095Y32179381D01*
X5533571Y32058429D01*
X5594047Y31997953D01*
X5715000Y31937477D01*
X5896428Y31937477D01*
X4928809Y31937477D02*
X4928809Y32784143D01*
X4928809Y32663191D02*
X4868333Y32723667D01*
X4747380Y32784143D01*
X4565952Y32784143D01*
X4445000Y32723667D01*
X4384523Y32602715D01*
X4384523Y31937477D01*
X4384523Y32602715D02*
X4324047Y32723667D01*
X4203095Y32784143D01*
X4021666Y32784143D01*
X3900714Y32723667D01*
X3840238Y32602715D01*
X3840238Y31937477D01*
D10*
X852714Y2842381D02*
X1433285Y2842381D01*
X1143000Y2842381D02*
X1143000Y3858381D01*
X1239761Y3713239D01*
X1336523Y3616477D01*
X1433285Y3568096D01*
D13*
X40113857Y36158715D02*
X39097857Y36158715D01*
X38662428Y34562143D02*
X40113857Y34562143D01*
X40113857Y37610143D01*
X38662428Y37610143D01*
X37501285Y34707286D02*
X37065857Y34562143D01*
X36340142Y34562143D01*
X36049857Y34707286D01*
X35904714Y34852429D01*
X35759571Y35142715D01*
X35759571Y35433000D01*
X35904714Y35723286D01*
X36049857Y35868429D01*
X36340142Y36013572D01*
X36920714Y36158715D01*
X37211000Y36303858D01*
X37356142Y36449000D01*
X37501285Y36739286D01*
X37501285Y37029572D01*
X37356142Y37319858D01*
X37211000Y37465000D01*
X36920714Y37610143D01*
X36195000Y37610143D01*
X35759571Y37465000D01*
X34453285Y34562143D02*
X34453285Y37610143D01*
X33292142Y37610143D01*
X33001857Y37465000D01*
X32856714Y37319858D01*
X32711571Y37029572D01*
X32711571Y36594143D01*
X32856714Y36303858D01*
X33001857Y36158715D01*
X33292142Y36013572D01*
X34453285Y36013572D01*
X31695571Y37610143D02*
X29808714Y37610143D01*
X30824714Y36449000D01*
X30389285Y36449000D01*
X30099000Y36303858D01*
X29953857Y36158715D01*
X29808714Y35868429D01*
X29808714Y35142715D01*
X29953857Y34852429D01*
X30099000Y34707286D01*
X30389285Y34562143D01*
X31260142Y34562143D01*
X31550428Y34707286D01*
X31695571Y34852429D01*
X28647571Y37319858D02*
X28502428Y37465000D01*
X28212142Y37610143D01*
X27486428Y37610143D01*
X27196142Y37465000D01*
X27051000Y37319858D01*
X26905857Y37029572D01*
X26905857Y36739286D01*
X27051000Y36303858D01*
X28792714Y34562143D01*
X26905857Y34562143D01*
X25599571Y35723286D02*
X23277285Y35723286D01*
X20229285Y37465000D02*
X20519571Y37610143D01*
X20955000Y37610143D01*
X21390428Y37465000D01*
X21680714Y37174715D01*
X21825857Y36884429D01*
X21971000Y36303858D01*
X21971000Y35868429D01*
X21825857Y35287858D01*
X21680714Y34997572D01*
X21390428Y34707286D01*
X20955000Y34562143D01*
X20664714Y34562143D01*
X20229285Y34707286D01*
X20084142Y34852429D01*
X20084142Y35868429D01*
X20664714Y35868429D01*
X18923000Y35433000D02*
X17471571Y35433000D01*
X19213285Y34562143D02*
X18197285Y37610143D01*
X17181285Y34562143D01*
X16600714Y37610143D02*
X14859000Y37610143D01*
X15729857Y34562143D02*
X15729857Y37610143D01*
X13843000Y36158715D02*
X12827000Y36158715D01*
X12391571Y34562143D02*
X13843000Y34562143D01*
X13843000Y37610143D01*
X12391571Y37610143D01*
X11375571Y37610143D02*
X10649857Y34562143D01*
X10069285Y36739286D01*
X9488714Y34562143D01*
X8763000Y37610143D01*
X7747000Y35433000D02*
X6295571Y35433000D01*
X8037285Y34562143D02*
X7021285Y37610143D01*
X6005285Y34562143D01*
X4408714Y36013572D02*
X4408714Y34562143D01*
X5424714Y37610143D02*
X4408714Y36013572D01*
X3392714Y37610143D01*
D11*
X46790428Y8853715D02*
X46790428Y8273143D01*
X47080714Y8563429D02*
X46500142Y8563429D01*
X46318714Y7547429D02*
X46318714Y7910286D01*
X46681571Y7946572D01*
X46645285Y7910286D01*
X46609000Y7837715D01*
X46609000Y7656286D01*
X46645285Y7583715D01*
X46681571Y7547429D01*
X46754142Y7511143D01*
X46935571Y7511143D01*
X47008142Y7547429D01*
X47044428Y7583715D01*
X47080714Y7656286D01*
X47080714Y7837715D01*
X47044428Y7910286D01*
X47008142Y7946572D01*
X46318714Y7293429D02*
X47080714Y7039429D01*
X46318714Y6785429D01*
X42545000Y9216572D02*
X42508714Y9289143D01*
X42508714Y9398000D01*
X42545000Y9506858D01*
X42617571Y9579429D01*
X42690142Y9615715D01*
X42835285Y9652000D01*
X42944142Y9652000D01*
X43089285Y9615715D01*
X43161857Y9579429D01*
X43234428Y9506858D01*
X43270714Y9398000D01*
X43270714Y9325429D01*
X43234428Y9216572D01*
X43198142Y9180286D01*
X42944142Y9180286D01*
X42944142Y9325429D01*
X43270714Y8853715D02*
X42508714Y8853715D01*
X42508714Y8563429D01*
X42545000Y8490858D01*
X42581285Y8454572D01*
X42653857Y8418286D01*
X42762714Y8418286D01*
X42835285Y8454572D01*
X42871571Y8490858D01*
X42907857Y8563429D01*
X42907857Y8853715D01*
X43270714Y8091715D02*
X42508714Y8091715D01*
X42508714Y7801429D02*
X42508714Y7329715D01*
X42799000Y7583715D01*
X42799000Y7474858D01*
X42835285Y7402286D01*
X42871571Y7366000D01*
X42944142Y7329715D01*
X43125571Y7329715D01*
X43198142Y7366000D01*
X43234428Y7402286D01*
X43270714Y7474858D01*
X43270714Y7692572D01*
X43234428Y7765143D01*
X43198142Y7801429D01*
X43270714Y6966858D02*
X43270714Y6821715D01*
X43234428Y6749143D01*
X43198142Y6712858D01*
X43089285Y6640286D01*
X42944142Y6604000D01*
X42653857Y6604000D01*
X42581285Y6640286D01*
X42545000Y6676572D01*
X42508714Y6749143D01*
X42508714Y6894286D01*
X42545000Y6966858D01*
X42581285Y7003143D01*
X42653857Y7039429D01*
X42835285Y7039429D01*
X42907857Y7003143D01*
X42944142Y6966858D01*
X42980428Y6894286D01*
X42980428Y6749143D01*
X42944142Y6676572D01*
X42907857Y6640286D01*
X42835285Y6604000D01*
X44450000Y8454572D02*
X44413714Y8527143D01*
X44413714Y8636000D01*
X44450000Y8744858D01*
X44522571Y8817429D01*
X44595142Y8853715D01*
X44740285Y8890000D01*
X44849142Y8890000D01*
X44994285Y8853715D01*
X45066857Y8817429D01*
X45139428Y8744858D01*
X45175714Y8636000D01*
X45175714Y8563429D01*
X45139428Y8454572D01*
X45103142Y8418286D01*
X44849142Y8418286D01*
X44849142Y8563429D01*
X45175714Y8091715D02*
X44413714Y8091715D01*
X45175714Y7656286D01*
X44413714Y7656286D01*
X45175714Y7293429D02*
X44413714Y7293429D01*
X44413714Y7112000D01*
X44450000Y7003143D01*
X44522571Y6930572D01*
X44595142Y6894286D01*
X44740285Y6858000D01*
X44849142Y6858000D01*
X44994285Y6894286D01*
X45066857Y6930572D01*
X45139428Y7003143D01*
X45175714Y7112000D01*
X45175714Y7293429D01*
X40640000Y9216572D02*
X40603714Y9289143D01*
X40603714Y9398000D01*
X40640000Y9506858D01*
X40712571Y9579429D01*
X40785142Y9615715D01*
X40930285Y9652000D01*
X41039142Y9652000D01*
X41184285Y9615715D01*
X41256857Y9579429D01*
X41329428Y9506858D01*
X41365714Y9398000D01*
X41365714Y9325429D01*
X41329428Y9216572D01*
X41293142Y9180286D01*
X41039142Y9180286D01*
X41039142Y9325429D01*
X41365714Y8853715D02*
X40603714Y8853715D01*
X40603714Y8563429D01*
X40640000Y8490858D01*
X40676285Y8454572D01*
X40748857Y8418286D01*
X40857714Y8418286D01*
X40930285Y8454572D01*
X40966571Y8490858D01*
X41002857Y8563429D01*
X41002857Y8853715D01*
X41365714Y8091715D02*
X40603714Y8091715D01*
X40603714Y7801429D02*
X40603714Y7329715D01*
X40894000Y7583715D01*
X40894000Y7474858D01*
X40930285Y7402286D01*
X40966571Y7366000D01*
X41039142Y7329715D01*
X41220571Y7329715D01*
X41293142Y7366000D01*
X41329428Y7402286D01*
X41365714Y7474858D01*
X41365714Y7692572D01*
X41329428Y7765143D01*
X41293142Y7801429D01*
X40603714Y6676572D02*
X40603714Y6821715D01*
X40640000Y6894286D01*
X40676285Y6930572D01*
X40785142Y7003143D01*
X40930285Y7039429D01*
X41220571Y7039429D01*
X41293142Y7003143D01*
X41329428Y6966858D01*
X41365714Y6894286D01*
X41365714Y6749143D01*
X41329428Y6676572D01*
X41293142Y6640286D01*
X41220571Y6604000D01*
X41039142Y6604000D01*
X40966571Y6640286D01*
X40930285Y6676572D01*
X40894000Y6749143D01*
X40894000Y6894286D01*
X40930285Y6966858D01*
X40966571Y7003143D01*
X41039142Y7039429D01*
X38735000Y9216572D02*
X38698714Y9289143D01*
X38698714Y9398000D01*
X38735000Y9506858D01*
X38807571Y9579429D01*
X38880142Y9615715D01*
X39025285Y9652000D01*
X39134142Y9652000D01*
X39279285Y9615715D01*
X39351857Y9579429D01*
X39424428Y9506858D01*
X39460714Y9398000D01*
X39460714Y9325429D01*
X39424428Y9216572D01*
X39388142Y9180286D01*
X39134142Y9180286D01*
X39134142Y9325429D01*
X39460714Y8853715D02*
X38698714Y8853715D01*
X38698714Y8563429D01*
X38735000Y8490858D01*
X38771285Y8454572D01*
X38843857Y8418286D01*
X38952714Y8418286D01*
X39025285Y8454572D01*
X39061571Y8490858D01*
X39097857Y8563429D01*
X39097857Y8853715D01*
X39460714Y8091715D02*
X38698714Y8091715D01*
X38698714Y7801429D02*
X38698714Y7329715D01*
X38989000Y7583715D01*
X38989000Y7474858D01*
X39025285Y7402286D01*
X39061571Y7366000D01*
X39134142Y7329715D01*
X39315571Y7329715D01*
X39388142Y7366000D01*
X39424428Y7402286D01*
X39460714Y7474858D01*
X39460714Y7692572D01*
X39424428Y7765143D01*
X39388142Y7801429D01*
X38698714Y6640286D02*
X38698714Y7003143D01*
X39061571Y7039429D01*
X39025285Y7003143D01*
X38989000Y6930572D01*
X38989000Y6749143D01*
X39025285Y6676572D01*
X39061571Y6640286D01*
X39134142Y6604000D01*
X39315571Y6604000D01*
X39388142Y6640286D01*
X39424428Y6676572D01*
X39460714Y6749143D01*
X39460714Y6930572D01*
X39424428Y7003143D01*
X39388142Y7039429D01*
X36830000Y9216572D02*
X36793714Y9289143D01*
X36793714Y9398000D01*
X36830000Y9506858D01*
X36902571Y9579429D01*
X36975142Y9615715D01*
X37120285Y9652000D01*
X37229142Y9652000D01*
X37374285Y9615715D01*
X37446857Y9579429D01*
X37519428Y9506858D01*
X37555714Y9398000D01*
X37555714Y9325429D01*
X37519428Y9216572D01*
X37483142Y9180286D01*
X37229142Y9180286D01*
X37229142Y9325429D01*
X37555714Y8853715D02*
X36793714Y8853715D01*
X36793714Y8563429D01*
X36830000Y8490858D01*
X36866285Y8454572D01*
X36938857Y8418286D01*
X37047714Y8418286D01*
X37120285Y8454572D01*
X37156571Y8490858D01*
X37192857Y8563429D01*
X37192857Y8853715D01*
X37555714Y8091715D02*
X36793714Y8091715D01*
X36793714Y7801429D02*
X36793714Y7329715D01*
X37084000Y7583715D01*
X37084000Y7474858D01*
X37120285Y7402286D01*
X37156571Y7366000D01*
X37229142Y7329715D01*
X37410571Y7329715D01*
X37483142Y7366000D01*
X37519428Y7402286D01*
X37555714Y7474858D01*
X37555714Y7692572D01*
X37519428Y7765143D01*
X37483142Y7801429D01*
X37047714Y6676572D02*
X37555714Y6676572D01*
X36757428Y6858000D02*
X37301714Y7039429D01*
X37301714Y6567715D01*
X34925000Y9615715D02*
X34888714Y9688286D01*
X34888714Y9797143D01*
X34925000Y9906000D01*
X34997571Y9978572D01*
X35070142Y10014858D01*
X35215285Y10051143D01*
X35324142Y10051143D01*
X35469285Y10014858D01*
X35541857Y9978572D01*
X35614428Y9906000D01*
X35650714Y9797143D01*
X35650714Y9724572D01*
X35614428Y9615715D01*
X35578142Y9579429D01*
X35324142Y9579429D01*
X35324142Y9724572D01*
X35650714Y9252858D02*
X34888714Y9252858D01*
X34888714Y8962572D01*
X34925000Y8890000D01*
X34961285Y8853715D01*
X35033857Y8817429D01*
X35142714Y8817429D01*
X35215285Y8853715D01*
X35251571Y8890000D01*
X35287857Y8962572D01*
X35287857Y9252858D01*
X35650714Y8490858D02*
X34888714Y8490858D01*
X34888714Y7982858D02*
X34888714Y7837715D01*
X34925000Y7765143D01*
X34997571Y7692572D01*
X35142714Y7656286D01*
X35396714Y7656286D01*
X35541857Y7692572D01*
X35614428Y7765143D01*
X35650714Y7837715D01*
X35650714Y7982858D01*
X35614428Y8055429D01*
X35541857Y8128000D01*
X35396714Y8164286D01*
X35142714Y8164286D01*
X34997571Y8128000D01*
X34925000Y8055429D01*
X34888714Y7982858D01*
X34888714Y7402286D02*
X34888714Y6930572D01*
X35179000Y7184572D01*
X35179000Y7075715D01*
X35215285Y7003143D01*
X35251571Y6966858D01*
X35324142Y6930572D01*
X35505571Y6930572D01*
X35578142Y6966858D01*
X35614428Y7003143D01*
X35650714Y7075715D01*
X35650714Y7293429D01*
X35614428Y7366000D01*
X35578142Y7402286D01*
X34888714Y6676572D02*
X34888714Y6204858D01*
X35179000Y6458858D01*
X35179000Y6350000D01*
X35215285Y6277429D01*
X35251571Y6241143D01*
X35324142Y6204858D01*
X35505571Y6204858D01*
X35578142Y6241143D01*
X35614428Y6277429D01*
X35650714Y6350000D01*
X35650714Y6567715D01*
X35614428Y6640286D01*
X35578142Y6676572D01*
X33020000Y9615715D02*
X32983714Y9688286D01*
X32983714Y9797143D01*
X33020000Y9906000D01*
X33092571Y9978572D01*
X33165142Y10014858D01*
X33310285Y10051143D01*
X33419142Y10051143D01*
X33564285Y10014858D01*
X33636857Y9978572D01*
X33709428Y9906000D01*
X33745714Y9797143D01*
X33745714Y9724572D01*
X33709428Y9615715D01*
X33673142Y9579429D01*
X33419142Y9579429D01*
X33419142Y9724572D01*
X33745714Y9252858D02*
X32983714Y9252858D01*
X32983714Y8962572D01*
X33020000Y8890000D01*
X33056285Y8853715D01*
X33128857Y8817429D01*
X33237714Y8817429D01*
X33310285Y8853715D01*
X33346571Y8890000D01*
X33382857Y8962572D01*
X33382857Y9252858D01*
X33745714Y8490858D02*
X32983714Y8490858D01*
X32983714Y7982858D02*
X32983714Y7837715D01*
X33020000Y7765143D01*
X33092571Y7692572D01*
X33237714Y7656286D01*
X33491714Y7656286D01*
X33636857Y7692572D01*
X33709428Y7765143D01*
X33745714Y7837715D01*
X33745714Y7982858D01*
X33709428Y8055429D01*
X33636857Y8128000D01*
X33491714Y8164286D01*
X33237714Y8164286D01*
X33092571Y8128000D01*
X33020000Y8055429D01*
X32983714Y7982858D01*
X32983714Y7402286D02*
X32983714Y6930572D01*
X33274000Y7184572D01*
X33274000Y7075715D01*
X33310285Y7003143D01*
X33346571Y6966858D01*
X33419142Y6930572D01*
X33600571Y6930572D01*
X33673142Y6966858D01*
X33709428Y7003143D01*
X33745714Y7075715D01*
X33745714Y7293429D01*
X33709428Y7366000D01*
X33673142Y7402286D01*
X33056285Y6640286D02*
X33020000Y6604000D01*
X32983714Y6531429D01*
X32983714Y6350000D01*
X33020000Y6277429D01*
X33056285Y6241143D01*
X33128857Y6204858D01*
X33201428Y6204858D01*
X33310285Y6241143D01*
X33745714Y6676572D01*
X33745714Y6204858D01*
D10*
X7747000Y3683000D02*
X9525000Y3683000D01*
D11*
X8980714Y9760858D02*
X8218714Y9760858D01*
X8218714Y9470572D01*
X8255000Y9398000D01*
X8291285Y9361715D01*
X8363857Y9325429D01*
X8472714Y9325429D01*
X8545285Y9361715D01*
X8581571Y9398000D01*
X8617857Y9470572D01*
X8617857Y9760858D01*
X8980714Y8998858D02*
X8218714Y8998858D01*
X8980714Y8636000D02*
X8218714Y8636000D01*
X8980714Y8200572D01*
X8218714Y8200572D01*
X8980714Y7257143D02*
X8218714Y7257143D01*
X8763000Y7003143D01*
X8218714Y6749143D01*
X8980714Y6749143D01*
X8763000Y6422572D02*
X8763000Y6059715D01*
X8980714Y6495143D02*
X8218714Y6241143D01*
X8980714Y5987143D01*
X8980714Y5733143D02*
X8218714Y5733143D01*
X8218714Y5442858D01*
X8255000Y5370286D01*
X8291285Y5334000D01*
X8363857Y5297715D01*
X8472714Y5297715D01*
X8545285Y5334000D01*
X8581571Y5370286D01*
X8617857Y5442858D01*
X8617857Y5733143D01*
X8908142Y4971143D02*
X8944428Y4934858D01*
X8980714Y4971143D01*
X8944428Y5007429D01*
X8908142Y4971143D01*
X8980714Y4971143D01*
X8509000Y4971143D02*
X8545285Y4934858D01*
X8581571Y4971143D01*
X8545285Y5007429D01*
X8509000Y4971143D01*
X8581571Y4971143D01*
X31115000Y9615715D02*
X31078714Y9688286D01*
X31078714Y9797143D01*
X31115000Y9906000D01*
X31187571Y9978572D01*
X31260142Y10014858D01*
X31405285Y10051143D01*
X31514142Y10051143D01*
X31659285Y10014858D01*
X31731857Y9978572D01*
X31804428Y9906000D01*
X31840714Y9797143D01*
X31840714Y9724572D01*
X31804428Y9615715D01*
X31768142Y9579429D01*
X31514142Y9579429D01*
X31514142Y9724572D01*
X31840714Y9252858D02*
X31078714Y9252858D01*
X31078714Y8962572D01*
X31115000Y8890000D01*
X31151285Y8853715D01*
X31223857Y8817429D01*
X31332714Y8817429D01*
X31405285Y8853715D01*
X31441571Y8890000D01*
X31477857Y8962572D01*
X31477857Y9252858D01*
X31840714Y8490858D02*
X31078714Y8490858D01*
X31078714Y7982858D02*
X31078714Y7837715D01*
X31115000Y7765143D01*
X31187571Y7692572D01*
X31332714Y7656286D01*
X31586714Y7656286D01*
X31731857Y7692572D01*
X31804428Y7765143D01*
X31840714Y7837715D01*
X31840714Y7982858D01*
X31804428Y8055429D01*
X31731857Y8128000D01*
X31586714Y8164286D01*
X31332714Y8164286D01*
X31187571Y8128000D01*
X31115000Y8055429D01*
X31078714Y7982858D01*
X31840714Y6930572D02*
X31840714Y7366000D01*
X31840714Y7148286D02*
X31078714Y7148286D01*
X31187571Y7220858D01*
X31260142Y7293429D01*
X31296428Y7366000D01*
X31078714Y6676572D02*
X31078714Y6168572D01*
X31840714Y6495143D01*
X29210000Y9615715D02*
X29173714Y9688286D01*
X29173714Y9797143D01*
X29210000Y9906000D01*
X29282571Y9978572D01*
X29355142Y10014858D01*
X29500285Y10051143D01*
X29609142Y10051143D01*
X29754285Y10014858D01*
X29826857Y9978572D01*
X29899428Y9906000D01*
X29935714Y9797143D01*
X29935714Y9724572D01*
X29899428Y9615715D01*
X29863142Y9579429D01*
X29609142Y9579429D01*
X29609142Y9724572D01*
X29935714Y9252858D02*
X29173714Y9252858D01*
X29173714Y8962572D01*
X29210000Y8890000D01*
X29246285Y8853715D01*
X29318857Y8817429D01*
X29427714Y8817429D01*
X29500285Y8853715D01*
X29536571Y8890000D01*
X29572857Y8962572D01*
X29572857Y9252858D01*
X29935714Y8490858D02*
X29173714Y8490858D01*
X29173714Y7982858D02*
X29173714Y7837715D01*
X29210000Y7765143D01*
X29282571Y7692572D01*
X29427714Y7656286D01*
X29681714Y7656286D01*
X29826857Y7692572D01*
X29899428Y7765143D01*
X29935714Y7837715D01*
X29935714Y7982858D01*
X29899428Y8055429D01*
X29826857Y8128000D01*
X29681714Y8164286D01*
X29427714Y8164286D01*
X29282571Y8128000D01*
X29210000Y8055429D01*
X29173714Y7982858D01*
X29935714Y6930572D02*
X29935714Y7366000D01*
X29935714Y7148286D02*
X29173714Y7148286D01*
X29282571Y7220858D01*
X29355142Y7293429D01*
X29391428Y7366000D01*
X29173714Y6277429D02*
X29173714Y6422572D01*
X29210000Y6495143D01*
X29246285Y6531429D01*
X29355142Y6604000D01*
X29500285Y6640286D01*
X29790571Y6640286D01*
X29863142Y6604000D01*
X29899428Y6567715D01*
X29935714Y6495143D01*
X29935714Y6350000D01*
X29899428Y6277429D01*
X29863142Y6241143D01*
X29790571Y6204858D01*
X29609142Y6204858D01*
X29536571Y6241143D01*
X29500285Y6277429D01*
X29464000Y6350000D01*
X29464000Y6495143D01*
X29500285Y6567715D01*
X29536571Y6604000D01*
X29609142Y6640286D01*
X27305000Y9615715D02*
X27268714Y9688286D01*
X27268714Y9797143D01*
X27305000Y9906000D01*
X27377571Y9978572D01*
X27450142Y10014858D01*
X27595285Y10051143D01*
X27704142Y10051143D01*
X27849285Y10014858D01*
X27921857Y9978572D01*
X27994428Y9906000D01*
X28030714Y9797143D01*
X28030714Y9724572D01*
X27994428Y9615715D01*
X27958142Y9579429D01*
X27704142Y9579429D01*
X27704142Y9724572D01*
X28030714Y9252858D02*
X27268714Y9252858D01*
X27268714Y8962572D01*
X27305000Y8890000D01*
X27341285Y8853715D01*
X27413857Y8817429D01*
X27522714Y8817429D01*
X27595285Y8853715D01*
X27631571Y8890000D01*
X27667857Y8962572D01*
X27667857Y9252858D01*
X28030714Y8490858D02*
X27268714Y8490858D01*
X27268714Y7982858D02*
X27268714Y7837715D01*
X27305000Y7765143D01*
X27377571Y7692572D01*
X27522714Y7656286D01*
X27776714Y7656286D01*
X27921857Y7692572D01*
X27994428Y7765143D01*
X28030714Y7837715D01*
X28030714Y7982858D01*
X27994428Y8055429D01*
X27921857Y8128000D01*
X27776714Y8164286D01*
X27522714Y8164286D01*
X27377571Y8128000D01*
X27305000Y8055429D01*
X27268714Y7982858D01*
X28030714Y6930572D02*
X28030714Y7366000D01*
X28030714Y7148286D02*
X27268714Y7148286D01*
X27377571Y7220858D01*
X27450142Y7293429D01*
X27486428Y7366000D01*
X27268714Y6241143D02*
X27268714Y6604000D01*
X27631571Y6640286D01*
X27595285Y6604000D01*
X27559000Y6531429D01*
X27559000Y6350000D01*
X27595285Y6277429D01*
X27631571Y6241143D01*
X27704142Y6204858D01*
X27885571Y6204858D01*
X27958142Y6241143D01*
X27994428Y6277429D01*
X28030714Y6350000D01*
X28030714Y6531429D01*
X27994428Y6604000D01*
X27958142Y6640286D01*
X25400000Y9615715D02*
X25363714Y9688286D01*
X25363714Y9797143D01*
X25400000Y9906000D01*
X25472571Y9978572D01*
X25545142Y10014858D01*
X25690285Y10051143D01*
X25799142Y10051143D01*
X25944285Y10014858D01*
X26016857Y9978572D01*
X26089428Y9906000D01*
X26125714Y9797143D01*
X26125714Y9724572D01*
X26089428Y9615715D01*
X26053142Y9579429D01*
X25799142Y9579429D01*
X25799142Y9724572D01*
X26125714Y9252858D02*
X25363714Y9252858D01*
X25363714Y8962572D01*
X25400000Y8890000D01*
X25436285Y8853715D01*
X25508857Y8817429D01*
X25617714Y8817429D01*
X25690285Y8853715D01*
X25726571Y8890000D01*
X25762857Y8962572D01*
X25762857Y9252858D01*
X26125714Y8490858D02*
X25363714Y8490858D01*
X25363714Y7982858D02*
X25363714Y7837715D01*
X25400000Y7765143D01*
X25472571Y7692572D01*
X25617714Y7656286D01*
X25871714Y7656286D01*
X26016857Y7692572D01*
X26089428Y7765143D01*
X26125714Y7837715D01*
X26125714Y7982858D01*
X26089428Y8055429D01*
X26016857Y8128000D01*
X25871714Y8164286D01*
X25617714Y8164286D01*
X25472571Y8128000D01*
X25400000Y8055429D01*
X25363714Y7982858D01*
X26125714Y6930572D02*
X26125714Y7366000D01*
X26125714Y7148286D02*
X25363714Y7148286D01*
X25472571Y7220858D01*
X25545142Y7293429D01*
X25581428Y7366000D01*
X25617714Y6277429D02*
X26125714Y6277429D01*
X25327428Y6458858D02*
X25871714Y6640286D01*
X25871714Y6168572D01*
X23495000Y9615715D02*
X23458714Y9688286D01*
X23458714Y9797143D01*
X23495000Y9906000D01*
X23567571Y9978572D01*
X23640142Y10014858D01*
X23785285Y10051143D01*
X23894142Y10051143D01*
X24039285Y10014858D01*
X24111857Y9978572D01*
X24184428Y9906000D01*
X24220714Y9797143D01*
X24220714Y9724572D01*
X24184428Y9615715D01*
X24148142Y9579429D01*
X23894142Y9579429D01*
X23894142Y9724572D01*
X24220714Y9252858D02*
X23458714Y9252858D01*
X23458714Y8962572D01*
X23495000Y8890000D01*
X23531285Y8853715D01*
X23603857Y8817429D01*
X23712714Y8817429D01*
X23785285Y8853715D01*
X23821571Y8890000D01*
X23857857Y8962572D01*
X23857857Y9252858D01*
X24220714Y8490858D02*
X23458714Y8490858D01*
X23458714Y7982858D02*
X23458714Y7837715D01*
X23495000Y7765143D01*
X23567571Y7692572D01*
X23712714Y7656286D01*
X23966714Y7656286D01*
X24111857Y7692572D01*
X24184428Y7765143D01*
X24220714Y7837715D01*
X24220714Y7982858D01*
X24184428Y8055429D01*
X24111857Y8128000D01*
X23966714Y8164286D01*
X23712714Y8164286D01*
X23567571Y8128000D01*
X23495000Y8055429D01*
X23458714Y7982858D01*
X24220714Y6930572D02*
X24220714Y7366000D01*
X24220714Y7148286D02*
X23458714Y7148286D01*
X23567571Y7220858D01*
X23640142Y7293429D01*
X23676428Y7366000D01*
X23458714Y6676572D02*
X23458714Y6204858D01*
X23749000Y6458858D01*
X23749000Y6350000D01*
X23785285Y6277429D01*
X23821571Y6241143D01*
X23894142Y6204858D01*
X24075571Y6204858D01*
X24148142Y6241143D01*
X24184428Y6277429D01*
X24220714Y6350000D01*
X24220714Y6567715D01*
X24184428Y6640286D01*
X24148142Y6676572D01*
X21590000Y9615715D02*
X21553714Y9688286D01*
X21553714Y9797143D01*
X21590000Y9906000D01*
X21662571Y9978572D01*
X21735142Y10014858D01*
X21880285Y10051143D01*
X21989142Y10051143D01*
X22134285Y10014858D01*
X22206857Y9978572D01*
X22279428Y9906000D01*
X22315714Y9797143D01*
X22315714Y9724572D01*
X22279428Y9615715D01*
X22243142Y9579429D01*
X21989142Y9579429D01*
X21989142Y9724572D01*
X22315714Y9252858D02*
X21553714Y9252858D01*
X21553714Y8962572D01*
X21590000Y8890000D01*
X21626285Y8853715D01*
X21698857Y8817429D01*
X21807714Y8817429D01*
X21880285Y8853715D01*
X21916571Y8890000D01*
X21952857Y8962572D01*
X21952857Y9252858D01*
X22315714Y8490858D02*
X21553714Y8490858D01*
X21553714Y7982858D02*
X21553714Y7837715D01*
X21590000Y7765143D01*
X21662571Y7692572D01*
X21807714Y7656286D01*
X22061714Y7656286D01*
X22206857Y7692572D01*
X22279428Y7765143D01*
X22315714Y7837715D01*
X22315714Y7982858D01*
X22279428Y8055429D01*
X22206857Y8128000D01*
X22061714Y8164286D01*
X21807714Y8164286D01*
X21662571Y8128000D01*
X21590000Y8055429D01*
X21553714Y7982858D01*
X22315714Y6930572D02*
X22315714Y7366000D01*
X22315714Y7148286D02*
X21553714Y7148286D01*
X21662571Y7220858D01*
X21735142Y7293429D01*
X21771428Y7366000D01*
X21626285Y6640286D02*
X21590000Y6604000D01*
X21553714Y6531429D01*
X21553714Y6350000D01*
X21590000Y6277429D01*
X21626285Y6241143D01*
X21698857Y6204858D01*
X21771428Y6204858D01*
X21880285Y6241143D01*
X22315714Y6676572D01*
X22315714Y6204858D01*
X19685000Y9252858D02*
X19648714Y9325429D01*
X19648714Y9434286D01*
X19685000Y9543143D01*
X19757571Y9615715D01*
X19830142Y9652000D01*
X19975285Y9688286D01*
X20084142Y9688286D01*
X20229285Y9652000D01*
X20301857Y9615715D01*
X20374428Y9543143D01*
X20410714Y9434286D01*
X20410714Y9361715D01*
X20374428Y9252858D01*
X20338142Y9216572D01*
X20084142Y9216572D01*
X20084142Y9361715D01*
X20410714Y8890000D02*
X19648714Y8890000D01*
X19648714Y8599715D01*
X19685000Y8527143D01*
X19721285Y8490858D01*
X19793857Y8454572D01*
X19902714Y8454572D01*
X19975285Y8490858D01*
X20011571Y8527143D01*
X20047857Y8599715D01*
X20047857Y8890000D01*
X20410714Y8128000D02*
X19648714Y8128000D01*
X19648714Y7620000D02*
X19648714Y7474858D01*
X19685000Y7402286D01*
X19757571Y7329715D01*
X19902714Y7293429D01*
X20156714Y7293429D01*
X20301857Y7329715D01*
X20374428Y7402286D01*
X20410714Y7474858D01*
X20410714Y7620000D01*
X20374428Y7692572D01*
X20301857Y7765143D01*
X20156714Y7801429D01*
X19902714Y7801429D01*
X19757571Y7765143D01*
X19685000Y7692572D01*
X19648714Y7620000D01*
X19902714Y6640286D02*
X20410714Y6640286D01*
X19612428Y6821715D02*
X20156714Y7003143D01*
X20156714Y6531429D01*
X17780000Y9252858D02*
X17743714Y9325429D01*
X17743714Y9434286D01*
X17780000Y9543143D01*
X17852571Y9615715D01*
X17925142Y9652000D01*
X18070285Y9688286D01*
X18179142Y9688286D01*
X18324285Y9652000D01*
X18396857Y9615715D01*
X18469428Y9543143D01*
X18505714Y9434286D01*
X18505714Y9361715D01*
X18469428Y9252858D01*
X18433142Y9216572D01*
X18179142Y9216572D01*
X18179142Y9361715D01*
X18505714Y8890000D02*
X17743714Y8890000D01*
X17743714Y8599715D01*
X17780000Y8527143D01*
X17816285Y8490858D01*
X17888857Y8454572D01*
X17997714Y8454572D01*
X18070285Y8490858D01*
X18106571Y8527143D01*
X18142857Y8599715D01*
X18142857Y8890000D01*
X18505714Y8128000D02*
X17743714Y8128000D01*
X17743714Y7620000D02*
X17743714Y7474858D01*
X17780000Y7402286D01*
X17852571Y7329715D01*
X17997714Y7293429D01*
X18251714Y7293429D01*
X18396857Y7329715D01*
X18469428Y7402286D01*
X18505714Y7474858D01*
X18505714Y7620000D01*
X18469428Y7692572D01*
X18396857Y7765143D01*
X18251714Y7801429D01*
X17997714Y7801429D01*
X17852571Y7765143D01*
X17780000Y7692572D01*
X17743714Y7620000D01*
X17816285Y7003143D02*
X17780000Y6966858D01*
X17743714Y6894286D01*
X17743714Y6712858D01*
X17780000Y6640286D01*
X17816285Y6604000D01*
X17888857Y6567715D01*
X17961428Y6567715D01*
X18070285Y6604000D01*
X18505714Y7039429D01*
X18505714Y6567715D01*
X15875000Y9252858D02*
X15838714Y9325429D01*
X15838714Y9434286D01*
X15875000Y9543143D01*
X15947571Y9615715D01*
X16020142Y9652000D01*
X16165285Y9688286D01*
X16274142Y9688286D01*
X16419285Y9652000D01*
X16491857Y9615715D01*
X16564428Y9543143D01*
X16600714Y9434286D01*
X16600714Y9361715D01*
X16564428Y9252858D01*
X16528142Y9216572D01*
X16274142Y9216572D01*
X16274142Y9361715D01*
X16600714Y8890000D02*
X15838714Y8890000D01*
X15838714Y8599715D01*
X15875000Y8527143D01*
X15911285Y8490858D01*
X15983857Y8454572D01*
X16092714Y8454572D01*
X16165285Y8490858D01*
X16201571Y8527143D01*
X16237857Y8599715D01*
X16237857Y8890000D01*
X16600714Y8128000D02*
X15838714Y8128000D01*
X15838714Y7620000D02*
X15838714Y7474858D01*
X15875000Y7402286D01*
X15947571Y7329715D01*
X16092714Y7293429D01*
X16346714Y7293429D01*
X16491857Y7329715D01*
X16564428Y7402286D01*
X16600714Y7474858D01*
X16600714Y7620000D01*
X16564428Y7692572D01*
X16491857Y7765143D01*
X16346714Y7801429D01*
X16092714Y7801429D01*
X15947571Y7765143D01*
X15875000Y7692572D01*
X15838714Y7620000D01*
X15838714Y6604000D02*
X15838714Y6966858D01*
X16201571Y7003143D01*
X16165285Y6966858D01*
X16129000Y6894286D01*
X16129000Y6712858D01*
X16165285Y6640286D01*
X16201571Y6604000D01*
X16274142Y6567715D01*
X16455571Y6567715D01*
X16528142Y6604000D01*
X16564428Y6640286D01*
X16600714Y6712858D01*
X16600714Y6894286D01*
X16564428Y6966858D01*
X16528142Y7003143D01*
X14296571Y10069286D02*
X14296571Y9815286D01*
X14695714Y9706429D02*
X14695714Y10069286D01*
X13933714Y10069286D01*
X13933714Y9706429D01*
X14659428Y9416143D02*
X14695714Y9307286D01*
X14695714Y9125858D01*
X14659428Y9053286D01*
X14623142Y9017000D01*
X14550571Y8980715D01*
X14478000Y8980715D01*
X14405428Y9017000D01*
X14369142Y9053286D01*
X14332857Y9125858D01*
X14296571Y9271000D01*
X14260285Y9343572D01*
X14224000Y9379858D01*
X14151428Y9416143D01*
X14078857Y9416143D01*
X14006285Y9379858D01*
X13970000Y9343572D01*
X13933714Y9271000D01*
X13933714Y9089572D01*
X13970000Y8980715D01*
X14695714Y8654143D02*
X13933714Y8654143D01*
X13933714Y8363858D01*
X13970000Y8291286D01*
X14006285Y8255000D01*
X14078857Y8218715D01*
X14187714Y8218715D01*
X14260285Y8255000D01*
X14296571Y8291286D01*
X14332857Y8363858D01*
X14332857Y8654143D01*
X14768285Y8073572D02*
X14768285Y7493000D01*
X14296571Y7311572D02*
X14296571Y7057572D01*
X14695714Y6948715D02*
X14695714Y7311572D01*
X13933714Y7311572D01*
X13933714Y6948715D01*
X14695714Y6622143D02*
X13933714Y6622143D01*
X14695714Y6186715D01*
X13933714Y6186715D01*
X10885714Y4481286D02*
X10885714Y4916715D01*
X10885714Y4699000D02*
X10123714Y4699000D01*
X10232571Y4771572D01*
X10305142Y4844143D01*
X10341428Y4916715D01*
X12065000Y8454572D02*
X12028714Y8527143D01*
X12028714Y8636000D01*
X12065000Y8744858D01*
X12137571Y8817429D01*
X12210142Y8853715D01*
X12355285Y8890000D01*
X12464142Y8890000D01*
X12609285Y8853715D01*
X12681857Y8817429D01*
X12754428Y8744858D01*
X12790714Y8636000D01*
X12790714Y8563429D01*
X12754428Y8454572D01*
X12718142Y8418286D01*
X12464142Y8418286D01*
X12464142Y8563429D01*
X12790714Y8091715D02*
X12028714Y8091715D01*
X12790714Y7656286D01*
X12028714Y7656286D01*
X12790714Y7293429D02*
X12028714Y7293429D01*
X12028714Y7112000D01*
X12065000Y7003143D01*
X12137571Y6930572D01*
X12210142Y6894286D01*
X12355285Y6858000D01*
X12464142Y6858000D01*
X12609285Y6894286D01*
X12681857Y6930572D01*
X12754428Y7003143D01*
X12790714Y7112000D01*
X12790714Y7293429D01*
X10595428Y9779000D02*
X10595428Y9198429D01*
X10885714Y9488715D02*
X10305142Y9488715D01*
X10123714Y8908143D02*
X10123714Y8436429D01*
X10414000Y8690429D01*
X10414000Y8581572D01*
X10450285Y8509000D01*
X10486571Y8472715D01*
X10559142Y8436429D01*
X10740571Y8436429D01*
X10813142Y8472715D01*
X10849428Y8509000D01*
X10885714Y8581572D01*
X10885714Y8799286D01*
X10849428Y8871858D01*
X10813142Y8908143D01*
X10813142Y8109858D02*
X10849428Y8073572D01*
X10885714Y8109858D01*
X10849428Y8146143D01*
X10813142Y8109858D01*
X10885714Y8109858D01*
X10123714Y7819572D02*
X10123714Y7347858D01*
X10414000Y7601858D01*
X10414000Y7493000D01*
X10450285Y7420429D01*
X10486571Y7384143D01*
X10559142Y7347858D01*
X10740571Y7347858D01*
X10813142Y7384143D01*
X10849428Y7420429D01*
X10885714Y7493000D01*
X10885714Y7710715D01*
X10849428Y7783286D01*
X10813142Y7819572D01*
X10123714Y7130143D02*
X10885714Y6876143D01*
X10123714Y6622143D01*
D10*
X14887000Y46387000D02*
G75*
G03X14887000Y50387000I0J2000000D01*
G01*
D14*
X14936980Y46637000D02*
G75*
G03X14937000Y50137000I-49980J1750000D01*
G01*
D10*
X14887000Y46887000D02*
G75*
G03X14887000Y49887000I0J1500000D01*
G01*
D14*
X18436980Y46637000D02*
G75*
G03X18437000Y50137000I-49980J1750000D01*
G01*
D10*
X18387000Y46387000D02*
G75*
G03X18387000Y50387000I0J2000000D01*
G01*
X18387000Y46887000D02*
G75*
G03X18387000Y49887000I0J1500000D01*
G01*
X18387000Y50387000D02*
X18387000Y49887000D01*
X18387000Y46887000D02*
X18387000Y46387000D01*
X14887000Y46887000D02*
X14887000Y46387000D01*
X14887000Y50387000D02*
X14887000Y49887000D01*
X16387000Y48637000D02*
X15137000Y48637000D01*
X15137000Y48637000D02*
X15137000Y48137000D01*
X15137000Y48137000D02*
X16387000Y48137000D01*
X15137000Y48387000D02*
X16387000Y48387000D01*
X47752000Y44577000D02*
G75*
G02X48006000Y44831000I254000J0D01*
G01*
X48006000Y41529000D02*
G75*
G02X47752000Y41783000I0J254000D01*
G01*
X49784000Y41783000D02*
G75*
G02X49530000Y41529000I-254000J0D01*
G01*
X49530000Y44831000D02*
G75*
G02X49784000Y44577000I0J-254000D01*
G01*
X49784000Y41783000D02*
X49784000Y44577000D01*
X48006000Y41529000D02*
X49530000Y41529000D01*
X48006000Y44831000D02*
X49530000Y44831000D01*
X47752000Y44577000D02*
X47752000Y41783000D01*
D15*
X17850747Y14986000D02*
G75*
G03X17850747Y14986000I-337447J0D01*
G01*
D16*
X17526000Y15760700D02*
X17018000Y16268700D01*
X15925800Y16344900D02*
X15290800Y15735300D01*
X15316200Y13779500D02*
X15875000Y13195300D01*
X13690600Y13182600D02*
X14147800Y13639800D01*
X12704800Y13182600D02*
X13690600Y13182600D01*
D15*
X12558324Y13208000D02*
G75*
G03X12558324Y13208000I-366324J0D01*
G01*
D16*
X12192000Y15900400D02*
X12192000Y14300200D01*
D15*
X12552818Y16433800D02*
G75*
G03X12552818Y16433800I-373518J0D01*
G01*
X11319759Y13233400D02*
G75*
G03X11319759Y13233400I-359659J0D01*
G01*
D16*
X10972800Y13741400D02*
X10972800Y16332200D01*
X10972800Y16332200D02*
X10134600Y16332200D01*
X10134600Y16332200D02*
X9525000Y15824200D01*
X9423400Y15036800D02*
X9423400Y15748000D01*
X9347200Y15824200D02*
X8712200Y16332200D01*
D15*
X9794318Y14503400D02*
G75*
G03X9794318Y14503400I-370918J0D01*
G01*
D16*
X8712200Y16332200D02*
X7823200Y16332200D01*
D15*
X8173729Y13220700D02*
G75*
G03X8173729Y13220700I-363229J0D01*
G01*
X2310666Y13131800D02*
G75*
G03X2310666Y13131800I-329466J0D01*
G01*
D16*
X2311400Y13487400D02*
X3149600Y14300200D01*
D17*
X3657600Y14401800D02*
X3124200Y14401800D01*
D16*
X4800600Y13182600D02*
X3657600Y14300200D01*
X6121400Y13182600D02*
X4800600Y13182600D01*
X6553200Y13614400D02*
X6121400Y13182600D01*
X6553200Y15849600D02*
X6553200Y13614400D01*
X6553200Y15875000D02*
X6070600Y16383000D01*
X6022500Y16357600D02*
X4800600Y16357600D01*
X4800600Y16357600D02*
X3708400Y15290800D01*
D17*
X3683000Y15176500D02*
X3124200Y15176500D01*
D16*
X2260600Y16167100D02*
X3124200Y15273400D01*
D15*
X2251735Y16522700D02*
G75*
G03X2251735Y16522700I-359435J0D01*
G01*
D16*
X5334000Y14782800D02*
X6553200Y14782800D01*
D15*
X5185659Y14782800D02*
G75*
G03X5185659Y14782800I-359659J0D01*
G01*
D16*
X16954500Y13169900D02*
X15913100Y13169900D01*
X17513300Y13728700D02*
X17513300Y14490700D01*
X17526000Y13741400D02*
X16941800Y13169900D01*
X17526000Y15709900D02*
X17526000Y15468600D01*
X15303500Y15748000D02*
X15303500Y13817600D01*
X15925800Y16357600D02*
X16929100Y16357600D01*
X7810500Y16344900D02*
X7810500Y13741400D01*
X14147800Y13627100D02*
X14147800Y16357600D01*
D18*
X14147800Y16700500D02*
X14427200Y16700500D01*
X14452600Y16700500D02*
X14452600Y13550900D01*
X14439900Y16700500D02*
X14452600Y16700500D01*
X14427200Y16700500D02*
X14439900Y16700500D01*
X14312900Y16611600D02*
X14376400Y16624300D01*
X13830300Y16700500D02*
X13830300Y13665200D01*
X14135100Y16700500D02*
X13830300Y16700500D01*
X14008100Y16624300D02*
X13893800Y16624300D01*
X12509500Y16014700D02*
X12509500Y13995400D01*
X11874500Y13995400D02*
X11874500Y16014700D01*
X11899900Y13995400D02*
X11874500Y13995400D01*
X12509500Y13995400D02*
X11899900Y13995400D01*
X12369800Y14058900D02*
X12433300Y14058900D01*
X12026900Y14058900D02*
X11938000Y14058900D01*
X11290300Y13652500D02*
X11290300Y16637000D01*
X10045700Y16649700D02*
X9461500Y16167100D01*
X11290300Y16649700D02*
X10045700Y16649700D01*
X11137900Y16586200D02*
X11214100Y16586200D01*
X7480300Y13627100D02*
X7480300Y16637000D01*
X8801100Y16649700D02*
X9423400Y16154400D01*
X8775700Y16649700D02*
X8801100Y16649700D01*
X7480300Y16649700D02*
X8775700Y16649700D01*
X7480300Y16637000D02*
X7480300Y16649700D01*
X7632700Y16573500D02*
X7531100Y16573500D01*
X4686300Y16687800D02*
X3429000Y15443200D01*
X4737100Y16687800D02*
X4686300Y16687800D01*
X6108700Y16687800D02*
X4737100Y16687800D01*
D10*
X22478556Y23089629D02*
G75*
G02X22225000Y22479000I-865696J1511D01*
G01*
X21032020Y24584820D02*
G75*
G02X21539200Y23553420I-991420J-1127920D01*
G01*
X21949340Y22448954D02*
G75*
G02X21539200Y23545800I1118940J1043506D01*
G01*
X22226788Y22350209D02*
G75*
G02X21922740Y22476460I752J431051D01*
G01*
X21660340Y22356387D02*
G75*
G02X21158200Y23152100I709440J1003993D01*
G01*
X20778795Y24490934D02*
G75*
G02X21132800Y23500080I-1408755J-1061974D01*
G01*
X21311927Y22350697D02*
G75*
G02X21112480Y22374860I-1327J824263D01*
G01*
X21110497Y22375547D02*
G75*
G02X20530820Y22649180I205183J1185493D01*
G01*
X20506946Y22671026D02*
G75*
G02X20193000Y23428960I757934J757934D01*
G01*
X20193283Y23428513D02*
G75*
G02X20264120Y23797260I992857J447D01*
G01*
X20328148Y24731864D02*
G75*
G02X20264120Y23797260I-1478808J-368184D01*
G01*
X21630000Y24710489D02*
G75*
G02X22352000Y24066500I-601340J-1400909D01*
G01*
X22405794Y23970679D02*
G75*
G02X22606000Y23215600I-1323794J-755079D01*
G01*
X22607874Y23215099D02*
G75*
G02X22522180Y22771100I-1195674J501D01*
G01*
X22651720Y22096388D02*
G75*
G02X22359620Y22217380I0J413092D01*
G01*
X23009134Y22246046D02*
G75*
G02X22651720Y22098000I-357414J357414D01*
G01*
X23382258Y22080290D02*
G75*
G02X23114000Y22733000I653762J650170D01*
G01*
X23619978Y21462720D02*
G75*
G02X23114000Y22687280I1228842J1224560D01*
G01*
X27184379Y26001814D02*
G75*
G02X25841960Y25786080I-1812319J6992786D01*
G01*
X24060130Y25212066D02*
G75*
G02X25323800Y25712420I2134890J-3545866D01*
G01*
X22993641Y24134235D02*
G75*
G02X24048720Y25204420I3831299J-2722035D01*
G01*
X23113155Y22859931D02*
G75*
G02X23233380Y23797260I762845J378529D01*
G01*
X23404473Y23985844D02*
G75*
G02X25958800Y25255220I3654147J-4148444D01*
G01*
X28295541Y26066222D02*
G75*
G02X26268680Y25316180I-2631381J3997218D01*
G01*
X23561549Y21774441D02*
G75*
G02X23114000Y22860000I1086611J1083019D01*
G01*
X22987760Y24511757D02*
G75*
G02X23047960Y25189180I3049780J70363D01*
G01*
X23194736Y25792415D02*
G75*
G02X25245060Y27305000I2144304J-760715D01*
G01*
X29108952Y27449478D02*
G75*
G02X27393900Y27109420I-1268012J1900222D01*
G01*
X27082933Y23525987D02*
G75*
G02X25217120Y22860000I-1738813J1924813D01*
G01*
X29103464Y25945553D02*
G75*
G02X27122120Y23563580I-8344044J4925607D01*
G01*
X23390860Y23136860D02*
G75*
G02X24109680Y23134320I358140J-360680D01*
G01*
X24701500Y22857934D02*
G75*
G02X24163020Y23080980I0J761526D01*
G01*
X25019000Y19050000D02*
G75*
G02X23495000Y20574000I0J1524000D01*
G01*
X38354000Y20574000D02*
G75*
G02X36830000Y19050000I-1524000J0D01*
G01*
X36830000Y22098000D02*
G75*
G02X38354000Y20574000I0J-1524000D01*
G01*
X23495000Y20574000D02*
G75*
G02X25019000Y22098000I1524000J0D01*
G01*
X21463000Y22479000D02*
X20955000Y22479000D01*
X21336000Y22606000D02*
X20701000Y22606000D01*
X21209000Y22733000D02*
X20574000Y22733000D01*
X21209000Y22860000D02*
X20447000Y22860000D01*
X21158200Y22987000D02*
X20320000Y22987000D01*
X21082000Y23114000D02*
X20320000Y23114000D01*
X21082000Y23241000D02*
X20320000Y23241000D01*
X21082000Y23368000D02*
X20320000Y23368000D01*
X21082000Y23495000D02*
X20320000Y23495000D01*
X21082000Y23622000D02*
X20320000Y23622000D01*
X21082000Y23749000D02*
X20320000Y23749000D01*
X21082000Y23876000D02*
X20447000Y23876000D01*
X20955000Y24003000D02*
X20447000Y24003000D01*
X20955000Y24130000D02*
X20447000Y24130000D01*
X20574000Y24638000D02*
X20574000Y24130000D01*
X20701000Y24638000D02*
X20701000Y24130000D01*
X20828000Y25019000D02*
X20320000Y25019000D01*
X20955000Y24892000D02*
X20320000Y24892000D01*
X21209000Y24765000D02*
X20447000Y24765000D01*
X20701000Y24638000D02*
X21590000Y24638000D01*
X20574000Y24638000D02*
X20701000Y24638000D01*
X20447000Y24638000D02*
X20574000Y24638000D01*
X21209000Y24511000D02*
X21717000Y24511000D01*
X21336000Y24384000D02*
X21971000Y24384000D01*
X21336000Y24257000D02*
X22098000Y24257000D01*
X21463000Y24130000D02*
X22225000Y24130000D01*
X21463000Y24003000D02*
X22352000Y24003000D01*
X21590000Y23876000D02*
X22352000Y23876000D01*
X21590000Y23749000D02*
X22352000Y23749000D01*
X21590000Y23622000D02*
X22479000Y23622000D01*
X21590000Y23495000D02*
X22479000Y23495000D01*
X22352000Y22733000D02*
X21844000Y22733000D01*
X22352000Y22860000D02*
X21717000Y22860000D01*
X22479000Y22987000D02*
X21717000Y22987000D01*
X22479000Y23114000D02*
X21717000Y23114000D01*
X22352000Y23241000D02*
X21717000Y23241000D01*
X21844000Y23368000D02*
X21844000Y22860000D01*
X21590000Y23368000D02*
X22098000Y22479000D01*
X21844000Y23368000D02*
X21590000Y23368000D01*
X22225000Y23368000D02*
X21844000Y23368000D01*
X22352000Y22733000D02*
X22352000Y22606000D01*
X22352000Y22860000D02*
X22352000Y22733000D01*
X22352000Y23241000D02*
X22352000Y22860000D01*
X22352000Y23368000D02*
X22352000Y23241000D01*
X22225000Y23368000D02*
X22225000Y22733000D01*
X22352000Y23368000D02*
X22225000Y23368000D01*
X22479000Y23368000D02*
X22352000Y23368000D01*
X22479000Y23114000D02*
X22479000Y23368000D01*
X22479000Y23091140D02*
X22479000Y23114000D01*
X21539200Y23545800D02*
X21539200Y23553420D01*
X21922740Y22476460D02*
X21950680Y22448520D01*
D19*
X25273000Y23876000D02*
X26543000Y24130000D01*
X24892000Y23749000D02*
X25273000Y23876000D01*
X24765000Y23876000D02*
X24892000Y23749000D01*
X24765000Y24003000D02*
X24765000Y23876000D01*
X25273000Y24257000D02*
X24765000Y24003000D01*
X25527000Y24257000D02*
X25273000Y24257000D01*
X26543000Y24511000D02*
X25527000Y24257000D01*
X27051000Y24511000D02*
X26543000Y24511000D01*
X27178000Y24384000D02*
X27051000Y24511000D01*
X27051000Y24257000D02*
X27178000Y24384000D01*
X26416000Y23749000D02*
X27051000Y24257000D01*
X25908000Y23622000D02*
X26416000Y23749000D01*
X25527000Y23495000D02*
X25908000Y23622000D01*
X24892000Y23495000D02*
X25527000Y23495000D01*
X24511000Y23622000D02*
X24892000Y23495000D01*
X24257000Y23622000D02*
X24511000Y23622000D01*
X24130000Y23876000D02*
X24257000Y23622000D01*
X24257000Y24003000D02*
X24130000Y23876000D01*
X24892000Y24511000D02*
X24257000Y24003000D01*
X25908000Y24765000D02*
X24892000Y24511000D01*
X27051000Y24892000D02*
X25908000Y24765000D01*
X27178000Y24892000D02*
X27051000Y24892000D01*
X27305000Y24765000D02*
X27178000Y24892000D01*
X28067000Y25400000D02*
X27305000Y24765000D01*
X27432000Y25400000D02*
X28194000Y25781000D01*
X26695400Y25146000D02*
X27432000Y25400000D01*
X26085800Y25146000D02*
X26695400Y25146000D01*
X24688800Y24663400D02*
X26085800Y25146000D01*
X24003000Y24257000D02*
X24688800Y24663400D01*
X23495000Y23749000D02*
X24003000Y24257000D01*
X23241000Y23241000D02*
X23495000Y23749000D01*
X23495000Y23495000D02*
X23241000Y23241000D01*
X23876000Y23622000D02*
X23495000Y23495000D01*
X24638000Y23114000D02*
X23876000Y23622000D01*
X25527000Y23114000D02*
X24638000Y23114000D01*
X26416000Y23368000D02*
X25527000Y23114000D01*
X26924000Y23749000D02*
X26416000Y23368000D01*
X27813000Y24638000D02*
X26924000Y23749000D01*
X28067000Y25019000D02*
X27813000Y24638000D01*
X28448000Y25527000D02*
X28067000Y25019000D01*
X28577540Y26035000D02*
X28956000Y26921460D01*
X28577540Y25654000D02*
X28577540Y26035000D01*
X28956000Y26162000D02*
X28577540Y25654000D01*
X29083000Y26670000D02*
X28956000Y26162000D01*
X29591000Y27559000D02*
X29083000Y26670000D01*
X24003000Y26035000D02*
X25654000Y26035000D01*
X24130000Y26416000D02*
X29083000Y26492200D01*
X24130000Y26162000D02*
X24130000Y26416000D01*
X24130000Y26670000D02*
X24130000Y26416000D01*
X28702000Y26670000D02*
X24130000Y26670000D01*
X28194000Y26543000D02*
X28702000Y26670000D01*
X26924000Y26162000D02*
X28194000Y26543000D01*
X25781000Y26035000D02*
X26924000Y26162000D01*
X25654000Y26035000D02*
X25781000Y26035000D01*
X25146000Y26035000D02*
X25654000Y26035000D01*
X24511000Y25654000D02*
X25146000Y26035000D01*
X24130000Y26162000D02*
X23749000Y25654000D01*
X24384000Y25654000D02*
X24130000Y26162000D01*
X23749000Y25273000D02*
X24384000Y25654000D01*
X23241000Y24638000D02*
X23749000Y25273000D01*
X23368000Y25654000D02*
X23241000Y24638000D01*
X23622000Y26162000D02*
X23368000Y25654000D01*
X24130000Y26670000D02*
X23622000Y26162000D01*
X24765000Y27051000D02*
X24130000Y26670000D01*
X26416000Y27051000D02*
X24765000Y27051000D01*
X27432000Y26921460D02*
X26416000Y27051000D01*
X28577540Y26921460D02*
X27432000Y26921460D01*
D10*
X29591000Y27559000D02*
X28577540Y26921460D01*
X21132800Y23543260D02*
X21158200Y23152100D01*
X22212300Y22352000D02*
X22225000Y22352000D01*
X21310600Y22352000D02*
X21666200Y22352000D01*
X20507960Y22672040D02*
X20530820Y22649180D01*
X20193000Y25273000D02*
X20327620Y24734520D01*
X21209000Y24892000D02*
X20193000Y25273000D01*
X21630640Y24711660D02*
X21209000Y24892000D01*
X22405340Y23972520D02*
X22352000Y24066500D01*
X22225000Y22352000D02*
X22522180Y22771100D01*
X22359620Y22217380D02*
X22225000Y22352000D01*
X23114000Y22352000D02*
X23009860Y22245320D01*
X23876000Y21590000D02*
X23385780Y22080220D01*
X23114000Y22687280D02*
X23114000Y22733000D01*
X23749000Y21463000D02*
X23241000Y22225000D01*
X27190700Y26001980D02*
X28577540Y26416000D01*
X25323800Y25712420D02*
X25841960Y25786080D01*
X24048720Y25204420D02*
X24056340Y25209500D01*
X22989540Y24130000D02*
X22992080Y24132540D01*
X23403560Y23985220D02*
X23233380Y23797260D01*
X26268680Y25316180D02*
X25958800Y25255220D01*
X28577540Y26416000D02*
X28295600Y26068020D01*
X23749000Y21590000D02*
X23563580Y21775420D01*
X23091140Y22905720D02*
X23114000Y22860000D01*
X22989540Y24511000D02*
X22989540Y24130000D01*
X23195280Y25788620D02*
X23047960Y25189180D01*
X27393900Y27109420D02*
X25245060Y27305000D01*
X29972000Y28067000D02*
X29110940Y27447240D01*
X25217120Y22860000D02*
X24701500Y22860000D01*
X27122120Y23563580D02*
X27086560Y23528020D01*
X29972000Y28067000D02*
X29105860Y25951180D01*
X23390860Y23134320D02*
X23114000Y22860000D01*
X24163020Y23080980D02*
X24109680Y23134320D01*
X36830000Y19050000D02*
X25019000Y19050000D01*
X25019000Y22098000D02*
X36830000Y22098000D01*
D20*
X25098000Y12623000D02*
X25098000Y11861000D01*
X29670000Y12623000D02*
X25098000Y12623000D01*
X29670000Y11861000D02*
X29670000Y12623000D01*
X25098000Y11861000D02*
X29670000Y11861000D01*
X25148800Y12572200D02*
X29568400Y12572200D01*
X29619200Y12470600D02*
X25148800Y12470600D01*
X25148800Y12318200D02*
X29568400Y12318200D01*
X25148800Y12165800D02*
X29568400Y12165800D01*
X29619200Y12419800D02*
X25199600Y12419800D01*
X29619200Y12267400D02*
X25148800Y12267400D01*
X25199600Y12064200D02*
X29568400Y12064200D01*
X29619200Y11962600D02*
X25199600Y11962600D01*
D10*
X29464000Y17399000D02*
X25273000Y13208000D01*
X29337000Y13335000D02*
X25273000Y17272000D01*
X28321000Y13716000D02*
X26924000Y13716000D01*
X28321000Y13716000D02*
X28575000Y16764000D01*
X28829000Y16891000D02*
X25908000Y16891000D01*
X27813000Y13335000D02*
X27813000Y13589000D01*
X28321000Y13335000D02*
X27813000Y13335000D01*
X28321000Y13716000D02*
X28321000Y13335000D01*
X26416000Y14224000D02*
X26289000Y16256000D01*
X26817609Y13716000D02*
G75*
G03X26817609Y13716000I-401609J0D01*
G01*
X28194000Y17526000D02*
X28194000Y17018000D01*
X28321000Y17526000D02*
X28194000Y17526000D01*
X28321000Y17018000D02*
X28321000Y17526000D01*
X25908000Y16383000D02*
X25908000Y16891000D01*
X26289000Y16383000D02*
X25908000Y16383000D01*
X26289000Y16891000D02*
X26289000Y16383000D01*
X26162000Y16764000D02*
X26162000Y16637000D01*
X26162000Y16891000D02*
X26035000Y16510000D01*
X26162000Y16764000D02*
X26162000Y16637000D01*
X26035000Y16764000D02*
X26035000Y16383000D01*
X26162000Y16764000D02*
X26035000Y16764000D01*
X26162000Y16383000D02*
X26162000Y16764000D01*
X27559000Y16002000D02*
X27559000Y16383000D01*
X26670000Y16002000D02*
X27559000Y16002000D01*
X26670000Y16383000D02*
X26670000Y16002000D01*
X27559000Y16383000D02*
X26670000Y16383000D01*
X27432000Y16256000D02*
X26797000Y16256000D01*
X27178000Y17780000D02*
X27559000Y17780000D01*
X27178000Y17653000D02*
X27178000Y17780000D01*
X27559000Y17653000D02*
X27178000Y17653000D01*
X27559000Y17780000D02*
X27559000Y17653000D01*
X26289000Y17018000D02*
G75*
G02X28575000Y17018000I1143000J-1143000D01*
G01*
D21*
X26543000Y13716000D02*
G75*
G03X26543000Y13716000I-127000J0D01*
G01*
D10*
X49605037Y21656040D02*
G75*
G03X49605037Y21656040I-1802237J0D01*
G01*
D22*
X46642020Y20492720D02*
X49075340Y22913340D01*
D23*
X10116820Y20779740D02*
X9565640Y22202140D01*
D24*
X10462260Y20965160D02*
X10144760Y20759420D01*
D15*
X11252200Y20416520D02*
X10472420Y20947380D01*
D25*
X11828780Y20955000D02*
X11264900Y20416520D01*
D24*
X11813540Y20955000D02*
X11280140Y21788120D01*
X11638280Y22715220D02*
X11280140Y21831300D01*
X12616180Y22956520D02*
X11666220Y22738080D01*
D25*
X12606020Y23733760D02*
X12611100Y22946360D01*
D24*
X12618720Y23746460D02*
X11600180Y23926800D01*
X11569700Y23962360D02*
X11221720Y24828500D01*
X11798300Y25730200D02*
X11242040Y24879300D01*
D25*
X11808460Y25753060D02*
X11308080Y26286460D01*
D24*
X11259820Y26311860D02*
X10431780Y25659080D01*
X10370820Y25669240D02*
X9525000Y26075640D01*
X9265920Y27109420D02*
X9471660Y26095960D01*
X9273540Y27122120D02*
X8488680Y27122120D01*
X8506460Y27101800D02*
X8293100Y26083260D01*
X8293100Y26083260D02*
X7391400Y25633680D01*
X7378700Y25638760D02*
X6474460Y26273200D01*
X6474460Y26271220D02*
X5920740Y25725120D01*
X5920740Y25722580D02*
X6537960Y24932640D01*
X6537960Y24932640D02*
X6197600Y23995380D01*
X6197600Y23995380D02*
X5115560Y23766780D01*
X5115560Y23766780D02*
X5115560Y22931120D01*
X5115560Y22931120D02*
X6129020Y22760940D01*
X6129020Y22760940D02*
X6535420Y21849080D01*
X6484620Y20401280D02*
X7320280Y20967700D01*
X7320280Y20967700D02*
X7658100Y20782280D01*
X7658100Y20782280D02*
X8232140Y22222460D01*
X8221980Y22225000D02*
G75*
G02X7851140Y24089360I746760J1117600D01*
G01*
X7840980Y24074120D02*
G75*
G02X9766300Y24272240I1061720J-863600D01*
G01*
X9791700Y24246840D02*
G75*
G02X9715500Y22392640I-965200J-889000D01*
G01*
X6535420Y21849080D02*
X5915660Y20962620D01*
X6469380Y20408900D02*
X5915660Y20955000D01*
D20*
X10035540Y20599400D02*
X9385300Y22268180D01*
X10419080Y20802600D02*
X10073640Y20581620D01*
X10431780Y20812760D02*
X11257280Y20248880D01*
X11264900Y20241260D02*
X11986260Y20934680D01*
X11993880Y20937220D02*
X11396980Y21800820D01*
X12755880Y22844760D02*
X11684000Y22649180D01*
X12755880Y23837900D02*
X12755880Y22852380D01*
X12758420Y23840440D02*
X11587480Y24043640D01*
X11689080Y24038560D02*
X11353800Y24871680D01*
X11950700Y25722580D02*
X11356340Y24869140D01*
X11971020Y25758140D02*
X11297920Y26471880D01*
X11285220Y26474420D02*
X10314940Y25758140D01*
X10350500Y25826720D02*
X9446260Y26205180D01*
X9362440Y27221180D02*
X9563100Y26195020D01*
X9352280Y27228800D02*
X8387080Y27228800D01*
X8387080Y27228800D02*
X8161020Y26057860D01*
X8171180Y26139140D02*
X7366000Y25801320D01*
X7485380Y25753060D02*
X6474460Y26426160D01*
X6469380Y26428700D02*
X5775960Y25737820D01*
X5770880Y25730200D02*
X6474460Y24739600D01*
X6385560Y24848820D02*
X6019800Y23980140D01*
X5082540Y23078440D02*
X6189980Y22854920D01*
X4998720Y23820120D02*
X5001260Y22862540D01*
X6136640Y22631400D02*
X5013960Y22842220D01*
X6032500Y22664420D02*
X6413500Y21683980D01*
X6065520Y21028660D02*
X6550660Y20497800D01*
X6461760Y20253960D02*
X5778500Y20944840D01*
X7348220Y20868640D02*
X6471920Y20248880D01*
X6484620Y20563840D02*
X7305040Y21092160D01*
X7167880Y20896580D02*
X7696200Y20568920D01*
X7696200Y20568920D02*
X8082280Y21549360D01*
X8087360Y22247860D02*
X7559040Y20866100D01*
X12463780Y23649940D02*
X12463780Y22999700D01*
X12606020Y23594060D02*
X11490960Y23840440D01*
X11076940Y24861520D02*
X11463020Y23863300D01*
X11071860Y24856440D02*
X11673840Y25765760D01*
X11315700Y26210260D02*
X10431780Y25488900D01*
X8044180Y22189440D02*
X7866380Y22311360D01*
X7866380Y22311360D02*
X7490460Y23022560D01*
X7490460Y23022560D02*
X7490460Y23540720D01*
X7485380Y23528020D02*
X7719060Y24201120D01*
X7719060Y24201120D02*
X8229600Y24630380D01*
X8229600Y24630380D02*
X9044940Y24790400D01*
X9044940Y24798020D02*
X9916160Y24368760D01*
X9916160Y24368760D02*
X10335260Y23637240D01*
X10340340Y23632160D02*
X10208260Y22809200D01*
X10203180Y22778720D02*
X10109200Y22608540D01*
X10203180Y22778720D02*
X10109200Y22608540D01*
X9979660Y22557740D02*
X9720580Y22219920D01*
X9611360Y22443440D02*
X9385300Y22268180D01*
X8110220Y22440900D02*
X8364220Y22275800D01*
X8247380Y21986240D02*
X8369300Y22270720D01*
X10426700Y25491440D02*
X9443720Y25984200D01*
X10096500Y22578060D02*
X9789160Y22311360D01*
D26*
X11112500Y21148040D02*
X10259060Y22169120D01*
X12148820Y23352760D02*
X10731500Y23413720D01*
X11163300Y25638760D02*
X10101580Y24531320D01*
X8902700Y26614120D02*
X8897620Y25100280D01*
X6637020Y25557480D02*
X7749540Y24490680D01*
X5646420Y23373080D02*
X7114540Y23286720D01*
X10436860Y21320760D02*
X10071100Y22082760D01*
X11102340Y22219920D02*
X10538460Y22699980D01*
X11351260Y22865080D02*
X10645140Y22992080D01*
X11026140Y24109680D02*
X10584180Y23949660D01*
X10850880Y24589740D02*
X10393680Y24300180D01*
X9852660Y25366980D02*
X9677400Y25008840D01*
X9418320Y25626060D02*
X9250680Y25016460D01*
X8153400Y25610820D02*
X8374380Y24925020D01*
X7566660Y25359360D02*
X7985760Y24772620D01*
X6697980Y24490680D02*
X7353300Y24124920D01*
X6456680Y23797260D02*
X7178040Y23649940D01*
X7292340Y22639020D02*
X6682740Y22532340D01*
X7612380Y22219920D02*
X6995160Y21892260D01*
X7726680Y22082760D02*
X6545580Y21069300D01*
X7726680Y22174200D02*
X7393940Y21442680D01*
D10*
X43434000Y13208000D02*
G75*
G02X43561000Y13081000I0J-127000D01*
G01*
X43307000Y13144500D02*
G75*
G02X43370500Y13208000I63500J0D01*
G01*
X43368071Y12951455D02*
G75*
G02X43307000Y13017500I2429J63505D01*
G01*
X43751500Y13335000D02*
G75*
G02X43370500Y12954000I-381000J0D01*
G01*
X43562048Y14730425D02*
G75*
G02X43751500Y14414500I-168688J-315925D01*
G01*
X43559549Y14731858D02*
G75*
G02X43243500Y15049500I478971J792622D01*
G01*
X43368935Y14222155D02*
G75*
G02X42672000Y14668500I153965J1007685D01*
G01*
X42925068Y13461326D02*
G75*
G02X42926000Y13144500I-316568J-159346D01*
G01*
X42925967Y13144400D02*
G75*
G02X42799000Y13017500I-190467J63600D01*
G01*
X41597275Y13905507D02*
G75*
G02X42037000Y13779500I-825195J-3709947D01*
G01*
X42036915Y13778035D02*
G75*
G02X42608500Y13017500I-284395J-808795D01*
G01*
X41974708Y14222834D02*
G75*
G02X42926000Y13462000I-285688J-1332334D01*
G01*
X41462461Y13968424D02*
G75*
G02X40640000Y14414500I147819J1253796D01*
G01*
X40131301Y14604526D02*
G75*
G02X40640000Y14414500I64199J-604046D01*
G01*
X41655915Y15555886D02*
G75*
G02X41440100Y15494000I-182795J230214D01*
G01*
X41656721Y15557322D02*
G75*
G02X43243500Y15049500I466639J-1274902D01*
G01*
X43370500Y13208000D02*
X43434000Y13208000D01*
X43370500Y13208000D02*
X43370500Y14224000D01*
X43307000Y13017500D02*
X43307000Y13144500D01*
X43751500Y14414500D02*
X43751500Y13335000D01*
X42799000Y13017500D02*
X42646600Y13017500D01*
X39814500Y14605000D02*
X40132000Y14605000D01*
X41440100Y15494000D02*
X40259000Y15494000D01*
X43815000Y15430500D02*
X38481000Y11938000D01*
X40259000Y15494000D02*
X42037000Y19050000D01*
X39814500Y14605000D02*
X40259000Y15494000D01*
X38481000Y11938000D02*
X39814500Y14605000D01*
X45593000Y11938000D02*
X38481000Y11938000D01*
X42037000Y19050000D02*
X45593000Y11938000D01*
X35115500Y30162500D02*
G75*
G02X35369500Y30416500I254000J0D01*
G01*
X35369500Y27114500D02*
G75*
G02X35115500Y27368500I0J254000D01*
G01*
X37147500Y27368500D02*
G75*
G02X36893500Y27114500I-254000J0D01*
G01*
X36893500Y30416500D02*
G75*
G02X37147500Y30162500I0J-254000D01*
G01*
X37147500Y27368500D02*
X37147500Y30162500D01*
X35369500Y27114500D02*
X36893500Y27114500D01*
X35369500Y30416500D02*
X36893500Y30416500D01*
X35115500Y30162500D02*
X35115500Y27368500D01*
X20701000Y29591000D02*
X20701000Y26797000D01*
X22479000Y29845000D02*
X20955000Y29845000D01*
X22479000Y26543000D02*
X20955000Y26543000D01*
X22733000Y26797000D02*
X22733000Y29591000D01*
X20955000Y26543000D02*
G75*
G02X20701000Y26797000I0J254000D01*
G01*
X20701000Y29591000D02*
G75*
G02X20955000Y29845000I254000J0D01*
G01*
X22479000Y29845000D02*
G75*
G02X22733000Y29591000I0J-254000D01*
G01*
X22733000Y26797000D02*
G75*
G02X22479000Y26543000I-254000J0D01*
G01*
D12*
X46548523Y41716477D02*
X47153285Y41716477D01*
X47153285Y42986477D01*
X46125190Y42381715D02*
X45701857Y42381715D01*
X45520428Y41716477D02*
X46125190Y41716477D01*
X46125190Y42986477D01*
X45520428Y42986477D01*
X44976142Y41716477D02*
X44976142Y42986477D01*
X44673761Y42986477D01*
X44492333Y42926000D01*
X44371380Y42805048D01*
X44310904Y42684096D01*
X44250428Y42442191D01*
X44250428Y42260762D01*
X44310904Y42018858D01*
X44371380Y41897905D01*
X44492333Y41776953D01*
X44673761Y41716477D01*
X44976142Y41716477D01*
X44008523Y41595524D02*
X43040904Y41595524D01*
X42738523Y42381715D02*
X42315190Y42381715D01*
X42133761Y41716477D02*
X42738523Y41716477D01*
X42738523Y42986477D01*
X42133761Y42986477D01*
X40924238Y41716477D02*
X41649952Y41716477D01*
X41287095Y41716477D02*
X41287095Y42986477D01*
X41408047Y42805048D01*
X41529000Y42684096D01*
X41649952Y42623620D01*
D27*
X35637288Y20283715D02*
X35709860Y20211143D01*
X35927574Y20138572D01*
X36072717Y20138572D01*
X36290431Y20211143D01*
X36435574Y20356286D01*
X36508145Y20501429D01*
X36580717Y20791715D01*
X36580717Y21009429D01*
X36508145Y21299715D01*
X36435574Y21444858D01*
X36290431Y21590000D01*
X36072717Y21662572D01*
X35927574Y21662572D01*
X35709860Y21590000D01*
X35637288Y21517429D01*
X34766431Y20138572D02*
X34911574Y20211143D01*
X34984145Y20283715D01*
X35056717Y20428858D01*
X35056717Y20864286D01*
X34984145Y21009429D01*
X34911574Y21082000D01*
X34766431Y21154572D01*
X34548717Y21154572D01*
X34403574Y21082000D01*
X34331002Y21009429D01*
X34258431Y20864286D01*
X34258431Y20428858D01*
X34331002Y20283715D01*
X34403574Y20211143D01*
X34548717Y20138572D01*
X34766431Y20138572D01*
X33605288Y20138572D02*
X33605288Y21154572D01*
X33605288Y21009429D02*
X33532717Y21082000D01*
X33387574Y21154572D01*
X33169860Y21154572D01*
X33024717Y21082000D01*
X32952145Y20936858D01*
X32952145Y20138572D01*
X32952145Y20936858D02*
X32879574Y21082000D01*
X32734431Y21154572D01*
X32516717Y21154572D01*
X32371574Y21082000D01*
X32299002Y20936858D01*
X32299002Y20138572D01*
X31573288Y21154572D02*
X31573288Y19630572D01*
X31573288Y21082000D02*
X31428145Y21154572D01*
X31137860Y21154572D01*
X30992717Y21082000D01*
X30920145Y21009429D01*
X30847574Y20864286D01*
X30847574Y20428858D01*
X30920145Y20283715D01*
X30992717Y20211143D01*
X31137860Y20138572D01*
X31428145Y20138572D01*
X31573288Y20211143D01*
X29976717Y20138572D02*
X30121860Y20211143D01*
X30194431Y20356286D01*
X30194431Y21662572D01*
X29396145Y20138572D02*
X29396145Y21154572D01*
X29396145Y21662572D02*
X29468717Y21590000D01*
X29396145Y21517429D01*
X29323574Y21590000D01*
X29396145Y21662572D01*
X29396145Y21517429D01*
X28017288Y20138572D02*
X28017288Y20936858D01*
X28089860Y21082000D01*
X28235002Y21154572D01*
X28525288Y21154572D01*
X28670431Y21082000D01*
X28017288Y20211143D02*
X28162431Y20138572D01*
X28525288Y20138572D01*
X28670431Y20211143D01*
X28743002Y20356286D01*
X28743002Y20501429D01*
X28670431Y20646572D01*
X28525288Y20719143D01*
X28162431Y20719143D01*
X28017288Y20791715D01*
X27291574Y21154572D02*
X27291574Y20138572D01*
X27291574Y21009429D02*
X27219002Y21082000D01*
X27073860Y21154572D01*
X26856145Y21154572D01*
X26711002Y21082000D01*
X26638431Y20936858D01*
X26638431Y20138572D01*
X26130431Y21154572D02*
X25549860Y21154572D01*
X25912717Y21662572D02*
X25912717Y20356286D01*
X25840145Y20211143D01*
X25695002Y20138572D01*
X25549860Y20138572D01*
D28*
X35523714Y23039252D02*
X36031714Y23764966D01*
X36394571Y23039252D02*
X36394571Y24563252D01*
X35814000Y24563252D01*
X35668857Y24490680D01*
X35596285Y24418109D01*
X35523714Y24272966D01*
X35523714Y24055252D01*
X35596285Y23910109D01*
X35668857Y23837538D01*
X35814000Y23764966D01*
X36394571Y23764966D01*
X34652857Y23039252D02*
X34798000Y23111823D01*
X34870571Y23184395D01*
X34943142Y23329538D01*
X34943142Y23764966D01*
X34870571Y23910109D01*
X34798000Y23982680D01*
X34652857Y24055252D01*
X34435142Y24055252D01*
X34290000Y23982680D01*
X34217428Y23910109D01*
X34144857Y23764966D01*
X34144857Y23329538D01*
X34217428Y23184395D01*
X34290000Y23111823D01*
X34435142Y23039252D01*
X34652857Y23039252D01*
X33491714Y23039252D02*
X33491714Y24563252D01*
X33491714Y23837538D02*
X32620857Y23837538D01*
X32620857Y23039252D02*
X32620857Y24563252D01*
X31967714Y23111823D02*
X31750000Y23039252D01*
X31387142Y23039252D01*
X31242000Y23111823D01*
X31169428Y23184395D01*
X31096857Y23329538D01*
X31096857Y23474680D01*
X31169428Y23619823D01*
X31242000Y23692395D01*
X31387142Y23764966D01*
X31677428Y23837538D01*
X31822571Y23910109D01*
X31895142Y23982680D01*
X31967714Y24127823D01*
X31967714Y24272966D01*
X31895142Y24418109D01*
X31822571Y24490680D01*
X31677428Y24563252D01*
X31314571Y24563252D01*
X31096857Y24490680D01*
D10*
X48991068Y20866673D02*
X48991068Y22566673D01*
X48419640Y22566673D01*
X48276782Y22485720D01*
X48205354Y22404768D01*
X48133925Y22242863D01*
X48133925Y22000006D01*
X48205354Y21838101D01*
X48276782Y21757149D01*
X48419640Y21676197D01*
X48991068Y21676197D01*
X47491068Y20866673D02*
X47491068Y22566673D01*
X47491068Y21919054D02*
X47348211Y22000006D01*
X47062497Y22000006D01*
X46919640Y21919054D01*
X46848211Y21838101D01*
X46776782Y21676197D01*
X46776782Y21190482D01*
X46848211Y21028578D01*
X46919640Y20947625D01*
X47062497Y20866673D01*
X47348211Y20866673D01*
X47491068Y20947625D01*
X13836298Y18186621D02*
X13941060Y18239002D01*
X13993440Y18291383D01*
X14045821Y18396145D01*
X14045821Y18710431D01*
X13993440Y18815193D01*
X13941060Y18867574D01*
X13836298Y18919955D01*
X13679155Y18919955D01*
X13574393Y18867574D01*
X13522012Y18815193D01*
X13469631Y18710431D01*
X13469631Y18396145D01*
X13522012Y18291383D01*
X13574393Y18239002D01*
X13679155Y18186621D01*
X13836298Y18186621D01*
X12998202Y18919955D02*
X12998202Y17819955D01*
X12998202Y18867574D02*
X12893440Y18919955D01*
X12683917Y18919955D01*
X12579155Y18867574D01*
X12526774Y18815193D01*
X12474393Y18710431D01*
X12474393Y18396145D01*
X12526774Y18291383D01*
X12579155Y18239002D01*
X12683917Y18186621D01*
X12893440Y18186621D01*
X12998202Y18239002D01*
X11583917Y18239002D02*
X11688679Y18186621D01*
X11898202Y18186621D01*
X12002964Y18239002D01*
X12055345Y18343764D01*
X12055345Y18762812D01*
X12002964Y18867574D01*
X11898202Y18919955D01*
X11688679Y18919955D01*
X11583917Y18867574D01*
X11531536Y18762812D01*
X11531536Y18658050D01*
X12055345Y18553288D01*
X11060107Y18919955D02*
X11060107Y18186621D01*
X11060107Y18815193D02*
X11007726Y18867574D01*
X10902964Y18919955D01*
X10745821Y18919955D01*
X10641060Y18867574D01*
X10588679Y18762812D01*
X10588679Y18186621D01*
D29*
X9520797Y18140420D02*
X9520797Y19140420D01*
X9092225Y18140420D02*
X9092225Y18664229D01*
X9139844Y18759467D01*
X9235082Y18807086D01*
X9377940Y18807086D01*
X9473178Y18759467D01*
X9520797Y18711848D01*
X8187463Y18140420D02*
X8187463Y18664229D01*
X8235082Y18759467D01*
X8330320Y18807086D01*
X8520797Y18807086D01*
X8616035Y18759467D01*
X8187463Y18188039D02*
X8282701Y18140420D01*
X8520797Y18140420D01*
X8616035Y18188039D01*
X8663654Y18283277D01*
X8663654Y18378515D01*
X8616035Y18473753D01*
X8520797Y18521372D01*
X8282701Y18521372D01*
X8187463Y18568991D01*
X7711273Y18140420D02*
X7711273Y18807086D01*
X7711273Y18616610D02*
X7663654Y18711848D01*
X7616035Y18759467D01*
X7520797Y18807086D01*
X7425559Y18807086D01*
X6663654Y18140420D02*
X6663654Y19140420D01*
X6663654Y18188039D02*
X6758892Y18140420D01*
X6949368Y18140420D01*
X7044606Y18188039D01*
X7092225Y18235658D01*
X7139844Y18330896D01*
X7139844Y18616610D01*
X7092225Y18711848D01*
X7044606Y18759467D01*
X6949368Y18807086D01*
X6758892Y18807086D01*
X6663654Y18759467D01*
X6282701Y18807086D02*
X6092225Y18140420D01*
X5901749Y18616610D01*
X5711273Y18140420D01*
X5520797Y18807086D01*
X4711273Y18140420D02*
X4711273Y18664229D01*
X4758892Y18759467D01*
X4854130Y18807086D01*
X5044606Y18807086D01*
X5139844Y18759467D01*
X4711273Y18188039D02*
X4806511Y18140420D01*
X5044606Y18140420D01*
X5139844Y18188039D01*
X5187463Y18283277D01*
X5187463Y18378515D01*
X5139844Y18473753D01*
X5044606Y18521372D01*
X4806511Y18521372D01*
X4711273Y18568991D01*
X4235082Y18140420D02*
X4235082Y18807086D01*
X4235082Y18616610D02*
X4187463Y18711848D01*
X4139844Y18759467D01*
X4044606Y18807086D01*
X3949368Y18807086D01*
X3235082Y18188039D02*
X3330320Y18140420D01*
X3520797Y18140420D01*
X3616035Y18188039D01*
X3663654Y18283277D01*
X3663654Y18664229D01*
X3616035Y18759467D01*
X3520797Y18807086D01*
X3330320Y18807086D01*
X3235082Y18759467D01*
X3187463Y18664229D01*
X3187463Y18568991D01*
X3663654Y18473753D01*
D12*
X46010285Y26349477D02*
X46010285Y27619477D01*
X45526476Y27619477D01*
X45405523Y27559000D01*
X45345047Y27498524D01*
X45284571Y27377572D01*
X45284571Y27196143D01*
X45345047Y27075191D01*
X45405523Y27014715D01*
X45526476Y26954239D01*
X46010285Y26954239D01*
X44740285Y26349477D02*
X44740285Y27619477D01*
X44740285Y27014715D02*
X44014571Y27014715D01*
X44014571Y26349477D02*
X44014571Y27619477D01*
X43167904Y26954239D02*
X43167904Y26349477D01*
X43591238Y27619477D02*
X43167904Y26954239D01*
X42744571Y27619477D01*
X42623619Y26228524D02*
X41656000Y26228524D01*
X40627904Y26349477D02*
X41051238Y26954239D01*
X41353619Y26349477D02*
X41353619Y27619477D01*
X40869809Y27619477D01*
X40748857Y27559000D01*
X40688380Y27498524D01*
X40627904Y27377572D01*
X40627904Y27196143D01*
X40688380Y27075191D01*
X40748857Y27014715D01*
X40869809Y26954239D01*
X41353619Y26954239D01*
X40144095Y26409953D02*
X39962666Y26349477D01*
X39660285Y26349477D01*
X39539333Y26409953D01*
X39478857Y26470429D01*
X39418380Y26591381D01*
X39418380Y26712334D01*
X39478857Y26833286D01*
X39539333Y26893762D01*
X39660285Y26954239D01*
X39902190Y27014715D01*
X40023142Y27075191D01*
X40083619Y27135667D01*
X40144095Y27256620D01*
X40144095Y27377572D01*
X40083619Y27498524D01*
X40023142Y27559000D01*
X39902190Y27619477D01*
X39599809Y27619477D01*
X39418380Y27559000D01*
X39055523Y27619477D02*
X38329809Y27619477D01*
X38692666Y26349477D02*
X38692666Y27619477D01*
X37241238Y26349477D02*
X37966952Y26349477D01*
X37604095Y26349477D02*
X37604095Y27619477D01*
X37725047Y27438048D01*
X37846000Y27317096D01*
X37966952Y27256620D01*
X19382619Y29845000D02*
X19503571Y29905477D01*
X19685000Y29905477D01*
X19866428Y29845000D01*
X19987380Y29724048D01*
X20047857Y29603096D01*
X20108333Y29361191D01*
X20108333Y29179762D01*
X20047857Y28937858D01*
X19987380Y28816905D01*
X19866428Y28695953D01*
X19685000Y28635477D01*
X19564047Y28635477D01*
X19382619Y28695953D01*
X19322142Y28756429D01*
X19322142Y29179762D01*
X19564047Y29179762D01*
X18777857Y28635477D02*
X18777857Y29905477D01*
X18294047Y29905477D01*
X18173095Y29845000D01*
X18112619Y29784524D01*
X18052142Y29663572D01*
X18052142Y29482143D01*
X18112619Y29361191D01*
X18173095Y29300715D01*
X18294047Y29240239D01*
X18777857Y29240239D01*
X17507857Y28635477D02*
X17507857Y29905477D01*
X16661190Y29905477D02*
X16419285Y29905477D01*
X16298333Y29845000D01*
X16177380Y29724048D01*
X16116904Y29482143D01*
X16116904Y29058810D01*
X16177380Y28816905D01*
X16298333Y28695953D01*
X16419285Y28635477D01*
X16661190Y28635477D01*
X16782142Y28695953D01*
X16903095Y28816905D01*
X16963571Y29058810D01*
X16963571Y29482143D01*
X16903095Y29724048D01*
X16782142Y29845000D01*
X16661190Y29905477D01*
X14907380Y28635477D02*
X15633095Y28635477D01*
X15270238Y28635477D02*
X15270238Y29905477D01*
X15391190Y29724048D01*
X15512142Y29603096D01*
X15633095Y29542620D01*
X14484047Y29905477D02*
X13637380Y29905477D01*
X14181666Y28635477D01*
X13455952Y28514524D02*
X12488333Y28514524D01*
X12185952Y29300715D02*
X11762619Y29300715D01*
X11581190Y28635477D02*
X12185952Y28635477D01*
X12185952Y29905477D01*
X11581190Y29905477D01*
X10371666Y28635477D02*
X11097380Y28635477D01*
X10734523Y28635477D02*
X10734523Y29905477D01*
X10855476Y29724048D01*
X10976428Y29603096D01*
X11097380Y29542620D01*
M02*
