M48
; DRILL file {KiCad 5.1.0-rc2-unknown-036be7d~80~ubuntu16.04.1} date 10.06.2024 (пн) 14:48:01 EEST
; FORMAT={-:-/ absolute / inch / decimal}
; #@! TF.CreationDate,2024-06-10T14:48:01+03:00*
; #@! TF.GenerationSoftware,Kicad,Pcbnew,5.1.0-rc2-unknown-036be7d~80~ubuntu16.04.1
; #@! TF.FileFunction,Plated,1,2,PTH
FMAT,2
INCH
T1C0.0118
T2C0.0118
T3C0.0157
T4C0.0197
T5C0.0236
T6C0.0315
T7C0.0354
T8C0.0394
T9C0.0433
T10C0.0472
T11C0.0512
T12C0.0709
T13C0.1299
%
G90
G05
T1
X1.2147Y1.1788
T2
X1.1438Y1.2497
X1.1438Y1.2103
X1.1753Y1.2812
X1.1753Y1.1788
X1.2147Y1.2812
X1.2462Y1.2497
X1.2462Y1.2103
T3
X0.025Y0.795
X0.025Y0.67
X0.025Y0.51
X0.0542Y0.99
X0.0978Y1.2066
X0.13Y2.055
X0.13Y2.005
X0.13Y1.955
X0.13Y1.905
X0.13Y1.855
X0.13Y1.805
X0.1308Y1.7541
X0.1428Y1.505
X0.16Y1.635
X0.1773Y1.7045
X0.1775Y1.6675
X0.235Y1.405
X0.24Y0.62
X0.2402Y0.7484
X0.2543Y1.5718
X0.26Y0.505
X0.2658Y1.265
X0.2824Y0.9548
X0.3Y0.325
X0.345Y0.895
X0.3502Y0.7502
X0.3509Y0.4793
X0.355Y0.545
X0.37Y0.655
X0.37Y1.395
X0.3857Y1.5248
X0.395Y1.135
X0.395Y0.265
X0.41Y0.0964
X0.415Y1.615
X0.4336Y0.1247
X0.45Y1.63
X0.45Y1.37
X0.467Y0.138
X0.4884Y1.5928
X0.49Y1.37
X0.4942Y1.5401
X0.5003Y0.155
X0.5292Y1.37
X0.555Y0.405
X0.5691Y0.9709
X0.57Y1.27
X0.6072Y1.7997
X0.6075Y1.765
X0.6346Y1.6924
X0.636Y1.6579
X0.6373Y1.6233
X0.65Y0.295
X0.655Y1.38
X0.655Y1.25
X0.655Y1.135
X0.805Y1.68
X0.805Y1.5
X0.84Y1.445
X0.8708Y1.1879
X0.955Y0.765
X0.9713Y1.5662
X1.0064Y1.561
X1.035Y1.0725
X1.055Y0.46
X1.07Y1.0725
X1.1005Y0.0827
X1.155Y0.185
X1.165Y1.515
X1.2085Y1.0629
X1.2429Y1.0661
X1.25Y0.425
X1.2775Y1.065
X1.29Y1.335
X1.29Y0.425
X1.29Y0.34
X1.32Y1.315
X1.36Y1.27
X1.36Y1.065
X1.365Y1.16
X1.395Y1.065
X1.3984Y1.2666
X1.4002Y1.3031
X1.43Y1.065
X1.435Y1.28
X1.45Y1.575
X1.735Y1.36
X1.735Y1.32
X1.76Y0.505
X1.78Y1.42
X1.81Y0.745
X1.83Y1.905
X1.865Y0.515
X1.97Y1.55
X1.97Y1.4
X1.97Y1.235
X1.975Y1.035
X1.975Y0.935
X1.975Y0.77
X1.975Y0.605
X1.975Y0.43
X1.975Y0.29
T4
X1.025Y1.52
X1.305Y1.45
T5
X0.14Y2.155
X0.17Y0.83
X0.17Y0.78
X0.18Y2.165
X0.18Y1.105
X0.18Y1.065
X0.185Y1.52
X0.185Y1.375
X0.185Y1.325
X0.185Y0.525
X0.195Y0.62
X0.235Y2.165
X0.235Y2.095
X0.235Y2.015
X0.235Y1.89
X0.245Y1.795
X0.295Y2.165
X0.295Y2.095
X0.295Y2.015
X0.295Y1.53
X0.2975Y1.59
X0.3Y1.1
X0.3Y1.06
X0.3375Y1.53
X0.36Y2.165
X0.36Y2.095
X0.36Y2.015
X0.425Y2.165
X0.425Y2.095
X0.425Y2.015
X0.445Y1.055
X0.4547Y0.325
X0.455Y0.215
X0.485Y2.165
X0.485Y2.095
X0.485Y2.015
X0.49Y1.055
X0.52Y0.86
X0.52Y0.82
X0.52Y0.63
X0.52Y0.59
X0.52Y0.55
X0.535Y2.165
X0.535Y2.095
X0.535Y2.015
X0.57Y1.045
X0.585Y2.165
X0.585Y2.095
X0.585Y2.015
X0.635Y2.165
X0.635Y2.095
X0.655Y0.44
X0.685Y2.155
X0.695Y1.12
X0.7Y1.25
X0.75Y0.97
X0.755Y0.895
X0.755Y0.855
X0.755Y0.58
X0.755Y0.215
X0.81Y2.405
X0.81Y2.355
X0.81Y2.305
X0.81Y2.255
X0.81Y2.205
X0.81Y0.76
X0.81Y0.715
X0.81Y0.675
X0.81Y0.6
X0.81Y0.215
X0.825Y0.27
X0.84Y1.005
X0.84Y0.96
X0.86Y0.215
X0.865Y1.62
X0.87Y2.405
X0.87Y2.355
X0.87Y2.15
X0.89Y0.91
X0.904Y1.62
X0.905Y0.26
X0.91Y2.15
X0.91Y0.215
X0.915Y1.38
X0.96Y0.215
X0.98Y0.265
X0.985Y0.685
X0.985Y0.64
X0.985Y0.595
X1.01Y2.315
X1.01Y1.465
X1.01Y0.215
X1.03Y0.91
X1.05Y0.725
X1.06Y2.39
X1.085Y2.115
X1.095Y0.225
X1.11Y2.315
X1.11Y1.865
X1.11Y0.66
X1.125Y0.57
X1.125Y0.465
X1.15Y0.97
X1.165Y1.465
X1.175Y0.71
X1.185Y2.39
X1.185Y2.24
X1.185Y2.09
X1.185Y1.94
X1.25Y0.605
X1.255Y0.53
X1.26Y2.315
X1.26Y2.165
X1.26Y2.015
X1.26Y1.865
X1.275Y0.275
X1.295Y0.705
X1.32Y1.115
X1.32Y1.07
X1.335Y2.39
X1.335Y2.24
X1.335Y2.09
X1.335Y1.94
X1.335Y1.515
X1.35Y0.645
X1.4Y0.21
X1.41Y2.315
X1.41Y1.865
X1.41Y0.705
X1.42Y0.365
X1.435Y2.115
X1.445Y0.9
X1.45Y1.385
X1.45Y1.345
X1.46Y2.39
X1.49Y0.38
X1.5Y0.255
X1.51Y2.315
X1.515Y1.515
X1.55Y0.575
X1.565Y1.515
X1.62Y1.59
X1.625Y1.72
X1.625Y0.86
X1.625Y0.815
X1.64Y2.315
X1.64Y2.24
X1.64Y2.165
X1.645Y1.075
X1.645Y1.03
X1.675Y0.27
X1.675Y0.22
X1.695Y0.965
X1.7Y0.69
X1.7Y0.645
X1.7Y0.6
X1.7Y0.54
X1.705Y1.72
X1.715Y2.14
X1.715Y2.02
X1.72Y0.405
X1.72Y0.22
X1.735Y0.15
X1.76Y0.69
X1.765Y1.96
X1.765Y0.405
X1.775Y2.065
X1.785Y1.87
X1.785Y1.67
X1.8Y2.13
X1.81Y0.495
X1.81Y0.45
X1.81Y0.405
X1.825Y1.25
X1.83Y1.73
X1.83Y0.94
X1.83Y0.895
X1.83Y0.85
X1.835Y1.99
X1.855Y2.065
X1.855Y0.725
X1.865Y1.405
X1.96Y1.78
X0.2998Y1.9293
X0.2998Y1.8584
X0.2998Y1.7875
X0.3706Y1.9293
X0.3706Y1.7875
X0.4415Y1.9293
X0.4415Y1.8584
X0.4415Y1.7875
X1.745Y2.29
X1.775Y2.355
X1.775Y2.22
X1.84Y2.385
X1.84Y2.195
X1.905Y2.355
X1.905Y2.225
X1.935Y2.29
X0.045Y0.275
X0.075Y0.34
X0.075Y0.205
X0.14Y0.37
X0.14Y0.18
X0.205Y0.34
X0.205Y0.21
X0.235Y0.275
T7
X1.0854Y1.6412
X1.1354Y1.7412
X1.1854Y1.6412
X1.2354Y1.7412
X1.2854Y1.6412
X1.3354Y1.7412
X1.3854Y1.6412
X1.4354Y1.7412
T8
X0.05Y0.05
X0.15Y0.05
X0.25Y0.05
X0.35Y0.05
X0.45Y0.05
X0.55Y0.05
X0.65Y0.05
X0.75Y0.05
X0.85Y0.05
X0.95Y0.05
X1.05Y0.05
X1.15Y0.05
X1.25Y0.05
X1.35Y0.05
X1.45Y0.05
X1.55Y0.05
X1.65Y0.05
X1.75Y0.05
X1.85Y0.05
X1.95Y0.05
T9
X0.9998Y2.1919
X1.0998Y2.1919
X1.4202Y2.1919
X1.5202Y2.1919
T10
X1.195Y1.23
T11
X0.3706Y1.8584
T12
X0.9529Y1.8849
X1.5671Y1.8849
T13
X1.84Y2.29
X0.14Y0.275
T6
G00X1.688Y1.5101
M15
G01X1.7234Y1.5101
M16
G05
G00X1.688Y1.1699
M15
G01X1.7234Y1.1699
M16
G05
G00X1.8585Y1.5101
M15
G01X1.8821Y1.5101
M16
G05
G00X1.8585Y1.1699
M15
G01X1.8821Y1.1699
M16
G05
T0
M30
