%TF.GenerationSoftware,KiCad,Pcbnew,5.1.0-rc2-unknown-036be7d~80~ubuntu16.04.1*%
%TF.CreationDate,2024-06-10T14:47:57+03:00*%
%TF.ProjectId,ESP32-GATEWAY_Rev_I,45535033-322d-4474-9154-455741595f52,I*%
%TF.SameCoordinates,PX425f360PY7b4bf70*%
%TF.FileFunction,Soldermask,Top*%
%TF.FilePolarity,Negative*%
%FSLAX46Y46*%
G04 Gerber Fmt 4.6, Leading zero omitted, Abs format (unit mm)*
G04 Created by KiCad (PCBNEW 5.1.0-rc2-unknown-036be7d~80~ubuntu16.04.1) date 2024-06-10 14:47:57*
%MOMM*%
%LPD*%
G04 APERTURE LIST*
%ADD10R,3.701600X3.701600*%
%ADD11R,0.800000X0.800000*%
%ADD12R,1.822400X1.822400*%
%ADD13R,0.351600X0.901600*%
%ADD14R,0.901600X0.351600*%
%ADD15R,2.101600X1.201600*%
%ADD16R,2.301600X1.201600*%
%ADD17C,0.701600*%
%ADD18R,1.251600X0.351600*%
%ADD19O,2.301600X1.301600*%
%ADD20O,2.101600X1.401600*%
%ADD21R,1.251600X0.401600*%
%ADD22R,1.501600X1.101600*%
%ADD23R,1.117600X1.117600*%
%ADD24R,1.101600X0.351600*%
%ADD25C,2.101600*%
%ADD26R,5.101600X5.101600*%
%ADD27R,1.901600X0.901600*%
%ADD28R,0.901600X1.901600*%
%ADD29R,1.601600X3.201600*%
%ADD30C,0.800000*%
%ADD31R,1.601600X0.901600*%
%ADD32R,1.625600X1.371600*%
%ADD33R,1.101600X1.501600*%
%ADD34R,1.879600X2.387600*%
%ADD35R,0.901600X0.901600*%
%ADD36C,1.879600*%
%ADD37R,1.879600X1.879600*%
%ADD38R,1.371600X1.625600*%
%ADD39R,2.101600X1.801600*%
%ADD40R,1.879600X1.117600*%
%ADD41C,1.101600*%
%ADD42C,1.600000*%
%ADD43C,6.700000*%
%ADD44R,3.101600X1.701600*%
%ADD45R,0.482600X1.117600*%
%ADD46R,0.736600X1.117600*%
%ADD47R,1.625600X1.117600*%
%ADD48C,1.254000*%
%ADD49C,1.810000*%
%ADD50C,2.050000*%
%ADD51C,3.100000*%
%ADD52C,3.600000*%
%ADD53R,0.651600X0.601600*%
%ADD54R,0.601600X0.651600*%
%ADD55R,0.351600X0.801600*%
G04 APERTURE END LIST*
D10*
X30353000Y31242000D03*
D11*
X31653000Y31742000D03*
X31653000Y30742000D03*
X30853000Y29942000D03*
X29853000Y29942000D03*
X29053000Y30742000D03*
X29053000Y31742000D03*
X29853000Y32542000D03*
X30853000Y32542000D03*
D12*
X30353000Y31242000D03*
D13*
X28603000Y33692000D03*
X29103000Y33692000D03*
X29603000Y33692000D03*
X30103000Y33692000D03*
X30603000Y33692000D03*
X31103000Y33692000D03*
X31603000Y33692000D03*
X32103000Y33692000D03*
D14*
X32803000Y32992000D03*
X32803000Y32492000D03*
X32803000Y31992000D03*
X32803000Y31492000D03*
X32803000Y30992000D03*
X32803000Y30492000D03*
X32803000Y29992000D03*
X32803000Y29492000D03*
D13*
X32103000Y28792000D03*
X31603000Y28792000D03*
X31103000Y28792000D03*
X30603000Y28792000D03*
X30103000Y28792000D03*
X29603000Y28792000D03*
X29103000Y28792000D03*
X28603000Y28792000D03*
D14*
X27903000Y29492000D03*
X27903000Y29992000D03*
X27903000Y30492000D03*
X27903000Y30992000D03*
X27903000Y31492000D03*
X27903000Y31992000D03*
X27903000Y32492000D03*
X27903000Y32992000D03*
D15*
X47505000Y38963600D03*
D16*
X43325000Y38963600D03*
D15*
X47505000Y29108400D03*
D16*
X43325000Y29108400D03*
D17*
X43825000Y36926000D03*
D18*
X42423000Y32286000D03*
X42423000Y32786000D03*
X42423000Y33286000D03*
X42423000Y35786000D03*
X42423000Y34286000D03*
X42423000Y35286000D03*
X42423000Y34786000D03*
X42423000Y33786000D03*
D19*
X43325000Y38356000D03*
D20*
X47505000Y38356000D03*
X47505000Y29716000D03*
D17*
X43825000Y31146000D03*
D19*
X43325000Y29716000D03*
D21*
X42423000Y31761000D03*
X42423000Y36311000D03*
X42423000Y31511000D03*
X42423000Y36561000D03*
X42423000Y30961000D03*
X42423000Y37111000D03*
X42423000Y30711000D03*
X42423000Y37361000D03*
D22*
X40005000Y8631000D03*
X40005000Y4831000D03*
D23*
X42799000Y11811000D03*
X44577000Y11811000D03*
X35052000Y6858000D03*
X35052000Y8636000D03*
D24*
X29858000Y12430000D03*
X29858000Y11930000D03*
X29858000Y11430000D03*
X29858000Y10930000D03*
X29858000Y10430000D03*
X34658000Y10430000D03*
X34658000Y10930000D03*
X34658000Y11430000D03*
X34658000Y11930000D03*
X34658000Y12430000D03*
D25*
X9414000Y47203000D03*
D26*
X9414000Y47203000D03*
D27*
X19014000Y54713000D03*
X19014000Y53443000D03*
X19014000Y52173000D03*
X19014000Y50903000D03*
X19014000Y49633000D03*
X19014000Y48363000D03*
X19014000Y47093000D03*
X19014000Y45823000D03*
X19014000Y44553000D03*
X19014000Y43283000D03*
X19014000Y42013000D03*
X19014000Y40743000D03*
X19014000Y39473000D03*
X19014000Y38203000D03*
D28*
X16144000Y37103000D03*
X14874000Y37103000D03*
X13604000Y37103000D03*
X12334000Y37103000D03*
X11064000Y37103000D03*
X9794000Y37103000D03*
X8524000Y37103000D03*
X7254000Y37103000D03*
X5984000Y37103000D03*
X4714000Y37103000D03*
D27*
X1814000Y38203000D03*
X1814000Y39473000D03*
X1814000Y40743000D03*
X1814000Y42013000D03*
X1814000Y43283000D03*
X1814000Y44553000D03*
X1814000Y45823000D03*
X1814000Y47093000D03*
X1814000Y48363000D03*
X1814000Y49633000D03*
X1814000Y50903000D03*
X1814000Y52173000D03*
X1814000Y53443000D03*
X1814000Y54713000D03*
D23*
X16129000Y12827000D03*
X17907000Y12827000D03*
D29*
X11981000Y15011000D03*
X11981000Y21071000D03*
D30*
X1011000Y23701000D03*
X12811000Y23701000D03*
X12811000Y12431000D03*
X1011000Y11341000D03*
D31*
X2731000Y22011000D03*
X2731000Y20911000D03*
X2731000Y19811000D03*
X2731000Y18711000D03*
X2731000Y17611000D03*
X2731000Y16511000D03*
X2731000Y15411000D03*
X2731000Y14311000D03*
D23*
X19304000Y31750000D03*
X21082000Y31750000D03*
D32*
X15494000Y27305000D03*
X17526000Y27305000D03*
D23*
X21081999Y30226000D03*
X19303999Y30226000D03*
D22*
X17688560Y35112960D03*
X17688560Y33210500D03*
X19898360Y34165540D03*
D23*
X21081999Y28702000D03*
X19303999Y28702000D03*
D33*
X21015960Y26888440D03*
X19113500Y26888440D03*
X20068540Y24678640D03*
D34*
X44051000Y19304000D03*
X48405000Y19304000D03*
D23*
X16002000Y24638000D03*
X17780000Y24638000D03*
X10541000Y9398000D03*
X12319000Y9398000D03*
X49149000Y46609000D03*
X47371000Y46609000D03*
D35*
X49022000Y48387000D03*
X47498000Y48387000D03*
D36*
X8890000Y1270000D03*
X6350000Y1270000D03*
X3810000Y1270000D03*
D37*
X1270000Y1270000D03*
D36*
X11430000Y1270000D03*
X13970000Y1270000D03*
X19050000Y1270000D03*
X16510000Y1270000D03*
X21590000Y1270000D03*
X24130000Y1270000D03*
X29210000Y1270000D03*
X26670000Y1270000D03*
X31750000Y1270000D03*
X34290000Y1270000D03*
X39370000Y1270000D03*
X36830000Y1270000D03*
X46990000Y1270000D03*
X49530000Y1270000D03*
X44450000Y1270000D03*
X41910000Y1270000D03*
D23*
X16764000Y9525000D03*
X18542000Y9525000D03*
D38*
X46355000Y14351000D03*
X48387000Y14351000D03*
X46355000Y16383000D03*
X48387000Y16383000D03*
D23*
X44577000Y15621000D03*
X44577000Y13843000D03*
X47371000Y42164000D03*
X49149000Y42164000D03*
X13589000Y30480000D03*
X11811000Y30480000D03*
X11811000Y32004000D03*
X13589000Y32004000D03*
X24384000Y10541000D03*
X26162000Y10541000D03*
X43307000Y25400000D03*
X45085000Y25400000D03*
D39*
X48474000Y22606000D03*
X43474000Y22606000D03*
D23*
X38481000Y13716000D03*
X36703000Y13716000D03*
X38481000Y10541000D03*
X36703000Y10541000D03*
D40*
X22479000Y53467000D03*
X22479000Y49911000D03*
X22479000Y42291000D03*
X22479000Y45847000D03*
D23*
X15748000Y18415000D03*
X17526000Y18415000D03*
X24384000Y12700000D03*
X26162000Y12700000D03*
X41148000Y10414000D03*
X41148000Y12192000D03*
X37211000Y29083000D03*
X35433000Y29083000D03*
X42037000Y51435000D03*
X42037000Y53213000D03*
X22098000Y57785000D03*
X22098000Y56007000D03*
X11811000Y28702000D03*
X13589000Y28702000D03*
X11811000Y25400000D03*
X13589000Y25400000D03*
X13589000Y33528000D03*
X11811000Y33528000D03*
D35*
X49022000Y43942000D03*
X47498000Y43942000D03*
D41*
X49276000Y51308000D03*
D23*
X35433000Y30607000D03*
X37211000Y30607000D03*
X23114000Y30988000D03*
X24892000Y30988000D03*
X23114000Y29464000D03*
X24892000Y29464000D03*
X24130000Y34417000D03*
X25908000Y34417000D03*
X35814000Y35052000D03*
X34036000Y35052000D03*
X28194000Y24384000D03*
X28194000Y26162000D03*
X39878000Y24511000D03*
X39878000Y26289000D03*
X36830000Y36703000D03*
X36830000Y38481000D03*
D38*
X17653000Y16637000D03*
X15621000Y16637000D03*
D23*
X34544000Y26162000D03*
X34544000Y24384000D03*
X36068000Y26162000D03*
X36068000Y24384000D03*
D32*
X43942000Y8890000D03*
X43942000Y6858000D03*
D42*
X1143000Y6985000D03*
X5969000Y6985000D03*
X5207000Y5334000D03*
X1905000Y5207000D03*
X5207000Y8636000D03*
X1905000Y8636000D03*
X3556000Y4572000D03*
X3556000Y9398000D03*
D43*
X3556000Y6985000D03*
D42*
X44323000Y58166000D03*
X49149000Y58166000D03*
X48387000Y56515000D03*
X45085000Y56388000D03*
X48387000Y59817000D03*
X45085000Y59817000D03*
X46736000Y55753000D03*
X46736000Y60579000D03*
D43*
X46736000Y58166000D03*
D32*
X17653000Y14732000D03*
X15621000Y14732000D03*
D22*
X22316440Y8575040D03*
X22316440Y10477500D03*
X20106640Y9522460D03*
X22443440Y12131040D03*
X22443440Y14033500D03*
X20233640Y13078460D03*
D44*
X46863000Y6293000D03*
X46863000Y8693000D03*
D33*
X46802040Y25181560D03*
X48704500Y25181560D03*
X47749460Y27391360D03*
D38*
X37973000Y24638000D03*
X37973000Y26670000D03*
D45*
X30988000Y26035000D03*
X31750000Y26035000D03*
X30988000Y24511000D03*
X31750000Y24511000D03*
D46*
X30099000Y26035000D03*
X30099000Y24511000D03*
X32639000Y26035000D03*
X32639000Y24511000D03*
D45*
X25400000Y24511000D03*
X24638000Y24511000D03*
X25400000Y26035000D03*
X24638000Y26035000D03*
D46*
X26289000Y24511000D03*
X26289000Y26035000D03*
X23749000Y24511000D03*
X23749000Y26035000D03*
D47*
X1651000Y26289000D03*
X9525000Y26289000D03*
X1651000Y32131000D03*
X9525000Y32131000D03*
D23*
X17780000Y21336000D03*
X16002000Y21336000D03*
X10541000Y10922000D03*
X12319000Y10922000D03*
X7366000Y10922000D03*
X9144000Y10922000D03*
X7366000Y9398000D03*
X9144000Y9398000D03*
X16002000Y23114000D03*
X17780000Y23114000D03*
D22*
X17737000Y29718000D03*
X15537000Y28768000D03*
X15537000Y30668000D03*
X37465000Y4704000D03*
X37465000Y8504000D03*
D48*
X7874000Y5080000D03*
X49276000Y54229000D03*
D23*
X35179000Y38481000D03*
X35179000Y36703000D03*
X17653000Y11176000D03*
X19431000Y11176000D03*
D49*
X36459000Y44227000D03*
X35189000Y41687000D03*
X33919000Y44227000D03*
X32649000Y41687000D03*
X31379000Y44227000D03*
X30109000Y41687000D03*
X28839000Y44227000D03*
X27569000Y41687000D03*
D50*
X27934000Y55675500D03*
X38614000Y55675500D03*
D51*
X39804000Y47877000D03*
X24204000Y47877000D03*
D50*
X25394000Y55675500D03*
X36074000Y55675500D03*
D52*
X37719000Y50927000D03*
X26289000Y50927000D03*
D23*
X21209000Y39116000D03*
X22987000Y39116000D03*
D22*
X14478000Y11933000D03*
X14478000Y8133000D03*
D53*
X28448000Y38354000D03*
X28448000Y37338000D03*
X26797000Y37338000D03*
X26797000Y38354000D03*
X32258000Y38354000D03*
X32258000Y37338000D03*
X30607000Y37338000D03*
X30607000Y38354000D03*
D48*
X42672000Y60579000D03*
X49276000Y4191000D03*
D54*
X26162000Y36195000D03*
X27178000Y36195000D03*
X32893000Y36195000D03*
X31877000Y36195000D03*
X29972000Y36195000D03*
X30988000Y36195000D03*
X29083000Y36195000D03*
X28067000Y36195000D03*
X21209000Y37592000D03*
X22225000Y37592000D03*
X25273000Y36195000D03*
X24257000Y36195000D03*
D55*
X46871000Y10680000D03*
X47371000Y10680000D03*
X47871000Y10680000D03*
X47871000Y12180000D03*
X47371000Y12180000D03*
X46871000Y12180000D03*
D54*
X43053000Y40767000D03*
X44069000Y40767000D03*
X44069000Y42164000D03*
X43053000Y42164000D03*
X31115000Y8636000D03*
X32131000Y8636000D03*
M02*
