%TF.GenerationSoftware,KiCad,Pcbnew,5.1.0-rc2-unknown-036be7d~80~ubuntu16.04.1*%
%TF.CreationDate,2024-06-10T14:47:57+03:00*%
%TF.ProjectId,ESP32-GATEWAY_Rev_I,45535033-322d-4474-9154-455741595f52,I*%
%TF.SameCoordinates,PX425f360PY7b4bf70*%
%TF.FileFunction,Copper,L2,Bot*%
%TF.FilePolarity,Positive*%
%FSLAX46Y46*%
G04 Gerber Fmt 4.6, Leading zero omitted, Abs format (unit mm)*
G04 Created by KiCad (PCBNEW 5.1.0-rc2-unknown-036be7d~80~ubuntu16.04.1) date 2024-06-10 14:47:57*
%MOMM*%
%LPD*%
G04 APERTURE LIST*
%ADD10R,0.400000X0.400000*%
%ADD11R,1.422400X1.422400*%
%ADD12O,2.200000X1.200000*%
%ADD13O,2.000000X1.300000*%
%ADD14C,1.300000*%
%ADD15C,2.000000*%
%ADD16R,1.600200X1.168400*%
%ADD17C,1.778000*%
%ADD18R,1.778000X1.778000*%
%ADD19C,1.200000*%
%ADD20C,6.300000*%
%ADD21C,1.410000*%
%ADD22C,1.650000*%
%ADD23C,2.700000*%
%ADD24C,0.900000*%
%ADD25C,0.700000*%
%ADD26C,0.800000*%
%ADD27C,0.750000*%
%ADD28C,0.508000*%
%ADD29C,1.016000*%
%ADD30C,0.203200*%
%ADD31C,0.762000*%
%ADD32C,0.406400*%
%ADD33C,1.778000*%
%ADD34C,1.524000*%
%ADD35C,0.254000*%
%ADD36C,1.270000*%
%ADD37C,0.711200*%
G04 APERTURE END LIST*
D10*
X31653000Y31742000D03*
X31653000Y30742000D03*
X30853000Y29942000D03*
X29853000Y29942000D03*
X29053000Y30742000D03*
X29053000Y31742000D03*
X29853000Y32542000D03*
X30853000Y32542000D03*
D11*
X30353000Y31242000D03*
D12*
X43325000Y38356000D03*
D13*
X47505000Y38356000D03*
X47505000Y29716000D03*
D12*
X43325000Y29716000D03*
D14*
X7614000Y45403000D03*
D15*
X9414000Y47203000D03*
D14*
X11214000Y45403000D03*
X7614000Y49003000D03*
X11214000Y49003000D03*
X9414000Y49003000D03*
X9414000Y45403000D03*
X7614000Y47203000D03*
X11214000Y47203000D03*
D16*
X48768000Y43942000D03*
X48768000Y42418000D03*
X48768000Y42418000D03*
D17*
X8890000Y1270000D03*
X6350000Y1270000D03*
X3810000Y1270000D03*
D18*
X1270000Y1270000D03*
D17*
X11430000Y1270000D03*
X13970000Y1270000D03*
X19050000Y1270000D03*
X16510000Y1270000D03*
X21590000Y1270000D03*
X24130000Y1270000D03*
X29210000Y1270000D03*
X26670000Y1270000D03*
X31750000Y1270000D03*
X34290000Y1270000D03*
X39370000Y1270000D03*
X36830000Y1270000D03*
X46990000Y1270000D03*
X49530000Y1270000D03*
X44450000Y1270000D03*
X41910000Y1270000D03*
D16*
X36131500Y29527500D03*
X36131500Y28003500D03*
X36131500Y28003500D03*
D19*
X1143000Y6985000D03*
X5969000Y6985000D03*
X5207000Y5334000D03*
X1905000Y5207000D03*
X5207000Y8636000D03*
X1905000Y8636000D03*
X3556000Y4572000D03*
X3556000Y9398000D03*
D20*
X3556000Y6985000D03*
D19*
X44323000Y58166000D03*
X49149000Y58166000D03*
X48387000Y56515000D03*
X45085000Y56388000D03*
X48387000Y59817000D03*
X45085000Y59817000D03*
X46736000Y55753000D03*
X46736000Y60579000D03*
D20*
X46736000Y58166000D03*
D21*
X36459000Y44227000D03*
X35189000Y41687000D03*
X33919000Y44227000D03*
X32649000Y41687000D03*
X31379000Y44227000D03*
X30109000Y41687000D03*
X28839000Y44227000D03*
X27569000Y41687000D03*
D22*
X27934000Y55675500D03*
X38614000Y55675500D03*
D23*
X39804000Y47877000D03*
X24204000Y47877000D03*
D22*
X25394000Y55675500D03*
X36074000Y55675500D03*
D16*
X21717000Y28956000D03*
X21717000Y27432000D03*
D24*
X46481994Y43942000D03*
X47117000Y18415000D03*
D25*
X635000Y20193000D03*
X635000Y17018000D03*
X635000Y12954000D03*
X50165000Y26289000D03*
X50165000Y23749000D03*
X50165000Y19558000D03*
X50165000Y15367000D03*
X50165000Y10922000D03*
X50165000Y7366000D03*
D24*
X44704000Y17526000D03*
X29210000Y24638000D03*
X43053000Y24511000D03*
X45974000Y11430000D03*
X20574000Y19304000D03*
X20574000Y18161000D03*
X13208000Y21844000D03*
X13208000Y20828000D03*
X20574000Y17145000D03*
X4699000Y34925000D03*
X4699000Y33655000D03*
X16129000Y53213000D03*
X13589000Y53213000D03*
X10795000Y53213000D03*
X7493000Y53213000D03*
X6223000Y45593000D03*
X5969000Y48006000D03*
X5969000Y51181000D03*
X5969000Y54991000D03*
X9144000Y54991000D03*
X9144000Y51181000D03*
X12319000Y51181000D03*
X12319000Y54991000D03*
X14859000Y54991000D03*
X14859000Y51181000D03*
X4699000Y38608000D03*
X17399000Y54737000D03*
X22098000Y61087000D03*
X22098000Y59817000D03*
X33528000Y27178000D03*
X36830000Y34163000D03*
X22098000Y54610000D03*
X23114000Y54610000D03*
X21971000Y41148000D03*
X36830000Y35179000D03*
X17780000Y31750000D03*
X22961600Y41148000D03*
X33528000Y28321000D03*
X3556000Y54737000D03*
X7493000Y38862000D03*
X8572500Y38862561D03*
X4699000Y13335000D03*
X4317946Y19812000D03*
X4572000Y27050848D03*
X13208000Y16002000D03*
X13208000Y14986000D03*
X13208000Y13970000D03*
D25*
X36322004Y27051000D03*
X35433000Y27051000D03*
X34544000Y27051000D03*
X33528000Y33401000D03*
X32765988Y33909000D03*
X20447000Y42672000D03*
X45212000Y36068000D03*
D24*
X39751000Y38481000D03*
X41148000Y40386000D03*
X41275000Y43688000D03*
X43307000Y43688000D03*
X45339000Y42418000D03*
X49784000Y45212000D03*
X45339000Y47498000D03*
X44831000Y49784000D03*
X45085000Y52451000D03*
X45720000Y54102000D03*
X24384000Y5461000D03*
X23114000Y5461000D03*
X21844000Y5461000D03*
X20574000Y5461000D03*
X25654000Y5461000D03*
X24892000Y6731000D03*
X16637000Y11176000D03*
X43561000Y54356000D03*
X41656000Y54991000D03*
X41656000Y56896000D03*
X41656000Y58801000D03*
X47117000Y52451000D03*
X46609000Y50546000D03*
D25*
X11430000Y34798000D03*
X12446010Y34798000D03*
D24*
X7493000Y54991000D03*
X10795000Y54991000D03*
X13589000Y54991000D03*
X9144000Y53213000D03*
X5969000Y53213000D03*
X12319000Y53213000D03*
X14859000Y53213000D03*
X16129000Y54991000D03*
X4572000Y54991000D03*
X7493000Y51181000D03*
X10795000Y51181000D03*
X13589000Y51181000D03*
X20574000Y61087000D03*
X20574000Y59817000D03*
X20574000Y57277000D03*
X20574000Y58547000D03*
X20574000Y56007000D03*
X12446000Y26797000D03*
X11303000Y26797000D03*
X29591000Y37211000D03*
D26*
X33147000Y36830000D03*
D24*
X25654000Y37211000D03*
X23241000Y35052000D03*
D25*
X21336000Y36703000D03*
X20447000Y38100000D03*
D24*
X7620000Y26924000D03*
X7620000Y27940000D03*
X4572000Y28067000D03*
X4317946Y21082000D03*
X37846000Y9652000D03*
X39370000Y14605000D03*
X45974000Y10287000D03*
X45974000Y12573000D03*
X43180000Y15240000D03*
X44831000Y10287000D03*
X43688000Y10287000D03*
X43180000Y17526000D03*
X43180000Y16383000D03*
X28575000Y11811000D03*
X21336000Y25527000D03*
X21336000Y24384000D03*
X25019000Y17399000D03*
X25019000Y16256000D03*
X25019000Y15113000D03*
X22606000Y23114000D03*
X26162000Y23114000D03*
X36703000Y22860000D03*
X28575000Y14478000D03*
X31750000Y15367000D03*
X34290000Y16383000D03*
X43180000Y13716000D03*
X27813000Y5715000D03*
X29845000Y18034000D03*
X26670000Y18415000D03*
X32893000Y17907000D03*
X35814000Y17907000D03*
X28194000Y16764000D03*
X43561000Y51308000D03*
X47371000Y35687000D03*
X46355000Y31750000D03*
D25*
X50038000Y31369000D03*
X50038000Y35560000D03*
X50038000Y39370000D03*
D24*
X44069000Y3810000D03*
X35560000Y5334000D03*
X31877000Y13462000D03*
X22987000Y6604000D03*
X20955000Y6858000D03*
X32385000Y6985000D03*
X38100000Y6477000D03*
X4953000Y15748000D03*
X20574000Y15240000D03*
X19177000Y22733000D03*
X19177000Y21717000D03*
X14478000Y26543000D03*
D25*
X14478000Y32258000D03*
D24*
X11557000Y5461000D03*
X7556500Y40386000D03*
X19177000Y14732000D03*
X11549229Y8255000D03*
X19177000Y5461000D03*
X41275000Y20701000D03*
X41275000Y21844000D03*
X42545000Y6858000D03*
X42545000Y5588000D03*
X43688000Y5588000D03*
D25*
X34671012Y29464000D03*
X3302000Y52197000D03*
X1377086Y25146000D03*
X7620000Y8255000D03*
X47371000Y13081000D03*
X44704000Y12827000D03*
X36830000Y40005000D03*
D24*
X33909000Y38481000D03*
X38481000Y38481000D03*
D27*
X26035000Y38608000D03*
D25*
X29591000Y38481000D03*
X25563530Y39648798D03*
X24670301Y39782179D03*
D24*
X33909000Y60706000D03*
X37084000Y60706000D03*
X30099000Y60706000D03*
X26924000Y60706000D03*
X28194000Y58801000D03*
X25654000Y58801000D03*
X35814000Y58801000D03*
X38354000Y58801000D03*
X33909000Y56896000D03*
X30099000Y56896000D03*
X27559000Y53721000D03*
X30099000Y53086000D03*
X33909000Y53086000D03*
X36449000Y53721000D03*
X32004000Y51181000D03*
X32004000Y54991000D03*
X32004000Y58801000D03*
X30099000Y49276000D03*
X33909000Y49276000D03*
X35814000Y47371000D03*
X28194000Y47371000D03*
X32004000Y47371000D03*
X41783000Y26162000D03*
X41783000Y27305000D03*
X36068000Y9271000D03*
D25*
X32766000Y8636000D03*
X26797000Y11684000D03*
X10033000Y28829000D03*
X14097000Y10287000D03*
X3302000Y47117000D03*
D24*
X46482000Y21590000D03*
X46482000Y22733000D03*
X46482000Y23876000D03*
D25*
X12552555Y39118751D03*
X3302000Y49657000D03*
X11012563Y3166875D03*
X3302000Y50927000D03*
X10414000Y2447997D03*
X3302000Y45847000D03*
D24*
X17653000Y28448000D03*
X19050000Y24638000D03*
D25*
X16637000Y28828980D03*
X16637000Y31750000D03*
X3302000Y48387000D03*
X2483663Y30647957D03*
X27952670Y2101081D03*
X6750831Y32131000D03*
X10033000Y6731000D03*
X16510000Y7493000D03*
X12405455Y40458029D03*
X16637000Y35052000D03*
X29337000Y4699000D03*
X10541000Y41021000D03*
X12706865Y3937000D03*
X14456273Y24660848D03*
X7171885Y24251410D03*
X13442190Y34798000D03*
X9797926Y38730812D03*
X8763000Y22733000D03*
X11430000Y41403122D03*
X11861800Y3505200D03*
X4508500Y42354496D03*
X26288996Y27241500D03*
X4504664Y43293219D03*
X27178000Y27241500D03*
X30696412Y26998485D03*
X4064000Y41529010D03*
X31570595Y27078220D03*
X16188289Y41232382D03*
X32447985Y27051000D03*
X6101606Y19009068D03*
X8895565Y19054695D03*
X6460201Y39924701D03*
X9398000Y35433000D03*
X9397992Y16637000D03*
X3626686Y38227000D03*
X8912767Y12174910D03*
X6604000Y12827000D03*
X5969000Y35687000D03*
X9017000Y13843000D03*
X6096000Y15748000D03*
X3321863Y44553012D03*
X46482000Y48387000D03*
X45974000Y18923000D03*
X24257000Y19431000D03*
X35565367Y33098483D03*
X15431114Y44831000D03*
X16154053Y42109526D03*
X34543439Y32257439D03*
X16120035Y42986679D03*
X35518546Y32172454D03*
X15422726Y45712734D03*
X36449000Y32512000D03*
X22117803Y30172622D03*
X32766000Y10795000D03*
X44069000Y33528000D03*
X31750000Y10795000D03*
X44069000Y34544000D03*
D28*
X48768000Y43942000D02*
X48768000Y42418000D01*
D29*
X48768000Y43942000D02*
X46481994Y43942000D01*
X48768000Y42418000D02*
X48768000Y41275000D01*
D30*
X47117000Y19177000D02*
X47117000Y18415000D01*
X45212000Y21082000D02*
X47117000Y19177000D01*
X45212000Y24384000D02*
X45212000Y21082000D01*
X45974000Y25146000D02*
X45212000Y24384000D01*
X48768000Y41275000D02*
X49276000Y40767000D01*
X49276000Y40767000D02*
X49276000Y27813000D01*
X49276000Y27813000D02*
X46609000Y25146000D01*
X46609000Y25146000D02*
X45974000Y25146000D01*
D28*
X50165000Y7366000D02*
X50165000Y3175000D01*
X50165000Y15367000D02*
X50165000Y19558000D01*
X50165000Y10922000D02*
X50165000Y15367000D01*
X50165000Y7366000D02*
X50165000Y10922000D01*
X11811000Y23241000D02*
X13208000Y21844000D01*
D31*
X13208000Y21844000D02*
X13208000Y20828000D01*
D28*
X635000Y20193000D02*
X635000Y17018000D01*
X635000Y17018000D02*
X635000Y12954000D01*
X635000Y12954000D02*
X635000Y3175000D01*
D29*
X16383000Y53213000D02*
X13589000Y53213000D01*
X10795000Y53213000D02*
X7493000Y53213000D01*
X5969000Y48006000D02*
X5969000Y51181000D01*
X5969000Y54991000D02*
X9144000Y54991000D01*
X9144000Y51181000D02*
X12319000Y51181000D01*
X12319000Y54991000D02*
X14859000Y54991000D01*
X21463000Y59817000D02*
X21463000Y61087000D01*
X20574000Y19304000D02*
X20574000Y18161000D01*
X20574000Y18161000D02*
X20574000Y17145000D01*
X14859000Y51181000D02*
X14859000Y51114000D01*
X14859000Y51114000D02*
X13047200Y49302200D01*
D28*
X37973000Y31623000D02*
X38227000Y31623000D01*
X38227000Y31623000D02*
X38608000Y31750000D01*
X38608000Y31750000D02*
X38227000Y31623000D01*
D32*
X38227000Y28067000D02*
X37592000Y28067000D01*
X37592000Y28067000D02*
X38227000Y28067000D01*
D29*
X23114000Y54610000D02*
X22098000Y54610000D01*
D33*
X38227000Y28067000D02*
X38227000Y29718000D01*
X38227000Y29718000D02*
X38227000Y31623000D01*
D28*
X11811000Y23241000D02*
X11811000Y32258000D01*
X11811000Y32258000D02*
X11811000Y32639000D01*
D29*
X3810000Y4318000D02*
X3556000Y4572000D01*
X3810000Y1270000D02*
X3810000Y4318000D01*
D34*
X46990000Y1270000D02*
X46990000Y3429000D01*
D32*
X36562974Y27876504D02*
X36068000Y27876504D01*
X38036504Y27876504D02*
X36562974Y27876504D01*
D28*
X3106001Y54287001D02*
X3556000Y54737000D01*
X635000Y20193000D02*
X635000Y20687974D01*
X635000Y20687974D02*
X558810Y20764164D01*
X558810Y20764164D02*
X558810Y51739810D01*
X558810Y51739810D02*
X3106001Y54287001D01*
D33*
X38227000Y33782000D02*
X36830000Y35179000D01*
X38227000Y31623000D02*
X38227000Y33782000D01*
D29*
X4699000Y27177848D02*
X4572000Y27050848D01*
X4767945Y20261999D02*
X4767945Y26854903D01*
X4767945Y26854903D02*
X4572000Y27050848D01*
X4699000Y33655000D02*
X4699000Y27177848D01*
X4317946Y19812000D02*
X4767945Y20261999D01*
X13208000Y13970000D02*
X13208000Y21844000D01*
D31*
X36322004Y27812996D02*
X36131500Y28003500D01*
X36322004Y27051000D02*
X36322004Y27812996D01*
X36322004Y27051000D02*
X34544000Y27051000D01*
X36131500Y27749500D02*
X35433000Y27051000D01*
X36131500Y28003500D02*
X36131500Y27749500D01*
X38163500Y28003500D02*
X38227000Y28067000D01*
X36131500Y28003500D02*
X38163500Y28003500D01*
D34*
X33528000Y28321000D02*
X34036000Y27813000D01*
D35*
X33528000Y33401000D02*
X33020000Y33909000D01*
X33020000Y33909000D02*
X32765988Y33909000D01*
D34*
X21971000Y41148000D02*
X22961600Y41148000D01*
D36*
X22987000Y41148000D02*
X22961600Y41148000D01*
X22961600Y40157400D02*
X22961600Y39484986D01*
X21971000Y41148000D02*
X22961600Y40157400D01*
D34*
X22961600Y39585900D02*
X22961600Y41148000D01*
X23622000Y38925500D02*
X22961600Y39585900D01*
X30480000Y31242000D02*
X30353000Y31242000D01*
X33528000Y28321000D02*
X30607000Y31242000D01*
X30607000Y31242000D02*
X30480000Y31242000D01*
D29*
X4317946Y13716054D02*
X4317946Y19812000D01*
X4699000Y13335000D02*
X4317946Y13716054D01*
D28*
X11811000Y32639000D02*
X11430000Y33020000D01*
X11430000Y33020000D02*
X11430000Y34303026D01*
X11430000Y34303026D02*
X11430000Y34798000D01*
X11430000Y34798000D02*
X12446010Y34798000D01*
D33*
X13371001Y47390801D02*
X13047200Y47067000D01*
X21971000Y41784396D02*
X16364595Y47390801D01*
X16364595Y47390801D02*
X13371001Y47390801D01*
X21971000Y41148000D02*
X21971000Y41784396D01*
D34*
X25336500Y37211000D02*
X23062514Y39484986D01*
X25654000Y37211000D02*
X25844500Y37020500D01*
X25654000Y37211000D02*
X25336500Y37211000D01*
X25844500Y37020500D02*
X34988500Y37020500D01*
X34988500Y37020500D02*
X36830000Y35179000D01*
D29*
X23241000Y34925000D02*
X20574000Y37592000D01*
X23368000Y34925000D02*
X23241000Y34925000D01*
X23368000Y34925000D02*
X23415958Y34925000D01*
X23415958Y34925000D02*
X27098958Y31242000D01*
X27098958Y31242000D02*
X30353000Y31242000D01*
D28*
X20447000Y37719000D02*
X20447000Y38100000D01*
X20574000Y37592000D02*
X20447000Y37719000D01*
D29*
X43180000Y17526000D02*
X44704000Y17526000D01*
X25019000Y16256000D02*
X25019000Y17399000D01*
X25019000Y15113000D02*
X25019000Y16256000D01*
D31*
X33528000Y24638000D02*
X34036000Y24130000D01*
X29210000Y24638000D02*
X33528000Y24638000D01*
D34*
X34036000Y27813000D02*
X34036000Y24130000D01*
D29*
X20574000Y19304000D02*
X20574000Y23622000D01*
X20574000Y23622000D02*
X21336000Y24384000D01*
D31*
X26162000Y23114000D02*
X27686000Y24638000D01*
X27686000Y24638000D02*
X29210000Y24638000D01*
D29*
X29210000Y21590000D02*
X29210000Y24638000D01*
X25019000Y17399000D02*
X29210000Y21590000D01*
X46990000Y4445000D02*
X46990000Y3429000D01*
X46990000Y8128000D02*
X46990000Y4445000D01*
X44831000Y10287000D02*
X46990000Y8128000D01*
D28*
X43325000Y38356000D02*
X42799000Y37830000D01*
X42799000Y37830000D02*
X42799000Y36957000D01*
D34*
X43172825Y25011825D02*
X44450000Y26289000D01*
X43172825Y13723175D02*
X43172825Y25011825D01*
X43180000Y13716000D02*
X43172825Y13723175D01*
X44450000Y26289000D02*
X44450000Y27686000D01*
D29*
X39370000Y11176000D02*
X39370000Y14605000D01*
X37846000Y9652000D02*
X39370000Y11176000D01*
D34*
X34036000Y19050000D02*
X32893000Y17907000D01*
X34036000Y24130000D02*
X34036000Y19050000D01*
D29*
X22987000Y6604000D02*
X22987000Y8636000D01*
X20574000Y11049000D02*
X20574000Y17145000D01*
X22987000Y8636000D02*
X20574000Y11049000D01*
X21336000Y24384000D02*
X21336000Y25527000D01*
X21336000Y25527000D02*
X20701000Y25527000D01*
X17780000Y30480000D02*
X17780000Y31750000D01*
X20701000Y25527000D02*
X20066000Y26162000D01*
X20066000Y26162000D02*
X20066000Y28194000D01*
X20066000Y28194000D02*
X17780000Y30480000D01*
D30*
X22606000Y23114000D02*
X22885400Y23393400D01*
X22885400Y23393400D02*
X22885400Y29692600D01*
D29*
X19177000Y22733000D02*
X19177000Y21717000D01*
D28*
X11557002Y8000998D02*
X11557000Y8001000D01*
D29*
X11557000Y8247229D02*
X11549229Y8255000D01*
X11557000Y5461000D02*
X11557000Y8247229D01*
X19177000Y21717000D02*
X19177000Y5461000D01*
X14478000Y32258000D02*
X14478000Y26543000D01*
X43688000Y5715000D02*
X42545000Y6858000D01*
X43688000Y5588000D02*
X43688000Y5715000D01*
X42545000Y6858000D02*
X42545000Y5588000D01*
X42545000Y5588000D02*
X43688000Y5588000D01*
X42545000Y6477000D02*
X42545000Y6223000D01*
D34*
X41275000Y7747000D02*
X42545000Y6477000D01*
X41275000Y21844000D02*
X41275000Y7747000D01*
D29*
X8763000Y40386000D02*
X7556500Y40386000D01*
X14478000Y32258000D02*
X14478000Y35623500D01*
X14478000Y35623500D02*
X10223500Y39878000D01*
X9271000Y39878000D02*
X8763000Y40386000D01*
X10223500Y39878000D02*
X9271000Y39878000D01*
D31*
X36068000Y29464000D02*
X35165986Y29464000D01*
X35165986Y29464000D02*
X34671012Y29464000D01*
D29*
X36131500Y29527500D02*
X36068000Y29464000D01*
X6350000Y1270000D02*
X7493000Y2413000D01*
D30*
X7620000Y2540000D02*
X7620000Y8255000D01*
X7493000Y2413000D02*
X7620000Y2540000D01*
X1377086Y29102914D02*
X1377086Y25146000D01*
X1092221Y29387779D02*
X1377086Y29102914D01*
X1092221Y49987221D02*
X1092221Y29387779D01*
X3302000Y52197000D02*
X1092221Y49987221D01*
X1377086Y12723594D02*
X1377086Y24651026D01*
X7620000Y8255000D02*
X7620000Y8382000D01*
X7620000Y8382000D02*
X5461000Y10541000D01*
X5461000Y10541000D02*
X3559680Y10541000D01*
X1377086Y24651026D02*
X1377086Y25146000D01*
X3559680Y10541000D02*
X1377086Y12723594D01*
D35*
X46990000Y13462000D02*
X47371000Y13081000D01*
X45339000Y13462000D02*
X46990000Y13462000D01*
X44704000Y12827000D02*
X45339000Y13462000D01*
D28*
X30109000Y41687000D02*
X31791000Y40005000D01*
X31791000Y40005000D02*
X36830000Y40005000D01*
X33919000Y44227000D02*
X32618000Y42926000D01*
X32618000Y42926000D02*
X31348000Y42926000D01*
X31348000Y42926000D02*
X30109000Y41687000D01*
D29*
X26797000Y38481000D02*
X26924000Y38481000D01*
X33909000Y38481000D02*
X38481000Y38481000D01*
D31*
X26035000Y38608000D02*
X26670000Y38608000D01*
X26670000Y38608000D02*
X26797000Y38481000D01*
D29*
X29591000Y38481000D02*
X26797000Y38481000D01*
X33272604Y38481000D02*
X33909000Y38481000D01*
X29591000Y38481000D02*
X33272604Y38481000D01*
X38614000Y55675500D02*
X38614000Y54858000D01*
D30*
X42862500Y44831000D02*
X43180000Y45148500D01*
X40767000Y44831000D02*
X42862500Y44831000D01*
X40386000Y44450000D02*
X40767000Y44831000D01*
X43180000Y45148500D02*
X43180000Y50292000D01*
X40386000Y39941500D02*
X40386000Y44450000D01*
X43180000Y50292000D02*
X38614000Y54858000D01*
X26563164Y39648798D02*
X26841962Y39370000D01*
X25563530Y39648798D02*
X26563164Y39648798D01*
X39814500Y39370000D02*
X40386000Y39941500D01*
X26841962Y39370000D02*
X39814500Y39370000D01*
D29*
X25394000Y54350000D02*
X25394000Y55675500D01*
D30*
X21082000Y46863000D02*
X24670301Y43274699D01*
X24670301Y43274699D02*
X24670301Y40277153D01*
X24670301Y40277153D02*
X24670301Y39782179D01*
X21082000Y50038000D02*
X21082000Y46863000D01*
X25394000Y54350000D02*
X21082000Y50038000D01*
D29*
X24204000Y47877000D02*
X24710000Y47371000D01*
X24710000Y47371000D02*
X28194000Y47371000D01*
X32004000Y58801000D02*
X33909000Y60706000D01*
X33909000Y60706000D02*
X37084000Y60706000D01*
X30099000Y60706000D02*
X26924000Y60706000D01*
X28194000Y58801000D02*
X25654000Y58801000D01*
X35814000Y58801000D02*
X38354000Y58801000D01*
X33909000Y56896000D02*
X33909000Y53086000D01*
X30099000Y56896000D02*
X30099000Y53086000D01*
X30099000Y53086000D02*
X33909000Y53086000D01*
X32004000Y51181000D02*
X32004000Y54991000D01*
X30099000Y49276000D02*
X33909000Y49276000D01*
X28194000Y47371000D02*
X32004000Y47371000D01*
X39804000Y47877000D02*
X36832000Y47877000D01*
D31*
X41783000Y26162000D02*
X41783000Y27305000D01*
X41783000Y24511000D02*
X41783000Y26162000D01*
X39751000Y22479000D02*
X41783000Y24511000D01*
X36068000Y9271000D02*
X36068000Y9906000D01*
X39751000Y16764000D02*
X39751000Y22479000D01*
X36068000Y9906000D02*
X38100000Y11938000D01*
X38100000Y11938000D02*
X38100000Y15113000D01*
X38100000Y15113000D02*
X39751000Y16764000D01*
D30*
X32766000Y8636000D02*
X29718000Y8636000D01*
X29718000Y8636000D02*
X26797000Y11557000D01*
X26797000Y11557000D02*
X26797000Y11684000D01*
X10033000Y15748000D02*
X10033000Y28829000D01*
X11557000Y14224000D02*
X10033000Y15748000D01*
X11557000Y12827000D02*
X11557000Y14224000D01*
X14097000Y10287000D02*
X11557000Y12827000D01*
D29*
X39370000Y1270000D02*
X38481000Y2159000D01*
D30*
X4317967Y40894031D02*
X3682969Y40894031D01*
X3378287Y43647131D02*
X3951264Y44220108D01*
X3951264Y46467736D02*
X3651999Y46767001D01*
X4317998Y40894000D02*
X4317967Y40894031D01*
X3682969Y40894031D02*
X3378287Y41198713D01*
X3951264Y44220108D02*
X3951264Y46467736D01*
X3651999Y46767001D02*
X3302000Y47117000D01*
X3378287Y41198713D02*
X3378287Y43647131D01*
X4319840Y40894000D02*
X4318000Y40894000D01*
X33401000Y3048000D02*
X31242000Y5207000D01*
X24130000Y18034000D02*
X25273000Y19177000D01*
X25273000Y19177000D02*
X25273000Y29570694D01*
X6224884Y42799044D02*
X4319840Y40894000D01*
X31242000Y5969000D02*
X24130000Y13081000D01*
X37592000Y3048000D02*
X33401000Y3048000D01*
X38481000Y2159000D02*
X37592000Y3048000D01*
X12044650Y42799044D02*
X6224884Y42799044D01*
X24130000Y13081000D02*
X24130000Y18034000D01*
X31242000Y5207000D02*
X31242000Y5969000D01*
X25273000Y29570694D02*
X12044650Y42799044D01*
D34*
X46482000Y22733000D02*
X46482000Y21590000D01*
X46482000Y23876000D02*
X46482000Y22733000D01*
X48768000Y19304000D02*
X46482000Y21590000D01*
X48768000Y2286000D02*
X48768000Y19304000D01*
X49530000Y1524000D02*
X48768000Y2286000D01*
X49530000Y1270000D02*
X49530000Y1524000D01*
D29*
X26670000Y1270000D02*
X25908000Y2032000D01*
D30*
X12951249Y39118751D02*
X12552555Y39118751D01*
X15878588Y36191412D02*
X12951249Y39118751D01*
X15878588Y28063412D02*
X15878588Y36191412D01*
X17399000Y26543000D02*
X15878588Y28063412D01*
X17399000Y9779000D02*
X17399000Y26543000D01*
X15748000Y8128000D02*
X17399000Y9779000D01*
X25908000Y2032000D02*
X24384000Y3556000D01*
X24384000Y3556000D02*
X17622170Y3556000D01*
X17622170Y3556000D02*
X15748000Y5430170D01*
X15748000Y5430170D02*
X15748000Y8128000D01*
X10662564Y3516874D02*
X11012563Y3166875D01*
X8636011Y5543427D02*
X10662564Y3516874D01*
X8636011Y8705009D02*
X8636011Y5543427D01*
X3875318Y11303022D02*
X6037998Y11303022D01*
X6037998Y11303022D02*
X8636011Y8705009D01*
X3302000Y49657000D02*
X1854243Y48209243D01*
X1854243Y48209243D02*
X1854243Y30149757D01*
X1854243Y30149757D02*
X2387507Y29616493D01*
X2387507Y12790833D02*
X3875318Y11303022D01*
X2387507Y29616493D02*
X2387507Y12790833D01*
X10064001Y2797996D02*
X10414000Y2447997D01*
X5880179Y10922011D02*
X8255000Y8547190D01*
X8255000Y8547190D02*
X8255000Y4606997D01*
X3717499Y10922011D02*
X5880179Y10922011D01*
X3302000Y50927000D02*
X1473232Y49098232D01*
X1473232Y49098232D02*
X1473232Y29768768D01*
X8255000Y4606997D02*
X10064001Y2797996D01*
X2006496Y12633014D02*
X3717499Y10922011D01*
X1473232Y29768768D02*
X2006496Y29235504D01*
X2006496Y29235504D02*
X2006496Y12633014D01*
D29*
X31750000Y1270000D02*
X31750000Y2413000D01*
D30*
X2952001Y45497001D02*
X3302000Y45847000D01*
X2616265Y45161265D02*
X2952001Y45497001D01*
X2616265Y40883075D02*
X2616265Y45161265D01*
X30226000Y5715000D02*
X23114000Y12827000D01*
X30226000Y4064000D02*
X30226000Y5715000D01*
X3367360Y40131980D02*
X2616265Y40883075D01*
X31750000Y2540000D02*
X30226000Y4064000D01*
X4637320Y40131980D02*
X3367360Y40131980D01*
X31750000Y2413000D02*
X31750000Y2540000D01*
X6542362Y42037022D02*
X4637320Y40131980D01*
X11729012Y42037022D02*
X6542362Y42037022D01*
X23114000Y12827000D02*
X23114000Y19685000D01*
X23114000Y19685000D02*
X24003000Y20574000D01*
X24003000Y20574000D02*
X24003000Y29763034D01*
X24003000Y29763034D02*
X11729012Y42037022D01*
D29*
X18796000Y27305000D02*
X18796000Y24892000D01*
X18796000Y24892000D02*
X19050000Y24638000D01*
X17653000Y28448000D02*
X18796000Y27305000D01*
D35*
X16637000Y28828980D02*
X16637000Y31750000D01*
D30*
X26116751Y3937000D02*
X27952670Y2101081D01*
X16510000Y5207000D02*
X17780000Y3937000D01*
X17780000Y3937000D02*
X26116751Y3937000D01*
X16510000Y7493000D02*
X16510000Y5207000D01*
X2362200Y30769420D02*
X2483663Y30647957D01*
X2235254Y31064146D02*
X2362200Y30937200D01*
X2362200Y30937200D02*
X2362200Y30769420D01*
X3302000Y48387000D02*
X2235254Y47320254D01*
X2235254Y47320254D02*
X2235254Y31064146D01*
X10033000Y8924510D02*
X10033000Y7225974D01*
X7504133Y11453377D02*
X10033000Y8924510D01*
X7504133Y22721867D02*
X7504133Y11453377D01*
X6750831Y32131000D02*
X6750831Y25038831D01*
X10033000Y7225974D02*
X10033000Y6731000D01*
X6750831Y25038831D02*
X6542483Y24830483D01*
X6542483Y24830483D02*
X6542483Y23683517D01*
X6542483Y23683517D02*
X7504133Y22721867D01*
X12500971Y40458029D02*
X12405455Y40458029D01*
X16668562Y36290438D02*
X12500971Y40458029D01*
X16668562Y35083562D02*
X16668562Y36290438D01*
X16637000Y35052000D02*
X16668562Y35083562D01*
X18169927Y35052000D02*
X16637000Y35052000D01*
X23368000Y20955000D02*
X23368000Y29853927D01*
X29337000Y4699000D02*
X29337000Y5969000D01*
X23368000Y29853927D02*
X18169927Y35052000D01*
X29337000Y5969000D02*
X22606000Y12700000D01*
X22606000Y12700000D02*
X22606000Y20193000D01*
X22606000Y20193000D02*
X23368000Y20955000D01*
X11123360Y4241800D02*
X12402065Y4241800D01*
X12402065Y4241800D02*
X12706865Y3937000D01*
X9398033Y9020647D02*
X9398033Y5967127D01*
X4190956Y12065044D02*
X6353636Y12065044D01*
X3149529Y13106471D02*
X4190956Y12065044D01*
X3149529Y29438529D02*
X3149529Y13106471D01*
X9238501Y41243999D02*
X6826999Y41243999D01*
X9461500Y41021000D02*
X9238501Y41243999D01*
X10541000Y41021000D02*
X9461500Y41021000D01*
X6826999Y41243999D02*
X4952958Y39369958D01*
X4952958Y39369958D02*
X3556043Y39369958D01*
X3494075Y29783075D02*
X3149529Y29438529D01*
X3556043Y39369958D02*
X2997276Y38811191D01*
X9398033Y5967127D02*
X11123360Y4241800D01*
X6353636Y12065044D02*
X9398033Y9020647D01*
X2997276Y38811191D02*
X2997276Y31927724D01*
X2997276Y31927724D02*
X3494075Y31430925D01*
X3494075Y31430925D02*
X3494075Y29783075D01*
D29*
X11430000Y1270000D02*
X12319000Y2159000D01*
D35*
X13442190Y25674931D02*
X13442190Y34798000D01*
X14456273Y24660848D02*
X13442190Y25674931D01*
D30*
X10668000Y8828340D02*
X7885144Y11611196D01*
X7885144Y11611196D02*
X7885144Y23538151D01*
X10668000Y5235990D02*
X10668000Y8828340D01*
X11255790Y4648200D02*
X10668000Y5235990D01*
X7885144Y23538151D02*
X7171885Y24251410D01*
X12319000Y2159000D02*
X13399129Y3239129D01*
X13399129Y3239129D02*
X13399129Y4224881D01*
X13399129Y4224881D02*
X12975810Y4648200D01*
X12975810Y4648200D02*
X11255790Y4648200D01*
D29*
X13970000Y1270000D02*
X13970000Y2159000D01*
D30*
X8763000Y23227974D02*
X8763000Y22733000D01*
X9797926Y38730812D02*
X8763000Y37695886D01*
X8763000Y37695886D02*
X8763000Y23227974D01*
X12446000Y5867400D02*
X13970000Y4343400D01*
X12446000Y8471796D02*
X12446000Y5867400D01*
X11857781Y9060015D02*
X12446000Y8471796D01*
X13970000Y4343400D02*
X13970000Y2159000D01*
X10975155Y9060015D02*
X11857781Y9060015D01*
X8763000Y22733000D02*
X8763000Y20320000D01*
X8266155Y11769015D02*
X10975155Y9060015D01*
X8763000Y20320000D02*
X8266155Y19823155D01*
X8266155Y19823155D02*
X8266155Y11769015D01*
X11531600Y3835400D02*
X11861800Y3505200D01*
X10990930Y3835400D02*
X11531600Y3835400D01*
X2768518Y12948652D02*
X4033137Y11684033D01*
X4795139Y39750969D02*
X3398224Y39750969D01*
X3113064Y31049936D02*
X3113064Y30037064D01*
X6700181Y41656011D02*
X4795139Y39750969D01*
X11177111Y41656011D02*
X6700181Y41656011D01*
X11430000Y41403122D02*
X11177111Y41656011D01*
X3398224Y39750969D02*
X2616265Y38969010D01*
X2616265Y31546735D02*
X3113064Y31049936D01*
X9017022Y5809308D02*
X10990930Y3835400D01*
X9017022Y8862828D02*
X9017022Y5809308D01*
X6195817Y11684033D02*
X9017022Y8862828D01*
X4033137Y11684033D02*
X6195817Y11684033D01*
X2616265Y38969010D02*
X2616265Y31546735D01*
X2768518Y29692518D02*
X2768518Y12948652D01*
X3113064Y30037064D02*
X2768518Y29692518D01*
X26288996Y27736474D02*
X26288996Y27241500D01*
X26288996Y29093528D02*
X26288996Y27736474D01*
X4508500Y42354496D02*
X4889496Y42354496D01*
X4889496Y42354496D02*
X5715055Y43180055D01*
X12202469Y43180055D02*
X26288996Y29093528D01*
X5715055Y43180055D02*
X12202469Y43180055D01*
X27178000Y27241500D02*
X27178000Y28003500D01*
X27178000Y28743354D02*
X27178000Y28003500D01*
X12360288Y43561066D02*
X27178000Y28743354D01*
X4504664Y43293219D02*
X4518445Y43307000D01*
X4518445Y43307000D02*
X5080000Y43307000D01*
X5334066Y43561066D02*
X12360288Y43561066D01*
X5080000Y43307000D02*
X5334066Y43561066D01*
X30643897Y27051000D02*
X30696412Y26998485D01*
X27368500Y27051000D02*
X30643897Y27051000D01*
X27178000Y27241500D02*
X27368500Y27051000D01*
X31220596Y27428219D02*
X31570595Y27078220D01*
X30962815Y27686000D02*
X31220596Y27428219D01*
X28774184Y27686000D02*
X30962815Y27686000D01*
X12518107Y43942077D02*
X28774184Y27686000D01*
X4064000Y41529010D02*
X3759298Y41833712D01*
X3759298Y41833712D02*
X3759298Y43489312D01*
X3759298Y43489312D02*
X4212063Y43942077D01*
X4212063Y43942077D02*
X12518107Y43942077D01*
X32447985Y27115015D02*
X32447985Y27051000D01*
X31305500Y28257500D02*
X32447985Y27115015D01*
X28765500Y28257500D02*
X31305500Y28257500D01*
X16538288Y40484712D02*
X28765500Y28257500D01*
X16188289Y41232382D02*
X16538288Y40882383D01*
X16538288Y40882383D02*
X16538288Y40484712D01*
D29*
X21590000Y1270000D02*
X20701000Y2159000D01*
D30*
X8768590Y18927720D02*
X8895565Y19054695D01*
X8768590Y15234410D02*
X8768590Y18927720D01*
X20701000Y2159000D02*
X20066011Y2793989D01*
X14097000Y5938170D02*
X14097000Y8509000D01*
X10287000Y12319000D02*
X10287000Y13716000D01*
X14097000Y8509000D02*
X10287000Y12319000D01*
X20066011Y2793989D02*
X17241181Y2793989D01*
X10287000Y13716000D02*
X8768590Y15234410D01*
X17241181Y2793989D02*
X14097000Y5938170D01*
X6460201Y36592799D02*
X6460201Y39924701D01*
X6101606Y19009068D02*
X6121421Y19028883D01*
X6121421Y19028883D02*
X6121421Y34315421D01*
X6121421Y34315421D02*
X6731000Y34925000D01*
X6731000Y36322000D02*
X6460201Y36592799D01*
X6731000Y34925000D02*
X6731000Y36322000D01*
D29*
X24130000Y1270000D02*
X23241000Y2159000D01*
D30*
X9397992Y17652992D02*
X9397992Y16637000D01*
X9525000Y17780000D02*
X9397992Y17652992D01*
X9398000Y35433000D02*
X9271000Y35306000D01*
X9271000Y35306000D02*
X9271000Y28194000D01*
X9271000Y28194000D02*
X9525000Y27940000D01*
X9525000Y27940000D02*
X9525000Y17780000D01*
X22225000Y3175000D02*
X23241000Y2159000D01*
X17399000Y3175000D02*
X22225000Y3175000D01*
X14732000Y5842000D02*
X17399000Y3175000D01*
X14732000Y8636000D02*
X14732000Y5842000D01*
X9397992Y16637000D02*
X9397992Y15494008D01*
X9397992Y15494008D02*
X10922000Y13970000D01*
X10922000Y13970000D02*
X10922000Y12446000D01*
X10922000Y12446000D02*
X14732000Y8636000D01*
D29*
X16510000Y1270000D02*
X15621000Y2159000D01*
D30*
X6254001Y12477001D02*
X6604000Y12827000D01*
X4413999Y12477001D02*
X6254001Y12477001D01*
X3530540Y13360460D02*
X4413999Y12477001D01*
X3530540Y29057540D02*
X3530540Y13360460D01*
X3875086Y29402086D02*
X3530540Y29057540D01*
X3626686Y38227000D02*
X3683000Y38170686D01*
X3683000Y38170686D02*
X3683000Y32004000D01*
X3683000Y32004000D02*
X3875086Y31811914D01*
X3875086Y31811914D02*
X3875086Y29402086D01*
X8912767Y11915233D02*
X8912767Y12174910D01*
X11366500Y9461500D02*
X8912767Y11915233D01*
X11995126Y9461500D02*
X11366500Y9461500D01*
X12954000Y8502626D02*
X11995126Y9461500D01*
X15621000Y2159000D02*
X14732000Y3048000D01*
X14732000Y3048000D02*
X14732000Y4225510D01*
X14732000Y4225510D02*
X12954000Y6003510D01*
X12954000Y6003510D02*
X12954000Y8502626D01*
D29*
X19050000Y1270000D02*
X18415000Y1905000D01*
D30*
X13462000Y6034340D02*
X17591340Y1905000D01*
X13462000Y8533455D02*
X13462000Y6034340D01*
X12152945Y9842510D02*
X13462000Y8533455D01*
X11874490Y9842510D02*
X12152945Y9842510D01*
X9017000Y13716000D02*
X9652000Y13081000D01*
X9652000Y13081000D02*
X9652000Y12065000D01*
X17591340Y1905000D02*
X18415000Y1905000D01*
X9017000Y13843000D02*
X9017000Y13716000D01*
X9652000Y12065000D02*
X11874490Y9842510D01*
X5969000Y35179000D02*
X5969000Y35687000D01*
X5740410Y34950410D02*
X5969000Y35179000D01*
X6096000Y15748000D02*
X5207000Y16637000D01*
X5207000Y16637000D02*
X5207000Y19238497D01*
X5207000Y19238497D02*
X5740410Y19771907D01*
X5740410Y19771907D02*
X5740410Y34950410D01*
D29*
X34290000Y1270000D02*
X33528000Y2032000D01*
D30*
X2997276Y44228425D02*
X3321863Y44553012D01*
X24638000Y19812000D02*
X24638000Y29666864D01*
X24638000Y29666864D02*
X11886831Y42418033D01*
X4479501Y40512991D02*
X3525179Y40512991D01*
X24257000Y19431000D02*
X24638000Y19812000D01*
X11886831Y42418033D02*
X6384543Y42418033D01*
X6384543Y42418033D02*
X4479501Y40512991D01*
X3525179Y40512991D02*
X2997276Y41040894D01*
X2997276Y41040894D02*
X2997276Y44228425D01*
X33045422Y2514578D02*
X33528000Y2032000D01*
X30734000Y4826000D02*
X33045422Y2514578D01*
X24257000Y19431000D02*
X23622000Y18796000D01*
X30734000Y5842000D02*
X30734000Y4826000D01*
X23622000Y18796000D02*
X23622000Y12954000D01*
X23622000Y12954000D02*
X30734000Y5842000D01*
X44704000Y48387000D02*
X46482000Y48387000D01*
X44323000Y48006000D02*
X44704000Y48387000D01*
X44323000Y41656000D02*
X44323000Y48006000D01*
X44577000Y24638000D02*
X45720000Y25781000D01*
X44577000Y20828000D02*
X44577000Y24638000D01*
X45974000Y19431000D02*
X44577000Y20828000D01*
X45974000Y18923000D02*
X45974000Y19431000D01*
X45720000Y25781000D02*
X46355000Y25781000D01*
X46355000Y25781000D02*
X48895000Y28321000D01*
X48895000Y28321000D02*
X48895000Y38989000D01*
X47498000Y40386000D02*
X45593000Y40386000D01*
X48895000Y38989000D02*
X47498000Y40386000D01*
X45593000Y40386000D02*
X44323000Y41656000D01*
X15781113Y44481001D02*
X15431114Y44831000D01*
X16051183Y44481001D02*
X15781113Y44481001D01*
X24946752Y35585432D02*
X16051183Y44481001D01*
X35565367Y33098483D02*
X35433000Y33230850D01*
X35433000Y33230850D02*
X35433000Y34288160D01*
X35433000Y34288160D02*
X34135728Y35585432D01*
X34135728Y35585432D02*
X24946752Y35585432D01*
X34193440Y32607438D02*
X34543439Y32257439D01*
X33820090Y34823410D02*
X34193440Y34450060D01*
X34193440Y34450060D02*
X34193440Y32607438D01*
X17344999Y42109526D02*
X24631115Y34823410D01*
X16154053Y42109526D02*
X17344999Y42109526D01*
X24631115Y34823410D02*
X33820090Y34823410D01*
X34798000Y32893000D02*
X35518546Y32172454D01*
X34798000Y34384330D02*
X34798000Y32893000D01*
X16120035Y42986679D02*
X17006675Y42986679D01*
X33977909Y35204421D02*
X34798000Y34384330D01*
X17006675Y42986679D02*
X24788933Y35204421D01*
X24788933Y35204421D02*
X33977909Y35204421D01*
X15917700Y45712734D02*
X15422726Y45712734D01*
X16123401Y44947613D02*
X16123401Y45507033D01*
X25104571Y35966443D02*
X16123401Y44947613D01*
X36449000Y32512000D02*
X36449000Y33274000D01*
X34293547Y35966443D02*
X25104571Y35966443D01*
X36449000Y33274000D02*
X36068000Y33655000D01*
X16123401Y45507033D02*
X15917700Y45712734D01*
X36068000Y34191990D02*
X34293547Y35966443D01*
X36068000Y33655000D02*
X36068000Y34191990D01*
D37*
X22098000Y30152819D02*
X22117803Y30172622D01*
X22098000Y29337000D02*
X22098000Y30152819D01*
X21717000Y28956000D02*
X22098000Y29337000D01*
D30*
X43789600Y33807400D02*
X42512690Y33807400D01*
X44069000Y33528000D02*
X43789600Y33807400D01*
X42512690Y33807400D02*
X40614600Y31909310D01*
X40614600Y31909310D02*
X40614600Y25305310D01*
X40614600Y25305310D02*
X38328600Y23019310D01*
X32486600Y11074400D02*
X32486600Y11589310D01*
X32766000Y10795000D02*
X32486600Y11074400D01*
X38328600Y17431310D02*
X38328600Y23019310D01*
X32486600Y11589310D02*
X38328600Y17431310D01*
X43789600Y34264600D02*
X42323310Y34264600D01*
X44069000Y34544000D02*
X43789600Y34264600D01*
X42323310Y34264600D02*
X40157400Y32098690D01*
X40157400Y32098690D02*
X40157400Y25494690D01*
X40157400Y25494690D02*
X37871400Y23208690D01*
X32029400Y11074400D02*
X32029400Y11778690D01*
X31750000Y10795000D02*
X32029400Y11074400D01*
X37871400Y17620690D02*
X37871400Y23208690D01*
X32029400Y11778690D02*
X37871400Y17620690D01*
D29*
X29210000Y1270000D02*
X29210000Y2413000D01*
D31*
X22123400Y27025600D02*
X22123400Y26543000D01*
X21844000Y27305000D02*
X22123400Y27025600D01*
X21844000Y27432000D02*
X21844000Y27305000D01*
D30*
X26670000Y4953000D02*
X29210000Y2413000D01*
X26670000Y6985000D02*
X26670000Y4953000D01*
X21590000Y12065000D02*
X26670000Y6985000D01*
X22123400Y26543000D02*
X22199600Y26466800D01*
X22199600Y26466800D02*
X22199600Y23850600D01*
X21590000Y23241000D02*
X21590000Y12065000D01*
X22199600Y23850600D02*
X21590000Y23241000D01*
D35*
G36*
X22733000Y55245000D02*
G01*
X22735440Y55220224D01*
X22742667Y55196399D01*
X22754403Y55174443D01*
X22770197Y55155197D01*
X22789443Y55139403D01*
X22811399Y55127667D01*
X22835224Y55120440D01*
X22860000Y55118000D01*
X23495000Y55118000D01*
X23495000Y53133500D01*
X20757518Y50396017D01*
X20739099Y50380901D01*
X20678791Y50307415D01*
X20633978Y50223576D01*
X20606383Y50132605D01*
X20599400Y50061707D01*
X20597065Y50038000D01*
X20599400Y50014295D01*
X20599401Y46886715D01*
X20597065Y46863000D01*
X20606384Y46768394D01*
X20633978Y46677424D01*
X20678792Y46593585D01*
X20722768Y46540000D01*
X20739100Y46520099D01*
X20757513Y46504988D01*
X23749000Y43513500D01*
X23749000Y39751000D01*
X23751440Y39726224D01*
X23758667Y39702399D01*
X23770403Y39680443D01*
X23786197Y39661197D01*
X23805443Y39645403D01*
X23827399Y39633667D01*
X23851224Y39626440D01*
X23876000Y39624000D01*
X23956444Y39624000D01*
X23967393Y39568954D01*
X24022497Y39435921D01*
X24102496Y39316194D01*
X24204316Y39214374D01*
X24324043Y39134375D01*
X24457076Y39079271D01*
X24598304Y39051179D01*
X24742298Y39051179D01*
X24883526Y39079271D01*
X25016559Y39134375D01*
X25033106Y39145432D01*
X25097545Y39080993D01*
X25217272Y39000994D01*
X25350305Y38945890D01*
X25351461Y38945660D01*
X25327598Y38901015D01*
X25284026Y38757378D01*
X25269314Y38608000D01*
X25284026Y38458622D01*
X25327598Y38314985D01*
X25398355Y38182608D01*
X25493578Y38066578D01*
X25609608Y37971355D01*
X25741985Y37900598D01*
X25885622Y37857026D01*
X25997574Y37846000D01*
X26169412Y37846000D01*
X26300709Y37738247D01*
X26455149Y37655697D01*
X26622726Y37604864D01*
X26753333Y37592000D01*
X38524667Y37592000D01*
X38655274Y37604864D01*
X38822851Y37655697D01*
X38977291Y37738247D01*
X39112659Y37849341D01*
X39131487Y37872284D01*
X41688671Y37872284D01*
X41701589Y37846910D01*
X41822494Y37637525D01*
X41981924Y37455751D01*
X42173753Y37308573D01*
X42390609Y37201647D01*
X42624159Y37139082D01*
X42816998Y37281395D01*
X42816998Y37121000D01*
X43169447Y37121000D01*
X43144000Y36993073D01*
X43144000Y36858927D01*
X43170171Y36727360D01*
X43221506Y36603426D01*
X43296033Y36491888D01*
X43390888Y36397033D01*
X43502426Y36322506D01*
X43626360Y36271171D01*
X43757927Y36245000D01*
X43892073Y36245000D01*
X44023640Y36271171D01*
X44147574Y36322506D01*
X44259112Y36397033D01*
X44353967Y36491888D01*
X44428494Y36603426D01*
X44479829Y36727360D01*
X44506000Y36858927D01*
X44506000Y36993073D01*
X44479829Y37124640D01*
X44428494Y37248574D01*
X44410173Y37275994D01*
X44476247Y37308573D01*
X44668076Y37455751D01*
X44827506Y37637525D01*
X44944720Y37840519D01*
X45977925Y37840519D01*
X46051123Y37739396D01*
X46192627Y37535888D01*
X46371115Y37363897D01*
X46579727Y37230032D01*
X46810446Y37139437D01*
X47005000Y37259265D01*
X47005000Y38031000D01*
X46076661Y38031000D01*
X45977925Y37840519D01*
X44944720Y37840519D01*
X44948411Y37846910D01*
X44961329Y37872284D01*
X44858593Y38056000D01*
X43833000Y38056000D01*
X43833000Y37828000D01*
X42817000Y37828000D01*
X42817000Y38056000D01*
X41791407Y38056000D01*
X41688671Y37872284D01*
X39131487Y37872284D01*
X39223753Y37984709D01*
X39306303Y38139149D01*
X39357136Y38306726D01*
X39374301Y38481000D01*
X39357136Y38655274D01*
X39306303Y38822851D01*
X39297289Y38839716D01*
X41688671Y38839716D01*
X41791407Y38656000D01*
X42817000Y38656000D01*
X42817000Y39430604D01*
X43833000Y39430604D01*
X43833000Y38656000D01*
X44858593Y38656000D01*
X44961329Y38839716D01*
X44948411Y38865090D01*
X44944721Y38871481D01*
X45977925Y38871481D01*
X46076661Y38681000D01*
X47005000Y38681000D01*
X47005000Y39452735D01*
X46810446Y39572563D01*
X46579727Y39481968D01*
X46371115Y39348103D01*
X46192627Y39176112D01*
X46051123Y38972604D01*
X45977925Y38871481D01*
X44944721Y38871481D01*
X44827506Y39074475D01*
X44668076Y39256249D01*
X44476247Y39403427D01*
X44259391Y39510353D01*
X44025841Y39572918D01*
X43833000Y39430604D01*
X42817000Y39430604D01*
X42624159Y39572918D01*
X42390609Y39510353D01*
X42173753Y39403427D01*
X41981924Y39256249D01*
X41822494Y39074475D01*
X41701589Y38865090D01*
X41688671Y38839716D01*
X39297289Y38839716D01*
X39271801Y38887400D01*
X39790795Y38887400D01*
X39814500Y38885065D01*
X39838205Y38887400D01*
X39838207Y38887400D01*
X39909106Y38894383D01*
X40000077Y38921978D01*
X40083915Y38966791D01*
X40157401Y39027099D01*
X40172517Y39045518D01*
X40710487Y39583487D01*
X40728901Y39598599D01*
X40789209Y39672085D01*
X40834022Y39755923D01*
X40861617Y39846894D01*
X40868600Y39917793D01*
X40868600Y39917794D01*
X40870935Y39941499D01*
X40868600Y39965204D01*
X40868600Y44250101D01*
X40966899Y44348400D01*
X42838795Y44348400D01*
X42862500Y44346065D01*
X42886205Y44348400D01*
X42886207Y44348400D01*
X42957106Y44355383D01*
X43048077Y44382978D01*
X43131915Y44427791D01*
X43205401Y44488099D01*
X43220517Y44506518D01*
X43504482Y44790483D01*
X43522901Y44805599D01*
X43583209Y44879085D01*
X43628022Y44962923D01*
X43639582Y45001033D01*
X43655617Y45053893D01*
X43664935Y45148500D01*
X43662600Y45172207D01*
X43662600Y50268296D01*
X43664935Y50292001D01*
X43661180Y50330122D01*
X43655617Y50386606D01*
X43628022Y50477577D01*
X43583209Y50561415D01*
X43522901Y50634901D01*
X43504488Y50650012D01*
X41275000Y52879500D01*
X41275000Y55254851D01*
X44543272Y55254851D01*
X44931480Y54818030D01*
X45619310Y54530316D01*
X46350053Y54382319D01*
X47095629Y54379727D01*
X47827384Y54522639D01*
X48517198Y54805564D01*
X48540520Y54818030D01*
X48928728Y55254851D01*
X48826783Y55356796D01*
X48852087Y55364472D01*
X48910127Y55567608D01*
X48387000Y56090736D01*
X48239922Y55943658D01*
X47942502Y56241078D01*
X47972279Y56270856D01*
X47845436Y56397699D01*
X47962736Y56515000D01*
X47439608Y57038127D01*
X47257142Y56985993D01*
X47253856Y56989279D01*
X47247941Y56983364D01*
X47236472Y56980087D01*
X47233060Y56968483D01*
X47224079Y56959501D01*
X46736000Y57447580D01*
X46247922Y56959501D01*
X46218144Y56989279D01*
X46116081Y56887216D01*
X46032392Y56911127D01*
X45509264Y56388000D01*
X45563065Y56334199D01*
X45499721Y56270856D01*
X45529499Y56241078D01*
X45168578Y55880158D01*
X45085000Y55963736D01*
X44561873Y55440608D01*
X44599019Y55310598D01*
X44543272Y55254851D01*
X41275000Y55254851D01*
X41275000Y57806371D01*
X42949727Y57806371D01*
X43092639Y57074616D01*
X43375564Y56384802D01*
X43388030Y56361480D01*
X43824851Y55973272D01*
X43897238Y56045659D01*
X43934472Y55922913D01*
X44137608Y55864873D01*
X44660736Y56388000D01*
X44499515Y56549220D01*
X44923780Y56973484D01*
X45085000Y56812264D01*
X45608127Y57335392D01*
X45550087Y57538528D01*
X45472482Y57561347D01*
X45559279Y57648144D01*
X45529502Y57677921D01*
X46017580Y58166000D01*
X45529501Y58654078D01*
X45538328Y58662905D01*
X45550087Y58666472D01*
X45553364Y58677941D01*
X45559279Y58683856D01*
X45555993Y58687142D01*
X45608127Y58869608D01*
X45085000Y59392736D01*
X44967700Y59275435D01*
X44840856Y59402279D01*
X44811079Y59372501D01*
X44513658Y59669922D01*
X44660736Y59817000D01*
X44137608Y60340127D01*
X43934472Y60282087D01*
X43926978Y60256601D01*
X43824851Y60358728D01*
X43388030Y59970520D01*
X43100316Y59282690D01*
X42952319Y58551947D01*
X42949727Y57806371D01*
X41275000Y57806371D01*
X41275000Y61722000D01*
X45431617Y61722000D01*
X44954802Y61526436D01*
X44931480Y61513970D01*
X44543272Y61077149D01*
X44645217Y60975204D01*
X44619913Y60967528D01*
X44561873Y60764392D01*
X45085000Y60241264D01*
X45232078Y60388342D01*
X45529499Y60090921D01*
X45499721Y60061144D01*
X45626565Y59934300D01*
X45509264Y59817000D01*
X46032392Y59293873D01*
X46214858Y59346007D01*
X46218144Y59342721D01*
X46224059Y59348636D01*
X46235528Y59351913D01*
X46238940Y59363517D01*
X46247922Y59372498D01*
X46736000Y58884420D01*
X47224078Y59372499D01*
X47232905Y59363672D01*
X47236472Y59351913D01*
X47247941Y59348636D01*
X47253856Y59342721D01*
X47257142Y59346007D01*
X47439608Y59293873D01*
X47962736Y59817000D01*
X47845436Y59934300D01*
X47972279Y60061144D01*
X47942502Y60090921D01*
X48239922Y60388342D01*
X48387000Y60241264D01*
X48910127Y60764392D01*
X48852087Y60967528D01*
X48826601Y60975022D01*
X48928728Y61077149D01*
X48540520Y61513970D01*
X48043188Y61722000D01*
X50292000Y61722000D01*
X50292000Y59470383D01*
X50096436Y59947198D01*
X50083970Y59970520D01*
X49647149Y60358728D01*
X49545204Y60256783D01*
X49537528Y60282087D01*
X49334392Y60340127D01*
X48811264Y59817000D01*
X48958342Y59669922D01*
X48660922Y59372501D01*
X48631144Y59402279D01*
X48504301Y59275435D01*
X48387000Y59392736D01*
X47863873Y58869608D01*
X47916007Y58687142D01*
X47912721Y58683856D01*
X47918636Y58677941D01*
X47921913Y58666472D01*
X47933517Y58663060D01*
X47942499Y58654078D01*
X47454420Y58166000D01*
X47942499Y57677922D01*
X47933672Y57669095D01*
X47921913Y57665528D01*
X47918636Y57654059D01*
X47912721Y57648144D01*
X47916007Y57644858D01*
X47863873Y57462392D01*
X48387000Y56939264D01*
X48504301Y57056564D01*
X48631144Y56929721D01*
X48660922Y56959498D01*
X48958342Y56662078D01*
X48811264Y56515000D01*
X49334392Y55991873D01*
X49537528Y56049913D01*
X49545022Y56075399D01*
X49647149Y55973272D01*
X50083970Y56361480D01*
X50292000Y56858812D01*
X50292001Y2378444D01*
X49911000Y2759445D01*
X49911000Y19247862D01*
X49916529Y19304001D01*
X49911000Y19360140D01*
X49911000Y19360146D01*
X49894461Y19528067D01*
X49890954Y19539630D01*
X49856679Y19652617D01*
X49829103Y19743523D01*
X49722968Y19942089D01*
X49580133Y20116133D01*
X49536523Y20151923D01*
X47625000Y22063445D01*
X47625000Y23932146D01*
X47608461Y24100067D01*
X47543103Y24315523D01*
X47436968Y24514089D01*
X47294133Y24688133D01*
X47120088Y24830968D01*
X47026494Y24880995D01*
X49600488Y27454988D01*
X49618901Y27470099D01*
X49679209Y27543585D01*
X49724022Y27627423D01*
X49730547Y27648935D01*
X49751617Y27718393D01*
X49760935Y27813000D01*
X49758600Y27836707D01*
X49758600Y40743304D01*
X49760934Y40767001D01*
X49758600Y40790698D01*
X49758600Y40790707D01*
X49751617Y40861606D01*
X49724022Y40952577D01*
X49679209Y41036415D01*
X49639358Y41084974D01*
X49644136Y41100726D01*
X49657000Y41231333D01*
X49657000Y41462624D01*
X49714608Y41480099D01*
X49780796Y41515478D01*
X49838811Y41563089D01*
X49886422Y41621104D01*
X49921801Y41687292D01*
X49943587Y41759111D01*
X49950943Y41833800D01*
X49950943Y43002200D01*
X49943587Y43076889D01*
X49921801Y43148708D01*
X49905075Y43180000D01*
X49921801Y43211292D01*
X49943587Y43283111D01*
X49950943Y43357800D01*
X49950943Y44526200D01*
X49943587Y44600889D01*
X49921801Y44672708D01*
X49886422Y44738896D01*
X49838811Y44796911D01*
X49780796Y44844522D01*
X49714608Y44879901D01*
X49642789Y44901687D01*
X49568100Y44909043D01*
X47967900Y44909043D01*
X47893211Y44901687D01*
X47821392Y44879901D01*
X47755204Y44844522D01*
X47738727Y44831000D01*
X46438327Y44831000D01*
X46307720Y44818136D01*
X46140143Y44767303D01*
X45985703Y44684753D01*
X45850335Y44573659D01*
X45739241Y44438291D01*
X45656691Y44283851D01*
X45605858Y44116274D01*
X45588693Y43942000D01*
X45605858Y43767726D01*
X45656691Y43600149D01*
X45739241Y43445709D01*
X45850335Y43310341D01*
X45985703Y43199247D01*
X46140143Y43116697D01*
X46307720Y43065864D01*
X46438327Y43053000D01*
X47590060Y43053000D01*
X47585057Y43002200D01*
X47585057Y41833800D01*
X47592413Y41759111D01*
X47614199Y41687292D01*
X47649578Y41621104D01*
X47697189Y41563089D01*
X47755204Y41515478D01*
X47821392Y41480099D01*
X47879001Y41462624D01*
X47879001Y41231333D01*
X47891865Y41100726D01*
X47942698Y40933149D01*
X48025248Y40778709D01*
X48136342Y40643341D01*
X48271710Y40532247D01*
X48426150Y40449697D01*
X48593727Y40398864D01*
X48768000Y40381699D01*
X48793400Y40384201D01*
X48793400Y39773099D01*
X47856017Y40710482D01*
X47840901Y40728901D01*
X47767415Y40789209D01*
X47683577Y40834022D01*
X47592606Y40861617D01*
X47521707Y40868600D01*
X47521705Y40868600D01*
X47498000Y40870935D01*
X47474295Y40868600D01*
X45792899Y40868600D01*
X44805600Y41855899D01*
X44805600Y47806101D01*
X44903899Y47904400D01*
X45930810Y47904400D01*
X46016015Y47819195D01*
X46135742Y47739196D01*
X46268775Y47684092D01*
X46410003Y47656000D01*
X46553997Y47656000D01*
X46695225Y47684092D01*
X46828258Y47739196D01*
X46947985Y47819195D01*
X47049805Y47921015D01*
X47129804Y48040742D01*
X47184908Y48173775D01*
X47213000Y48315003D01*
X47213000Y48458997D01*
X47184908Y48600225D01*
X47129804Y48733258D01*
X47049805Y48852985D01*
X46947985Y48954805D01*
X46828258Y49034804D01*
X46695225Y49089908D01*
X46553997Y49118000D01*
X46410003Y49118000D01*
X46268775Y49089908D01*
X46135742Y49034804D01*
X46016015Y48954805D01*
X45930810Y48869600D01*
X44727696Y48869600D01*
X44703999Y48871934D01*
X44680302Y48869600D01*
X44680293Y48869600D01*
X44609394Y48862617D01*
X44518423Y48835022D01*
X44434585Y48790209D01*
X44361099Y48729901D01*
X44345983Y48711482D01*
X43998513Y48364012D01*
X43980100Y48348901D01*
X43964989Y48330488D01*
X43964987Y48330486D01*
X43919792Y48275415D01*
X43874978Y48191576D01*
X43847384Y48100606D01*
X43838065Y48006000D01*
X43840401Y47982285D01*
X43840400Y41679705D01*
X43838065Y41656000D01*
X43840400Y41632295D01*
X43840400Y41632294D01*
X43847383Y41561395D01*
X43874978Y41470424D01*
X43919791Y41386585D01*
X43980099Y41313099D01*
X43998518Y41297983D01*
X45234983Y40061518D01*
X45250099Y40043099D01*
X45323585Y39982791D01*
X45407423Y39937978D01*
X45498394Y39910383D01*
X45569293Y39903400D01*
X45569294Y39903400D01*
X45592999Y39901065D01*
X45616704Y39903400D01*
X47298101Y39903400D01*
X48005000Y39196501D01*
X48005000Y38681000D01*
X48033000Y38681000D01*
X48033000Y38031000D01*
X48005000Y38031000D01*
X48005000Y37259265D01*
X48199554Y37139437D01*
X48412401Y37223014D01*
X48412400Y30848986D01*
X48199554Y30932563D01*
X48005000Y30812735D01*
X48005000Y30041000D01*
X48033000Y30041000D01*
X48033000Y29391000D01*
X48005000Y29391000D01*
X48005000Y28619265D01*
X48199554Y28499437D01*
X48412400Y28583014D01*
X48412400Y28520899D01*
X46155101Y26263600D01*
X45743704Y26263600D01*
X45719999Y26265935D01*
X45696294Y26263600D01*
X45696293Y26263600D01*
X45625394Y26256617D01*
X45534423Y26229022D01*
X45450585Y26184209D01*
X45377099Y26123901D01*
X45361988Y26105488D01*
X44252513Y24996012D01*
X44234100Y24980901D01*
X44218989Y24962488D01*
X44218987Y24962486D01*
X44173792Y24907415D01*
X44128978Y24823576D01*
X44101384Y24732606D01*
X44092065Y24638000D01*
X44094401Y24614285D01*
X44094400Y20851705D01*
X44092065Y20828000D01*
X44094400Y20804295D01*
X44094400Y20804294D01*
X44101383Y20733395D01*
X44128978Y20642424D01*
X44173791Y20558585D01*
X44234099Y20485099D01*
X44252518Y20469983D01*
X45377084Y19345417D01*
X45326196Y19269258D01*
X45271092Y19136225D01*
X45243000Y18994997D01*
X45243000Y18851003D01*
X45271092Y18709775D01*
X45326196Y18576742D01*
X45406195Y18457015D01*
X45508015Y18355195D01*
X45627742Y18275196D01*
X45760775Y18220092D01*
X45902003Y18192000D01*
X46045997Y18192000D01*
X46187225Y18220092D01*
X46299259Y18266498D01*
X46317935Y18172606D01*
X46380577Y18021374D01*
X46471520Y17885268D01*
X46587268Y17769520D01*
X46723374Y17678577D01*
X46874606Y17615935D01*
X47035154Y17584000D01*
X47198846Y17584000D01*
X47359394Y17615935D01*
X47510626Y17678577D01*
X47625001Y17755000D01*
X47625001Y13767018D01*
X47584225Y13783908D01*
X47442997Y13812000D01*
X47359933Y13812000D01*
X47350948Y13822948D01*
X47273595Y13886429D01*
X47185343Y13933601D01*
X47089585Y13962649D01*
X47014947Y13970000D01*
X47014944Y13970000D01*
X46990000Y13972457D01*
X46965056Y13970000D01*
X45363944Y13970000D01*
X45339000Y13972457D01*
X45314056Y13970000D01*
X45314053Y13970000D01*
X45239415Y13962649D01*
X45143657Y13933601D01*
X45055405Y13886429D01*
X44978052Y13822948D01*
X44962145Y13803565D01*
X44716580Y13558000D01*
X44632003Y13558000D01*
X44490775Y13529908D01*
X44357742Y13474804D01*
X44238015Y13394805D01*
X44136195Y13292985D01*
X44056196Y13173258D01*
X44001092Y13040225D01*
X43973000Y12898997D01*
X43973000Y12755003D01*
X44001092Y12613775D01*
X44056196Y12480742D01*
X44136195Y12361015D01*
X44238015Y12259195D01*
X44357742Y12179196D01*
X44490775Y12124092D01*
X44632003Y12096000D01*
X44775997Y12096000D01*
X44917225Y12124092D01*
X45050258Y12179196D01*
X45169985Y12259195D01*
X45271805Y12361015D01*
X45351804Y12480742D01*
X45406908Y12613775D01*
X45435000Y12755003D01*
X45435000Y12839580D01*
X45549420Y12954000D01*
X46650941Y12954000D01*
X46668092Y12867775D01*
X46723196Y12734742D01*
X46803195Y12615015D01*
X46905015Y12513195D01*
X47024742Y12433196D01*
X47157775Y12378092D01*
X47299003Y12350000D01*
X47442997Y12350000D01*
X47584225Y12378092D01*
X47625001Y12394982D01*
X47625000Y2623424D01*
X47564973Y2563397D01*
X47491759Y2716839D01*
X47199853Y2786927D01*
X46899883Y2798720D01*
X46603376Y2751766D01*
X46488241Y2716839D01*
X46386018Y2502600D01*
X46990000Y1898618D01*
X47049044Y1957661D01*
X47677662Y1329043D01*
X47618618Y1270000D01*
X47677662Y1210956D01*
X47049044Y582338D01*
X46990000Y641382D01*
X46930957Y582338D01*
X46302339Y1210956D01*
X46361382Y1270000D01*
X45757400Y1873982D01*
X45604650Y1801098D01*
X45575459Y1871571D01*
X45436473Y2079578D01*
X45259578Y2256473D01*
X45051571Y2395459D01*
X44820445Y2491195D01*
X44575084Y2540000D01*
X44324916Y2540000D01*
X44079555Y2491195D01*
X43848429Y2395459D01*
X43640422Y2256473D01*
X43463527Y2079578D01*
X43324541Y1871571D01*
X43228805Y1640445D01*
X43180000Y1395084D01*
X43131195Y1640445D01*
X43035459Y1871571D01*
X42896473Y2079578D01*
X42719578Y2256473D01*
X42511571Y2395459D01*
X42280445Y2491195D01*
X42035084Y2540000D01*
X41784916Y2540000D01*
X41539555Y2491195D01*
X41308429Y2395459D01*
X41100422Y2256473D01*
X40923527Y2079578D01*
X40784541Y1871571D01*
X40688805Y1640445D01*
X40640000Y1395084D01*
X40591195Y1640445D01*
X40495459Y1871571D01*
X40356473Y2079578D01*
X40179578Y2256473D01*
X39971571Y2395459D01*
X39740445Y2491195D01*
X39495084Y2540000D01*
X39357235Y2540000D01*
X39078740Y2818495D01*
X38977291Y2901752D01*
X38822852Y2984302D01*
X38655274Y3035136D01*
X38481000Y3052300D01*
X38306726Y3035136D01*
X38291870Y3030629D01*
X37950017Y3372482D01*
X37934901Y3390901D01*
X37861415Y3451209D01*
X37777577Y3496022D01*
X37686606Y3523617D01*
X37615707Y3530600D01*
X37615705Y3530600D01*
X37592000Y3532935D01*
X37568295Y3530600D01*
X33600900Y3530600D01*
X31724600Y5406899D01*
X31724600Y5945293D01*
X31726935Y5969000D01*
X31717617Y6063607D01*
X31690022Y6154577D01*
X31685508Y6163022D01*
X31645209Y6238415D01*
X31584901Y6311901D01*
X31566488Y6327012D01*
X29740244Y8153256D01*
X29741707Y8153400D01*
X32214810Y8153400D01*
X32300015Y8068195D01*
X32419742Y7988196D01*
X32552775Y7933092D01*
X32694003Y7905000D01*
X32837997Y7905000D01*
X32979225Y7933092D01*
X33112258Y7988196D01*
X33231985Y8068195D01*
X33333805Y8170015D01*
X33413804Y8289742D01*
X33468908Y8422775D01*
X33497000Y8564003D01*
X33497000Y8707997D01*
X33468908Y8849225D01*
X33413804Y8982258D01*
X33333805Y9101985D01*
X33231985Y9203805D01*
X33112258Y9283804D01*
X32979225Y9338908D01*
X32837997Y9367000D01*
X32694003Y9367000D01*
X32552775Y9338908D01*
X32419742Y9283804D01*
X32300015Y9203805D01*
X32214810Y9118600D01*
X29917900Y9118600D01*
X27510828Y11525672D01*
X27528000Y11612003D01*
X27528000Y11684000D01*
X30734000Y11684000D01*
X30734000Y10414000D01*
X30736440Y10389224D01*
X30743667Y10365399D01*
X30755403Y10343443D01*
X30771197Y10324197D01*
X31279197Y9816197D01*
X31298443Y9800403D01*
X31320399Y9788667D01*
X31344224Y9781440D01*
X31369000Y9779000D01*
X33147000Y9779000D01*
X33163436Y9780068D01*
X33187688Y9785694D01*
X33210377Y9795944D01*
X33230630Y9810423D01*
X33738630Y10254923D01*
X33760597Y10279943D01*
X33772333Y10301899D01*
X33779560Y10325724D01*
X33782000Y10350500D01*
X33782000Y11377394D01*
X37338001Y14933395D01*
X37338000Y12253631D01*
X35555649Y10471279D01*
X35526579Y10447422D01*
X35502722Y10418352D01*
X35502721Y10418351D01*
X35431355Y10331392D01*
X35399388Y10271585D01*
X35360598Y10199015D01*
X35317026Y10055378D01*
X35306000Y9943426D01*
X35302314Y9906000D01*
X35306000Y9868577D01*
X35306000Y9602877D01*
X35268935Y9513394D01*
X35237000Y9352846D01*
X35237000Y9189154D01*
X35268935Y9028606D01*
X35331577Y8877374D01*
X35422520Y8741268D01*
X35538268Y8625520D01*
X35674374Y8534577D01*
X35825606Y8471935D01*
X35986154Y8440000D01*
X36149846Y8440000D01*
X36310394Y8471935D01*
X36461626Y8534577D01*
X36597732Y8625520D01*
X36713480Y8741268D01*
X36804423Y8877374D01*
X36867065Y9028606D01*
X36899000Y9189154D01*
X36899000Y9352846D01*
X36867065Y9513394D01*
X36833663Y9594033D01*
X38612353Y11372722D01*
X38641422Y11396578D01*
X38695436Y11462394D01*
X38736645Y11512607D01*
X38798061Y11627509D01*
X38807402Y11644985D01*
X38850974Y11788622D01*
X38862000Y11900574D01*
X38862000Y11900577D01*
X38865686Y11938000D01*
X38862000Y11975423D01*
X38862000Y14797370D01*
X40132000Y16067370D01*
X40132001Y7803149D01*
X40126471Y7747000D01*
X40148539Y7522933D01*
X40213288Y7309487D01*
X40213898Y7307477D01*
X40320033Y7108911D01*
X40376261Y7040397D01*
X40421725Y6985000D01*
X40462868Y6934867D01*
X40506478Y6899077D01*
X41656001Y5749553D01*
X41656001Y5631677D01*
X41651699Y5588000D01*
X41668864Y5413726D01*
X41719697Y5246149D01*
X41802247Y5091709D01*
X41913341Y4956341D01*
X42048709Y4845247D01*
X42203149Y4762697D01*
X42370726Y4711864D01*
X42501333Y4699000D01*
X42545000Y4694699D01*
X42588667Y4699000D01*
X43644333Y4699000D01*
X43688000Y4694699D01*
X43731667Y4699000D01*
X43862274Y4711864D01*
X44029851Y4762697D01*
X44184291Y4845247D01*
X44319659Y4956341D01*
X44430753Y5091709D01*
X44513303Y5246149D01*
X44564136Y5413726D01*
X44581301Y5588000D01*
X44577000Y5631667D01*
X44577000Y5671341D01*
X44581300Y5715001D01*
X44577000Y5758667D01*
X44566457Y5865707D01*
X44564136Y5889276D01*
X44513302Y6056853D01*
X44486775Y6106480D01*
X44430753Y6211291D01*
X44319659Y6346659D01*
X44285741Y6374495D01*
X43204499Y7455736D01*
X43176659Y7489659D01*
X43041290Y7600753D01*
X43033562Y7604884D01*
X42418000Y8220445D01*
X42418000Y21900146D01*
X42401461Y22068067D01*
X42336103Y22283523D01*
X42229968Y22482089D01*
X42087133Y22656133D01*
X41913088Y22798968D01*
X41714522Y22905103D01*
X41499066Y22970461D01*
X41336139Y22986508D01*
X42295353Y23945722D01*
X42324422Y23969578D01*
X42354593Y24006341D01*
X42419645Y24085607D01*
X42482394Y24203004D01*
X42490402Y24217985D01*
X42533974Y24361622D01*
X42545000Y24473574D01*
X42545000Y24473577D01*
X42548686Y24511000D01*
X42545000Y24548423D01*
X42545000Y25830123D01*
X42582065Y25919606D01*
X42614000Y26080154D01*
X42614000Y26243846D01*
X42582065Y26404394D01*
X42545000Y26493877D01*
X42545000Y26973123D01*
X42582065Y27062606D01*
X42614000Y27223154D01*
X42614000Y27386846D01*
X42582065Y27547394D01*
X42519423Y27698626D01*
X42428480Y27834732D01*
X42312732Y27950480D01*
X42176626Y28041423D01*
X42025394Y28104065D01*
X41864846Y28136000D01*
X41701154Y28136000D01*
X41540606Y28104065D01*
X41402000Y28046653D01*
X41402000Y29232284D01*
X41688671Y29232284D01*
X41701589Y29206910D01*
X41822494Y28997525D01*
X41981924Y28815751D01*
X42173753Y28668573D01*
X42390609Y28561647D01*
X42624159Y28499082D01*
X42817000Y28641396D01*
X42817000Y29416000D01*
X43833000Y29416000D01*
X43833000Y28641396D01*
X44025841Y28499082D01*
X44259391Y28561647D01*
X44476247Y28668573D01*
X44668076Y28815751D01*
X44827506Y28997525D01*
X44944720Y29200519D01*
X45977925Y29200519D01*
X46051123Y29099396D01*
X46192627Y28895888D01*
X46371115Y28723897D01*
X46579727Y28590032D01*
X46810446Y28499437D01*
X47005000Y28619265D01*
X47005000Y29391000D01*
X46076661Y29391000D01*
X45977925Y29200519D01*
X44944720Y29200519D01*
X44948411Y29206910D01*
X44961329Y29232284D01*
X44858593Y29416000D01*
X43833000Y29416000D01*
X42817000Y29416000D01*
X41791407Y29416000D01*
X41688671Y29232284D01*
X41402000Y29232284D01*
X41402000Y30199716D01*
X41688671Y30199716D01*
X41791407Y30016000D01*
X42817000Y30016000D01*
X42817000Y30244000D01*
X43833000Y30244000D01*
X43833000Y30016000D01*
X44858593Y30016000D01*
X44961329Y30199716D01*
X44948411Y30225090D01*
X44944721Y30231481D01*
X45977925Y30231481D01*
X46076661Y30041000D01*
X47005000Y30041000D01*
X47005000Y30812735D01*
X46810446Y30932563D01*
X46579727Y30841968D01*
X46371115Y30708103D01*
X46192627Y30536112D01*
X46051123Y30332604D01*
X45977925Y30231481D01*
X44944721Y30231481D01*
X44827506Y30434475D01*
X44668076Y30616249D01*
X44476247Y30763427D01*
X44410173Y30796006D01*
X44428494Y30823426D01*
X44479829Y30947360D01*
X44506000Y31078927D01*
X44506000Y31213073D01*
X44479829Y31344640D01*
X44428494Y31468574D01*
X44353967Y31580112D01*
X44259112Y31674967D01*
X44147574Y31749494D01*
X44023640Y31800829D01*
X43892073Y31827000D01*
X43757927Y31827000D01*
X43626360Y31800829D01*
X43502426Y31749494D01*
X43390888Y31674967D01*
X43296033Y31580112D01*
X43221506Y31468574D01*
X43170171Y31344640D01*
X43144000Y31213073D01*
X43144000Y31078927D01*
X43169447Y30951000D01*
X42816998Y30951000D01*
X42816998Y30790605D01*
X42624159Y30932918D01*
X42390609Y30870353D01*
X42173753Y30763427D01*
X41981924Y30616249D01*
X41822494Y30434475D01*
X41701589Y30225090D01*
X41688671Y30199716D01*
X41402000Y30199716D01*
X41402000Y31443394D01*
X42724606Y32766000D01*
X43254394Y32766000D01*
X43471197Y32549197D01*
X43490443Y32533403D01*
X43512399Y32521667D01*
X43536224Y32514440D01*
X43561000Y32512000D01*
X44704000Y32512000D01*
X44728776Y32514440D01*
X44752601Y32521667D01*
X44774557Y32533403D01*
X44793803Y32549197D01*
X45174803Y32930197D01*
X45190597Y32949443D01*
X45202333Y32971399D01*
X45209560Y32995224D01*
X45212000Y33020000D01*
X45212000Y34925000D01*
X45209560Y34949776D01*
X45202333Y34973601D01*
X45190597Y34995557D01*
X45174803Y35014803D01*
X44666803Y35522803D01*
X44647557Y35538597D01*
X44625601Y35550333D01*
X44601776Y35557560D01*
X44577000Y35560000D01*
X43561000Y35560000D01*
X43536224Y35557560D01*
X43512399Y35550333D01*
X43490443Y35538597D01*
X43471197Y35522803D01*
X43127394Y35179000D01*
X41910000Y35179000D01*
X41883608Y35176227D01*
X41859880Y35168692D01*
X41838077Y35156671D01*
X41819039Y35140629D01*
X39406039Y32664129D01*
X39391403Y32646057D01*
X39379667Y32624101D01*
X39372440Y32600276D01*
X39370000Y32575500D01*
X39370000Y26056906D01*
X37122471Y23871808D01*
X37105403Y23851307D01*
X37093667Y23829351D01*
X37086440Y23805526D01*
X37084000Y23780750D01*
X37084000Y18086606D01*
X30771197Y11773803D01*
X30755403Y11754557D01*
X30743667Y11732601D01*
X30736440Y11708776D01*
X30734000Y11684000D01*
X27528000Y11684000D01*
X27528000Y11755997D01*
X27499908Y11897225D01*
X27444804Y12030258D01*
X27364805Y12149985D01*
X27262985Y12251805D01*
X27143258Y12331804D01*
X27010225Y12386908D01*
X26868997Y12415000D01*
X26725003Y12415000D01*
X26583775Y12386908D01*
X26450742Y12331804D01*
X26331015Y12251805D01*
X26229195Y12149985D01*
X26149196Y12030258D01*
X26094092Y11897225D01*
X26077863Y11815636D01*
X24612600Y13280899D01*
X24612600Y17834101D01*
X25597488Y18818988D01*
X25615901Y18834099D01*
X25676209Y18907585D01*
X25721022Y18991423D01*
X25748617Y19082394D01*
X25755600Y19153293D01*
X25755600Y19153294D01*
X25757935Y19176999D01*
X25755600Y19200707D01*
X25755600Y26741106D01*
X25823011Y26673695D01*
X25942738Y26593696D01*
X26075771Y26538592D01*
X26216999Y26510500D01*
X26360993Y26510500D01*
X26502221Y26538592D01*
X26635254Y26593696D01*
X26733498Y26659341D01*
X26831742Y26593696D01*
X26964775Y26538592D01*
X27106003Y26510500D01*
X27249997Y26510500D01*
X27391225Y26538592D01*
X27463188Y26568400D01*
X30104619Y26568400D01*
X30128607Y26532500D01*
X30230427Y26430680D01*
X30350154Y26350681D01*
X30483187Y26295577D01*
X30624415Y26267485D01*
X30768409Y26267485D01*
X30909637Y26295577D01*
X31042670Y26350681D01*
X31162397Y26430680D01*
X31187048Y26455331D01*
X31224337Y26430416D01*
X31357370Y26375312D01*
X31498598Y26347220D01*
X31642592Y26347220D01*
X31783820Y26375312D01*
X31916853Y26430416D01*
X31988921Y26478570D01*
X32101727Y26403196D01*
X32234760Y26348092D01*
X32375988Y26320000D01*
X32519982Y26320000D01*
X32661210Y26348092D01*
X32794243Y26403196D01*
X32913970Y26483195D01*
X33015790Y26585015D01*
X33095789Y26704742D01*
X33150893Y26837775D01*
X33178985Y26979003D01*
X33178985Y27122997D01*
X33150893Y27264225D01*
X33095789Y27397258D01*
X33015790Y27516985D01*
X32980125Y27552650D01*
X34696400Y27552650D01*
X34696400Y27356758D01*
X34720803Y27234077D01*
X34768670Y27118515D01*
X34838163Y27014511D01*
X34926611Y26926063D01*
X35030615Y26856570D01*
X35146177Y26808703D01*
X35268858Y26784300D01*
X35572700Y26784300D01*
X35731450Y26943050D01*
X35731450Y27711400D01*
X36531550Y27711400D01*
X36531550Y26943050D01*
X36690300Y26784300D01*
X36994142Y26784300D01*
X37116823Y26808703D01*
X37232385Y26856570D01*
X37336389Y26926063D01*
X37424837Y27014511D01*
X37494330Y27118515D01*
X37542197Y27234077D01*
X37566600Y27356758D01*
X37566600Y27552650D01*
X37407850Y27711400D01*
X36531550Y27711400D01*
X35731450Y27711400D01*
X34855150Y27711400D01*
X34696400Y27552650D01*
X32980125Y27552650D01*
X32913970Y27618805D01*
X32794243Y27698804D01*
X32661210Y27753908D01*
X32519982Y27782000D01*
X32463500Y27782000D01*
X31663517Y28581982D01*
X31648401Y28600401D01*
X31574915Y28660709D01*
X31491077Y28705522D01*
X31400106Y28733117D01*
X31329207Y28740100D01*
X31329205Y28740100D01*
X31305500Y28742435D01*
X31281795Y28740100D01*
X28965400Y28740100D01*
X28241500Y29464000D01*
X33905326Y29464000D01*
X33920038Y29314622D01*
X33963610Y29170985D01*
X34034367Y29038608D01*
X34129590Y28922578D01*
X34245620Y28827355D01*
X34377997Y28756598D01*
X34521634Y28713026D01*
X34633586Y28702000D01*
X34706695Y28702000D01*
X34696400Y28650242D01*
X34696400Y28454350D01*
X34855150Y28295600D01*
X35731450Y28295600D01*
X35731450Y28531500D01*
X36531550Y28531500D01*
X36531550Y28295600D01*
X37407850Y28295600D01*
X37566600Y28454350D01*
X37566600Y28650242D01*
X37542197Y28772923D01*
X37494330Y28888485D01*
X37424837Y28992489D01*
X37336389Y29080937D01*
X37314443Y29095601D01*
X37314443Y30111700D01*
X37307087Y30186389D01*
X37285301Y30258208D01*
X37249922Y30324396D01*
X37202311Y30382411D01*
X37144296Y30430022D01*
X37078108Y30465401D01*
X37006289Y30487187D01*
X36931600Y30494543D01*
X35331400Y30494543D01*
X35256711Y30487187D01*
X35184892Y30465401D01*
X35118704Y30430022D01*
X35060689Y30382411D01*
X35013078Y30324396D01*
X34977699Y30258208D01*
X34967929Y30226000D01*
X34633586Y30226000D01*
X34521634Y30214974D01*
X34377997Y30171402D01*
X34245620Y30100645D01*
X34129590Y30005422D01*
X34034367Y29889392D01*
X33963610Y29757015D01*
X33920038Y29613378D01*
X33905326Y29464000D01*
X28241500Y29464000D01*
X17020888Y40684611D01*
X17020888Y40858679D01*
X17023223Y40882384D01*
X17019892Y40916200D01*
X17013905Y40976989D01*
X16986310Y41067960D01*
X16941497Y41151798D01*
X16919289Y41178859D01*
X16919289Y41304379D01*
X16891197Y41445607D01*
X16836093Y41578640D01*
X16803829Y41626926D01*
X17145100Y41626926D01*
X24273101Y34498924D01*
X24288214Y34480509D01*
X24361700Y34420201D01*
X24445538Y34375388D01*
X24536509Y34347793D01*
X24607408Y34340810D01*
X24607409Y34340810D01*
X24631114Y34338475D01*
X24654819Y34340810D01*
X33620191Y34340810D01*
X33710840Y34250160D01*
X33710841Y32631153D01*
X33708505Y32607438D01*
X33717824Y32512832D01*
X33745418Y32421862D01*
X33790232Y32338023D01*
X33812439Y32310963D01*
X33812439Y32185442D01*
X33840531Y32044214D01*
X33895635Y31911181D01*
X33975634Y31791454D01*
X34077454Y31689634D01*
X34197181Y31609635D01*
X34330214Y31554531D01*
X34471442Y31526439D01*
X34615436Y31526439D01*
X34756664Y31554531D01*
X34889697Y31609635D01*
X34984338Y31672872D01*
X35052561Y31604649D01*
X35172288Y31524650D01*
X35305321Y31469546D01*
X35446549Y31441454D01*
X35590543Y31441454D01*
X35731771Y31469546D01*
X35864804Y31524650D01*
X35984531Y31604649D01*
X36086351Y31706469D01*
X36166350Y31826196D01*
X36170470Y31836142D01*
X36235775Y31809092D01*
X36377003Y31781000D01*
X36520997Y31781000D01*
X36662225Y31809092D01*
X36795258Y31864196D01*
X36914985Y31944195D01*
X37016805Y32046015D01*
X37096804Y32165742D01*
X37151908Y32298775D01*
X37180000Y32440003D01*
X37180000Y32583997D01*
X37151908Y32725225D01*
X37096804Y32858258D01*
X37016805Y32977985D01*
X36931600Y33063190D01*
X36931600Y33250304D01*
X36933934Y33274001D01*
X36931600Y33297698D01*
X36931600Y33297707D01*
X36924617Y33368606D01*
X36897022Y33459577D01*
X36852209Y33543415D01*
X36791901Y33616901D01*
X36773482Y33632017D01*
X36550600Y33854899D01*
X36550600Y34168294D01*
X36552934Y34191991D01*
X36550600Y34215688D01*
X36550600Y34215697D01*
X36543617Y34286596D01*
X36516022Y34377567D01*
X36471209Y34461405D01*
X36410901Y34534891D01*
X36392482Y34550007D01*
X34651564Y36290925D01*
X34636448Y36309344D01*
X34562962Y36369652D01*
X34479124Y36414465D01*
X34388153Y36442060D01*
X34317254Y36449043D01*
X34317252Y36449043D01*
X34293547Y36451378D01*
X34269842Y36449043D01*
X25304470Y36449043D01*
X16606001Y45147512D01*
X16606001Y45483329D01*
X16608336Y45507034D01*
X16605689Y45533908D01*
X16599018Y45601639D01*
X16571423Y45692610D01*
X16526610Y45776448D01*
X16466302Y45849934D01*
X16447883Y45865050D01*
X16275717Y46037216D01*
X16260601Y46055635D01*
X16187115Y46115943D01*
X16103277Y46160756D01*
X16012306Y46188351D01*
X15977468Y46191782D01*
X15888711Y46280539D01*
X15768984Y46360538D01*
X15635951Y46415642D01*
X15494723Y46443734D01*
X15350729Y46443734D01*
X15209501Y46415642D01*
X15076468Y46360538D01*
X14956741Y46280539D01*
X14854921Y46178719D01*
X14774922Y46058992D01*
X14719818Y45925959D01*
X14691726Y45784731D01*
X14691726Y45640737D01*
X14719818Y45499509D01*
X14774922Y45366476D01*
X14842332Y45265590D01*
X14783310Y45177258D01*
X14728206Y45044225D01*
X14700114Y44902997D01*
X14700114Y44759003D01*
X14728206Y44617775D01*
X14783310Y44484742D01*
X14863309Y44365015D01*
X14965129Y44263195D01*
X15084856Y44183196D01*
X15217889Y44128092D01*
X15359117Y44100000D01*
X15484637Y44100000D01*
X15511698Y44077792D01*
X15595536Y44032979D01*
X15686507Y44005384D01*
X15757406Y43998401D01*
X15757407Y43998401D01*
X15781112Y43996066D01*
X15804817Y43998401D01*
X15851284Y43998401D01*
X16132006Y43717679D01*
X16048038Y43717679D01*
X15906810Y43689587D01*
X15773777Y43634483D01*
X15654050Y43554484D01*
X15552230Y43452664D01*
X15472231Y43332937D01*
X15417127Y43199904D01*
X15389035Y43058676D01*
X15389035Y42914682D01*
X15417127Y42773454D01*
X15472231Y42640421D01*
X15550925Y42522647D01*
X15506249Y42455784D01*
X15451145Y42322751D01*
X15423053Y42181523D01*
X15423053Y42037529D01*
X15451145Y41896301D01*
X15506249Y41763268D01*
X15585049Y41645335D01*
X15549921Y41592762D01*
X12876124Y44266559D01*
X12861008Y44284978D01*
X12787522Y44345286D01*
X12703684Y44390099D01*
X12612713Y44417694D01*
X12541814Y44424677D01*
X12541812Y44424677D01*
X12518107Y44427012D01*
X12494402Y44424677D01*
X4433864Y44424677D01*
X4433864Y46444029D01*
X4436199Y46467736D01*
X4426881Y46562343D01*
X4399286Y46653313D01*
X4354472Y46737152D01*
X4352676Y46739341D01*
X4294165Y46810637D01*
X4275746Y46825753D01*
X4033000Y47068499D01*
X4033000Y47188997D01*
X4004908Y47330225D01*
X3949804Y47463258D01*
X3869805Y47582985D01*
X3767985Y47684805D01*
X3667421Y47752000D01*
X3767985Y47819195D01*
X3869805Y47921015D01*
X3949804Y48040742D01*
X4004908Y48173775D01*
X4033000Y48315003D01*
X4033000Y48458997D01*
X4004908Y48600225D01*
X3949804Y48733258D01*
X3869805Y48852985D01*
X3767985Y48954805D01*
X3667421Y49022000D01*
X3767985Y49089195D01*
X3869805Y49191015D01*
X3949804Y49310742D01*
X4004908Y49443775D01*
X4033000Y49585003D01*
X4033000Y49728997D01*
X4004908Y49870225D01*
X3949804Y50003258D01*
X3869805Y50122985D01*
X3767985Y50224805D01*
X3667421Y50292000D01*
X3767985Y50359195D01*
X3869805Y50461015D01*
X3949804Y50580742D01*
X4004908Y50713775D01*
X4033000Y50855003D01*
X4033000Y50998997D01*
X4004908Y51140225D01*
X3949804Y51273258D01*
X3869805Y51392985D01*
X3767985Y51494805D01*
X3667421Y51562000D01*
X3767985Y51629195D01*
X3869805Y51731015D01*
X3949804Y51850742D01*
X4004908Y51983775D01*
X4033000Y52125003D01*
X4033000Y52268997D01*
X4004908Y52410225D01*
X3949804Y52543258D01*
X3869805Y52662985D01*
X3767985Y52764805D01*
X3648258Y52844804D01*
X3515225Y52899908D01*
X3373997Y52928000D01*
X3230003Y52928000D01*
X3088775Y52899908D01*
X2955742Y52844804D01*
X2836015Y52764805D01*
X2734195Y52662985D01*
X2654196Y52543258D01*
X2599092Y52410225D01*
X2571000Y52268997D01*
X2571000Y52148499D01*
X767739Y50345238D01*
X749320Y50330122D01*
X689012Y50256636D01*
X644199Y50172797D01*
X616604Y50081826D01*
X609768Y50012423D01*
X607286Y49987221D01*
X609621Y49963516D01*
X609622Y29411494D01*
X607286Y29387779D01*
X616605Y29293173D01*
X644199Y29202203D01*
X689013Y29118364D01*
X709435Y29093480D01*
X749321Y29044878D01*
X767734Y29029767D01*
X894486Y28903015D01*
X894487Y25697191D01*
X809281Y25611985D01*
X729282Y25492258D01*
X674178Y25359225D01*
X646086Y25217997D01*
X646086Y25074003D01*
X674178Y24932775D01*
X729282Y24799742D01*
X809281Y24680015D01*
X894487Y24594809D01*
X894486Y12747299D01*
X892151Y12723594D01*
X894486Y12699889D01*
X894486Y12699888D01*
X901469Y12628989D01*
X929064Y12538018D01*
X973877Y12454179D01*
X1034185Y12380693D01*
X1052604Y12365577D01*
X2736684Y10681496D01*
X2464616Y10628361D01*
X1774802Y10345436D01*
X1751480Y10332970D01*
X1363272Y9896149D01*
X1465217Y9794204D01*
X1439913Y9786528D01*
X1381873Y9583392D01*
X1905000Y9060264D01*
X2052078Y9207342D01*
X2349499Y8909921D01*
X2319721Y8880144D01*
X2446565Y8753300D01*
X2329264Y8636000D01*
X2852392Y8112873D01*
X3034858Y8165007D01*
X3038144Y8161721D01*
X3044059Y8167636D01*
X3055528Y8170913D01*
X3058940Y8182517D01*
X3067922Y8191498D01*
X3556000Y7703420D01*
X3570142Y7717563D01*
X4288563Y6999142D01*
X4274420Y6985000D01*
X4762499Y6496922D01*
X4753672Y6488095D01*
X4741913Y6484528D01*
X4738636Y6473059D01*
X4732721Y6467144D01*
X4736007Y6463858D01*
X4683873Y6281392D01*
X5207000Y5758264D01*
X5324301Y5875564D01*
X5451144Y5748721D01*
X5480922Y5778498D01*
X5778342Y5481078D01*
X5631264Y5334000D01*
X6154392Y4810873D01*
X6357528Y4868913D01*
X6365022Y4894399D01*
X6467149Y4792272D01*
X6903970Y5180480D01*
X7137401Y5738536D01*
X7137400Y3230954D01*
X6996708Y3155751D01*
X6895259Y3072495D01*
X6362764Y2540000D01*
X6224916Y2540000D01*
X5979555Y2491195D01*
X5748429Y2395459D01*
X5540422Y2256473D01*
X5363527Y2079578D01*
X5224541Y1871571D01*
X5195350Y1801098D01*
X5042600Y1873982D01*
X4438618Y1270000D01*
X4497662Y1210956D01*
X3869044Y582338D01*
X3810000Y641382D01*
X3750957Y582338D01*
X3122339Y1210956D01*
X3181382Y1270000D01*
X2577400Y1873982D01*
X2541843Y1857016D01*
X2541843Y2159000D01*
X2534487Y2233689D01*
X2512701Y2305508D01*
X2477322Y2371696D01*
X2429711Y2429711D01*
X2371696Y2477322D01*
X2324406Y2502600D01*
X3206018Y2502600D01*
X3810000Y1898618D01*
X4413982Y2502600D01*
X4311759Y2716839D01*
X4019853Y2786927D01*
X3719883Y2798720D01*
X3423376Y2751766D01*
X3308241Y2716839D01*
X3206018Y2502600D01*
X2324406Y2502600D01*
X2305508Y2512701D01*
X2233689Y2534487D01*
X2159000Y2541843D01*
X508000Y2541843D01*
X508000Y4073851D01*
X1363272Y4073851D01*
X1751480Y3637030D01*
X2439310Y3349316D01*
X3170053Y3201319D01*
X3915629Y3198727D01*
X4647384Y3341639D01*
X5337198Y3624564D01*
X5360520Y3637030D01*
X5748728Y4073851D01*
X5646783Y4175796D01*
X5672087Y4183472D01*
X5730127Y4386608D01*
X5207000Y4909736D01*
X5059922Y4762658D01*
X4762502Y5060078D01*
X4792279Y5089856D01*
X4665436Y5216699D01*
X4782736Y5334000D01*
X4259608Y5857127D01*
X4077142Y5804993D01*
X4073856Y5808279D01*
X4067941Y5802364D01*
X4056472Y5799087D01*
X4053060Y5787483D01*
X4044079Y5778501D01*
X3556000Y6266580D01*
X3067922Y5778501D01*
X3038144Y5808279D01*
X2936081Y5706216D01*
X2852392Y5730127D01*
X2329264Y5207000D01*
X2383065Y5153199D01*
X2319721Y5089856D01*
X2349499Y5060078D01*
X1988578Y4699158D01*
X1905000Y4782736D01*
X1381873Y4259608D01*
X1419019Y4129598D01*
X1363272Y4073851D01*
X508000Y4073851D01*
X508000Y4913893D01*
X644851Y4792272D01*
X717238Y4864659D01*
X754472Y4741913D01*
X957608Y4683873D01*
X1480736Y5207000D01*
X1319515Y5368220D01*
X1743780Y5792484D01*
X1905000Y5631264D01*
X2428127Y6154392D01*
X2370087Y6357528D01*
X2292482Y6380347D01*
X2379279Y6467144D01*
X2349502Y6496921D01*
X2837580Y6985000D01*
X2349501Y7473078D01*
X2358328Y7481905D01*
X2370087Y7485472D01*
X2373364Y7496941D01*
X2379279Y7502856D01*
X2375993Y7506142D01*
X2428127Y7688608D01*
X1905000Y8211736D01*
X1787700Y8094435D01*
X1660856Y8221279D01*
X1631079Y8191501D01*
X1333658Y8488922D01*
X1480736Y8636000D01*
X957608Y9159127D01*
X754472Y9101087D01*
X746978Y9075601D01*
X644851Y9177728D01*
X508000Y9056107D01*
X508000Y55626000D01*
X19533053Y55626000D01*
X19558000Y55623543D01*
X19582947Y55626000D01*
X19657585Y55633351D01*
X19753343Y55662399D01*
X19841595Y55709571D01*
X19918948Y55773052D01*
X19982429Y55850405D01*
X20029601Y55938657D01*
X20058649Y56034415D01*
X20068457Y56134000D01*
X20066000Y56158947D01*
X20066000Y61722000D01*
X22733000Y61722000D01*
X22733000Y55245000D01*
X22733000Y55245000D01*
G37*
X22733000Y55245000D02*
X22735440Y55220224D01*
X22742667Y55196399D01*
X22754403Y55174443D01*
X22770197Y55155197D01*
X22789443Y55139403D01*
X22811399Y55127667D01*
X22835224Y55120440D01*
X22860000Y55118000D01*
X23495000Y55118000D01*
X23495000Y53133500D01*
X20757518Y50396017D01*
X20739099Y50380901D01*
X20678791Y50307415D01*
X20633978Y50223576D01*
X20606383Y50132605D01*
X20599400Y50061707D01*
X20597065Y50038000D01*
X20599400Y50014295D01*
X20599401Y46886715D01*
X20597065Y46863000D01*
X20606384Y46768394D01*
X20633978Y46677424D01*
X20678792Y46593585D01*
X20722768Y46540000D01*
X20739100Y46520099D01*
X20757513Y46504988D01*
X23749000Y43513500D01*
X23749000Y39751000D01*
X23751440Y39726224D01*
X23758667Y39702399D01*
X23770403Y39680443D01*
X23786197Y39661197D01*
X23805443Y39645403D01*
X23827399Y39633667D01*
X23851224Y39626440D01*
X23876000Y39624000D01*
X23956444Y39624000D01*
X23967393Y39568954D01*
X24022497Y39435921D01*
X24102496Y39316194D01*
X24204316Y39214374D01*
X24324043Y39134375D01*
X24457076Y39079271D01*
X24598304Y39051179D01*
X24742298Y39051179D01*
X24883526Y39079271D01*
X25016559Y39134375D01*
X25033106Y39145432D01*
X25097545Y39080993D01*
X25217272Y39000994D01*
X25350305Y38945890D01*
X25351461Y38945660D01*
X25327598Y38901015D01*
X25284026Y38757378D01*
X25269314Y38608000D01*
X25284026Y38458622D01*
X25327598Y38314985D01*
X25398355Y38182608D01*
X25493578Y38066578D01*
X25609608Y37971355D01*
X25741985Y37900598D01*
X25885622Y37857026D01*
X25997574Y37846000D01*
X26169412Y37846000D01*
X26300709Y37738247D01*
X26455149Y37655697D01*
X26622726Y37604864D01*
X26753333Y37592000D01*
X38524667Y37592000D01*
X38655274Y37604864D01*
X38822851Y37655697D01*
X38977291Y37738247D01*
X39112659Y37849341D01*
X39131487Y37872284D01*
X41688671Y37872284D01*
X41701589Y37846910D01*
X41822494Y37637525D01*
X41981924Y37455751D01*
X42173753Y37308573D01*
X42390609Y37201647D01*
X42624159Y37139082D01*
X42816998Y37281395D01*
X42816998Y37121000D01*
X43169447Y37121000D01*
X43144000Y36993073D01*
X43144000Y36858927D01*
X43170171Y36727360D01*
X43221506Y36603426D01*
X43296033Y36491888D01*
X43390888Y36397033D01*
X43502426Y36322506D01*
X43626360Y36271171D01*
X43757927Y36245000D01*
X43892073Y36245000D01*
X44023640Y36271171D01*
X44147574Y36322506D01*
X44259112Y36397033D01*
X44353967Y36491888D01*
X44428494Y36603426D01*
X44479829Y36727360D01*
X44506000Y36858927D01*
X44506000Y36993073D01*
X44479829Y37124640D01*
X44428494Y37248574D01*
X44410173Y37275994D01*
X44476247Y37308573D01*
X44668076Y37455751D01*
X44827506Y37637525D01*
X44944720Y37840519D01*
X45977925Y37840519D01*
X46051123Y37739396D01*
X46192627Y37535888D01*
X46371115Y37363897D01*
X46579727Y37230032D01*
X46810446Y37139437D01*
X47005000Y37259265D01*
X47005000Y38031000D01*
X46076661Y38031000D01*
X45977925Y37840519D01*
X44944720Y37840519D01*
X44948411Y37846910D01*
X44961329Y37872284D01*
X44858593Y38056000D01*
X43833000Y38056000D01*
X43833000Y37828000D01*
X42817000Y37828000D01*
X42817000Y38056000D01*
X41791407Y38056000D01*
X41688671Y37872284D01*
X39131487Y37872284D01*
X39223753Y37984709D01*
X39306303Y38139149D01*
X39357136Y38306726D01*
X39374301Y38481000D01*
X39357136Y38655274D01*
X39306303Y38822851D01*
X39297289Y38839716D01*
X41688671Y38839716D01*
X41791407Y38656000D01*
X42817000Y38656000D01*
X42817000Y39430604D01*
X43833000Y39430604D01*
X43833000Y38656000D01*
X44858593Y38656000D01*
X44961329Y38839716D01*
X44948411Y38865090D01*
X44944721Y38871481D01*
X45977925Y38871481D01*
X46076661Y38681000D01*
X47005000Y38681000D01*
X47005000Y39452735D01*
X46810446Y39572563D01*
X46579727Y39481968D01*
X46371115Y39348103D01*
X46192627Y39176112D01*
X46051123Y38972604D01*
X45977925Y38871481D01*
X44944721Y38871481D01*
X44827506Y39074475D01*
X44668076Y39256249D01*
X44476247Y39403427D01*
X44259391Y39510353D01*
X44025841Y39572918D01*
X43833000Y39430604D01*
X42817000Y39430604D01*
X42624159Y39572918D01*
X42390609Y39510353D01*
X42173753Y39403427D01*
X41981924Y39256249D01*
X41822494Y39074475D01*
X41701589Y38865090D01*
X41688671Y38839716D01*
X39297289Y38839716D01*
X39271801Y38887400D01*
X39790795Y38887400D01*
X39814500Y38885065D01*
X39838205Y38887400D01*
X39838207Y38887400D01*
X39909106Y38894383D01*
X40000077Y38921978D01*
X40083915Y38966791D01*
X40157401Y39027099D01*
X40172517Y39045518D01*
X40710487Y39583487D01*
X40728901Y39598599D01*
X40789209Y39672085D01*
X40834022Y39755923D01*
X40861617Y39846894D01*
X40868600Y39917793D01*
X40868600Y39917794D01*
X40870935Y39941499D01*
X40868600Y39965204D01*
X40868600Y44250101D01*
X40966899Y44348400D01*
X42838795Y44348400D01*
X42862500Y44346065D01*
X42886205Y44348400D01*
X42886207Y44348400D01*
X42957106Y44355383D01*
X43048077Y44382978D01*
X43131915Y44427791D01*
X43205401Y44488099D01*
X43220517Y44506518D01*
X43504482Y44790483D01*
X43522901Y44805599D01*
X43583209Y44879085D01*
X43628022Y44962923D01*
X43639582Y45001033D01*
X43655617Y45053893D01*
X43664935Y45148500D01*
X43662600Y45172207D01*
X43662600Y50268296D01*
X43664935Y50292001D01*
X43661180Y50330122D01*
X43655617Y50386606D01*
X43628022Y50477577D01*
X43583209Y50561415D01*
X43522901Y50634901D01*
X43504488Y50650012D01*
X41275000Y52879500D01*
X41275000Y55254851D01*
X44543272Y55254851D01*
X44931480Y54818030D01*
X45619310Y54530316D01*
X46350053Y54382319D01*
X47095629Y54379727D01*
X47827384Y54522639D01*
X48517198Y54805564D01*
X48540520Y54818030D01*
X48928728Y55254851D01*
X48826783Y55356796D01*
X48852087Y55364472D01*
X48910127Y55567608D01*
X48387000Y56090736D01*
X48239922Y55943658D01*
X47942502Y56241078D01*
X47972279Y56270856D01*
X47845436Y56397699D01*
X47962736Y56515000D01*
X47439608Y57038127D01*
X47257142Y56985993D01*
X47253856Y56989279D01*
X47247941Y56983364D01*
X47236472Y56980087D01*
X47233060Y56968483D01*
X47224079Y56959501D01*
X46736000Y57447580D01*
X46247922Y56959501D01*
X46218144Y56989279D01*
X46116081Y56887216D01*
X46032392Y56911127D01*
X45509264Y56388000D01*
X45563065Y56334199D01*
X45499721Y56270856D01*
X45529499Y56241078D01*
X45168578Y55880158D01*
X45085000Y55963736D01*
X44561873Y55440608D01*
X44599019Y55310598D01*
X44543272Y55254851D01*
X41275000Y55254851D01*
X41275000Y57806371D01*
X42949727Y57806371D01*
X43092639Y57074616D01*
X43375564Y56384802D01*
X43388030Y56361480D01*
X43824851Y55973272D01*
X43897238Y56045659D01*
X43934472Y55922913D01*
X44137608Y55864873D01*
X44660736Y56388000D01*
X44499515Y56549220D01*
X44923780Y56973484D01*
X45085000Y56812264D01*
X45608127Y57335392D01*
X45550087Y57538528D01*
X45472482Y57561347D01*
X45559279Y57648144D01*
X45529502Y57677921D01*
X46017580Y58166000D01*
X45529501Y58654078D01*
X45538328Y58662905D01*
X45550087Y58666472D01*
X45553364Y58677941D01*
X45559279Y58683856D01*
X45555993Y58687142D01*
X45608127Y58869608D01*
X45085000Y59392736D01*
X44967700Y59275435D01*
X44840856Y59402279D01*
X44811079Y59372501D01*
X44513658Y59669922D01*
X44660736Y59817000D01*
X44137608Y60340127D01*
X43934472Y60282087D01*
X43926978Y60256601D01*
X43824851Y60358728D01*
X43388030Y59970520D01*
X43100316Y59282690D01*
X42952319Y58551947D01*
X42949727Y57806371D01*
X41275000Y57806371D01*
X41275000Y61722000D01*
X45431617Y61722000D01*
X44954802Y61526436D01*
X44931480Y61513970D01*
X44543272Y61077149D01*
X44645217Y60975204D01*
X44619913Y60967528D01*
X44561873Y60764392D01*
X45085000Y60241264D01*
X45232078Y60388342D01*
X45529499Y60090921D01*
X45499721Y60061144D01*
X45626565Y59934300D01*
X45509264Y59817000D01*
X46032392Y59293873D01*
X46214858Y59346007D01*
X46218144Y59342721D01*
X46224059Y59348636D01*
X46235528Y59351913D01*
X46238940Y59363517D01*
X46247922Y59372498D01*
X46736000Y58884420D01*
X47224078Y59372499D01*
X47232905Y59363672D01*
X47236472Y59351913D01*
X47247941Y59348636D01*
X47253856Y59342721D01*
X47257142Y59346007D01*
X47439608Y59293873D01*
X47962736Y59817000D01*
X47845436Y59934300D01*
X47972279Y60061144D01*
X47942502Y60090921D01*
X48239922Y60388342D01*
X48387000Y60241264D01*
X48910127Y60764392D01*
X48852087Y60967528D01*
X48826601Y60975022D01*
X48928728Y61077149D01*
X48540520Y61513970D01*
X48043188Y61722000D01*
X50292000Y61722000D01*
X50292000Y59470383D01*
X50096436Y59947198D01*
X50083970Y59970520D01*
X49647149Y60358728D01*
X49545204Y60256783D01*
X49537528Y60282087D01*
X49334392Y60340127D01*
X48811264Y59817000D01*
X48958342Y59669922D01*
X48660922Y59372501D01*
X48631144Y59402279D01*
X48504301Y59275435D01*
X48387000Y59392736D01*
X47863873Y58869608D01*
X47916007Y58687142D01*
X47912721Y58683856D01*
X47918636Y58677941D01*
X47921913Y58666472D01*
X47933517Y58663060D01*
X47942499Y58654078D01*
X47454420Y58166000D01*
X47942499Y57677922D01*
X47933672Y57669095D01*
X47921913Y57665528D01*
X47918636Y57654059D01*
X47912721Y57648144D01*
X47916007Y57644858D01*
X47863873Y57462392D01*
X48387000Y56939264D01*
X48504301Y57056564D01*
X48631144Y56929721D01*
X48660922Y56959498D01*
X48958342Y56662078D01*
X48811264Y56515000D01*
X49334392Y55991873D01*
X49537528Y56049913D01*
X49545022Y56075399D01*
X49647149Y55973272D01*
X50083970Y56361480D01*
X50292000Y56858812D01*
X50292001Y2378444D01*
X49911000Y2759445D01*
X49911000Y19247862D01*
X49916529Y19304001D01*
X49911000Y19360140D01*
X49911000Y19360146D01*
X49894461Y19528067D01*
X49890954Y19539630D01*
X49856679Y19652617D01*
X49829103Y19743523D01*
X49722968Y19942089D01*
X49580133Y20116133D01*
X49536523Y20151923D01*
X47625000Y22063445D01*
X47625000Y23932146D01*
X47608461Y24100067D01*
X47543103Y24315523D01*
X47436968Y24514089D01*
X47294133Y24688133D01*
X47120088Y24830968D01*
X47026494Y24880995D01*
X49600488Y27454988D01*
X49618901Y27470099D01*
X49679209Y27543585D01*
X49724022Y27627423D01*
X49730547Y27648935D01*
X49751617Y27718393D01*
X49760935Y27813000D01*
X49758600Y27836707D01*
X49758600Y40743304D01*
X49760934Y40767001D01*
X49758600Y40790698D01*
X49758600Y40790707D01*
X49751617Y40861606D01*
X49724022Y40952577D01*
X49679209Y41036415D01*
X49639358Y41084974D01*
X49644136Y41100726D01*
X49657000Y41231333D01*
X49657000Y41462624D01*
X49714608Y41480099D01*
X49780796Y41515478D01*
X49838811Y41563089D01*
X49886422Y41621104D01*
X49921801Y41687292D01*
X49943587Y41759111D01*
X49950943Y41833800D01*
X49950943Y43002200D01*
X49943587Y43076889D01*
X49921801Y43148708D01*
X49905075Y43180000D01*
X49921801Y43211292D01*
X49943587Y43283111D01*
X49950943Y43357800D01*
X49950943Y44526200D01*
X49943587Y44600889D01*
X49921801Y44672708D01*
X49886422Y44738896D01*
X49838811Y44796911D01*
X49780796Y44844522D01*
X49714608Y44879901D01*
X49642789Y44901687D01*
X49568100Y44909043D01*
X47967900Y44909043D01*
X47893211Y44901687D01*
X47821392Y44879901D01*
X47755204Y44844522D01*
X47738727Y44831000D01*
X46438327Y44831000D01*
X46307720Y44818136D01*
X46140143Y44767303D01*
X45985703Y44684753D01*
X45850335Y44573659D01*
X45739241Y44438291D01*
X45656691Y44283851D01*
X45605858Y44116274D01*
X45588693Y43942000D01*
X45605858Y43767726D01*
X45656691Y43600149D01*
X45739241Y43445709D01*
X45850335Y43310341D01*
X45985703Y43199247D01*
X46140143Y43116697D01*
X46307720Y43065864D01*
X46438327Y43053000D01*
X47590060Y43053000D01*
X47585057Y43002200D01*
X47585057Y41833800D01*
X47592413Y41759111D01*
X47614199Y41687292D01*
X47649578Y41621104D01*
X47697189Y41563089D01*
X47755204Y41515478D01*
X47821392Y41480099D01*
X47879001Y41462624D01*
X47879001Y41231333D01*
X47891865Y41100726D01*
X47942698Y40933149D01*
X48025248Y40778709D01*
X48136342Y40643341D01*
X48271710Y40532247D01*
X48426150Y40449697D01*
X48593727Y40398864D01*
X48768000Y40381699D01*
X48793400Y40384201D01*
X48793400Y39773099D01*
X47856017Y40710482D01*
X47840901Y40728901D01*
X47767415Y40789209D01*
X47683577Y40834022D01*
X47592606Y40861617D01*
X47521707Y40868600D01*
X47521705Y40868600D01*
X47498000Y40870935D01*
X47474295Y40868600D01*
X45792899Y40868600D01*
X44805600Y41855899D01*
X44805600Y47806101D01*
X44903899Y47904400D01*
X45930810Y47904400D01*
X46016015Y47819195D01*
X46135742Y47739196D01*
X46268775Y47684092D01*
X46410003Y47656000D01*
X46553997Y47656000D01*
X46695225Y47684092D01*
X46828258Y47739196D01*
X46947985Y47819195D01*
X47049805Y47921015D01*
X47129804Y48040742D01*
X47184908Y48173775D01*
X47213000Y48315003D01*
X47213000Y48458997D01*
X47184908Y48600225D01*
X47129804Y48733258D01*
X47049805Y48852985D01*
X46947985Y48954805D01*
X46828258Y49034804D01*
X46695225Y49089908D01*
X46553997Y49118000D01*
X46410003Y49118000D01*
X46268775Y49089908D01*
X46135742Y49034804D01*
X46016015Y48954805D01*
X45930810Y48869600D01*
X44727696Y48869600D01*
X44703999Y48871934D01*
X44680302Y48869600D01*
X44680293Y48869600D01*
X44609394Y48862617D01*
X44518423Y48835022D01*
X44434585Y48790209D01*
X44361099Y48729901D01*
X44345983Y48711482D01*
X43998513Y48364012D01*
X43980100Y48348901D01*
X43964989Y48330488D01*
X43964987Y48330486D01*
X43919792Y48275415D01*
X43874978Y48191576D01*
X43847384Y48100606D01*
X43838065Y48006000D01*
X43840401Y47982285D01*
X43840400Y41679705D01*
X43838065Y41656000D01*
X43840400Y41632295D01*
X43840400Y41632294D01*
X43847383Y41561395D01*
X43874978Y41470424D01*
X43919791Y41386585D01*
X43980099Y41313099D01*
X43998518Y41297983D01*
X45234983Y40061518D01*
X45250099Y40043099D01*
X45323585Y39982791D01*
X45407423Y39937978D01*
X45498394Y39910383D01*
X45569293Y39903400D01*
X45569294Y39903400D01*
X45592999Y39901065D01*
X45616704Y39903400D01*
X47298101Y39903400D01*
X48005000Y39196501D01*
X48005000Y38681000D01*
X48033000Y38681000D01*
X48033000Y38031000D01*
X48005000Y38031000D01*
X48005000Y37259265D01*
X48199554Y37139437D01*
X48412401Y37223014D01*
X48412400Y30848986D01*
X48199554Y30932563D01*
X48005000Y30812735D01*
X48005000Y30041000D01*
X48033000Y30041000D01*
X48033000Y29391000D01*
X48005000Y29391000D01*
X48005000Y28619265D01*
X48199554Y28499437D01*
X48412400Y28583014D01*
X48412400Y28520899D01*
X46155101Y26263600D01*
X45743704Y26263600D01*
X45719999Y26265935D01*
X45696294Y26263600D01*
X45696293Y26263600D01*
X45625394Y26256617D01*
X45534423Y26229022D01*
X45450585Y26184209D01*
X45377099Y26123901D01*
X45361988Y26105488D01*
X44252513Y24996012D01*
X44234100Y24980901D01*
X44218989Y24962488D01*
X44218987Y24962486D01*
X44173792Y24907415D01*
X44128978Y24823576D01*
X44101384Y24732606D01*
X44092065Y24638000D01*
X44094401Y24614285D01*
X44094400Y20851705D01*
X44092065Y20828000D01*
X44094400Y20804295D01*
X44094400Y20804294D01*
X44101383Y20733395D01*
X44128978Y20642424D01*
X44173791Y20558585D01*
X44234099Y20485099D01*
X44252518Y20469983D01*
X45377084Y19345417D01*
X45326196Y19269258D01*
X45271092Y19136225D01*
X45243000Y18994997D01*
X45243000Y18851003D01*
X45271092Y18709775D01*
X45326196Y18576742D01*
X45406195Y18457015D01*
X45508015Y18355195D01*
X45627742Y18275196D01*
X45760775Y18220092D01*
X45902003Y18192000D01*
X46045997Y18192000D01*
X46187225Y18220092D01*
X46299259Y18266498D01*
X46317935Y18172606D01*
X46380577Y18021374D01*
X46471520Y17885268D01*
X46587268Y17769520D01*
X46723374Y17678577D01*
X46874606Y17615935D01*
X47035154Y17584000D01*
X47198846Y17584000D01*
X47359394Y17615935D01*
X47510626Y17678577D01*
X47625001Y17755000D01*
X47625001Y13767018D01*
X47584225Y13783908D01*
X47442997Y13812000D01*
X47359933Y13812000D01*
X47350948Y13822948D01*
X47273595Y13886429D01*
X47185343Y13933601D01*
X47089585Y13962649D01*
X47014947Y13970000D01*
X47014944Y13970000D01*
X46990000Y13972457D01*
X46965056Y13970000D01*
X45363944Y13970000D01*
X45339000Y13972457D01*
X45314056Y13970000D01*
X45314053Y13970000D01*
X45239415Y13962649D01*
X45143657Y13933601D01*
X45055405Y13886429D01*
X44978052Y13822948D01*
X44962145Y13803565D01*
X44716580Y13558000D01*
X44632003Y13558000D01*
X44490775Y13529908D01*
X44357742Y13474804D01*
X44238015Y13394805D01*
X44136195Y13292985D01*
X44056196Y13173258D01*
X44001092Y13040225D01*
X43973000Y12898997D01*
X43973000Y12755003D01*
X44001092Y12613775D01*
X44056196Y12480742D01*
X44136195Y12361015D01*
X44238015Y12259195D01*
X44357742Y12179196D01*
X44490775Y12124092D01*
X44632003Y12096000D01*
X44775997Y12096000D01*
X44917225Y12124092D01*
X45050258Y12179196D01*
X45169985Y12259195D01*
X45271805Y12361015D01*
X45351804Y12480742D01*
X45406908Y12613775D01*
X45435000Y12755003D01*
X45435000Y12839580D01*
X45549420Y12954000D01*
X46650941Y12954000D01*
X46668092Y12867775D01*
X46723196Y12734742D01*
X46803195Y12615015D01*
X46905015Y12513195D01*
X47024742Y12433196D01*
X47157775Y12378092D01*
X47299003Y12350000D01*
X47442997Y12350000D01*
X47584225Y12378092D01*
X47625001Y12394982D01*
X47625000Y2623424D01*
X47564973Y2563397D01*
X47491759Y2716839D01*
X47199853Y2786927D01*
X46899883Y2798720D01*
X46603376Y2751766D01*
X46488241Y2716839D01*
X46386018Y2502600D01*
X46990000Y1898618D01*
X47049044Y1957661D01*
X47677662Y1329043D01*
X47618618Y1270000D01*
X47677662Y1210956D01*
X47049044Y582338D01*
X46990000Y641382D01*
X46930957Y582338D01*
X46302339Y1210956D01*
X46361382Y1270000D01*
X45757400Y1873982D01*
X45604650Y1801098D01*
X45575459Y1871571D01*
X45436473Y2079578D01*
X45259578Y2256473D01*
X45051571Y2395459D01*
X44820445Y2491195D01*
X44575084Y2540000D01*
X44324916Y2540000D01*
X44079555Y2491195D01*
X43848429Y2395459D01*
X43640422Y2256473D01*
X43463527Y2079578D01*
X43324541Y1871571D01*
X43228805Y1640445D01*
X43180000Y1395084D01*
X43131195Y1640445D01*
X43035459Y1871571D01*
X42896473Y2079578D01*
X42719578Y2256473D01*
X42511571Y2395459D01*
X42280445Y2491195D01*
X42035084Y2540000D01*
X41784916Y2540000D01*
X41539555Y2491195D01*
X41308429Y2395459D01*
X41100422Y2256473D01*
X40923527Y2079578D01*
X40784541Y1871571D01*
X40688805Y1640445D01*
X40640000Y1395084D01*
X40591195Y1640445D01*
X40495459Y1871571D01*
X40356473Y2079578D01*
X40179578Y2256473D01*
X39971571Y2395459D01*
X39740445Y2491195D01*
X39495084Y2540000D01*
X39357235Y2540000D01*
X39078740Y2818495D01*
X38977291Y2901752D01*
X38822852Y2984302D01*
X38655274Y3035136D01*
X38481000Y3052300D01*
X38306726Y3035136D01*
X38291870Y3030629D01*
X37950017Y3372482D01*
X37934901Y3390901D01*
X37861415Y3451209D01*
X37777577Y3496022D01*
X37686606Y3523617D01*
X37615707Y3530600D01*
X37615705Y3530600D01*
X37592000Y3532935D01*
X37568295Y3530600D01*
X33600900Y3530600D01*
X31724600Y5406899D01*
X31724600Y5945293D01*
X31726935Y5969000D01*
X31717617Y6063607D01*
X31690022Y6154577D01*
X31685508Y6163022D01*
X31645209Y6238415D01*
X31584901Y6311901D01*
X31566488Y6327012D01*
X29740244Y8153256D01*
X29741707Y8153400D01*
X32214810Y8153400D01*
X32300015Y8068195D01*
X32419742Y7988196D01*
X32552775Y7933092D01*
X32694003Y7905000D01*
X32837997Y7905000D01*
X32979225Y7933092D01*
X33112258Y7988196D01*
X33231985Y8068195D01*
X33333805Y8170015D01*
X33413804Y8289742D01*
X33468908Y8422775D01*
X33497000Y8564003D01*
X33497000Y8707997D01*
X33468908Y8849225D01*
X33413804Y8982258D01*
X33333805Y9101985D01*
X33231985Y9203805D01*
X33112258Y9283804D01*
X32979225Y9338908D01*
X32837997Y9367000D01*
X32694003Y9367000D01*
X32552775Y9338908D01*
X32419742Y9283804D01*
X32300015Y9203805D01*
X32214810Y9118600D01*
X29917900Y9118600D01*
X27510828Y11525672D01*
X27528000Y11612003D01*
X27528000Y11684000D01*
X30734000Y11684000D01*
X30734000Y10414000D01*
X30736440Y10389224D01*
X30743667Y10365399D01*
X30755403Y10343443D01*
X30771197Y10324197D01*
X31279197Y9816197D01*
X31298443Y9800403D01*
X31320399Y9788667D01*
X31344224Y9781440D01*
X31369000Y9779000D01*
X33147000Y9779000D01*
X33163436Y9780068D01*
X33187688Y9785694D01*
X33210377Y9795944D01*
X33230630Y9810423D01*
X33738630Y10254923D01*
X33760597Y10279943D01*
X33772333Y10301899D01*
X33779560Y10325724D01*
X33782000Y10350500D01*
X33782000Y11377394D01*
X37338001Y14933395D01*
X37338000Y12253631D01*
X35555649Y10471279D01*
X35526579Y10447422D01*
X35502722Y10418352D01*
X35502721Y10418351D01*
X35431355Y10331392D01*
X35399388Y10271585D01*
X35360598Y10199015D01*
X35317026Y10055378D01*
X35306000Y9943426D01*
X35302314Y9906000D01*
X35306000Y9868577D01*
X35306000Y9602877D01*
X35268935Y9513394D01*
X35237000Y9352846D01*
X35237000Y9189154D01*
X35268935Y9028606D01*
X35331577Y8877374D01*
X35422520Y8741268D01*
X35538268Y8625520D01*
X35674374Y8534577D01*
X35825606Y8471935D01*
X35986154Y8440000D01*
X36149846Y8440000D01*
X36310394Y8471935D01*
X36461626Y8534577D01*
X36597732Y8625520D01*
X36713480Y8741268D01*
X36804423Y8877374D01*
X36867065Y9028606D01*
X36899000Y9189154D01*
X36899000Y9352846D01*
X36867065Y9513394D01*
X36833663Y9594033D01*
X38612353Y11372722D01*
X38641422Y11396578D01*
X38695436Y11462394D01*
X38736645Y11512607D01*
X38798061Y11627509D01*
X38807402Y11644985D01*
X38850974Y11788622D01*
X38862000Y11900574D01*
X38862000Y11900577D01*
X38865686Y11938000D01*
X38862000Y11975423D01*
X38862000Y14797370D01*
X40132000Y16067370D01*
X40132001Y7803149D01*
X40126471Y7747000D01*
X40148539Y7522933D01*
X40213288Y7309487D01*
X40213898Y7307477D01*
X40320033Y7108911D01*
X40376261Y7040397D01*
X40421725Y6985000D01*
X40462868Y6934867D01*
X40506478Y6899077D01*
X41656001Y5749553D01*
X41656001Y5631677D01*
X41651699Y5588000D01*
X41668864Y5413726D01*
X41719697Y5246149D01*
X41802247Y5091709D01*
X41913341Y4956341D01*
X42048709Y4845247D01*
X42203149Y4762697D01*
X42370726Y4711864D01*
X42501333Y4699000D01*
X42545000Y4694699D01*
X42588667Y4699000D01*
X43644333Y4699000D01*
X43688000Y4694699D01*
X43731667Y4699000D01*
X43862274Y4711864D01*
X44029851Y4762697D01*
X44184291Y4845247D01*
X44319659Y4956341D01*
X44430753Y5091709D01*
X44513303Y5246149D01*
X44564136Y5413726D01*
X44581301Y5588000D01*
X44577000Y5631667D01*
X44577000Y5671341D01*
X44581300Y5715001D01*
X44577000Y5758667D01*
X44566457Y5865707D01*
X44564136Y5889276D01*
X44513302Y6056853D01*
X44486775Y6106480D01*
X44430753Y6211291D01*
X44319659Y6346659D01*
X44285741Y6374495D01*
X43204499Y7455736D01*
X43176659Y7489659D01*
X43041290Y7600753D01*
X43033562Y7604884D01*
X42418000Y8220445D01*
X42418000Y21900146D01*
X42401461Y22068067D01*
X42336103Y22283523D01*
X42229968Y22482089D01*
X42087133Y22656133D01*
X41913088Y22798968D01*
X41714522Y22905103D01*
X41499066Y22970461D01*
X41336139Y22986508D01*
X42295353Y23945722D01*
X42324422Y23969578D01*
X42354593Y24006341D01*
X42419645Y24085607D01*
X42482394Y24203004D01*
X42490402Y24217985D01*
X42533974Y24361622D01*
X42545000Y24473574D01*
X42545000Y24473577D01*
X42548686Y24511000D01*
X42545000Y24548423D01*
X42545000Y25830123D01*
X42582065Y25919606D01*
X42614000Y26080154D01*
X42614000Y26243846D01*
X42582065Y26404394D01*
X42545000Y26493877D01*
X42545000Y26973123D01*
X42582065Y27062606D01*
X42614000Y27223154D01*
X42614000Y27386846D01*
X42582065Y27547394D01*
X42519423Y27698626D01*
X42428480Y27834732D01*
X42312732Y27950480D01*
X42176626Y28041423D01*
X42025394Y28104065D01*
X41864846Y28136000D01*
X41701154Y28136000D01*
X41540606Y28104065D01*
X41402000Y28046653D01*
X41402000Y29232284D01*
X41688671Y29232284D01*
X41701589Y29206910D01*
X41822494Y28997525D01*
X41981924Y28815751D01*
X42173753Y28668573D01*
X42390609Y28561647D01*
X42624159Y28499082D01*
X42817000Y28641396D01*
X42817000Y29416000D01*
X43833000Y29416000D01*
X43833000Y28641396D01*
X44025841Y28499082D01*
X44259391Y28561647D01*
X44476247Y28668573D01*
X44668076Y28815751D01*
X44827506Y28997525D01*
X44944720Y29200519D01*
X45977925Y29200519D01*
X46051123Y29099396D01*
X46192627Y28895888D01*
X46371115Y28723897D01*
X46579727Y28590032D01*
X46810446Y28499437D01*
X47005000Y28619265D01*
X47005000Y29391000D01*
X46076661Y29391000D01*
X45977925Y29200519D01*
X44944720Y29200519D01*
X44948411Y29206910D01*
X44961329Y29232284D01*
X44858593Y29416000D01*
X43833000Y29416000D01*
X42817000Y29416000D01*
X41791407Y29416000D01*
X41688671Y29232284D01*
X41402000Y29232284D01*
X41402000Y30199716D01*
X41688671Y30199716D01*
X41791407Y30016000D01*
X42817000Y30016000D01*
X42817000Y30244000D01*
X43833000Y30244000D01*
X43833000Y30016000D01*
X44858593Y30016000D01*
X44961329Y30199716D01*
X44948411Y30225090D01*
X44944721Y30231481D01*
X45977925Y30231481D01*
X46076661Y30041000D01*
X47005000Y30041000D01*
X47005000Y30812735D01*
X46810446Y30932563D01*
X46579727Y30841968D01*
X46371115Y30708103D01*
X46192627Y30536112D01*
X46051123Y30332604D01*
X45977925Y30231481D01*
X44944721Y30231481D01*
X44827506Y30434475D01*
X44668076Y30616249D01*
X44476247Y30763427D01*
X44410173Y30796006D01*
X44428494Y30823426D01*
X44479829Y30947360D01*
X44506000Y31078927D01*
X44506000Y31213073D01*
X44479829Y31344640D01*
X44428494Y31468574D01*
X44353967Y31580112D01*
X44259112Y31674967D01*
X44147574Y31749494D01*
X44023640Y31800829D01*
X43892073Y31827000D01*
X43757927Y31827000D01*
X43626360Y31800829D01*
X43502426Y31749494D01*
X43390888Y31674967D01*
X43296033Y31580112D01*
X43221506Y31468574D01*
X43170171Y31344640D01*
X43144000Y31213073D01*
X43144000Y31078927D01*
X43169447Y30951000D01*
X42816998Y30951000D01*
X42816998Y30790605D01*
X42624159Y30932918D01*
X42390609Y30870353D01*
X42173753Y30763427D01*
X41981924Y30616249D01*
X41822494Y30434475D01*
X41701589Y30225090D01*
X41688671Y30199716D01*
X41402000Y30199716D01*
X41402000Y31443394D01*
X42724606Y32766000D01*
X43254394Y32766000D01*
X43471197Y32549197D01*
X43490443Y32533403D01*
X43512399Y32521667D01*
X43536224Y32514440D01*
X43561000Y32512000D01*
X44704000Y32512000D01*
X44728776Y32514440D01*
X44752601Y32521667D01*
X44774557Y32533403D01*
X44793803Y32549197D01*
X45174803Y32930197D01*
X45190597Y32949443D01*
X45202333Y32971399D01*
X45209560Y32995224D01*
X45212000Y33020000D01*
X45212000Y34925000D01*
X45209560Y34949776D01*
X45202333Y34973601D01*
X45190597Y34995557D01*
X45174803Y35014803D01*
X44666803Y35522803D01*
X44647557Y35538597D01*
X44625601Y35550333D01*
X44601776Y35557560D01*
X44577000Y35560000D01*
X43561000Y35560000D01*
X43536224Y35557560D01*
X43512399Y35550333D01*
X43490443Y35538597D01*
X43471197Y35522803D01*
X43127394Y35179000D01*
X41910000Y35179000D01*
X41883608Y35176227D01*
X41859880Y35168692D01*
X41838077Y35156671D01*
X41819039Y35140629D01*
X39406039Y32664129D01*
X39391403Y32646057D01*
X39379667Y32624101D01*
X39372440Y32600276D01*
X39370000Y32575500D01*
X39370000Y26056906D01*
X37122471Y23871808D01*
X37105403Y23851307D01*
X37093667Y23829351D01*
X37086440Y23805526D01*
X37084000Y23780750D01*
X37084000Y18086606D01*
X30771197Y11773803D01*
X30755403Y11754557D01*
X30743667Y11732601D01*
X30736440Y11708776D01*
X30734000Y11684000D01*
X27528000Y11684000D01*
X27528000Y11755997D01*
X27499908Y11897225D01*
X27444804Y12030258D01*
X27364805Y12149985D01*
X27262985Y12251805D01*
X27143258Y12331804D01*
X27010225Y12386908D01*
X26868997Y12415000D01*
X26725003Y12415000D01*
X26583775Y12386908D01*
X26450742Y12331804D01*
X26331015Y12251805D01*
X26229195Y12149985D01*
X26149196Y12030258D01*
X26094092Y11897225D01*
X26077863Y11815636D01*
X24612600Y13280899D01*
X24612600Y17834101D01*
X25597488Y18818988D01*
X25615901Y18834099D01*
X25676209Y18907585D01*
X25721022Y18991423D01*
X25748617Y19082394D01*
X25755600Y19153293D01*
X25755600Y19153294D01*
X25757935Y19176999D01*
X25755600Y19200707D01*
X25755600Y26741106D01*
X25823011Y26673695D01*
X25942738Y26593696D01*
X26075771Y26538592D01*
X26216999Y26510500D01*
X26360993Y26510500D01*
X26502221Y26538592D01*
X26635254Y26593696D01*
X26733498Y26659341D01*
X26831742Y26593696D01*
X26964775Y26538592D01*
X27106003Y26510500D01*
X27249997Y26510500D01*
X27391225Y26538592D01*
X27463188Y26568400D01*
X30104619Y26568400D01*
X30128607Y26532500D01*
X30230427Y26430680D01*
X30350154Y26350681D01*
X30483187Y26295577D01*
X30624415Y26267485D01*
X30768409Y26267485D01*
X30909637Y26295577D01*
X31042670Y26350681D01*
X31162397Y26430680D01*
X31187048Y26455331D01*
X31224337Y26430416D01*
X31357370Y26375312D01*
X31498598Y26347220D01*
X31642592Y26347220D01*
X31783820Y26375312D01*
X31916853Y26430416D01*
X31988921Y26478570D01*
X32101727Y26403196D01*
X32234760Y26348092D01*
X32375988Y26320000D01*
X32519982Y26320000D01*
X32661210Y26348092D01*
X32794243Y26403196D01*
X32913970Y26483195D01*
X33015790Y26585015D01*
X33095789Y26704742D01*
X33150893Y26837775D01*
X33178985Y26979003D01*
X33178985Y27122997D01*
X33150893Y27264225D01*
X33095789Y27397258D01*
X33015790Y27516985D01*
X32980125Y27552650D01*
X34696400Y27552650D01*
X34696400Y27356758D01*
X34720803Y27234077D01*
X34768670Y27118515D01*
X34838163Y27014511D01*
X34926611Y26926063D01*
X35030615Y26856570D01*
X35146177Y26808703D01*
X35268858Y26784300D01*
X35572700Y26784300D01*
X35731450Y26943050D01*
X35731450Y27711400D01*
X36531550Y27711400D01*
X36531550Y26943050D01*
X36690300Y26784300D01*
X36994142Y26784300D01*
X37116823Y26808703D01*
X37232385Y26856570D01*
X37336389Y26926063D01*
X37424837Y27014511D01*
X37494330Y27118515D01*
X37542197Y27234077D01*
X37566600Y27356758D01*
X37566600Y27552650D01*
X37407850Y27711400D01*
X36531550Y27711400D01*
X35731450Y27711400D01*
X34855150Y27711400D01*
X34696400Y27552650D01*
X32980125Y27552650D01*
X32913970Y27618805D01*
X32794243Y27698804D01*
X32661210Y27753908D01*
X32519982Y27782000D01*
X32463500Y27782000D01*
X31663517Y28581982D01*
X31648401Y28600401D01*
X31574915Y28660709D01*
X31491077Y28705522D01*
X31400106Y28733117D01*
X31329207Y28740100D01*
X31329205Y28740100D01*
X31305500Y28742435D01*
X31281795Y28740100D01*
X28965400Y28740100D01*
X28241500Y29464000D01*
X33905326Y29464000D01*
X33920038Y29314622D01*
X33963610Y29170985D01*
X34034367Y29038608D01*
X34129590Y28922578D01*
X34245620Y28827355D01*
X34377997Y28756598D01*
X34521634Y28713026D01*
X34633586Y28702000D01*
X34706695Y28702000D01*
X34696400Y28650242D01*
X34696400Y28454350D01*
X34855150Y28295600D01*
X35731450Y28295600D01*
X35731450Y28531500D01*
X36531550Y28531500D01*
X36531550Y28295600D01*
X37407850Y28295600D01*
X37566600Y28454350D01*
X37566600Y28650242D01*
X37542197Y28772923D01*
X37494330Y28888485D01*
X37424837Y28992489D01*
X37336389Y29080937D01*
X37314443Y29095601D01*
X37314443Y30111700D01*
X37307087Y30186389D01*
X37285301Y30258208D01*
X37249922Y30324396D01*
X37202311Y30382411D01*
X37144296Y30430022D01*
X37078108Y30465401D01*
X37006289Y30487187D01*
X36931600Y30494543D01*
X35331400Y30494543D01*
X35256711Y30487187D01*
X35184892Y30465401D01*
X35118704Y30430022D01*
X35060689Y30382411D01*
X35013078Y30324396D01*
X34977699Y30258208D01*
X34967929Y30226000D01*
X34633586Y30226000D01*
X34521634Y30214974D01*
X34377997Y30171402D01*
X34245620Y30100645D01*
X34129590Y30005422D01*
X34034367Y29889392D01*
X33963610Y29757015D01*
X33920038Y29613378D01*
X33905326Y29464000D01*
X28241500Y29464000D01*
X17020888Y40684611D01*
X17020888Y40858679D01*
X17023223Y40882384D01*
X17019892Y40916200D01*
X17013905Y40976989D01*
X16986310Y41067960D01*
X16941497Y41151798D01*
X16919289Y41178859D01*
X16919289Y41304379D01*
X16891197Y41445607D01*
X16836093Y41578640D01*
X16803829Y41626926D01*
X17145100Y41626926D01*
X24273101Y34498924D01*
X24288214Y34480509D01*
X24361700Y34420201D01*
X24445538Y34375388D01*
X24536509Y34347793D01*
X24607408Y34340810D01*
X24607409Y34340810D01*
X24631114Y34338475D01*
X24654819Y34340810D01*
X33620191Y34340810D01*
X33710840Y34250160D01*
X33710841Y32631153D01*
X33708505Y32607438D01*
X33717824Y32512832D01*
X33745418Y32421862D01*
X33790232Y32338023D01*
X33812439Y32310963D01*
X33812439Y32185442D01*
X33840531Y32044214D01*
X33895635Y31911181D01*
X33975634Y31791454D01*
X34077454Y31689634D01*
X34197181Y31609635D01*
X34330214Y31554531D01*
X34471442Y31526439D01*
X34615436Y31526439D01*
X34756664Y31554531D01*
X34889697Y31609635D01*
X34984338Y31672872D01*
X35052561Y31604649D01*
X35172288Y31524650D01*
X35305321Y31469546D01*
X35446549Y31441454D01*
X35590543Y31441454D01*
X35731771Y31469546D01*
X35864804Y31524650D01*
X35984531Y31604649D01*
X36086351Y31706469D01*
X36166350Y31826196D01*
X36170470Y31836142D01*
X36235775Y31809092D01*
X36377003Y31781000D01*
X36520997Y31781000D01*
X36662225Y31809092D01*
X36795258Y31864196D01*
X36914985Y31944195D01*
X37016805Y32046015D01*
X37096804Y32165742D01*
X37151908Y32298775D01*
X37180000Y32440003D01*
X37180000Y32583997D01*
X37151908Y32725225D01*
X37096804Y32858258D01*
X37016805Y32977985D01*
X36931600Y33063190D01*
X36931600Y33250304D01*
X36933934Y33274001D01*
X36931600Y33297698D01*
X36931600Y33297707D01*
X36924617Y33368606D01*
X36897022Y33459577D01*
X36852209Y33543415D01*
X36791901Y33616901D01*
X36773482Y33632017D01*
X36550600Y33854899D01*
X36550600Y34168294D01*
X36552934Y34191991D01*
X36550600Y34215688D01*
X36550600Y34215697D01*
X36543617Y34286596D01*
X36516022Y34377567D01*
X36471209Y34461405D01*
X36410901Y34534891D01*
X36392482Y34550007D01*
X34651564Y36290925D01*
X34636448Y36309344D01*
X34562962Y36369652D01*
X34479124Y36414465D01*
X34388153Y36442060D01*
X34317254Y36449043D01*
X34317252Y36449043D01*
X34293547Y36451378D01*
X34269842Y36449043D01*
X25304470Y36449043D01*
X16606001Y45147512D01*
X16606001Y45483329D01*
X16608336Y45507034D01*
X16605689Y45533908D01*
X16599018Y45601639D01*
X16571423Y45692610D01*
X16526610Y45776448D01*
X16466302Y45849934D01*
X16447883Y45865050D01*
X16275717Y46037216D01*
X16260601Y46055635D01*
X16187115Y46115943D01*
X16103277Y46160756D01*
X16012306Y46188351D01*
X15977468Y46191782D01*
X15888711Y46280539D01*
X15768984Y46360538D01*
X15635951Y46415642D01*
X15494723Y46443734D01*
X15350729Y46443734D01*
X15209501Y46415642D01*
X15076468Y46360538D01*
X14956741Y46280539D01*
X14854921Y46178719D01*
X14774922Y46058992D01*
X14719818Y45925959D01*
X14691726Y45784731D01*
X14691726Y45640737D01*
X14719818Y45499509D01*
X14774922Y45366476D01*
X14842332Y45265590D01*
X14783310Y45177258D01*
X14728206Y45044225D01*
X14700114Y44902997D01*
X14700114Y44759003D01*
X14728206Y44617775D01*
X14783310Y44484742D01*
X14863309Y44365015D01*
X14965129Y44263195D01*
X15084856Y44183196D01*
X15217889Y44128092D01*
X15359117Y44100000D01*
X15484637Y44100000D01*
X15511698Y44077792D01*
X15595536Y44032979D01*
X15686507Y44005384D01*
X15757406Y43998401D01*
X15757407Y43998401D01*
X15781112Y43996066D01*
X15804817Y43998401D01*
X15851284Y43998401D01*
X16132006Y43717679D01*
X16048038Y43717679D01*
X15906810Y43689587D01*
X15773777Y43634483D01*
X15654050Y43554484D01*
X15552230Y43452664D01*
X15472231Y43332937D01*
X15417127Y43199904D01*
X15389035Y43058676D01*
X15389035Y42914682D01*
X15417127Y42773454D01*
X15472231Y42640421D01*
X15550925Y42522647D01*
X15506249Y42455784D01*
X15451145Y42322751D01*
X15423053Y42181523D01*
X15423053Y42037529D01*
X15451145Y41896301D01*
X15506249Y41763268D01*
X15585049Y41645335D01*
X15549921Y41592762D01*
X12876124Y44266559D01*
X12861008Y44284978D01*
X12787522Y44345286D01*
X12703684Y44390099D01*
X12612713Y44417694D01*
X12541814Y44424677D01*
X12541812Y44424677D01*
X12518107Y44427012D01*
X12494402Y44424677D01*
X4433864Y44424677D01*
X4433864Y46444029D01*
X4436199Y46467736D01*
X4426881Y46562343D01*
X4399286Y46653313D01*
X4354472Y46737152D01*
X4352676Y46739341D01*
X4294165Y46810637D01*
X4275746Y46825753D01*
X4033000Y47068499D01*
X4033000Y47188997D01*
X4004908Y47330225D01*
X3949804Y47463258D01*
X3869805Y47582985D01*
X3767985Y47684805D01*
X3667421Y47752000D01*
X3767985Y47819195D01*
X3869805Y47921015D01*
X3949804Y48040742D01*
X4004908Y48173775D01*
X4033000Y48315003D01*
X4033000Y48458997D01*
X4004908Y48600225D01*
X3949804Y48733258D01*
X3869805Y48852985D01*
X3767985Y48954805D01*
X3667421Y49022000D01*
X3767985Y49089195D01*
X3869805Y49191015D01*
X3949804Y49310742D01*
X4004908Y49443775D01*
X4033000Y49585003D01*
X4033000Y49728997D01*
X4004908Y49870225D01*
X3949804Y50003258D01*
X3869805Y50122985D01*
X3767985Y50224805D01*
X3667421Y50292000D01*
X3767985Y50359195D01*
X3869805Y50461015D01*
X3949804Y50580742D01*
X4004908Y50713775D01*
X4033000Y50855003D01*
X4033000Y50998997D01*
X4004908Y51140225D01*
X3949804Y51273258D01*
X3869805Y51392985D01*
X3767985Y51494805D01*
X3667421Y51562000D01*
X3767985Y51629195D01*
X3869805Y51731015D01*
X3949804Y51850742D01*
X4004908Y51983775D01*
X4033000Y52125003D01*
X4033000Y52268997D01*
X4004908Y52410225D01*
X3949804Y52543258D01*
X3869805Y52662985D01*
X3767985Y52764805D01*
X3648258Y52844804D01*
X3515225Y52899908D01*
X3373997Y52928000D01*
X3230003Y52928000D01*
X3088775Y52899908D01*
X2955742Y52844804D01*
X2836015Y52764805D01*
X2734195Y52662985D01*
X2654196Y52543258D01*
X2599092Y52410225D01*
X2571000Y52268997D01*
X2571000Y52148499D01*
X767739Y50345238D01*
X749320Y50330122D01*
X689012Y50256636D01*
X644199Y50172797D01*
X616604Y50081826D01*
X609768Y50012423D01*
X607286Y49987221D01*
X609621Y49963516D01*
X609622Y29411494D01*
X607286Y29387779D01*
X616605Y29293173D01*
X644199Y29202203D01*
X689013Y29118364D01*
X709435Y29093480D01*
X749321Y29044878D01*
X767734Y29029767D01*
X894486Y28903015D01*
X894487Y25697191D01*
X809281Y25611985D01*
X729282Y25492258D01*
X674178Y25359225D01*
X646086Y25217997D01*
X646086Y25074003D01*
X674178Y24932775D01*
X729282Y24799742D01*
X809281Y24680015D01*
X894487Y24594809D01*
X894486Y12747299D01*
X892151Y12723594D01*
X894486Y12699889D01*
X894486Y12699888D01*
X901469Y12628989D01*
X929064Y12538018D01*
X973877Y12454179D01*
X1034185Y12380693D01*
X1052604Y12365577D01*
X2736684Y10681496D01*
X2464616Y10628361D01*
X1774802Y10345436D01*
X1751480Y10332970D01*
X1363272Y9896149D01*
X1465217Y9794204D01*
X1439913Y9786528D01*
X1381873Y9583392D01*
X1905000Y9060264D01*
X2052078Y9207342D01*
X2349499Y8909921D01*
X2319721Y8880144D01*
X2446565Y8753300D01*
X2329264Y8636000D01*
X2852392Y8112873D01*
X3034858Y8165007D01*
X3038144Y8161721D01*
X3044059Y8167636D01*
X3055528Y8170913D01*
X3058940Y8182517D01*
X3067922Y8191498D01*
X3556000Y7703420D01*
X3570142Y7717563D01*
X4288563Y6999142D01*
X4274420Y6985000D01*
X4762499Y6496922D01*
X4753672Y6488095D01*
X4741913Y6484528D01*
X4738636Y6473059D01*
X4732721Y6467144D01*
X4736007Y6463858D01*
X4683873Y6281392D01*
X5207000Y5758264D01*
X5324301Y5875564D01*
X5451144Y5748721D01*
X5480922Y5778498D01*
X5778342Y5481078D01*
X5631264Y5334000D01*
X6154392Y4810873D01*
X6357528Y4868913D01*
X6365022Y4894399D01*
X6467149Y4792272D01*
X6903970Y5180480D01*
X7137401Y5738536D01*
X7137400Y3230954D01*
X6996708Y3155751D01*
X6895259Y3072495D01*
X6362764Y2540000D01*
X6224916Y2540000D01*
X5979555Y2491195D01*
X5748429Y2395459D01*
X5540422Y2256473D01*
X5363527Y2079578D01*
X5224541Y1871571D01*
X5195350Y1801098D01*
X5042600Y1873982D01*
X4438618Y1270000D01*
X4497662Y1210956D01*
X3869044Y582338D01*
X3810000Y641382D01*
X3750957Y582338D01*
X3122339Y1210956D01*
X3181382Y1270000D01*
X2577400Y1873982D01*
X2541843Y1857016D01*
X2541843Y2159000D01*
X2534487Y2233689D01*
X2512701Y2305508D01*
X2477322Y2371696D01*
X2429711Y2429711D01*
X2371696Y2477322D01*
X2324406Y2502600D01*
X3206018Y2502600D01*
X3810000Y1898618D01*
X4413982Y2502600D01*
X4311759Y2716839D01*
X4019853Y2786927D01*
X3719883Y2798720D01*
X3423376Y2751766D01*
X3308241Y2716839D01*
X3206018Y2502600D01*
X2324406Y2502600D01*
X2305508Y2512701D01*
X2233689Y2534487D01*
X2159000Y2541843D01*
X508000Y2541843D01*
X508000Y4073851D01*
X1363272Y4073851D01*
X1751480Y3637030D01*
X2439310Y3349316D01*
X3170053Y3201319D01*
X3915629Y3198727D01*
X4647384Y3341639D01*
X5337198Y3624564D01*
X5360520Y3637030D01*
X5748728Y4073851D01*
X5646783Y4175796D01*
X5672087Y4183472D01*
X5730127Y4386608D01*
X5207000Y4909736D01*
X5059922Y4762658D01*
X4762502Y5060078D01*
X4792279Y5089856D01*
X4665436Y5216699D01*
X4782736Y5334000D01*
X4259608Y5857127D01*
X4077142Y5804993D01*
X4073856Y5808279D01*
X4067941Y5802364D01*
X4056472Y5799087D01*
X4053060Y5787483D01*
X4044079Y5778501D01*
X3556000Y6266580D01*
X3067922Y5778501D01*
X3038144Y5808279D01*
X2936081Y5706216D01*
X2852392Y5730127D01*
X2329264Y5207000D01*
X2383065Y5153199D01*
X2319721Y5089856D01*
X2349499Y5060078D01*
X1988578Y4699158D01*
X1905000Y4782736D01*
X1381873Y4259608D01*
X1419019Y4129598D01*
X1363272Y4073851D01*
X508000Y4073851D01*
X508000Y4913893D01*
X644851Y4792272D01*
X717238Y4864659D01*
X754472Y4741913D01*
X957608Y4683873D01*
X1480736Y5207000D01*
X1319515Y5368220D01*
X1743780Y5792484D01*
X1905000Y5631264D01*
X2428127Y6154392D01*
X2370087Y6357528D01*
X2292482Y6380347D01*
X2379279Y6467144D01*
X2349502Y6496921D01*
X2837580Y6985000D01*
X2349501Y7473078D01*
X2358328Y7481905D01*
X2370087Y7485472D01*
X2373364Y7496941D01*
X2379279Y7502856D01*
X2375993Y7506142D01*
X2428127Y7688608D01*
X1905000Y8211736D01*
X1787700Y8094435D01*
X1660856Y8221279D01*
X1631079Y8191501D01*
X1333658Y8488922D01*
X1480736Y8636000D01*
X957608Y9159127D01*
X754472Y9101087D01*
X746978Y9075601D01*
X644851Y9177728D01*
X508000Y9056107D01*
X508000Y55626000D01*
X19533053Y55626000D01*
X19558000Y55623543D01*
X19582947Y55626000D01*
X19657585Y55633351D01*
X19753343Y55662399D01*
X19841595Y55709571D01*
X19918948Y55773052D01*
X19982429Y55850405D01*
X20029601Y55938657D01*
X20058649Y56034415D01*
X20068457Y56134000D01*
X20066000Y56158947D01*
X20066000Y61722000D01*
X22733000Y61722000D01*
X22733000Y55245000D01*
G36*
X22885400Y21154900D02*
G01*
X22281513Y20551012D01*
X22263100Y20535901D01*
X22247989Y20517488D01*
X22247987Y20517486D01*
X22202792Y20462415D01*
X22157978Y20378576D01*
X22130384Y20287606D01*
X22121065Y20193000D01*
X22123401Y20169285D01*
X22123400Y12723705D01*
X22121065Y12700000D01*
X22123400Y12676295D01*
X22123400Y12676294D01*
X22130383Y12605395D01*
X22157978Y12514424D01*
X22202791Y12430585D01*
X22263099Y12357099D01*
X22281518Y12341983D01*
X28854401Y5769100D01*
X28854400Y5250190D01*
X28769195Y5164985D01*
X28689196Y5045258D01*
X28634092Y4912225D01*
X28606000Y4770997D01*
X28606000Y4627003D01*
X28634092Y4485775D01*
X28689196Y4352742D01*
X28769195Y4233015D01*
X28871015Y4131195D01*
X28990742Y4051196D01*
X29123775Y3996092D01*
X29265003Y3968000D01*
X29408997Y3968000D01*
X29550225Y3996092D01*
X29683258Y4051196D01*
X29743400Y4091382D01*
X29743400Y4087705D01*
X29741065Y4064000D01*
X29743400Y4040295D01*
X29743400Y4040294D01*
X29750383Y3969395D01*
X29777978Y3878424D01*
X29822791Y3794585D01*
X29883099Y3721099D01*
X29901518Y3705983D01*
X30907929Y2699572D01*
X30873865Y2587274D01*
X30861001Y2456667D01*
X30861001Y2177052D01*
X30763527Y2079578D01*
X30624541Y1871571D01*
X30528805Y1640445D01*
X30480000Y1395084D01*
X30431195Y1640445D01*
X30335459Y1871571D01*
X30196473Y2079578D01*
X30099000Y2177051D01*
X30099000Y2456667D01*
X30086136Y2587274D01*
X30035303Y2754851D01*
X29952753Y2909291D01*
X29841659Y3044659D01*
X29706291Y3155753D01*
X29551851Y3238303D01*
X29384274Y3289136D01*
X29210000Y3306301D01*
X29035727Y3289136D01*
X29020870Y3284629D01*
X27152600Y5152899D01*
X27152600Y6961293D01*
X27154935Y6985000D01*
X27145617Y7079607D01*
X27118022Y7170577D01*
X27091736Y7219753D01*
X27073209Y7254415D01*
X27033909Y7302303D01*
X27028013Y7309487D01*
X27028012Y7309488D01*
X27012901Y7327901D01*
X26994488Y7343012D01*
X22072600Y12264899D01*
X22072600Y23041101D01*
X22524087Y23492587D01*
X22542501Y23507699D01*
X22602809Y23581185D01*
X22647622Y23665023D01*
X22662148Y23712909D01*
X22675217Y23755993D01*
X22684535Y23850600D01*
X22682200Y23874307D01*
X22682200Y26022753D01*
X22760045Y26117608D01*
X22830802Y26249985D01*
X22874374Y26393622D01*
X22885400Y26505575D01*
X22885400Y26749419D01*
X22885401Y26749421D01*
X22885400Y21154900D01*
X22885400Y21154900D01*
G37*
X22885400Y21154900D02*
X22281513Y20551012D01*
X22263100Y20535901D01*
X22247989Y20517488D01*
X22247987Y20517486D01*
X22202792Y20462415D01*
X22157978Y20378576D01*
X22130384Y20287606D01*
X22121065Y20193000D01*
X22123401Y20169285D01*
X22123400Y12723705D01*
X22121065Y12700000D01*
X22123400Y12676295D01*
X22123400Y12676294D01*
X22130383Y12605395D01*
X22157978Y12514424D01*
X22202791Y12430585D01*
X22263099Y12357099D01*
X22281518Y12341983D01*
X28854401Y5769100D01*
X28854400Y5250190D01*
X28769195Y5164985D01*
X28689196Y5045258D01*
X28634092Y4912225D01*
X28606000Y4770997D01*
X28606000Y4627003D01*
X28634092Y4485775D01*
X28689196Y4352742D01*
X28769195Y4233015D01*
X28871015Y4131195D01*
X28990742Y4051196D01*
X29123775Y3996092D01*
X29265003Y3968000D01*
X29408997Y3968000D01*
X29550225Y3996092D01*
X29683258Y4051196D01*
X29743400Y4091382D01*
X29743400Y4087705D01*
X29741065Y4064000D01*
X29743400Y4040295D01*
X29743400Y4040294D01*
X29750383Y3969395D01*
X29777978Y3878424D01*
X29822791Y3794585D01*
X29883099Y3721099D01*
X29901518Y3705983D01*
X30907929Y2699572D01*
X30873865Y2587274D01*
X30861001Y2456667D01*
X30861001Y2177052D01*
X30763527Y2079578D01*
X30624541Y1871571D01*
X30528805Y1640445D01*
X30480000Y1395084D01*
X30431195Y1640445D01*
X30335459Y1871571D01*
X30196473Y2079578D01*
X30099000Y2177051D01*
X30099000Y2456667D01*
X30086136Y2587274D01*
X30035303Y2754851D01*
X29952753Y2909291D01*
X29841659Y3044659D01*
X29706291Y3155753D01*
X29551851Y3238303D01*
X29384274Y3289136D01*
X29210000Y3306301D01*
X29035727Y3289136D01*
X29020870Y3284629D01*
X27152600Y5152899D01*
X27152600Y6961293D01*
X27154935Y6985000D01*
X27145617Y7079607D01*
X27118022Y7170577D01*
X27091736Y7219753D01*
X27073209Y7254415D01*
X27033909Y7302303D01*
X27028013Y7309487D01*
X27028012Y7309488D01*
X27012901Y7327901D01*
X26994488Y7343012D01*
X22072600Y12264899D01*
X22072600Y23041101D01*
X22524087Y23492587D01*
X22542501Y23507699D01*
X22602809Y23581185D01*
X22647622Y23665023D01*
X22662148Y23712909D01*
X22675217Y23755993D01*
X22684535Y23850600D01*
X22682200Y23874307D01*
X22682200Y26022753D01*
X22760045Y26117608D01*
X22830802Y26249985D01*
X22874374Y26393622D01*
X22885400Y26505575D01*
X22885400Y26749419D01*
X22885401Y26749421D01*
X22885400Y21154900D01*
G36*
X21735780Y30803648D02*
G01*
X21706591Y30788046D01*
X21622536Y30719064D01*
X21602732Y30699260D01*
X21574626Y30676194D01*
X21551560Y30648088D01*
X21551558Y30648086D01*
X21482576Y30564031D01*
X21414178Y30436066D01*
X21392988Y30366211D01*
X21372059Y30297218D01*
X21364955Y30225090D01*
X21357836Y30152819D01*
X21361400Y30116636D01*
X21361400Y29923043D01*
X20916900Y29923043D01*
X20842211Y29915687D01*
X20770392Y29893901D01*
X20704204Y29858522D01*
X20646189Y29810911D01*
X20598578Y29752896D01*
X20563199Y29686708D01*
X20541413Y29614889D01*
X20534057Y29540200D01*
X20534057Y28371800D01*
X20541413Y28297111D01*
X20563199Y28225292D01*
X20579925Y28194000D01*
X20563199Y28162708D01*
X20541413Y28090889D01*
X20534057Y28016200D01*
X20534057Y26847800D01*
X20541413Y26773111D01*
X20563199Y26701292D01*
X20598578Y26635104D01*
X20646189Y26577089D01*
X20704204Y26529478D01*
X20770392Y26494099D01*
X20842211Y26472313D01*
X20916900Y26464957D01*
X21365400Y26464957D01*
X21372426Y26393622D01*
X21415998Y26249985D01*
X21486755Y26117608D01*
X21581979Y26001578D01*
X21698009Y25906355D01*
X21717000Y25896204D01*
X21717001Y24050501D01*
X21265518Y23599017D01*
X21247099Y23583901D01*
X21186791Y23510415D01*
X21141978Y23426576D01*
X21114383Y23335605D01*
X21109766Y23288725D01*
X21105065Y23241000D01*
X21107400Y23217295D01*
X21107401Y12088715D01*
X21105065Y12065000D01*
X21114384Y11970394D01*
X21141978Y11879424D01*
X21186792Y11795585D01*
X21223346Y11751044D01*
X21247100Y11722099D01*
X21265513Y11706988D01*
X26187400Y6785100D01*
X26187401Y4976715D01*
X26185065Y4953000D01*
X26194384Y4858394D01*
X26221978Y4767424D01*
X26266792Y4683585D01*
X26310768Y4630000D01*
X26327100Y4610099D01*
X26345513Y4594988D01*
X28129216Y2811285D01*
X28024667Y2832081D01*
X27904170Y2832081D01*
X26474768Y4261482D01*
X26459652Y4279901D01*
X26386166Y4340209D01*
X26302328Y4385022D01*
X26211357Y4412617D01*
X26140458Y4419600D01*
X26140456Y4419600D01*
X26116751Y4421935D01*
X26093046Y4419600D01*
X17979899Y4419600D01*
X16992600Y5406899D01*
X16992600Y6941810D01*
X17077805Y7027015D01*
X17157804Y7146742D01*
X17212908Y7279775D01*
X17241000Y7421003D01*
X17241000Y7564997D01*
X17212908Y7706225D01*
X17157804Y7839258D01*
X17077805Y7958985D01*
X16975985Y8060805D01*
X16856258Y8140804D01*
X16723225Y8195908D01*
X16581997Y8224000D01*
X16526499Y8224000D01*
X17723488Y9420988D01*
X17741901Y9436099D01*
X17802209Y9509585D01*
X17847022Y9593423D01*
X17866287Y9656933D01*
X17874617Y9684393D01*
X17883935Y9779000D01*
X17881600Y9802707D01*
X17881600Y22776666D01*
X18288000Y22776666D01*
X18288001Y21760675D01*
X18288000Y21760666D01*
X18288001Y5417333D01*
X18300865Y5286726D01*
X18351698Y5119149D01*
X18434248Y4964709D01*
X18545342Y4829341D01*
X18680710Y4718247D01*
X18835150Y4635697D01*
X19002727Y4584864D01*
X19177000Y4567699D01*
X19351274Y4584864D01*
X19518851Y4635697D01*
X19673291Y4718247D01*
X19808659Y4829341D01*
X19919753Y4964709D01*
X20002303Y5119149D01*
X20053136Y5286726D01*
X20066000Y5417333D01*
X20066000Y22776667D01*
X20053136Y22907274D01*
X20002303Y23074851D01*
X19919753Y23229291D01*
X19808659Y23364659D01*
X19673290Y23475753D01*
X19518850Y23558303D01*
X19351273Y23609136D01*
X19177000Y23626301D01*
X19002726Y23609136D01*
X18835149Y23558303D01*
X18680709Y23475753D01*
X18545341Y23364659D01*
X18434247Y23229290D01*
X18351697Y23074850D01*
X18300864Y22907273D01*
X18288000Y22776666D01*
X17881600Y22776666D01*
X17881600Y26519296D01*
X17883935Y26543001D01*
X17880577Y26577089D01*
X17874617Y26637606D01*
X17847022Y26728577D01*
X17802209Y26812415D01*
X17741901Y26885901D01*
X17723482Y26901017D01*
X16516963Y28107536D01*
X16565003Y28097980D01*
X16708997Y28097980D01*
X16823280Y28120712D01*
X16827698Y28106148D01*
X16910248Y27951709D01*
X16993505Y27850260D01*
X17907000Y26936764D01*
X17907001Y24935670D01*
X17902700Y24892000D01*
X17919864Y24717726D01*
X17970698Y24550148D01*
X18053248Y24395709D01*
X18125127Y24308125D01*
X18164342Y24260341D01*
X18198260Y24232505D01*
X18452260Y23978506D01*
X18553709Y23895249D01*
X18708148Y23812698D01*
X18875724Y23761864D01*
X19049999Y23744700D01*
X19224274Y23761864D01*
X19391852Y23812698D01*
X19546291Y23895249D01*
X19681659Y24006341D01*
X19792751Y24141709D01*
X19875302Y24296148D01*
X19926136Y24463726D01*
X19943300Y24638001D01*
X19926136Y24812276D01*
X19875302Y24979852D01*
X19792751Y25134291D01*
X19709494Y25235740D01*
X19685000Y25260234D01*
X19685000Y27261341D01*
X19689300Y27305001D01*
X19685000Y27348666D01*
X19685000Y27348667D01*
X19672136Y27479274D01*
X19672136Y27479276D01*
X19639217Y27587795D01*
X19621303Y27646851D01*
X19538753Y27801291D01*
X19427659Y27936659D01*
X19393743Y27964493D01*
X18250740Y29107495D01*
X18149291Y29190752D01*
X17994852Y29273302D01*
X17827274Y29324136D01*
X17653000Y29341300D01*
X17478726Y29324136D01*
X17311148Y29273302D01*
X17243456Y29237120D01*
X17204805Y29294965D01*
X17145000Y29354770D01*
X17145000Y31224210D01*
X17204805Y31284015D01*
X17284804Y31403742D01*
X17339908Y31536775D01*
X17368000Y31678003D01*
X17368000Y31821997D01*
X17339908Y31963225D01*
X17284804Y32096258D01*
X17204805Y32215985D01*
X17102985Y32317805D01*
X16983258Y32397804D01*
X16850225Y32452908D01*
X16708997Y32481000D01*
X16565003Y32481000D01*
X16423775Y32452908D01*
X16361188Y32426984D01*
X16361188Y34375016D01*
X16423775Y34349092D01*
X16565003Y34321000D01*
X16708997Y34321000D01*
X16850225Y34349092D01*
X16983258Y34404196D01*
X17102985Y34484195D01*
X17188190Y34569400D01*
X17970028Y34569400D01*
X21735780Y30803648D01*
X21735780Y30803648D01*
G37*
X21735780Y30803648D02*
X21706591Y30788046D01*
X21622536Y30719064D01*
X21602732Y30699260D01*
X21574626Y30676194D01*
X21551560Y30648088D01*
X21551558Y30648086D01*
X21482576Y30564031D01*
X21414178Y30436066D01*
X21392988Y30366211D01*
X21372059Y30297218D01*
X21364955Y30225090D01*
X21357836Y30152819D01*
X21361400Y30116636D01*
X21361400Y29923043D01*
X20916900Y29923043D01*
X20842211Y29915687D01*
X20770392Y29893901D01*
X20704204Y29858522D01*
X20646189Y29810911D01*
X20598578Y29752896D01*
X20563199Y29686708D01*
X20541413Y29614889D01*
X20534057Y29540200D01*
X20534057Y28371800D01*
X20541413Y28297111D01*
X20563199Y28225292D01*
X20579925Y28194000D01*
X20563199Y28162708D01*
X20541413Y28090889D01*
X20534057Y28016200D01*
X20534057Y26847800D01*
X20541413Y26773111D01*
X20563199Y26701292D01*
X20598578Y26635104D01*
X20646189Y26577089D01*
X20704204Y26529478D01*
X20770392Y26494099D01*
X20842211Y26472313D01*
X20916900Y26464957D01*
X21365400Y26464957D01*
X21372426Y26393622D01*
X21415998Y26249985D01*
X21486755Y26117608D01*
X21581979Y26001578D01*
X21698009Y25906355D01*
X21717000Y25896204D01*
X21717001Y24050501D01*
X21265518Y23599017D01*
X21247099Y23583901D01*
X21186791Y23510415D01*
X21141978Y23426576D01*
X21114383Y23335605D01*
X21109766Y23288725D01*
X21105065Y23241000D01*
X21107400Y23217295D01*
X21107401Y12088715D01*
X21105065Y12065000D01*
X21114384Y11970394D01*
X21141978Y11879424D01*
X21186792Y11795585D01*
X21223346Y11751044D01*
X21247100Y11722099D01*
X21265513Y11706988D01*
X26187400Y6785100D01*
X26187401Y4976715D01*
X26185065Y4953000D01*
X26194384Y4858394D01*
X26221978Y4767424D01*
X26266792Y4683585D01*
X26310768Y4630000D01*
X26327100Y4610099D01*
X26345513Y4594988D01*
X28129216Y2811285D01*
X28024667Y2832081D01*
X27904170Y2832081D01*
X26474768Y4261482D01*
X26459652Y4279901D01*
X26386166Y4340209D01*
X26302328Y4385022D01*
X26211357Y4412617D01*
X26140458Y4419600D01*
X26140456Y4419600D01*
X26116751Y4421935D01*
X26093046Y4419600D01*
X17979899Y4419600D01*
X16992600Y5406899D01*
X16992600Y6941810D01*
X17077805Y7027015D01*
X17157804Y7146742D01*
X17212908Y7279775D01*
X17241000Y7421003D01*
X17241000Y7564997D01*
X17212908Y7706225D01*
X17157804Y7839258D01*
X17077805Y7958985D01*
X16975985Y8060805D01*
X16856258Y8140804D01*
X16723225Y8195908D01*
X16581997Y8224000D01*
X16526499Y8224000D01*
X17723488Y9420988D01*
X17741901Y9436099D01*
X17802209Y9509585D01*
X17847022Y9593423D01*
X17866287Y9656933D01*
X17874617Y9684393D01*
X17883935Y9779000D01*
X17881600Y9802707D01*
X17881600Y22776666D01*
X18288000Y22776666D01*
X18288001Y21760675D01*
X18288000Y21760666D01*
X18288001Y5417333D01*
X18300865Y5286726D01*
X18351698Y5119149D01*
X18434248Y4964709D01*
X18545342Y4829341D01*
X18680710Y4718247D01*
X18835150Y4635697D01*
X19002727Y4584864D01*
X19177000Y4567699D01*
X19351274Y4584864D01*
X19518851Y4635697D01*
X19673291Y4718247D01*
X19808659Y4829341D01*
X19919753Y4964709D01*
X20002303Y5119149D01*
X20053136Y5286726D01*
X20066000Y5417333D01*
X20066000Y22776667D01*
X20053136Y22907274D01*
X20002303Y23074851D01*
X19919753Y23229291D01*
X19808659Y23364659D01*
X19673290Y23475753D01*
X19518850Y23558303D01*
X19351273Y23609136D01*
X19177000Y23626301D01*
X19002726Y23609136D01*
X18835149Y23558303D01*
X18680709Y23475753D01*
X18545341Y23364659D01*
X18434247Y23229290D01*
X18351697Y23074850D01*
X18300864Y22907273D01*
X18288000Y22776666D01*
X17881600Y22776666D01*
X17881600Y26519296D01*
X17883935Y26543001D01*
X17880577Y26577089D01*
X17874617Y26637606D01*
X17847022Y26728577D01*
X17802209Y26812415D01*
X17741901Y26885901D01*
X17723482Y26901017D01*
X16516963Y28107536D01*
X16565003Y28097980D01*
X16708997Y28097980D01*
X16823280Y28120712D01*
X16827698Y28106148D01*
X16910248Y27951709D01*
X16993505Y27850260D01*
X17907000Y26936764D01*
X17907001Y24935670D01*
X17902700Y24892000D01*
X17919864Y24717726D01*
X17970698Y24550148D01*
X18053248Y24395709D01*
X18125127Y24308125D01*
X18164342Y24260341D01*
X18198260Y24232505D01*
X18452260Y23978506D01*
X18553709Y23895249D01*
X18708148Y23812698D01*
X18875724Y23761864D01*
X19049999Y23744700D01*
X19224274Y23761864D01*
X19391852Y23812698D01*
X19546291Y23895249D01*
X19681659Y24006341D01*
X19792751Y24141709D01*
X19875302Y24296148D01*
X19926136Y24463726D01*
X19943300Y24638001D01*
X19926136Y24812276D01*
X19875302Y24979852D01*
X19792751Y25134291D01*
X19709494Y25235740D01*
X19685000Y25260234D01*
X19685000Y27261341D01*
X19689300Y27305001D01*
X19685000Y27348666D01*
X19685000Y27348667D01*
X19672136Y27479274D01*
X19672136Y27479276D01*
X19639217Y27587795D01*
X19621303Y27646851D01*
X19538753Y27801291D01*
X19427659Y27936659D01*
X19393743Y27964493D01*
X18250740Y29107495D01*
X18149291Y29190752D01*
X17994852Y29273302D01*
X17827274Y29324136D01*
X17653000Y29341300D01*
X17478726Y29324136D01*
X17311148Y29273302D01*
X17243456Y29237120D01*
X17204805Y29294965D01*
X17145000Y29354770D01*
X17145000Y31224210D01*
X17204805Y31284015D01*
X17284804Y31403742D01*
X17339908Y31536775D01*
X17368000Y31678003D01*
X17368000Y31821997D01*
X17339908Y31963225D01*
X17284804Y32096258D01*
X17204805Y32215985D01*
X17102985Y32317805D01*
X16983258Y32397804D01*
X16850225Y32452908D01*
X16708997Y32481000D01*
X16565003Y32481000D01*
X16423775Y32452908D01*
X16361188Y32426984D01*
X16361188Y34375016D01*
X16423775Y34349092D01*
X16565003Y34321000D01*
X16708997Y34321000D01*
X16850225Y34349092D01*
X16983258Y34404196D01*
X17102985Y34484195D01*
X17188190Y34569400D01*
X17970028Y34569400D01*
X21735780Y30803648D01*
G36*
X15395989Y35991511D02*
G01*
X15395988Y28087117D01*
X15393653Y28063412D01*
X15395988Y28039707D01*
X15395988Y28039706D01*
X15402971Y27968807D01*
X15430566Y27877836D01*
X15475379Y27793997D01*
X15535687Y27720511D01*
X15554106Y27705395D01*
X16916401Y26343100D01*
X16916400Y9978900D01*
X15423513Y8486012D01*
X15405100Y8470901D01*
X15389989Y8452488D01*
X15389987Y8452486D01*
X15344792Y8397415D01*
X15299978Y8313576D01*
X15272384Y8222606D01*
X15263065Y8128000D01*
X15265401Y8104285D01*
X15265400Y5991099D01*
X15214600Y6041899D01*
X15214600Y8612293D01*
X15216935Y8636000D01*
X15207617Y8730607D01*
X15180022Y8821577D01*
X15172809Y8835071D01*
X15135209Y8905415D01*
X15098292Y8950399D01*
X15090013Y8960487D01*
X15090012Y8960488D01*
X15074901Y8978901D01*
X15056488Y8994012D01*
X14420663Y9629837D01*
X14443258Y9639196D01*
X14562985Y9719195D01*
X14664805Y9821015D01*
X14744804Y9940742D01*
X14799908Y10073775D01*
X14828000Y10215003D01*
X14828000Y10358997D01*
X14799908Y10500225D01*
X14744804Y10633258D01*
X14664805Y10752985D01*
X14562985Y10854805D01*
X14443258Y10934804D01*
X14310225Y10989908D01*
X14168997Y11018000D01*
X14048499Y11018000D01*
X12039600Y13026899D01*
X12039600Y14200304D01*
X12041934Y14224001D01*
X12039600Y14247698D01*
X12039600Y14247707D01*
X12032617Y14318606D01*
X12005022Y14409577D01*
X11960209Y14493415D01*
X11899901Y14566901D01*
X11881482Y14582017D01*
X10515600Y15947899D01*
X10515600Y28277810D01*
X10600805Y28363015D01*
X10680804Y28482742D01*
X10735908Y28615775D01*
X10764000Y28757003D01*
X10764000Y28900997D01*
X10735908Y29042225D01*
X10680804Y29175258D01*
X10600805Y29294985D01*
X10498985Y29396805D01*
X10379258Y29476804D01*
X10246225Y29531908D01*
X10104997Y29560000D01*
X9961003Y29560000D01*
X9819775Y29531908D01*
X9753600Y29504497D01*
X9753600Y34791438D01*
X9863985Y34865195D01*
X9965805Y34967015D01*
X10045804Y35086742D01*
X10100908Y35219775D01*
X10129000Y35361003D01*
X10129000Y35504997D01*
X10100908Y35646225D01*
X10045804Y35779258D01*
X9965805Y35898985D01*
X9863985Y36000805D01*
X9744258Y36080804D01*
X9611225Y36135908D01*
X9469997Y36164000D01*
X9326003Y36164000D01*
X9245600Y36148007D01*
X9245600Y37495987D01*
X9749425Y37999812D01*
X9869923Y37999812D01*
X10011151Y38027904D01*
X10144184Y38083008D01*
X10263911Y38163007D01*
X10365731Y38264827D01*
X10445730Y38384554D01*
X10449825Y38394440D01*
X13324377Y35519887D01*
X13228965Y35500908D01*
X13095932Y35445804D01*
X12976205Y35365805D01*
X12874385Y35263985D01*
X12794386Y35144258D01*
X12739282Y35011225D01*
X12711190Y34869997D01*
X12711190Y34726003D01*
X12739282Y34584775D01*
X12794386Y34451742D01*
X12874385Y34332015D01*
X12934191Y34272209D01*
X12934190Y25699875D01*
X12931733Y25674931D01*
X12934190Y25649987D01*
X12934190Y25649985D01*
X12941541Y25575347D01*
X12970589Y25479589D01*
X13017761Y25391336D01*
X13081242Y25313983D01*
X13100625Y25298076D01*
X13725273Y24673427D01*
X13725273Y24588851D01*
X13753365Y24447623D01*
X13808469Y24314590D01*
X13888468Y24194863D01*
X13990288Y24093043D01*
X14110015Y24013044D01*
X14243048Y23957940D01*
X14384276Y23929848D01*
X14528270Y23929848D01*
X14669498Y23957940D01*
X14802531Y24013044D01*
X14922258Y24093043D01*
X15024078Y24194863D01*
X15104077Y24314590D01*
X15159181Y24447623D01*
X15187273Y24588851D01*
X15187273Y24732845D01*
X15159181Y24874073D01*
X15104077Y25007106D01*
X15024078Y25126833D01*
X14922258Y25228653D01*
X14802531Y25308652D01*
X14669498Y25363756D01*
X14528270Y25391848D01*
X14443694Y25391848D01*
X14096824Y25738717D01*
X14136150Y25717697D01*
X14303727Y25666864D01*
X14478000Y25649699D01*
X14652274Y25666864D01*
X14819851Y25717697D01*
X14974291Y25800247D01*
X15109659Y25911341D01*
X15220753Y26046709D01*
X15303303Y26201149D01*
X15354136Y26368726D01*
X15367000Y26499333D01*
X15367000Y35579832D01*
X15371301Y35623500D01*
X15354136Y35797775D01*
X15327000Y35887230D01*
X15303303Y35965351D01*
X15220753Y36119791D01*
X15109659Y36255159D01*
X15075742Y36282994D01*
X12891017Y38467718D01*
X12898813Y38470947D01*
X12909448Y38478053D01*
X15395989Y35991511D01*
X15395989Y35991511D01*
G37*
X15395989Y35991511D02*
X15395988Y28087117D01*
X15393653Y28063412D01*
X15395988Y28039707D01*
X15395988Y28039706D01*
X15402971Y27968807D01*
X15430566Y27877836D01*
X15475379Y27793997D01*
X15535687Y27720511D01*
X15554106Y27705395D01*
X16916401Y26343100D01*
X16916400Y9978900D01*
X15423513Y8486012D01*
X15405100Y8470901D01*
X15389989Y8452488D01*
X15389987Y8452486D01*
X15344792Y8397415D01*
X15299978Y8313576D01*
X15272384Y8222606D01*
X15263065Y8128000D01*
X15265401Y8104285D01*
X15265400Y5991099D01*
X15214600Y6041899D01*
X15214600Y8612293D01*
X15216935Y8636000D01*
X15207617Y8730607D01*
X15180022Y8821577D01*
X15172809Y8835071D01*
X15135209Y8905415D01*
X15098292Y8950399D01*
X15090013Y8960487D01*
X15090012Y8960488D01*
X15074901Y8978901D01*
X15056488Y8994012D01*
X14420663Y9629837D01*
X14443258Y9639196D01*
X14562985Y9719195D01*
X14664805Y9821015D01*
X14744804Y9940742D01*
X14799908Y10073775D01*
X14828000Y10215003D01*
X14828000Y10358997D01*
X14799908Y10500225D01*
X14744804Y10633258D01*
X14664805Y10752985D01*
X14562985Y10854805D01*
X14443258Y10934804D01*
X14310225Y10989908D01*
X14168997Y11018000D01*
X14048499Y11018000D01*
X12039600Y13026899D01*
X12039600Y14200304D01*
X12041934Y14224001D01*
X12039600Y14247698D01*
X12039600Y14247707D01*
X12032617Y14318606D01*
X12005022Y14409577D01*
X11960209Y14493415D01*
X11899901Y14566901D01*
X11881482Y14582017D01*
X10515600Y15947899D01*
X10515600Y28277810D01*
X10600805Y28363015D01*
X10680804Y28482742D01*
X10735908Y28615775D01*
X10764000Y28757003D01*
X10764000Y28900997D01*
X10735908Y29042225D01*
X10680804Y29175258D01*
X10600805Y29294985D01*
X10498985Y29396805D01*
X10379258Y29476804D01*
X10246225Y29531908D01*
X10104997Y29560000D01*
X9961003Y29560000D01*
X9819775Y29531908D01*
X9753600Y29504497D01*
X9753600Y34791438D01*
X9863985Y34865195D01*
X9965805Y34967015D01*
X10045804Y35086742D01*
X10100908Y35219775D01*
X10129000Y35361003D01*
X10129000Y35504997D01*
X10100908Y35646225D01*
X10045804Y35779258D01*
X9965805Y35898985D01*
X9863985Y36000805D01*
X9744258Y36080804D01*
X9611225Y36135908D01*
X9469997Y36164000D01*
X9326003Y36164000D01*
X9245600Y36148007D01*
X9245600Y37495987D01*
X9749425Y37999812D01*
X9869923Y37999812D01*
X10011151Y38027904D01*
X10144184Y38083008D01*
X10263911Y38163007D01*
X10365731Y38264827D01*
X10445730Y38384554D01*
X10449825Y38394440D01*
X13324377Y35519887D01*
X13228965Y35500908D01*
X13095932Y35445804D01*
X12976205Y35365805D01*
X12874385Y35263985D01*
X12794386Y35144258D01*
X12739282Y35011225D01*
X12711190Y34869997D01*
X12711190Y34726003D01*
X12739282Y34584775D01*
X12794386Y34451742D01*
X12874385Y34332015D01*
X12934191Y34272209D01*
X12934190Y25699875D01*
X12931733Y25674931D01*
X12934190Y25649987D01*
X12934190Y25649985D01*
X12941541Y25575347D01*
X12970589Y25479589D01*
X13017761Y25391336D01*
X13081242Y25313983D01*
X13100625Y25298076D01*
X13725273Y24673427D01*
X13725273Y24588851D01*
X13753365Y24447623D01*
X13808469Y24314590D01*
X13888468Y24194863D01*
X13990288Y24093043D01*
X14110015Y24013044D01*
X14243048Y23957940D01*
X14384276Y23929848D01*
X14528270Y23929848D01*
X14669498Y23957940D01*
X14802531Y24013044D01*
X14922258Y24093043D01*
X15024078Y24194863D01*
X15104077Y24314590D01*
X15159181Y24447623D01*
X15187273Y24588851D01*
X15187273Y24732845D01*
X15159181Y24874073D01*
X15104077Y25007106D01*
X15024078Y25126833D01*
X14922258Y25228653D01*
X14802531Y25308652D01*
X14669498Y25363756D01*
X14528270Y25391848D01*
X14443694Y25391848D01*
X14096824Y25738717D01*
X14136150Y25717697D01*
X14303727Y25666864D01*
X14478000Y25649699D01*
X14652274Y25666864D01*
X14819851Y25717697D01*
X14974291Y25800247D01*
X15109659Y25911341D01*
X15220753Y26046709D01*
X15303303Y26201149D01*
X15354136Y26368726D01*
X15367000Y26499333D01*
X15367000Y35579832D01*
X15371301Y35623500D01*
X15354136Y35797775D01*
X15327000Y35887230D01*
X15303303Y35965351D01*
X15220753Y36119791D01*
X15109659Y36255159D01*
X15075742Y36282994D01*
X12891017Y38467718D01*
X12898813Y38470947D01*
X12909448Y38478053D01*
X15395989Y35991511D01*
G36*
X5892396Y39458716D02*
G01*
X5977602Y39373510D01*
X5977601Y36616504D01*
X5975266Y36592799D01*
X5977601Y36569094D01*
X5977601Y36569093D01*
X5984584Y36498194D01*
X6008910Y36418000D01*
X5897003Y36418000D01*
X5755775Y36389908D01*
X5622742Y36334804D01*
X5503015Y36254805D01*
X5401195Y36152985D01*
X5321196Y36033258D01*
X5266092Y35900225D01*
X5238000Y35758997D01*
X5238000Y35615003D01*
X5266092Y35473775D01*
X5321196Y35340742D01*
X5372914Y35263341D01*
X5337202Y35219825D01*
X5292388Y35135986D01*
X5264794Y35045016D01*
X5255475Y34950410D01*
X5257811Y34926695D01*
X5257810Y19971807D01*
X4882513Y19596509D01*
X4864100Y19581398D01*
X4848989Y19562985D01*
X4848987Y19562983D01*
X4803792Y19507912D01*
X4758978Y19424073D01*
X4731384Y19333103D01*
X4722065Y19238497D01*
X4724401Y19214782D01*
X4724400Y16660707D01*
X4722065Y16637000D01*
X4724400Y16613295D01*
X4724400Y16613294D01*
X4731383Y16542395D01*
X4758978Y16451424D01*
X4803791Y16367585D01*
X4864099Y16294099D01*
X4882518Y16278983D01*
X5365000Y15796500D01*
X5365000Y15676003D01*
X5393092Y15534775D01*
X5448196Y15401742D01*
X5528195Y15282015D01*
X5630015Y15180195D01*
X5749742Y15100196D01*
X5882775Y15045092D01*
X6024003Y15017000D01*
X6167997Y15017000D01*
X6309225Y15045092D01*
X6442258Y15100196D01*
X6561985Y15180195D01*
X6663805Y15282015D01*
X6743804Y15401742D01*
X6798908Y15534775D01*
X6827000Y15676003D01*
X6827000Y15819997D01*
X6798908Y15961225D01*
X6743804Y16094258D01*
X6663805Y16213985D01*
X6561985Y16315805D01*
X6442258Y16395804D01*
X6309225Y16450908D01*
X6167997Y16479000D01*
X6047500Y16479000D01*
X5689600Y16836899D01*
X5689600Y18405195D01*
X5755348Y18361264D01*
X5888381Y18306160D01*
X6029609Y18278068D01*
X6173603Y18278068D01*
X6314831Y18306160D01*
X6447864Y18361264D01*
X6567591Y18441263D01*
X6669411Y18543083D01*
X6749410Y18662810D01*
X6804514Y18795843D01*
X6832606Y18937071D01*
X6832606Y19081065D01*
X6804514Y19222293D01*
X6749410Y19355326D01*
X6669411Y19475053D01*
X6604021Y19540443D01*
X6604021Y22939480D01*
X7021533Y22521968D01*
X7021534Y13427179D01*
X6950258Y13474804D01*
X6817225Y13529908D01*
X6675997Y13558000D01*
X6532003Y13558000D01*
X6390775Y13529908D01*
X6257742Y13474804D01*
X6138015Y13394805D01*
X6036195Y13292985D01*
X5956196Y13173258D01*
X5901092Y13040225D01*
X5885055Y12959601D01*
X4613899Y12959601D01*
X4013140Y13560359D01*
X4013140Y28857641D01*
X4199573Y29044073D01*
X4217987Y29059185D01*
X4234790Y29079659D01*
X4273330Y29126621D01*
X4278295Y29132671D01*
X4323108Y29216509D01*
X4336061Y29259211D01*
X4350703Y29307479D01*
X4360021Y29402086D01*
X4357686Y29425793D01*
X4357686Y31788207D01*
X4360021Y31811914D01*
X4350703Y31906521D01*
X4323108Y31997491D01*
X4307300Y32027065D01*
X4278295Y32081329D01*
X4217987Y32154815D01*
X4199568Y32169931D01*
X4165600Y32203899D01*
X4165600Y37732124D01*
X4194491Y37761015D01*
X4274490Y37880742D01*
X4329594Y38013775D01*
X4357686Y38155003D01*
X4357686Y38298997D01*
X4329594Y38440225D01*
X4274490Y38573258D01*
X4194491Y38692985D01*
X4092671Y38794805D01*
X3972944Y38874804D01*
X3942636Y38887358D01*
X4929253Y38887358D01*
X4952958Y38885023D01*
X4976663Y38887358D01*
X4976665Y38887358D01*
X5047564Y38894341D01*
X5138535Y38921936D01*
X5222373Y38966749D01*
X5295859Y39027057D01*
X5310975Y39045476D01*
X5825032Y39559533D01*
X5892396Y39458716D01*
X5892396Y39458716D01*
G37*
X5892396Y39458716D02*
X5977602Y39373510D01*
X5977601Y36616504D01*
X5975266Y36592799D01*
X5977601Y36569094D01*
X5977601Y36569093D01*
X5984584Y36498194D01*
X6008910Y36418000D01*
X5897003Y36418000D01*
X5755775Y36389908D01*
X5622742Y36334804D01*
X5503015Y36254805D01*
X5401195Y36152985D01*
X5321196Y36033258D01*
X5266092Y35900225D01*
X5238000Y35758997D01*
X5238000Y35615003D01*
X5266092Y35473775D01*
X5321196Y35340742D01*
X5372914Y35263341D01*
X5337202Y35219825D01*
X5292388Y35135986D01*
X5264794Y35045016D01*
X5255475Y34950410D01*
X5257811Y34926695D01*
X5257810Y19971807D01*
X4882513Y19596509D01*
X4864100Y19581398D01*
X4848989Y19562985D01*
X4848987Y19562983D01*
X4803792Y19507912D01*
X4758978Y19424073D01*
X4731384Y19333103D01*
X4722065Y19238497D01*
X4724401Y19214782D01*
X4724400Y16660707D01*
X4722065Y16637000D01*
X4724400Y16613295D01*
X4724400Y16613294D01*
X4731383Y16542395D01*
X4758978Y16451424D01*
X4803791Y16367585D01*
X4864099Y16294099D01*
X4882518Y16278983D01*
X5365000Y15796500D01*
X5365000Y15676003D01*
X5393092Y15534775D01*
X5448196Y15401742D01*
X5528195Y15282015D01*
X5630015Y15180195D01*
X5749742Y15100196D01*
X5882775Y15045092D01*
X6024003Y15017000D01*
X6167997Y15017000D01*
X6309225Y15045092D01*
X6442258Y15100196D01*
X6561985Y15180195D01*
X6663805Y15282015D01*
X6743804Y15401742D01*
X6798908Y15534775D01*
X6827000Y15676003D01*
X6827000Y15819997D01*
X6798908Y15961225D01*
X6743804Y16094258D01*
X6663805Y16213985D01*
X6561985Y16315805D01*
X6442258Y16395804D01*
X6309225Y16450908D01*
X6167997Y16479000D01*
X6047500Y16479000D01*
X5689600Y16836899D01*
X5689600Y18405195D01*
X5755348Y18361264D01*
X5888381Y18306160D01*
X6029609Y18278068D01*
X6173603Y18278068D01*
X6314831Y18306160D01*
X6447864Y18361264D01*
X6567591Y18441263D01*
X6669411Y18543083D01*
X6749410Y18662810D01*
X6804514Y18795843D01*
X6832606Y18937071D01*
X6832606Y19081065D01*
X6804514Y19222293D01*
X6749410Y19355326D01*
X6669411Y19475053D01*
X6604021Y19540443D01*
X6604021Y22939480D01*
X7021533Y22521968D01*
X7021534Y13427179D01*
X6950258Y13474804D01*
X6817225Y13529908D01*
X6675997Y13558000D01*
X6532003Y13558000D01*
X6390775Y13529908D01*
X6257742Y13474804D01*
X6138015Y13394805D01*
X6036195Y13292985D01*
X5956196Y13173258D01*
X5901092Y13040225D01*
X5885055Y12959601D01*
X4613899Y12959601D01*
X4013140Y13560359D01*
X4013140Y28857641D01*
X4199573Y29044073D01*
X4217987Y29059185D01*
X4234790Y29079659D01*
X4273330Y29126621D01*
X4278295Y29132671D01*
X4323108Y29216509D01*
X4336061Y29259211D01*
X4350703Y29307479D01*
X4360021Y29402086D01*
X4357686Y29425793D01*
X4357686Y31788207D01*
X4360021Y31811914D01*
X4350703Y31906521D01*
X4323108Y31997491D01*
X4307300Y32027065D01*
X4278295Y32081329D01*
X4217987Y32154815D01*
X4199568Y32169931D01*
X4165600Y32203899D01*
X4165600Y37732124D01*
X4194491Y37761015D01*
X4274490Y37880742D01*
X4329594Y38013775D01*
X4357686Y38155003D01*
X4357686Y38298997D01*
X4329594Y38440225D01*
X4274490Y38573258D01*
X4194491Y38692985D01*
X4092671Y38794805D01*
X3972944Y38874804D01*
X3942636Y38887358D01*
X4929253Y38887358D01*
X4952958Y38885023D01*
X4976663Y38887358D01*
X4976665Y38887358D01*
X5047564Y38894341D01*
X5138535Y38921936D01*
X5222373Y38966749D01*
X5295859Y39027057D01*
X5310975Y39045476D01*
X5825032Y39559533D01*
X5892396Y39458716D01*
G36*
X7214649Y39560697D02*
G01*
X7382226Y39509864D01*
X7512833Y39497000D01*
X8394765Y39497000D01*
X8611501Y39280264D01*
X8639341Y39246341D01*
X8774709Y39135247D01*
X8929149Y39052697D01*
X8992790Y39033392D01*
X9096724Y39001864D01*
X9118099Y38999759D01*
X9095018Y38944037D01*
X9066926Y38802809D01*
X9066926Y38682311D01*
X8438518Y38053903D01*
X8420099Y38038787D01*
X8359791Y37965301D01*
X8314978Y37881462D01*
X8287383Y37790491D01*
X8281428Y37730027D01*
X8278065Y37695886D01*
X8280400Y37672181D01*
X8280401Y23817256D01*
X8228045Y23881052D01*
X8209631Y23896164D01*
X7902885Y24202910D01*
X7902885Y24323407D01*
X7874793Y24464635D01*
X7819689Y24597668D01*
X7739690Y24717395D01*
X7637870Y24819215D01*
X7518143Y24899214D01*
X7385110Y24954318D01*
X7243882Y24982410D01*
X7230209Y24982410D01*
X7235766Y25038831D01*
X7233431Y25062538D01*
X7233431Y31579810D01*
X7318636Y31665015D01*
X7398635Y31784742D01*
X7453739Y31917775D01*
X7481831Y32059003D01*
X7481831Y32202997D01*
X7453739Y32344225D01*
X7398635Y32477258D01*
X7318636Y32596985D01*
X7216816Y32698805D01*
X7097089Y32778804D01*
X6964056Y32833908D01*
X6822828Y32862000D01*
X6678834Y32862000D01*
X6604021Y32847119D01*
X6604021Y34115522D01*
X7055487Y34566987D01*
X7073901Y34582099D01*
X7134209Y34655585D01*
X7179022Y34739423D01*
X7182089Y34749535D01*
X7206617Y34830393D01*
X7215935Y34925000D01*
X7213600Y34948707D01*
X7213600Y36298293D01*
X7215935Y36322000D01*
X7206617Y36416607D01*
X7179022Y36507577D01*
X7146141Y36569092D01*
X7134209Y36591415D01*
X7073901Y36664901D01*
X7055482Y36680017D01*
X6942801Y36792698D01*
X6942801Y39373511D01*
X7028006Y39458716D01*
X7108005Y39578443D01*
X7121318Y39610584D01*
X7214649Y39560697D01*
X7214649Y39560697D01*
G37*
X7214649Y39560697D02*
X7382226Y39509864D01*
X7512833Y39497000D01*
X8394765Y39497000D01*
X8611501Y39280264D01*
X8639341Y39246341D01*
X8774709Y39135247D01*
X8929149Y39052697D01*
X8992790Y39033392D01*
X9096724Y39001864D01*
X9118099Y38999759D01*
X9095018Y38944037D01*
X9066926Y38802809D01*
X9066926Y38682311D01*
X8438518Y38053903D01*
X8420099Y38038787D01*
X8359791Y37965301D01*
X8314978Y37881462D01*
X8287383Y37790491D01*
X8281428Y37730027D01*
X8278065Y37695886D01*
X8280400Y37672181D01*
X8280401Y23817256D01*
X8228045Y23881052D01*
X8209631Y23896164D01*
X7902885Y24202910D01*
X7902885Y24323407D01*
X7874793Y24464635D01*
X7819689Y24597668D01*
X7739690Y24717395D01*
X7637870Y24819215D01*
X7518143Y24899214D01*
X7385110Y24954318D01*
X7243882Y24982410D01*
X7230209Y24982410D01*
X7235766Y25038831D01*
X7233431Y25062538D01*
X7233431Y31579810D01*
X7318636Y31665015D01*
X7398635Y31784742D01*
X7453739Y31917775D01*
X7481831Y32059003D01*
X7481831Y32202997D01*
X7453739Y32344225D01*
X7398635Y32477258D01*
X7318636Y32596985D01*
X7216816Y32698805D01*
X7097089Y32778804D01*
X6964056Y32833908D01*
X6822828Y32862000D01*
X6678834Y32862000D01*
X6604021Y32847119D01*
X6604021Y34115522D01*
X7055487Y34566987D01*
X7073901Y34582099D01*
X7134209Y34655585D01*
X7179022Y34739423D01*
X7182089Y34749535D01*
X7206617Y34830393D01*
X7215935Y34925000D01*
X7213600Y34948707D01*
X7213600Y36298293D01*
X7215935Y36322000D01*
X7206617Y36416607D01*
X7179022Y36507577D01*
X7146141Y36569092D01*
X7134209Y36591415D01*
X7073901Y36664901D01*
X7055482Y36680017D01*
X6942801Y36792698D01*
X6942801Y39373511D01*
X7028006Y39458716D01*
X7108005Y39578443D01*
X7121318Y39610584D01*
X7214649Y39560697D01*
G36*
X22885401Y29654027D02*
G01*
X22885401Y29638578D01*
X22878674Y29660754D01*
X22885401Y29654027D01*
X22885401Y29654027D01*
G37*
X22885401Y29654027D02*
X22885401Y29638578D01*
X22878674Y29660754D01*
X22885401Y29654027D01*
G36*
X39878000Y56107232D02*
G01*
X39795289Y56306912D01*
X39649409Y56525238D01*
X39463738Y56710909D01*
X39245412Y56856789D01*
X39002822Y56957274D01*
X38745289Y57008500D01*
X38482711Y57008500D01*
X38225178Y56957274D01*
X37982588Y56856789D01*
X37764262Y56710909D01*
X37578591Y56525238D01*
X37432711Y56306912D01*
X37344000Y56092747D01*
X37255289Y56306912D01*
X37109409Y56525238D01*
X36923738Y56710909D01*
X36705412Y56856789D01*
X36462822Y56957274D01*
X36205289Y57008500D01*
X35942711Y57008500D01*
X35685178Y56957274D01*
X35442588Y56856789D01*
X35224262Y56710909D01*
X35038591Y56525238D01*
X34892711Y56306912D01*
X34792226Y56064322D01*
X34741000Y55806789D01*
X34741000Y55544211D01*
X34792226Y55286678D01*
X34892711Y55044088D01*
X35038591Y54825762D01*
X35224262Y54640091D01*
X35442588Y54494211D01*
X35685178Y54393726D01*
X35942711Y54342500D01*
X36205289Y54342500D01*
X36462822Y54393726D01*
X36705412Y54494211D01*
X36923738Y54640091D01*
X37109409Y54825762D01*
X37255289Y55044088D01*
X37344000Y55258253D01*
X37432711Y55044088D01*
X37578591Y54825762D01*
X37598191Y54806162D01*
X37612703Y54658829D01*
X37670799Y54467313D01*
X37765141Y54290810D01*
X37892105Y54136104D01*
X38046811Y54009140D01*
X38223314Y53914798D01*
X38414830Y53856702D01*
X38614000Y53837085D01*
X38758572Y53851324D01*
X39878000Y52731897D01*
X39878000Y49862133D01*
X39760313Y49871127D01*
X39530207Y49843362D01*
X39587086Y49928487D01*
X39745991Y50312119D01*
X39827000Y50719380D01*
X39827000Y51134620D01*
X39745991Y51541881D01*
X39587086Y51925513D01*
X39356391Y52270772D01*
X39062772Y52564391D01*
X38717513Y52795086D01*
X38333881Y52953991D01*
X37926620Y53035000D01*
X37511380Y53035000D01*
X37104119Y52953991D01*
X36720487Y52795086D01*
X36375228Y52564391D01*
X36081609Y52270772D01*
X35850914Y51925513D01*
X35692009Y51541881D01*
X35611000Y51134620D01*
X35611000Y50719380D01*
X35692009Y50312119D01*
X35850914Y49928487D01*
X36081609Y49583228D01*
X36375228Y49289609D01*
X36720487Y49058914D01*
X37104119Y48900009D01*
X37511380Y48819000D01*
X37926620Y48819000D01*
X38107581Y48854995D01*
X38197330Y48765246D01*
X37944949Y48599757D01*
X37839667Y48223187D01*
X37809873Y47833313D01*
X37856713Y47445118D01*
X37944949Y47154243D01*
X38197330Y46988754D01*
X38034824Y46826248D01*
X38252072Y46609000D01*
X25755928Y46609000D01*
X25973176Y46826248D01*
X25810670Y46988754D01*
X26063051Y47154243D01*
X26168333Y47530813D01*
X26198127Y47920687D01*
X26151287Y48308882D01*
X26063051Y48599757D01*
X25810670Y48765246D01*
X25900419Y48854995D01*
X26081380Y48819000D01*
X26496620Y48819000D01*
X26903881Y48900009D01*
X27287513Y49058914D01*
X27632772Y49289609D01*
X27926391Y49583228D01*
X28157086Y49928487D01*
X28315991Y50312119D01*
X28397000Y50719380D01*
X28397000Y51134620D01*
X28315991Y51541881D01*
X28157086Y51925513D01*
X27926391Y52270772D01*
X27632772Y52564391D01*
X27287513Y52795086D01*
X26903881Y52953991D01*
X26496620Y53035000D01*
X26081380Y53035000D01*
X25674119Y52953991D01*
X25290487Y52795086D01*
X24945228Y52564391D01*
X24651609Y52270772D01*
X24420914Y51925513D01*
X24262009Y51541881D01*
X24181000Y51134620D01*
X24181000Y50719380D01*
X24262009Y50312119D01*
X24420914Y49928487D01*
X24475326Y49847054D01*
X24160313Y49871127D01*
X24130000Y49867469D01*
X24130000Y52223896D01*
X25249428Y53343324D01*
X25394000Y53329085D01*
X25593170Y53348702D01*
X25784686Y53406798D01*
X25961190Y53501140D01*
X26115896Y53628104D01*
X26242860Y53782810D01*
X26337202Y53959313D01*
X26395298Y54150829D01*
X26410000Y54300098D01*
X26410000Y54806353D01*
X26429409Y54825762D01*
X26575289Y55044088D01*
X26664000Y55258253D01*
X26752711Y55044088D01*
X26898591Y54825762D01*
X27084262Y54640091D01*
X27302588Y54494211D01*
X27545178Y54393726D01*
X27802711Y54342500D01*
X28065289Y54342500D01*
X28322822Y54393726D01*
X28565412Y54494211D01*
X28783738Y54640091D01*
X28969409Y54825762D01*
X29115289Y55044088D01*
X29215774Y55286678D01*
X29267000Y55544211D01*
X29267000Y55806789D01*
X29215774Y56064322D01*
X29115289Y56306912D01*
X28969409Y56525238D01*
X28783738Y56710909D01*
X28565412Y56856789D01*
X28322822Y56957274D01*
X28065289Y57008500D01*
X27802711Y57008500D01*
X27545178Y56957274D01*
X27302588Y56856789D01*
X27084262Y56710909D01*
X26898591Y56525238D01*
X26752711Y56306912D01*
X26664000Y56092747D01*
X26575289Y56306912D01*
X26429409Y56525238D01*
X26243738Y56710909D01*
X26025412Y56856789D01*
X25782822Y56957274D01*
X25525289Y57008500D01*
X25262711Y57008500D01*
X25005178Y56957274D01*
X24762588Y56856789D01*
X24544262Y56710909D01*
X24475353Y56642000D01*
X24130000Y56642000D01*
X24130000Y61595000D01*
X39878000Y61595000D01*
X39878000Y56107232D01*
X39878000Y56107232D01*
G37*
X39878000Y56107232D02*
X39795289Y56306912D01*
X39649409Y56525238D01*
X39463738Y56710909D01*
X39245412Y56856789D01*
X39002822Y56957274D01*
X38745289Y57008500D01*
X38482711Y57008500D01*
X38225178Y56957274D01*
X37982588Y56856789D01*
X37764262Y56710909D01*
X37578591Y56525238D01*
X37432711Y56306912D01*
X37344000Y56092747D01*
X37255289Y56306912D01*
X37109409Y56525238D01*
X36923738Y56710909D01*
X36705412Y56856789D01*
X36462822Y56957274D01*
X36205289Y57008500D01*
X35942711Y57008500D01*
X35685178Y56957274D01*
X35442588Y56856789D01*
X35224262Y56710909D01*
X35038591Y56525238D01*
X34892711Y56306912D01*
X34792226Y56064322D01*
X34741000Y55806789D01*
X34741000Y55544211D01*
X34792226Y55286678D01*
X34892711Y55044088D01*
X35038591Y54825762D01*
X35224262Y54640091D01*
X35442588Y54494211D01*
X35685178Y54393726D01*
X35942711Y54342500D01*
X36205289Y54342500D01*
X36462822Y54393726D01*
X36705412Y54494211D01*
X36923738Y54640091D01*
X37109409Y54825762D01*
X37255289Y55044088D01*
X37344000Y55258253D01*
X37432711Y55044088D01*
X37578591Y54825762D01*
X37598191Y54806162D01*
X37612703Y54658829D01*
X37670799Y54467313D01*
X37765141Y54290810D01*
X37892105Y54136104D01*
X38046811Y54009140D01*
X38223314Y53914798D01*
X38414830Y53856702D01*
X38614000Y53837085D01*
X38758572Y53851324D01*
X39878000Y52731897D01*
X39878000Y49862133D01*
X39760313Y49871127D01*
X39530207Y49843362D01*
X39587086Y49928487D01*
X39745991Y50312119D01*
X39827000Y50719380D01*
X39827000Y51134620D01*
X39745991Y51541881D01*
X39587086Y51925513D01*
X39356391Y52270772D01*
X39062772Y52564391D01*
X38717513Y52795086D01*
X38333881Y52953991D01*
X37926620Y53035000D01*
X37511380Y53035000D01*
X37104119Y52953991D01*
X36720487Y52795086D01*
X36375228Y52564391D01*
X36081609Y52270772D01*
X35850914Y51925513D01*
X35692009Y51541881D01*
X35611000Y51134620D01*
X35611000Y50719380D01*
X35692009Y50312119D01*
X35850914Y49928487D01*
X36081609Y49583228D01*
X36375228Y49289609D01*
X36720487Y49058914D01*
X37104119Y48900009D01*
X37511380Y48819000D01*
X37926620Y48819000D01*
X38107581Y48854995D01*
X38197330Y48765246D01*
X37944949Y48599757D01*
X37839667Y48223187D01*
X37809873Y47833313D01*
X37856713Y47445118D01*
X37944949Y47154243D01*
X38197330Y46988754D01*
X38034824Y46826248D01*
X38252072Y46609000D01*
X25755928Y46609000D01*
X25973176Y46826248D01*
X25810670Y46988754D01*
X26063051Y47154243D01*
X26168333Y47530813D01*
X26198127Y47920687D01*
X26151287Y48308882D01*
X26063051Y48599757D01*
X25810670Y48765246D01*
X25900419Y48854995D01*
X26081380Y48819000D01*
X26496620Y48819000D01*
X26903881Y48900009D01*
X27287513Y49058914D01*
X27632772Y49289609D01*
X27926391Y49583228D01*
X28157086Y49928487D01*
X28315991Y50312119D01*
X28397000Y50719380D01*
X28397000Y51134620D01*
X28315991Y51541881D01*
X28157086Y51925513D01*
X27926391Y52270772D01*
X27632772Y52564391D01*
X27287513Y52795086D01*
X26903881Y52953991D01*
X26496620Y53035000D01*
X26081380Y53035000D01*
X25674119Y52953991D01*
X25290487Y52795086D01*
X24945228Y52564391D01*
X24651609Y52270772D01*
X24420914Y51925513D01*
X24262009Y51541881D01*
X24181000Y51134620D01*
X24181000Y50719380D01*
X24262009Y50312119D01*
X24420914Y49928487D01*
X24475326Y49847054D01*
X24160313Y49871127D01*
X24130000Y49867469D01*
X24130000Y52223896D01*
X25249428Y53343324D01*
X25394000Y53329085D01*
X25593170Y53348702D01*
X25784686Y53406798D01*
X25961190Y53501140D01*
X26115896Y53628104D01*
X26242860Y53782810D01*
X26337202Y53959313D01*
X26395298Y54150829D01*
X26410000Y54300098D01*
X26410000Y54806353D01*
X26429409Y54825762D01*
X26575289Y55044088D01*
X26664000Y55258253D01*
X26752711Y55044088D01*
X26898591Y54825762D01*
X27084262Y54640091D01*
X27302588Y54494211D01*
X27545178Y54393726D01*
X27802711Y54342500D01*
X28065289Y54342500D01*
X28322822Y54393726D01*
X28565412Y54494211D01*
X28783738Y54640091D01*
X28969409Y54825762D01*
X29115289Y55044088D01*
X29215774Y55286678D01*
X29267000Y55544211D01*
X29267000Y55806789D01*
X29215774Y56064322D01*
X29115289Y56306912D01*
X28969409Y56525238D01*
X28783738Y56710909D01*
X28565412Y56856789D01*
X28322822Y56957274D01*
X28065289Y57008500D01*
X27802711Y57008500D01*
X27545178Y56957274D01*
X27302588Y56856789D01*
X27084262Y56710909D01*
X26898591Y56525238D01*
X26752711Y56306912D01*
X26664000Y56092747D01*
X26575289Y56306912D01*
X26429409Y56525238D01*
X26243738Y56710909D01*
X26025412Y56856789D01*
X25782822Y56957274D01*
X25525289Y57008500D01*
X25262711Y57008500D01*
X25005178Y56957274D01*
X24762588Y56856789D01*
X24544262Y56710909D01*
X24475353Y56642000D01*
X24130000Y56642000D01*
X24130000Y61595000D01*
X39878000Y61595000D01*
X39878000Y56107232D01*
G36*
X24936563Y47891142D02*
G01*
X24922420Y47877000D01*
X24936563Y47862858D01*
X24218142Y47144437D01*
X24204000Y47158580D01*
X24189858Y47144437D01*
X24130000Y47204295D01*
X24130000Y48549705D01*
X24189858Y48609562D01*
X24204000Y48595420D01*
X24218142Y48609563D01*
X24936563Y47891142D01*
X24936563Y47891142D01*
G37*
X24936563Y47891142D02*
X24922420Y47877000D01*
X24936563Y47862858D01*
X24218142Y47144437D01*
X24204000Y47158580D01*
X24189858Y47144437D01*
X24130000Y47204295D01*
X24130000Y48549705D01*
X24189858Y48609562D01*
X24204000Y48595420D01*
X24218142Y48609563D01*
X24936563Y47891142D01*
G36*
X39804000Y48595420D02*
G01*
X39818143Y48609562D01*
X39878000Y48549705D01*
X39878000Y47204295D01*
X39818143Y47144437D01*
X39804000Y47158580D01*
X39789858Y47144437D01*
X39071437Y47862858D01*
X39085580Y47877000D01*
X39071437Y47891142D01*
X39789858Y48609563D01*
X39804000Y48595420D01*
X39804000Y48595420D01*
G37*
X39804000Y48595420D02*
X39818143Y48609562D01*
X39878000Y48549705D01*
X39878000Y47204295D01*
X39818143Y47144437D01*
X39804000Y47158580D01*
X39789858Y47144437D01*
X39071437Y47862858D01*
X39085580Y47877000D01*
X39071437Y47891142D01*
X39789858Y48609563D01*
X39804000Y48595420D01*
M02*
