%TF.GenerationSoftware,KiCad,Pcbnew,5.1.0-rc2-unknown-036be7d~80~ubuntu16.04.1*%
%TF.CreationDate,2024-06-10T14:47:57+03:00*%
%TF.ProjectId,ESP32-GATEWAY_Rev_I,45535033-322d-4474-9154-455741595f52,I*%
%TF.SameCoordinates,PX425f360PY7b4bf70*%
%TF.FileFunction,Paste,Top*%
%TF.FilePolarity,Positive*%
%FSLAX46Y46*%
G04 Gerber Fmt 4.6, Leading zero omitted, Abs format (unit mm)*
G04 Created by KiCad (PCBNEW 5.1.0-rc2-unknown-036be7d~80~ubuntu16.04.1) date 2024-06-10 14:47:57*
%MOMM*%
%LPD*%
G04 APERTURE LIST*
%ADD10R,0.600000X1.000000*%
%ADD11R,1.000000X0.600000*%
%ADD12R,1.000000X1.000000*%
%ADD13R,0.230000X0.780000*%
%ADD14R,0.780000X0.230000*%
%ADD15R,1.130000X0.230000*%
%ADD16R,1.130000X0.280000*%
%ADD17R,1.400000X1.000000*%
%ADD18R,1.016000X1.016000*%
%ADD19R,0.980000X0.230000*%
%ADD20R,1.901600X0.901600*%
%ADD21R,0.901600X1.901600*%
%ADD22R,1.200000X1.800000*%
%ADD23R,1.500000X3.100000*%
%ADD24R,1.500000X0.800000*%
%ADD25R,1.524000X1.270000*%
%ADD26R,1.000000X1.400000*%
%ADD27R,1.778000X2.286000*%
%ADD28R,0.800000X0.800000*%
%ADD29R,1.270000X1.524000*%
%ADD30R,2.000000X1.700000*%
%ADD31R,1.778000X1.016000*%
%ADD32R,3.000000X1.600000*%
%ADD33R,0.381000X1.016000*%
%ADD34R,0.635000X1.016000*%
%ADD35R,1.778000X1.270000*%
%ADD36R,0.550000X0.500000*%
%ADD37C,1.000000*%
%ADD38R,0.500000X0.550000*%
%ADD39R,0.230000X0.750000*%
G04 APERTURE END LIST*
D10*
X30353000Y30042000D03*
D11*
X31553000Y31242000D03*
X29153000Y31242000D03*
D12*
X29153000Y32442000D03*
X29153000Y30042000D03*
X31553000Y30042000D03*
X31553000Y32442000D03*
D10*
X30353000Y32442000D03*
D13*
X28603000Y33692000D03*
X29103000Y33692000D03*
X29603000Y33692000D03*
X30103000Y33692000D03*
X30603000Y33692000D03*
X31103000Y33692000D03*
X31603000Y33692000D03*
X32103000Y33692000D03*
D14*
X32803000Y32992000D03*
X32803000Y32492000D03*
X32803000Y31992000D03*
X32803000Y31492000D03*
X32803000Y30992000D03*
X32803000Y30492000D03*
X32803000Y29992000D03*
X32803000Y29492000D03*
D13*
X32103000Y28792000D03*
X31603000Y28792000D03*
X31103000Y28792000D03*
X30603000Y28792000D03*
X30103000Y28792000D03*
X29603000Y28792000D03*
X29103000Y28792000D03*
X28603000Y28792000D03*
D14*
X27903000Y29492000D03*
X27903000Y29992000D03*
X27903000Y30492000D03*
X27903000Y30992000D03*
X27903000Y31492000D03*
X27903000Y31992000D03*
X27903000Y32492000D03*
X27903000Y32992000D03*
D15*
X42423000Y32286000D03*
X42423000Y32786000D03*
X42423000Y33286000D03*
X42423000Y35786000D03*
X42423000Y34286000D03*
X42423000Y35286000D03*
X42423000Y34786000D03*
X42423000Y33786000D03*
D16*
X42423000Y31761000D03*
X42423000Y36311000D03*
X42423000Y31511000D03*
X42423000Y36561000D03*
X42423000Y30961000D03*
X42423000Y37111000D03*
X42423000Y30711000D03*
X42423000Y37361000D03*
D17*
X40005000Y8631000D03*
X40005000Y4831000D03*
D18*
X42799000Y11811000D03*
X44577000Y11811000D03*
X35052000Y6858000D03*
X35052000Y8636000D03*
D19*
X29858000Y12430000D03*
X29858000Y11930000D03*
X29858000Y11430000D03*
X29858000Y10930000D03*
X29858000Y10430000D03*
X34658000Y10430000D03*
X34658000Y10930000D03*
X34658000Y11430000D03*
X34658000Y11930000D03*
X34658000Y12430000D03*
D20*
X19014000Y54713000D03*
X19014000Y53443000D03*
X19014000Y52173000D03*
X19014000Y50903000D03*
X19014000Y49633000D03*
X19014000Y48363000D03*
X19014000Y47093000D03*
X19014000Y45823000D03*
X19014000Y44553000D03*
X19014000Y43283000D03*
X19014000Y42013000D03*
X19014000Y40743000D03*
X19014000Y39473000D03*
X19014000Y38203000D03*
D21*
X16144000Y37103000D03*
X14874000Y37103000D03*
X13604000Y37103000D03*
X12334000Y37103000D03*
X11064000Y37103000D03*
X9794000Y37103000D03*
X8524000Y37103000D03*
X7254000Y37103000D03*
X5984000Y37103000D03*
X4714000Y37103000D03*
D20*
X1814000Y38203000D03*
X1814000Y39473000D03*
X1814000Y40743000D03*
X1814000Y42013000D03*
X1814000Y43283000D03*
X1814000Y44553000D03*
X1814000Y45823000D03*
X1814000Y47093000D03*
X1814000Y48363000D03*
X1814000Y49633000D03*
X1814000Y50903000D03*
X1814000Y52173000D03*
X1814000Y53443000D03*
X1814000Y54713000D03*
D22*
X8514000Y48703000D03*
X8514000Y45703000D03*
X10314000Y48703000D03*
X10314000Y45703000D03*
D18*
X16129000Y12827000D03*
X17907000Y12827000D03*
D23*
X11981000Y15011000D03*
X11981000Y21071000D03*
D24*
X2731000Y22011000D03*
X2731000Y20911000D03*
X2731000Y19811000D03*
X2731000Y18711000D03*
X2731000Y17611000D03*
X2731000Y16511000D03*
X2731000Y15411000D03*
X2731000Y14311000D03*
D18*
X19304000Y31750000D03*
X21082000Y31750000D03*
D25*
X15494000Y27305000D03*
X17526000Y27305000D03*
D18*
X21081999Y30226000D03*
X19303999Y30226000D03*
D17*
X17688560Y35112960D03*
X17688560Y33210500D03*
X19898360Y34165540D03*
D18*
X21081999Y28702000D03*
X19303999Y28702000D03*
D26*
X21015960Y26888440D03*
X19113500Y26888440D03*
X20068540Y24678640D03*
D27*
X44051000Y19304000D03*
X48405000Y19304000D03*
D18*
X16002000Y24638000D03*
X17780000Y24638000D03*
X10541000Y9398000D03*
X12319000Y9398000D03*
X49149000Y46609000D03*
X47371000Y46609000D03*
D28*
X49022000Y48387000D03*
X47498000Y48387000D03*
D18*
X16764000Y9525000D03*
X18542000Y9525000D03*
D29*
X46355000Y14351000D03*
X48387000Y14351000D03*
X46355000Y16383000D03*
X48387000Y16383000D03*
D18*
X44577000Y15621000D03*
X44577000Y13843000D03*
X47371000Y42164000D03*
X49149000Y42164000D03*
X13589000Y30480000D03*
X11811000Y30480000D03*
X11811000Y32004000D03*
X13589000Y32004000D03*
X24384000Y10541000D03*
X26162000Y10541000D03*
X43307000Y25400000D03*
X45085000Y25400000D03*
D30*
X48474000Y22606000D03*
X43474000Y22606000D03*
D18*
X38481000Y13716000D03*
X36703000Y13716000D03*
X38481000Y10541000D03*
X36703000Y10541000D03*
D31*
X22479000Y53467000D03*
X22479000Y49911000D03*
X22479000Y42291000D03*
X22479000Y45847000D03*
D18*
X15748000Y18415000D03*
X17526000Y18415000D03*
X24384000Y12700000D03*
X26162000Y12700000D03*
X41148000Y10414000D03*
X41148000Y12192000D03*
X37211000Y29083000D03*
X35433000Y29083000D03*
X42037000Y51435000D03*
X42037000Y53213000D03*
X22098000Y57785000D03*
X22098000Y56007000D03*
X11811000Y28702000D03*
X13589000Y28702000D03*
X11811000Y25400000D03*
X13589000Y25400000D03*
X13589000Y33528000D03*
X11811000Y33528000D03*
D28*
X49022000Y43942000D03*
X47498000Y43942000D03*
D18*
X35433000Y30607000D03*
X37211000Y30607000D03*
X23114000Y30988000D03*
X24892000Y30988000D03*
X23114000Y29464000D03*
X24892000Y29464000D03*
X24130000Y34417000D03*
X25908000Y34417000D03*
X35814000Y35052000D03*
X34036000Y35052000D03*
X28194000Y24384000D03*
X28194000Y26162000D03*
X39878000Y24511000D03*
X39878000Y26289000D03*
X36830000Y36703000D03*
X36830000Y38481000D03*
D29*
X17653000Y16637000D03*
X15621000Y16637000D03*
D18*
X34544000Y26162000D03*
X34544000Y24384000D03*
X36068000Y26162000D03*
X36068000Y24384000D03*
D25*
X43942000Y8890000D03*
X43942000Y6858000D03*
X17653000Y14732000D03*
X15621000Y14732000D03*
D17*
X22316440Y8575040D03*
X22316440Y10477500D03*
X20106640Y9522460D03*
X22443440Y12131040D03*
X22443440Y14033500D03*
X20233640Y13078460D03*
D32*
X46863000Y6293000D03*
X46863000Y8693000D03*
D26*
X46802040Y25181560D03*
X48704500Y25181560D03*
X47749460Y27391360D03*
D29*
X37973000Y24638000D03*
X37973000Y26670000D03*
D33*
X30988000Y26035000D03*
X31750000Y26035000D03*
X30988000Y24511000D03*
X31750000Y24511000D03*
D34*
X30099000Y26035000D03*
X30099000Y24511000D03*
X32639000Y26035000D03*
X32639000Y24511000D03*
D33*
X25400000Y24511000D03*
X24638000Y24511000D03*
X25400000Y26035000D03*
X24638000Y26035000D03*
D34*
X26289000Y24511000D03*
X26289000Y26035000D03*
X23749000Y24511000D03*
X23749000Y26035000D03*
D35*
X1651000Y26289000D03*
X9525000Y26289000D03*
X1651000Y32131000D03*
X9525000Y32131000D03*
D18*
X17780000Y21336000D03*
X16002000Y21336000D03*
X10541000Y10922000D03*
X12319000Y10922000D03*
X7366000Y10922000D03*
X9144000Y10922000D03*
X7366000Y9398000D03*
X9144000Y9398000D03*
X16002000Y23114000D03*
X17780000Y23114000D03*
D17*
X17737000Y29718000D03*
X15537000Y28768000D03*
X15537000Y30668000D03*
X37465000Y4704000D03*
X37465000Y8504000D03*
D18*
X35179000Y38481000D03*
X35179000Y36703000D03*
X17653000Y11176000D03*
X19431000Y11176000D03*
X21209000Y39116000D03*
X22987000Y39116000D03*
D17*
X14478000Y11933000D03*
X14478000Y8133000D03*
D36*
X28448000Y38354000D03*
X28448000Y37338000D03*
X26797000Y37338000D03*
X26797000Y38354000D03*
X32258000Y38354000D03*
X32258000Y37338000D03*
X30607000Y37338000D03*
X30607000Y38354000D03*
D37*
X42672000Y60579000D03*
X49276000Y4191000D03*
D38*
X26162000Y36195000D03*
X27178000Y36195000D03*
X32893000Y36195000D03*
X31877000Y36195000D03*
X29972000Y36195000D03*
X30988000Y36195000D03*
X29083000Y36195000D03*
X28067000Y36195000D03*
X21209000Y37592000D03*
X22225000Y37592000D03*
X25273000Y36195000D03*
X24257000Y36195000D03*
D39*
X46871000Y10655000D03*
X47371000Y10655000D03*
X47871000Y10655000D03*
X46871000Y12205000D03*
X47371000Y12205000D03*
X47871000Y12205000D03*
D38*
X43053000Y40767000D03*
X44069000Y40767000D03*
X44069000Y42164000D03*
X43053000Y42164000D03*
X31115000Y8636000D03*
X32131000Y8636000D03*
M02*
