%TF.GenerationSoftware,KiCad,Pcbnew,5.1.0-rc2-unknown-036be7d~80~ubuntu16.04.1*%
%TF.CreationDate,2024-06-10T14:47:57+03:00*%
%TF.ProjectId,ESP32-GATEWAY_Rev_I,45535033-322d-4474-9154-455741595f52,I*%
%TF.SameCoordinates,PX425f360PY7b4bf70*%
%TF.FileFunction,Legend,Top*%
%TF.FilePolarity,Positive*%
%FSLAX46Y46*%
G04 Gerber Fmt 4.6, Leading zero omitted, Abs format (unit mm)*
G04 Created by KiCad (PCBNEW 5.1.0-rc2-unknown-036be7d~80~ubuntu16.04.1) date 2024-06-10 14:47:57*
%MOMM*%
%LPD*%
G04 APERTURE LIST*
%ADD10C,0.381000*%
%ADD11C,0.254000*%
%ADD12C,0.200000*%
%ADD13C,0.400000*%
%ADD14C,0.700000*%
%ADD15C,0.500000*%
%ADD16C,0.100000*%
%ADD17C,0.127000*%
%ADD18C,0.050000*%
%ADD19C,0.190500*%
%ADD20C,0.317500*%
G04 APERTURE END LIST*
D10*
X21662571Y20936858D02*
X22170571Y20936858D01*
X22388285Y20138572D02*
X21662571Y20138572D01*
X21662571Y21662572D01*
X22388285Y21662572D01*
X22968857Y20211143D02*
X23186571Y20138572D01*
X23549428Y20138572D01*
X23694571Y20211143D01*
X23767142Y20283715D01*
X23839714Y20428858D01*
X23839714Y20574000D01*
X23767142Y20719143D01*
X23694571Y20791715D01*
X23549428Y20864286D01*
X23259142Y20936858D01*
X23114000Y21009429D01*
X23041428Y21082000D01*
X22968857Y21227143D01*
X22968857Y21372286D01*
X23041428Y21517429D01*
X23114000Y21590000D01*
X23259142Y21662572D01*
X23622000Y21662572D01*
X23839714Y21590000D01*
X24492857Y20138572D02*
X24492857Y21662572D01*
X25073428Y21662572D01*
X25218571Y21590000D01*
X25291142Y21517429D01*
X25363714Y21372286D01*
X25363714Y21154572D01*
X25291142Y21009429D01*
X25218571Y20936858D01*
X25073428Y20864286D01*
X24492857Y20864286D01*
X25871714Y21662572D02*
X26815142Y21662572D01*
X26307142Y21082000D01*
X26524857Y21082000D01*
X26670000Y21009429D01*
X26742571Y20936858D01*
X26815142Y20791715D01*
X26815142Y20428858D01*
X26742571Y20283715D01*
X26670000Y20211143D01*
X26524857Y20138572D01*
X26089428Y20138572D01*
X25944285Y20211143D01*
X25871714Y20283715D01*
X27395714Y21517429D02*
X27468285Y21590000D01*
X27613428Y21662572D01*
X27976285Y21662572D01*
X28121428Y21590000D01*
X28194000Y21517429D01*
X28266571Y21372286D01*
X28266571Y21227143D01*
X28194000Y21009429D01*
X27323142Y20138572D01*
X28266571Y20138572D01*
X28919714Y20719143D02*
X30080857Y20719143D01*
X31604857Y21590000D02*
X31459714Y21662572D01*
X31242000Y21662572D01*
X31024285Y21590000D01*
X30879142Y21444858D01*
X30806571Y21299715D01*
X30734000Y21009429D01*
X30734000Y20791715D01*
X30806571Y20501429D01*
X30879142Y20356286D01*
X31024285Y20211143D01*
X31242000Y20138572D01*
X31387142Y20138572D01*
X31604857Y20211143D01*
X31677428Y20283715D01*
X31677428Y20791715D01*
X31387142Y20791715D01*
X32258000Y20574000D02*
X32983714Y20574000D01*
X32112857Y20138572D02*
X32620857Y21662572D01*
X33128857Y20138572D01*
X33419142Y21662572D02*
X34290000Y21662572D01*
X33854571Y20138572D02*
X33854571Y21662572D01*
X34798000Y20936858D02*
X35306000Y20936858D01*
X35523714Y20138572D02*
X34798000Y20138572D01*
X34798000Y21662572D01*
X35523714Y21662572D01*
X36031714Y21662572D02*
X36394571Y20138572D01*
X36684857Y21227143D01*
X36975142Y20138572D01*
X37338000Y21662572D01*
X37846000Y20574000D02*
X38571714Y20574000D01*
X37700857Y20138572D02*
X38208857Y21662572D01*
X38716857Y20138572D01*
X39515142Y20864286D02*
X39515142Y20138572D01*
X39007142Y21662572D02*
X39515142Y20864286D01*
X40023142Y21662572D01*
D11*
X1560285Y3096381D02*
X979714Y3096381D01*
X1270000Y3096381D02*
X1270000Y4112381D01*
X1173238Y3967239D01*
X1076476Y3870477D01*
X979714Y3822096D01*
X13105190Y4366381D02*
X12766523Y4850191D01*
X12524619Y4366381D02*
X12524619Y5382381D01*
X12911666Y5382381D01*
X13008428Y5334000D01*
X13056809Y5285620D01*
X13105190Y5188858D01*
X13105190Y5043715D01*
X13056809Y4946953D01*
X13008428Y4898572D01*
X12911666Y4850191D01*
X12524619Y4850191D01*
X13927666Y4414762D02*
X13830904Y4366381D01*
X13637380Y4366381D01*
X13540619Y4414762D01*
X13492238Y4511524D01*
X13492238Y4898572D01*
X13540619Y4995334D01*
X13637380Y5043715D01*
X13830904Y5043715D01*
X13927666Y4995334D01*
X13976047Y4898572D01*
X13976047Y4801810D01*
X13492238Y4705048D01*
X14314714Y5043715D02*
X14556619Y4366381D01*
X14798523Y5043715D01*
X15185571Y4463143D02*
X15233952Y4414762D01*
X15185571Y4366381D01*
X15137190Y4414762D01*
X15185571Y4463143D01*
X15185571Y4366381D01*
X15669380Y4366381D02*
X15669380Y5382381D01*
X28647571Y3979334D02*
X28599190Y4027715D01*
X28502428Y4172858D01*
X28454047Y4269620D01*
X28405666Y4414762D01*
X28357285Y4656667D01*
X28357285Y4850191D01*
X28405666Y5092096D01*
X28454047Y5237239D01*
X28502428Y5334000D01*
X28599190Y5479143D01*
X28647571Y5527524D01*
X29615190Y4463143D02*
X29566809Y4414762D01*
X29421666Y4366381D01*
X29324904Y4366381D01*
X29179761Y4414762D01*
X29083000Y4511524D01*
X29034619Y4608286D01*
X28986238Y4801810D01*
X28986238Y4946953D01*
X29034619Y5140477D01*
X29083000Y5237239D01*
X29179761Y5334000D01*
X29324904Y5382381D01*
X29421666Y5382381D01*
X29566809Y5334000D01*
X29615190Y5285620D01*
X29953857Y3979334D02*
X30002238Y4027715D01*
X30099000Y4172858D01*
X30147380Y4269620D01*
X30195761Y4414762D01*
X30244142Y4656667D01*
X30244142Y4850191D01*
X30195761Y5092096D01*
X30147380Y5237239D01*
X30099000Y5334000D01*
X30002238Y5479143D01*
X29953857Y5527524D01*
X31453666Y5285620D02*
X31502047Y5334000D01*
X31598809Y5382381D01*
X31840714Y5382381D01*
X31937476Y5334000D01*
X31985857Y5285620D01*
X32034238Y5188858D01*
X32034238Y5092096D01*
X31985857Y4946953D01*
X31405285Y4366381D01*
X32034238Y4366381D01*
X32663190Y5382381D02*
X32759952Y5382381D01*
X32856714Y5334000D01*
X32905095Y5285620D01*
X32953476Y5188858D01*
X33001857Y4995334D01*
X33001857Y4753429D01*
X32953476Y4559905D01*
X32905095Y4463143D01*
X32856714Y4414762D01*
X32759952Y4366381D01*
X32663190Y4366381D01*
X32566428Y4414762D01*
X32518047Y4463143D01*
X32469666Y4559905D01*
X32421285Y4753429D01*
X32421285Y4995334D01*
X32469666Y5188858D01*
X32518047Y5285620D01*
X32566428Y5334000D01*
X32663190Y5382381D01*
X33388904Y5285620D02*
X33437285Y5334000D01*
X33534047Y5382381D01*
X33775952Y5382381D01*
X33872714Y5334000D01*
X33921095Y5285620D01*
X33969476Y5188858D01*
X33969476Y5092096D01*
X33921095Y4946953D01*
X33340523Y4366381D01*
X33969476Y4366381D01*
X34840333Y5043715D02*
X34840333Y4366381D01*
X34598428Y5430762D02*
X34356523Y4705048D01*
X34985476Y4705048D01*
D12*
X27630873Y34140140D02*
G75*
G03X27630873Y34140140I-176013J0D01*
G01*
D11*
X28254960Y33741360D02*
X28028900Y33741360D01*
X32852360Y33741360D02*
X32451040Y33741360D01*
X32852360Y33340040D02*
X32852360Y33741360D01*
X32852360Y28742640D02*
X32852360Y29143960D01*
X32451040Y28742640D02*
X32852360Y28742640D01*
X27853640Y28742640D02*
X28254960Y28742640D01*
X27853640Y29143960D02*
X27853640Y28742640D01*
X27853640Y33566100D02*
X27853640Y33340040D01*
X28028900Y33741360D02*
X27853640Y33566100D01*
X44805000Y29566000D02*
X46105000Y29566000D01*
X44805000Y38506000D02*
X46105000Y38506000D01*
X50673000Y29566000D02*
X50673000Y38506000D01*
X50673000Y38506000D02*
X48805000Y38506000D01*
X48805000Y29566000D02*
X50673000Y29566000D01*
X40132000Y6477000D02*
X39751000Y6477000D01*
X40259000Y6604000D02*
X39624000Y6604000D01*
X40386000Y6731000D02*
X39624000Y6731000D01*
X40386000Y6858000D02*
X39497000Y6858000D01*
X39497000Y6985000D02*
X40640000Y6985000D01*
X40640000Y7112000D02*
X39370000Y7112000D01*
X39243000Y7239000D02*
X40767000Y7239000D01*
X40944800Y6019800D02*
X40944800Y5842000D01*
X39039800Y6019800D02*
X39039800Y5842000D01*
X40944800Y5842000D02*
X39039800Y5842000D01*
X40944800Y7391400D02*
X39039800Y7391400D01*
X40944800Y6019800D02*
X39039800Y6019800D01*
X40030400Y6019800D02*
X39039800Y7391400D01*
X40944800Y7391400D02*
X40030400Y6019800D01*
X39992300Y7975600D02*
X39992300Y5499100D01*
X44196000Y11049000D02*
X43180000Y11049000D01*
X44196000Y12573000D02*
X43180000Y12573000D01*
X35814000Y8255000D02*
X35814000Y7239000D01*
X34290000Y8255000D02*
X34290000Y7239000D01*
X33758000Y12930000D02*
X30758000Y12930000D01*
X33758000Y9930000D02*
X33758000Y12930000D01*
X30758000Y9930000D02*
X33758000Y9930000D01*
X31898512Y12230000D02*
G75*
G03X31898512Y12230000I-390512J0D01*
G01*
X30758000Y9930000D02*
X30758000Y12930000D01*
X17564000Y36653000D02*
X16964000Y36653000D01*
X3264000Y36653000D02*
X3914000Y36653000D01*
X1414000Y62153000D02*
X1414000Y55533000D01*
X19414000Y36653000D02*
X19414000Y37403000D01*
X19414000Y36653000D02*
X16964000Y36653000D01*
X1414000Y36653000D02*
X3914000Y36653000D01*
X1414000Y36653000D02*
X1414000Y37403000D01*
X19414000Y62153000D02*
X19414000Y55533000D01*
X1414000Y56153000D02*
X19414000Y56153000D01*
X1414000Y62153000D02*
X19414000Y62153000D01*
X17526000Y12065000D02*
X16510000Y12065000D01*
X17526000Y13589000D02*
X16510000Y13589000D01*
X7688580Y12433300D02*
X5981700Y11341100D01*
X1013460Y23258780D02*
X1013460Y11772900D01*
X1442720Y23700740D02*
X12379960Y23700740D01*
X1442720Y11341100D02*
X5961380Y11341100D01*
X12809220Y13162280D02*
X12809220Y12862560D01*
X12809220Y19260820D02*
X12809220Y16812260D01*
X12809220Y23268940D02*
X12809220Y22799040D01*
X12379960Y12433300D02*
X7688580Y12433300D01*
D13*
X24226147Y17399000D02*
G75*
G03X24226147Y17399000I-337447J0D01*
G01*
D14*
X23876000Y18173700D02*
X24384000Y18681700D01*
X25476200Y18757900D02*
X26111200Y18148300D01*
X26085800Y16192500D02*
X25527000Y15608300D01*
X27711400Y15595600D02*
X27254200Y16052800D01*
X28697200Y15595600D02*
X27711400Y15595600D01*
D13*
X29576324Y15621000D02*
G75*
G03X29576324Y15621000I-366324J0D01*
G01*
D14*
X29210000Y18313400D02*
X29210000Y16713200D01*
D13*
X29596218Y18846800D02*
G75*
G03X29596218Y18846800I-373518J0D01*
G01*
X30801559Y15646400D02*
G75*
G03X30801559Y15646400I-359659J0D01*
G01*
D14*
X30429200Y16154400D02*
X30429200Y18745200D01*
X30429200Y18745200D02*
X31267400Y18745200D01*
X31267400Y18745200D02*
X31877000Y18237200D01*
X31978600Y17449800D02*
X31978600Y18161000D01*
X32054800Y18237200D02*
X32689800Y18745200D01*
D13*
X32349518Y16916400D02*
G75*
G03X32349518Y16916400I-370918J0D01*
G01*
D14*
X32689800Y18745200D02*
X33578800Y18745200D01*
D13*
X33954729Y15633700D02*
G75*
G03X33954729Y15633700I-363229J0D01*
G01*
X39750266Y15544800D02*
G75*
G03X39750266Y15544800I-329466J0D01*
G01*
D14*
X39090600Y15900400D02*
X38252400Y16713200D01*
D15*
X37744400Y16814800D02*
X38277800Y16814800D01*
D14*
X36601400Y15595600D02*
X37744400Y16713200D01*
X35280600Y15595600D02*
X36601400Y15595600D01*
X34848800Y16027400D02*
X35280600Y15595600D01*
X34848800Y18262600D02*
X34848800Y16027400D01*
X34848800Y18288000D02*
X35331400Y18796000D01*
X35379500Y18770600D02*
X36601400Y18770600D01*
X36601400Y18770600D02*
X37693600Y17703800D01*
D15*
X37719000Y17589500D02*
X38277800Y17589500D01*
D14*
X39141400Y18580100D02*
X38277800Y17686400D01*
D13*
X39869135Y18935700D02*
G75*
G03X39869135Y18935700I-359435J0D01*
G01*
D14*
X36068000Y17195800D02*
X34848800Y17195800D01*
D13*
X36935659Y17195800D02*
G75*
G03X36935659Y17195800I-359659J0D01*
G01*
D14*
X24447500Y15582900D02*
X25488900Y15582900D01*
X23888700Y16141700D02*
X23888700Y16903700D01*
X23876000Y16154400D02*
X24460200Y15582900D01*
X23876000Y18122900D02*
X23876000Y17881600D01*
X26098500Y18161000D02*
X26098500Y16230600D01*
X25476200Y18770600D02*
X24472900Y18770600D01*
X33591500Y18757900D02*
X33591500Y16154400D01*
X27254200Y16040100D02*
X27254200Y18770600D01*
D16*
X27254200Y19113500D02*
X26974800Y19113500D01*
X26949400Y19113500D02*
X26949400Y15963900D01*
X26962100Y19113500D02*
X26949400Y19113500D01*
X26974800Y19113500D02*
X26962100Y19113500D01*
X27089100Y19024600D02*
X27025600Y19037300D01*
X27571700Y19113500D02*
X27571700Y16078200D01*
X27266900Y19113500D02*
X27571700Y19113500D01*
X27393900Y19037300D02*
X27508200Y19037300D01*
X28892500Y18427700D02*
X28892500Y16408400D01*
X29527500Y16408400D02*
X29527500Y18427700D01*
X29502100Y16408400D02*
X29527500Y16408400D01*
X28892500Y16408400D02*
X29502100Y16408400D01*
X29032200Y16471900D02*
X28968700Y16471900D01*
X29375100Y16471900D02*
X29464000Y16471900D01*
X30111700Y16065500D02*
X30111700Y19050000D01*
X31356300Y19062700D02*
X31940500Y18580100D01*
X30111700Y19062700D02*
X31356300Y19062700D01*
X30264100Y18999200D02*
X30187900Y18999200D01*
X33921700Y16040100D02*
X33921700Y19050000D01*
X32600900Y19062700D02*
X31978600Y18567400D01*
X32626300Y19062700D02*
X32600900Y19062700D01*
X33921700Y19062700D02*
X32626300Y19062700D01*
X33921700Y19050000D02*
X33921700Y19062700D01*
X33769300Y18986500D02*
X33870900Y18986500D01*
X36715700Y19100800D02*
X37973000Y17856200D01*
X36664900Y19100800D02*
X36715700Y19100800D01*
X35293300Y19100800D02*
X36664900Y19100800D01*
D11*
X20701000Y30988000D02*
X19685000Y30988000D01*
X20701000Y32512000D02*
X19685000Y32512000D01*
D17*
X16078200Y28194000D02*
X16916400Y28194000D01*
X16078200Y26416000D02*
X16916400Y26416000D01*
D11*
X19684999Y30988000D02*
X20700999Y30988000D01*
X19684999Y29464000D02*
X20700999Y29464000D01*
X19431000Y32740600D02*
X19431000Y33451800D01*
X18592800Y32740600D02*
X19431000Y32740600D01*
X18592800Y35585400D02*
X19431000Y35585400D01*
X19431000Y34874200D02*
X19431000Y35585400D01*
X19684999Y29464000D02*
X20700999Y29464000D01*
X19684999Y27940000D02*
X20700999Y27940000D01*
X18643600Y25146000D02*
X19354800Y25146000D01*
X18643600Y25984200D02*
X18643600Y25146000D01*
X21488400Y25984200D02*
X21488400Y25146000D01*
X20777200Y25146000D02*
X21488400Y25146000D01*
D13*
X47178000Y17829000D02*
X47178000Y20829000D01*
D11*
X48727360Y17701260D02*
X43728640Y17701260D01*
X43728640Y20906740D02*
X48727360Y20906740D01*
X45593000Y19939000D02*
X45593000Y18669000D01*
X45593000Y18669000D02*
X46609000Y19304000D01*
X45593000Y19939000D02*
X46609000Y19304000D01*
X46609000Y19939000D02*
X46609000Y18669000D01*
X17399000Y23876000D02*
X16383000Y23876000D01*
X17399000Y25400000D02*
X16383000Y25400000D01*
X11938000Y8636000D02*
X10922000Y8636000D01*
X11938000Y10160000D02*
X10922000Y10160000D01*
X47752000Y47371000D02*
X48768000Y47371000D01*
X47752000Y45847000D02*
X48768000Y45847000D01*
D17*
X49657000Y47802800D02*
X48641000Y47802800D01*
X48641000Y49022000D02*
X49657000Y49022000D01*
D16*
X48000000Y48387000D02*
X48520000Y48387000D01*
X48170000Y48497000D02*
X48170000Y48277000D01*
X48170000Y48497000D02*
X48280000Y48397000D01*
X48170000Y48277000D02*
X48270000Y48377000D01*
X48360000Y48497000D02*
X48360000Y48277000D01*
D18*
X48437800Y48141400D02*
X48307800Y48031400D01*
X48306200Y48032400D02*
X48386200Y48042400D01*
X48306200Y48032400D02*
X48306200Y48112400D01*
X48090800Y48032400D02*
X48090800Y48112400D01*
X48090800Y48032400D02*
X48170800Y48042400D01*
X48230800Y48162400D02*
X48100800Y48052400D01*
D11*
X49669700Y48958500D02*
X49822100Y48831500D01*
X49669700Y47866300D02*
X49809400Y47993300D01*
X49822100Y48831500D02*
X49822100Y48006000D01*
X49657000Y47904400D02*
X49657000Y48945800D01*
X0Y2540000D02*
X0Y0D01*
X5080000Y254000D02*
X5334000Y0D01*
X4826000Y0D02*
X5080000Y254000D01*
X2286000Y0D02*
X508000Y0D01*
X2540000Y254000D02*
X2286000Y0D01*
X2794000Y0D02*
X2540000Y254000D01*
X4826000Y0D02*
X2794000Y0D01*
X508000Y0D02*
X0Y0D01*
X254000Y0D02*
X0Y254000D01*
X0Y2286000D02*
X254000Y2540000D01*
X7366000Y0D02*
X5334000Y0D01*
X7620000Y254000D02*
X7366000Y0D01*
X10414000Y0D02*
X10160000Y254000D01*
X9906000Y0D02*
X7874000Y0D01*
X10160000Y254000D02*
X9906000Y0D01*
X9906000Y2540000D02*
X10160000Y2286000D01*
X7874000Y2540000D02*
X9906000Y2540000D01*
X7620000Y2286000D02*
X7874000Y2540000D01*
X7366000Y2540000D02*
X7620000Y2286000D01*
X5334000Y2540000D02*
X7366000Y2540000D01*
X5080000Y2286000D02*
X5334000Y2540000D01*
X4826000Y2540000D02*
X5080000Y2286000D01*
X2794000Y2540000D02*
X4826000Y2540000D01*
X2540000Y2286000D02*
X2794000Y2540000D01*
X2286000Y2540000D02*
X2540000Y2286000D01*
X254000Y2540000D02*
X2286000Y2540000D01*
X0Y2540000D02*
X254000Y2540000D01*
X10160000Y2286000D02*
X10414000Y2540000D01*
X10414000Y2540000D02*
X12446000Y2540000D01*
X14986000Y2540000D02*
X15240000Y2286000D01*
X12446000Y0D02*
X10414000Y0D01*
X7874000Y0D02*
X7620000Y254000D01*
X15240000Y254000D02*
X14986000Y0D01*
X12954000Y2540000D02*
X14986000Y2540000D01*
X12700000Y2286000D02*
X12954000Y2540000D01*
X14986000Y0D02*
X12954000Y0D01*
X12700000Y254000D02*
X12446000Y0D01*
X12954000Y0D02*
X12700000Y254000D01*
X12446000Y2540000D02*
X12700000Y2286000D01*
X14986000Y2540000D02*
X15240000Y2286000D01*
X15240000Y254000D02*
X14986000Y0D01*
X14986000Y0D02*
X12954000Y0D01*
X12954000Y2540000D02*
X14986000Y2540000D01*
X12700000Y2286000D02*
X12954000Y2540000D01*
X12954000Y0D02*
X12700000Y254000D01*
X18034000Y0D02*
X17780000Y254000D01*
X17780000Y2286000D02*
X18034000Y2540000D01*
X18034000Y2540000D02*
X20066000Y2540000D01*
X20066000Y0D02*
X18034000Y0D01*
X20320000Y254000D02*
X20066000Y0D01*
X20066000Y2540000D02*
X20320000Y2286000D01*
X17526000Y2540000D02*
X17780000Y2286000D01*
X18034000Y0D02*
X17780000Y254000D01*
X17780000Y254000D02*
X17526000Y0D01*
X20066000Y0D02*
X18034000Y0D01*
X17780000Y2286000D02*
X18034000Y2540000D01*
X18034000Y2540000D02*
X20066000Y2540000D01*
X20320000Y254000D02*
X20066000Y0D01*
X17526000Y0D02*
X15494000Y0D01*
X20066000Y2540000D02*
X20320000Y2286000D01*
X15494000Y2540000D02*
X17526000Y2540000D01*
X15240000Y2286000D02*
X15494000Y2540000D01*
X15494000Y0D02*
X15240000Y254000D01*
X20574000Y0D02*
X20320000Y254000D01*
X20320000Y2286000D02*
X20574000Y2540000D01*
X20574000Y2540000D02*
X22606000Y2540000D01*
X25146000Y2540000D02*
X25400000Y2286000D01*
X22606000Y0D02*
X20574000Y0D01*
X25400000Y254000D02*
X25146000Y0D01*
X23114000Y2540000D02*
X25146000Y2540000D01*
X22860000Y2286000D02*
X23114000Y2540000D01*
X25146000Y0D02*
X23114000Y0D01*
X22860000Y254000D02*
X22606000Y0D01*
X23114000Y0D02*
X22860000Y254000D01*
X22606000Y2540000D02*
X22860000Y2286000D01*
X25146000Y2540000D02*
X25400000Y2286000D01*
X25400000Y254000D02*
X25146000Y0D01*
X25146000Y0D02*
X23114000Y0D01*
X23114000Y2540000D02*
X25146000Y2540000D01*
X22860000Y2286000D02*
X23114000Y2540000D01*
X23114000Y0D02*
X22860000Y254000D01*
X28194000Y0D02*
X27940000Y254000D01*
X27940000Y2286000D02*
X28194000Y2540000D01*
X28194000Y2540000D02*
X30226000Y2540000D01*
X30226000Y0D02*
X28194000Y0D01*
X30480000Y254000D02*
X30226000Y0D01*
X30226000Y2540000D02*
X30480000Y2286000D01*
X27686000Y2540000D02*
X27940000Y2286000D01*
X28194000Y0D02*
X27940000Y254000D01*
X27940000Y254000D02*
X27686000Y0D01*
X30226000Y0D02*
X28194000Y0D01*
X27940000Y2286000D02*
X28194000Y2540000D01*
X28194000Y2540000D02*
X30226000Y2540000D01*
X30480000Y254000D02*
X30226000Y0D01*
X27686000Y0D02*
X25654000Y0D01*
X30226000Y2540000D02*
X30480000Y2286000D01*
X25654000Y2540000D02*
X27686000Y2540000D01*
X25400000Y2286000D02*
X25654000Y2540000D01*
X25654000Y0D02*
X25400000Y254000D01*
X30734000Y0D02*
X30480000Y254000D01*
X30480000Y2286000D02*
X30734000Y2540000D01*
X30734000Y2540000D02*
X32766000Y2540000D01*
X35306000Y2540000D02*
X35560000Y2286000D01*
X32766000Y0D02*
X30734000Y0D01*
X35560000Y254000D02*
X35306000Y0D01*
X33274000Y2540000D02*
X35306000Y2540000D01*
X33020000Y2286000D02*
X33274000Y2540000D01*
X35306000Y0D02*
X33274000Y0D01*
X33020000Y254000D02*
X32766000Y0D01*
X33274000Y0D02*
X33020000Y254000D01*
X32766000Y2540000D02*
X33020000Y2286000D01*
X35306000Y2540000D02*
X35560000Y2286000D01*
X35560000Y254000D02*
X35306000Y0D01*
X35306000Y0D02*
X33274000Y0D01*
X33274000Y2540000D02*
X35306000Y2540000D01*
X33020000Y2286000D02*
X33274000Y2540000D01*
X33274000Y0D02*
X33020000Y254000D01*
X38354000Y0D02*
X38100000Y254000D01*
X38100000Y2286000D02*
X38354000Y2540000D01*
X38354000Y2540000D02*
X40386000Y2540000D01*
X40386000Y0D02*
X38354000Y0D01*
X40640000Y254000D02*
X40386000Y0D01*
X40386000Y2540000D02*
X40640000Y2286000D01*
X37846000Y2540000D02*
X38100000Y2286000D01*
X38354000Y0D02*
X38100000Y254000D01*
X38100000Y254000D02*
X37846000Y0D01*
X40386000Y0D02*
X38354000Y0D01*
X38100000Y2286000D02*
X38354000Y2540000D01*
X38354000Y2540000D02*
X40386000Y2540000D01*
X40640000Y254000D02*
X40386000Y0D01*
X37846000Y0D02*
X35814000Y0D01*
X40386000Y2540000D02*
X40640000Y2286000D01*
X35814000Y2540000D02*
X37846000Y2540000D01*
X35560000Y2286000D02*
X35814000Y2540000D01*
X35814000Y0D02*
X35560000Y254000D01*
X45974000Y0D02*
X45720000Y254000D01*
X45720000Y2286000D02*
X45974000Y2540000D01*
X45974000Y2540000D02*
X48006000Y2540000D01*
X50546000Y2540000D02*
X50800000Y2286000D01*
X48006000Y0D02*
X45974000Y0D01*
X50800000Y254000D02*
X50546000Y0D01*
X50800000Y2286000D02*
X50800000Y254000D01*
X48514000Y2540000D02*
X50546000Y2540000D01*
X48260000Y2286000D02*
X48514000Y2540000D01*
X50546000Y0D02*
X48514000Y0D01*
X48260000Y254000D02*
X48006000Y0D01*
X48514000Y0D02*
X48260000Y254000D01*
X48006000Y2540000D02*
X48260000Y2286000D01*
X50546000Y2540000D02*
X50800000Y2286000D01*
X50800000Y254000D02*
X50546000Y0D01*
X50546000Y0D02*
X48514000Y0D01*
X48514000Y2540000D02*
X50546000Y2540000D01*
X48260000Y2286000D02*
X48514000Y2540000D01*
X48514000Y0D02*
X48260000Y254000D01*
X43434000Y0D02*
X43180000Y254000D01*
X43180000Y2286000D02*
X43434000Y2540000D01*
X43434000Y2540000D02*
X45466000Y2540000D01*
X45466000Y0D02*
X43434000Y0D01*
X45720000Y254000D02*
X45466000Y0D01*
X45466000Y2540000D02*
X45720000Y2286000D01*
X42926000Y2540000D02*
X43180000Y2286000D01*
X43434000Y0D02*
X43180000Y254000D01*
X43180000Y254000D02*
X42926000Y0D01*
X45466000Y0D02*
X43434000Y0D01*
X43180000Y2286000D02*
X43434000Y2540000D01*
X43434000Y2540000D02*
X45466000Y2540000D01*
X45720000Y254000D02*
X45466000Y0D01*
X42926000Y0D02*
X40894000Y0D01*
X45466000Y2540000D02*
X45720000Y2286000D01*
X40894000Y2540000D02*
X42926000Y2540000D01*
X40640000Y2286000D02*
X40894000Y2540000D01*
X40894000Y0D02*
X40640000Y254000D01*
X18161000Y8763000D02*
X17145000Y8763000D01*
X18161000Y10287000D02*
X17145000Y10287000D01*
X47879000Y13335000D02*
X46863000Y13335000D01*
X47879000Y15367000D02*
X46863000Y15367000D01*
X47879000Y15367000D02*
X46863000Y15367000D01*
X47879000Y17399000D02*
X46863000Y17399000D01*
X43815000Y14224000D02*
X43815000Y15240000D01*
X45339000Y14224000D02*
X45339000Y15240000D01*
X48768000Y41402000D02*
X47752000Y41402000D01*
X48768000Y42926000D02*
X47752000Y42926000D01*
X12192000Y31242000D02*
X13208000Y31242000D01*
X12192000Y29718000D02*
X13208000Y29718000D01*
X13208000Y31242000D02*
X12192000Y31242000D01*
X13208000Y32766000D02*
X12192000Y32766000D01*
X25781000Y9779000D02*
X24765000Y9779000D01*
X25781000Y11303000D02*
X24765000Y11303000D01*
X44704000Y24638000D02*
X43688000Y24638000D01*
X44704000Y26162000D02*
X43688000Y26162000D01*
X46664000Y21256000D02*
X46664000Y23956000D01*
X43474000Y21256000D02*
X48474000Y21256000D01*
X47104000Y21256000D02*
X47104000Y23956000D01*
X48474000Y23956000D02*
X43474000Y23956000D01*
X37084000Y14478000D02*
X38100000Y14478000D01*
X37084000Y12954000D02*
X38100000Y12954000D01*
X37084000Y11303000D02*
X38100000Y11303000D01*
X37084000Y9779000D02*
X38100000Y9779000D01*
X21336000Y52451000D02*
X21336000Y50927000D01*
X23622000Y52451000D02*
X23622000Y50927000D01*
X23622000Y43307000D02*
X23622000Y44831000D01*
X21336000Y43307000D02*
X21336000Y44831000D01*
X17145000Y17653000D02*
X16129000Y17653000D01*
X17145000Y19177000D02*
X16129000Y19177000D01*
X25781000Y11938000D02*
X24765000Y11938000D01*
X25781000Y13462000D02*
X24765000Y13462000D01*
X41910000Y11811000D02*
X41910000Y10795000D01*
X40386000Y11811000D02*
X40386000Y10795000D01*
X35814000Y29845000D02*
X36830000Y29845000D01*
X35814000Y28321000D02*
X36830000Y28321000D01*
X42799000Y52832000D02*
X42799000Y51816000D01*
X41275000Y52832000D02*
X41275000Y51816000D01*
X21336000Y56388000D02*
X21336000Y57404000D01*
X22860000Y56388000D02*
X22860000Y57404000D01*
X13208000Y27940000D02*
X12192000Y27940000D01*
X13208000Y29464000D02*
X12192000Y29464000D01*
X13208000Y24638000D02*
X12192000Y24638000D01*
X13208000Y26162000D02*
X12192000Y26162000D01*
X12192000Y34290000D02*
X13208000Y34290000D01*
X12192000Y32766000D02*
X13208000Y32766000D01*
D17*
X49657000Y43357800D02*
X48641000Y43357800D01*
X48641000Y44577000D02*
X49657000Y44577000D01*
D16*
X48000000Y43942000D02*
X48520000Y43942000D01*
X48170000Y44052000D02*
X48170000Y43832000D01*
X48170000Y44052000D02*
X48280000Y43952000D01*
X48170000Y43832000D02*
X48270000Y43932000D01*
X48360000Y44052000D02*
X48360000Y43832000D01*
D18*
X48437800Y43696400D02*
X48307800Y43586400D01*
X48306200Y43587400D02*
X48386200Y43597400D01*
X48306200Y43587400D02*
X48306200Y43667400D01*
X48090800Y43587400D02*
X48090800Y43667400D01*
X48090800Y43587400D02*
X48170800Y43597400D01*
X48230800Y43717400D02*
X48100800Y43607400D01*
D11*
X49669700Y44513500D02*
X49822100Y44386500D01*
X49669700Y43421300D02*
X49809400Y43548300D01*
X49822100Y44386500D02*
X49822100Y43561000D01*
X49657000Y43459400D02*
X49657000Y44500800D01*
X36830000Y29845000D02*
X35814000Y29845000D01*
X36830000Y31369000D02*
X35814000Y31369000D01*
X24511000Y30226000D02*
X23495000Y30226000D01*
X24511000Y31750000D02*
X23495000Y31750000D01*
X24511000Y28702000D02*
X23495000Y28702000D01*
X24511000Y30226000D02*
X23495000Y30226000D01*
X25527000Y33655000D02*
X24511000Y33655000D01*
X25527000Y35179000D02*
X24511000Y35179000D01*
X34417000Y35814000D02*
X35433000Y35814000D01*
X34417000Y34290000D02*
X35433000Y34290000D01*
X28956000Y25781000D02*
X28956000Y24765000D01*
X27432000Y25781000D02*
X27432000Y24765000D01*
X40640000Y25908000D02*
X40640000Y24892000D01*
X39116000Y25908000D02*
X39116000Y24892000D01*
X37592000Y38100000D02*
X37592000Y37084000D01*
X36068000Y38100000D02*
X36068000Y37084000D01*
X16129000Y17653000D02*
X17145000Y17653000D01*
X16129000Y15621000D02*
X17145000Y15621000D01*
X33782000Y24765000D02*
X33782000Y25781000D01*
X35306000Y24765000D02*
X35306000Y25781000D01*
X35306000Y24765000D02*
X35306000Y25781000D01*
X36830000Y24765000D02*
X36830000Y25781000D01*
X42926000Y7366000D02*
X42926000Y8382000D01*
X44958000Y7366000D02*
X44958000Y8382000D01*
D17*
X17068800Y13843000D02*
X16230600Y13843000D01*
X17068800Y15621000D02*
X16230600Y15621000D01*
D11*
X20574000Y10947400D02*
X20574000Y10236200D01*
X21412200Y10947400D02*
X20574000Y10947400D01*
X21412200Y8102600D02*
X20574000Y8102600D01*
X20574000Y8813800D02*
X20574000Y8102600D01*
X20701000Y14503400D02*
X20701000Y13792200D01*
X21539200Y14503400D02*
X20701000Y14503400D01*
X21539200Y11658600D02*
X20701000Y11658600D01*
X20701000Y12369800D02*
X20701000Y11658600D01*
X45363000Y7693000D02*
X45363000Y7293000D01*
X48363000Y7693000D02*
X48363000Y7293000D01*
D12*
X47113000Y7593000D02*
G75*
G02X46613000Y7593000I-250000J0D01*
G01*
X47613000Y7593000D02*
G75*
G02X47113000Y7593000I-250000J0D01*
G01*
X46613000Y7593000D02*
G75*
G02X46113000Y7593000I-250000J0D01*
G01*
X47613000Y7643000D02*
X47963000Y7643000D01*
X46113000Y7643000D02*
X45763000Y7643000D01*
D11*
X49174400Y26924000D02*
X48463200Y26924000D01*
X49174400Y26085800D02*
X49174400Y26924000D01*
X46329600Y26085800D02*
X46329600Y26924000D01*
X47040800Y26924000D02*
X46329600Y26924000D01*
D17*
X37084000Y25222200D02*
X37084000Y26060400D01*
X38862000Y25222200D02*
X38862000Y26060400D01*
D11*
X33362900Y23799800D02*
X33362900Y26746200D01*
X33350200Y23799800D02*
X33172400Y23799800D01*
X33375600Y26746200D02*
X33159700Y26746200D01*
X29552900Y23799800D02*
X29362400Y23799800D01*
X29362400Y23799800D02*
X29362400Y26746200D01*
X29362400Y26746200D02*
X29578300Y26746200D01*
X23025100Y26746200D02*
X23025100Y23799800D01*
X23037800Y26746200D02*
X23215600Y26746200D01*
X23012400Y23799800D02*
X23228300Y23799800D01*
X26835100Y26746200D02*
X27025600Y26746200D01*
X27025600Y26746200D02*
X27025600Y23799800D01*
X27025600Y23799800D02*
X26809700Y23799800D01*
X6888000Y26889000D02*
X6888000Y25689000D01*
X6888000Y25689000D02*
X4288000Y25689000D01*
X4288000Y26889000D02*
X4288000Y25689000D01*
X6888000Y26889000D02*
X4288000Y26889000D01*
X2688000Y24189000D02*
X8488000Y24189000D01*
X2688000Y28389000D02*
X2688000Y24189000D01*
X8488000Y28389000D02*
X2688000Y28389000D01*
X8488000Y24189000D02*
X8488000Y28389000D01*
X6888000Y32731000D02*
X6888000Y31531000D01*
X6888000Y31531000D02*
X4288000Y31531000D01*
X4288000Y32731000D02*
X4288000Y31531000D01*
X6888000Y32731000D02*
X4288000Y32731000D01*
X2688000Y30031000D02*
X8488000Y30031000D01*
X2688000Y34231000D02*
X2688000Y30031000D01*
X8488000Y34231000D02*
X2688000Y34231000D01*
X8488000Y30031000D02*
X8488000Y34231000D01*
X16383000Y22098000D02*
X17399000Y22098000D01*
X16383000Y20574000D02*
X17399000Y20574000D01*
X11938000Y10160000D02*
X10922000Y10160000D01*
X11938000Y11684000D02*
X10922000Y11684000D01*
X8763000Y10160000D02*
X7747000Y10160000D01*
X8763000Y11684000D02*
X7747000Y11684000D01*
X8763000Y8636000D02*
X7747000Y8636000D01*
X8763000Y10160000D02*
X7747000Y10160000D01*
X17399000Y22352000D02*
X16383000Y22352000D01*
X17399000Y23876000D02*
X16383000Y23876000D01*
X15976600Y29921200D02*
X15976600Y29514800D01*
X17297400Y28295600D02*
X16510000Y28295600D01*
X17297400Y28956000D02*
X17297400Y28295600D01*
X17297400Y31140400D02*
X17297400Y30480000D01*
X16510000Y31140400D02*
X17297400Y31140400D01*
X37338000Y6858000D02*
X37719000Y6858000D01*
X37211000Y6731000D02*
X37846000Y6731000D01*
X37084000Y6604000D02*
X37846000Y6604000D01*
X37084000Y6477000D02*
X37973000Y6477000D01*
X37973000Y6350000D02*
X36830000Y6350000D01*
X36830000Y6223000D02*
X38100000Y6223000D01*
X38227000Y6096000D02*
X36703000Y6096000D01*
X36525200Y7315200D02*
X36525200Y7493000D01*
X38430200Y7315200D02*
X38430200Y7493000D01*
X36525200Y7493000D02*
X38430200Y7493000D01*
X36525200Y5943600D02*
X38430200Y5943600D01*
X36525200Y7315200D02*
X38430200Y7315200D01*
X37439600Y7315200D02*
X38430200Y5943600D01*
X36525200Y5943600D02*
X37439600Y7315200D01*
X37477700Y5359400D02*
X37477700Y7835900D01*
X34417000Y37084000D02*
X34417000Y38100000D01*
X35941000Y37084000D02*
X35941000Y38100000D01*
X19050000Y10414000D02*
X18034000Y10414000D01*
X19050000Y11938000D02*
X18034000Y11938000D01*
X29004260Y61925200D02*
X30805120Y61925200D01*
X29804360Y57124600D02*
X29004260Y61925200D01*
X30005020Y57124600D02*
X29804360Y57124600D01*
X30805120Y61925200D02*
X30005020Y57124600D01*
X33202880Y61925200D02*
X35003740Y61925200D01*
X34002980Y57124600D02*
X33202880Y61925200D01*
X34203640Y57124600D02*
X34002980Y57124600D01*
X35003740Y61925200D02*
X34203640Y57124600D01*
X41004000Y61927000D02*
X41004000Y54927000D01*
X40004000Y61927000D02*
X41004000Y61927000D01*
X23004000Y61927000D02*
X23004000Y54927000D01*
X24004000Y61927000D02*
X23004000Y61927000D01*
X29405580Y56426100D02*
X28404820Y61925200D01*
X30406340Y56426100D02*
X29405580Y56426100D01*
X31404560Y61925200D02*
X30406340Y56426100D01*
X33601660Y56426100D02*
X32603440Y61925200D01*
X34602420Y56426100D02*
X33601660Y56426100D01*
X35603180Y61925200D02*
X34602420Y56426100D01*
X25905460Y60426600D02*
X25905460Y60225940D01*
X25905460Y60426600D02*
X26106120Y60426600D01*
X26304240Y59926220D02*
X25905460Y60426600D01*
X26606500Y60426600D02*
X26606500Y60225940D01*
X26606500Y60426600D02*
X26804620Y60426600D01*
X27005280Y59926220D02*
X26606500Y60426600D01*
X27937460Y58724800D02*
X27937460Y56786780D01*
X27236420Y58724800D02*
X27937460Y58724800D01*
X26238200Y59524900D02*
X26238200Y57924700D01*
X26337260Y58724800D02*
X27137360Y57924700D01*
X27137360Y59524900D02*
X26337260Y58724800D01*
X27137360Y59524900D02*
X27137360Y57924700D01*
X25438100Y58724800D02*
X26136600Y58724800D01*
X25438100Y56697880D02*
X25438100Y58724800D01*
X36603940Y60426600D02*
X36603940Y60225940D01*
X36603940Y60426600D02*
X36802060Y60426600D01*
X37002720Y59926220D02*
X36603940Y60426600D01*
X37302440Y60426600D02*
X37302440Y60225940D01*
X37302440Y60426600D02*
X37503100Y60426600D01*
X37703760Y59926220D02*
X37302440Y60426600D01*
X36104000Y58727000D02*
X36104000Y56827000D01*
X36802060Y58724800D02*
X36103560Y58724800D01*
X36903660Y57924700D02*
X36903660Y59524900D01*
X37002720Y58724800D02*
X37802820Y59524900D01*
X37802820Y57924700D02*
X37002720Y58724800D01*
X37804000Y57927000D02*
X37804000Y59527000D01*
X38604000Y58727000D02*
X37904000Y58727000D01*
X38604000Y56727000D02*
X38604000Y58727000D01*
X40004000Y46177000D02*
X40004000Y39927000D01*
X40004000Y61927000D02*
X40004000Y49677000D01*
X24004000Y61927000D02*
X40004000Y61927000D01*
X24004000Y49677000D02*
X24004000Y61927000D01*
X24004000Y39927000D02*
X24004000Y46177000D01*
X40004000Y39927000D02*
X24004000Y39927000D01*
X34104000Y57127000D02*
X33454000Y61917000D01*
X34114000Y57277000D02*
X34764000Y61907000D01*
X34124000Y57887000D02*
X33564000Y61917000D01*
X34114000Y58177000D02*
X34524000Y61907000D01*
X34134000Y58697000D02*
X33774000Y61907000D01*
X34084000Y59407000D02*
X34274000Y61917000D01*
X34174000Y60287000D02*
X33974000Y61927000D01*
X34004000Y61057000D02*
X34144000Y61867000D01*
X29914000Y57317000D02*
X29194000Y61917000D01*
X29904000Y57487000D02*
X30574000Y61907000D01*
X29914000Y58067000D02*
X29394000Y61797000D01*
X29854000Y58537000D02*
X30334000Y61897000D01*
X29984000Y59287000D02*
X29584000Y61857000D01*
X29954000Y59707000D02*
X30104000Y61887000D01*
X30024000Y60317000D02*
X29744000Y61897000D01*
X29914000Y61027000D02*
X29914000Y61897000D01*
X21590000Y38354000D02*
X22606000Y38354000D01*
X21590000Y39878000D02*
X22606000Y39878000D01*
X14351000Y10287000D02*
X14732000Y10287000D01*
X14224000Y10160000D02*
X14859000Y10160000D01*
X14097000Y10033000D02*
X14859000Y10033000D01*
X14097000Y9906000D02*
X14986000Y9906000D01*
X14986000Y9779000D02*
X13843000Y9779000D01*
X13843000Y9652000D02*
X15113000Y9652000D01*
X15240000Y9525000D02*
X13716000Y9525000D01*
X13538200Y10744200D02*
X13538200Y10922000D01*
X15443200Y10744200D02*
X15443200Y10922000D01*
X13538200Y10922000D02*
X15443200Y10922000D01*
X13538200Y9372600D02*
X15443200Y9372600D01*
X13538200Y10744200D02*
X15443200Y10744200D01*
X14452600Y10744200D02*
X15443200Y9372600D01*
X13538200Y9372600D02*
X14452600Y10744200D01*
X14490700Y8788400D02*
X14490700Y11264900D01*
X28892500Y37846000D02*
X28892500Y38100000D01*
X28892500Y37846000D02*
X28892500Y37592000D01*
X28003500Y37846000D02*
X28003500Y37592000D01*
X28003500Y37846000D02*
X28003500Y38100000D01*
X26352500Y37846000D02*
X26352500Y38100000D01*
X26352500Y37846000D02*
X26352500Y37592000D01*
X27241500Y37846000D02*
X27241500Y37592000D01*
X27241500Y37846000D02*
X27241500Y38100000D01*
X32702500Y37846000D02*
X32702500Y38100000D01*
X32702500Y37846000D02*
X32702500Y37592000D01*
X31813500Y37846000D02*
X31813500Y37592000D01*
X31813500Y37846000D02*
X31813500Y38100000D01*
X30162500Y37846000D02*
X30162500Y38100000D01*
X30162500Y37846000D02*
X30162500Y37592000D01*
X31051500Y37846000D02*
X31051500Y37592000D01*
X31051500Y37846000D02*
X31051500Y38100000D01*
X26670000Y35750500D02*
X26416000Y35750500D01*
X26670000Y35750500D02*
X26924000Y35750500D01*
X26670000Y36639500D02*
X26924000Y36639500D01*
X26670000Y36639500D02*
X26416000Y36639500D01*
X32385000Y36639500D02*
X32131000Y36639500D01*
X32385000Y36639500D02*
X32639000Y36639500D01*
X32385000Y35750500D02*
X32639000Y35750500D01*
X32385000Y35750500D02*
X32131000Y35750500D01*
X30480000Y35750500D02*
X30734000Y35750500D01*
X30480000Y35750500D02*
X30226000Y35750500D01*
X30480000Y36639500D02*
X30226000Y36639500D01*
X30480000Y36639500D02*
X30734000Y36639500D01*
X28575000Y36639500D02*
X28829000Y36639500D01*
X28575000Y36639500D02*
X28321000Y36639500D01*
X28575000Y35750500D02*
X28321000Y35750500D01*
X28575000Y35750500D02*
X28829000Y35750500D01*
X21717000Y38036500D02*
X21463000Y38036500D01*
X21717000Y38036500D02*
X21971000Y38036500D01*
X21717000Y37147500D02*
X21971000Y37147500D01*
X21717000Y37147500D02*
X21463000Y37147500D01*
X24765000Y35750500D02*
X25019000Y35750500D01*
X24765000Y35750500D02*
X24511000Y35750500D01*
X24765000Y36639500D02*
X24511000Y36639500D01*
X24765000Y36639500D02*
X25019000Y36639500D01*
X48271000Y12080000D02*
X48271000Y10780000D01*
X46471000Y12080000D02*
X46471000Y10530000D01*
X43561000Y41211500D02*
X43815000Y41211500D01*
X43561000Y41211500D02*
X43307000Y41211500D01*
X43561000Y40322500D02*
X43307000Y40322500D01*
X43561000Y40322500D02*
X43815000Y40322500D01*
X43561000Y41719500D02*
X43815000Y41719500D01*
X43561000Y41719500D02*
X43307000Y41719500D01*
X43561000Y42608500D02*
X43307000Y42608500D01*
X43561000Y42608500D02*
X43815000Y42608500D01*
X31623000Y9080500D02*
X31369000Y9080500D01*
X31623000Y9080500D02*
X31877000Y9080500D01*
X31623000Y8191500D02*
X31877000Y8191500D01*
X31623000Y8191500D02*
X31369000Y8191500D01*
X25514904Y33068381D02*
X25514904Y32245905D01*
X25563285Y32149143D01*
X25611666Y32100762D01*
X25708428Y32052381D01*
X25901952Y32052381D01*
X25998714Y32100762D01*
X26047095Y32149143D01*
X26095476Y32245905D01*
X26095476Y33068381D01*
X27014714Y32729715D02*
X27014714Y32052381D01*
X26772809Y33116762D02*
X26530904Y32391048D01*
X27159857Y32391048D01*
X40464619Y29778477D02*
X41287095Y29778477D01*
X41383857Y29826858D01*
X41432238Y29875239D01*
X41480619Y29972000D01*
X41480619Y30165524D01*
X41432238Y30262286D01*
X41383857Y30310667D01*
X41287095Y30359048D01*
X40464619Y30359048D01*
X41432238Y30794477D02*
X41480619Y30939620D01*
X41480619Y31181524D01*
X41432238Y31278286D01*
X41383857Y31326667D01*
X41287095Y31375048D01*
X41190333Y31375048D01*
X41093571Y31326667D01*
X41045190Y31278286D01*
X40996809Y31181524D01*
X40948428Y30988000D01*
X40900047Y30891239D01*
X40851666Y30842858D01*
X40754904Y30794477D01*
X40658142Y30794477D01*
X40561380Y30842858D01*
X40513000Y30891239D01*
X40464619Y30988000D01*
X40464619Y31229905D01*
X40513000Y31375048D01*
X40948428Y32149143D02*
X40996809Y32294286D01*
X41045190Y32342667D01*
X41141952Y32391048D01*
X41287095Y32391048D01*
X41383857Y32342667D01*
X41432238Y32294286D01*
X41480619Y32197524D01*
X41480619Y31810477D01*
X40464619Y31810477D01*
X40464619Y32149143D01*
X40513000Y32245905D01*
X40561380Y32294286D01*
X40658142Y32342667D01*
X40754904Y32342667D01*
X40851666Y32294286D01*
X40900047Y32245905D01*
X40948428Y32149143D01*
X40948428Y31810477D01*
X41093571Y32826477D02*
X41093571Y33600572D01*
X40464619Y34084381D02*
X41287095Y34084381D01*
X41383857Y34132762D01*
X41432238Y34181143D01*
X41480619Y34277905D01*
X41480619Y34471429D01*
X41432238Y34568191D01*
X41383857Y34616572D01*
X41287095Y34664953D01*
X40464619Y34664953D01*
X41190333Y35100381D02*
X41190333Y35584191D01*
X41480619Y35003620D02*
X40464619Y35342286D01*
X41480619Y35680953D01*
X41480619Y36600191D02*
X40996809Y36261524D01*
X41480619Y36019620D02*
X40464619Y36019620D01*
X40464619Y36406667D01*
X40513000Y36503429D01*
X40561380Y36551810D01*
X40658142Y36600191D01*
X40803285Y36600191D01*
X40900047Y36551810D01*
X40948428Y36503429D01*
X40996809Y36406667D01*
X40996809Y36019620D01*
X40464619Y36890477D02*
X40464619Y37471048D01*
X41480619Y37180762D02*
X40464619Y37180762D01*
X41480619Y38341905D02*
X41480619Y37761334D01*
X41480619Y38051620D02*
X40464619Y38051620D01*
X40609761Y37954858D01*
X40706523Y37858096D01*
X40754904Y37761334D01*
D19*
X39442571Y3147786D02*
X39442571Y3909786D01*
X39624000Y3909786D01*
X39732857Y3873500D01*
X39805428Y3800929D01*
X39841714Y3728358D01*
X39878000Y3583215D01*
X39878000Y3474358D01*
X39841714Y3329215D01*
X39805428Y3256643D01*
X39732857Y3184072D01*
X39624000Y3147786D01*
X39442571Y3147786D01*
X40132000Y3909786D02*
X40603714Y3909786D01*
X40349714Y3619500D01*
X40458571Y3619500D01*
X40531142Y3583215D01*
X40567428Y3546929D01*
X40603714Y3474358D01*
X40603714Y3292929D01*
X40567428Y3220358D01*
X40531142Y3184072D01*
X40458571Y3147786D01*
X40240857Y3147786D01*
X40168285Y3184072D01*
X40132000Y3220358D01*
X42309142Y12863286D02*
X42055142Y13226143D01*
X41873714Y12863286D02*
X41873714Y13625286D01*
X42164000Y13625286D01*
X42236571Y13589000D01*
X42272857Y13552715D01*
X42309142Y13480143D01*
X42309142Y13371286D01*
X42272857Y13298715D01*
X42236571Y13262429D01*
X42164000Y13226143D01*
X41873714Y13226143D01*
X43034857Y12863286D02*
X42599428Y12863286D01*
X42817142Y12863286D02*
X42817142Y13625286D01*
X42744571Y13516429D01*
X42672000Y13443858D01*
X42599428Y13407572D01*
X43397714Y12863286D02*
X43542857Y12863286D01*
X43615428Y12899572D01*
X43651714Y12935858D01*
X43724285Y13044715D01*
X43760571Y13189858D01*
X43760571Y13480143D01*
X43724285Y13552715D01*
X43688000Y13589000D01*
X43615428Y13625286D01*
X43470285Y13625286D01*
X43397714Y13589000D01*
X43361428Y13552715D01*
X43325142Y13480143D01*
X43325142Y13298715D01*
X43361428Y13226143D01*
X43397714Y13189858D01*
X43470285Y13153572D01*
X43615428Y13153572D01*
X43688000Y13189858D01*
X43724285Y13226143D01*
X43760571Y13298715D01*
X33872714Y7257143D02*
X33509857Y7003143D01*
X33872714Y6821715D02*
X33110714Y6821715D01*
X33110714Y7112000D01*
X33147000Y7184572D01*
X33183285Y7220858D01*
X33255857Y7257143D01*
X33364714Y7257143D01*
X33437285Y7220858D01*
X33473571Y7184572D01*
X33509857Y7112000D01*
X33509857Y6821715D01*
X33110714Y7511143D02*
X33110714Y7982858D01*
X33401000Y7728858D01*
X33401000Y7837715D01*
X33437285Y7910286D01*
X33473571Y7946572D01*
X33546142Y7982858D01*
X33727571Y7982858D01*
X33800142Y7946572D01*
X33836428Y7910286D01*
X33872714Y7837715D01*
X33872714Y7620000D01*
X33836428Y7547429D01*
X33800142Y7511143D01*
X33110714Y8672286D02*
X33110714Y8309429D01*
X33473571Y8273143D01*
X33437285Y8309429D01*
X33401000Y8382000D01*
X33401000Y8563429D01*
X33437285Y8636000D01*
X33473571Y8672286D01*
X33546142Y8708572D01*
X33727571Y8708572D01*
X33800142Y8672286D01*
X33836428Y8636000D01*
X33872714Y8563429D01*
X33872714Y8382000D01*
X33836428Y8309429D01*
X33800142Y8273143D01*
D11*
X27800904Y14018381D02*
X27800904Y13195905D01*
X27849285Y13099143D01*
X27897666Y13050762D01*
X27994428Y13002381D01*
X28187952Y13002381D01*
X28284714Y13050762D01*
X28333095Y13099143D01*
X28381476Y13195905D01*
X28381476Y14018381D01*
X29349095Y14018381D02*
X28865285Y14018381D01*
X28816904Y13534572D01*
X28865285Y13582953D01*
X28962047Y13631334D01*
X29203952Y13631334D01*
X29300714Y13582953D01*
X29349095Y13534572D01*
X29397476Y13437810D01*
X29397476Y13195905D01*
X29349095Y13099143D01*
X29300714Y13050762D01*
X29203952Y13002381D01*
X28962047Y13002381D01*
X28865285Y13050762D01*
X28816904Y13099143D01*
X13957904Y35608381D02*
X13957904Y34785905D01*
X14006285Y34689143D01*
X14054666Y34640762D01*
X14151428Y34592381D01*
X14344952Y34592381D01*
X14441714Y34640762D01*
X14490095Y34689143D01*
X14538476Y34785905D01*
X14538476Y35608381D01*
X14925523Y35608381D02*
X15554476Y35608381D01*
X15215809Y35221334D01*
X15360952Y35221334D01*
X15457714Y35172953D01*
X15506095Y35124572D01*
X15554476Y35027810D01*
X15554476Y34785905D01*
X15506095Y34689143D01*
X15457714Y34640762D01*
X15360952Y34592381D01*
X15070666Y34592381D01*
X14973904Y34640762D01*
X14925523Y34689143D01*
X15669380Y38693905D02*
X15621000Y38742286D01*
X15572619Y38839048D01*
X15572619Y39080953D01*
X15621000Y39177715D01*
X15669380Y39226096D01*
X15766142Y39274477D01*
X15862904Y39274477D01*
X16008047Y39226096D01*
X16588619Y38645524D01*
X16588619Y39274477D01*
X15911285Y40145334D02*
X16588619Y40145334D01*
X15524238Y39903429D02*
X16249952Y39661524D01*
X16249952Y40290477D01*
X5158619Y39274477D02*
X5158619Y38693905D01*
X5158619Y38984191D02*
X4142619Y38984191D01*
X4287761Y38887429D01*
X4384523Y38790667D01*
X4432904Y38693905D01*
X4142619Y40193715D02*
X4142619Y39709905D01*
X4626428Y39661524D01*
X4578047Y39709905D01*
X4529666Y39806667D01*
X4529666Y40048572D01*
X4578047Y40145334D01*
X4626428Y40193715D01*
X4723190Y40242096D01*
X4965095Y40242096D01*
X5061857Y40193715D01*
X5110238Y40145334D01*
X5158619Y40048572D01*
X5158619Y39806667D01*
X5110238Y39709905D01*
X5061857Y39661524D01*
X15560523Y54531381D02*
X16189476Y54531381D01*
X15850809Y54144334D01*
X15995952Y54144334D01*
X16092714Y54095953D01*
X16141095Y54047572D01*
X16189476Y53950810D01*
X16189476Y53708905D01*
X16141095Y53612143D01*
X16092714Y53563762D01*
X15995952Y53515381D01*
X15705666Y53515381D01*
X15608904Y53563762D01*
X15560523Y53612143D01*
X16770047Y54095953D02*
X16673285Y54144334D01*
X16624904Y54192715D01*
X16576523Y54289477D01*
X16576523Y54337858D01*
X16624904Y54434620D01*
X16673285Y54483000D01*
X16770047Y54531381D01*
X16963571Y54531381D01*
X17060333Y54483000D01*
X17108714Y54434620D01*
X17157095Y54337858D01*
X17157095Y54289477D01*
X17108714Y54192715D01*
X17060333Y54144334D01*
X16963571Y54095953D01*
X16770047Y54095953D01*
X16673285Y54047572D01*
X16624904Y53999191D01*
X16576523Y53902429D01*
X16576523Y53708905D01*
X16624904Y53612143D01*
X16673285Y53563762D01*
X16770047Y53515381D01*
X16963571Y53515381D01*
X17060333Y53563762D01*
X17108714Y53612143D01*
X17157095Y53708905D01*
X17157095Y53902429D01*
X17108714Y53999191D01*
X17060333Y54047572D01*
X16963571Y54095953D01*
X4354285Y53515381D02*
X3773714Y53515381D01*
X4064000Y53515381D02*
X4064000Y54531381D01*
X3967238Y54386239D01*
X3870476Y54289477D01*
X3773714Y54241096D01*
X4245428Y42715572D02*
X4584095Y42715572D01*
X4729238Y42183381D02*
X4245428Y42183381D01*
X4245428Y43199381D01*
X4729238Y43199381D01*
X5116285Y42231762D02*
X5261428Y42183381D01*
X5503333Y42183381D01*
X5600095Y42231762D01*
X5648476Y42280143D01*
X5696857Y42376905D01*
X5696857Y42473667D01*
X5648476Y42570429D01*
X5600095Y42618810D01*
X5503333Y42667191D01*
X5309809Y42715572D01*
X5213047Y42763953D01*
X5164666Y42812334D01*
X5116285Y42909096D01*
X5116285Y43005858D01*
X5164666Y43102620D01*
X5213047Y43151000D01*
X5309809Y43199381D01*
X5551714Y43199381D01*
X5696857Y43151000D01*
X6132285Y42183381D02*
X6132285Y43199381D01*
X6519333Y43199381D01*
X6616095Y43151000D01*
X6664476Y43102620D01*
X6712857Y43005858D01*
X6712857Y42860715D01*
X6664476Y42763953D01*
X6616095Y42715572D01*
X6519333Y42667191D01*
X6132285Y42667191D01*
X7148285Y42570429D02*
X7922380Y42570429D01*
X8309428Y43199381D02*
X8551333Y42183381D01*
X8744857Y42909096D01*
X8938380Y42183381D01*
X9180285Y43199381D01*
X10147904Y42183381D02*
X9809238Y42667191D01*
X9567333Y42183381D02*
X9567333Y43199381D01*
X9954380Y43199381D01*
X10051142Y43151000D01*
X10099523Y43102620D01*
X10147904Y43005858D01*
X10147904Y42860715D01*
X10099523Y42763953D01*
X10051142Y42715572D01*
X9954380Y42667191D01*
X9567333Y42667191D01*
X10776857Y43199381D02*
X10970380Y43199381D01*
X11067142Y43151000D01*
X11163904Y43054239D01*
X11212285Y42860715D01*
X11212285Y42522048D01*
X11163904Y42328524D01*
X11067142Y42231762D01*
X10970380Y42183381D01*
X10776857Y42183381D01*
X10680095Y42231762D01*
X10583333Y42328524D01*
X10534952Y42522048D01*
X10534952Y42860715D01*
X10583333Y43054239D01*
X10680095Y43151000D01*
X10776857Y43199381D01*
X11841238Y43199381D02*
X12034761Y43199381D01*
X12131523Y43151000D01*
X12228285Y43054239D01*
X12276666Y42860715D01*
X12276666Y42522048D01*
X12228285Y42328524D01*
X12131523Y42231762D01*
X12034761Y42183381D01*
X11841238Y42183381D01*
X11744476Y42231762D01*
X11647714Y42328524D01*
X11599333Y42522048D01*
X11599333Y42860715D01*
X11647714Y43054239D01*
X11744476Y43151000D01*
X11841238Y43199381D01*
X12712095Y42183381D02*
X12712095Y43199381D01*
X13050761Y42473667D01*
X13389428Y43199381D01*
X13389428Y42183381D01*
X13873238Y42570429D02*
X14647333Y42570429D01*
X15034380Y43199381D02*
X15663333Y43199381D01*
X15324666Y42812334D01*
X15469809Y42812334D01*
X15566571Y42763953D01*
X15614952Y42715572D01*
X15663333Y42618810D01*
X15663333Y42376905D01*
X15614952Y42280143D01*
X15566571Y42231762D01*
X15469809Y42183381D01*
X15179523Y42183381D01*
X15082761Y42231762D01*
X15034380Y42280143D01*
X16050380Y43102620D02*
X16098761Y43151000D01*
X16195523Y43199381D01*
X16437428Y43199381D01*
X16534190Y43151000D01*
X16582571Y43102620D01*
X16630952Y43005858D01*
X16630952Y42909096D01*
X16582571Y42763953D01*
X16002000Y42183381D01*
X16630952Y42183381D01*
X6906380Y58941334D02*
X7511142Y58941334D01*
X6785428Y58578477D02*
X7208761Y59848477D01*
X7632095Y58578477D01*
X8055428Y59425143D02*
X8055428Y58578477D01*
X8055428Y59304191D02*
X8115904Y59364667D01*
X8236857Y59425143D01*
X8418285Y59425143D01*
X8539238Y59364667D01*
X8599714Y59243715D01*
X8599714Y58578477D01*
X9023047Y59425143D02*
X9506857Y59425143D01*
X9204476Y59848477D02*
X9204476Y58759905D01*
X9264952Y58638953D01*
X9385904Y58578477D01*
X9506857Y58578477D01*
X10414000Y58638953D02*
X10293047Y58578477D01*
X10051142Y58578477D01*
X9930190Y58638953D01*
X9869714Y58759905D01*
X9869714Y59243715D01*
X9930190Y59364667D01*
X10051142Y59425143D01*
X10293047Y59425143D01*
X10414000Y59364667D01*
X10474476Y59243715D01*
X10474476Y59122762D01*
X9869714Y59001810D01*
X11018761Y59425143D02*
X11018761Y58578477D01*
X11018761Y59304191D02*
X11079238Y59364667D01*
X11200190Y59425143D01*
X11381619Y59425143D01*
X11502571Y59364667D01*
X11563047Y59243715D01*
X11563047Y58578477D01*
X12167809Y59425143D02*
X12167809Y58578477D01*
X12167809Y59304191D02*
X12228285Y59364667D01*
X12349238Y59425143D01*
X12530666Y59425143D01*
X12651619Y59364667D01*
X12712095Y59243715D01*
X12712095Y58578477D01*
X13861142Y58578477D02*
X13861142Y59243715D01*
X13800666Y59364667D01*
X13679714Y59425143D01*
X13437809Y59425143D01*
X13316857Y59364667D01*
X13861142Y58638953D02*
X13740190Y58578477D01*
X13437809Y58578477D01*
X13316857Y58638953D01*
X13256380Y58759905D01*
X13256380Y58880858D01*
X13316857Y59001810D01*
X13437809Y59062286D01*
X13740190Y59062286D01*
X13861142Y59122762D01*
X1082523Y55662286D02*
X1022047Y55541334D01*
X961571Y55480858D01*
X840619Y55420381D01*
X477761Y55420381D01*
X356809Y55480858D01*
X296333Y55541334D01*
X235857Y55662286D01*
X235857Y55843715D01*
X296333Y55964667D01*
X356809Y56025143D01*
X477761Y56085620D01*
X840619Y56085620D01*
X961571Y56025143D01*
X1022047Y55964667D01*
X1082523Y55843715D01*
X1082523Y55662286D01*
D19*
X17417142Y7529286D02*
X17163142Y7892143D01*
X16981714Y7529286D02*
X16981714Y8291286D01*
X17272000Y8291286D01*
X17344571Y8255000D01*
X17380857Y8218715D01*
X17417142Y8146143D01*
X17417142Y8037286D01*
X17380857Y7964715D01*
X17344571Y7928429D01*
X17272000Y7892143D01*
X16981714Y7892143D01*
X17707428Y8218715D02*
X17743714Y8255000D01*
X17816285Y8291286D01*
X17997714Y8291286D01*
X18070285Y8255000D01*
X18106571Y8218715D01*
X18142857Y8146143D01*
X18142857Y8073572D01*
X18106571Y7964715D01*
X17671142Y7529286D01*
X18142857Y7529286D01*
X18505714Y7529286D02*
X18650857Y7529286D01*
X18723428Y7565572D01*
X18759714Y7601858D01*
X18832285Y7710715D01*
X18868571Y7855858D01*
X18868571Y8146143D01*
X18832285Y8218715D01*
X18796000Y8255000D01*
X18723428Y8291286D01*
X18578285Y8291286D01*
X18505714Y8255000D01*
X18469428Y8218715D01*
X18433142Y8146143D01*
X18433142Y7964715D01*
X18469428Y7892143D01*
X18505714Y7855858D01*
X18578285Y7819572D01*
X18723428Y7819572D01*
X18796000Y7855858D01*
X18832285Y7892143D01*
X18868571Y7964715D01*
D11*
X14620119Y14169572D02*
X13604119Y14169572D01*
X14329833Y14508239D01*
X13604119Y14846905D01*
X14620119Y14846905D01*
X14620119Y15330715D02*
X13604119Y15330715D01*
X14523357Y16395096D02*
X14571738Y16346715D01*
X14620119Y16201572D01*
X14620119Y16104810D01*
X14571738Y15959667D01*
X14474976Y15862905D01*
X14378214Y15814524D01*
X14184690Y15766143D01*
X14039547Y15766143D01*
X13846023Y15814524D01*
X13749261Y15862905D01*
X13652500Y15959667D01*
X13604119Y16104810D01*
X13604119Y16201572D01*
X13652500Y16346715D01*
X13700880Y16395096D01*
X14620119Y17411096D02*
X14136309Y17072429D01*
X14620119Y16830524D02*
X13604119Y16830524D01*
X13604119Y17217572D01*
X13652500Y17314334D01*
X13700880Y17362715D01*
X13797642Y17411096D01*
X13942785Y17411096D01*
X14039547Y17362715D01*
X14087928Y17314334D01*
X14136309Y17217572D01*
X14136309Y16830524D01*
X13604119Y18040048D02*
X13604119Y18233572D01*
X13652500Y18330334D01*
X13749261Y18427096D01*
X13942785Y18475477D01*
X14281452Y18475477D01*
X14474976Y18427096D01*
X14571738Y18330334D01*
X14620119Y18233572D01*
X14620119Y18040048D01*
X14571738Y17943286D01*
X14474976Y17846524D01*
X14281452Y17798143D01*
X13942785Y17798143D01*
X13749261Y17846524D01*
X13652500Y17943286D01*
X13604119Y18040048D01*
X14716880Y18669000D02*
X14716880Y19443096D01*
X14571738Y19636620D02*
X14620119Y19781762D01*
X14620119Y20023667D01*
X14571738Y20120429D01*
X14523357Y20168810D01*
X14426595Y20217191D01*
X14329833Y20217191D01*
X14233071Y20168810D01*
X14184690Y20120429D01*
X14136309Y20023667D01*
X14087928Y19830143D01*
X14039547Y19733381D01*
X13991166Y19685000D01*
X13894404Y19636620D01*
X13797642Y19636620D01*
X13700880Y19685000D01*
X13652500Y19733381D01*
X13604119Y19830143D01*
X13604119Y20072048D01*
X13652500Y20217191D01*
X14620119Y20652620D02*
X13604119Y20652620D01*
X13604119Y20894524D01*
X13652500Y21039667D01*
X13749261Y21136429D01*
X13846023Y21184810D01*
X14039547Y21233191D01*
X14184690Y21233191D01*
X14378214Y21184810D01*
X14474976Y21136429D01*
X14571738Y21039667D01*
X14620119Y20894524D01*
X14620119Y20652620D01*
X14620119Y22200810D02*
X14620119Y21620239D01*
X14620119Y21910524D02*
X13604119Y21910524D01*
X13749261Y21813762D01*
X13846023Y21717000D01*
X13894404Y21620239D01*
D19*
X21590000Y34834286D02*
X21336000Y35197143D01*
X21154571Y34834286D02*
X21154571Y35596286D01*
X21444857Y35596286D01*
X21517428Y35560000D01*
X21553714Y35523715D01*
X21590000Y35451143D01*
X21590000Y35342286D01*
X21553714Y35269715D01*
X21517428Y35233429D01*
X21444857Y35197143D01*
X21154571Y35197143D01*
X22279428Y35596286D02*
X21916571Y35596286D01*
X21880285Y35233429D01*
X21916571Y35269715D01*
X21989142Y35306000D01*
X22170571Y35306000D01*
X22243142Y35269715D01*
X22279428Y35233429D01*
X22315714Y35160858D01*
X22315714Y34979429D01*
X22279428Y34906858D01*
X22243142Y34870572D01*
X22170571Y34834286D01*
X21989142Y34834286D01*
X21916571Y34870572D01*
X21880285Y34906858D01*
X15367000Y25563286D02*
X15004142Y25563286D01*
X15004142Y26325286D01*
X16020142Y25563286D02*
X15584714Y25563286D01*
X15802428Y25563286D02*
X15802428Y26325286D01*
X15729857Y26216429D01*
X15657285Y26143858D01*
X15584714Y26107572D01*
X21590000Y33763858D02*
X21553714Y33727572D01*
X21444857Y33691286D01*
X21372285Y33691286D01*
X21263428Y33727572D01*
X21190857Y33800143D01*
X21154571Y33872715D01*
X21118285Y34017858D01*
X21118285Y34126715D01*
X21154571Y34271858D01*
X21190857Y34344429D01*
X21263428Y34417000D01*
X21372285Y34453286D01*
X21444857Y34453286D01*
X21553714Y34417000D01*
X21590000Y34380715D01*
X21880285Y34380715D02*
X21916571Y34417000D01*
X21989142Y34453286D01*
X22170571Y34453286D01*
X22243142Y34417000D01*
X22279428Y34380715D01*
X22315714Y34308143D01*
X22315714Y34235572D01*
X22279428Y34126715D01*
X21844000Y33691286D01*
X22315714Y33691286D01*
X15421428Y33818286D02*
X15856857Y33818286D01*
X15639142Y33056286D02*
X15639142Y33818286D01*
X16510000Y33056286D02*
X16074571Y33056286D01*
X16292285Y33056286D02*
X16292285Y33818286D01*
X16219714Y33709429D01*
X16147142Y33636858D01*
X16074571Y33600572D01*
X21590000Y32548286D02*
X21336000Y32911143D01*
X21154571Y32548286D02*
X21154571Y33310286D01*
X21444857Y33310286D01*
X21517428Y33274000D01*
X21553714Y33237715D01*
X21590000Y33165143D01*
X21590000Y33056286D01*
X21553714Y32983715D01*
X21517428Y32947429D01*
X21444857Y32911143D01*
X21154571Y32911143D01*
X22243142Y33310286D02*
X22098000Y33310286D01*
X22025428Y33274000D01*
X21989142Y33237715D01*
X21916571Y33128858D01*
X21880285Y32983715D01*
X21880285Y32693429D01*
X21916571Y32620858D01*
X21952857Y32584572D01*
X22025428Y32548286D01*
X22170571Y32548286D01*
X22243142Y32584572D01*
X22279428Y32620858D01*
X22315714Y32693429D01*
X22315714Y32874858D01*
X22279428Y32947429D01*
X22243142Y32983715D01*
X22170571Y33020000D01*
X22025428Y33020000D01*
X21952857Y32983715D01*
X21916571Y32947429D01*
X21880285Y32874858D01*
X22297571Y24892000D02*
X22297571Y24638000D01*
X22696714Y24638000D02*
X21934714Y24638000D01*
X21934714Y25000858D01*
X22297571Y25291143D02*
X22297571Y25545143D01*
X22696714Y25654000D02*
X22696714Y25291143D01*
X21934714Y25291143D01*
X21934714Y25654000D01*
X21934714Y25871715D02*
X21934714Y26307143D01*
X22696714Y26089429D02*
X21934714Y26089429D01*
X22696714Y26960286D02*
X22696714Y26524858D01*
X22696714Y26742572D02*
X21934714Y26742572D01*
X22043571Y26670000D01*
X22116142Y26597429D01*
X22152428Y26524858D01*
X41474571Y18959286D02*
X41474571Y19721286D01*
X41656000Y19721286D01*
X41764857Y19685000D01*
X41837428Y19612429D01*
X41873714Y19539858D01*
X41910000Y19394715D01*
X41910000Y19285858D01*
X41873714Y19140715D01*
X41837428Y19068143D01*
X41764857Y18995572D01*
X41656000Y18959286D01*
X41474571Y18959286D01*
X42200285Y19648715D02*
X42236571Y19685000D01*
X42309142Y19721286D01*
X42490571Y19721286D01*
X42563142Y19685000D01*
X42599428Y19648715D01*
X42635714Y19576143D01*
X42635714Y19503572D01*
X42599428Y19394715D01*
X42164000Y18959286D01*
X42635714Y18959286D01*
X14478000Y23531286D02*
X14224000Y23894143D01*
X14042571Y23531286D02*
X14042571Y24293286D01*
X14332857Y24293286D01*
X14405428Y24257000D01*
X14441714Y24220715D01*
X14478000Y24148143D01*
X14478000Y24039286D01*
X14441714Y23966715D01*
X14405428Y23930429D01*
X14332857Y23894143D01*
X14042571Y23894143D01*
X14732000Y24293286D02*
X15203714Y24293286D01*
X14949714Y24003000D01*
X15058571Y24003000D01*
X15131142Y23966715D01*
X15167428Y23930429D01*
X15203714Y23857858D01*
X15203714Y23676429D01*
X15167428Y23603858D01*
X15131142Y23567572D01*
X15058571Y23531286D01*
X14840857Y23531286D01*
X14768285Y23567572D01*
X14732000Y23603858D01*
X12573000Y6259286D02*
X12319000Y6622143D01*
X12137571Y6259286D02*
X12137571Y7021286D01*
X12427857Y7021286D01*
X12500428Y6985000D01*
X12536714Y6948715D01*
X12573000Y6876143D01*
X12573000Y6767286D01*
X12536714Y6694715D01*
X12500428Y6658429D01*
X12427857Y6622143D01*
X12137571Y6622143D01*
X12863285Y6948715D02*
X12899571Y6985000D01*
X12972142Y7021286D01*
X13153571Y7021286D01*
X13226142Y6985000D01*
X13262428Y6948715D01*
X13298714Y6876143D01*
X13298714Y6803572D01*
X13262428Y6694715D01*
X12827000Y6259286D01*
X13298714Y6259286D01*
X44069000Y46264286D02*
X43815000Y46627143D01*
X43633571Y46264286D02*
X43633571Y47026286D01*
X43923857Y47026286D01*
X43996428Y46990000D01*
X44032714Y46953715D01*
X44069000Y46881143D01*
X44069000Y46772286D01*
X44032714Y46699715D01*
X43996428Y46663429D01*
X43923857Y46627143D01*
X43633571Y46627143D01*
X44794714Y46264286D02*
X44359285Y46264286D01*
X44577000Y46264286D02*
X44577000Y47026286D01*
X44504428Y46917429D01*
X44431857Y46844858D01*
X44359285Y46808572D01*
X43978285Y48042286D02*
X43615428Y48042286D01*
X43615428Y48804286D01*
X44232285Y48441429D02*
X44486285Y48441429D01*
X44595142Y48042286D02*
X44232285Y48042286D01*
X44232285Y48804286D01*
X44595142Y48804286D01*
X44921714Y48042286D02*
X44921714Y48804286D01*
X45103142Y48804286D01*
X45212000Y48768000D01*
X45284571Y48695429D01*
X45320857Y48622858D01*
X45357142Y48477715D01*
X45357142Y48368858D01*
X45320857Y48223715D01*
X45284571Y48151143D01*
X45212000Y48078572D01*
X45103142Y48042286D01*
X44921714Y48042286D01*
X46082857Y48042286D02*
X45647428Y48042286D01*
X45865142Y48042286D02*
X45865142Y48804286D01*
X45792571Y48695429D01*
X45720000Y48622858D01*
X45647428Y48586572D01*
D20*
X22587857Y3610429D02*
X22527380Y3549953D01*
X22345952Y3489477D01*
X22225000Y3489477D01*
X22043571Y3549953D01*
X21922619Y3670905D01*
X21862142Y3791858D01*
X21801666Y4033762D01*
X21801666Y4215191D01*
X21862142Y4457096D01*
X21922619Y4578048D01*
X22043571Y4699000D01*
X22225000Y4759477D01*
X22345952Y4759477D01*
X22527380Y4699000D01*
X22587857Y4638524D01*
X23374047Y4759477D02*
X23615952Y4759477D01*
X23736904Y4699000D01*
X23857857Y4578048D01*
X23918333Y4336143D01*
X23918333Y3912810D01*
X23857857Y3670905D01*
X23736904Y3549953D01*
X23615952Y3489477D01*
X23374047Y3489477D01*
X23253095Y3549953D01*
X23132142Y3670905D01*
X23071666Y3912810D01*
X23071666Y4336143D01*
X23132142Y4578048D01*
X23253095Y4699000D01*
X23374047Y4759477D01*
X24462619Y3489477D02*
X24462619Y4759477D01*
X25188333Y3489477D01*
X25188333Y4759477D01*
X26458333Y3489477D02*
X25732619Y3489477D01*
X26095476Y3489477D02*
X26095476Y4759477D01*
X25974523Y4578048D01*
X25853571Y4457096D01*
X25732619Y4396620D01*
D19*
X17417142Y4989286D02*
X17163142Y5352143D01*
X16981714Y4989286D02*
X16981714Y5751286D01*
X17272000Y5751286D01*
X17344571Y5715000D01*
X17380857Y5678715D01*
X17417142Y5606143D01*
X17417142Y5497286D01*
X17380857Y5424715D01*
X17344571Y5388429D01*
X17272000Y5352143D01*
X16981714Y5352143D01*
X17671142Y5751286D02*
X18142857Y5751286D01*
X17888857Y5461000D01*
X17997714Y5461000D01*
X18070285Y5424715D01*
X18106571Y5388429D01*
X18142857Y5315858D01*
X18142857Y5134429D01*
X18106571Y5061858D01*
X18070285Y5025572D01*
X17997714Y4989286D01*
X17780000Y4989286D01*
X17707428Y5025572D01*
X17671142Y5061858D01*
X18396857Y5751286D02*
X18904857Y5751286D01*
X18578285Y4989286D01*
D11*
X50273857Y14054667D02*
X50322238Y14006286D01*
X50370619Y13861143D01*
X50370619Y13764381D01*
X50322238Y13619239D01*
X50225476Y13522477D01*
X50128714Y13474096D01*
X49935190Y13425715D01*
X49790047Y13425715D01*
X49596523Y13474096D01*
X49499761Y13522477D01*
X49403000Y13619239D01*
X49354619Y13764381D01*
X49354619Y13861143D01*
X49403000Y14006286D01*
X49451380Y14054667D01*
X49693285Y14925524D02*
X50370619Y14925524D01*
X49306238Y14683620D02*
X50031952Y14441715D01*
X50031952Y15070667D01*
X50273857Y16340667D02*
X50322238Y16292286D01*
X50370619Y16147143D01*
X50370619Y16050381D01*
X50322238Y15905239D01*
X50225476Y15808477D01*
X50128714Y15760096D01*
X49935190Y15711715D01*
X49790047Y15711715D01*
X49596523Y15760096D01*
X49499761Y15808477D01*
X49403000Y15905239D01*
X49354619Y16050381D01*
X49354619Y16147143D01*
X49403000Y16292286D01*
X49451380Y16340667D01*
X49354619Y16679334D02*
X49354619Y17308286D01*
X49741666Y16969620D01*
X49741666Y17114762D01*
X49790047Y17211524D01*
X49838428Y17259905D01*
X49935190Y17308286D01*
X50177095Y17308286D01*
X50273857Y17259905D01*
X50322238Y17211524D01*
X50370619Y17114762D01*
X50370619Y16824477D01*
X50322238Y16727715D01*
X50273857Y16679334D01*
D19*
X42635714Y14750143D02*
X42272857Y14496143D01*
X42635714Y14314715D02*
X41873714Y14314715D01*
X41873714Y14605000D01*
X41910000Y14677572D01*
X41946285Y14713858D01*
X42018857Y14750143D01*
X42127714Y14750143D01*
X42200285Y14713858D01*
X42236571Y14677572D01*
X42272857Y14605000D01*
X42272857Y14314715D01*
X41946285Y15040429D02*
X41910000Y15076715D01*
X41873714Y15149286D01*
X41873714Y15330715D01*
X41910000Y15403286D01*
X41946285Y15439572D01*
X42018857Y15475858D01*
X42091428Y15475858D01*
X42200285Y15439572D01*
X42635714Y15004143D01*
X42635714Y15475858D01*
X41873714Y15947572D02*
X41873714Y16020143D01*
X41910000Y16092715D01*
X41946285Y16129000D01*
X42018857Y16165286D01*
X42164000Y16201572D01*
X42345428Y16201572D01*
X42490571Y16165286D01*
X42563142Y16129000D01*
X42599428Y16092715D01*
X42635714Y16020143D01*
X42635714Y15947572D01*
X42599428Y15875000D01*
X42563142Y15838715D01*
X42490571Y15802429D01*
X42345428Y15766143D01*
X42164000Y15766143D01*
X42018857Y15802429D01*
X41946285Y15838715D01*
X41910000Y15875000D01*
X41873714Y15947572D01*
X48133000Y40168286D02*
X47879000Y40531143D01*
X47697571Y40168286D02*
X47697571Y40930286D01*
X47987857Y40930286D01*
X48060428Y40894000D01*
X48096714Y40857715D01*
X48133000Y40785143D01*
X48133000Y40676286D01*
X48096714Y40603715D01*
X48060428Y40567429D01*
X47987857Y40531143D01*
X47697571Y40531143D01*
X48786142Y40676286D02*
X48786142Y40168286D01*
X48604714Y40966572D02*
X48423285Y40422286D01*
X48895000Y40422286D01*
X9416142Y29246286D02*
X9162142Y29609143D01*
X8980714Y29246286D02*
X8980714Y30008286D01*
X9271000Y30008286D01*
X9343571Y29972000D01*
X9379857Y29935715D01*
X9416142Y29863143D01*
X9416142Y29754286D01*
X9379857Y29681715D01*
X9343571Y29645429D01*
X9271000Y29609143D01*
X8980714Y29609143D01*
X10069285Y29754286D02*
X10069285Y29246286D01*
X9887857Y30044572D02*
X9706428Y29500286D01*
X10178142Y29500286D01*
X10795000Y30008286D02*
X10649857Y30008286D01*
X10577285Y29972000D01*
X10541000Y29935715D01*
X10468428Y29826858D01*
X10432142Y29681715D01*
X10432142Y29391429D01*
X10468428Y29318858D01*
X10504714Y29282572D01*
X10577285Y29246286D01*
X10722428Y29246286D01*
X10795000Y29282572D01*
X10831285Y29318858D01*
X10867571Y29391429D01*
X10867571Y29572858D01*
X10831285Y29645429D01*
X10795000Y29681715D01*
X10722428Y29718000D01*
X10577285Y29718000D01*
X10504714Y29681715D01*
X10468428Y29645429D01*
X10432142Y29572858D01*
X9416142Y30516286D02*
X9162142Y30879143D01*
X8980714Y30516286D02*
X8980714Y31278286D01*
X9271000Y31278286D01*
X9343571Y31242000D01*
X9379857Y31205715D01*
X9416142Y31133143D01*
X9416142Y31024286D01*
X9379857Y30951715D01*
X9343571Y30915429D01*
X9271000Y30879143D01*
X8980714Y30879143D01*
X10069285Y31024286D02*
X10069285Y30516286D01*
X9887857Y31314572D02*
X9706428Y30770286D01*
X10178142Y30770286D01*
X10831285Y31278286D02*
X10468428Y31278286D01*
X10432142Y30915429D01*
X10468428Y30951715D01*
X10541000Y30988000D01*
X10722428Y30988000D01*
X10795000Y30951715D01*
X10831285Y30915429D01*
X10867571Y30842858D01*
X10867571Y30661429D01*
X10831285Y30588858D01*
X10795000Y30552572D01*
X10722428Y30516286D01*
X10541000Y30516286D01*
X10468428Y30552572D01*
X10432142Y30588858D01*
X24783142Y7275286D02*
X24529142Y7638143D01*
X24347714Y7275286D02*
X24347714Y8037286D01*
X24638000Y8037286D01*
X24710571Y8001000D01*
X24746857Y7964715D01*
X24783142Y7892143D01*
X24783142Y7783286D01*
X24746857Y7710715D01*
X24710571Y7674429D01*
X24638000Y7638143D01*
X24347714Y7638143D01*
X25436285Y7783286D02*
X25436285Y7275286D01*
X25254857Y8073572D02*
X25073428Y7529286D01*
X25545142Y7529286D01*
X25799142Y7964715D02*
X25835428Y8001000D01*
X25908000Y8037286D01*
X26089428Y8037286D01*
X26162000Y8001000D01*
X26198285Y7964715D01*
X26234571Y7892143D01*
X26234571Y7819572D01*
X26198285Y7710715D01*
X25762857Y7275286D01*
X26234571Y7275286D01*
X43706142Y26579286D02*
X43452142Y26942143D01*
X43270714Y26579286D02*
X43270714Y27341286D01*
X43561000Y27341286D01*
X43633571Y27305000D01*
X43669857Y27268715D01*
X43706142Y27196143D01*
X43706142Y27087286D01*
X43669857Y27014715D01*
X43633571Y26978429D01*
X43561000Y26942143D01*
X43270714Y26942143D01*
X43960142Y27341286D02*
X44431857Y27341286D01*
X44177857Y27051000D01*
X44286714Y27051000D01*
X44359285Y27014715D01*
X44395571Y26978429D01*
X44431857Y26905858D01*
X44431857Y26724429D01*
X44395571Y26651858D01*
X44359285Y26615572D01*
X44286714Y26579286D01*
X44069000Y26579286D01*
X43996428Y26615572D01*
X43960142Y26651858D01*
X44903571Y27341286D02*
X44976142Y27341286D01*
X45048714Y27305000D01*
X45085000Y27268715D01*
X45121285Y27196143D01*
X45157571Y27051000D01*
X45157571Y26869572D01*
X45121285Y26724429D01*
X45085000Y26651858D01*
X45048714Y26615572D01*
X44976142Y26579286D01*
X44903571Y26579286D01*
X44831000Y26615572D01*
X44794714Y26651858D01*
X44758428Y26724429D01*
X44722142Y26869572D01*
X44722142Y27051000D01*
X44758428Y27196143D01*
X44794714Y27268715D01*
X44831000Y27305000D01*
X44903571Y27341286D01*
X41220571Y23785286D02*
X41220571Y24547286D01*
X41402000Y24547286D01*
X41510857Y24511000D01*
X41583428Y24438429D01*
X41619714Y24365858D01*
X41656000Y24220715D01*
X41656000Y24111858D01*
X41619714Y23966715D01*
X41583428Y23894143D01*
X41510857Y23821572D01*
X41402000Y23785286D01*
X41220571Y23785286D01*
X42309142Y24547286D02*
X42164000Y24547286D01*
X42091428Y24511000D01*
X42055142Y24474715D01*
X41982571Y24365858D01*
X41946285Y24220715D01*
X41946285Y23930429D01*
X41982571Y23857858D01*
X42018857Y23821572D01*
X42091428Y23785286D01*
X42236571Y23785286D01*
X42309142Y23821572D01*
X42345428Y23857858D01*
X42381714Y23930429D01*
X42381714Y24111858D01*
X42345428Y24184429D01*
X42309142Y24220715D01*
X42236571Y24257000D01*
X42091428Y24257000D01*
X42018857Y24220715D01*
X41982571Y24184429D01*
X41946285Y24111858D01*
X34435142Y13697858D02*
X34398857Y13661572D01*
X34290000Y13625286D01*
X34217428Y13625286D01*
X34108571Y13661572D01*
X34036000Y13734143D01*
X33999714Y13806715D01*
X33963428Y13951858D01*
X33963428Y14060715D01*
X33999714Y14205858D01*
X34036000Y14278429D01*
X34108571Y14351000D01*
X34217428Y14387286D01*
X34290000Y14387286D01*
X34398857Y14351000D01*
X34435142Y14314715D01*
X34725428Y14314715D02*
X34761714Y14351000D01*
X34834285Y14387286D01*
X35015714Y14387286D01*
X35088285Y14351000D01*
X35124571Y14314715D01*
X35160857Y14242143D01*
X35160857Y14169572D01*
X35124571Y14060715D01*
X34689142Y13625286D01*
X35160857Y13625286D01*
X35814000Y14133286D02*
X35814000Y13625286D01*
X35632571Y14423572D02*
X35451142Y13879286D01*
X35922857Y13879286D01*
X36848142Y11792858D02*
X36811857Y11756572D01*
X36703000Y11720286D01*
X36630428Y11720286D01*
X36521571Y11756572D01*
X36449000Y11829143D01*
X36412714Y11901715D01*
X36376428Y12046858D01*
X36376428Y12155715D01*
X36412714Y12300858D01*
X36449000Y12373429D01*
X36521571Y12446000D01*
X36630428Y12482286D01*
X36703000Y12482286D01*
X36811857Y12446000D01*
X36848142Y12409715D01*
X37138428Y12409715D02*
X37174714Y12446000D01*
X37247285Y12482286D01*
X37428714Y12482286D01*
X37501285Y12446000D01*
X37537571Y12409715D01*
X37573857Y12337143D01*
X37573857Y12264572D01*
X37537571Y12155715D01*
X37102142Y11720286D01*
X37573857Y11720286D01*
X37827857Y12482286D02*
X38299571Y12482286D01*
X38045571Y12192000D01*
X38154428Y12192000D01*
X38227000Y12155715D01*
X38263285Y12119429D01*
X38299571Y12046858D01*
X38299571Y11865429D01*
X38263285Y11792858D01*
X38227000Y11756572D01*
X38154428Y11720286D01*
X37936714Y11720286D01*
X37864142Y11756572D01*
X37827857Y11792858D01*
X20973142Y51199143D02*
X21009428Y51162858D01*
X21045714Y51054000D01*
X21045714Y50981429D01*
X21009428Y50872572D01*
X20936857Y50800000D01*
X20864285Y50763715D01*
X20719142Y50727429D01*
X20610285Y50727429D01*
X20465142Y50763715D01*
X20392571Y50800000D01*
X20320000Y50872572D01*
X20283714Y50981429D01*
X20283714Y51054000D01*
X20320000Y51162858D01*
X20356285Y51199143D01*
X20356285Y51489429D02*
X20320000Y51525715D01*
X20283714Y51598286D01*
X20283714Y51779715D01*
X20320000Y51852286D01*
X20356285Y51888572D01*
X20428857Y51924858D01*
X20501428Y51924858D01*
X20610285Y51888572D01*
X21045714Y51453143D01*
X21045714Y51924858D01*
X20283714Y52396572D02*
X20283714Y52469143D01*
X20320000Y52541715D01*
X20356285Y52578000D01*
X20428857Y52614286D01*
X20574000Y52650572D01*
X20755428Y52650572D01*
X20900571Y52614286D01*
X20973142Y52578000D01*
X21009428Y52541715D01*
X21045714Y52469143D01*
X21045714Y52396572D01*
X21009428Y52324000D01*
X20973142Y52287715D01*
X20900571Y52251429D01*
X20755428Y52215143D01*
X20574000Y52215143D01*
X20428857Y52251429D01*
X20356285Y52287715D01*
X20320000Y52324000D01*
X20283714Y52396572D01*
X20973142Y43579143D02*
X21009428Y43542858D01*
X21045714Y43434000D01*
X21045714Y43361429D01*
X21009428Y43252572D01*
X20936857Y43180000D01*
X20864285Y43143715D01*
X20719142Y43107429D01*
X20610285Y43107429D01*
X20465142Y43143715D01*
X20392571Y43180000D01*
X20320000Y43252572D01*
X20283714Y43361429D01*
X20283714Y43434000D01*
X20320000Y43542858D01*
X20356285Y43579143D01*
X21045714Y44304858D02*
X21045714Y43869429D01*
X21045714Y44087143D02*
X20283714Y44087143D01*
X20392571Y44014572D01*
X20465142Y43942000D01*
X20501428Y43869429D01*
X21045714Y44667715D02*
X21045714Y44812858D01*
X21009428Y44885429D01*
X20973142Y44921715D01*
X20864285Y44994286D01*
X20719142Y45030572D01*
X20428857Y45030572D01*
X20356285Y44994286D01*
X20320000Y44958000D01*
X20283714Y44885429D01*
X20283714Y44740286D01*
X20320000Y44667715D01*
X20356285Y44631429D01*
X20428857Y44595143D01*
X20610285Y44595143D01*
X20682857Y44631429D01*
X20719142Y44667715D01*
X20755428Y44740286D01*
X20755428Y44885429D01*
X20719142Y44958000D01*
X20682857Y44994286D01*
X20610285Y45030572D01*
X18687142Y18324286D02*
X18433142Y18687143D01*
X18251714Y18324286D02*
X18251714Y19086286D01*
X18542000Y19086286D01*
X18614571Y19050000D01*
X18650857Y19013715D01*
X18687142Y18941143D01*
X18687142Y18832286D01*
X18650857Y18759715D01*
X18614571Y18723429D01*
X18542000Y18687143D01*
X18251714Y18687143D01*
X19340285Y18832286D02*
X19340285Y18324286D01*
X19158857Y19122572D02*
X18977428Y18578286D01*
X19449142Y18578286D01*
X19666857Y19086286D02*
X20138571Y19086286D01*
X19884571Y18796000D01*
X19993428Y18796000D01*
X20066000Y18759715D01*
X20102285Y18723429D01*
X20138571Y18650858D01*
X20138571Y18469429D01*
X20102285Y18396858D01*
X20066000Y18360572D01*
X19993428Y18324286D01*
X19775714Y18324286D01*
X19703142Y18360572D01*
X19666857Y18396858D01*
X24783142Y8545286D02*
X24529142Y8908143D01*
X24347714Y8545286D02*
X24347714Y9307286D01*
X24638000Y9307286D01*
X24710571Y9271000D01*
X24746857Y9234715D01*
X24783142Y9162143D01*
X24783142Y9053286D01*
X24746857Y8980715D01*
X24710571Y8944429D01*
X24638000Y8908143D01*
X24347714Y8908143D01*
X25436285Y9053286D02*
X25436285Y8545286D01*
X25254857Y9343572D02*
X25073428Y8799286D01*
X25545142Y8799286D01*
X26234571Y8545286D02*
X25799142Y8545286D01*
X26016857Y8545286D02*
X26016857Y9307286D01*
X25944285Y9198429D01*
X25871714Y9125858D01*
X25799142Y9089572D01*
X41238714Y13480143D02*
X40875857Y13226143D01*
X41238714Y13044715D02*
X40476714Y13044715D01*
X40476714Y13335000D01*
X40513000Y13407572D01*
X40549285Y13443858D01*
X40621857Y13480143D01*
X40730714Y13480143D01*
X40803285Y13443858D01*
X40839571Y13407572D01*
X40875857Y13335000D01*
X40875857Y13044715D01*
X40730714Y14133286D02*
X41238714Y14133286D01*
X40440428Y13951858D02*
X40984714Y13770429D01*
X40984714Y14242143D01*
X40476714Y14677572D02*
X40476714Y14750143D01*
X40513000Y14822715D01*
X40549285Y14859000D01*
X40621857Y14895286D01*
X40767000Y14931572D01*
X40948428Y14931572D01*
X41093571Y14895286D01*
X41166142Y14859000D01*
X41202428Y14822715D01*
X41238714Y14750143D01*
X41238714Y14677572D01*
X41202428Y14605000D01*
X41166142Y14568715D01*
X41093571Y14532429D01*
X40948428Y14496143D01*
X40767000Y14496143D01*
X40621857Y14532429D01*
X40549285Y14568715D01*
X40513000Y14605000D01*
X40476714Y14677572D01*
X38499142Y28611286D02*
X38245142Y28974143D01*
X38063714Y28611286D02*
X38063714Y29373286D01*
X38354000Y29373286D01*
X38426571Y29337000D01*
X38462857Y29300715D01*
X38499142Y29228143D01*
X38499142Y29119286D01*
X38462857Y29046715D01*
X38426571Y29010429D01*
X38354000Y28974143D01*
X38063714Y28974143D01*
X38753142Y29373286D02*
X39224857Y29373286D01*
X38970857Y29083000D01*
X39079714Y29083000D01*
X39152285Y29046715D01*
X39188571Y29010429D01*
X39224857Y28937858D01*
X39224857Y28756429D01*
X39188571Y28683858D01*
X39152285Y28647572D01*
X39079714Y28611286D01*
X38862000Y28611286D01*
X38789428Y28647572D01*
X38753142Y28683858D01*
X39660285Y29046715D02*
X39587714Y29083000D01*
X39551428Y29119286D01*
X39515142Y29191858D01*
X39515142Y29228143D01*
X39551428Y29300715D01*
X39587714Y29337000D01*
X39660285Y29373286D01*
X39805428Y29373286D01*
X39878000Y29337000D01*
X39914285Y29300715D01*
X39950571Y29228143D01*
X39950571Y29191858D01*
X39914285Y29119286D01*
X39878000Y29083000D01*
X39805428Y29046715D01*
X39660285Y29046715D01*
X39587714Y29010429D01*
X39551428Y28974143D01*
X39515142Y28901572D01*
X39515142Y28756429D01*
X39551428Y28683858D01*
X39587714Y28647572D01*
X39660285Y28611286D01*
X39805428Y28611286D01*
X39878000Y28647572D01*
X39914285Y28683858D01*
X39950571Y28756429D01*
X39950571Y28901572D01*
X39914285Y28974143D01*
X39878000Y29010429D01*
X39805428Y29046715D01*
X42381714Y49040143D02*
X42018857Y48786143D01*
X42381714Y48604715D02*
X41619714Y48604715D01*
X41619714Y48895000D01*
X41656000Y48967572D01*
X41692285Y49003858D01*
X41764857Y49040143D01*
X41873714Y49040143D01*
X41946285Y49003858D01*
X41982571Y48967572D01*
X42018857Y48895000D01*
X42018857Y48604715D01*
X41692285Y49330429D02*
X41656000Y49366715D01*
X41619714Y49439286D01*
X41619714Y49620715D01*
X41656000Y49693286D01*
X41692285Y49729572D01*
X41764857Y49765858D01*
X41837428Y49765858D01*
X41946285Y49729572D01*
X42381714Y49294143D01*
X42381714Y49765858D01*
X41619714Y50019858D02*
X41619714Y50527858D01*
X42381714Y50201286D01*
X21680714Y59073143D02*
X21317857Y58819143D01*
X21680714Y58637715D02*
X20918714Y58637715D01*
X20918714Y58928000D01*
X20955000Y59000572D01*
X20991285Y59036858D01*
X21063857Y59073143D01*
X21172714Y59073143D01*
X21245285Y59036858D01*
X21281571Y59000572D01*
X21317857Y58928000D01*
X21317857Y58637715D01*
X20991285Y59363429D02*
X20955000Y59399715D01*
X20918714Y59472286D01*
X20918714Y59653715D01*
X20955000Y59726286D01*
X20991285Y59762572D01*
X21063857Y59798858D01*
X21136428Y59798858D01*
X21245285Y59762572D01*
X21680714Y59327143D01*
X21680714Y59798858D01*
X20918714Y60452000D02*
X20918714Y60306858D01*
X20955000Y60234286D01*
X20991285Y60198000D01*
X21100142Y60125429D01*
X21245285Y60089143D01*
X21535571Y60089143D01*
X21608142Y60125429D01*
X21644428Y60161715D01*
X21680714Y60234286D01*
X21680714Y60379429D01*
X21644428Y60452000D01*
X21608142Y60488286D01*
X21535571Y60524572D01*
X21354142Y60524572D01*
X21281571Y60488286D01*
X21245285Y60452000D01*
X21209000Y60379429D01*
X21209000Y60234286D01*
X21245285Y60161715D01*
X21281571Y60125429D01*
X21354142Y60089143D01*
X9543142Y27468286D02*
X9289142Y27831143D01*
X9107714Y27468286D02*
X9107714Y28230286D01*
X9398000Y28230286D01*
X9470571Y28194000D01*
X9506857Y28157715D01*
X9543142Y28085143D01*
X9543142Y27976286D01*
X9506857Y27903715D01*
X9470571Y27867429D01*
X9398000Y27831143D01*
X9107714Y27831143D01*
X9833428Y28157715D02*
X9869714Y28194000D01*
X9942285Y28230286D01*
X10123714Y28230286D01*
X10196285Y28194000D01*
X10232571Y28157715D01*
X10268857Y28085143D01*
X10268857Y28012572D01*
X10232571Y27903715D01*
X9797142Y27468286D01*
X10268857Y27468286D01*
X10922000Y27976286D02*
X10922000Y27468286D01*
X10740571Y28266572D02*
X10559142Y27722286D01*
X11030857Y27722286D01*
X9543142Y24293286D02*
X9289142Y24656143D01*
X9107714Y24293286D02*
X9107714Y25055286D01*
X9398000Y25055286D01*
X9470571Y25019000D01*
X9506857Y24982715D01*
X9543142Y24910143D01*
X9543142Y24801286D01*
X9506857Y24728715D01*
X9470571Y24692429D01*
X9398000Y24656143D01*
X9107714Y24656143D01*
X10268857Y24293286D02*
X9833428Y24293286D01*
X10051142Y24293286D02*
X10051142Y25055286D01*
X9978571Y24946429D01*
X9906000Y24873858D01*
X9833428Y24837572D01*
X10922000Y25055286D02*
X10776857Y25055286D01*
X10704285Y25019000D01*
X10668000Y24982715D01*
X10595428Y24873858D01*
X10559142Y24728715D01*
X10559142Y24438429D01*
X10595428Y24365858D01*
X10631714Y24329572D01*
X10704285Y24293286D01*
X10849428Y24293286D01*
X10922000Y24329572D01*
X10958285Y24365858D01*
X10994571Y24438429D01*
X10994571Y24619858D01*
X10958285Y24692429D01*
X10922000Y24728715D01*
X10849428Y24765000D01*
X10704285Y24765000D01*
X10631714Y24728715D01*
X10595428Y24692429D01*
X10559142Y24619858D01*
X9416142Y33437286D02*
X9162142Y33800143D01*
X8980714Y33437286D02*
X8980714Y34199286D01*
X9271000Y34199286D01*
X9343571Y34163000D01*
X9379857Y34126715D01*
X9416142Y34054143D01*
X9416142Y33945286D01*
X9379857Y33872715D01*
X9343571Y33836429D01*
X9271000Y33800143D01*
X8980714Y33800143D01*
X10141857Y33437286D02*
X9706428Y33437286D01*
X9924142Y33437286D02*
X9924142Y34199286D01*
X9851571Y34090429D01*
X9779000Y34017858D01*
X9706428Y33981572D01*
X10795000Y33945286D02*
X10795000Y33437286D01*
X10613571Y34235572D02*
X10432142Y33691286D01*
X10903857Y33691286D01*
X43561000Y44740286D02*
X43561000Y45502286D01*
X43851285Y45502286D01*
X43923857Y45466000D01*
X43960142Y45429715D01*
X43996428Y45357143D01*
X43996428Y45248286D01*
X43960142Y45175715D01*
X43923857Y45139429D01*
X43851285Y45103143D01*
X43561000Y45103143D01*
X44250428Y45502286D02*
X44431857Y44740286D01*
X44577000Y45284572D01*
X44722142Y44740286D01*
X44903571Y45502286D01*
X45629285Y44740286D02*
X45375285Y45103143D01*
X45193857Y44740286D02*
X45193857Y45502286D01*
X45484142Y45502286D01*
X45556714Y45466000D01*
X45593000Y45429715D01*
X45629285Y45357143D01*
X45629285Y45248286D01*
X45593000Y45175715D01*
X45556714Y45139429D01*
X45484142Y45103143D01*
X45193857Y45103143D01*
X46318714Y44740286D02*
X45955857Y44740286D01*
X45955857Y45502286D01*
X46572714Y45139429D02*
X46826714Y45139429D01*
X46935571Y44740286D02*
X46572714Y44740286D01*
X46572714Y45502286D01*
X46935571Y45502286D01*
X47262142Y44740286D02*
X47262142Y45502286D01*
X47443571Y45502286D01*
X47552428Y45466000D01*
X47625000Y45393429D01*
X47661285Y45320858D01*
X47697571Y45175715D01*
X47697571Y45066858D01*
X47661285Y44921715D01*
X47625000Y44849143D01*
X47552428Y44776572D01*
X47443571Y44740286D01*
X47262142Y44740286D01*
X48423285Y44740286D02*
X47987857Y44740286D01*
X48205571Y44740286D02*
X48205571Y45502286D01*
X48133000Y45393429D01*
X48060428Y45320858D01*
X47987857Y45284572D01*
X47951571Y50292000D02*
X47879000Y50328286D01*
X47770142Y50328286D01*
X47661285Y50292000D01*
X47588714Y50219429D01*
X47552428Y50146858D01*
X47516142Y50001715D01*
X47516142Y49892858D01*
X47552428Y49747715D01*
X47588714Y49675143D01*
X47661285Y49602572D01*
X47770142Y49566286D01*
X47842714Y49566286D01*
X47951571Y49602572D01*
X47987857Y49638858D01*
X47987857Y49892858D01*
X47842714Y49892858D01*
X48314428Y49566286D02*
X48314428Y50328286D01*
X48749857Y49566286D01*
X48749857Y50328286D01*
X49112714Y49566286D02*
X49112714Y50328286D01*
X49294142Y50328286D01*
X49403000Y50292000D01*
X49475571Y50219429D01*
X49511857Y50146858D01*
X49548142Y50001715D01*
X49548142Y49892858D01*
X49511857Y49747715D01*
X49475571Y49675143D01*
X49403000Y49602572D01*
X49294142Y49566286D01*
X49112714Y49566286D01*
X50273857Y49566286D02*
X49838428Y49566286D01*
X50056142Y49566286D02*
X50056142Y50328286D01*
X49983571Y50219429D01*
X49911000Y50146858D01*
X49838428Y50110572D01*
X37229142Y31858858D02*
X37192857Y31822572D01*
X37084000Y31786286D01*
X37011428Y31786286D01*
X36902571Y31822572D01*
X36830000Y31895143D01*
X36793714Y31967715D01*
X36757428Y32112858D01*
X36757428Y32221715D01*
X36793714Y32366858D01*
X36830000Y32439429D01*
X36902571Y32512000D01*
X37011428Y32548286D01*
X37084000Y32548286D01*
X37192857Y32512000D01*
X37229142Y32475715D01*
X37954857Y31786286D02*
X37519428Y31786286D01*
X37737142Y31786286D02*
X37737142Y32548286D01*
X37664571Y32439429D01*
X37592000Y32366858D01*
X37519428Y32330572D01*
X38390285Y32221715D02*
X38317714Y32258000D01*
X38281428Y32294286D01*
X38245142Y32366858D01*
X38245142Y32403143D01*
X38281428Y32475715D01*
X38317714Y32512000D01*
X38390285Y32548286D01*
X38535428Y32548286D01*
X38608000Y32512000D01*
X38644285Y32475715D01*
X38680571Y32403143D01*
X38680571Y32366858D01*
X38644285Y32294286D01*
X38608000Y32258000D01*
X38535428Y32221715D01*
X38390285Y32221715D01*
X38317714Y32185429D01*
X38281428Y32149143D01*
X38245142Y32076572D01*
X38245142Y31931429D01*
X38281428Y31858858D01*
X38317714Y31822572D01*
X38390285Y31786286D01*
X38535428Y31786286D01*
X38608000Y31822572D01*
X38644285Y31858858D01*
X38680571Y31931429D01*
X38680571Y32076572D01*
X38644285Y32149143D01*
X38608000Y32185429D01*
X38535428Y32221715D01*
X26688142Y29990143D02*
X26724428Y29953858D01*
X26760714Y29845000D01*
X26760714Y29772429D01*
X26724428Y29663572D01*
X26651857Y29591000D01*
X26579285Y29554715D01*
X26434142Y29518429D01*
X26325285Y29518429D01*
X26180142Y29554715D01*
X26107571Y29591000D01*
X26035000Y29663572D01*
X25998714Y29772429D01*
X25998714Y29845000D01*
X26035000Y29953858D01*
X26071285Y29990143D01*
X26760714Y30715858D02*
X26760714Y30280429D01*
X26760714Y30498143D02*
X25998714Y30498143D01*
X26107571Y30425572D01*
X26180142Y30353000D01*
X26216428Y30280429D01*
X25998714Y30969858D02*
X25998714Y31477858D01*
X26760714Y31151286D01*
X23640142Y27540858D02*
X23603857Y27504572D01*
X23495000Y27468286D01*
X23422428Y27468286D01*
X23313571Y27504572D01*
X23241000Y27577143D01*
X23204714Y27649715D01*
X23168428Y27794858D01*
X23168428Y27903715D01*
X23204714Y28048858D01*
X23241000Y28121429D01*
X23313571Y28194000D01*
X23422428Y28230286D01*
X23495000Y28230286D01*
X23603857Y28194000D01*
X23640142Y28157715D01*
X24365857Y27468286D02*
X23930428Y27468286D01*
X24148142Y27468286D02*
X24148142Y28230286D01*
X24075571Y28121429D01*
X24003000Y28048858D01*
X23930428Y28012572D01*
X25019000Y28230286D02*
X24873857Y28230286D01*
X24801285Y28194000D01*
X24765000Y28157715D01*
X24692428Y28048858D01*
X24656142Y27903715D01*
X24656142Y27613429D01*
X24692428Y27540858D01*
X24728714Y27504572D01*
X24801285Y27468286D01*
X24946428Y27468286D01*
X25019000Y27504572D01*
X25055285Y27540858D01*
X25091571Y27613429D01*
X25091571Y27794858D01*
X25055285Y27867429D01*
X25019000Y27903715D01*
X24946428Y27940000D01*
X24801285Y27940000D01*
X24728714Y27903715D01*
X24692428Y27867429D01*
X24656142Y27794858D01*
X23513142Y32493858D02*
X23476857Y32457572D01*
X23368000Y32421286D01*
X23295428Y32421286D01*
X23186571Y32457572D01*
X23114000Y32530143D01*
X23077714Y32602715D01*
X23041428Y32747858D01*
X23041428Y32856715D01*
X23077714Y33001858D01*
X23114000Y33074429D01*
X23186571Y33147000D01*
X23295428Y33183286D01*
X23368000Y33183286D01*
X23476857Y33147000D01*
X23513142Y33110715D01*
X24238857Y32421286D02*
X23803428Y32421286D01*
X24021142Y32421286D02*
X24021142Y33183286D01*
X23948571Y33074429D01*
X23876000Y33001858D01*
X23803428Y32965572D01*
X24928285Y33183286D02*
X24565428Y33183286D01*
X24529142Y32820429D01*
X24565428Y32856715D01*
X24638000Y32893000D01*
X24819428Y32893000D01*
X24892000Y32856715D01*
X24928285Y32820429D01*
X24964571Y32747858D01*
X24964571Y32566429D01*
X24928285Y32493858D01*
X24892000Y32457572D01*
X24819428Y32421286D01*
X24638000Y32421286D01*
X24565428Y32457572D01*
X24529142Y32493858D01*
X37737142Y34398858D02*
X37700857Y34362572D01*
X37592000Y34326286D01*
X37519428Y34326286D01*
X37410571Y34362572D01*
X37338000Y34435143D01*
X37301714Y34507715D01*
X37265428Y34652858D01*
X37265428Y34761715D01*
X37301714Y34906858D01*
X37338000Y34979429D01*
X37410571Y35052000D01*
X37519428Y35088286D01*
X37592000Y35088286D01*
X37700857Y35052000D01*
X37737142Y35015715D01*
X38462857Y34326286D02*
X38027428Y34326286D01*
X38245142Y34326286D02*
X38245142Y35088286D01*
X38172571Y34979429D01*
X38100000Y34906858D01*
X38027428Y34870572D01*
X39116000Y34834286D02*
X39116000Y34326286D01*
X38934571Y35124572D02*
X38753142Y34580286D01*
X39224857Y34580286D01*
X27831142Y22587858D02*
X27794857Y22551572D01*
X27686000Y22515286D01*
X27613428Y22515286D01*
X27504571Y22551572D01*
X27432000Y22624143D01*
X27395714Y22696715D01*
X27359428Y22841858D01*
X27359428Y22950715D01*
X27395714Y23095858D01*
X27432000Y23168429D01*
X27504571Y23241000D01*
X27613428Y23277286D01*
X27686000Y23277286D01*
X27794857Y23241000D01*
X27831142Y23204715D01*
X28556857Y22515286D02*
X28121428Y22515286D01*
X28339142Y22515286D02*
X28339142Y23277286D01*
X28266571Y23168429D01*
X28194000Y23095858D01*
X28121428Y23059572D01*
X28810857Y23277286D02*
X29282571Y23277286D01*
X29028571Y22987000D01*
X29137428Y22987000D01*
X29210000Y22950715D01*
X29246285Y22914429D01*
X29282571Y22841858D01*
X29282571Y22660429D01*
X29246285Y22587858D01*
X29210000Y22551572D01*
X29137428Y22515286D01*
X28919714Y22515286D01*
X28847142Y22551572D01*
X28810857Y22587858D01*
X39388142Y22587858D02*
X39351857Y22551572D01*
X39243000Y22515286D01*
X39170428Y22515286D01*
X39061571Y22551572D01*
X38989000Y22624143D01*
X38952714Y22696715D01*
X38916428Y22841858D01*
X38916428Y22950715D01*
X38952714Y23095858D01*
X38989000Y23168429D01*
X39061571Y23241000D01*
X39170428Y23277286D01*
X39243000Y23277286D01*
X39351857Y23241000D01*
X39388142Y23204715D01*
X40113857Y22515286D02*
X39678428Y22515286D01*
X39896142Y22515286D02*
X39896142Y23277286D01*
X39823571Y23168429D01*
X39751000Y23095858D01*
X39678428Y23059572D01*
X40404142Y23204715D02*
X40440428Y23241000D01*
X40513000Y23277286D01*
X40694428Y23277286D01*
X40767000Y23241000D01*
X40803285Y23204715D01*
X40839571Y23132143D01*
X40839571Y23059572D01*
X40803285Y22950715D01*
X40367857Y22515286D01*
X40839571Y22515286D01*
X39769142Y36340143D02*
X39805428Y36303858D01*
X39841714Y36195000D01*
X39841714Y36122429D01*
X39805428Y36013572D01*
X39732857Y35941000D01*
X39660285Y35904715D01*
X39515142Y35868429D01*
X39406285Y35868429D01*
X39261142Y35904715D01*
X39188571Y35941000D01*
X39116000Y36013572D01*
X39079714Y36122429D01*
X39079714Y36195000D01*
X39116000Y36303858D01*
X39152285Y36340143D01*
X39841714Y37065858D02*
X39841714Y36630429D01*
X39841714Y36848143D02*
X39079714Y36848143D01*
X39188571Y36775572D01*
X39261142Y36703000D01*
X39297428Y36630429D01*
X39841714Y37791572D02*
X39841714Y37356143D01*
X39841714Y37573858D02*
X39079714Y37573858D01*
X39188571Y37501286D01*
X39261142Y37428715D01*
X39297428Y37356143D01*
X19068142Y15983858D02*
X19031857Y15947572D01*
X18923000Y15911286D01*
X18850428Y15911286D01*
X18741571Y15947572D01*
X18669000Y16020143D01*
X18632714Y16092715D01*
X18596428Y16237858D01*
X18596428Y16346715D01*
X18632714Y16491858D01*
X18669000Y16564429D01*
X18741571Y16637000D01*
X18850428Y16673286D01*
X18923000Y16673286D01*
X19031857Y16637000D01*
X19068142Y16600715D01*
X19793857Y15911286D02*
X19358428Y15911286D01*
X19576142Y15911286D02*
X19576142Y16673286D01*
X19503571Y16564429D01*
X19431000Y16491858D01*
X19358428Y16455572D01*
X20265571Y16673286D02*
X20338142Y16673286D01*
X20410714Y16637000D01*
X20447000Y16600715D01*
X20483285Y16528143D01*
X20519571Y16383000D01*
X20519571Y16201572D01*
X20483285Y16056429D01*
X20447000Y15983858D01*
X20410714Y15947572D01*
X20338142Y15911286D01*
X20265571Y15911286D01*
X20193000Y15947572D01*
X20156714Y15983858D01*
X20120428Y16056429D01*
X20084142Y16201572D01*
X20084142Y16383000D01*
X20120428Y16528143D01*
X20156714Y16600715D01*
X20193000Y16637000D01*
X20265571Y16673286D01*
X33782000Y22587858D02*
X33745714Y22551572D01*
X33636857Y22515286D01*
X33564285Y22515286D01*
X33455428Y22551572D01*
X33382857Y22624143D01*
X33346571Y22696715D01*
X33310285Y22841858D01*
X33310285Y22950715D01*
X33346571Y23095858D01*
X33382857Y23168429D01*
X33455428Y23241000D01*
X33564285Y23277286D01*
X33636857Y23277286D01*
X33745714Y23241000D01*
X33782000Y23204715D01*
X34144857Y22515286D02*
X34290000Y22515286D01*
X34362571Y22551572D01*
X34398857Y22587858D01*
X34471428Y22696715D01*
X34507714Y22841858D01*
X34507714Y23132143D01*
X34471428Y23204715D01*
X34435142Y23241000D01*
X34362571Y23277286D01*
X34217428Y23277286D01*
X34144857Y23241000D01*
X34108571Y23204715D01*
X34072285Y23132143D01*
X34072285Y22950715D01*
X34108571Y22878143D01*
X34144857Y22841858D01*
X34217428Y22805572D01*
X34362571Y22805572D01*
X34435142Y22841858D01*
X34471428Y22878143D01*
X34507714Y22950715D01*
X35433000Y22587858D02*
X35396714Y22551572D01*
X35287857Y22515286D01*
X35215285Y22515286D01*
X35106428Y22551572D01*
X35033857Y22624143D01*
X34997571Y22696715D01*
X34961285Y22841858D01*
X34961285Y22950715D01*
X34997571Y23095858D01*
X35033857Y23168429D01*
X35106428Y23241000D01*
X35215285Y23277286D01*
X35287857Y23277286D01*
X35396714Y23241000D01*
X35433000Y23204715D01*
X35868428Y22950715D02*
X35795857Y22987000D01*
X35759571Y23023286D01*
X35723285Y23095858D01*
X35723285Y23132143D01*
X35759571Y23204715D01*
X35795857Y23241000D01*
X35868428Y23277286D01*
X36013571Y23277286D01*
X36086142Y23241000D01*
X36122428Y23204715D01*
X36158714Y23132143D01*
X36158714Y23095858D01*
X36122428Y23023286D01*
X36086142Y22987000D01*
X36013571Y22950715D01*
X35868428Y22950715D01*
X35795857Y22914429D01*
X35759571Y22878143D01*
X35723285Y22805572D01*
X35723285Y22660429D01*
X35759571Y22587858D01*
X35795857Y22551572D01*
X35868428Y22515286D01*
X36013571Y22515286D01*
X36086142Y22551572D01*
X36122428Y22587858D01*
X36158714Y22660429D01*
X36158714Y22805572D01*
X36122428Y22878143D01*
X36086142Y22914429D01*
X36013571Y22950715D01*
X42309142Y8001000D02*
X42345428Y7964715D01*
X42381714Y7855858D01*
X42381714Y7783286D01*
X42345428Y7674429D01*
X42272857Y7601858D01*
X42200285Y7565572D01*
X42055142Y7529286D01*
X41946285Y7529286D01*
X41801142Y7565572D01*
X41728571Y7601858D01*
X41656000Y7674429D01*
X41619714Y7783286D01*
X41619714Y7855858D01*
X41656000Y7964715D01*
X41692285Y8001000D01*
X42381714Y8726715D02*
X42381714Y8291286D01*
X42381714Y8509000D02*
X41619714Y8509000D01*
X41728571Y8436429D01*
X41801142Y8363858D01*
X41837428Y8291286D01*
X19177000Y13752286D02*
X18814142Y13752286D01*
X18814142Y14514286D01*
X19757571Y14260286D02*
X19757571Y13752286D01*
X19576142Y14550572D02*
X19394714Y14006286D01*
X19866428Y14006286D01*
X22533428Y6948715D02*
X22460857Y6985000D01*
X22388285Y7057572D01*
X22279428Y7166429D01*
X22206857Y7202715D01*
X22134285Y7202715D01*
X22170571Y7021286D02*
X22098000Y7057572D01*
X22025428Y7130143D01*
X21989142Y7275286D01*
X21989142Y7529286D01*
X22025428Y7674429D01*
X22098000Y7747000D01*
X22170571Y7783286D01*
X22315714Y7783286D01*
X22388285Y7747000D01*
X22460857Y7674429D01*
X22497142Y7529286D01*
X22497142Y7275286D01*
X22460857Y7130143D01*
X22388285Y7057572D01*
X22315714Y7021286D01*
X22170571Y7021286D01*
X23186571Y7783286D02*
X22823714Y7783286D01*
X22787428Y7420429D01*
X22823714Y7456715D01*
X22896285Y7493000D01*
X23077714Y7493000D01*
X23150285Y7456715D01*
X23186571Y7420429D01*
X23222857Y7347858D01*
X23222857Y7166429D01*
X23186571Y7093858D01*
X23150285Y7057572D01*
X23077714Y7021286D01*
X22896285Y7021286D01*
X22823714Y7057572D01*
X22787428Y7093858D01*
X21898428Y14949715D02*
X21825857Y14986000D01*
X21753285Y15058572D01*
X21644428Y15167429D01*
X21571857Y15203715D01*
X21499285Y15203715D01*
X21535571Y15022286D02*
X21463000Y15058572D01*
X21390428Y15131143D01*
X21354142Y15276286D01*
X21354142Y15530286D01*
X21390428Y15675429D01*
X21463000Y15748000D01*
X21535571Y15784286D01*
X21680714Y15784286D01*
X21753285Y15748000D01*
X21825857Y15675429D01*
X21862142Y15530286D01*
X21862142Y15276286D01*
X21825857Y15131143D01*
X21753285Y15058572D01*
X21680714Y15022286D01*
X21535571Y15022286D01*
X22515285Y15530286D02*
X22515285Y15022286D01*
X22333857Y15820572D02*
X22152428Y15276286D01*
X22624142Y15276286D01*
D11*
X49170166Y8303381D02*
X48686357Y8303381D01*
X48686357Y9319381D01*
X49460452Y9222620D02*
X49508833Y9271000D01*
X49605595Y9319381D01*
X49847500Y9319381D01*
X49944261Y9271000D01*
X49992642Y9222620D01*
X50041023Y9125858D01*
X50041023Y9029096D01*
X49992642Y8883953D01*
X49412071Y8303381D01*
X50041023Y8303381D01*
D19*
X49983571Y25400000D02*
X49983571Y25146000D01*
X50382714Y25146000D02*
X49620714Y25146000D01*
X49620714Y25508858D01*
X49983571Y25799143D02*
X49983571Y26053143D01*
X50382714Y26162000D02*
X50382714Y25799143D01*
X49620714Y25799143D01*
X49620714Y26162000D01*
X49620714Y26379715D02*
X49620714Y26815143D01*
X50382714Y26597429D02*
X49620714Y26597429D01*
X49693285Y27032858D02*
X49657000Y27069143D01*
X49620714Y27141715D01*
X49620714Y27323143D01*
X49657000Y27395715D01*
X49693285Y27432000D01*
X49765857Y27468286D01*
X49838428Y27468286D01*
X49947285Y27432000D01*
X50382714Y26996572D01*
X50382714Y27468286D01*
X37719000Y22515286D02*
X37356142Y22515286D01*
X37356142Y23277286D01*
X37900428Y23277286D02*
X38372142Y23277286D01*
X38118142Y22987000D01*
X38227000Y22987000D01*
X38299571Y22950715D01*
X38335857Y22914429D01*
X38372142Y22841858D01*
X38372142Y22660429D01*
X38335857Y22587858D01*
X38299571Y22551572D01*
X38227000Y22515286D01*
X38009285Y22515286D01*
X37936714Y22551572D01*
X37900428Y22587858D01*
X30806571Y22515286D02*
X30552571Y22878143D01*
X30371142Y22515286D02*
X30371142Y23277286D01*
X30661428Y23277286D01*
X30734000Y23241000D01*
X30770285Y23204715D01*
X30806571Y23132143D01*
X30806571Y23023286D01*
X30770285Y22950715D01*
X30734000Y22914429D01*
X30661428Y22878143D01*
X30371142Y22878143D01*
X31133142Y22515286D02*
X31133142Y23277286D01*
X31387142Y22733000D01*
X31641142Y23277286D01*
X31641142Y22515286D01*
X31931428Y23277286D02*
X32403142Y23277286D01*
X32149142Y22987000D01*
X32258000Y22987000D01*
X32330571Y22950715D01*
X32366857Y22914429D01*
X32403142Y22841858D01*
X32403142Y22660429D01*
X32366857Y22587858D01*
X32330571Y22551572D01*
X32258000Y22515286D01*
X32040285Y22515286D01*
X31967714Y22551572D01*
X31931428Y22587858D01*
X23821571Y22515286D02*
X23567571Y22878143D01*
X23386142Y22515286D02*
X23386142Y23277286D01*
X23676428Y23277286D01*
X23749000Y23241000D01*
X23785285Y23204715D01*
X23821571Y23132143D01*
X23821571Y23023286D01*
X23785285Y22950715D01*
X23749000Y22914429D01*
X23676428Y22878143D01*
X23386142Y22878143D01*
X24148142Y22515286D02*
X24148142Y23277286D01*
X24402142Y22733000D01*
X24656142Y23277286D01*
X24656142Y22515286D01*
X24982714Y23204715D02*
X25019000Y23241000D01*
X25091571Y23277286D01*
X25273000Y23277286D01*
X25345571Y23241000D01*
X25381857Y23204715D01*
X25418142Y23132143D01*
X25418142Y23059572D01*
X25381857Y22950715D01*
X24946428Y22515286D01*
X25418142Y22515286D01*
D11*
X1602619Y27788810D02*
X1118809Y27450143D01*
X1602619Y27208239D02*
X586619Y27208239D01*
X586619Y27595286D01*
X635000Y27692048D01*
X683380Y27740429D01*
X780142Y27788810D01*
X925285Y27788810D01*
X1022047Y27740429D01*
X1070428Y27692048D01*
X1118809Y27595286D01*
X1118809Y27208239D01*
X1554238Y28175858D02*
X1602619Y28321000D01*
X1602619Y28562905D01*
X1554238Y28659667D01*
X1505857Y28708048D01*
X1409095Y28756429D01*
X1312333Y28756429D01*
X1215571Y28708048D01*
X1167190Y28659667D01*
X1118809Y28562905D01*
X1070428Y28369381D01*
X1022047Y28272620D01*
X973666Y28224239D01*
X876904Y28175858D01*
X780142Y28175858D01*
X683380Y28224239D01*
X635000Y28272620D01*
X586619Y28369381D01*
X586619Y28611286D01*
X635000Y28756429D01*
X586619Y29046715D02*
X586619Y29627286D01*
X1602619Y29337000D02*
X586619Y29337000D01*
X1602619Y30498143D02*
X1602619Y29917572D01*
X1602619Y30207858D02*
X586619Y30207858D01*
X731761Y30111096D01*
X828523Y30014334D01*
X876904Y29917572D01*
X1070428Y33213524D02*
X1118809Y33358667D01*
X1167190Y33407048D01*
X1263952Y33455429D01*
X1409095Y33455429D01*
X1505857Y33407048D01*
X1554238Y33358667D01*
X1602619Y33261905D01*
X1602619Y32874858D01*
X586619Y32874858D01*
X586619Y33213524D01*
X635000Y33310286D01*
X683380Y33358667D01*
X780142Y33407048D01*
X876904Y33407048D01*
X973666Y33358667D01*
X1022047Y33310286D01*
X1070428Y33213524D01*
X1070428Y32874858D01*
X586619Y33890858D02*
X1409095Y33890858D01*
X1505857Y33939239D01*
X1554238Y33987620D01*
X1602619Y34084381D01*
X1602619Y34277905D01*
X1554238Y34374667D01*
X1505857Y34423048D01*
X1409095Y34471429D01*
X586619Y34471429D01*
X586619Y34810096D02*
X586619Y35390667D01*
X1602619Y35100381D02*
X586619Y35100381D01*
X1602619Y36261524D02*
X1602619Y35680953D01*
X1602619Y35971239D02*
X586619Y35971239D01*
X731761Y35874477D01*
X828523Y35777715D01*
X876904Y35680953D01*
D19*
X19068142Y20483286D02*
X18814142Y20846143D01*
X18632714Y20483286D02*
X18632714Y21245286D01*
X18923000Y21245286D01*
X18995571Y21209000D01*
X19031857Y21172715D01*
X19068142Y21100143D01*
X19068142Y20991286D01*
X19031857Y20918715D01*
X18995571Y20882429D01*
X18923000Y20846143D01*
X18632714Y20846143D01*
X19793857Y20483286D02*
X19358428Y20483286D01*
X19576142Y20483286D02*
X19576142Y21245286D01*
X19503571Y21136429D01*
X19431000Y21063858D01*
X19358428Y21027572D01*
X20265571Y21245286D02*
X20338142Y21245286D01*
X20410714Y21209000D01*
X20447000Y21172715D01*
X20483285Y21100143D01*
X20519571Y20955000D01*
X20519571Y20773572D01*
X20483285Y20628429D01*
X20447000Y20555858D01*
X20410714Y20519572D01*
X20338142Y20483286D01*
X20265571Y20483286D01*
X20193000Y20519572D01*
X20156714Y20555858D01*
X20120428Y20628429D01*
X20084142Y20773572D01*
X20084142Y20955000D01*
X20120428Y21100143D01*
X20156714Y21172715D01*
X20193000Y21209000D01*
X20265571Y21245286D01*
X12573000Y7529286D02*
X12319000Y7892143D01*
X12137571Y7529286D02*
X12137571Y8291286D01*
X12427857Y8291286D01*
X12500428Y8255000D01*
X12536714Y8218715D01*
X12573000Y8146143D01*
X12573000Y8037286D01*
X12536714Y7964715D01*
X12500428Y7928429D01*
X12427857Y7892143D01*
X12137571Y7892143D01*
X12935857Y7529286D02*
X13081000Y7529286D01*
X13153571Y7565572D01*
X13189857Y7601858D01*
X13262428Y7710715D01*
X13298714Y7855858D01*
X13298714Y8146143D01*
X13262428Y8218715D01*
X13226142Y8255000D01*
X13153571Y8291286D01*
X13008428Y8291286D01*
X12935857Y8255000D01*
X12899571Y8218715D01*
X12863285Y8146143D01*
X12863285Y7964715D01*
X12899571Y7892143D01*
X12935857Y7855858D01*
X13008428Y7819572D01*
X13153571Y7819572D01*
X13226142Y7855858D01*
X13262428Y7892143D01*
X13298714Y7964715D01*
X8908142Y7529286D02*
X8654142Y7892143D01*
X8472714Y7529286D02*
X8472714Y8291286D01*
X8763000Y8291286D01*
X8835571Y8255000D01*
X8871857Y8218715D01*
X8908142Y8146143D01*
X8908142Y8037286D01*
X8871857Y7964715D01*
X8835571Y7928429D01*
X8763000Y7892143D01*
X8472714Y7892143D01*
X9633857Y7529286D02*
X9198428Y7529286D01*
X9416142Y7529286D02*
X9416142Y8291286D01*
X9343571Y8182429D01*
X9271000Y8109858D01*
X9198428Y8073572D01*
X10359571Y7529286D02*
X9924142Y7529286D01*
X10141857Y7529286D02*
X10141857Y8291286D01*
X10069285Y8182429D01*
X9996714Y8109858D01*
X9924142Y8073572D01*
X8890000Y6386286D02*
X8636000Y6749143D01*
X8454571Y6386286D02*
X8454571Y7148286D01*
X8744857Y7148286D01*
X8817428Y7112000D01*
X8853714Y7075715D01*
X8890000Y7003143D01*
X8890000Y6894286D01*
X8853714Y6821715D01*
X8817428Y6785429D01*
X8744857Y6749143D01*
X8454571Y6749143D01*
X9325428Y6821715D02*
X9252857Y6858000D01*
X9216571Y6894286D01*
X9180285Y6966858D01*
X9180285Y7003143D01*
X9216571Y7075715D01*
X9252857Y7112000D01*
X9325428Y7148286D01*
X9470571Y7148286D01*
X9543142Y7112000D01*
X9579428Y7075715D01*
X9615714Y7003143D01*
X9615714Y6966858D01*
X9579428Y6894286D01*
X9543142Y6858000D01*
X9470571Y6821715D01*
X9325428Y6821715D01*
X9252857Y6785429D01*
X9216571Y6749143D01*
X9180285Y6676572D01*
X9180285Y6531429D01*
X9216571Y6458858D01*
X9252857Y6422572D01*
X9325428Y6386286D01*
X9470571Y6386286D01*
X9543142Y6422572D01*
X9579428Y6458858D01*
X9615714Y6531429D01*
X9615714Y6676572D01*
X9579428Y6749143D01*
X9543142Y6785429D01*
X9470571Y6821715D01*
X19050000Y23023286D02*
X18796000Y23386143D01*
X18614571Y23023286D02*
X18614571Y23785286D01*
X18904857Y23785286D01*
X18977428Y23749000D01*
X19013714Y23712715D01*
X19050000Y23640143D01*
X19050000Y23531286D01*
X19013714Y23458715D01*
X18977428Y23422429D01*
X18904857Y23386143D01*
X18614571Y23386143D01*
X19304000Y23785286D02*
X19812000Y23785286D01*
X19485428Y23023286D01*
X15058571Y31532286D02*
X15058571Y32294286D01*
X15240000Y32294286D01*
X15348857Y32258000D01*
X15421428Y32185429D01*
X15457714Y32112858D01*
X15494000Y31967715D01*
X15494000Y31858858D01*
X15457714Y31713715D01*
X15421428Y31641143D01*
X15348857Y31568572D01*
X15240000Y31532286D01*
X15058571Y31532286D01*
X16147142Y32040286D02*
X16147142Y31532286D01*
X15965714Y32330572D02*
X15784285Y31786286D01*
X16256000Y31786286D01*
X36902571Y3084286D02*
X36902571Y3846286D01*
X37084000Y3846286D01*
X37192857Y3810000D01*
X37265428Y3737429D01*
X37301714Y3664858D01*
X37338000Y3519715D01*
X37338000Y3410858D01*
X37301714Y3265715D01*
X37265428Y3193143D01*
X37192857Y3120572D01*
X37084000Y3084286D01*
X36902571Y3084286D01*
X38063714Y3084286D02*
X37628285Y3084286D01*
X37846000Y3084286D02*
X37846000Y3846286D01*
X37773428Y3737429D01*
X37700857Y3664858D01*
X37628285Y3628572D01*
X38698714Y36340143D02*
X38335857Y36086143D01*
X38698714Y35904715D02*
X37936714Y35904715D01*
X37936714Y36195000D01*
X37973000Y36267572D01*
X38009285Y36303858D01*
X38081857Y36340143D01*
X38190714Y36340143D01*
X38263285Y36303858D01*
X38299571Y36267572D01*
X38335857Y36195000D01*
X38335857Y35904715D01*
X38009285Y36630429D02*
X37973000Y36666715D01*
X37936714Y36739286D01*
X37936714Y36920715D01*
X37973000Y36993286D01*
X38009285Y37029572D01*
X38081857Y37065858D01*
X38154428Y37065858D01*
X38263285Y37029572D01*
X38698714Y36594143D01*
X38698714Y37065858D01*
X37936714Y37755286D02*
X37936714Y37392429D01*
X38299571Y37356143D01*
X38263285Y37392429D01*
X38227000Y37465000D01*
X38227000Y37646429D01*
X38263285Y37719000D01*
X38299571Y37755286D01*
X38372142Y37791572D01*
X38553571Y37791572D01*
X38626142Y37755286D01*
X38662428Y37719000D01*
X38698714Y37646429D01*
X38698714Y37465000D01*
X38662428Y37392429D01*
X38626142Y37356143D01*
X17526000Y6331858D02*
X17489714Y6295572D01*
X17380857Y6259286D01*
X17308285Y6259286D01*
X17199428Y6295572D01*
X17126857Y6368143D01*
X17090571Y6440715D01*
X17054285Y6585858D01*
X17054285Y6694715D01*
X17090571Y6839858D01*
X17126857Y6912429D01*
X17199428Y6985000D01*
X17308285Y7021286D01*
X17380857Y7021286D01*
X17489714Y6985000D01*
X17526000Y6948715D01*
X18215428Y7021286D02*
X17852571Y7021286D01*
X17816285Y6658429D01*
X17852571Y6694715D01*
X17925142Y6731000D01*
X18106571Y6731000D01*
X18179142Y6694715D01*
X18215428Y6658429D01*
X18251714Y6585858D01*
X18251714Y6404429D01*
X18215428Y6331858D01*
X18179142Y6295572D01*
X18106571Y6259286D01*
X17925142Y6259286D01*
X17852571Y6295572D01*
X17816285Y6331858D01*
D11*
X42115619Y40392048D02*
X42115619Y39908239D01*
X41099619Y39908239D01*
X41825333Y40682334D02*
X41825333Y41166143D01*
X42115619Y40585572D02*
X41099619Y40924239D01*
X42115619Y41262905D01*
X42115619Y41601572D02*
X41099619Y41601572D01*
X42115619Y42182143D01*
X41099619Y42182143D01*
X42115619Y43198143D02*
X42115619Y42617572D01*
X42115619Y42907858D02*
X41099619Y42907858D01*
X41244761Y42811096D01*
X41341523Y42714334D01*
X41389904Y42617572D01*
D19*
X21100142Y40295286D02*
X20846142Y40658143D01*
X20664714Y40295286D02*
X20664714Y41057286D01*
X20955000Y41057286D01*
X21027571Y41021000D01*
X21063857Y40984715D01*
X21100142Y40912143D01*
X21100142Y40803286D01*
X21063857Y40730715D01*
X21027571Y40694429D01*
X20955000Y40658143D01*
X20664714Y40658143D01*
X21825857Y40295286D02*
X21390428Y40295286D01*
X21608142Y40295286D02*
X21608142Y41057286D01*
X21535571Y40948429D01*
X21463000Y40875858D01*
X21390428Y40839572D01*
X22116142Y40984715D02*
X22152428Y41021000D01*
X22225000Y41057286D01*
X22406428Y41057286D01*
X22479000Y41021000D01*
X22515285Y40984715D01*
X22551571Y40912143D01*
X22551571Y40839572D01*
X22515285Y40730715D01*
X22079857Y40295286D01*
X22551571Y40295286D01*
X14949714Y6041572D02*
X14187714Y6041572D01*
X14187714Y6223000D01*
X14224000Y6331858D01*
X14296571Y6404429D01*
X14369142Y6440715D01*
X14514285Y6477000D01*
X14623142Y6477000D01*
X14768285Y6440715D01*
X14840857Y6404429D01*
X14913428Y6331858D01*
X14949714Y6223000D01*
X14949714Y6041572D01*
X14187714Y7166429D02*
X14187714Y6803572D01*
X14550571Y6767286D01*
X14514285Y6803572D01*
X14478000Y6876143D01*
X14478000Y7057572D01*
X14514285Y7130143D01*
X14550571Y7166429D01*
X14623142Y7202715D01*
X14804571Y7202715D01*
X14877142Y7166429D01*
X14913428Y7130143D01*
X14949714Y7057572D01*
X14949714Y6876143D01*
X14913428Y6803572D01*
X14877142Y6767286D01*
X27577142Y38898286D02*
X27323142Y39261143D01*
X27141714Y38898286D02*
X27141714Y39660286D01*
X27432000Y39660286D01*
X27504571Y39624000D01*
X27540857Y39587715D01*
X27577142Y39515143D01*
X27577142Y39406286D01*
X27540857Y39333715D01*
X27504571Y39297429D01*
X27432000Y39261143D01*
X27141714Y39261143D01*
X27867428Y39587715D02*
X27903714Y39624000D01*
X27976285Y39660286D01*
X28157714Y39660286D01*
X28230285Y39624000D01*
X28266571Y39587715D01*
X28302857Y39515143D01*
X28302857Y39442572D01*
X28266571Y39333715D01*
X27831142Y38898286D01*
X28302857Y38898286D01*
X28738285Y39333715D02*
X28665714Y39370000D01*
X28629428Y39406286D01*
X28593142Y39478858D01*
X28593142Y39515143D01*
X28629428Y39587715D01*
X28665714Y39624000D01*
X28738285Y39660286D01*
X28883428Y39660286D01*
X28956000Y39624000D01*
X28992285Y39587715D01*
X29028571Y39515143D01*
X29028571Y39478858D01*
X28992285Y39406286D01*
X28956000Y39370000D01*
X28883428Y39333715D01*
X28738285Y39333715D01*
X28665714Y39297429D01*
X28629428Y39261143D01*
X28593142Y39188572D01*
X28593142Y39043429D01*
X28629428Y38970858D01*
X28665714Y38934572D01*
X28738285Y38898286D01*
X28883428Y38898286D01*
X28956000Y38934572D01*
X28992285Y38970858D01*
X29028571Y39043429D01*
X29028571Y39188572D01*
X28992285Y39261143D01*
X28956000Y39297429D01*
X28883428Y39333715D01*
X25037142Y38898286D02*
X24783142Y39261143D01*
X24601714Y38898286D02*
X24601714Y39660286D01*
X24892000Y39660286D01*
X24964571Y39624000D01*
X25000857Y39587715D01*
X25037142Y39515143D01*
X25037142Y39406286D01*
X25000857Y39333715D01*
X24964571Y39297429D01*
X24892000Y39261143D01*
X24601714Y39261143D01*
X25291142Y39660286D02*
X25762857Y39660286D01*
X25508857Y39370000D01*
X25617714Y39370000D01*
X25690285Y39333715D01*
X25726571Y39297429D01*
X25762857Y39224858D01*
X25762857Y39043429D01*
X25726571Y38970858D01*
X25690285Y38934572D01*
X25617714Y38898286D01*
X25400000Y38898286D01*
X25327428Y38934572D01*
X25291142Y38970858D01*
X26488571Y38898286D02*
X26053142Y38898286D01*
X26270857Y38898286D02*
X26270857Y39660286D01*
X26198285Y39551429D01*
X26125714Y39478858D01*
X26053142Y39442572D01*
X32657142Y38898286D02*
X32403142Y39261143D01*
X32221714Y38898286D02*
X32221714Y39660286D01*
X32512000Y39660286D01*
X32584571Y39624000D01*
X32620857Y39587715D01*
X32657142Y39515143D01*
X32657142Y39406286D01*
X32620857Y39333715D01*
X32584571Y39297429D01*
X32512000Y39261143D01*
X32221714Y39261143D01*
X32911142Y39660286D02*
X33382857Y39660286D01*
X33128857Y39370000D01*
X33237714Y39370000D01*
X33310285Y39333715D01*
X33346571Y39297429D01*
X33382857Y39224858D01*
X33382857Y39043429D01*
X33346571Y38970858D01*
X33310285Y38934572D01*
X33237714Y38898286D01*
X33020000Y38898286D01*
X32947428Y38934572D01*
X32911142Y38970858D01*
X33673142Y39587715D02*
X33709428Y39624000D01*
X33782000Y39660286D01*
X33963428Y39660286D01*
X34036000Y39624000D01*
X34072285Y39587715D01*
X34108571Y39515143D01*
X34108571Y39442572D01*
X34072285Y39333715D01*
X33636857Y38898286D01*
X34108571Y38898286D01*
X30117142Y38898286D02*
X29863142Y39261143D01*
X29681714Y38898286D02*
X29681714Y39660286D01*
X29972000Y39660286D01*
X30044571Y39624000D01*
X30080857Y39587715D01*
X30117142Y39515143D01*
X30117142Y39406286D01*
X30080857Y39333715D01*
X30044571Y39297429D01*
X29972000Y39261143D01*
X29681714Y39261143D01*
X30371142Y39660286D02*
X30842857Y39660286D01*
X30588857Y39370000D01*
X30697714Y39370000D01*
X30770285Y39333715D01*
X30806571Y39297429D01*
X30842857Y39224858D01*
X30842857Y39043429D01*
X30806571Y38970858D01*
X30770285Y38934572D01*
X30697714Y38898286D01*
X30480000Y38898286D01*
X30407428Y38934572D01*
X30371142Y38970858D01*
X31096857Y39660286D02*
X31568571Y39660286D01*
X31314571Y39370000D01*
X31423428Y39370000D01*
X31496000Y39333715D01*
X31532285Y39297429D01*
X31568571Y39224858D01*
X31568571Y39043429D01*
X31532285Y38970858D01*
X31496000Y38934572D01*
X31423428Y38898286D01*
X31205714Y38898286D01*
X31133142Y38934572D01*
X31096857Y38970858D01*
X23368000Y38009286D02*
X23803428Y38009286D01*
X23585714Y37247286D02*
X23585714Y38009286D01*
X23948571Y38009286D02*
X24202571Y37247286D01*
X24456571Y38009286D01*
X24674285Y37283572D02*
X24783142Y37247286D01*
X24964571Y37247286D01*
X25037142Y37283572D01*
X25073428Y37319858D01*
X25109714Y37392429D01*
X25109714Y37465000D01*
X25073428Y37537572D01*
X25037142Y37573858D01*
X24964571Y37610143D01*
X24819428Y37646429D01*
X24746857Y37682715D01*
X24710571Y37719000D01*
X24674285Y37791572D01*
X24674285Y37864143D01*
X24710571Y37936715D01*
X24746857Y37973000D01*
X24819428Y38009286D01*
X25000857Y38009286D01*
X25109714Y37973000D01*
X25400000Y37936715D02*
X25436285Y37973000D01*
X25508857Y38009286D01*
X25690285Y38009286D01*
X25762857Y37973000D01*
X25799142Y37936715D01*
X25835428Y37864143D01*
X25835428Y37791572D01*
X25799142Y37682715D01*
X25363714Y37247286D01*
X25835428Y37247286D01*
X33364714Y35941000D02*
X33364714Y36376429D01*
X34126714Y36158715D02*
X33364714Y36158715D01*
X33364714Y36521572D02*
X34126714Y36775572D01*
X33364714Y37029572D01*
X34090428Y37247286D02*
X34126714Y37356143D01*
X34126714Y37537572D01*
X34090428Y37610143D01*
X34054142Y37646429D01*
X33981571Y37682715D01*
X33909000Y37682715D01*
X33836428Y37646429D01*
X33800142Y37610143D01*
X33763857Y37537572D01*
X33727571Y37392429D01*
X33691285Y37319858D01*
X33655000Y37283572D01*
X33582428Y37247286D01*
X33509857Y37247286D01*
X33437285Y37283572D01*
X33401000Y37319858D01*
X33364714Y37392429D01*
X33364714Y37573858D01*
X33401000Y37682715D01*
X33364714Y37936715D02*
X33364714Y38408429D01*
X33655000Y38154429D01*
X33655000Y38263286D01*
X33691285Y38335858D01*
X33727571Y38372143D01*
X33800142Y38408429D01*
X33981571Y38408429D01*
X34054142Y38372143D01*
X34090428Y38335858D01*
X34126714Y38263286D01*
X34126714Y38045572D01*
X34090428Y37973000D01*
X34054142Y37936715D01*
X30099000Y35342286D02*
X30534428Y35342286D01*
X30316714Y34580286D02*
X30316714Y35342286D01*
X30679571Y35342286D02*
X30933571Y34580286D01*
X31187571Y35342286D01*
X31405285Y34616572D02*
X31514142Y34580286D01*
X31695571Y34580286D01*
X31768142Y34616572D01*
X31804428Y34652858D01*
X31840714Y34725429D01*
X31840714Y34798000D01*
X31804428Y34870572D01*
X31768142Y34906858D01*
X31695571Y34943143D01*
X31550428Y34979429D01*
X31477857Y35015715D01*
X31441571Y35052000D01*
X31405285Y35124572D01*
X31405285Y35197143D01*
X31441571Y35269715D01*
X31477857Y35306000D01*
X31550428Y35342286D01*
X31731857Y35342286D01*
X31840714Y35306000D01*
X32493857Y35088286D02*
X32493857Y34580286D01*
X32312428Y35378572D02*
X32131000Y34834286D01*
X32602714Y34834286D01*
X27178000Y35342286D02*
X27613428Y35342286D01*
X27395714Y34580286D02*
X27395714Y35342286D01*
X27758571Y35342286D02*
X28012571Y34580286D01*
X28266571Y35342286D01*
X28484285Y34616572D02*
X28593142Y34580286D01*
X28774571Y34580286D01*
X28847142Y34616572D01*
X28883428Y34652858D01*
X28919714Y34725429D01*
X28919714Y34798000D01*
X28883428Y34870572D01*
X28847142Y34906858D01*
X28774571Y34943143D01*
X28629428Y34979429D01*
X28556857Y35015715D01*
X28520571Y35052000D01*
X28484285Y35124572D01*
X28484285Y35197143D01*
X28520571Y35269715D01*
X28556857Y35306000D01*
X28629428Y35342286D01*
X28810857Y35342286D01*
X28919714Y35306000D01*
X29645428Y34580286D02*
X29210000Y34580286D01*
X29427714Y34580286D02*
X29427714Y35342286D01*
X29355142Y35233429D01*
X29282571Y35160858D01*
X29210000Y35124572D01*
X20320000Y36176858D02*
X20283714Y36140572D01*
X20174857Y36104286D01*
X20102285Y36104286D01*
X19993428Y36140572D01*
X19920857Y36213143D01*
X19884571Y36285715D01*
X19848285Y36430858D01*
X19848285Y36539715D01*
X19884571Y36684858D01*
X19920857Y36757429D01*
X19993428Y36830000D01*
X20102285Y36866286D01*
X20174857Y36866286D01*
X20283714Y36830000D01*
X20320000Y36793715D01*
X20973142Y36866286D02*
X20828000Y36866286D01*
X20755428Y36830000D01*
X20719142Y36793715D01*
X20646571Y36684858D01*
X20610285Y36539715D01*
X20610285Y36249429D01*
X20646571Y36176858D01*
X20682857Y36140572D01*
X20755428Y36104286D01*
X20900571Y36104286D01*
X20973142Y36140572D01*
X21009428Y36176858D01*
X21045714Y36249429D01*
X21045714Y36430858D01*
X21009428Y36503429D01*
X20973142Y36539715D01*
X20900571Y36576000D01*
X20755428Y36576000D01*
X20682857Y36539715D01*
X20646571Y36503429D01*
X20610285Y36430858D01*
X22243142Y35977286D02*
X21989142Y36340143D01*
X21807714Y35977286D02*
X21807714Y36739286D01*
X22098000Y36739286D01*
X22170571Y36703000D01*
X22206857Y36666715D01*
X22243142Y36594143D01*
X22243142Y36485286D01*
X22206857Y36412715D01*
X22170571Y36376429D01*
X22098000Y36340143D01*
X21807714Y36340143D01*
X22497142Y36739286D02*
X22968857Y36739286D01*
X22714857Y36449000D01*
X22823714Y36449000D01*
X22896285Y36412715D01*
X22932571Y36376429D01*
X22968857Y36303858D01*
X22968857Y36122429D01*
X22932571Y36049858D01*
X22896285Y36013572D01*
X22823714Y35977286D01*
X22606000Y35977286D01*
X22533428Y36013572D01*
X22497142Y36049858D01*
X23331714Y35977286D02*
X23476857Y35977286D01*
X23549428Y36013572D01*
X23585714Y36049858D01*
X23658285Y36158715D01*
X23694571Y36303858D01*
X23694571Y36594143D01*
X23658285Y36666715D01*
X23622000Y36703000D01*
X23549428Y36739286D01*
X23404285Y36739286D01*
X23331714Y36703000D01*
X23295428Y36666715D01*
X23259142Y36594143D01*
X23259142Y36412715D01*
X23295428Y36340143D01*
X23331714Y36303858D01*
X23404285Y36267572D01*
X23549428Y36267572D01*
X23622000Y36303858D01*
X23658285Y36340143D01*
X23694571Y36412715D01*
D11*
X48846619Y11290905D02*
X49669095Y11290905D01*
X49765857Y11339286D01*
X49814238Y11387667D01*
X49862619Y11484429D01*
X49862619Y11677953D01*
X49814238Y11774715D01*
X49765857Y11823096D01*
X49669095Y11871477D01*
X48846619Y11871477D01*
X49862619Y12887477D02*
X49862619Y12306905D01*
X49862619Y12597191D02*
X48846619Y12597191D01*
X48991761Y12500429D01*
X49088523Y12403667D01*
X49136904Y12306905D01*
X45375285Y9966477D02*
X45254333Y10026953D01*
X45193857Y10087429D01*
X45133380Y10208381D01*
X45133380Y10571239D01*
X45193857Y10692191D01*
X45254333Y10752667D01*
X45375285Y10813143D01*
X45556714Y10813143D01*
X45677666Y10752667D01*
X45738142Y10692191D01*
X45798619Y10571239D01*
X45798619Y10208381D01*
X45738142Y10087429D01*
X45677666Y10026953D01*
X45556714Y9966477D01*
X45375285Y9966477D01*
D19*
X45103142Y39914286D02*
X44849142Y40277143D01*
X44667714Y39914286D02*
X44667714Y40676286D01*
X44958000Y40676286D01*
X45030571Y40640000D01*
X45066857Y40603715D01*
X45103142Y40531143D01*
X45103142Y40422286D01*
X45066857Y40349715D01*
X45030571Y40313429D01*
X44958000Y40277143D01*
X44667714Y40277143D01*
X45828857Y39914286D02*
X45393428Y39914286D01*
X45611142Y39914286D02*
X45611142Y40676286D01*
X45538571Y40567429D01*
X45466000Y40494858D01*
X45393428Y40458572D01*
X46082857Y40676286D02*
X46554571Y40676286D01*
X46300571Y40386000D01*
X46409428Y40386000D01*
X46482000Y40349715D01*
X46518285Y40313429D01*
X46554571Y40240858D01*
X46554571Y40059429D01*
X46518285Y39986858D01*
X46482000Y39950572D01*
X46409428Y39914286D01*
X46191714Y39914286D01*
X46119142Y39950572D01*
X46082857Y39986858D01*
X45103142Y41184286D02*
X44849142Y41547143D01*
X44667714Y41184286D02*
X44667714Y41946286D01*
X44958000Y41946286D01*
X45030571Y41910000D01*
X45066857Y41873715D01*
X45103142Y41801143D01*
X45103142Y41692286D01*
X45066857Y41619715D01*
X45030571Y41583429D01*
X44958000Y41547143D01*
X44667714Y41547143D01*
X45828857Y41184286D02*
X45393428Y41184286D01*
X45611142Y41184286D02*
X45611142Y41946286D01*
X45538571Y41837429D01*
X45466000Y41764858D01*
X45393428Y41728572D01*
X46518285Y41946286D02*
X46155428Y41946286D01*
X46119142Y41583429D01*
X46155428Y41619715D01*
X46228000Y41656000D01*
X46409428Y41656000D01*
X46482000Y41619715D01*
X46518285Y41583429D01*
X46554571Y41510858D01*
X46554571Y41329429D01*
X46518285Y41256858D01*
X46482000Y41220572D01*
X46409428Y41184286D01*
X46228000Y41184286D01*
X46155428Y41220572D01*
X46119142Y41256858D01*
X28847142Y8291286D02*
X28593142Y8654143D01*
X28411714Y8291286D02*
X28411714Y9053286D01*
X28702000Y9053286D01*
X28774571Y9017000D01*
X28810857Y8980715D01*
X28847142Y8908143D01*
X28847142Y8799286D01*
X28810857Y8726715D01*
X28774571Y8690429D01*
X28702000Y8654143D01*
X28411714Y8654143D01*
X29572857Y8291286D02*
X29137428Y8291286D01*
X29355142Y8291286D02*
X29355142Y9053286D01*
X29282571Y8944429D01*
X29210000Y8871858D01*
X29137428Y8835572D01*
X29826857Y9053286D02*
X30334857Y9053286D01*
X30008285Y8291286D01*
M02*
