G04 #@! TF.GenerationSoftware,KiCad,Pcbnew,5.1.0-rc2-unknown-036be7d~80~ubuntu16.04.1*
G04 #@! TF.CreationDate,2019-12-17T11:34:35+02:00*
G04 #@! TF.ProjectId,ESP32-GATEWAY_Rev_G,45535033-322d-4474-9154-455741595f52,G*
G04 #@! TF.SameCoordinates,Original*
G04 #@! TF.FileFunction,Soldermask,Bot*
G04 #@! TF.FilePolarity,Negative*
%FSLAX46Y46*%
G04 Gerber Fmt 4.6, Leading zero omitted, Abs format (unit mm)*
G04 Created by KiCad (PCBNEW 5.1.0-rc2-unknown-036be7d~80~ubuntu16.04.1) date 2019-12-17 11:34:35*
%MOMM*%
%LPD*%
G04 APERTURE LIST*
%ADD10C,2.101600*%
%ADD11R,1.701800X1.270000*%
%ADD12C,3.600000*%
%ADD13C,2.050000*%
%ADD14C,3.100000*%
%ADD15C,1.810000*%
%ADD16C,1.879600*%
%ADD17R,1.879600X1.879600*%
%ADD18C,0.701600*%
%ADD19O,1.901600X1.301600*%
%ADD20R,1.822400X1.822400*%
%ADD21C,1.600000*%
%ADD22C,6.700000*%
G04 APERTURE END LIST*
D10*
X79010000Y-82083000D03*
D11*
X118364000Y-85344000D03*
X118364000Y-86868000D03*
X118364000Y-86868000D03*
D12*
X95885000Y-78359000D03*
X107315000Y-78359000D03*
D13*
X105670000Y-73610500D03*
X94990000Y-73610500D03*
D14*
X93800000Y-81409000D03*
X109400000Y-81409000D03*
D13*
X108210000Y-73610500D03*
X97530000Y-73610500D03*
D15*
X97165000Y-87599000D03*
X98435000Y-85059000D03*
X99705000Y-87599000D03*
X100975000Y-85059000D03*
X102245000Y-87599000D03*
X103515000Y-85059000D03*
X104785000Y-87599000D03*
X106055000Y-85059000D03*
D16*
X78486000Y-128016000D03*
X75946000Y-128016000D03*
X73406000Y-128016000D03*
D17*
X70866000Y-128016000D03*
D16*
X81026000Y-128016000D03*
X83566000Y-128016000D03*
X88646000Y-128016000D03*
X86106000Y-128016000D03*
X91186000Y-128016000D03*
X93726000Y-128016000D03*
X98806000Y-128016000D03*
X96266000Y-128016000D03*
X101346000Y-128016000D03*
X103886000Y-128016000D03*
X108966000Y-128016000D03*
X106426000Y-128016000D03*
X116586000Y-128016000D03*
X119126000Y-128016000D03*
X114046000Y-128016000D03*
X111506000Y-128016000D03*
D18*
X115067000Y-97250000D03*
X115067000Y-93250000D03*
D19*
X117217000Y-98850000D03*
X113747000Y-98850000D03*
X113747000Y-91650000D03*
X117217000Y-91650000D03*
D11*
X105727500Y-99758500D03*
X105727500Y-101282500D03*
X105727500Y-101282500D03*
D20*
X99949000Y-98044000D03*
D21*
X70739000Y-122301000D03*
X75565000Y-122301000D03*
X74803000Y-123952000D03*
X71501000Y-124079000D03*
X74803000Y-120650000D03*
X71501000Y-120650000D03*
X73152000Y-124714000D03*
X73152000Y-119888000D03*
D22*
X73152000Y-122301000D03*
D21*
X113919000Y-71120000D03*
X118745000Y-71120000D03*
X117983000Y-72771000D03*
X114681000Y-72898000D03*
X117983000Y-69469000D03*
X114681000Y-69469000D03*
X116332000Y-73533000D03*
X116332000Y-68707000D03*
D22*
X116332000Y-71120000D03*
M02*
