G04 #@! TF.GenerationSoftware,KiCad,Pcbnew,5.1.0-rc2-unknown-036be7d~80~ubuntu16.04.1*
G04 #@! TF.CreationDate,2019-12-17T11:34:35+02:00*
G04 #@! TF.ProjectId,ESP32-GATEWAY_Rev_G,45535033-322d-4474-9154-455741595f52,G*
G04 #@! TF.SameCoordinates,Original*
G04 #@! TF.FileFunction,Paste,Top*
G04 #@! TF.FilePolarity,Positive*
%FSLAX46Y46*%
G04 Gerber Fmt 4.6, Leading zero omitted, Abs format (unit mm)*
G04 Created by KiCad (PCBNEW 5.1.0-rc2-unknown-036be7d~80~ubuntu16.04.1) date 2019-12-17 11:34:35*
%MOMM*%
%LPD*%
G04 APERTURE LIST*
%ADD10C,0.200000*%
%ADD11R,1.016000X1.016000*%
%ADD12R,1.200000X1.800000*%
%ADD13R,2.101600X1.001600*%
%ADD14R,1.001600X2.101600*%
%ADD15R,1.500000X3.100000*%
%ADD16R,1.500000X0.800000*%
%ADD17R,1.524000X1.270000*%
%ADD18R,1.400000X1.000000*%
%ADD19R,1.000000X1.400000*%
%ADD20R,1.778000X2.286000*%
%ADD21R,0.800000X0.800000*%
%ADD22R,1.650000X0.500000*%
%ADD23R,1.721120X0.396120*%
%ADD24R,1.254000X1.354000*%
%ADD25R,1.270000X1.524000*%
%ADD26R,2.000000X1.700000*%
%ADD27R,1.778000X1.016000*%
%ADD28R,0.230000X0.780000*%
%ADD29R,0.780000X0.230000*%
%ADD30R,1.270000X0.325000*%
%ADD31R,3.000000X1.600000*%
%ADD32R,0.550000X1.200000*%
%ADD33R,0.381000X1.016000*%
%ADD34R,0.635000X1.016000*%
%ADD35R,4.826000X1.100000*%
%ADD36R,1.778000X1.270000*%
G04 APERTURE END LIST*
D10*
X101549000Y-97244000D02*
X101549000Y-96444000D01*
X100749000Y-97244000D02*
X101549000Y-97244000D01*
X100749000Y-96444000D02*
X100749000Y-97244000D01*
X101549000Y-96444000D02*
X100749000Y-96444000D01*
X101549000Y-96544000D02*
X100749000Y-96544000D01*
X101549000Y-96644000D02*
X100749000Y-96644000D01*
X101549000Y-96744000D02*
X100749000Y-96744000D01*
X101549000Y-96844000D02*
X100749000Y-96844000D01*
X101549000Y-96944000D02*
X100749000Y-96944000D01*
X101549000Y-97044000D02*
X100749000Y-97044000D01*
X101549000Y-97144000D02*
X100749000Y-97144000D01*
X99149000Y-97144000D02*
X98349000Y-97144000D01*
X99149000Y-97044000D02*
X98349000Y-97044000D01*
X99149000Y-96944000D02*
X98349000Y-96944000D01*
X99149000Y-96844000D02*
X98349000Y-96844000D01*
X99149000Y-96744000D02*
X98349000Y-96744000D01*
X99149000Y-96644000D02*
X98349000Y-96644000D01*
X99149000Y-96544000D02*
X98349000Y-96544000D01*
X99149000Y-96444000D02*
X98349000Y-96444000D01*
X98349000Y-96444000D02*
X98349000Y-97244000D01*
X98349000Y-97244000D02*
X99149000Y-97244000D01*
X99149000Y-97244000D02*
X99149000Y-96444000D01*
X101549000Y-99544000D02*
X100749000Y-99544000D01*
X101549000Y-99444000D02*
X100749000Y-99444000D01*
X101549000Y-99344000D02*
X100749000Y-99344000D01*
X101549000Y-99244000D02*
X100749000Y-99244000D01*
X101549000Y-99144000D02*
X100749000Y-99144000D01*
X101549000Y-99044000D02*
X100749000Y-99044000D01*
X101549000Y-98944000D02*
X100749000Y-98944000D01*
X101549000Y-98844000D02*
X100749000Y-98844000D01*
X100749000Y-98844000D02*
X100749000Y-99644000D01*
X100749000Y-99644000D02*
X101549000Y-99644000D01*
X101549000Y-99644000D02*
X101549000Y-98844000D01*
X99149000Y-99644000D02*
X99149000Y-98844000D01*
X98349000Y-99644000D02*
X99149000Y-99644000D01*
X98349000Y-98844000D02*
X98349000Y-99644000D01*
X99149000Y-98844000D02*
X98349000Y-98844000D01*
X99149000Y-98944000D02*
X98349000Y-98944000D01*
X99149000Y-99044000D02*
X98349000Y-99044000D01*
X99149000Y-99144000D02*
X98349000Y-99144000D01*
X99149000Y-99244000D02*
X98349000Y-99244000D01*
X99149000Y-99344000D02*
X98349000Y-99344000D01*
X99149000Y-99444000D02*
X98349000Y-99444000D01*
X99149000Y-99544000D02*
X98349000Y-99544000D01*
X99749000Y-96444000D02*
X100149000Y-96444000D01*
X99749000Y-97244000D02*
X99749000Y-96444000D01*
X100149000Y-97244000D02*
X99749000Y-97244000D01*
X100149000Y-96444000D02*
X100149000Y-97244000D01*
X100049000Y-96444000D02*
X100049000Y-97244000D01*
X99949000Y-96444000D02*
X99949000Y-97244000D01*
X99849000Y-96444000D02*
X99849000Y-97244000D01*
X99849000Y-98844000D02*
X99849000Y-99644000D01*
X99949000Y-98844000D02*
X99949000Y-99644000D01*
X100049000Y-98844000D02*
X100049000Y-99644000D01*
X100149000Y-98844000D02*
X100149000Y-99644000D01*
X100149000Y-99644000D02*
X99749000Y-99644000D01*
X99749000Y-99644000D02*
X99749000Y-98844000D01*
X99749000Y-98844000D02*
X100149000Y-98844000D01*
X101549000Y-98244000D02*
X101549000Y-97844000D01*
X100749000Y-98244000D02*
X101549000Y-98244000D01*
X100749000Y-97844000D02*
X100749000Y-98244000D01*
X101549000Y-97844000D02*
X100749000Y-97844000D01*
X101549000Y-97944000D02*
X100749000Y-97944000D01*
X100749000Y-98044000D02*
X101549000Y-98044000D01*
X101549000Y-98144000D02*
X100749000Y-98144000D01*
X99149000Y-98144000D02*
X98349000Y-98144000D01*
X98349000Y-98044000D02*
X99149000Y-98044000D01*
X99149000Y-97944000D02*
X98349000Y-97944000D01*
X99149000Y-97844000D02*
X98349000Y-97844000D01*
X98349000Y-97844000D02*
X98349000Y-98244000D01*
X98349000Y-98244000D02*
X99149000Y-98244000D01*
X99149000Y-98244000D02*
X99149000Y-97844000D01*
D11*
X85725000Y-116459000D03*
X87503000Y-116459000D03*
D12*
X79910000Y-83583000D03*
X79910000Y-80583000D03*
X78110000Y-83583000D03*
X78110000Y-80583000D03*
D13*
X71510000Y-74573000D03*
X71510000Y-75843000D03*
X71510000Y-77113000D03*
X71510000Y-78383000D03*
X71510000Y-79653000D03*
X71510000Y-80923000D03*
X71510000Y-82193000D03*
X71510000Y-83463000D03*
X71510000Y-84733000D03*
X71510000Y-86003000D03*
X71510000Y-87273000D03*
X71510000Y-88543000D03*
X71510000Y-89813000D03*
X71510000Y-91083000D03*
D14*
X74310000Y-92083000D03*
X75580000Y-92083000D03*
X76850000Y-92083000D03*
X78120000Y-92083000D03*
X79390000Y-92083000D03*
X80660000Y-92083000D03*
X81930000Y-92083000D03*
X83200000Y-92083000D03*
X84470000Y-92083000D03*
X85740000Y-92083000D03*
D13*
X88510000Y-91083000D03*
X88510000Y-89813000D03*
X88510000Y-88543000D03*
X88510000Y-87273000D03*
X88510000Y-86003000D03*
X88510000Y-84733000D03*
X88510000Y-83463000D03*
X88510000Y-82193000D03*
X88510000Y-80923000D03*
X88510000Y-79653000D03*
X88510000Y-78383000D03*
X88510000Y-77113000D03*
X88510000Y-75843000D03*
X88510000Y-74573000D03*
D15*
X81577000Y-114275000D03*
X81577000Y-108215000D03*
D16*
X72327000Y-107275000D03*
X72327000Y-108375000D03*
X72327000Y-109475000D03*
X72327000Y-110575000D03*
X72327000Y-111675000D03*
X72327000Y-112775000D03*
X72327000Y-113875000D03*
X72327000Y-114975000D03*
D11*
X88900000Y-97536000D03*
X90678000Y-97536000D03*
D17*
X85090000Y-101981000D03*
X87122000Y-101981000D03*
D11*
X90677999Y-99060000D03*
X88899999Y-99060000D03*
D18*
X87284560Y-94173040D03*
X87284560Y-96075500D03*
X89494360Y-95120460D03*
D11*
X90677999Y-100584000D03*
X88899999Y-100584000D03*
D19*
X90611960Y-102397560D03*
X88709500Y-102397560D03*
X89664540Y-104607360D03*
D20*
X113647000Y-109982000D03*
X118001000Y-109982000D03*
D11*
X85598000Y-104648000D03*
X87376000Y-104648000D03*
X80137000Y-119888000D03*
X81915000Y-119888000D03*
X118745000Y-82677000D03*
X116967000Y-82677000D03*
D21*
X118618000Y-80899000D03*
X117094000Y-80899000D03*
D22*
X113817000Y-96637500D03*
D23*
X113817000Y-95900000D03*
X113817000Y-95250000D03*
X113817000Y-94600000D03*
D22*
X113817000Y-93862500D03*
D24*
X118367000Y-96750000D03*
X118367000Y-93750000D03*
D11*
X86360000Y-119761000D03*
X88138000Y-119761000D03*
D25*
X115951000Y-114935000D03*
X117983000Y-114935000D03*
X115951000Y-112903000D03*
X117983000Y-112903000D03*
D11*
X114173000Y-114681000D03*
X114173000Y-116459000D03*
X114173000Y-119761000D03*
X114173000Y-117983000D03*
X116967000Y-87122000D03*
X118745000Y-87122000D03*
X83185000Y-98806000D03*
X81407000Y-98806000D03*
X81407000Y-97282000D03*
X83185000Y-97282000D03*
X93980000Y-118745000D03*
X95758000Y-118745000D03*
X112903000Y-103886000D03*
X114681000Y-103886000D03*
D26*
X118070000Y-106680000D03*
X113070000Y-106680000D03*
D11*
X110744000Y-117475000D03*
X108966000Y-117475000D03*
X93980000Y-121158000D03*
X95758000Y-121158000D03*
X111252000Y-114300000D03*
X109474000Y-114300000D03*
X93980000Y-114300000D03*
X95758000Y-114300000D03*
D27*
X92075000Y-75819000D03*
X92075000Y-79375000D03*
X92075000Y-86995000D03*
X92075000Y-83439000D03*
D11*
X85344000Y-110871000D03*
X87122000Y-110871000D03*
X93980000Y-116967000D03*
X95758000Y-116967000D03*
X110744000Y-118999000D03*
X108966000Y-118999000D03*
X92710000Y-93091000D03*
X94488000Y-93091000D03*
X106807000Y-100203000D03*
X105029000Y-100203000D03*
X102616000Y-124523500D03*
X100838000Y-124523500D03*
X100076000Y-92583000D03*
X100076000Y-90805000D03*
X102362000Y-92583000D03*
X102362000Y-90805000D03*
X96266000Y-92583000D03*
X96266000Y-90805000D03*
X98552000Y-92583000D03*
X98552000Y-90805000D03*
X111633000Y-77851000D03*
X111633000Y-76073000D03*
X91694000Y-71501000D03*
X91694000Y-73279000D03*
X81407000Y-100584000D03*
X83185000Y-100584000D03*
X81407000Y-103886000D03*
X83185000Y-103886000D03*
X83185000Y-95758000D03*
X81407000Y-95758000D03*
D21*
X118618000Y-85344000D03*
X117094000Y-85344000D03*
D11*
X105029000Y-98679000D03*
X106807000Y-98679000D03*
X92710000Y-98298000D03*
X94488000Y-98298000D03*
X92710000Y-99822000D03*
X94488000Y-99822000D03*
X92710000Y-94869000D03*
X94488000Y-94869000D03*
X105410000Y-94234000D03*
X103632000Y-94234000D03*
X97790000Y-104902000D03*
X97790000Y-103124000D03*
X109474000Y-104775000D03*
X109474000Y-102997000D03*
X106426000Y-92583000D03*
X106426000Y-90805000D03*
D25*
X87249000Y-112649000D03*
X85217000Y-112649000D03*
D11*
X104140000Y-103124000D03*
X104140000Y-104902000D03*
X105664000Y-103124000D03*
X105664000Y-104902000D03*
D17*
X112395000Y-122047000D03*
X112395000Y-124079000D03*
D28*
X98199000Y-95594000D03*
X98699000Y-95594000D03*
X99199000Y-95594000D03*
X99699000Y-95594000D03*
X100199000Y-95594000D03*
X100699000Y-95594000D03*
X101199000Y-95594000D03*
X101699000Y-95594000D03*
D29*
X102399000Y-96294000D03*
X102399000Y-96794000D03*
X102399000Y-97294000D03*
X102399000Y-97794000D03*
X102399000Y-98294000D03*
X102399000Y-98794000D03*
X102399000Y-99294000D03*
X102399000Y-99794000D03*
D28*
X101699000Y-100494000D03*
X101199000Y-100494000D03*
X100699000Y-100494000D03*
X100199000Y-100494000D03*
X99699000Y-100494000D03*
X99199000Y-100494000D03*
X98699000Y-100494000D03*
X98199000Y-100494000D03*
D29*
X97499000Y-99794000D03*
X97499000Y-99294000D03*
X97499000Y-98794000D03*
X97499000Y-98294000D03*
X97499000Y-97794000D03*
X97499000Y-97294000D03*
X97499000Y-96794000D03*
X97499000Y-96294000D03*
D30*
X105346500Y-122686000D03*
X105346500Y-122036000D03*
X105346500Y-121386000D03*
X105346500Y-120736000D03*
X105346500Y-120086000D03*
X105346500Y-119436000D03*
X105346500Y-118786000D03*
X105346500Y-118136000D03*
X105346500Y-117486000D03*
X105346500Y-116836000D03*
X98107500Y-116836000D03*
X98107500Y-117486000D03*
X98107500Y-118136000D03*
X98107500Y-118786000D03*
X98107500Y-119436000D03*
X98107500Y-120086000D03*
X98107500Y-120736000D03*
X98107500Y-121386000D03*
X98107500Y-122036000D03*
X98107500Y-122686000D03*
D17*
X87249000Y-114554000D03*
X85217000Y-114554000D03*
D18*
X91912440Y-120710960D03*
X91912440Y-118808500D03*
X89702640Y-119763540D03*
X92039440Y-117154960D03*
X92039440Y-115252500D03*
X89829640Y-116207540D03*
D31*
X115443000Y-124644000D03*
X115443000Y-122244000D03*
D32*
X116271000Y-119664000D03*
X117221000Y-119664000D03*
X118171000Y-119664000D03*
X116271000Y-117064000D03*
X118171000Y-117064000D03*
D19*
X116398040Y-104104440D03*
X118300500Y-104104440D03*
X117345460Y-101894640D03*
D25*
X107569000Y-104648000D03*
X107569000Y-102616000D03*
D33*
X100584000Y-103251000D03*
X101346000Y-103251000D03*
X100584000Y-104775000D03*
X101346000Y-104775000D03*
D34*
X99695000Y-103251000D03*
X99695000Y-104775000D03*
X102235000Y-103251000D03*
X102235000Y-104775000D03*
D33*
X94996000Y-104775000D03*
X94234000Y-104775000D03*
X94996000Y-103251000D03*
X94234000Y-103251000D03*
D34*
X95885000Y-104775000D03*
X95885000Y-103251000D03*
X93345000Y-104775000D03*
X93345000Y-103251000D03*
D35*
X97917000Y-112395000D03*
X107315000Y-112395000D03*
D36*
X71247000Y-102997000D03*
X79121000Y-102997000D03*
X71247000Y-97155000D03*
X79121000Y-97155000D03*
D11*
X87376000Y-107950000D03*
X85598000Y-107950000D03*
X80137000Y-118364000D03*
X81915000Y-118364000D03*
X76962000Y-118364000D03*
X78740000Y-118364000D03*
X76962000Y-119888000D03*
X78740000Y-119888000D03*
X85598000Y-106172000D03*
X87376000Y-106172000D03*
D18*
X87333000Y-99568000D03*
X85133000Y-100518000D03*
X85133000Y-98618000D03*
X107442000Y-120909000D03*
X107442000Y-124709000D03*
X109474000Y-124709000D03*
X109474000Y-120909000D03*
D11*
X104775000Y-90805000D03*
X104775000Y-92583000D03*
X87249000Y-118110000D03*
X89027000Y-118110000D03*
M02*
