G04 #@! TF.GenerationSoftware,KiCad,Pcbnew,no-vcs-found-097f89d~58~ubuntu14.04.1*
G04 #@! TF.CreationDate,2017-05-03T15:29:04+03:00*
G04 #@! TF.ProjectId,ESP32-GATEWAY_Rev_A,45535033322D474154455741595F5265,B*
G04 #@! TF.FileFunction,Legend,Top*
G04 #@! TF.FilePolarity,Positive*
%FSLAX46Y46*%
G04 Gerber Fmt 4.6, Leading zero omitted, Abs format (unit mm)*
G04 Created by KiCad (PCBNEW no-vcs-found-097f89d~58~ubuntu14.04.1) date Wed May  3 15:29:04 2017*
%MOMM*%
%LPD*%
G01*
G04 APERTURE LIST*
%ADD10C,0.100000*%
%ADD11C,0.254000*%
%ADD12C,0.127000*%
%ADD13C,0.150000*%
%ADD14C,0.200000*%
%ADD15C,0.400000*%
%ADD16C,0.050000*%
%ADD17C,0.158750*%
%ADD18C,0.190500*%
G04 APERTURE END LIST*
D10*
D11*
X93786476Y-108367285D02*
X94209809Y-108367285D01*
X94391238Y-109032523D02*
X93786476Y-109032523D01*
X93786476Y-107762523D01*
X94391238Y-107762523D01*
X94875047Y-108972047D02*
X95056476Y-109032523D01*
X95358857Y-109032523D01*
X95479809Y-108972047D01*
X95540285Y-108911571D01*
X95600761Y-108790619D01*
X95600761Y-108669666D01*
X95540285Y-108548714D01*
X95479809Y-108488238D01*
X95358857Y-108427761D01*
X95116952Y-108367285D01*
X94996000Y-108306809D01*
X94935523Y-108246333D01*
X94875047Y-108125380D01*
X94875047Y-108004428D01*
X94935523Y-107883476D01*
X94996000Y-107823000D01*
X95116952Y-107762523D01*
X95419333Y-107762523D01*
X95600761Y-107823000D01*
X96145047Y-109032523D02*
X96145047Y-107762523D01*
X96628857Y-107762523D01*
X96749809Y-107823000D01*
X96810285Y-107883476D01*
X96870761Y-108004428D01*
X96870761Y-108185857D01*
X96810285Y-108306809D01*
X96749809Y-108367285D01*
X96628857Y-108427761D01*
X96145047Y-108427761D01*
X97294095Y-107762523D02*
X98080285Y-107762523D01*
X97656952Y-108246333D01*
X97838380Y-108246333D01*
X97959333Y-108306809D01*
X98019809Y-108367285D01*
X98080285Y-108488238D01*
X98080285Y-108790619D01*
X98019809Y-108911571D01*
X97959333Y-108972047D01*
X97838380Y-109032523D01*
X97475523Y-109032523D01*
X97354571Y-108972047D01*
X97294095Y-108911571D01*
X98564095Y-107883476D02*
X98624571Y-107823000D01*
X98745523Y-107762523D01*
X99047904Y-107762523D01*
X99168857Y-107823000D01*
X99229333Y-107883476D01*
X99289809Y-108004428D01*
X99289809Y-108125380D01*
X99229333Y-108306809D01*
X98503619Y-109032523D01*
X99289809Y-109032523D01*
X99834095Y-108548714D02*
X100801714Y-108548714D01*
X102071714Y-107823000D02*
X101950761Y-107762523D01*
X101769333Y-107762523D01*
X101587904Y-107823000D01*
X101466952Y-107943952D01*
X101406476Y-108064904D01*
X101346000Y-108306809D01*
X101346000Y-108488238D01*
X101406476Y-108730142D01*
X101466952Y-108851095D01*
X101587904Y-108972047D01*
X101769333Y-109032523D01*
X101890285Y-109032523D01*
X102071714Y-108972047D01*
X102132190Y-108911571D01*
X102132190Y-108488238D01*
X101890285Y-108488238D01*
X102616000Y-108669666D02*
X103220761Y-108669666D01*
X102495047Y-109032523D02*
X102918380Y-107762523D01*
X103341714Y-109032523D01*
X103583619Y-107762523D02*
X104309333Y-107762523D01*
X103946476Y-109032523D02*
X103946476Y-107762523D01*
X104732666Y-108367285D02*
X105156000Y-108367285D01*
X105337428Y-109032523D02*
X104732666Y-109032523D01*
X104732666Y-107762523D01*
X105337428Y-107762523D01*
X105760761Y-107762523D02*
X106063142Y-109032523D01*
X106305047Y-108125380D01*
X106546952Y-109032523D01*
X106849333Y-107762523D01*
X107272666Y-108669666D02*
X107877428Y-108669666D01*
X107151714Y-109032523D02*
X107575047Y-107762523D01*
X107998380Y-109032523D01*
X108663619Y-108427761D02*
X108663619Y-109032523D01*
X108240285Y-107762523D02*
X108663619Y-108427761D01*
X109086952Y-107762523D01*
X120396000Y-101473000D02*
X120396000Y-129286000D01*
X119380000Y-101473000D02*
X120396000Y-101473000D01*
X119380000Y-89027000D02*
X119380000Y-101473000D01*
X120396000Y-89027000D02*
X119380000Y-89027000D01*
X120396000Y-67056000D02*
X120396000Y-89027000D01*
X120396000Y-67056000D02*
X89154000Y-67056000D01*
X69596000Y-129286000D02*
X120396000Y-129286000D01*
X69596000Y-73152000D02*
X69596000Y-129286000D01*
X71156285Y-126189619D02*
X70575714Y-126189619D01*
X70866000Y-126189619D02*
X70866000Y-125173619D01*
X70769238Y-125318761D01*
X70672476Y-125415523D01*
X70575714Y-125463904D01*
X89154000Y-73152000D02*
X89154000Y-67056000D01*
X69596000Y-73152000D02*
X89154000Y-73152000D01*
D12*
X98996500Y-123190000D02*
X104457500Y-123190000D01*
D13*
X98996500Y-115951000D02*
X98996500Y-123571000D01*
X104457500Y-123571000D02*
X104457500Y-115951000D01*
X98996500Y-115951000D02*
X104457500Y-115951000D01*
X104457500Y-123571000D02*
X98996500Y-123571000D01*
X105578710Y-123698000D02*
G75*
G03X105578710Y-123698000I-359210J0D01*
G01*
D14*
X97226873Y-95145860D02*
G75*
G03X97226873Y-95145860I-176013J0D01*
G01*
D11*
X97850960Y-95544640D02*
X97624900Y-95544640D01*
X102448360Y-95544640D02*
X102047040Y-95544640D01*
X102448360Y-95945960D02*
X102448360Y-95544640D01*
X102448360Y-100543360D02*
X102448360Y-100142040D01*
X102047040Y-100543360D02*
X102448360Y-100543360D01*
X97449640Y-100543360D02*
X97850960Y-100543360D01*
X97449640Y-100142040D02*
X97449640Y-100543360D01*
X97449640Y-95719900D02*
X97449640Y-95945960D01*
X97624900Y-95544640D02*
X97449640Y-95719900D01*
D12*
X104140000Y-91186000D02*
X104140000Y-90170000D01*
X104140000Y-90170000D02*
X105410000Y-90170000D01*
X105410000Y-90170000D02*
X105410000Y-91186000D01*
X104140000Y-93218000D02*
X105410000Y-93218000D01*
X105410000Y-93218000D02*
X105410000Y-92202000D01*
X104140000Y-93218000D02*
X104140000Y-92202000D01*
D11*
X71010000Y-67133000D02*
X89010000Y-67133000D01*
X71010000Y-73133000D02*
X89010000Y-73133000D01*
X70419411Y-73353000D02*
G75*
G03X70419411Y-73353000I-339411J0D01*
G01*
X89010000Y-67133000D02*
X89010000Y-73753000D01*
X71010000Y-92633000D02*
X71010000Y-92043000D01*
X71010000Y-92633000D02*
X73380000Y-92633000D01*
X89010000Y-92633000D02*
X86520000Y-92633000D01*
X89010000Y-92633000D02*
X89010000Y-92093000D01*
X71010000Y-67133000D02*
X71010000Y-73753000D01*
X77284580Y-116852700D02*
X75577700Y-117944900D01*
X70609460Y-106027220D02*
X70609460Y-117513100D01*
X71038720Y-105585260D02*
X81975960Y-105585260D01*
X71038720Y-117944900D02*
X75557380Y-117944900D01*
X82405220Y-116123720D02*
X82405220Y-116423440D01*
X82405220Y-110025180D02*
X82405220Y-112473740D01*
X82405220Y-106017060D02*
X82405220Y-106486960D01*
X81975960Y-116852700D02*
X77284580Y-116852700D01*
X98600260Y-67360800D02*
X100401120Y-67360800D01*
X99400360Y-72161400D02*
X98600260Y-67360800D01*
X99601020Y-72161400D02*
X99400360Y-72161400D01*
X100401120Y-67360800D02*
X99601020Y-72161400D01*
X102798880Y-67360800D02*
X104599740Y-67360800D01*
X103598980Y-72161400D02*
X102798880Y-67360800D01*
X103799640Y-72161400D02*
X103598980Y-72161400D01*
X104599740Y-67360800D02*
X103799640Y-72161400D01*
X110600000Y-67359000D02*
X110600000Y-74359000D01*
X109600000Y-67359000D02*
X110600000Y-67359000D01*
X92600000Y-67359000D02*
X92600000Y-74359000D01*
X93600000Y-67359000D02*
X92600000Y-67359000D01*
X99001580Y-72859900D02*
X98000820Y-67360800D01*
X100002340Y-72859900D02*
X99001580Y-72859900D01*
X101000560Y-67360800D02*
X100002340Y-72859900D01*
X103197660Y-72859900D02*
X102199440Y-67360800D01*
X104198420Y-72859900D02*
X103197660Y-72859900D01*
X105199180Y-67360800D02*
X104198420Y-72859900D01*
X95501460Y-68859400D02*
X95501460Y-69060060D01*
X95501460Y-68859400D02*
X95702120Y-68859400D01*
X95900240Y-69359780D02*
X95501460Y-68859400D01*
X96202500Y-68859400D02*
X96202500Y-69060060D01*
X96202500Y-68859400D02*
X96400620Y-68859400D01*
X96601280Y-69359780D02*
X96202500Y-68859400D01*
X97533460Y-70561200D02*
X97533460Y-72499220D01*
X96832420Y-70561200D02*
X97533460Y-70561200D01*
X95834200Y-69761100D02*
X95834200Y-71361300D01*
X95933260Y-70561200D02*
X96733360Y-71361300D01*
X96733360Y-69761100D02*
X95933260Y-70561200D01*
X96733360Y-69761100D02*
X96733360Y-71361300D01*
X95034100Y-70561200D02*
X95732600Y-70561200D01*
X95034100Y-72588120D02*
X95034100Y-70561200D01*
X106199940Y-68859400D02*
X106199940Y-69060060D01*
X106199940Y-68859400D02*
X106398060Y-68859400D01*
X106598720Y-69359780D02*
X106199940Y-68859400D01*
X106898440Y-68859400D02*
X106898440Y-69060060D01*
X106898440Y-68859400D02*
X107099100Y-68859400D01*
X107299760Y-69359780D02*
X106898440Y-68859400D01*
X105700000Y-70559000D02*
X105700000Y-72459000D01*
X106398060Y-70561200D02*
X105699560Y-70561200D01*
X106499660Y-71361300D02*
X106499660Y-69761100D01*
X106598720Y-70561200D02*
X107398820Y-69761100D01*
X107398820Y-71361300D02*
X106598720Y-70561200D01*
X107400000Y-71359000D02*
X107400000Y-69759000D01*
X108200000Y-70559000D02*
X107500000Y-70559000D01*
X108200000Y-72559000D02*
X108200000Y-70559000D01*
X109600000Y-83109000D02*
X109600000Y-89359000D01*
X109600000Y-67359000D02*
X109600000Y-79609000D01*
X93600000Y-67359000D02*
X109600000Y-67359000D01*
X93600000Y-79609000D02*
X93600000Y-67359000D01*
X93600000Y-89359000D02*
X93600000Y-83109000D01*
X109600000Y-89359000D02*
X93600000Y-89359000D01*
X103700000Y-72159000D02*
X103050000Y-67369000D01*
X103710000Y-72009000D02*
X104360000Y-67379000D01*
X103720000Y-71399000D02*
X103160000Y-67369000D01*
X103710000Y-71109000D02*
X104120000Y-67379000D01*
X103730000Y-70589000D02*
X103370000Y-67379000D01*
X103680000Y-69879000D02*
X103870000Y-67369000D01*
X103770000Y-68999000D02*
X103570000Y-67359000D01*
X103600000Y-68229000D02*
X103740000Y-67419000D01*
X99510000Y-71969000D02*
X98790000Y-67369000D01*
X99500000Y-71799000D02*
X100170000Y-67379000D01*
X99510000Y-71219000D02*
X98990000Y-67489000D01*
X99450000Y-70749000D02*
X99930000Y-67389000D01*
X99580000Y-69999000D02*
X99180000Y-67429000D01*
X99550000Y-69579000D02*
X99700000Y-67399000D01*
X99620000Y-68969000D02*
X99340000Y-67389000D01*
X99510000Y-68259000D02*
X99510000Y-67389000D01*
X111379000Y-123571000D02*
X111379000Y-122555000D01*
X113411000Y-123571000D02*
X113411000Y-122555000D01*
X106426000Y-104521000D02*
X106426000Y-103505000D01*
X104902000Y-104521000D02*
X104902000Y-103505000D01*
X104902000Y-104521000D02*
X104902000Y-103505000D01*
X103378000Y-104521000D02*
X103378000Y-103505000D01*
X85725000Y-113030000D02*
X86741000Y-113030000D01*
X85725000Y-110998000D02*
X86741000Y-110998000D01*
X107188000Y-91186000D02*
X107188000Y-92202000D01*
X105664000Y-91186000D02*
X105664000Y-92202000D01*
X110236000Y-103378000D02*
X110236000Y-104394000D01*
X108712000Y-103378000D02*
X108712000Y-104394000D01*
X98552000Y-103505000D02*
X98552000Y-104521000D01*
X97028000Y-103505000D02*
X97028000Y-104521000D01*
X104013000Y-94996000D02*
X105029000Y-94996000D01*
X104013000Y-93472000D02*
X105029000Y-93472000D01*
X94107000Y-93853000D02*
X93091000Y-93853000D01*
X94107000Y-95377000D02*
X93091000Y-95377000D01*
X94107000Y-99060000D02*
X93091000Y-99060000D01*
X94107000Y-100584000D02*
X93091000Y-100584000D01*
X94107000Y-99060000D02*
X93091000Y-99060000D01*
X94107000Y-97536000D02*
X93091000Y-97536000D01*
X106426000Y-99441000D02*
X105410000Y-99441000D01*
X106426000Y-97917000D02*
X105410000Y-97917000D01*
X90881000Y-102068000D02*
X87681000Y-102068000D01*
X87681000Y-97068000D02*
X90881000Y-97068000D01*
X90881000Y-102068000D02*
X90881000Y-101768000D01*
X90881000Y-99868000D02*
X90881000Y-99268000D01*
X90881000Y-97368000D02*
X90881000Y-97068000D01*
X87681000Y-102068000D02*
X87681000Y-101768000D01*
X87681000Y-99868000D02*
X87681000Y-99268000D01*
X87681000Y-97368000D02*
X87681000Y-97068000D01*
X89535000Y-100076000D02*
X89535000Y-99060000D01*
X89535000Y-99060000D02*
X89027000Y-99060000D01*
X89027000Y-99060000D02*
X89027000Y-100076000D01*
X89027000Y-100076000D02*
X89535000Y-100076000D01*
X89916000Y-99895660D02*
X89916000Y-99568000D01*
X89916000Y-99568000D02*
X89916000Y-99240340D01*
X89916000Y-99568000D02*
X90297000Y-99568000D01*
X88646000Y-99895660D02*
X88646000Y-99568000D01*
X88646000Y-99568000D02*
X88646000Y-99240340D01*
X88646000Y-99568000D02*
X88265000Y-99568000D01*
X89781000Y-102058000D02*
G75*
G03X88781000Y-102058000I-500000J0D01*
G01*
D15*
X116774000Y-111457000D02*
X116774000Y-108457000D01*
D11*
X118323360Y-111584740D02*
X113324640Y-111584740D01*
X113324640Y-108379260D02*
X118323360Y-108379260D01*
X115189000Y-109347000D02*
X115189000Y-110617000D01*
X115189000Y-110617000D02*
X116205000Y-109982000D01*
X115189000Y-109347000D02*
X116205000Y-109982000D01*
X116205000Y-109347000D02*
X116205000Y-110617000D01*
D12*
X106680000Y-104063800D02*
X106680000Y-103225600D01*
X108458000Y-104063800D02*
X108458000Y-103225600D01*
X86664800Y-113030000D02*
X85826600Y-113030000D01*
X86664800Y-114808000D02*
X85826600Y-114808000D01*
D11*
X119253000Y-85826600D02*
X119253000Y-84785200D01*
X119418100Y-84899500D02*
X119418100Y-85725000D01*
X119265700Y-85864700D02*
X119405400Y-85737700D01*
X119265700Y-84772500D02*
X119418100Y-84899500D01*
D13*
X118097300Y-84480400D02*
X118643400Y-83908900D01*
X118656100Y-83908900D02*
X118237000Y-83997800D01*
X118656100Y-83921600D02*
X118605300Y-84315300D01*
X117868700Y-83921600D02*
X117817900Y-84315300D01*
X117868700Y-83908900D02*
X117449600Y-83997800D01*
X117309900Y-84480400D02*
X117856000Y-83908900D01*
D16*
X117936000Y-85094000D02*
X118066000Y-84984000D01*
X118076000Y-84964000D02*
X117996000Y-84974000D01*
X118076000Y-84964000D02*
X118076000Y-85044000D01*
X117886000Y-84964000D02*
X117886000Y-85044000D01*
X117886000Y-84964000D02*
X117806000Y-84974000D01*
X117746000Y-85094000D02*
X117876000Y-84984000D01*
D10*
X117956000Y-85234000D02*
X117956000Y-85454000D01*
X117766000Y-85454000D02*
X117866000Y-85354000D01*
X117766000Y-85234000D02*
X117876000Y-85334000D01*
X117766000Y-85234000D02*
X117766000Y-85454000D01*
X117596000Y-85344000D02*
X118116000Y-85344000D01*
D12*
X118237000Y-84709000D02*
X119253000Y-84709000D01*
X119253000Y-85928200D02*
X118237000Y-85928200D01*
X116459000Y-84759800D02*
X116459000Y-85928200D01*
X116459000Y-85928200D02*
X117475000Y-85928200D01*
X116459000Y-84759800D02*
X117475000Y-84759800D01*
D11*
X81788000Y-94996000D02*
X82804000Y-94996000D01*
X81788000Y-96520000D02*
X82804000Y-96520000D01*
X82550000Y-102997000D02*
X81534000Y-102997000D01*
X82550000Y-104521000D02*
X81534000Y-104521000D01*
X86614000Y-102616000D02*
X86614000Y-101600000D01*
X85090000Y-102616000D02*
X85090000Y-101600000D01*
X90932000Y-72898000D02*
X90932000Y-71882000D01*
X92456000Y-72898000D02*
X92456000Y-71882000D01*
X112395000Y-76454000D02*
X112395000Y-77470000D01*
X110871000Y-76454000D02*
X110871000Y-77470000D01*
X97790000Y-91186000D02*
X97790000Y-92202000D01*
X99314000Y-91186000D02*
X99314000Y-92202000D01*
X86741000Y-116586000D02*
X85725000Y-116586000D01*
X86741000Y-115062000D02*
X85725000Y-115062000D01*
X97028000Y-91186000D02*
X97028000Y-92202000D01*
X95504000Y-91186000D02*
X95504000Y-92202000D01*
X101600000Y-91186000D02*
X101600000Y-92202000D01*
X103124000Y-91186000D02*
X103124000Y-92202000D01*
X100838000Y-91186000D02*
X100838000Y-92202000D01*
X99314000Y-91186000D02*
X99314000Y-92202000D01*
X88773000Y-102616000D02*
X89789000Y-102616000D01*
X88773000Y-104140000D02*
X89789000Y-104140000D01*
X108712000Y-122047000D02*
X109728000Y-122047000D01*
X108712000Y-123571000D02*
X109728000Y-123571000D01*
X88265000Y-96520000D02*
X89281000Y-96520000D01*
X88265000Y-94996000D02*
X89281000Y-94996000D01*
X105410000Y-99441000D02*
X106426000Y-99441000D01*
X105410000Y-100965000D02*
X106426000Y-100965000D01*
X94107000Y-92329000D02*
X93091000Y-92329000D01*
X94107000Y-93853000D02*
X93091000Y-93853000D01*
X108712000Y-120523000D02*
X109728000Y-120523000D01*
X108712000Y-122047000D02*
X109728000Y-122047000D01*
X95377000Y-116205000D02*
X94361000Y-116205000D01*
X95377000Y-117729000D02*
X94361000Y-117729000D01*
X87198200Y-103924100D02*
X84251800Y-103924100D01*
X87198200Y-103936800D02*
X87198200Y-104114600D01*
X84251800Y-103911400D02*
X84251800Y-104127300D01*
X87198200Y-107734100D02*
X87198200Y-107924600D01*
X87198200Y-107924600D02*
X84251800Y-107924600D01*
X84251800Y-107924600D02*
X84251800Y-107708700D01*
X92621100Y-102539800D02*
X92621100Y-105486200D01*
X92633800Y-102539800D02*
X92811600Y-102539800D01*
X92608400Y-105486200D02*
X92824300Y-105486200D01*
X96431100Y-102539800D02*
X96621600Y-102539800D01*
X96621600Y-102539800D02*
X96621600Y-105486200D01*
X96621600Y-105486200D02*
X96405700Y-105486200D01*
X98958400Y-102539800D02*
X99174300Y-102539800D01*
X98958400Y-105486200D02*
X98958400Y-102539800D01*
X99148900Y-105486200D02*
X98958400Y-105486200D01*
X102971600Y-102539800D02*
X102755700Y-102539800D01*
X102946200Y-105486200D02*
X102768400Y-105486200D01*
X102958900Y-105486200D02*
X102958900Y-102539800D01*
X115811300Y-117805200D02*
X115811300Y-118935500D01*
X118618000Y-117805200D02*
X118618000Y-118935500D01*
X86741000Y-110998000D02*
X85725000Y-110998000D01*
X86741000Y-109474000D02*
X85725000Y-109474000D01*
X76484000Y-96555000D02*
X76484000Y-97755000D01*
X76484000Y-97755000D02*
X73884000Y-97755000D01*
X73884000Y-96555000D02*
X73884000Y-97755000D01*
X76484000Y-96555000D02*
X73884000Y-96555000D01*
X72284000Y-99255000D02*
X78084000Y-99255000D01*
X72284000Y-95055000D02*
X72284000Y-99255000D01*
X78084000Y-95055000D02*
X72284000Y-95055000D01*
X78084000Y-99255000D02*
X78084000Y-95055000D01*
X76484000Y-102397000D02*
X76484000Y-103597000D01*
X76484000Y-103597000D02*
X73884000Y-103597000D01*
X73884000Y-102397000D02*
X73884000Y-103597000D01*
X76484000Y-102397000D02*
X73884000Y-102397000D01*
X72284000Y-105097000D02*
X78084000Y-105097000D01*
X72284000Y-100897000D02*
X72284000Y-105097000D01*
X78084000Y-100897000D02*
X72284000Y-100897000D01*
X78084000Y-105097000D02*
X78084000Y-100897000D01*
X93218000Y-85979000D02*
X93218000Y-84455000D01*
X90932000Y-85979000D02*
X90932000Y-84455000D01*
X93218000Y-76835000D02*
X93218000Y-78359000D01*
X90932000Y-76835000D02*
X90932000Y-78359000D01*
X95377000Y-115062000D02*
X94361000Y-115062000D01*
X95377000Y-113538000D02*
X94361000Y-113538000D01*
X109855000Y-115062000D02*
X110871000Y-115062000D01*
X109855000Y-113538000D02*
X110871000Y-113538000D01*
X95377000Y-121920000D02*
X94361000Y-121920000D01*
X95377000Y-120396000D02*
X94361000Y-120396000D01*
X108712000Y-120015000D02*
X109728000Y-120015000D01*
X108712000Y-118491000D02*
X109728000Y-118491000D01*
X80264000Y-100711000D02*
X80264000Y-99695000D01*
X78740000Y-100711000D02*
X78740000Y-99695000D01*
X118070000Y-105330000D02*
X113070000Y-105330000D01*
X116700000Y-108030000D02*
X116700000Y-105330000D01*
X113070000Y-108030000D02*
X118070000Y-108030000D01*
X116260000Y-108030000D02*
X116260000Y-105330000D01*
X116636800Y-102362000D02*
X115925600Y-102362000D01*
X115925600Y-103200200D02*
X115925600Y-102362000D01*
X118770400Y-103200200D02*
X118770400Y-102362000D01*
X118770400Y-102362000D02*
X118059200Y-102362000D01*
D13*
X97663000Y-110744000D02*
X97663000Y-111125000D01*
X97663000Y-114046000D02*
X97663000Y-113665000D01*
X107569000Y-114046000D02*
X107569000Y-113665000D01*
X107569000Y-110744000D02*
X107569000Y-111125000D01*
X108331000Y-109855000D02*
X108331000Y-111125000D01*
X108331000Y-114935000D02*
X108331000Y-113665000D01*
X96901000Y-114935000D02*
X96901000Y-113665000D01*
X96901000Y-109855000D02*
X96901000Y-111125000D01*
X97663000Y-114046000D02*
X98298000Y-114681000D01*
X98298000Y-114681000D02*
X106934000Y-114681000D01*
X106934000Y-114681000D02*
X107569000Y-114046000D01*
X107569000Y-110744000D02*
X106934000Y-110109000D01*
X106934000Y-110109000D02*
X98298000Y-110109000D01*
X98298000Y-110109000D02*
X97663000Y-110744000D01*
X108331000Y-114935000D02*
X96901000Y-114935000D01*
X96901000Y-109855000D02*
X108331000Y-109855000D01*
D11*
X90297000Y-116916200D02*
X90297000Y-117627400D01*
X91135200Y-117627400D02*
X90297000Y-117627400D01*
X91135200Y-114782600D02*
X90297000Y-114782600D01*
X90297000Y-114782600D02*
X90297000Y-115493800D01*
X90170000Y-120472200D02*
X90170000Y-121183400D01*
X91008200Y-121183400D02*
X90170000Y-121183400D01*
X91008200Y-118338600D02*
X90170000Y-118338600D01*
X90170000Y-118338600D02*
X90170000Y-119049800D01*
X114300000Y-103124000D02*
X113284000Y-103124000D01*
X114300000Y-104648000D02*
X113284000Y-104648000D01*
X95377000Y-119507000D02*
X94361000Y-119507000D01*
X95377000Y-117983000D02*
X94361000Y-117983000D01*
X82804000Y-96520000D02*
X81788000Y-96520000D01*
X82804000Y-98044000D02*
X81788000Y-98044000D01*
X81788000Y-99568000D02*
X82804000Y-99568000D01*
X81788000Y-98044000D02*
X82804000Y-98044000D01*
X85725000Y-98298000D02*
X85725000Y-97282000D01*
X84201000Y-98298000D02*
X84201000Y-97282000D01*
X118364000Y-87884000D02*
X117348000Y-87884000D01*
X118364000Y-86360000D02*
X117348000Y-86360000D01*
X114935000Y-118364000D02*
X114935000Y-119380000D01*
X113411000Y-118364000D02*
X113411000Y-119380000D01*
X113411000Y-116078000D02*
X113411000Y-115062000D01*
X114935000Y-116078000D02*
X114935000Y-115062000D01*
X117475000Y-111887000D02*
X116459000Y-111887000D01*
X117475000Y-113919000D02*
X116459000Y-113919000D01*
X117475000Y-115951000D02*
X116459000Y-115951000D01*
X117475000Y-113919000D02*
X116459000Y-113919000D01*
X87757000Y-120523000D02*
X86741000Y-120523000D01*
X87757000Y-118999000D02*
X86741000Y-118999000D01*
X82245200Y-102628700D02*
X83375500Y-102628700D01*
X82245200Y-99822000D02*
X83375500Y-99822000D01*
X87604600Y-123190000D02*
X87604600Y-122402600D01*
X87604600Y-122402600D02*
X88265000Y-122402600D01*
X89789000Y-122402600D02*
X90449400Y-122402600D01*
X90449400Y-122402600D02*
X90449400Y-123190000D01*
X88823800Y-123723400D02*
X89230200Y-123723400D01*
X82270600Y-123190000D02*
X82270600Y-122402600D01*
X82270600Y-122402600D02*
X82931000Y-122402600D01*
X84455000Y-122402600D02*
X85115400Y-122402600D01*
X85115400Y-122402600D02*
X85115400Y-123190000D01*
X83489800Y-123723400D02*
X83896200Y-123723400D01*
X85598000Y-122936000D02*
X85598000Y-123952000D01*
X87122000Y-122936000D02*
X87122000Y-123952000D01*
X114867000Y-91550000D02*
X116067000Y-91550000D01*
X120467000Y-98950000D02*
X118367000Y-98950000D01*
X120467000Y-91550000D02*
X120467000Y-98950000D01*
X118367000Y-91550000D02*
X120467000Y-91550000D01*
X113367000Y-92450000D02*
X113367000Y-93450000D01*
X113367000Y-97050000D02*
X113367000Y-98050000D01*
X114867000Y-98950000D02*
X116067000Y-98950000D01*
X119367000Y-91550000D02*
X119367000Y-98950000D01*
X110490000Y-129286000D02*
X110236000Y-129032000D01*
X110236000Y-127000000D02*
X110490000Y-126746000D01*
X110490000Y-126746000D02*
X112522000Y-126746000D01*
X115062000Y-126746000D02*
X115316000Y-127000000D01*
X112522000Y-129286000D02*
X110490000Y-129286000D01*
X115316000Y-129032000D02*
X115062000Y-129286000D01*
X113030000Y-126746000D02*
X115062000Y-126746000D01*
X112776000Y-127000000D02*
X113030000Y-126746000D01*
X115062000Y-129286000D02*
X113030000Y-129286000D01*
X112776000Y-129032000D02*
X112522000Y-129286000D01*
X113030000Y-129286000D02*
X112776000Y-129032000D01*
X112522000Y-126746000D02*
X112776000Y-127000000D01*
X115062000Y-126746000D02*
X115316000Y-127000000D01*
X115316000Y-129032000D02*
X115062000Y-129286000D01*
X115062000Y-129286000D02*
X113030000Y-129286000D01*
X113030000Y-126746000D02*
X115062000Y-126746000D01*
X112776000Y-127000000D02*
X113030000Y-126746000D01*
X113030000Y-129286000D02*
X112776000Y-129032000D01*
X118110000Y-129286000D02*
X117856000Y-129032000D01*
X117856000Y-127000000D02*
X118110000Y-126746000D01*
X118110000Y-126746000D02*
X120142000Y-126746000D01*
X120142000Y-129286000D02*
X118110000Y-129286000D01*
X120396000Y-129032000D02*
X120142000Y-129286000D01*
X120142000Y-126746000D02*
X120396000Y-127000000D01*
X117602000Y-126746000D02*
X117856000Y-127000000D01*
X118110000Y-129286000D02*
X117856000Y-129032000D01*
X117856000Y-129032000D02*
X117602000Y-129286000D01*
X120142000Y-129286000D02*
X118110000Y-129286000D01*
X117856000Y-127000000D02*
X118110000Y-126746000D01*
X118110000Y-126746000D02*
X120142000Y-126746000D01*
X120396000Y-127000000D02*
X120396000Y-129032000D01*
X120396000Y-129032000D02*
X120142000Y-129286000D01*
X117602000Y-129286000D02*
X115570000Y-129286000D01*
X120142000Y-126746000D02*
X120396000Y-127000000D01*
X115570000Y-126746000D02*
X117602000Y-126746000D01*
X115316000Y-127000000D02*
X115570000Y-126746000D01*
X115570000Y-129286000D02*
X115316000Y-129032000D01*
X105410000Y-129286000D02*
X105156000Y-129032000D01*
X105156000Y-127000000D02*
X105410000Y-126746000D01*
X105410000Y-126746000D02*
X107442000Y-126746000D01*
X109982000Y-126746000D02*
X110236000Y-127000000D01*
X107442000Y-129286000D02*
X105410000Y-129286000D01*
X110236000Y-129032000D02*
X109982000Y-129286000D01*
X107950000Y-126746000D02*
X109982000Y-126746000D01*
X107696000Y-127000000D02*
X107950000Y-126746000D01*
X109982000Y-129286000D02*
X107950000Y-129286000D01*
X107696000Y-129032000D02*
X107442000Y-129286000D01*
X107950000Y-129286000D02*
X107696000Y-129032000D01*
X107442000Y-126746000D02*
X107696000Y-127000000D01*
X109982000Y-126746000D02*
X110236000Y-127000000D01*
X110236000Y-129032000D02*
X109982000Y-129286000D01*
X109982000Y-129286000D02*
X107950000Y-129286000D01*
X107950000Y-126746000D02*
X109982000Y-126746000D01*
X107696000Y-127000000D02*
X107950000Y-126746000D01*
X107950000Y-129286000D02*
X107696000Y-129032000D01*
X102870000Y-129286000D02*
X102616000Y-129032000D01*
X102616000Y-127000000D02*
X102870000Y-126746000D01*
X102870000Y-126746000D02*
X104902000Y-126746000D01*
X104902000Y-129286000D02*
X102870000Y-129286000D01*
X105156000Y-129032000D02*
X104902000Y-129286000D01*
X104902000Y-126746000D02*
X105156000Y-127000000D01*
X102362000Y-126746000D02*
X102616000Y-127000000D01*
X102870000Y-129286000D02*
X102616000Y-129032000D01*
X102616000Y-129032000D02*
X102362000Y-129286000D01*
X104902000Y-129286000D02*
X102870000Y-129286000D01*
X102616000Y-127000000D02*
X102870000Y-126746000D01*
X102870000Y-126746000D02*
X104902000Y-126746000D01*
X105156000Y-129032000D02*
X104902000Y-129286000D01*
X102362000Y-129286000D02*
X100330000Y-129286000D01*
X104902000Y-126746000D02*
X105156000Y-127000000D01*
X100330000Y-126746000D02*
X102362000Y-126746000D01*
X100076000Y-127000000D02*
X100330000Y-126746000D01*
X100330000Y-129286000D02*
X100076000Y-129032000D01*
X95250000Y-129286000D02*
X94996000Y-129032000D01*
X94996000Y-127000000D02*
X95250000Y-126746000D01*
X95250000Y-126746000D02*
X97282000Y-126746000D01*
X99822000Y-126746000D02*
X100076000Y-127000000D01*
X97282000Y-129286000D02*
X95250000Y-129286000D01*
X100076000Y-129032000D02*
X99822000Y-129286000D01*
X97790000Y-126746000D02*
X99822000Y-126746000D01*
X97536000Y-127000000D02*
X97790000Y-126746000D01*
X99822000Y-129286000D02*
X97790000Y-129286000D01*
X97536000Y-129032000D02*
X97282000Y-129286000D01*
X97790000Y-129286000D02*
X97536000Y-129032000D01*
X97282000Y-126746000D02*
X97536000Y-127000000D01*
X99822000Y-126746000D02*
X100076000Y-127000000D01*
X100076000Y-129032000D02*
X99822000Y-129286000D01*
X99822000Y-129286000D02*
X97790000Y-129286000D01*
X97790000Y-126746000D02*
X99822000Y-126746000D01*
X97536000Y-127000000D02*
X97790000Y-126746000D01*
X97790000Y-129286000D02*
X97536000Y-129032000D01*
X92710000Y-129286000D02*
X92456000Y-129032000D01*
X92456000Y-127000000D02*
X92710000Y-126746000D01*
X92710000Y-126746000D02*
X94742000Y-126746000D01*
X94742000Y-129286000D02*
X92710000Y-129286000D01*
X94996000Y-129032000D02*
X94742000Y-129286000D01*
X94742000Y-126746000D02*
X94996000Y-127000000D01*
X92202000Y-126746000D02*
X92456000Y-127000000D01*
X92710000Y-129286000D02*
X92456000Y-129032000D01*
X92456000Y-129032000D02*
X92202000Y-129286000D01*
X94742000Y-129286000D02*
X92710000Y-129286000D01*
X92456000Y-127000000D02*
X92710000Y-126746000D01*
X92710000Y-126746000D02*
X94742000Y-126746000D01*
X94996000Y-129032000D02*
X94742000Y-129286000D01*
X92202000Y-129286000D02*
X90170000Y-129286000D01*
X94742000Y-126746000D02*
X94996000Y-127000000D01*
X90170000Y-126746000D02*
X92202000Y-126746000D01*
X89916000Y-127000000D02*
X90170000Y-126746000D01*
X90170000Y-129286000D02*
X89916000Y-129032000D01*
X85090000Y-129286000D02*
X84836000Y-129032000D01*
X84836000Y-127000000D02*
X85090000Y-126746000D01*
X85090000Y-126746000D02*
X87122000Y-126746000D01*
X89662000Y-126746000D02*
X89916000Y-127000000D01*
X87122000Y-129286000D02*
X85090000Y-129286000D01*
X89916000Y-129032000D02*
X89662000Y-129286000D01*
X87630000Y-126746000D02*
X89662000Y-126746000D01*
X87376000Y-127000000D02*
X87630000Y-126746000D01*
X89662000Y-129286000D02*
X87630000Y-129286000D01*
X87376000Y-129032000D02*
X87122000Y-129286000D01*
X87630000Y-129286000D02*
X87376000Y-129032000D01*
X87122000Y-126746000D02*
X87376000Y-127000000D01*
X89662000Y-126746000D02*
X89916000Y-127000000D01*
X89916000Y-129032000D02*
X89662000Y-129286000D01*
X89662000Y-129286000D02*
X87630000Y-129286000D01*
X87630000Y-126746000D02*
X89662000Y-126746000D01*
X87376000Y-127000000D02*
X87630000Y-126746000D01*
X87630000Y-129286000D02*
X87376000Y-129032000D01*
X82550000Y-129286000D02*
X82296000Y-129032000D01*
X82296000Y-127000000D02*
X82550000Y-126746000D01*
X82550000Y-126746000D02*
X84582000Y-126746000D01*
X84582000Y-129286000D02*
X82550000Y-129286000D01*
X84836000Y-129032000D02*
X84582000Y-129286000D01*
X84582000Y-126746000D02*
X84836000Y-127000000D01*
X82042000Y-126746000D02*
X82296000Y-127000000D01*
X82550000Y-129286000D02*
X82296000Y-129032000D01*
X82296000Y-129032000D02*
X82042000Y-129286000D01*
X84582000Y-129286000D02*
X82550000Y-129286000D01*
X82296000Y-127000000D02*
X82550000Y-126746000D01*
X82550000Y-126746000D02*
X84582000Y-126746000D01*
X84836000Y-129032000D02*
X84582000Y-129286000D01*
X77470000Y-129286000D02*
X77216000Y-129032000D01*
X82042000Y-129286000D02*
X80010000Y-129286000D01*
X84582000Y-126746000D02*
X84836000Y-127000000D01*
X80010000Y-126746000D02*
X82042000Y-126746000D01*
X79756000Y-127000000D02*
X80010000Y-126746000D01*
X69596000Y-126746000D02*
X69850000Y-126746000D01*
X69850000Y-126746000D02*
X71882000Y-126746000D01*
X71882000Y-126746000D02*
X72136000Y-127000000D01*
X72136000Y-127000000D02*
X72390000Y-126746000D01*
X72390000Y-126746000D02*
X74422000Y-126746000D01*
X74422000Y-126746000D02*
X74676000Y-127000000D01*
X74676000Y-127000000D02*
X74930000Y-126746000D01*
X74930000Y-126746000D02*
X76962000Y-126746000D01*
X76962000Y-126746000D02*
X77216000Y-127000000D01*
X77216000Y-127000000D02*
X77470000Y-126746000D01*
X77470000Y-126746000D02*
X79502000Y-126746000D01*
X79502000Y-126746000D02*
X79756000Y-127000000D01*
X79756000Y-129032000D02*
X79502000Y-129286000D01*
X79502000Y-129286000D02*
X77470000Y-129286000D01*
X80010000Y-129286000D02*
X79756000Y-129032000D01*
X77216000Y-129032000D02*
X76962000Y-129286000D01*
X76962000Y-129286000D02*
X74930000Y-129286000D01*
X69596000Y-127000000D02*
X69850000Y-126746000D01*
X69850000Y-129286000D02*
X69596000Y-129032000D01*
X70104000Y-129286000D02*
X69596000Y-129286000D01*
X74422000Y-129286000D02*
X72390000Y-129286000D01*
X72390000Y-129286000D02*
X72136000Y-129032000D01*
X72136000Y-129032000D02*
X71882000Y-129286000D01*
X71882000Y-129286000D02*
X70104000Y-129286000D01*
X74422000Y-129286000D02*
X74676000Y-129032000D01*
X74676000Y-129032000D02*
X74930000Y-129286000D01*
X69596000Y-126746000D02*
X69596000Y-129286000D01*
X119253000Y-81381600D02*
X119253000Y-80340200D01*
X119418100Y-80454500D02*
X119418100Y-81280000D01*
X119265700Y-81419700D02*
X119405400Y-81292700D01*
X119265700Y-80327500D02*
X119418100Y-80454500D01*
D13*
X118097300Y-80035400D02*
X118643400Y-79463900D01*
X118656100Y-79463900D02*
X118237000Y-79552800D01*
X118656100Y-79476600D02*
X118605300Y-79870300D01*
X117868700Y-79476600D02*
X117817900Y-79870300D01*
X117868700Y-79463900D02*
X117449600Y-79552800D01*
X117309900Y-80035400D02*
X117856000Y-79463900D01*
D16*
X117936000Y-80649000D02*
X118066000Y-80539000D01*
X118076000Y-80519000D02*
X117996000Y-80529000D01*
X118076000Y-80519000D02*
X118076000Y-80599000D01*
X117886000Y-80519000D02*
X117886000Y-80599000D01*
X117886000Y-80519000D02*
X117806000Y-80529000D01*
X117746000Y-80649000D02*
X117876000Y-80539000D01*
D10*
X117956000Y-80789000D02*
X117956000Y-81009000D01*
X117766000Y-81009000D02*
X117866000Y-80909000D01*
X117766000Y-80789000D02*
X117876000Y-80889000D01*
X117766000Y-80789000D02*
X117766000Y-81009000D01*
X117596000Y-80899000D02*
X118116000Y-80899000D01*
D12*
X118237000Y-80264000D02*
X119253000Y-80264000D01*
X119253000Y-81483200D02*
X118237000Y-81483200D01*
X116459000Y-80314800D02*
X116459000Y-81483200D01*
X116459000Y-81483200D02*
X117475000Y-81483200D01*
X116459000Y-80314800D02*
X117475000Y-80314800D01*
D11*
X117348000Y-83439000D02*
X118364000Y-83439000D01*
X117348000Y-81915000D02*
X118364000Y-81915000D01*
X105905904Y-123268619D02*
X105905904Y-124091095D01*
X105954285Y-124187857D01*
X106002666Y-124236238D01*
X106099428Y-124284619D01*
X106292952Y-124284619D01*
X106389714Y-124236238D01*
X106438095Y-124187857D01*
X106486476Y-124091095D01*
X106486476Y-123268619D01*
X107454095Y-123268619D02*
X106970285Y-123268619D01*
X106921904Y-123752428D01*
X106970285Y-123704047D01*
X107067047Y-123655666D01*
X107308952Y-123655666D01*
X107405714Y-123704047D01*
X107454095Y-123752428D01*
X107502476Y-123849190D01*
X107502476Y-124091095D01*
X107454095Y-124187857D01*
X107405714Y-124236238D01*
X107308952Y-124284619D01*
X107067047Y-124284619D01*
X106970285Y-124236238D01*
X106921904Y-124187857D01*
D13*
D11*
X94983904Y-95455619D02*
X94983904Y-96278095D01*
X95032285Y-96374857D01*
X95080666Y-96423238D01*
X95177428Y-96471619D01*
X95370952Y-96471619D01*
X95467714Y-96423238D01*
X95516095Y-96374857D01*
X95564476Y-96278095D01*
X95564476Y-95455619D01*
X96483714Y-95794285D02*
X96483714Y-96471619D01*
X96241809Y-95407238D02*
X95999904Y-96132952D01*
X96628857Y-96132952D01*
D17*
X102715785Y-90203261D02*
X102504119Y-89900880D01*
X102352928Y-90203261D02*
X102352928Y-89568261D01*
X102594833Y-89568261D01*
X102655309Y-89598500D01*
X102685547Y-89628738D01*
X102715785Y-89689214D01*
X102715785Y-89779928D01*
X102685547Y-89840404D01*
X102655309Y-89870642D01*
X102594833Y-89900880D01*
X102352928Y-89900880D01*
X102957690Y-89628738D02*
X102987928Y-89598500D01*
X103048404Y-89568261D01*
X103199595Y-89568261D01*
X103260071Y-89598500D01*
X103290309Y-89628738D01*
X103320547Y-89689214D01*
X103320547Y-89749690D01*
X103290309Y-89840404D01*
X102927452Y-90203261D01*
X103320547Y-90203261D01*
X103895071Y-89568261D02*
X103592690Y-89568261D01*
X103562452Y-89870642D01*
X103592690Y-89840404D01*
X103653166Y-89810166D01*
X103804357Y-89810166D01*
X103864833Y-89840404D01*
X103895071Y-89870642D01*
X103925309Y-89931119D01*
X103925309Y-90082309D01*
X103895071Y-90142785D01*
X103864833Y-90173023D01*
X103804357Y-90203261D01*
X103653166Y-90203261D01*
X103592690Y-90173023D01*
X103562452Y-90142785D01*
D11*
X87490904Y-93296619D02*
X87490904Y-94119095D01*
X87539285Y-94215857D01*
X87587666Y-94264238D01*
X87684428Y-94312619D01*
X87877952Y-94312619D01*
X87974714Y-94264238D01*
X88023095Y-94215857D01*
X88071476Y-94119095D01*
X88071476Y-93296619D01*
X88458523Y-93296619D02*
X89087476Y-93296619D01*
X88748809Y-93683666D01*
X88893952Y-93683666D01*
X88990714Y-93732047D01*
X89039095Y-93780428D01*
X89087476Y-93877190D01*
X89087476Y-94119095D01*
X89039095Y-94215857D01*
X88990714Y-94264238D01*
X88893952Y-94312619D01*
X88603666Y-94312619D01*
X88506904Y-94264238D01*
X88458523Y-94215857D01*
X84025619Y-116259428D02*
X83009619Y-116259428D01*
X83735333Y-115920761D01*
X83009619Y-115582095D01*
X84025619Y-115582095D01*
X84025619Y-115098285D02*
X83009619Y-115098285D01*
X83928857Y-114033904D02*
X83977238Y-114082285D01*
X84025619Y-114227428D01*
X84025619Y-114324190D01*
X83977238Y-114469333D01*
X83880476Y-114566095D01*
X83783714Y-114614476D01*
X83590190Y-114662857D01*
X83445047Y-114662857D01*
X83251523Y-114614476D01*
X83154761Y-114566095D01*
X83058000Y-114469333D01*
X83009619Y-114324190D01*
X83009619Y-114227428D01*
X83058000Y-114082285D01*
X83106380Y-114033904D01*
X84025619Y-113017904D02*
X83541809Y-113356571D01*
X84025619Y-113598476D02*
X83009619Y-113598476D01*
X83009619Y-113211428D01*
X83058000Y-113114666D01*
X83106380Y-113066285D01*
X83203142Y-113017904D01*
X83348285Y-113017904D01*
X83445047Y-113066285D01*
X83493428Y-113114666D01*
X83541809Y-113211428D01*
X83541809Y-113598476D01*
X83009619Y-112388952D02*
X83009619Y-112195428D01*
X83058000Y-112098666D01*
X83154761Y-112001904D01*
X83348285Y-111953523D01*
X83686952Y-111953523D01*
X83880476Y-112001904D01*
X83977238Y-112098666D01*
X84025619Y-112195428D01*
X84025619Y-112388952D01*
X83977238Y-112485714D01*
X83880476Y-112582476D01*
X83686952Y-112630857D01*
X83348285Y-112630857D01*
X83154761Y-112582476D01*
X83058000Y-112485714D01*
X83009619Y-112388952D01*
X84122380Y-111760000D02*
X84122380Y-110985904D01*
X83977238Y-110792380D02*
X84025619Y-110647238D01*
X84025619Y-110405333D01*
X83977238Y-110308571D01*
X83928857Y-110260190D01*
X83832095Y-110211809D01*
X83735333Y-110211809D01*
X83638571Y-110260190D01*
X83590190Y-110308571D01*
X83541809Y-110405333D01*
X83493428Y-110598857D01*
X83445047Y-110695619D01*
X83396666Y-110744000D01*
X83299904Y-110792380D01*
X83203142Y-110792380D01*
X83106380Y-110744000D01*
X83058000Y-110695619D01*
X83009619Y-110598857D01*
X83009619Y-110356952D01*
X83058000Y-110211809D01*
X84025619Y-109776380D02*
X83009619Y-109776380D01*
X83009619Y-109534476D01*
X83058000Y-109389333D01*
X83154761Y-109292571D01*
X83251523Y-109244190D01*
X83445047Y-109195809D01*
X83590190Y-109195809D01*
X83783714Y-109244190D01*
X83880476Y-109292571D01*
X83977238Y-109389333D01*
X84025619Y-109534476D01*
X84025619Y-109776380D01*
X84025619Y-108228190D02*
X84025619Y-108808761D01*
X84025619Y-108518476D02*
X83009619Y-108518476D01*
X83154761Y-108615238D01*
X83251523Y-108712000D01*
X83299904Y-108808761D01*
X92335047Y-91137619D02*
X91851238Y-91137619D01*
X91851238Y-90121619D01*
X92625333Y-90847333D02*
X93109142Y-90847333D01*
X92528571Y-91137619D02*
X92867238Y-90121619D01*
X93205904Y-91137619D01*
X93544571Y-91137619D02*
X93544571Y-90121619D01*
X94125142Y-91137619D01*
X94125142Y-90121619D01*
X95141142Y-91137619D02*
X94560571Y-91137619D01*
X94850857Y-91137619D02*
X94850857Y-90121619D01*
X94754095Y-90266761D01*
X94657333Y-90363523D01*
X94560571Y-90411904D01*
D18*
X112286142Y-120396000D02*
X112322428Y-120432285D01*
X112358714Y-120541142D01*
X112358714Y-120613714D01*
X112322428Y-120722571D01*
X112249857Y-120795142D01*
X112177285Y-120831428D01*
X112032142Y-120867714D01*
X111923285Y-120867714D01*
X111778142Y-120831428D01*
X111705571Y-120795142D01*
X111633000Y-120722571D01*
X111596714Y-120613714D01*
X111596714Y-120541142D01*
X111633000Y-120432285D01*
X111669285Y-120396000D01*
X112358714Y-119670285D02*
X112358714Y-120105714D01*
X112358714Y-119888000D02*
X111596714Y-119888000D01*
X111705571Y-119960571D01*
X111778142Y-120033142D01*
X111814428Y-120105714D01*
X105664000Y-106698142D02*
X105627714Y-106734428D01*
X105518857Y-106770714D01*
X105446285Y-106770714D01*
X105337428Y-106734428D01*
X105264857Y-106661857D01*
X105228571Y-106589285D01*
X105192285Y-106444142D01*
X105192285Y-106335285D01*
X105228571Y-106190142D01*
X105264857Y-106117571D01*
X105337428Y-106045000D01*
X105446285Y-106008714D01*
X105518857Y-106008714D01*
X105627714Y-106045000D01*
X105664000Y-106081285D01*
X106099428Y-106335285D02*
X106026857Y-106299000D01*
X105990571Y-106262714D01*
X105954285Y-106190142D01*
X105954285Y-106153857D01*
X105990571Y-106081285D01*
X106026857Y-106045000D01*
X106099428Y-106008714D01*
X106244571Y-106008714D01*
X106317142Y-106045000D01*
X106353428Y-106081285D01*
X106389714Y-106153857D01*
X106389714Y-106190142D01*
X106353428Y-106262714D01*
X106317142Y-106299000D01*
X106244571Y-106335285D01*
X106099428Y-106335285D01*
X106026857Y-106371571D01*
X105990571Y-106407857D01*
X105954285Y-106480428D01*
X105954285Y-106625571D01*
X105990571Y-106698142D01*
X106026857Y-106734428D01*
X106099428Y-106770714D01*
X106244571Y-106770714D01*
X106317142Y-106734428D01*
X106353428Y-106698142D01*
X106389714Y-106625571D01*
X106389714Y-106480428D01*
X106353428Y-106407857D01*
X106317142Y-106371571D01*
X106244571Y-106335285D01*
X103759000Y-106698142D02*
X103722714Y-106734428D01*
X103613857Y-106770714D01*
X103541285Y-106770714D01*
X103432428Y-106734428D01*
X103359857Y-106661857D01*
X103323571Y-106589285D01*
X103287285Y-106444142D01*
X103287285Y-106335285D01*
X103323571Y-106190142D01*
X103359857Y-106117571D01*
X103432428Y-106045000D01*
X103541285Y-106008714D01*
X103613857Y-106008714D01*
X103722714Y-106045000D01*
X103759000Y-106081285D01*
X104121857Y-106770714D02*
X104267000Y-106770714D01*
X104339571Y-106734428D01*
X104375857Y-106698142D01*
X104448428Y-106589285D01*
X104484714Y-106444142D01*
X104484714Y-106153857D01*
X104448428Y-106081285D01*
X104412142Y-106045000D01*
X104339571Y-106008714D01*
X104194428Y-106008714D01*
X104121857Y-106045000D01*
X104085571Y-106081285D01*
X104049285Y-106153857D01*
X104049285Y-106335285D01*
X104085571Y-106407857D01*
X104121857Y-106444142D01*
X104194428Y-106480428D01*
X104339571Y-106480428D01*
X104412142Y-106444142D01*
X104448428Y-106407857D01*
X104484714Y-106335285D01*
X88537142Y-112286142D02*
X88500857Y-112322428D01*
X88392000Y-112358714D01*
X88319428Y-112358714D01*
X88210571Y-112322428D01*
X88138000Y-112249857D01*
X88101714Y-112177285D01*
X88065428Y-112032142D01*
X88065428Y-111923285D01*
X88101714Y-111778142D01*
X88138000Y-111705571D01*
X88210571Y-111633000D01*
X88319428Y-111596714D01*
X88392000Y-111596714D01*
X88500857Y-111633000D01*
X88537142Y-111669285D01*
X89262857Y-112358714D02*
X88827428Y-112358714D01*
X89045142Y-112358714D02*
X89045142Y-111596714D01*
X88972571Y-111705571D01*
X88900000Y-111778142D01*
X88827428Y-111814428D01*
X89734571Y-111596714D02*
X89807142Y-111596714D01*
X89879714Y-111633000D01*
X89916000Y-111669285D01*
X89952285Y-111741857D01*
X89988571Y-111887000D01*
X89988571Y-112068428D01*
X89952285Y-112213571D01*
X89916000Y-112286142D01*
X89879714Y-112322428D01*
X89807142Y-112358714D01*
X89734571Y-112358714D01*
X89662000Y-112322428D01*
X89625714Y-112286142D01*
X89589428Y-112213571D01*
X89553142Y-112068428D01*
X89553142Y-111887000D01*
X89589428Y-111741857D01*
X89625714Y-111669285D01*
X89662000Y-111633000D01*
X89734571Y-111596714D01*
X108349142Y-91929857D02*
X108385428Y-91966142D01*
X108421714Y-92075000D01*
X108421714Y-92147571D01*
X108385428Y-92256428D01*
X108312857Y-92329000D01*
X108240285Y-92365285D01*
X108095142Y-92401571D01*
X107986285Y-92401571D01*
X107841142Y-92365285D01*
X107768571Y-92329000D01*
X107696000Y-92256428D01*
X107659714Y-92147571D01*
X107659714Y-92075000D01*
X107696000Y-91966142D01*
X107732285Y-91929857D01*
X108421714Y-91204142D02*
X108421714Y-91639571D01*
X108421714Y-91421857D02*
X107659714Y-91421857D01*
X107768571Y-91494428D01*
X107841142Y-91567000D01*
X107877428Y-91639571D01*
X108421714Y-90478428D02*
X108421714Y-90913857D01*
X108421714Y-90696142D02*
X107659714Y-90696142D01*
X107768571Y-90768714D01*
X107841142Y-90841285D01*
X107877428Y-90913857D01*
X111397142Y-104375857D02*
X111433428Y-104412142D01*
X111469714Y-104521000D01*
X111469714Y-104593571D01*
X111433428Y-104702428D01*
X111360857Y-104775000D01*
X111288285Y-104811285D01*
X111143142Y-104847571D01*
X111034285Y-104847571D01*
X110889142Y-104811285D01*
X110816571Y-104775000D01*
X110744000Y-104702428D01*
X110707714Y-104593571D01*
X110707714Y-104521000D01*
X110744000Y-104412142D01*
X110780285Y-104375857D01*
X111469714Y-103650142D02*
X111469714Y-104085571D01*
X111469714Y-103867857D02*
X110707714Y-103867857D01*
X110816571Y-103940428D01*
X110889142Y-104013000D01*
X110925428Y-104085571D01*
X110780285Y-103359857D02*
X110744000Y-103323571D01*
X110707714Y-103251000D01*
X110707714Y-103069571D01*
X110744000Y-102997000D01*
X110780285Y-102960714D01*
X110852857Y-102924428D01*
X110925428Y-102924428D01*
X111034285Y-102960714D01*
X111469714Y-103396142D01*
X111469714Y-102924428D01*
X97427142Y-106698142D02*
X97390857Y-106734428D01*
X97282000Y-106770714D01*
X97209428Y-106770714D01*
X97100571Y-106734428D01*
X97028000Y-106661857D01*
X96991714Y-106589285D01*
X96955428Y-106444142D01*
X96955428Y-106335285D01*
X96991714Y-106190142D01*
X97028000Y-106117571D01*
X97100571Y-106045000D01*
X97209428Y-106008714D01*
X97282000Y-106008714D01*
X97390857Y-106045000D01*
X97427142Y-106081285D01*
X98152857Y-106770714D02*
X97717428Y-106770714D01*
X97935142Y-106770714D02*
X97935142Y-106008714D01*
X97862571Y-106117571D01*
X97790000Y-106190142D01*
X97717428Y-106226428D01*
X98406857Y-106008714D02*
X98878571Y-106008714D01*
X98624571Y-106299000D01*
X98733428Y-106299000D01*
X98806000Y-106335285D01*
X98842285Y-106371571D01*
X98878571Y-106444142D01*
X98878571Y-106625571D01*
X98842285Y-106698142D01*
X98806000Y-106734428D01*
X98733428Y-106770714D01*
X98515714Y-106770714D01*
X98443142Y-106734428D01*
X98406857Y-106698142D01*
X103904142Y-96157142D02*
X103867857Y-96193428D01*
X103759000Y-96229714D01*
X103686428Y-96229714D01*
X103577571Y-96193428D01*
X103505000Y-96120857D01*
X103468714Y-96048285D01*
X103432428Y-95903142D01*
X103432428Y-95794285D01*
X103468714Y-95649142D01*
X103505000Y-95576571D01*
X103577571Y-95504000D01*
X103686428Y-95467714D01*
X103759000Y-95467714D01*
X103867857Y-95504000D01*
X103904142Y-95540285D01*
X104629857Y-96229714D02*
X104194428Y-96229714D01*
X104412142Y-96229714D02*
X104412142Y-95467714D01*
X104339571Y-95576571D01*
X104267000Y-95649142D01*
X104194428Y-95685428D01*
X105283000Y-95721714D02*
X105283000Y-96229714D01*
X105101571Y-95431428D02*
X104920142Y-95975714D01*
X105391857Y-95975714D01*
D17*
X90650785Y-94841785D02*
X90620547Y-94872023D01*
X90529833Y-94902261D01*
X90469357Y-94902261D01*
X90378642Y-94872023D01*
X90318166Y-94811547D01*
X90287928Y-94751071D01*
X90257690Y-94630119D01*
X90257690Y-94539404D01*
X90287928Y-94418452D01*
X90318166Y-94357976D01*
X90378642Y-94297500D01*
X90469357Y-94267261D01*
X90529833Y-94267261D01*
X90620547Y-94297500D01*
X90650785Y-94327738D01*
X91255547Y-94902261D02*
X90892690Y-94902261D01*
X91074119Y-94902261D02*
X91074119Y-94267261D01*
X91013642Y-94357976D01*
X90953166Y-94418452D01*
X90892690Y-94448690D01*
X91830071Y-94267261D02*
X91527690Y-94267261D01*
X91497452Y-94569642D01*
X91527690Y-94539404D01*
X91588166Y-94509166D01*
X91739357Y-94509166D01*
X91799833Y-94539404D01*
X91830071Y-94569642D01*
X91860309Y-94630119D01*
X91860309Y-94781309D01*
X91830071Y-94841785D01*
X91799833Y-94872023D01*
X91739357Y-94902261D01*
X91588166Y-94902261D01*
X91527690Y-94872023D01*
X91497452Y-94841785D01*
X95095785Y-101318785D02*
X95065547Y-101349023D01*
X94974833Y-101379261D01*
X94914357Y-101379261D01*
X94823642Y-101349023D01*
X94763166Y-101288547D01*
X94732928Y-101228071D01*
X94702690Y-101107119D01*
X94702690Y-101016404D01*
X94732928Y-100895452D01*
X94763166Y-100834976D01*
X94823642Y-100774500D01*
X94914357Y-100744261D01*
X94974833Y-100744261D01*
X95065547Y-100774500D01*
X95095785Y-100804738D01*
X95700547Y-101379261D02*
X95337690Y-101379261D01*
X95519119Y-101379261D02*
X95519119Y-100744261D01*
X95458642Y-100834976D01*
X95398166Y-100895452D01*
X95337690Y-100925690D01*
X96244833Y-100744261D02*
X96123880Y-100744261D01*
X96063404Y-100774500D01*
X96033166Y-100804738D01*
X95972690Y-100895452D01*
X95942452Y-101016404D01*
X95942452Y-101258309D01*
X95972690Y-101318785D01*
X96002928Y-101349023D01*
X96063404Y-101379261D01*
X96184357Y-101379261D01*
X96244833Y-101349023D01*
X96275071Y-101318785D01*
X96305309Y-101258309D01*
X96305309Y-101107119D01*
X96275071Y-101046642D01*
X96244833Y-101016404D01*
X96184357Y-100986166D01*
X96063404Y-100986166D01*
X96002928Y-101016404D01*
X95972690Y-101046642D01*
X95942452Y-101107119D01*
X95095785Y-97508785D02*
X95065547Y-97539023D01*
X94974833Y-97569261D01*
X94914357Y-97569261D01*
X94823642Y-97539023D01*
X94763166Y-97478547D01*
X94732928Y-97418071D01*
X94702690Y-97297119D01*
X94702690Y-97206404D01*
X94732928Y-97085452D01*
X94763166Y-97024976D01*
X94823642Y-96964500D01*
X94914357Y-96934261D01*
X94974833Y-96934261D01*
X95065547Y-96964500D01*
X95095785Y-96994738D01*
X95700547Y-97569261D02*
X95337690Y-97569261D01*
X95519119Y-97569261D02*
X95519119Y-96934261D01*
X95458642Y-97024976D01*
X95398166Y-97085452D01*
X95337690Y-97115690D01*
X95912214Y-96934261D02*
X96335547Y-96934261D01*
X96063404Y-97569261D01*
D18*
X108222142Y-98951142D02*
X108185857Y-98987428D01*
X108077000Y-99023714D01*
X108004428Y-99023714D01*
X107895571Y-98987428D01*
X107823000Y-98914857D01*
X107786714Y-98842285D01*
X107750428Y-98697142D01*
X107750428Y-98588285D01*
X107786714Y-98443142D01*
X107823000Y-98370571D01*
X107895571Y-98298000D01*
X108004428Y-98261714D01*
X108077000Y-98261714D01*
X108185857Y-98298000D01*
X108222142Y-98334285D01*
X108947857Y-99023714D02*
X108512428Y-99023714D01*
X108730142Y-99023714D02*
X108730142Y-98261714D01*
X108657571Y-98370571D01*
X108585000Y-98443142D01*
X108512428Y-98479428D01*
X109383285Y-98588285D02*
X109310714Y-98552000D01*
X109274428Y-98515714D01*
X109238142Y-98443142D01*
X109238142Y-98406857D01*
X109274428Y-98334285D01*
X109310714Y-98298000D01*
X109383285Y-98261714D01*
X109528428Y-98261714D01*
X109601000Y-98298000D01*
X109637285Y-98334285D01*
X109673571Y-98406857D01*
X109673571Y-98443142D01*
X109637285Y-98515714D01*
X109601000Y-98552000D01*
X109528428Y-98588285D01*
X109383285Y-98588285D01*
X109310714Y-98624571D01*
X109274428Y-98660857D01*
X109238142Y-98733428D01*
X109238142Y-98878571D01*
X109274428Y-98951142D01*
X109310714Y-98987428D01*
X109383285Y-99023714D01*
X109528428Y-99023714D01*
X109601000Y-98987428D01*
X109637285Y-98951142D01*
X109673571Y-98878571D01*
X109673571Y-98733428D01*
X109637285Y-98660857D01*
X109601000Y-98624571D01*
X109528428Y-98588285D01*
X92202000Y-101745142D02*
X92165714Y-101781428D01*
X92056857Y-101817714D01*
X91984285Y-101817714D01*
X91875428Y-101781428D01*
X91802857Y-101708857D01*
X91766571Y-101636285D01*
X91730285Y-101491142D01*
X91730285Y-101382285D01*
X91766571Y-101237142D01*
X91802857Y-101164571D01*
X91875428Y-101092000D01*
X91984285Y-101055714D01*
X92056857Y-101055714D01*
X92165714Y-101092000D01*
X92202000Y-101128285D01*
X92964000Y-101817714D02*
X92710000Y-101454857D01*
X92528571Y-101817714D02*
X92528571Y-101055714D01*
X92818857Y-101055714D01*
X92891428Y-101092000D01*
X92927714Y-101128285D01*
X92964000Y-101200857D01*
X92964000Y-101309714D01*
X92927714Y-101382285D01*
X92891428Y-101418571D01*
X92818857Y-101454857D01*
X92528571Y-101454857D01*
X93689714Y-101817714D02*
X93254285Y-101817714D01*
X93472000Y-101817714D02*
X93472000Y-101055714D01*
X93399428Y-101164571D01*
X93326857Y-101237142D01*
X93254285Y-101273428D01*
D11*
X110121095Y-110568619D02*
X110121095Y-109552619D01*
X110363000Y-109552619D01*
X110508142Y-109601000D01*
X110604904Y-109697761D01*
X110653285Y-109794523D01*
X110701666Y-109988047D01*
X110701666Y-110133190D01*
X110653285Y-110326714D01*
X110604904Y-110423476D01*
X110508142Y-110520238D01*
X110363000Y-110568619D01*
X110121095Y-110568619D01*
X111088714Y-109649380D02*
X111137095Y-109601000D01*
X111233857Y-109552619D01*
X111475761Y-109552619D01*
X111572523Y-109601000D01*
X111620904Y-109649380D01*
X111669285Y-109746142D01*
X111669285Y-109842904D01*
X111620904Y-109988047D01*
X111040333Y-110568619D01*
X111669285Y-110568619D01*
D18*
X115261571Y-77597000D02*
X115189000Y-77560714D01*
X115080142Y-77560714D01*
X114971285Y-77597000D01*
X114898714Y-77669571D01*
X114862428Y-77742142D01*
X114826142Y-77887285D01*
X114826142Y-77996142D01*
X114862428Y-78141285D01*
X114898714Y-78213857D01*
X114971285Y-78286428D01*
X115080142Y-78322714D01*
X115152714Y-78322714D01*
X115261571Y-78286428D01*
X115297857Y-78250142D01*
X115297857Y-77996142D01*
X115152714Y-77996142D01*
X115624428Y-78322714D02*
X115624428Y-77560714D01*
X116059857Y-78322714D01*
X116059857Y-77560714D01*
X116422714Y-78322714D02*
X116422714Y-77560714D01*
X116604142Y-77560714D01*
X116713000Y-77597000D01*
X116785571Y-77669571D01*
X116821857Y-77742142D01*
X116858142Y-77887285D01*
X116858142Y-77996142D01*
X116821857Y-78141285D01*
X116785571Y-78213857D01*
X116713000Y-78286428D01*
X116604142Y-78322714D01*
X116422714Y-78322714D01*
X117583857Y-78322714D02*
X117148428Y-78322714D01*
X117366142Y-78322714D02*
X117366142Y-77560714D01*
X117293571Y-77669571D01*
X117221000Y-77742142D01*
X117148428Y-77778428D01*
D11*
X118067666Y-122252619D02*
X117583857Y-122252619D01*
X117583857Y-121236619D01*
X118357952Y-121333380D02*
X118406333Y-121285000D01*
X118503095Y-121236619D01*
X118745000Y-121236619D01*
X118841761Y-121285000D01*
X118890142Y-121333380D01*
X118938523Y-121430142D01*
X118938523Y-121526904D01*
X118890142Y-121672047D01*
X118309571Y-122252619D01*
X118938523Y-122252619D01*
D18*
X107569000Y-106770714D02*
X107206142Y-106770714D01*
X107206142Y-106008714D01*
X107750428Y-106008714D02*
X108222142Y-106008714D01*
X107968142Y-106299000D01*
X108077000Y-106299000D01*
X108149571Y-106335285D01*
X108185857Y-106371571D01*
X108222142Y-106444142D01*
X108222142Y-106625571D01*
X108185857Y-106698142D01*
X108149571Y-106734428D01*
X108077000Y-106770714D01*
X107859285Y-106770714D01*
X107786714Y-106734428D01*
X107750428Y-106698142D01*
X88773000Y-115025714D02*
X88410142Y-115025714D01*
X88410142Y-114263714D01*
X89353571Y-114517714D02*
X89353571Y-115025714D01*
X89172142Y-114227428D02*
X88990714Y-114771714D01*
X89462428Y-114771714D01*
X110744000Y-85688714D02*
X110744000Y-84926714D01*
X111034285Y-84926714D01*
X111106857Y-84963000D01*
X111143142Y-84999285D01*
X111179428Y-85071857D01*
X111179428Y-85180714D01*
X111143142Y-85253285D01*
X111106857Y-85289571D01*
X111034285Y-85325857D01*
X110744000Y-85325857D01*
X111433428Y-84926714D02*
X111614857Y-85688714D01*
X111760000Y-85144428D01*
X111905142Y-85688714D01*
X112086571Y-84926714D01*
X112812285Y-85688714D02*
X112558285Y-85325857D01*
X112376857Y-85688714D02*
X112376857Y-84926714D01*
X112667142Y-84926714D01*
X112739714Y-84963000D01*
X112776000Y-84999285D01*
X112812285Y-85071857D01*
X112812285Y-85180714D01*
X112776000Y-85253285D01*
X112739714Y-85289571D01*
X112667142Y-85325857D01*
X112376857Y-85325857D01*
X113501714Y-85688714D02*
X113138857Y-85688714D01*
X113138857Y-84926714D01*
X113755714Y-85289571D02*
X114009714Y-85289571D01*
X114118571Y-85688714D02*
X113755714Y-85688714D01*
X113755714Y-84926714D01*
X114118571Y-84926714D01*
X114445142Y-85688714D02*
X114445142Y-84926714D01*
X114626571Y-84926714D01*
X114735428Y-84963000D01*
X114808000Y-85035571D01*
X114844285Y-85108142D01*
X114880571Y-85253285D01*
X114880571Y-85362142D01*
X114844285Y-85507285D01*
X114808000Y-85579857D01*
X114735428Y-85652428D01*
X114626571Y-85688714D01*
X114445142Y-85688714D01*
X115606285Y-85688714D02*
X115170857Y-85688714D01*
X115388571Y-85688714D02*
X115388571Y-84926714D01*
X115316000Y-85035571D01*
X115243428Y-85108142D01*
X115170857Y-85144428D01*
D17*
X79093785Y-94330761D02*
X78882119Y-94028380D01*
X78730928Y-94330761D02*
X78730928Y-93695761D01*
X78972833Y-93695761D01*
X79033309Y-93726000D01*
X79063547Y-93756238D01*
X79093785Y-93816714D01*
X79093785Y-93907428D01*
X79063547Y-93967904D01*
X79033309Y-93998142D01*
X78972833Y-94028380D01*
X78730928Y-94028380D01*
X79698547Y-94330761D02*
X79335690Y-94330761D01*
X79517119Y-94330761D02*
X79517119Y-93695761D01*
X79456642Y-93786476D01*
X79396166Y-93846952D01*
X79335690Y-93877190D01*
X80242833Y-93907428D02*
X80242833Y-94330761D01*
X80091642Y-93665523D02*
X79940452Y-94119095D01*
X80333547Y-94119095D01*
X78966785Y-104681261D02*
X78755119Y-104378880D01*
X78603928Y-104681261D02*
X78603928Y-104046261D01*
X78845833Y-104046261D01*
X78906309Y-104076500D01*
X78936547Y-104106738D01*
X78966785Y-104167214D01*
X78966785Y-104257928D01*
X78936547Y-104318404D01*
X78906309Y-104348642D01*
X78845833Y-104378880D01*
X78603928Y-104378880D01*
X79571547Y-104681261D02*
X79208690Y-104681261D01*
X79390119Y-104681261D02*
X79390119Y-104046261D01*
X79329642Y-104136976D01*
X79269166Y-104197452D01*
X79208690Y-104227690D01*
X80115833Y-104046261D02*
X79994880Y-104046261D01*
X79934404Y-104076500D01*
X79904166Y-104106738D01*
X79843690Y-104197452D01*
X79813452Y-104318404D01*
X79813452Y-104560309D01*
X79843690Y-104620785D01*
X79873928Y-104651023D01*
X79934404Y-104681261D01*
X80055357Y-104681261D01*
X80115833Y-104651023D01*
X80146071Y-104620785D01*
X80176309Y-104560309D01*
X80176309Y-104409119D01*
X80146071Y-104348642D01*
X80115833Y-104318404D01*
X80055357Y-104288166D01*
X79934404Y-104288166D01*
X79873928Y-104318404D01*
X79843690Y-104348642D01*
X79813452Y-104409119D01*
X87028261Y-100103214D02*
X86725880Y-100314880D01*
X87028261Y-100466071D02*
X86393261Y-100466071D01*
X86393261Y-100224166D01*
X86423500Y-100163690D01*
X86453738Y-100133452D01*
X86514214Y-100103214D01*
X86604928Y-100103214D01*
X86665404Y-100133452D01*
X86695642Y-100163690D01*
X86725880Y-100224166D01*
X86725880Y-100466071D01*
X86453738Y-99861309D02*
X86423500Y-99831071D01*
X86393261Y-99770595D01*
X86393261Y-99619404D01*
X86423500Y-99558928D01*
X86453738Y-99528690D01*
X86514214Y-99498452D01*
X86574690Y-99498452D01*
X86665404Y-99528690D01*
X87028261Y-99891547D01*
X87028261Y-99498452D01*
X86604928Y-98954166D02*
X87028261Y-98954166D01*
X86363023Y-99105357D02*
X86816595Y-99256547D01*
X86816595Y-98863452D01*
D18*
X90387714Y-72879857D02*
X90024857Y-73133857D01*
X90387714Y-73315285D02*
X89625714Y-73315285D01*
X89625714Y-73025000D01*
X89662000Y-72952428D01*
X89698285Y-72916142D01*
X89770857Y-72879857D01*
X89879714Y-72879857D01*
X89952285Y-72916142D01*
X89988571Y-72952428D01*
X90024857Y-73025000D01*
X90024857Y-73315285D01*
X89698285Y-72589571D02*
X89662000Y-72553285D01*
X89625714Y-72480714D01*
X89625714Y-72299285D01*
X89662000Y-72226714D01*
X89698285Y-72190428D01*
X89770857Y-72154142D01*
X89843428Y-72154142D01*
X89952285Y-72190428D01*
X90387714Y-72625857D01*
X90387714Y-72154142D01*
X89625714Y-71501000D02*
X89625714Y-71646142D01*
X89662000Y-71718714D01*
X89698285Y-71755000D01*
X89807142Y-71827571D01*
X89952285Y-71863857D01*
X90242571Y-71863857D01*
X90315142Y-71827571D01*
X90351428Y-71791285D01*
X90387714Y-71718714D01*
X90387714Y-71573571D01*
X90351428Y-71501000D01*
X90315142Y-71464714D01*
X90242571Y-71428428D01*
X90061142Y-71428428D01*
X89988571Y-71464714D01*
X89952285Y-71501000D01*
X89916000Y-71573571D01*
X89916000Y-71718714D01*
X89952285Y-71791285D01*
X89988571Y-71827571D01*
X90061142Y-71863857D01*
X113755714Y-77451857D02*
X113392857Y-77705857D01*
X113755714Y-77887285D02*
X112993714Y-77887285D01*
X112993714Y-77597000D01*
X113030000Y-77524428D01*
X113066285Y-77488142D01*
X113138857Y-77451857D01*
X113247714Y-77451857D01*
X113320285Y-77488142D01*
X113356571Y-77524428D01*
X113392857Y-77597000D01*
X113392857Y-77887285D01*
X113066285Y-77161571D02*
X113030000Y-77125285D01*
X112993714Y-77052714D01*
X112993714Y-76871285D01*
X113030000Y-76798714D01*
X113066285Y-76762428D01*
X113138857Y-76726142D01*
X113211428Y-76726142D01*
X113320285Y-76762428D01*
X113755714Y-77197857D01*
X113755714Y-76726142D01*
X112993714Y-76472142D02*
X112993714Y-75964142D01*
X113755714Y-76290714D01*
D17*
X98839261Y-94515214D02*
X98536880Y-94726880D01*
X98839261Y-94878071D02*
X98204261Y-94878071D01*
X98204261Y-94636166D01*
X98234500Y-94575690D01*
X98264738Y-94545452D01*
X98325214Y-94515214D01*
X98415928Y-94515214D01*
X98476404Y-94545452D01*
X98506642Y-94575690D01*
X98536880Y-94636166D01*
X98536880Y-94878071D01*
X98264738Y-94273309D02*
X98234500Y-94243071D01*
X98204261Y-94182595D01*
X98204261Y-94031404D01*
X98234500Y-93970928D01*
X98264738Y-93940690D01*
X98325214Y-93910452D01*
X98385690Y-93910452D01*
X98476404Y-93940690D01*
X98839261Y-94303547D01*
X98839261Y-93910452D01*
X98476404Y-93547595D02*
X98446166Y-93608071D01*
X98415928Y-93638309D01*
X98355452Y-93668547D01*
X98325214Y-93668547D01*
X98264738Y-93638309D01*
X98234500Y-93608071D01*
X98204261Y-93547595D01*
X98204261Y-93426642D01*
X98234500Y-93366166D01*
X98264738Y-93335928D01*
X98325214Y-93305690D01*
X98355452Y-93305690D01*
X98415928Y-93335928D01*
X98446166Y-93366166D01*
X98476404Y-93426642D01*
X98476404Y-93547595D01*
X98506642Y-93608071D01*
X98536880Y-93638309D01*
X98597357Y-93668547D01*
X98718309Y-93668547D01*
X98778785Y-93638309D01*
X98809023Y-93608071D01*
X98839261Y-93547595D01*
X98839261Y-93426642D01*
X98809023Y-93366166D01*
X98778785Y-93335928D01*
X98718309Y-93305690D01*
X98597357Y-93305690D01*
X98536880Y-93335928D01*
X98506642Y-93366166D01*
X98476404Y-93426642D01*
D18*
X85616142Y-117819714D02*
X85362142Y-117456857D01*
X85180714Y-117819714D02*
X85180714Y-117057714D01*
X85471000Y-117057714D01*
X85543571Y-117094000D01*
X85579857Y-117130285D01*
X85616142Y-117202857D01*
X85616142Y-117311714D01*
X85579857Y-117384285D01*
X85543571Y-117420571D01*
X85471000Y-117456857D01*
X85180714Y-117456857D01*
X85906428Y-117130285D02*
X85942714Y-117094000D01*
X86015285Y-117057714D01*
X86196714Y-117057714D01*
X86269285Y-117094000D01*
X86305571Y-117130285D01*
X86341857Y-117202857D01*
X86341857Y-117275428D01*
X86305571Y-117384285D01*
X85870142Y-117819714D01*
X86341857Y-117819714D01*
X86704714Y-117819714D02*
X86849857Y-117819714D01*
X86922428Y-117783428D01*
X86958714Y-117747142D01*
X87031285Y-117638285D01*
X87067571Y-117493142D01*
X87067571Y-117202857D01*
X87031285Y-117130285D01*
X86995000Y-117094000D01*
X86922428Y-117057714D01*
X86777285Y-117057714D01*
X86704714Y-117094000D01*
X86668428Y-117130285D01*
X86632142Y-117202857D01*
X86632142Y-117384285D01*
X86668428Y-117456857D01*
X86704714Y-117493142D01*
X86777285Y-117529428D01*
X86922428Y-117529428D01*
X86995000Y-117493142D01*
X87031285Y-117456857D01*
X87067571Y-117384285D01*
D17*
X96553261Y-94515214D02*
X96250880Y-94726880D01*
X96553261Y-94878071D02*
X95918261Y-94878071D01*
X95918261Y-94636166D01*
X95948500Y-94575690D01*
X95978738Y-94545452D01*
X96039214Y-94515214D01*
X96129928Y-94515214D01*
X96190404Y-94545452D01*
X96220642Y-94575690D01*
X96250880Y-94636166D01*
X96250880Y-94878071D01*
X95918261Y-94303547D02*
X95918261Y-93910452D01*
X96160166Y-94122119D01*
X96160166Y-94031404D01*
X96190404Y-93970928D01*
X96220642Y-93940690D01*
X96281119Y-93910452D01*
X96432309Y-93910452D01*
X96492785Y-93940690D01*
X96523023Y-93970928D01*
X96553261Y-94031404D01*
X96553261Y-94212833D01*
X96523023Y-94273309D01*
X96492785Y-94303547D01*
X96553261Y-93305690D02*
X96553261Y-93668547D01*
X96553261Y-93487119D02*
X95918261Y-93487119D01*
X96008976Y-93547595D01*
X96069452Y-93608071D01*
X96099690Y-93668547D01*
X102649261Y-94515214D02*
X102346880Y-94726880D01*
X102649261Y-94878071D02*
X102014261Y-94878071D01*
X102014261Y-94636166D01*
X102044500Y-94575690D01*
X102074738Y-94545452D01*
X102135214Y-94515214D01*
X102225928Y-94515214D01*
X102286404Y-94545452D01*
X102316642Y-94575690D01*
X102346880Y-94636166D01*
X102346880Y-94878071D01*
X102014261Y-94303547D02*
X102014261Y-93910452D01*
X102256166Y-94122119D01*
X102256166Y-94031404D01*
X102286404Y-93970928D01*
X102316642Y-93940690D01*
X102377119Y-93910452D01*
X102528309Y-93910452D01*
X102588785Y-93940690D01*
X102619023Y-93970928D01*
X102649261Y-94031404D01*
X102649261Y-94212833D01*
X102619023Y-94273309D01*
X102588785Y-94303547D01*
X102074738Y-93668547D02*
X102044500Y-93638309D01*
X102014261Y-93577833D01*
X102014261Y-93426642D01*
X102044500Y-93366166D01*
X102074738Y-93335928D01*
X102135214Y-93305690D01*
X102195690Y-93305690D01*
X102286404Y-93335928D01*
X102649261Y-93698785D01*
X102649261Y-93305690D01*
X100363261Y-94515214D02*
X100060880Y-94726880D01*
X100363261Y-94878071D02*
X99728261Y-94878071D01*
X99728261Y-94636166D01*
X99758500Y-94575690D01*
X99788738Y-94545452D01*
X99849214Y-94515214D01*
X99939928Y-94515214D01*
X100000404Y-94545452D01*
X100030642Y-94575690D01*
X100060880Y-94636166D01*
X100060880Y-94878071D01*
X99728261Y-94303547D02*
X99728261Y-93910452D01*
X99970166Y-94122119D01*
X99970166Y-94031404D01*
X100000404Y-93970928D01*
X100030642Y-93940690D01*
X100091119Y-93910452D01*
X100242309Y-93910452D01*
X100302785Y-93940690D01*
X100333023Y-93970928D01*
X100363261Y-94031404D01*
X100363261Y-94212833D01*
X100333023Y-94273309D01*
X100302785Y-94303547D01*
X99728261Y-93698785D02*
X99728261Y-93305690D01*
X99970166Y-93517357D01*
X99970166Y-93426642D01*
X100000404Y-93366166D01*
X100030642Y-93335928D01*
X100091119Y-93305690D01*
X100242309Y-93305690D01*
X100302785Y-93335928D01*
X100333023Y-93366166D01*
X100363261Y-93426642D01*
X100363261Y-93608071D01*
X100333023Y-93668547D01*
X100302785Y-93698785D01*
D18*
X89045142Y-105373714D02*
X88791142Y-105010857D01*
X88609714Y-105373714D02*
X88609714Y-104611714D01*
X88900000Y-104611714D01*
X88972571Y-104648000D01*
X89008857Y-104684285D01*
X89045142Y-104756857D01*
X89045142Y-104865714D01*
X89008857Y-104938285D01*
X88972571Y-104974571D01*
X88900000Y-105010857D01*
X88609714Y-105010857D01*
X89299142Y-104611714D02*
X89770857Y-104611714D01*
X89516857Y-104902000D01*
X89625714Y-104902000D01*
X89698285Y-104938285D01*
X89734571Y-104974571D01*
X89770857Y-105047142D01*
X89770857Y-105228571D01*
X89734571Y-105301142D01*
X89698285Y-105337428D01*
X89625714Y-105373714D01*
X89408000Y-105373714D01*
X89335428Y-105337428D01*
X89299142Y-105301142D01*
X90424000Y-104865714D02*
X90424000Y-105373714D01*
X90242571Y-104575428D02*
X90061142Y-105119714D01*
X90532857Y-105119714D01*
X108984142Y-126074714D02*
X108730142Y-125711857D01*
X108548714Y-126074714D02*
X108548714Y-125312714D01*
X108839000Y-125312714D01*
X108911571Y-125349000D01*
X108947857Y-125385285D01*
X108984142Y-125457857D01*
X108984142Y-125566714D01*
X108947857Y-125639285D01*
X108911571Y-125675571D01*
X108839000Y-125711857D01*
X108548714Y-125711857D01*
X109238142Y-125312714D02*
X109709857Y-125312714D01*
X109455857Y-125603000D01*
X109564714Y-125603000D01*
X109637285Y-125639285D01*
X109673571Y-125675571D01*
X109709857Y-125748142D01*
X109709857Y-125929571D01*
X109673571Y-126002142D01*
X109637285Y-126038428D01*
X109564714Y-126074714D01*
X109347000Y-126074714D01*
X109274428Y-126038428D01*
X109238142Y-126002142D01*
X110399285Y-125312714D02*
X110036428Y-125312714D01*
X110000142Y-125675571D01*
X110036428Y-125639285D01*
X110109000Y-125603000D01*
X110290428Y-125603000D01*
X110363000Y-125639285D01*
X110399285Y-125675571D01*
X110435571Y-125748142D01*
X110435571Y-125929571D01*
X110399285Y-126002142D01*
X110363000Y-126038428D01*
X110290428Y-126074714D01*
X110109000Y-126074714D01*
X110036428Y-126038428D01*
X110000142Y-126002142D01*
D17*
X85824785Y-95918261D02*
X85613119Y-95615880D01*
X85461928Y-95918261D02*
X85461928Y-95283261D01*
X85703833Y-95283261D01*
X85764309Y-95313500D01*
X85794547Y-95343738D01*
X85824785Y-95404214D01*
X85824785Y-95494928D01*
X85794547Y-95555404D01*
X85764309Y-95585642D01*
X85703833Y-95615880D01*
X85461928Y-95615880D01*
X86036452Y-95283261D02*
X86429547Y-95283261D01*
X86217880Y-95525166D01*
X86308595Y-95525166D01*
X86369071Y-95555404D01*
X86399309Y-95585642D01*
X86429547Y-95646119D01*
X86429547Y-95797309D01*
X86399309Y-95857785D01*
X86369071Y-95888023D01*
X86308595Y-95918261D01*
X86127166Y-95918261D01*
X86066690Y-95888023D01*
X86036452Y-95857785D01*
X86973833Y-95283261D02*
X86852880Y-95283261D01*
X86792404Y-95313500D01*
X86762166Y-95343738D01*
X86701690Y-95434452D01*
X86671452Y-95555404D01*
X86671452Y-95797309D01*
X86701690Y-95857785D01*
X86731928Y-95888023D01*
X86792404Y-95918261D01*
X86913357Y-95918261D01*
X86973833Y-95888023D01*
X87004071Y-95857785D01*
X87034309Y-95797309D01*
X87034309Y-95646119D01*
X87004071Y-95585642D01*
X86973833Y-95555404D01*
X86913357Y-95525166D01*
X86792404Y-95525166D01*
X86731928Y-95555404D01*
X86701690Y-95585642D01*
X86671452Y-95646119D01*
D18*
X108222142Y-100547714D02*
X107968142Y-100184857D01*
X107786714Y-100547714D02*
X107786714Y-99785714D01*
X108077000Y-99785714D01*
X108149571Y-99822000D01*
X108185857Y-99858285D01*
X108222142Y-99930857D01*
X108222142Y-100039714D01*
X108185857Y-100112285D01*
X108149571Y-100148571D01*
X108077000Y-100184857D01*
X107786714Y-100184857D01*
X108476142Y-99785714D02*
X108947857Y-99785714D01*
X108693857Y-100076000D01*
X108802714Y-100076000D01*
X108875285Y-100112285D01*
X108911571Y-100148571D01*
X108947857Y-100221142D01*
X108947857Y-100402571D01*
X108911571Y-100475142D01*
X108875285Y-100511428D01*
X108802714Y-100547714D01*
X108585000Y-100547714D01*
X108512428Y-100511428D01*
X108476142Y-100475142D01*
X109383285Y-100112285D02*
X109310714Y-100076000D01*
X109274428Y-100039714D01*
X109238142Y-99967142D01*
X109238142Y-99930857D01*
X109274428Y-99858285D01*
X109310714Y-99822000D01*
X109383285Y-99785714D01*
X109528428Y-99785714D01*
X109601000Y-99822000D01*
X109637285Y-99858285D01*
X109673571Y-99930857D01*
X109673571Y-99967142D01*
X109637285Y-100039714D01*
X109601000Y-100076000D01*
X109528428Y-100112285D01*
X109383285Y-100112285D01*
X109310714Y-100148571D01*
X109274428Y-100184857D01*
X109238142Y-100257428D01*
X109238142Y-100402571D01*
X109274428Y-100475142D01*
X109310714Y-100511428D01*
X109383285Y-100547714D01*
X109528428Y-100547714D01*
X109601000Y-100511428D01*
X109637285Y-100475142D01*
X109673571Y-100402571D01*
X109673571Y-100257428D01*
X109637285Y-100184857D01*
X109601000Y-100148571D01*
X109528428Y-100112285D01*
D17*
X90650785Y-93378261D02*
X90439119Y-93075880D01*
X90287928Y-93378261D02*
X90287928Y-92743261D01*
X90529833Y-92743261D01*
X90590309Y-92773500D01*
X90620547Y-92803738D01*
X90650785Y-92864214D01*
X90650785Y-92954928D01*
X90620547Y-93015404D01*
X90590309Y-93045642D01*
X90529833Y-93075880D01*
X90287928Y-93075880D01*
X90862452Y-92743261D02*
X91255547Y-92743261D01*
X91043880Y-92985166D01*
X91134595Y-92985166D01*
X91195071Y-93015404D01*
X91225309Y-93045642D01*
X91255547Y-93106119D01*
X91255547Y-93257309D01*
X91225309Y-93317785D01*
X91195071Y-93348023D01*
X91134595Y-93378261D01*
X90953166Y-93378261D01*
X90892690Y-93348023D01*
X90862452Y-93317785D01*
X91557928Y-93378261D02*
X91678880Y-93378261D01*
X91739357Y-93348023D01*
X91769595Y-93317785D01*
X91830071Y-93227071D01*
X91860309Y-93106119D01*
X91860309Y-92864214D01*
X91830071Y-92803738D01*
X91799833Y-92773500D01*
X91739357Y-92743261D01*
X91618404Y-92743261D01*
X91557928Y-92773500D01*
X91527690Y-92803738D01*
X91497452Y-92864214D01*
X91497452Y-93015404D01*
X91527690Y-93075880D01*
X91557928Y-93106119D01*
X91618404Y-93136357D01*
X91739357Y-93136357D01*
X91799833Y-93106119D01*
X91830071Y-93075880D01*
X91860309Y-93015404D01*
D18*
X108984142Y-124804714D02*
X108730142Y-124441857D01*
X108548714Y-124804714D02*
X108548714Y-124042714D01*
X108839000Y-124042714D01*
X108911571Y-124079000D01*
X108947857Y-124115285D01*
X108984142Y-124187857D01*
X108984142Y-124296714D01*
X108947857Y-124369285D01*
X108911571Y-124405571D01*
X108839000Y-124441857D01*
X108548714Y-124441857D01*
X109637285Y-124296714D02*
X109637285Y-124804714D01*
X109455857Y-124006428D02*
X109274428Y-124550714D01*
X109746142Y-124550714D01*
X110181571Y-124042714D02*
X110254142Y-124042714D01*
X110326714Y-124079000D01*
X110363000Y-124115285D01*
X110399285Y-124187857D01*
X110435571Y-124333000D01*
X110435571Y-124514428D01*
X110399285Y-124659571D01*
X110363000Y-124732142D01*
X110326714Y-124768428D01*
X110254142Y-124804714D01*
X110181571Y-124804714D01*
X110109000Y-124768428D01*
X110072714Y-124732142D01*
X110036428Y-124659571D01*
X110000142Y-124514428D01*
X110000142Y-124333000D01*
X110036428Y-124187857D01*
X110072714Y-124115285D01*
X110109000Y-124079000D01*
X110181571Y-124042714D01*
D17*
X96238785Y-116111261D02*
X96027119Y-115808880D01*
X95875928Y-116111261D02*
X95875928Y-115476261D01*
X96117833Y-115476261D01*
X96178309Y-115506500D01*
X96208547Y-115536738D01*
X96238785Y-115597214D01*
X96238785Y-115687928D01*
X96208547Y-115748404D01*
X96178309Y-115778642D01*
X96117833Y-115808880D01*
X95875928Y-115808880D01*
X96783071Y-115687928D02*
X96783071Y-116111261D01*
X96631880Y-115446023D02*
X96480690Y-115899595D01*
X96873785Y-115899595D01*
X97448309Y-116111261D02*
X97085452Y-116111261D01*
X97266880Y-116111261D02*
X97266880Y-115476261D01*
X97206404Y-115566976D01*
X97145928Y-115627452D01*
X97085452Y-115657690D01*
D18*
X88337571Y-108929714D02*
X88083571Y-108566857D01*
X87902142Y-108929714D02*
X87902142Y-108167714D01*
X88192428Y-108167714D01*
X88265000Y-108204000D01*
X88301285Y-108240285D01*
X88337571Y-108312857D01*
X88337571Y-108421714D01*
X88301285Y-108494285D01*
X88265000Y-108530571D01*
X88192428Y-108566857D01*
X87902142Y-108566857D01*
X88664142Y-108929714D02*
X88664142Y-108167714D01*
X88918142Y-108712000D01*
X89172142Y-108167714D01*
X89172142Y-108929714D01*
X89934142Y-108929714D02*
X89498714Y-108929714D01*
X89716428Y-108929714D02*
X89716428Y-108167714D01*
X89643857Y-108276571D01*
X89571285Y-108349142D01*
X89498714Y-108385428D01*
X94052571Y-106770714D02*
X93798571Y-106407857D01*
X93617142Y-106770714D02*
X93617142Y-106008714D01*
X93907428Y-106008714D01*
X93980000Y-106045000D01*
X94016285Y-106081285D01*
X94052571Y-106153857D01*
X94052571Y-106262714D01*
X94016285Y-106335285D01*
X93980000Y-106371571D01*
X93907428Y-106407857D01*
X93617142Y-106407857D01*
X94379142Y-106770714D02*
X94379142Y-106008714D01*
X94633142Y-106553000D01*
X94887142Y-106008714D01*
X94887142Y-106770714D01*
X95213714Y-106081285D02*
X95250000Y-106045000D01*
X95322571Y-106008714D01*
X95504000Y-106008714D01*
X95576571Y-106045000D01*
X95612857Y-106081285D01*
X95649142Y-106153857D01*
X95649142Y-106226428D01*
X95612857Y-106335285D01*
X95177428Y-106770714D01*
X95649142Y-106770714D01*
X100402571Y-106770714D02*
X100148571Y-106407857D01*
X99967142Y-106770714D02*
X99967142Y-106008714D01*
X100257428Y-106008714D01*
X100330000Y-106045000D01*
X100366285Y-106081285D01*
X100402571Y-106153857D01*
X100402571Y-106262714D01*
X100366285Y-106335285D01*
X100330000Y-106371571D01*
X100257428Y-106407857D01*
X99967142Y-106407857D01*
X100729142Y-106770714D02*
X100729142Y-106008714D01*
X100983142Y-106553000D01*
X101237142Y-106008714D01*
X101237142Y-106770714D01*
X101527428Y-106008714D02*
X101999142Y-106008714D01*
X101745142Y-106299000D01*
X101854000Y-106299000D01*
X101926571Y-106335285D01*
X101962857Y-106371571D01*
X101999142Y-106444142D01*
X101999142Y-106625571D01*
X101962857Y-106698142D01*
X101926571Y-106734428D01*
X101854000Y-106770714D01*
X101636285Y-106770714D01*
X101563714Y-106734428D01*
X101527428Y-106698142D01*
D11*
X119077619Y-119138095D02*
X119900095Y-119138095D01*
X119996857Y-119089714D01*
X120045238Y-119041333D01*
X120093619Y-118944571D01*
X120093619Y-118751047D01*
X120045238Y-118654285D01*
X119996857Y-118605904D01*
X119900095Y-118557523D01*
X119077619Y-118557523D01*
X119174380Y-118122095D02*
X119126000Y-118073714D01*
X119077619Y-117976952D01*
X119077619Y-117735047D01*
X119126000Y-117638285D01*
X119174380Y-117589904D01*
X119271142Y-117541523D01*
X119367904Y-117541523D01*
X119513047Y-117589904D01*
X120093619Y-118170476D01*
X120093619Y-117541523D01*
D18*
X88410142Y-110580714D02*
X88156142Y-110217857D01*
X87974714Y-110580714D02*
X87974714Y-109818714D01*
X88265000Y-109818714D01*
X88337571Y-109855000D01*
X88373857Y-109891285D01*
X88410142Y-109963857D01*
X88410142Y-110072714D01*
X88373857Y-110145285D01*
X88337571Y-110181571D01*
X88265000Y-110217857D01*
X87974714Y-110217857D01*
X89063285Y-110072714D02*
X89063285Y-110580714D01*
X88881857Y-109782428D02*
X88700428Y-110326714D01*
X89172142Y-110326714D01*
X89389857Y-109818714D02*
X89861571Y-109818714D01*
X89607571Y-110109000D01*
X89716428Y-110109000D01*
X89789000Y-110145285D01*
X89825285Y-110181571D01*
X89861571Y-110254142D01*
X89861571Y-110435571D01*
X89825285Y-110508142D01*
X89789000Y-110544428D01*
X89716428Y-110580714D01*
X89498714Y-110580714D01*
X89426142Y-110544428D01*
X89389857Y-110508142D01*
D11*
X70666428Y-95945476D02*
X70714809Y-95800333D01*
X70763190Y-95751952D01*
X70859952Y-95703571D01*
X71005095Y-95703571D01*
X71101857Y-95751952D01*
X71150238Y-95800333D01*
X71198619Y-95897095D01*
X71198619Y-96284142D01*
X70182619Y-96284142D01*
X70182619Y-95945476D01*
X70231000Y-95848714D01*
X70279380Y-95800333D01*
X70376142Y-95751952D01*
X70472904Y-95751952D01*
X70569666Y-95800333D01*
X70618047Y-95848714D01*
X70666428Y-95945476D01*
X70666428Y-96284142D01*
X70182619Y-95268142D02*
X71005095Y-95268142D01*
X71101857Y-95219761D01*
X71150238Y-95171380D01*
X71198619Y-95074619D01*
X71198619Y-94881095D01*
X71150238Y-94784333D01*
X71101857Y-94735952D01*
X71005095Y-94687571D01*
X70182619Y-94687571D01*
X70182619Y-94348904D02*
X70182619Y-93768333D01*
X71198619Y-94058619D02*
X70182619Y-94058619D01*
X71198619Y-92897476D02*
X71198619Y-93478047D01*
X71198619Y-93187761D02*
X70182619Y-93187761D01*
X70327761Y-93284523D01*
X70424523Y-93381285D01*
X70472904Y-93478047D01*
X71198619Y-101243190D02*
X70714809Y-101581857D01*
X71198619Y-101823761D02*
X70182619Y-101823761D01*
X70182619Y-101436714D01*
X70231000Y-101339952D01*
X70279380Y-101291571D01*
X70376142Y-101243190D01*
X70521285Y-101243190D01*
X70618047Y-101291571D01*
X70666428Y-101339952D01*
X70714809Y-101436714D01*
X70714809Y-101823761D01*
X71150238Y-100856142D02*
X71198619Y-100711000D01*
X71198619Y-100469095D01*
X71150238Y-100372333D01*
X71101857Y-100323952D01*
X71005095Y-100275571D01*
X70908333Y-100275571D01*
X70811571Y-100323952D01*
X70763190Y-100372333D01*
X70714809Y-100469095D01*
X70666428Y-100662619D01*
X70618047Y-100759380D01*
X70569666Y-100807761D01*
X70472904Y-100856142D01*
X70376142Y-100856142D01*
X70279380Y-100807761D01*
X70231000Y-100759380D01*
X70182619Y-100662619D01*
X70182619Y-100420714D01*
X70231000Y-100275571D01*
X70182619Y-99985285D02*
X70182619Y-99404714D01*
X71198619Y-99695000D02*
X70182619Y-99695000D01*
X71198619Y-98533857D02*
X71198619Y-99114428D01*
X71198619Y-98824142D02*
X70182619Y-98824142D01*
X70327761Y-98920904D01*
X70424523Y-99017666D01*
X70472904Y-99114428D01*
D18*
X90696142Y-82441142D02*
X90659857Y-82477428D01*
X90551000Y-82513714D01*
X90478428Y-82513714D01*
X90369571Y-82477428D01*
X90297000Y-82404857D01*
X90260714Y-82332285D01*
X90224428Y-82187142D01*
X90224428Y-82078285D01*
X90260714Y-81933142D01*
X90297000Y-81860571D01*
X90369571Y-81788000D01*
X90478428Y-81751714D01*
X90551000Y-81751714D01*
X90659857Y-81788000D01*
X90696142Y-81824285D01*
X91421857Y-82513714D02*
X90986428Y-82513714D01*
X91204142Y-82513714D02*
X91204142Y-81751714D01*
X91131571Y-81860571D01*
X91059000Y-81933142D01*
X90986428Y-81969428D01*
X91784714Y-82513714D02*
X91929857Y-82513714D01*
X92002428Y-82477428D01*
X92038714Y-82441142D01*
X92111285Y-82332285D01*
X92147571Y-82187142D01*
X92147571Y-81896857D01*
X92111285Y-81824285D01*
X92075000Y-81788000D01*
X92002428Y-81751714D01*
X91857285Y-81751714D01*
X91784714Y-81788000D01*
X91748428Y-81824285D01*
X91712142Y-81896857D01*
X91712142Y-82078285D01*
X91748428Y-82150857D01*
X91784714Y-82187142D01*
X91857285Y-82223428D01*
X92002428Y-82223428D01*
X92075000Y-82187142D01*
X92111285Y-82150857D01*
X92147571Y-82078285D01*
X90696142Y-81044142D02*
X90659857Y-81080428D01*
X90551000Y-81116714D01*
X90478428Y-81116714D01*
X90369571Y-81080428D01*
X90297000Y-81007857D01*
X90260714Y-80935285D01*
X90224428Y-80790142D01*
X90224428Y-80681285D01*
X90260714Y-80536142D01*
X90297000Y-80463571D01*
X90369571Y-80391000D01*
X90478428Y-80354714D01*
X90551000Y-80354714D01*
X90659857Y-80391000D01*
X90696142Y-80427285D01*
X90986428Y-80427285D02*
X91022714Y-80391000D01*
X91095285Y-80354714D01*
X91276714Y-80354714D01*
X91349285Y-80391000D01*
X91385571Y-80427285D01*
X91421857Y-80499857D01*
X91421857Y-80572428D01*
X91385571Y-80681285D01*
X90950142Y-81116714D01*
X91421857Y-81116714D01*
X91893571Y-80354714D02*
X91966142Y-80354714D01*
X92038714Y-80391000D01*
X92075000Y-80427285D01*
X92111285Y-80499857D01*
X92147571Y-80645000D01*
X92147571Y-80826428D01*
X92111285Y-80971571D01*
X92075000Y-81044142D01*
X92038714Y-81080428D01*
X91966142Y-81116714D01*
X91893571Y-81116714D01*
X91821000Y-81080428D01*
X91784714Y-81044142D01*
X91748428Y-80971571D01*
X91712142Y-80826428D01*
X91712142Y-80645000D01*
X91748428Y-80499857D01*
X91784714Y-80427285D01*
X91821000Y-80391000D01*
X91893571Y-80354714D01*
D13*
D18*
X95014142Y-112503857D02*
X95050428Y-112540142D01*
X95086714Y-112649000D01*
X95086714Y-112721571D01*
X95050428Y-112830428D01*
X94977857Y-112903000D01*
X94905285Y-112939285D01*
X94760142Y-112975571D01*
X94651285Y-112975571D01*
X94506142Y-112939285D01*
X94433571Y-112903000D01*
X94361000Y-112830428D01*
X94324714Y-112721571D01*
X94324714Y-112649000D01*
X94361000Y-112540142D01*
X94397285Y-112503857D01*
X94397285Y-112213571D02*
X94361000Y-112177285D01*
X94324714Y-112104714D01*
X94324714Y-111923285D01*
X94361000Y-111850714D01*
X94397285Y-111814428D01*
X94469857Y-111778142D01*
X94542428Y-111778142D01*
X94651285Y-111814428D01*
X95086714Y-112249857D01*
X95086714Y-111778142D01*
X95086714Y-111052428D02*
X95086714Y-111487857D01*
X95086714Y-111270142D02*
X94324714Y-111270142D01*
X94433571Y-111342714D01*
X94506142Y-111415285D01*
X94542428Y-111487857D01*
X110635142Y-112794142D02*
X110598857Y-112830428D01*
X110490000Y-112866714D01*
X110417428Y-112866714D01*
X110308571Y-112830428D01*
X110236000Y-112757857D01*
X110199714Y-112685285D01*
X110163428Y-112540142D01*
X110163428Y-112431285D01*
X110199714Y-112286142D01*
X110236000Y-112213571D01*
X110308571Y-112141000D01*
X110417428Y-112104714D01*
X110490000Y-112104714D01*
X110598857Y-112141000D01*
X110635142Y-112177285D01*
X110925428Y-112177285D02*
X110961714Y-112141000D01*
X111034285Y-112104714D01*
X111215714Y-112104714D01*
X111288285Y-112141000D01*
X111324571Y-112177285D01*
X111360857Y-112249857D01*
X111360857Y-112322428D01*
X111324571Y-112431285D01*
X110889142Y-112866714D01*
X111360857Y-112866714D01*
X111651142Y-112177285D02*
X111687428Y-112141000D01*
X111760000Y-112104714D01*
X111941428Y-112104714D01*
X112014000Y-112141000D01*
X112050285Y-112177285D01*
X112086571Y-112249857D01*
X112086571Y-112322428D01*
X112050285Y-112431285D01*
X111614857Y-112866714D01*
X112086571Y-112866714D01*
D17*
X94460785Y-122908785D02*
X94430547Y-122939023D01*
X94339833Y-122969261D01*
X94279357Y-122969261D01*
X94188642Y-122939023D01*
X94128166Y-122878547D01*
X94097928Y-122818071D01*
X94067690Y-122697119D01*
X94067690Y-122606404D01*
X94097928Y-122485452D01*
X94128166Y-122424976D01*
X94188642Y-122364500D01*
X94279357Y-122334261D01*
X94339833Y-122334261D01*
X94430547Y-122364500D01*
X94460785Y-122394738D01*
X94702690Y-122394738D02*
X94732928Y-122364500D01*
X94793404Y-122334261D01*
X94944595Y-122334261D01*
X95005071Y-122364500D01*
X95035309Y-122394738D01*
X95065547Y-122455214D01*
X95065547Y-122515690D01*
X95035309Y-122606404D01*
X94672452Y-122969261D01*
X95065547Y-122969261D01*
X95277214Y-122334261D02*
X95670309Y-122334261D01*
X95458642Y-122576166D01*
X95549357Y-122576166D01*
X95609833Y-122606404D01*
X95640071Y-122636642D01*
X95670309Y-122697119D01*
X95670309Y-122848309D01*
X95640071Y-122908785D01*
X95609833Y-122939023D01*
X95549357Y-122969261D01*
X95367928Y-122969261D01*
X95307452Y-122939023D01*
X95277214Y-122908785D01*
D18*
X108730142Y-117874142D02*
X108693857Y-117910428D01*
X108585000Y-117946714D01*
X108512428Y-117946714D01*
X108403571Y-117910428D01*
X108331000Y-117837857D01*
X108294714Y-117765285D01*
X108258428Y-117620142D01*
X108258428Y-117511285D01*
X108294714Y-117366142D01*
X108331000Y-117293571D01*
X108403571Y-117221000D01*
X108512428Y-117184714D01*
X108585000Y-117184714D01*
X108693857Y-117221000D01*
X108730142Y-117257285D01*
X109020428Y-117257285D02*
X109056714Y-117221000D01*
X109129285Y-117184714D01*
X109310714Y-117184714D01*
X109383285Y-117221000D01*
X109419571Y-117257285D01*
X109455857Y-117329857D01*
X109455857Y-117402428D01*
X109419571Y-117511285D01*
X108984142Y-117946714D01*
X109455857Y-117946714D01*
X110109000Y-117438714D02*
X110109000Y-117946714D01*
X109927571Y-117148428D02*
X109746142Y-117692714D01*
X110217857Y-117692714D01*
X76662642Y-100411642D02*
X76626357Y-100447928D01*
X76517500Y-100484214D01*
X76444928Y-100484214D01*
X76336071Y-100447928D01*
X76263500Y-100375357D01*
X76227214Y-100302785D01*
X76190928Y-100157642D01*
X76190928Y-100048785D01*
X76227214Y-99903642D01*
X76263500Y-99831071D01*
X76336071Y-99758500D01*
X76444928Y-99722214D01*
X76517500Y-99722214D01*
X76626357Y-99758500D01*
X76662642Y-99794785D01*
X76952928Y-99794785D02*
X76989214Y-99758500D01*
X77061785Y-99722214D01*
X77243214Y-99722214D01*
X77315785Y-99758500D01*
X77352071Y-99794785D01*
X77388357Y-99867357D01*
X77388357Y-99939928D01*
X77352071Y-100048785D01*
X76916642Y-100484214D01*
X77388357Y-100484214D01*
X77823785Y-100048785D02*
X77751214Y-100012500D01*
X77714928Y-99976214D01*
X77678642Y-99903642D01*
X77678642Y-99867357D01*
X77714928Y-99794785D01*
X77751214Y-99758500D01*
X77823785Y-99722214D01*
X77968928Y-99722214D01*
X78041500Y-99758500D01*
X78077785Y-99794785D01*
X78114071Y-99867357D01*
X78114071Y-99903642D01*
X78077785Y-99976214D01*
X78041500Y-100012500D01*
X77968928Y-100048785D01*
X77823785Y-100048785D01*
X77751214Y-100085071D01*
X77714928Y-100121357D01*
X77678642Y-100193928D01*
X77678642Y-100339071D01*
X77714928Y-100411642D01*
X77751214Y-100447928D01*
X77823785Y-100484214D01*
X77968928Y-100484214D01*
X78041500Y-100447928D01*
X78077785Y-100411642D01*
X78114071Y-100339071D01*
X78114071Y-100193928D01*
X78077785Y-100121357D01*
X78041500Y-100085071D01*
X77968928Y-100048785D01*
D11*
X110121095Y-108155619D02*
X110121095Y-107139619D01*
X110363000Y-107139619D01*
X110508142Y-107188000D01*
X110604904Y-107284761D01*
X110653285Y-107381523D01*
X110701666Y-107575047D01*
X110701666Y-107720190D01*
X110653285Y-107913714D01*
X110604904Y-108010476D01*
X110508142Y-108107238D01*
X110363000Y-108155619D01*
X110121095Y-108155619D01*
X111572523Y-107139619D02*
X111379000Y-107139619D01*
X111282238Y-107188000D01*
X111233857Y-107236380D01*
X111137095Y-107381523D01*
X111088714Y-107575047D01*
X111088714Y-107962095D01*
X111137095Y-108058857D01*
X111185476Y-108107238D01*
X111282238Y-108155619D01*
X111475761Y-108155619D01*
X111572523Y-108107238D01*
X111620904Y-108058857D01*
X111669285Y-107962095D01*
X111669285Y-107720190D01*
X111620904Y-107623428D01*
X111572523Y-107575047D01*
X111475761Y-107526666D01*
X111282238Y-107526666D01*
X111185476Y-107575047D01*
X111137095Y-107623428D01*
X111088714Y-107720190D01*
D18*
X119579571Y-104521000D02*
X119579571Y-104775000D01*
X119978714Y-104775000D02*
X119216714Y-104775000D01*
X119216714Y-104412142D01*
X119579571Y-104121857D02*
X119579571Y-103867857D01*
X119978714Y-103759000D02*
X119978714Y-104121857D01*
X119216714Y-104121857D01*
X119216714Y-103759000D01*
X119216714Y-103541285D02*
X119216714Y-103105857D01*
X119978714Y-103323571D02*
X119216714Y-103323571D01*
X119289285Y-102888142D02*
X119253000Y-102851857D01*
X119216714Y-102779285D01*
X119216714Y-102597857D01*
X119253000Y-102525285D01*
X119289285Y-102489000D01*
X119361857Y-102452714D01*
X119434428Y-102452714D01*
X119543285Y-102489000D01*
X119978714Y-102924428D01*
X119978714Y-102452714D01*
D11*
X107345238Y-116507380D02*
X107248476Y-116459000D01*
X107151714Y-116362238D01*
X107006571Y-116217095D01*
X106909809Y-116168714D01*
X106813047Y-116168714D01*
X106861428Y-116410619D02*
X106764666Y-116362238D01*
X106667904Y-116265476D01*
X106619523Y-116071952D01*
X106619523Y-115733285D01*
X106667904Y-115539761D01*
X106764666Y-115443000D01*
X106861428Y-115394619D01*
X107054952Y-115394619D01*
X107151714Y-115443000D01*
X107248476Y-115539761D01*
X107296857Y-115733285D01*
X107296857Y-116071952D01*
X107248476Y-116265476D01*
X107151714Y-116362238D01*
X107054952Y-116410619D01*
X106861428Y-116410619D01*
X107635523Y-115394619D02*
X108264476Y-115394619D01*
X107925809Y-115781666D01*
X108070952Y-115781666D01*
X108167714Y-115830047D01*
X108216095Y-115878428D01*
X108264476Y-115975190D01*
X108264476Y-116217095D01*
X108216095Y-116313857D01*
X108167714Y-116362238D01*
X108070952Y-116410619D01*
X107780666Y-116410619D01*
X107683904Y-116362238D01*
X107635523Y-116313857D01*
X91724238Y-114348380D02*
X91627476Y-114300000D01*
X91530714Y-114203238D01*
X91385571Y-114058095D01*
X91288809Y-114009714D01*
X91192047Y-114009714D01*
X91240428Y-114251619D02*
X91143666Y-114203238D01*
X91046904Y-114106476D01*
X90998523Y-113912952D01*
X90998523Y-113574285D01*
X91046904Y-113380761D01*
X91143666Y-113284000D01*
X91240428Y-113235619D01*
X91433952Y-113235619D01*
X91530714Y-113284000D01*
X91627476Y-113380761D01*
X91675857Y-113574285D01*
X91675857Y-113912952D01*
X91627476Y-114106476D01*
X91530714Y-114203238D01*
X91433952Y-114251619D01*
X91240428Y-114251619D01*
X92546714Y-113574285D02*
X92546714Y-114251619D01*
X92304809Y-113187238D02*
X92062904Y-113912952D01*
X92691857Y-113912952D01*
D18*
X92256428Y-122591285D02*
X92183857Y-122555000D01*
X92111285Y-122482428D01*
X92002428Y-122373571D01*
X91929857Y-122337285D01*
X91857285Y-122337285D01*
X91893571Y-122518714D02*
X91821000Y-122482428D01*
X91748428Y-122409857D01*
X91712142Y-122264714D01*
X91712142Y-122010714D01*
X91748428Y-121865571D01*
X91821000Y-121793000D01*
X91893571Y-121756714D01*
X92038714Y-121756714D01*
X92111285Y-121793000D01*
X92183857Y-121865571D01*
X92220142Y-122010714D01*
X92220142Y-122264714D01*
X92183857Y-122409857D01*
X92111285Y-122482428D01*
X92038714Y-122518714D01*
X91893571Y-122518714D01*
X92909571Y-121756714D02*
X92546714Y-121756714D01*
X92510428Y-122119571D01*
X92546714Y-122083285D01*
X92619285Y-122047000D01*
X92800714Y-122047000D01*
X92873285Y-122083285D01*
X92909571Y-122119571D01*
X92945857Y-122192142D01*
X92945857Y-122373571D01*
X92909571Y-122446142D01*
X92873285Y-122482428D01*
X92800714Y-122518714D01*
X92619285Y-122518714D01*
X92546714Y-122482428D01*
X92510428Y-122446142D01*
D17*
X113383785Y-102649261D02*
X113172119Y-102346880D01*
X113020928Y-102649261D02*
X113020928Y-102014261D01*
X113262833Y-102014261D01*
X113323309Y-102044500D01*
X113353547Y-102074738D01*
X113383785Y-102135214D01*
X113383785Y-102225928D01*
X113353547Y-102286404D01*
X113323309Y-102316642D01*
X113262833Y-102346880D01*
X113020928Y-102346880D01*
X113595452Y-102014261D02*
X113988547Y-102014261D01*
X113776880Y-102256166D01*
X113867595Y-102256166D01*
X113928071Y-102286404D01*
X113958309Y-102316642D01*
X113988547Y-102377119D01*
X113988547Y-102528309D01*
X113958309Y-102588785D01*
X113928071Y-102619023D01*
X113867595Y-102649261D01*
X113686166Y-102649261D01*
X113625690Y-102619023D01*
X113595452Y-102588785D01*
X114381642Y-102014261D02*
X114442119Y-102014261D01*
X114502595Y-102044500D01*
X114532833Y-102074738D01*
X114563071Y-102135214D01*
X114593309Y-102256166D01*
X114593309Y-102407357D01*
X114563071Y-102528309D01*
X114532833Y-102588785D01*
X114502595Y-102619023D01*
X114442119Y-102649261D01*
X114381642Y-102649261D01*
X114321166Y-102619023D01*
X114290928Y-102588785D01*
X114260690Y-102528309D01*
X114230452Y-102407357D01*
X114230452Y-102256166D01*
X114260690Y-102135214D01*
X114290928Y-102074738D01*
X114321166Y-102044500D01*
X114381642Y-102014261D01*
X95984785Y-120302261D02*
X95773119Y-119999880D01*
X95621928Y-120302261D02*
X95621928Y-119667261D01*
X95863833Y-119667261D01*
X95924309Y-119697500D01*
X95954547Y-119727738D01*
X95984785Y-119788214D01*
X95984785Y-119878928D01*
X95954547Y-119939404D01*
X95924309Y-119969642D01*
X95863833Y-119999880D01*
X95621928Y-119999880D01*
X96529071Y-119878928D02*
X96529071Y-120302261D01*
X96377880Y-119637023D02*
X96226690Y-120090595D01*
X96619785Y-120090595D01*
X96831452Y-119727738D02*
X96861690Y-119697500D01*
X96922166Y-119667261D01*
X97073357Y-119667261D01*
X97133833Y-119697500D01*
X97164071Y-119727738D01*
X97194309Y-119788214D01*
X97194309Y-119848690D01*
X97164071Y-119939404D01*
X96801214Y-120302261D01*
X97194309Y-120302261D01*
X79093785Y-95346761D02*
X78882119Y-95044380D01*
X78730928Y-95346761D02*
X78730928Y-94711761D01*
X78972833Y-94711761D01*
X79033309Y-94742000D01*
X79063547Y-94772238D01*
X79093785Y-94832714D01*
X79093785Y-94923428D01*
X79063547Y-94983904D01*
X79033309Y-95014142D01*
X78972833Y-95044380D01*
X78730928Y-95044380D01*
X79638071Y-94923428D02*
X79638071Y-95346761D01*
X79486880Y-94681523D02*
X79335690Y-95135095D01*
X79728785Y-95135095D01*
X80273071Y-94711761D02*
X79970690Y-94711761D01*
X79940452Y-95014142D01*
X79970690Y-94983904D01*
X80031166Y-94953666D01*
X80182357Y-94953666D01*
X80242833Y-94983904D01*
X80273071Y-95014142D01*
X80303309Y-95074619D01*
X80303309Y-95225809D01*
X80273071Y-95286285D01*
X80242833Y-95316523D01*
X80182357Y-95346761D01*
X80031166Y-95346761D01*
X79970690Y-95316523D01*
X79940452Y-95286285D01*
X79093785Y-96362761D02*
X78882119Y-96060380D01*
X78730928Y-96362761D02*
X78730928Y-95727761D01*
X78972833Y-95727761D01*
X79033309Y-95758000D01*
X79063547Y-95788238D01*
X79093785Y-95848714D01*
X79093785Y-95939428D01*
X79063547Y-95999904D01*
X79033309Y-96030142D01*
X78972833Y-96060380D01*
X78730928Y-96060380D01*
X79638071Y-95939428D02*
X79638071Y-96362761D01*
X79486880Y-95697523D02*
X79335690Y-96151095D01*
X79728785Y-96151095D01*
X80242833Y-95727761D02*
X80121880Y-95727761D01*
X80061404Y-95758000D01*
X80031166Y-95788238D01*
X79970690Y-95878952D01*
X79940452Y-95999904D01*
X79940452Y-96241809D01*
X79970690Y-96302285D01*
X80000928Y-96332523D01*
X80061404Y-96362761D01*
X80182357Y-96362761D01*
X80242833Y-96332523D01*
X80273071Y-96302285D01*
X80303309Y-96241809D01*
X80303309Y-96090619D01*
X80273071Y-96030142D01*
X80242833Y-95999904D01*
X80182357Y-95969666D01*
X80061404Y-95969666D01*
X80000928Y-95999904D01*
X79970690Y-96030142D01*
X79940452Y-96090619D01*
X86774261Y-98071214D02*
X86471880Y-98282880D01*
X86774261Y-98434071D02*
X86139261Y-98434071D01*
X86139261Y-98192166D01*
X86169500Y-98131690D01*
X86199738Y-98101452D01*
X86260214Y-98071214D01*
X86350928Y-98071214D01*
X86411404Y-98101452D01*
X86441642Y-98131690D01*
X86471880Y-98192166D01*
X86471880Y-98434071D01*
X86139261Y-97496690D02*
X86139261Y-97799071D01*
X86441642Y-97829309D01*
X86411404Y-97799071D01*
X86381166Y-97738595D01*
X86381166Y-97587404D01*
X86411404Y-97526928D01*
X86441642Y-97496690D01*
X86502119Y-97466452D01*
X86653309Y-97466452D01*
X86713785Y-97496690D01*
X86744023Y-97526928D01*
X86774261Y-97587404D01*
X86774261Y-97738595D01*
X86744023Y-97799071D01*
X86713785Y-97829309D01*
X86350928Y-96922166D02*
X86774261Y-96922166D01*
X86109023Y-97073357D02*
X86562595Y-97224547D01*
X86562595Y-96831452D01*
D18*
X114935000Y-87466714D02*
X114681000Y-87103857D01*
X114499571Y-87466714D02*
X114499571Y-86704714D01*
X114789857Y-86704714D01*
X114862428Y-86741000D01*
X114898714Y-86777285D01*
X114935000Y-86849857D01*
X114935000Y-86958714D01*
X114898714Y-87031285D01*
X114862428Y-87067571D01*
X114789857Y-87103857D01*
X114499571Y-87103857D01*
X115588142Y-86958714D02*
X115588142Y-87466714D01*
X115406714Y-86668428D02*
X115225285Y-87212714D01*
X115697000Y-87212714D01*
X112866714Y-118218857D02*
X112503857Y-118472857D01*
X112866714Y-118654285D02*
X112104714Y-118654285D01*
X112104714Y-118364000D01*
X112141000Y-118291428D01*
X112177285Y-118255142D01*
X112249857Y-118218857D01*
X112358714Y-118218857D01*
X112431285Y-118255142D01*
X112467571Y-118291428D01*
X112503857Y-118364000D01*
X112503857Y-118654285D01*
X112866714Y-117493142D02*
X112866714Y-117928571D01*
X112866714Y-117710857D02*
X112104714Y-117710857D01*
X112213571Y-117783428D01*
X112286142Y-117856000D01*
X112322428Y-117928571D01*
X112866714Y-117130285D02*
X112866714Y-116985142D01*
X112830428Y-116912571D01*
X112794142Y-116876285D01*
X112685285Y-116803714D01*
X112540142Y-116767428D01*
X112249857Y-116767428D01*
X112177285Y-116803714D01*
X112141000Y-116840000D01*
X112104714Y-116912571D01*
X112104714Y-117057714D01*
X112141000Y-117130285D01*
X112177285Y-117166571D01*
X112249857Y-117202857D01*
X112431285Y-117202857D01*
X112503857Y-117166571D01*
X112540142Y-117130285D01*
X112576428Y-117057714D01*
X112576428Y-116912571D01*
X112540142Y-116840000D01*
X112503857Y-116803714D01*
X112431285Y-116767428D01*
X112866714Y-115805857D02*
X112503857Y-116059857D01*
X112866714Y-116241285D02*
X112104714Y-116241285D01*
X112104714Y-115951000D01*
X112141000Y-115878428D01*
X112177285Y-115842142D01*
X112249857Y-115805857D01*
X112358714Y-115805857D01*
X112431285Y-115842142D01*
X112467571Y-115878428D01*
X112503857Y-115951000D01*
X112503857Y-116241285D01*
X112177285Y-115515571D02*
X112141000Y-115479285D01*
X112104714Y-115406714D01*
X112104714Y-115225285D01*
X112141000Y-115152714D01*
X112177285Y-115116428D01*
X112249857Y-115080142D01*
X112322428Y-115080142D01*
X112431285Y-115116428D01*
X112866714Y-115551857D01*
X112866714Y-115080142D01*
X112104714Y-114608428D02*
X112104714Y-114535857D01*
X112141000Y-114463285D01*
X112177285Y-114427000D01*
X112249857Y-114390714D01*
X112395000Y-114354428D01*
X112576428Y-114354428D01*
X112721571Y-114390714D01*
X112794142Y-114427000D01*
X112830428Y-114463285D01*
X112866714Y-114535857D01*
X112866714Y-114608428D01*
X112830428Y-114681000D01*
X112794142Y-114717285D01*
X112721571Y-114753571D01*
X112576428Y-114789857D01*
X112395000Y-114789857D01*
X112249857Y-114753571D01*
X112177285Y-114717285D01*
X112141000Y-114681000D01*
X112104714Y-114608428D01*
D11*
X119869857Y-112945333D02*
X119918238Y-112993714D01*
X119966619Y-113138857D01*
X119966619Y-113235619D01*
X119918238Y-113380761D01*
X119821476Y-113477523D01*
X119724714Y-113525904D01*
X119531190Y-113574285D01*
X119386047Y-113574285D01*
X119192523Y-113525904D01*
X119095761Y-113477523D01*
X118999000Y-113380761D01*
X118950619Y-113235619D01*
X118950619Y-113138857D01*
X118999000Y-112993714D01*
X119047380Y-112945333D01*
X118950619Y-112606666D02*
X118950619Y-111977714D01*
X119337666Y-112316380D01*
X119337666Y-112171238D01*
X119386047Y-112074476D01*
X119434428Y-112026095D01*
X119531190Y-111977714D01*
X119773095Y-111977714D01*
X119869857Y-112026095D01*
X119918238Y-112074476D01*
X119966619Y-112171238D01*
X119966619Y-112461523D01*
X119918238Y-112558285D01*
X119869857Y-112606666D01*
X119869857Y-115231333D02*
X119918238Y-115279714D01*
X119966619Y-115424857D01*
X119966619Y-115521619D01*
X119918238Y-115666761D01*
X119821476Y-115763523D01*
X119724714Y-115811904D01*
X119531190Y-115860285D01*
X119386047Y-115860285D01*
X119192523Y-115811904D01*
X119095761Y-115763523D01*
X118999000Y-115666761D01*
X118950619Y-115521619D01*
X118950619Y-115424857D01*
X118999000Y-115279714D01*
X119047380Y-115231333D01*
X119289285Y-114360476D02*
X119966619Y-114360476D01*
X118902238Y-114602380D02*
X119627952Y-114844285D01*
X119627952Y-114215333D01*
D18*
X83965142Y-120232714D02*
X83711142Y-119869857D01*
X83529714Y-120232714D02*
X83529714Y-119470714D01*
X83820000Y-119470714D01*
X83892571Y-119507000D01*
X83928857Y-119543285D01*
X83965142Y-119615857D01*
X83965142Y-119724714D01*
X83928857Y-119797285D01*
X83892571Y-119833571D01*
X83820000Y-119869857D01*
X83529714Y-119869857D01*
X84219142Y-119470714D02*
X84690857Y-119470714D01*
X84436857Y-119761000D01*
X84545714Y-119761000D01*
X84618285Y-119797285D01*
X84654571Y-119833571D01*
X84690857Y-119906142D01*
X84690857Y-120087571D01*
X84654571Y-120160142D01*
X84618285Y-120196428D01*
X84545714Y-120232714D01*
X84328000Y-120232714D01*
X84255428Y-120196428D01*
X84219142Y-120160142D01*
X84944857Y-119470714D02*
X85452857Y-119470714D01*
X85126285Y-120232714D01*
X83620428Y-102643214D02*
X83620428Y-103260071D01*
X83656714Y-103332642D01*
X83693000Y-103368928D01*
X83765571Y-103405214D01*
X83910714Y-103405214D01*
X83983285Y-103368928D01*
X84019571Y-103332642D01*
X84055857Y-103260071D01*
X84055857Y-102643214D01*
X84527571Y-102969785D02*
X84455000Y-102933500D01*
X84418714Y-102897214D01*
X84382428Y-102824642D01*
X84382428Y-102788357D01*
X84418714Y-102715785D01*
X84455000Y-102679500D01*
X84527571Y-102643214D01*
X84672714Y-102643214D01*
X84745285Y-102679500D01*
X84781571Y-102715785D01*
X84817857Y-102788357D01*
X84817857Y-102824642D01*
X84781571Y-102897214D01*
X84745285Y-102933500D01*
X84672714Y-102969785D01*
X84527571Y-102969785D01*
X84455000Y-103006071D01*
X84418714Y-103042357D01*
X84382428Y-103114928D01*
X84382428Y-103260071D01*
X84418714Y-103332642D01*
X84455000Y-103368928D01*
X84527571Y-103405214D01*
X84672714Y-103405214D01*
X84745285Y-103368928D01*
X84781571Y-103332642D01*
X84817857Y-103260071D01*
X84817857Y-103114928D01*
X84781571Y-103042357D01*
X84745285Y-103006071D01*
X84672714Y-102969785D01*
X91113428Y-123661714D02*
X91113428Y-124278571D01*
X91149714Y-124351142D01*
X91186000Y-124387428D01*
X91258571Y-124423714D01*
X91403714Y-124423714D01*
X91476285Y-124387428D01*
X91512571Y-124351142D01*
X91548857Y-124278571D01*
X91548857Y-123661714D01*
X91948000Y-124423714D02*
X92093142Y-124423714D01*
X92165714Y-124387428D01*
X92202000Y-124351142D01*
X92274571Y-124242285D01*
X92310857Y-124097142D01*
X92310857Y-123806857D01*
X92274571Y-123734285D01*
X92238285Y-123698000D01*
X92165714Y-123661714D01*
X92020571Y-123661714D01*
X91948000Y-123698000D01*
X91911714Y-123734285D01*
X91875428Y-123806857D01*
X91875428Y-123988285D01*
X91911714Y-124060857D01*
X91948000Y-124097142D01*
X92020571Y-124133428D01*
X92165714Y-124133428D01*
X92238285Y-124097142D01*
X92274571Y-124060857D01*
X92310857Y-123988285D01*
X79828571Y-123661714D02*
X79828571Y-124278571D01*
X79864857Y-124351142D01*
X79901142Y-124387428D01*
X79973714Y-124423714D01*
X80118857Y-124423714D01*
X80191428Y-124387428D01*
X80227714Y-124351142D01*
X80264000Y-124278571D01*
X80264000Y-123661714D01*
X81026000Y-124423714D02*
X80590571Y-124423714D01*
X80808285Y-124423714D02*
X80808285Y-123661714D01*
X80735714Y-123770571D01*
X80663142Y-123843142D01*
X80590571Y-123879428D01*
X81497714Y-123661714D02*
X81570285Y-123661714D01*
X81642857Y-123698000D01*
X81679142Y-123734285D01*
X81715428Y-123806857D01*
X81751714Y-123952000D01*
X81751714Y-124133428D01*
X81715428Y-124278571D01*
X81679142Y-124351142D01*
X81642857Y-124387428D01*
X81570285Y-124423714D01*
X81497714Y-124423714D01*
X81425142Y-124387428D01*
X81388857Y-124351142D01*
X81352571Y-124278571D01*
X81316285Y-124133428D01*
X81316285Y-123952000D01*
X81352571Y-123806857D01*
X81388857Y-123734285D01*
X81425142Y-123698000D01*
X81497714Y-123661714D01*
X85870142Y-126074714D02*
X85616142Y-125711857D01*
X85434714Y-126074714D02*
X85434714Y-125312714D01*
X85725000Y-125312714D01*
X85797571Y-125349000D01*
X85833857Y-125385285D01*
X85870142Y-125457857D01*
X85870142Y-125566714D01*
X85833857Y-125639285D01*
X85797571Y-125675571D01*
X85725000Y-125711857D01*
X85434714Y-125711857D01*
X86523285Y-125566714D02*
X86523285Y-126074714D01*
X86341857Y-125276428D02*
X86160428Y-125820714D01*
X86632142Y-125820714D01*
X87249000Y-125566714D02*
X87249000Y-126074714D01*
X87067571Y-125276428D02*
X86886142Y-125820714D01*
X87357857Y-125820714D01*
X112236857Y-99785714D02*
X112236857Y-100402571D01*
X112273142Y-100475142D01*
X112309428Y-100511428D01*
X112382000Y-100547714D01*
X112527142Y-100547714D01*
X112599714Y-100511428D01*
X112636000Y-100475142D01*
X112672285Y-100402571D01*
X112672285Y-99785714D01*
X112998857Y-100511428D02*
X113107714Y-100547714D01*
X113289142Y-100547714D01*
X113361714Y-100511428D01*
X113398000Y-100475142D01*
X113434285Y-100402571D01*
X113434285Y-100330000D01*
X113398000Y-100257428D01*
X113361714Y-100221142D01*
X113289142Y-100184857D01*
X113144000Y-100148571D01*
X113071428Y-100112285D01*
X113035142Y-100076000D01*
X112998857Y-100003428D01*
X112998857Y-99930857D01*
X113035142Y-99858285D01*
X113071428Y-99822000D01*
X113144000Y-99785714D01*
X113325428Y-99785714D01*
X113434285Y-99822000D01*
X114014857Y-100148571D02*
X114123714Y-100184857D01*
X114160000Y-100221142D01*
X114196285Y-100293714D01*
X114196285Y-100402571D01*
X114160000Y-100475142D01*
X114123714Y-100511428D01*
X114051142Y-100547714D01*
X113760857Y-100547714D01*
X113760857Y-99785714D01*
X114014857Y-99785714D01*
X114087428Y-99822000D01*
X114123714Y-99858285D01*
X114160000Y-99930857D01*
X114160000Y-100003428D01*
X114123714Y-100076000D01*
X114087428Y-100112285D01*
X114014857Y-100148571D01*
X113760857Y-100148571D01*
X114522857Y-100257428D02*
X115103428Y-100257428D01*
X115466285Y-99785714D02*
X115466285Y-100402571D01*
X115502571Y-100475142D01*
X115538857Y-100511428D01*
X115611428Y-100547714D01*
X115756571Y-100547714D01*
X115829142Y-100511428D01*
X115865428Y-100475142D01*
X115901714Y-100402571D01*
X115901714Y-99785714D01*
X116228285Y-100330000D02*
X116591142Y-100330000D01*
X116155714Y-100547714D02*
X116409714Y-99785714D01*
X116663714Y-100547714D01*
X117353142Y-100547714D02*
X117099142Y-100184857D01*
X116917714Y-100547714D02*
X116917714Y-99785714D01*
X117208000Y-99785714D01*
X117280571Y-99822000D01*
X117316857Y-99858285D01*
X117353142Y-99930857D01*
X117353142Y-100039714D01*
X117316857Y-100112285D01*
X117280571Y-100148571D01*
X117208000Y-100184857D01*
X116917714Y-100184857D01*
X117570857Y-99785714D02*
X118006285Y-99785714D01*
X117788571Y-100547714D02*
X117788571Y-99785714D01*
X118659428Y-100547714D02*
X118224000Y-100547714D01*
X118441714Y-100547714D02*
X118441714Y-99785714D01*
X118369142Y-99894571D01*
X118296571Y-99967142D01*
X118224000Y-100003428D01*
D11*
X93762285Y-125965857D02*
X93713904Y-126014238D01*
X93568761Y-126062619D01*
X93472000Y-126062619D01*
X93326857Y-126014238D01*
X93230095Y-125917476D01*
X93181714Y-125820714D01*
X93133333Y-125627190D01*
X93133333Y-125482047D01*
X93181714Y-125288523D01*
X93230095Y-125191761D01*
X93326857Y-125095000D01*
X93472000Y-125046619D01*
X93568761Y-125046619D01*
X93713904Y-125095000D01*
X93762285Y-125143380D01*
X94391238Y-125046619D02*
X94584761Y-125046619D01*
X94681523Y-125095000D01*
X94778285Y-125191761D01*
X94826666Y-125385285D01*
X94826666Y-125723952D01*
X94778285Y-125917476D01*
X94681523Y-126014238D01*
X94584761Y-126062619D01*
X94391238Y-126062619D01*
X94294476Y-126014238D01*
X94197714Y-125917476D01*
X94149333Y-125723952D01*
X94149333Y-125385285D01*
X94197714Y-125191761D01*
X94294476Y-125095000D01*
X94391238Y-125046619D01*
X95262095Y-126062619D02*
X95262095Y-125046619D01*
X95842666Y-126062619D01*
X95842666Y-125046619D01*
X96858666Y-126062619D02*
X96278095Y-126062619D01*
X96568380Y-126062619D02*
X96568380Y-125046619D01*
X96471619Y-125191761D01*
X96374857Y-125288523D01*
X96278095Y-125336904D01*
D18*
X113574285Y-81243714D02*
X113211428Y-81243714D01*
X113211428Y-80481714D01*
X113828285Y-80844571D02*
X114082285Y-80844571D01*
X114191142Y-81243714D02*
X113828285Y-81243714D01*
X113828285Y-80481714D01*
X114191142Y-80481714D01*
X114517714Y-81243714D02*
X114517714Y-80481714D01*
X114699142Y-80481714D01*
X114808000Y-80518000D01*
X114880571Y-80590571D01*
X114916857Y-80663142D01*
X114953142Y-80808285D01*
X114953142Y-80917142D01*
X114916857Y-81062285D01*
X114880571Y-81134857D01*
X114808000Y-81207428D01*
X114699142Y-81243714D01*
X114517714Y-81243714D01*
X115678857Y-81243714D02*
X115243428Y-81243714D01*
X115461142Y-81243714D02*
X115461142Y-80481714D01*
X115388571Y-80590571D01*
X115316000Y-80663142D01*
X115243428Y-80699428D01*
X115062000Y-83021714D02*
X114808000Y-82658857D01*
X114626571Y-83021714D02*
X114626571Y-82259714D01*
X114916857Y-82259714D01*
X114989428Y-82296000D01*
X115025714Y-82332285D01*
X115062000Y-82404857D01*
X115062000Y-82513714D01*
X115025714Y-82586285D01*
X114989428Y-82622571D01*
X114916857Y-82658857D01*
X114626571Y-82658857D01*
X115787714Y-83021714D02*
X115352285Y-83021714D01*
X115570000Y-83021714D02*
X115570000Y-82259714D01*
X115497428Y-82368571D01*
X115424857Y-82441142D01*
X115352285Y-82477428D01*
M02*
