G04 #@! TF.GenerationSoftware,KiCad,Pcbnew,no-vcs-found-097f89d~58~ubuntu14.04.1*
G04 #@! TF.CreationDate,2017-05-03T15:28:10+03:00*
G04 #@! TF.ProjectId,ESP32-GATEWAY_Rev_A,45535033322D474154455741595F5265,B*
G04 #@! TF.FileFunction,Copper,L2,Bot,Mixed*
G04 #@! TF.FilePolarity,Positive*
%FSLAX46Y46*%
G04 Gerber Fmt 4.6, Leading zero omitted, Abs format (unit mm)*
G04 Created by KiCad (PCBNEW no-vcs-found-097f89d~58~ubuntu14.04.1) date Wed May  3 15:28:10 2017*
%MOMM*%
%LPD*%
G01*
G04 APERTURE LIST*
%ADD10C,0.100000*%
%ADD11C,1.200000*%
%ADD12C,6.300000*%
%ADD13R,0.400000X0.400000*%
%ADD14R,1.422400X1.422400*%
%ADD15C,1.300000*%
%ADD16C,2.000000*%
%ADD17C,3.200000*%
%ADD18C,1.650000*%
%ADD19C,2.700000*%
%ADD20C,1.410000*%
%ADD21R,1.168400X1.600200*%
%ADD22O,1.800000X1.200000*%
%ADD23C,1.778000*%
%ADD24R,1.778000X1.778000*%
%ADD25C,0.450000*%
%ADD26C,0.900000*%
%ADD27C,0.750000*%
%ADD28C,0.254000*%
%ADD29C,0.203200*%
%ADD30C,0.508000*%
%ADD31C,1.016000*%
%ADD32C,1.524000*%
%ADD33C,0.762000*%
%ADD34C,1.778000*%
%ADD35C,0.406400*%
G04 APERTURE END LIST*
D10*
D11*
X113919000Y-71120000D03*
X118745000Y-71120000D03*
X117983000Y-72771000D03*
X114681000Y-72898000D03*
X117983000Y-69469000D03*
X114681000Y-69469000D03*
X116332000Y-73533000D03*
X116332000Y-68707000D03*
D12*
X116332000Y-71120000D03*
X73152000Y-122301000D03*
D11*
X73152000Y-119888000D03*
X73152000Y-124714000D03*
X71501000Y-120650000D03*
X74803000Y-120650000D03*
X71501000Y-124079000D03*
X74803000Y-123952000D03*
X75565000Y-122301000D03*
X70739000Y-122301000D03*
D13*
X101249000Y-97544000D03*
X101249000Y-98544000D03*
X100449000Y-99344000D03*
X99449000Y-99344000D03*
X98649000Y-98544000D03*
X98649000Y-97544000D03*
X99449000Y-96744000D03*
X100449000Y-96744000D03*
D14*
X99949000Y-98044000D03*
D15*
X77969600Y-84682800D03*
D16*
X80281000Y-82346000D03*
D15*
X82643200Y-84682800D03*
X77969600Y-79983800D03*
X82643200Y-79983800D03*
X80281000Y-79983800D03*
X80281000Y-84682800D03*
X77969600Y-82219000D03*
X82643200Y-82219000D03*
D17*
X95885000Y-78359000D03*
X107315000Y-78359000D03*
D18*
X105670000Y-73610500D03*
X94990000Y-73610500D03*
D19*
X93800000Y-81409000D03*
X109400000Y-81409000D03*
D18*
X108210000Y-73610500D03*
X97530000Y-73610500D03*
D20*
X97165000Y-87599000D03*
X98435000Y-85059000D03*
X99705000Y-87599000D03*
X100975000Y-85059000D03*
X102245000Y-87599000D03*
X103515000Y-85059000D03*
X104785000Y-87599000D03*
X106055000Y-85059000D03*
D21*
X107569000Y-97663000D03*
X107569000Y-97663000D03*
X106045000Y-97663000D03*
D22*
X117217000Y-91650000D03*
X113747000Y-91650000D03*
X113747000Y-98850000D03*
X117217000Y-98850000D03*
D23*
X111506000Y-128016000D03*
X114046000Y-128016000D03*
X119126000Y-128016000D03*
X116586000Y-128016000D03*
X106426000Y-128016000D03*
X108966000Y-128016000D03*
X103886000Y-128016000D03*
X101346000Y-128016000D03*
X96266000Y-128016000D03*
X98806000Y-128016000D03*
X93726000Y-128016000D03*
X91186000Y-128016000D03*
X86106000Y-128016000D03*
X88646000Y-128016000D03*
X83566000Y-128016000D03*
X81026000Y-128016000D03*
D24*
X70866000Y-128016000D03*
D23*
X73406000Y-128016000D03*
X75946000Y-128016000D03*
X78486000Y-128016000D03*
D25*
X115824000Y-85344000D03*
X116713000Y-111252000D03*
X115570000Y-120015000D03*
X70231000Y-109093000D03*
X70231000Y-112268000D03*
X70231000Y-116332000D03*
X119761000Y-102997000D03*
X119761000Y-105537000D03*
X119761000Y-109728000D03*
X119761000Y-113919000D03*
X119761000Y-118364000D03*
X119761000Y-121920000D03*
D26*
X114300000Y-113411000D03*
X113284000Y-111760000D03*
X114300000Y-111760000D03*
X109347000Y-94107000D03*
X109347000Y-95123000D03*
X109347000Y-96139000D03*
X107315000Y-117094000D03*
X98806000Y-104648000D03*
D25*
X70231000Y-92583000D03*
D26*
X112649000Y-120904000D03*
X112649000Y-105029000D03*
X116586000Y-118364000D03*
X115570000Y-118364000D03*
X103632000Y-121158000D03*
X101092000Y-121158000D03*
X102362000Y-119761000D03*
X101092000Y-118491000D03*
X101092000Y-116967000D03*
X99949000Y-114173000D03*
X97536000Y-114173000D03*
X106172000Y-114173000D03*
X107950000Y-114173000D03*
X102743000Y-112649000D03*
X97917000Y-110871000D03*
X100457000Y-110871000D03*
X105537000Y-110744000D03*
X107569000Y-110744000D03*
X101219000Y-115443000D03*
X104902000Y-115443000D03*
X73914000Y-108458000D03*
X74168000Y-116459000D03*
X86360000Y-108458000D03*
X93853000Y-110998000D03*
X93853000Y-112014000D03*
X93853000Y-113030000D03*
X90170000Y-109982000D03*
X90170000Y-111125000D03*
X75184000Y-116459000D03*
X82804000Y-107442000D03*
X82804000Y-108458000D03*
X102362000Y-122428000D03*
X112649000Y-119253000D03*
X103632000Y-118491000D03*
X103632000Y-111125000D03*
X97409000Y-123444000D03*
X76200000Y-116459000D03*
X93980000Y-120015000D03*
X90170000Y-112141000D03*
X73914000Y-109474000D03*
D25*
X79121000Y-89662000D03*
X78613000Y-89662000D03*
X78105000Y-89662000D03*
D26*
X73914000Y-94361000D03*
X73914000Y-95631000D03*
X73914000Y-101219000D03*
X85979000Y-76073000D03*
X83185000Y-76073000D03*
X80391000Y-76073000D03*
X77089000Y-76073000D03*
X75819000Y-83693000D03*
X75565000Y-81280000D03*
X75565000Y-78105000D03*
X75565000Y-74295000D03*
X78740000Y-74295000D03*
X78740000Y-78105000D03*
X81915000Y-78105000D03*
X81915000Y-74295000D03*
X84455000Y-74295000D03*
X84455000Y-78105000D03*
D25*
X86868000Y-96774000D03*
X89662000Y-98425000D03*
D26*
X85471000Y-99949000D03*
X73914000Y-102108000D03*
X73914000Y-104394000D03*
X75184000Y-90805000D03*
X74168000Y-90805000D03*
D25*
X89662000Y-97917000D03*
X86233000Y-94615000D03*
D26*
X86995000Y-74549000D03*
X72517000Y-74549000D03*
X91059000Y-68199000D03*
X91059000Y-69469000D03*
X91567000Y-104775000D03*
X103124000Y-101981000D03*
X103124000Y-101092000D03*
X106426000Y-95123000D03*
X91694000Y-74676000D03*
X92710000Y-74676000D03*
X91567000Y-88138000D03*
X92456000Y-88138000D03*
D25*
X105918000Y-102235000D03*
X105918000Y-101727000D03*
X105918000Y-101219000D03*
D26*
X94234000Y-91821000D03*
X106426000Y-94107000D03*
D25*
X102362000Y-95504000D03*
X102997000Y-95758000D03*
X95123000Y-126873000D03*
X72517000Y-81026000D03*
X72136000Y-98806000D03*
X80264000Y-97282000D03*
D26*
X113030000Y-125222000D03*
X111887000Y-125222000D03*
X109093000Y-106553000D03*
X110109000Y-106553000D03*
X111125000Y-120269000D03*
X88773000Y-117983000D03*
X95250000Y-122428000D03*
X88773000Y-106553000D03*
X88773000Y-107569000D03*
X88773000Y-113538000D03*
X84201000Y-103378000D03*
D25*
X84074000Y-97028000D03*
D26*
X76200000Y-88646000D03*
D25*
X106426000Y-89281000D03*
X105791000Y-98806000D03*
X77216000Y-91186000D03*
X81534000Y-125095000D03*
X75057000Y-118237000D03*
X71374000Y-104140000D03*
X72517000Y-77216000D03*
X74295000Y-86360000D03*
X97917000Y-101854000D03*
X100457000Y-102235000D03*
X85725000Y-87122000D03*
X103505000Y-97155000D03*
X74295000Y-87122000D03*
X96520000Y-102235000D03*
X77470000Y-94361000D03*
X77724000Y-95885000D03*
X76581000Y-95123000D03*
X77089000Y-95504000D03*
X76454000Y-91059000D03*
X80772000Y-125349000D03*
X78359000Y-94361000D03*
X79121000Y-94361000D03*
D27*
X95250000Y-90678000D03*
D26*
X103505000Y-90805000D03*
D25*
X99314000Y-90805000D03*
D26*
X108077000Y-93091000D03*
D25*
X84328000Y-85852000D03*
X105156000Y-96520000D03*
X85725000Y-86360000D03*
X104521000Y-95885000D03*
X94488000Y-90297000D03*
X93853000Y-90297000D03*
D26*
X103505000Y-68580000D03*
X106680000Y-68580000D03*
X99695000Y-68580000D03*
X96520000Y-68580000D03*
X97790000Y-70485000D03*
X95250000Y-70485000D03*
X105410000Y-70485000D03*
X107950000Y-70485000D03*
X103505000Y-72390000D03*
X99695000Y-72390000D03*
X97155000Y-75565000D03*
X99695000Y-76200000D03*
X103505000Y-76200000D03*
X106045000Y-75565000D03*
X101600000Y-78105000D03*
X101600000Y-74295000D03*
X101600000Y-70485000D03*
X99695000Y-80010000D03*
X103505000Y-80010000D03*
X105410000Y-81915000D03*
X97790000Y-81915000D03*
X101600000Y-81915000D03*
D25*
X103378000Y-99695000D03*
X84328000Y-86614000D03*
X73787000Y-87630000D03*
X100965000Y-101473000D03*
X90297000Y-121412000D03*
X86360000Y-98933000D03*
X90043000Y-104902000D03*
X85090000Y-121412000D03*
X83820000Y-104521000D03*
X83312000Y-94742000D03*
X83439000Y-109474000D03*
X72517000Y-89916000D03*
X85090000Y-115062000D03*
X82550000Y-94742000D03*
X86106000Y-88265000D03*
X101727000Y-101981000D03*
X111379000Y-118110000D03*
X111506000Y-95250000D03*
X110998000Y-95631000D03*
X110871000Y-117729000D03*
X87630000Y-121412000D03*
X89281000Y-104902000D03*
X85090000Y-119761000D03*
X80137000Y-98298000D03*
X72517000Y-82296000D03*
X75946000Y-118237000D03*
X91313000Y-114300000D03*
X81661000Y-89408000D03*
D26*
X114681000Y-107061000D03*
X114681000Y-106045000D03*
X114681000Y-105029000D03*
D25*
X81661000Y-90678000D03*
X81661000Y-90043000D03*
X80010000Y-125857000D03*
X72517000Y-79629000D03*
X79629000Y-126365000D03*
X72517000Y-78486000D03*
X76835000Y-107188000D03*
X77978000Y-91186000D03*
X78613000Y-114300000D03*
X74930000Y-97155000D03*
X75311000Y-106934000D03*
X78613000Y-115062000D03*
X74930000Y-97790000D03*
X74930000Y-107442000D03*
X72517000Y-83566000D03*
X92964000Y-107823000D03*
X107950000Y-107823000D03*
X115824000Y-80899000D03*
X72898000Y-84836000D03*
D28*
X113792000Y-101092000D02*
X115824000Y-99060000D01*
X115824000Y-99060000D02*
X115824000Y-85344000D01*
X116713000Y-111252000D02*
X116713000Y-110490000D01*
X116713000Y-110490000D02*
X113792000Y-107569000D01*
X113792000Y-107569000D02*
X113792000Y-101092000D01*
D29*
X117348000Y-111887000D02*
X117348000Y-119380000D01*
X116713000Y-111252000D02*
X117348000Y-111887000D01*
X115570000Y-120015000D02*
X116713000Y-120015000D01*
X116713000Y-120015000D02*
X117348000Y-119380000D01*
D30*
X119761000Y-121920000D02*
X119761000Y-126111000D01*
X119761000Y-113919000D02*
X119761000Y-109728000D01*
X119761000Y-118364000D02*
X119761000Y-113919000D01*
X119761000Y-121920000D02*
X119761000Y-118364000D01*
D31*
X113747000Y-91650000D02*
X114681000Y-90716000D01*
X114681000Y-90716000D02*
X114681000Y-90297000D01*
X73406000Y-128016000D02*
X73406000Y-126619000D01*
X113284000Y-111760000D02*
X114300000Y-111760000D01*
D32*
X112649000Y-105029000D02*
X112649000Y-100457000D01*
X112649000Y-119253000D02*
X112649000Y-105029000D01*
D31*
X93853000Y-110998000D02*
X98806000Y-106045000D01*
X98806000Y-106045000D02*
X98806000Y-104648000D01*
D32*
X116586000Y-128016000D02*
X116586000Y-125857000D01*
X116586000Y-125857000D02*
X114300000Y-123571000D01*
X114300000Y-123571000D02*
X114300000Y-120015000D01*
D33*
X116586000Y-118364000D02*
X115570000Y-118364000D01*
D31*
X101092000Y-118491000D02*
X101092000Y-116967000D01*
X97917000Y-110871000D02*
X100457000Y-110871000D01*
X105537000Y-110744000D02*
X107569000Y-110744000D01*
D30*
X81407000Y-106045000D02*
X82804000Y-107442000D01*
D33*
X82804000Y-107442000D02*
X82804000Y-108458000D01*
D30*
X81407000Y-106045000D02*
X81407000Y-93726000D01*
D31*
X73914000Y-109474000D02*
X73914000Y-116205000D01*
X73914000Y-116205000D02*
X74168000Y-116459000D01*
X86360000Y-108458000D02*
X86360000Y-102362000D01*
X86360000Y-108458000D02*
X86360000Y-110998000D01*
X75184000Y-116459000D02*
X74168000Y-116459000D01*
X76200000Y-116459000D02*
X75184000Y-116459000D01*
X73914000Y-104394000D02*
X73914000Y-108458000D01*
X73914000Y-108458000D02*
X73914000Y-109474000D01*
D30*
X70231000Y-76835000D02*
X70231000Y-92583000D01*
X70231000Y-92583000D02*
X70231000Y-109093000D01*
X70231000Y-109093000D02*
X70231000Y-112268000D01*
X70231000Y-112268000D02*
X70231000Y-116332000D01*
X70231000Y-116332000D02*
X70231000Y-126111000D01*
X79121000Y-89662000D02*
X78613000Y-89662000D01*
X78613000Y-89662000D02*
X78105000Y-89662000D01*
X79629000Y-91948000D02*
X79629000Y-90170000D01*
X79629000Y-90170000D02*
X79121000Y-89662000D01*
X81407000Y-93726000D02*
X79629000Y-91948000D01*
D31*
X73914000Y-101219000D02*
X73914000Y-102108000D01*
X73914000Y-95631000D02*
X73914000Y-101219000D01*
X85979000Y-76073000D02*
X83185000Y-76073000D01*
X80391000Y-76073000D02*
X77089000Y-76073000D01*
X75565000Y-81280000D02*
X75565000Y-78105000D01*
X75565000Y-74295000D02*
X78740000Y-74295000D01*
X78740000Y-78105000D02*
X81915000Y-78105000D01*
X81915000Y-74295000D02*
X84455000Y-74295000D01*
X86360000Y-102362000D02*
X85471000Y-101473000D01*
X85471000Y-101473000D02*
X85471000Y-99949000D01*
X73914000Y-102108000D02*
X73914000Y-104394000D01*
D30*
X72517000Y-74549000D02*
X70231000Y-76835000D01*
D31*
X91059000Y-69469000D02*
X91059000Y-68199000D01*
X102362000Y-121158000D02*
X103632000Y-121158000D01*
X101219000Y-115443000D02*
X99949000Y-114173000D01*
X104902000Y-115443000D02*
X106172000Y-114173000D01*
X103632000Y-112649000D02*
X102743000Y-112649000D01*
X103505000Y-115443000D02*
X101219000Y-115443000D01*
X103632000Y-111125000D02*
X103124000Y-110617000D01*
X103124000Y-110617000D02*
X103124000Y-109728000D01*
X103632000Y-115443000D02*
X103505000Y-115443000D01*
X103505000Y-115443000D02*
X104902000Y-115443000D01*
X93980000Y-120015000D02*
X92710000Y-120015000D01*
X92710000Y-120015000D02*
X90297000Y-117602000D01*
X93853000Y-110998000D02*
X93853000Y-112014000D01*
X93853000Y-113030000D02*
X93853000Y-112014000D01*
X90170000Y-109982000D02*
X90170000Y-106172000D01*
X90170000Y-106172000D02*
X91567000Y-104775000D01*
X90170000Y-109982000D02*
X90170000Y-111125000D01*
X90170000Y-111125000D02*
X90170000Y-112141000D01*
D32*
X103124000Y-101981000D02*
X103124000Y-109728000D01*
D31*
X102362000Y-122428000D02*
X102362000Y-121158000D01*
X102362000Y-121158000D02*
X102362000Y-119761000D01*
X102362000Y-119761000D02*
X103632000Y-118491000D01*
X103632000Y-118491000D02*
X103632000Y-115443000D01*
X103632000Y-115443000D02*
X103632000Y-112649000D01*
X103632000Y-112649000D02*
X103632000Y-111125000D01*
X97409000Y-123444000D02*
X96901000Y-123444000D01*
X96901000Y-123444000D02*
X97028000Y-123444000D01*
X97028000Y-123444000D02*
X96901000Y-123444000D01*
X90297000Y-112268000D02*
X90297000Y-117602000D01*
X93980000Y-120015000D02*
X94615000Y-120015000D01*
X94615000Y-120015000D02*
X96901000Y-122301000D01*
X96901000Y-122301000D02*
X96901000Y-123444000D01*
X90170000Y-112141000D02*
X90297000Y-112268000D01*
X84455000Y-78105000D02*
X84455000Y-78172000D01*
X84455000Y-78172000D02*
X82643200Y-79983800D01*
D30*
X89662000Y-98425000D02*
X89662000Y-97917000D01*
X91694000Y-100457000D02*
X89662000Y-98425000D01*
X89662000Y-97917000D02*
X88519000Y-96774000D01*
X88519000Y-96774000D02*
X86868000Y-96774000D01*
X86233000Y-94615000D02*
X86868000Y-95250000D01*
X86868000Y-95250000D02*
X86868000Y-96774000D01*
D34*
X91567000Y-88138000D02*
X85648000Y-82219000D01*
X85648000Y-82219000D02*
X82643200Y-82219000D01*
D33*
X91694000Y-104013000D02*
X91694000Y-100457000D01*
X91567000Y-104775000D02*
X91567000Y-104140000D01*
X91567000Y-104140000D02*
X91694000Y-104013000D01*
D30*
X107569000Y-97663000D02*
X107823000Y-97663000D01*
X107823000Y-97663000D02*
X108204000Y-97536000D01*
X108204000Y-97536000D02*
X107823000Y-97663000D01*
D32*
X103124000Y-101092000D02*
X103124000Y-101981000D01*
X99949000Y-98044000D02*
X100076000Y-98044000D01*
X100076000Y-98044000D02*
X103124000Y-101092000D01*
D35*
X105918000Y-101219000D02*
X107823000Y-101219000D01*
X107823000Y-101219000D02*
X107188000Y-101219000D01*
X107188000Y-101219000D02*
X107823000Y-101219000D01*
D34*
X105410000Y-92456000D02*
X106426000Y-93472000D01*
X106426000Y-93472000D02*
X106426000Y-94107000D01*
X107823000Y-95123000D02*
X106426000Y-95123000D01*
X106426000Y-95123000D02*
X106426000Y-94107000D01*
D31*
X92710000Y-74676000D02*
X91694000Y-74676000D01*
D32*
X91567000Y-89916000D02*
X91567000Y-88138000D01*
X94234000Y-91821000D02*
X93472000Y-91821000D01*
X93472000Y-91821000D02*
X91567000Y-89916000D01*
D34*
X107823000Y-101219000D02*
X107823000Y-99568000D01*
X107823000Y-99568000D02*
X107823000Y-97663000D01*
X107823000Y-97663000D02*
X107823000Y-95123000D01*
D28*
X102362000Y-95504000D02*
X102743000Y-95504000D01*
X102743000Y-95504000D02*
X102997000Y-95758000D01*
D34*
X94869000Y-92456000D02*
X105410000Y-92456000D01*
X94234000Y-91821000D02*
X94869000Y-92456000D01*
D29*
X95123000Y-126873000D02*
X93091000Y-124841000D01*
X93091000Y-124841000D02*
X86995000Y-124841000D01*
X86995000Y-124841000D02*
X84455000Y-122301000D01*
X79883000Y-108077000D02*
X79883000Y-103886000D01*
X79883000Y-103886000D02*
X79629000Y-103632000D01*
X79629000Y-103632000D02*
X79629000Y-97917000D01*
X79629000Y-97917000D02*
X80264000Y-97282000D01*
X72009000Y-98552000D02*
X72136000Y-98679000D01*
X72009000Y-81534000D02*
X72009000Y-98552000D01*
X72517000Y-81026000D02*
X72009000Y-81534000D01*
X72136000Y-98679000D02*
X72136000Y-98806000D01*
X83312000Y-111506000D02*
X79883000Y-108077000D01*
X83312000Y-114681000D02*
X83312000Y-111506000D01*
X84455000Y-115824000D02*
X84455000Y-122301000D01*
X83312000Y-114681000D02*
X84455000Y-115824000D01*
D31*
X111887000Y-125222000D02*
X111887000Y-124968000D01*
D32*
X111887000Y-124968000D02*
X111125000Y-124206000D01*
D31*
X109601000Y-106934000D02*
X109601000Y-106553000D01*
X109601000Y-106553000D02*
X109601000Y-106680000D01*
X109601000Y-106680000D02*
X109601000Y-106553000D01*
D32*
X111125000Y-120269000D02*
X109601000Y-118745000D01*
X109601000Y-118745000D02*
X109601000Y-106934000D01*
X111125000Y-124206000D02*
X111125000Y-120269000D01*
D31*
X113030000Y-125222000D02*
X111887000Y-125222000D01*
X109093000Y-106553000D02*
X109601000Y-106553000D01*
X109601000Y-106553000D02*
X110109000Y-106553000D01*
X95250000Y-122428000D02*
X93218000Y-122428000D01*
X93218000Y-122428000D02*
X88773000Y-117983000D01*
X88773000Y-113538000D02*
X88773000Y-117983000D01*
X88773000Y-107569000D02*
X88773000Y-113538000D01*
X88773000Y-106553000D02*
X88773000Y-107569000D01*
X83312000Y-102489000D02*
X84201000Y-103378000D01*
X80137000Y-88646000D02*
X80645000Y-89154000D01*
X80645000Y-89154000D02*
X80645000Y-91059000D01*
X80645000Y-91059000D02*
X81280000Y-91694000D01*
X76200000Y-88646000D02*
X80137000Y-88646000D01*
X81280000Y-91694000D02*
X81788000Y-91694000D01*
X84074000Y-97028000D02*
X83312000Y-97790000D01*
X83312000Y-97790000D02*
X83312000Y-102489000D01*
X84074000Y-97028000D02*
X84328000Y-96774000D01*
X84328000Y-96774000D02*
X84328000Y-94234000D01*
X84328000Y-94234000D02*
X81788000Y-91694000D01*
D30*
X99705000Y-87599000D02*
X101387000Y-89281000D01*
X101387000Y-89281000D02*
X106426000Y-89281000D01*
X103515000Y-85059000D02*
X102214000Y-86360000D01*
X102214000Y-86360000D02*
X100944000Y-86360000D01*
X100944000Y-86360000D02*
X99705000Y-87599000D01*
X105791000Y-98806000D02*
X105791000Y-97917000D01*
X105791000Y-97917000D02*
X106045000Y-97663000D01*
D29*
X81407000Y-124968000D02*
X81534000Y-125095000D01*
X75692000Y-96520000D02*
X76327000Y-97155000D01*
X77216000Y-91186000D02*
X77216000Y-92964000D01*
X75692000Y-96520000D02*
X75692000Y-94488000D01*
X75692000Y-94488000D02*
X77216000Y-92964000D01*
X79756000Y-112395000D02*
X76327000Y-108966000D01*
X79756000Y-115570000D02*
X81407000Y-117221000D01*
X76327000Y-97155000D02*
X76327000Y-108966000D01*
X79756000Y-115570000D02*
X79756000Y-112395000D01*
X81407000Y-117221000D02*
X81407000Y-124968000D01*
X75057000Y-118237000D02*
X73533000Y-118237000D01*
X71374000Y-116078000D02*
X73533000Y-118237000D01*
X71374000Y-116078000D02*
X71374000Y-104140000D01*
X75946000Y-126619000D02*
X77724000Y-124841000D01*
X77724000Y-124841000D02*
X77724000Y-120904000D01*
D31*
X75946000Y-128016000D02*
X75946000Y-126619000D01*
D29*
X75057000Y-118237000D02*
X77724000Y-120904000D01*
X72517000Y-77216000D02*
X70866000Y-78867000D01*
X71374000Y-100076000D02*
X70866000Y-99568000D01*
X71374000Y-104140000D02*
X71374000Y-100076000D01*
X70866000Y-99568000D02*
X70866000Y-78867000D01*
X74295000Y-86360000D02*
X74422000Y-86233000D01*
X74422000Y-86233000D02*
X82423000Y-86233000D01*
X82423000Y-86233000D02*
X94361000Y-98171000D01*
X94361000Y-98171000D02*
X94361000Y-100203000D01*
X95250000Y-100330000D02*
X94488000Y-100330000D01*
X94488000Y-100330000D02*
X94361000Y-100203000D01*
X95377000Y-100457000D02*
X95250000Y-100330000D01*
X95377000Y-100838000D02*
X95377000Y-100457000D01*
X95250000Y-100965000D02*
X95377000Y-100838000D01*
X94488000Y-100965000D02*
X95250000Y-100965000D01*
X94361000Y-101092000D02*
X94361000Y-101473000D01*
X94361000Y-101092000D02*
X94488000Y-100965000D01*
X94361000Y-101473000D02*
X94488000Y-101600000D01*
X94488000Y-101600000D02*
X97663000Y-101600000D01*
X97663000Y-101600000D02*
X97917000Y-101854000D01*
X97917000Y-101854000D02*
X100076000Y-101854000D01*
X100076000Y-101854000D02*
X100457000Y-102235000D01*
X87249000Y-88519000D02*
X93345000Y-94615000D01*
X87249000Y-87884000D02*
X87249000Y-88519000D01*
X86487009Y-87122009D02*
X87249000Y-87884000D01*
X85725000Y-87122000D02*
X86487009Y-87122009D01*
X95250000Y-96139000D02*
X94869000Y-96139000D01*
X104013000Y-96647000D02*
X103505000Y-97155000D01*
X104013000Y-95250000D02*
X104013000Y-96647000D01*
X95377000Y-94742000D02*
X95504000Y-94615000D01*
X95377000Y-96012000D02*
X95377000Y-94742000D01*
X103378000Y-94615000D02*
X104013000Y-95250000D01*
X95250000Y-96139000D02*
X95377000Y-96012000D01*
X95885000Y-94615000D02*
X96012000Y-94742000D01*
X95504000Y-94615000D02*
X95885000Y-94615000D01*
X96012000Y-94742000D02*
X96012000Y-96012000D01*
X96012000Y-96012000D02*
X96139000Y-96139000D01*
X96139000Y-96139000D02*
X96520000Y-96139000D01*
X96520000Y-96139000D02*
X96647000Y-96012000D01*
X96647000Y-94742000D02*
X96774000Y-94615000D01*
X96647000Y-96012000D02*
X96647000Y-94742000D01*
X97155000Y-94615000D02*
X97282000Y-94742000D01*
X96774000Y-94615000D02*
X97155000Y-94615000D01*
X97282000Y-94742000D02*
X97282000Y-96012000D01*
X97282000Y-96012000D02*
X97409000Y-96139000D01*
X97409000Y-96139000D02*
X97790000Y-96139000D01*
X97790000Y-96139000D02*
X97917000Y-96012000D01*
X97917000Y-94742000D02*
X98044000Y-94615000D01*
X97917000Y-96012000D02*
X97917000Y-94742000D01*
X98044000Y-94615000D02*
X103378000Y-94615000D01*
X94615000Y-94615000D02*
X93345000Y-94615000D01*
X94742000Y-94742000D02*
X94615000Y-94615000D01*
X94742000Y-96012000D02*
X94742000Y-94742000D01*
X94869000Y-96139000D02*
X94742000Y-96012000D01*
X74295000Y-87122000D02*
X74803000Y-86614000D01*
X74803000Y-86614000D02*
X82042000Y-86614000D01*
X82042000Y-86614000D02*
X93980000Y-98552000D01*
X96012000Y-102108000D02*
X96393000Y-102108000D01*
X95885000Y-102616000D02*
X95885000Y-102235000D01*
X95885000Y-102235000D02*
X96012000Y-102108000D01*
X95758000Y-102743000D02*
X95885000Y-102616000D01*
X95377000Y-102743000D02*
X95758000Y-102743000D01*
X95250000Y-102616000D02*
X95377000Y-102743000D01*
X95250000Y-102235000D02*
X95250000Y-102616000D01*
X94742000Y-102108000D02*
X95123000Y-102108000D01*
X95123000Y-102108000D02*
X95250000Y-102235000D01*
X93980000Y-102616000D02*
X94107000Y-102743000D01*
X93980000Y-98552000D02*
X93980000Y-102616000D01*
X94615000Y-102616000D02*
X94615000Y-102235000D01*
X94107000Y-102743000D02*
X94488000Y-102743000D01*
X94488000Y-102743000D02*
X94615000Y-102616000D01*
X94615000Y-102235000D02*
X94742000Y-102108000D01*
X96393000Y-102108000D02*
X96520000Y-102235000D01*
X88646000Y-126873000D02*
X87757000Y-125984000D01*
X87757000Y-125984000D02*
X85979000Y-125984000D01*
X85979000Y-125984000D02*
X83312000Y-123317000D01*
D31*
X88646000Y-128016000D02*
X88646000Y-126873000D01*
D29*
X81788000Y-115062000D02*
X83312000Y-116586000D01*
X81788000Y-115062000D02*
X81788000Y-111887000D01*
X78740000Y-108839000D02*
X81788000Y-111887000D01*
X78232000Y-95123000D02*
X78232000Y-104394000D01*
X78232000Y-104394000D02*
X78740000Y-104902000D01*
X78740000Y-104902000D02*
X78740000Y-108839000D01*
X83312000Y-116586000D02*
X83312000Y-123317000D01*
X77470000Y-94361000D02*
X78232000Y-95123000D01*
X86106000Y-126873000D02*
X82931000Y-123698000D01*
D31*
X86106000Y-128016000D02*
X86106000Y-126873000D01*
D29*
X82931000Y-116840000D02*
X82931000Y-123698000D01*
X81280000Y-115189000D02*
X82931000Y-116840000D01*
X77851000Y-96012000D02*
X77851000Y-104648000D01*
X77851000Y-104648000D02*
X78359000Y-105156000D01*
X78359000Y-105156000D02*
X78359000Y-109093000D01*
X81280000Y-112014000D02*
X78359000Y-109093000D01*
X81280000Y-115189000D02*
X81280000Y-112014000D01*
X77851000Y-96012000D02*
X77724000Y-95885000D01*
X81026000Y-126873000D02*
X82296000Y-125603000D01*
X82296000Y-125603000D02*
X82296000Y-124714000D01*
X82296000Y-124714000D02*
X82042000Y-124460000D01*
D31*
X81026000Y-128016000D02*
X81026000Y-126873000D01*
D29*
X82042000Y-117221000D02*
X82042000Y-124460000D01*
X80264000Y-115443000D02*
X82042000Y-117221000D01*
X80264000Y-112268000D02*
X77470000Y-109474000D01*
X77089000Y-96647000D02*
X77089000Y-105156000D01*
X77089000Y-105156000D02*
X77470000Y-105537000D01*
X77470000Y-105537000D02*
X77470000Y-109474000D01*
X80264000Y-115443000D02*
X80264000Y-112268000D01*
X76581000Y-96139000D02*
X77089000Y-96647000D01*
X76581000Y-95123000D02*
X76581000Y-96139000D01*
X83566000Y-126873000D02*
X83566000Y-125095000D01*
X83566000Y-125095000D02*
X82550000Y-124079000D01*
D31*
X83566000Y-128016000D02*
X83566000Y-126873000D01*
D29*
X77978000Y-109347000D02*
X77978000Y-105410000D01*
X77978000Y-105410000D02*
X77470000Y-104902000D01*
X77470000Y-104902000D02*
X77470000Y-96393000D01*
X80772000Y-115316000D02*
X80772000Y-112141000D01*
X82550000Y-124079000D02*
X82550000Y-117094000D01*
X80772000Y-112141000D02*
X77978000Y-109347000D01*
X82550000Y-117094000D02*
X80772000Y-115316000D01*
X77470000Y-96393000D02*
X77089000Y-96012000D01*
X77089000Y-96012000D02*
X77089000Y-95504000D01*
X80772000Y-117221000D02*
X80772000Y-125349000D01*
X76454000Y-91059000D02*
X76454000Y-93091000D01*
X75946000Y-109220000D02*
X75946000Y-97409000D01*
X75311000Y-96774000D02*
X75946000Y-97409000D01*
X75311000Y-94234000D02*
X75311000Y-96774000D01*
X76454000Y-93091000D02*
X75311000Y-94234000D01*
X79248000Y-112522000D02*
X79248000Y-115697000D01*
X75946000Y-109220000D02*
X79248000Y-112522000D01*
X79248000Y-115697000D02*
X80772000Y-117221000D01*
X91186000Y-126873000D02*
X89916000Y-125603000D01*
X89916000Y-125603000D02*
X86360000Y-125603000D01*
X86360000Y-125603000D02*
X83693000Y-122936000D01*
D31*
X91186000Y-128016000D02*
X91186000Y-126873000D01*
D29*
X82296000Y-114935000D02*
X83693000Y-116332000D01*
X82296000Y-114935000D02*
X82296000Y-111760000D01*
X83693000Y-116332000D02*
X83693000Y-122936000D01*
X78613000Y-94615000D02*
X78613000Y-104140000D01*
X78613000Y-104140000D02*
X79121000Y-104648000D01*
X79121000Y-104648000D02*
X79121000Y-108585000D01*
X82296000Y-111760000D02*
X79121000Y-108585000D01*
X78359000Y-94361000D02*
X78613000Y-94615000D01*
X93726000Y-126873000D02*
X92075000Y-125222000D01*
X92075000Y-125222000D02*
X86614000Y-125222000D01*
D31*
X93726000Y-128016000D02*
X93726000Y-126873000D01*
D29*
X86614000Y-125222000D02*
X84074000Y-122682000D01*
X79121000Y-103886000D02*
X79121000Y-94361000D01*
X82804000Y-114808000D02*
X82804000Y-111633000D01*
X79502000Y-108331000D02*
X82804000Y-111633000D01*
X82804000Y-114808000D02*
X84074000Y-116078000D01*
X84074000Y-116078000D02*
X84074000Y-122682000D01*
X79121000Y-103886000D02*
X79502000Y-104267000D01*
X79502000Y-104267000D02*
X79502000Y-108331000D01*
D33*
X96393000Y-90805000D02*
X96266000Y-90678000D01*
X96266000Y-90678000D02*
X95250000Y-90678000D01*
D31*
X108077000Y-93091000D02*
X108077000Y-91821000D01*
X108077000Y-91821000D02*
X107061000Y-90805000D01*
X107061000Y-90805000D02*
X103505000Y-90805000D01*
X103505000Y-90805000D02*
X99314000Y-90805000D01*
X99314000Y-90805000D02*
X96393000Y-90805000D01*
X96393000Y-90805000D02*
X96520000Y-90805000D01*
D29*
X88265000Y-87757000D02*
X88265000Y-88265000D01*
X88265000Y-88265000D02*
X93853000Y-93853000D01*
X84328000Y-85852000D02*
X86360000Y-85852000D01*
X86360000Y-85852000D02*
X88265000Y-87757000D01*
X105156000Y-96520000D02*
X105029000Y-96393000D01*
X105029000Y-96393000D02*
X105029000Y-94996000D01*
X103886000Y-93853000D02*
X105029000Y-94996000D01*
X93853000Y-93853000D02*
X103886000Y-93853000D01*
X85725000Y-86360000D02*
X86297198Y-86360000D01*
X86297198Y-86360000D02*
X87757000Y-87819802D01*
X87757000Y-87819802D02*
X87757000Y-88392000D01*
X87757000Y-88392000D02*
X93599000Y-94234000D01*
X104521000Y-95885000D02*
X104394000Y-95758000D01*
X104394000Y-95758000D02*
X104394000Y-94996000D01*
X103632000Y-94234000D02*
X104394000Y-94996000D01*
X93599000Y-94234000D02*
X103632000Y-94234000D01*
D28*
X112776000Y-84328000D02*
X112522000Y-84582000D01*
X112776000Y-80645000D02*
X112776000Y-84328000D01*
X110236000Y-78105000D02*
X112776000Y-80645000D01*
X110236000Y-76454000D02*
X110236000Y-78105000D01*
X108210000Y-74428000D02*
X110236000Y-76454000D01*
D29*
X109855000Y-89916000D02*
X94869000Y-89916000D01*
X94869000Y-89916000D02*
X94488000Y-90297000D01*
D28*
X110236000Y-89535000D02*
X110236000Y-84963000D01*
X109855000Y-89916000D02*
X110236000Y-89535000D01*
X110617000Y-84582000D02*
X110236000Y-84963000D01*
X112522000Y-84582000D02*
X110617000Y-84582000D01*
D31*
X108210000Y-73610500D02*
X108210000Y-74428000D01*
D29*
X93345000Y-85090000D02*
X90678000Y-82423000D01*
X90678000Y-82423000D02*
X90678000Y-79248000D01*
X90678000Y-79248000D02*
X94990000Y-74936000D01*
D31*
X94990000Y-74936000D02*
X94990000Y-73610500D01*
D29*
X93853000Y-90297000D02*
X93853000Y-90297000D01*
X93853000Y-90297000D02*
X93345000Y-89789000D01*
X93345000Y-89789000D02*
X93345000Y-85090000D01*
D31*
X93800000Y-81409000D02*
X94306000Y-81915000D01*
X94306000Y-81915000D02*
X97790000Y-81915000D01*
X101600000Y-70485000D02*
X103505000Y-68580000D01*
X103505000Y-68580000D02*
X106680000Y-68580000D01*
X99695000Y-68580000D02*
X96520000Y-68580000D01*
X97790000Y-70485000D02*
X95250000Y-70485000D01*
X105410000Y-70485000D02*
X107950000Y-70485000D01*
X103505000Y-72390000D02*
X103505000Y-76200000D01*
X99695000Y-72390000D02*
X99695000Y-76200000D01*
X99695000Y-76200000D02*
X103505000Y-76200000D01*
X101600000Y-78105000D02*
X101600000Y-74295000D01*
X99695000Y-80010000D02*
X103505000Y-80010000D01*
X105410000Y-81915000D02*
X108894000Y-81915000D01*
X108894000Y-81915000D02*
X109400000Y-81409000D01*
X97790000Y-81915000D02*
X101600000Y-81915000D01*
D29*
X86741000Y-88646000D02*
X94742000Y-96647000D01*
X86741000Y-88011000D02*
X86741000Y-88646000D01*
X86487000Y-87757000D02*
X86741000Y-88011000D01*
X85471000Y-87757000D02*
X86487000Y-87757000D01*
X98298000Y-96647000D02*
X98679000Y-96266000D01*
X102870000Y-97028000D02*
X102870000Y-99187000D01*
X103632000Y-95504000D02*
X103632000Y-96266000D01*
X103124000Y-94996000D02*
X103632000Y-95504000D01*
X94742000Y-96647000D02*
X98298000Y-96647000D01*
X102870000Y-99187000D02*
X103378000Y-99695000D01*
X103632000Y-96266000D02*
X102870000Y-97028000D01*
X98933000Y-94996000D02*
X103124000Y-94996000D01*
X98679000Y-95250000D02*
X98933000Y-94996000D01*
X98679000Y-96266000D02*
X98679000Y-95250000D01*
X84328000Y-86614000D02*
X85471000Y-87757000D01*
X73787000Y-87630000D02*
X73787000Y-86106000D01*
X73787000Y-86106000D02*
X74041000Y-85852000D01*
X74041000Y-85852000D02*
X82677000Y-85852000D01*
X82677000Y-85852000D02*
X94742000Y-97917000D01*
X96774000Y-101219000D02*
X100711000Y-101219000D01*
X94742000Y-97917000D02*
X94742000Y-99187000D01*
X94742000Y-99187000D02*
X96774000Y-101219000D01*
X100711000Y-101219000D02*
X100965000Y-101473000D01*
X90043000Y-104902000D02*
X89408000Y-105537000D01*
X88519000Y-105537000D02*
X89408000Y-105537000D01*
X87757000Y-106299000D02*
X88519000Y-105537000D01*
X87757000Y-106299000D02*
X87757000Y-118872000D01*
X87757000Y-118872000D02*
X90297000Y-121412000D01*
X88646000Y-104267000D02*
X89027000Y-104267000D01*
X87757000Y-104267000D02*
X87884000Y-104140000D01*
X87884000Y-104140000D02*
X87884000Y-102997000D01*
X87884000Y-102997000D02*
X88011000Y-102870000D01*
X88011000Y-102870000D02*
X88392000Y-102870000D01*
X88392000Y-102870000D02*
X88519000Y-102997000D01*
X88519000Y-102997000D02*
X88519000Y-104140000D01*
X88519000Y-104140000D02*
X88646000Y-104267000D01*
X86360000Y-101219000D02*
X87249000Y-102108000D01*
X86360000Y-101219000D02*
X86360000Y-98933000D01*
X87249000Y-104140000D02*
X87376000Y-104267000D01*
X87249000Y-102108000D02*
X87249000Y-104140000D01*
X87376000Y-104267000D02*
X87757000Y-104267000D01*
X89789000Y-104648000D02*
X90043000Y-104902000D01*
X89789000Y-102997000D02*
X89789000Y-104648000D01*
X89662000Y-102870000D02*
X89789000Y-102997000D01*
X89281000Y-102870000D02*
X89662000Y-102870000D01*
X89154000Y-102997000D02*
X89281000Y-102870000D01*
X89154000Y-104140000D02*
X89154000Y-102997000D01*
X89027000Y-104267000D02*
X89154000Y-104140000D01*
X85725000Y-120777000D02*
X85090000Y-121412000D01*
X85725000Y-114681000D02*
X85725000Y-120777000D01*
X84582000Y-113538000D02*
X85725000Y-114681000D01*
X84582000Y-105410000D02*
X84582000Y-113538000D01*
X83820000Y-104648000D02*
X84582000Y-105410000D01*
X83820000Y-104648000D02*
X83820000Y-104521000D01*
X82423000Y-102870000D02*
X83820000Y-104267000D01*
X83820000Y-104267000D02*
X83820000Y-104521000D01*
X82423000Y-97409000D02*
X82423000Y-102870000D01*
X83312000Y-96520000D02*
X82423000Y-97409000D01*
X83312000Y-94742000D02*
X83312000Y-96520000D01*
X80772000Y-96647000D02*
X80772000Y-107569000D01*
X80772000Y-107569000D02*
X82677000Y-109474000D01*
X82677000Y-109474000D02*
X83439000Y-109474000D01*
X78613000Y-92837000D02*
X79883000Y-94107000D01*
X79883000Y-94107000D02*
X79883000Y-95758000D01*
X79883000Y-95758000D02*
X80772000Y-96647000D01*
X72517000Y-89916000D02*
X77597000Y-89916000D01*
X77597000Y-89916000D02*
X78613000Y-90932000D01*
X78613000Y-90932000D02*
X78613000Y-92837000D01*
X84201000Y-105791000D02*
X83185000Y-104775000D01*
X85090000Y-115062000D02*
X85090000Y-114935000D01*
X85090000Y-114935000D02*
X84201000Y-114046000D01*
X84201000Y-114046000D02*
X84201000Y-105791000D01*
X82042000Y-97155000D02*
X82550000Y-96647000D01*
X82550000Y-96647000D02*
X82550000Y-94742000D01*
X83185000Y-104775000D02*
X83185000Y-104394000D01*
X83185000Y-104394000D02*
X82042000Y-103251000D01*
X82042000Y-103251000D02*
X82042000Y-97155000D01*
X86106000Y-88265000D02*
X86106000Y-88646000D01*
X86106000Y-88646000D02*
X95123000Y-97663000D01*
X95123000Y-97663000D02*
X95123000Y-98933000D01*
X95123000Y-98933000D02*
X97028000Y-100838000D01*
X97028000Y-100838000D02*
X101092000Y-100838000D01*
X101092000Y-100838000D02*
X101727000Y-101473000D01*
X101727000Y-101473000D02*
X101727000Y-101981000D01*
X111379000Y-118110000D02*
X111379000Y-96012000D01*
X111506000Y-95885000D02*
X111506000Y-95250000D01*
X111379000Y-96012000D02*
X111506000Y-95885000D01*
X110871000Y-117729000D02*
X110998000Y-117602000D01*
X110998000Y-117602000D02*
X110998000Y-95631000D01*
X87249000Y-121031000D02*
X87630000Y-121412000D01*
X87249000Y-106045000D02*
X87249000Y-121031000D01*
X87249000Y-106045000D02*
X88392000Y-104902000D01*
X88392000Y-104902000D02*
X89281000Y-104902000D01*
X83820000Y-111379000D02*
X83820000Y-114554000D01*
X83820000Y-114554000D02*
X84963000Y-115697000D01*
X84963000Y-115697000D02*
X84963000Y-119634000D01*
X84963000Y-119634000D02*
X85090000Y-119761000D01*
X80264000Y-107823000D02*
X83820000Y-111379000D01*
X80137000Y-98298000D02*
X80137000Y-103505000D01*
X80137000Y-103505000D02*
X80264000Y-103632000D01*
X80264000Y-103632000D02*
X80264000Y-107823000D01*
X74168000Y-88137998D02*
X75310998Y-86995000D01*
X75310998Y-86995000D02*
X81661000Y-86995000D01*
X81661000Y-86995000D02*
X93599000Y-98933000D01*
X108077000Y-127127000D02*
X107442000Y-126492000D01*
X107442000Y-126492000D02*
X103886000Y-126492000D01*
D31*
X108966000Y-128016000D02*
X108077000Y-127127000D01*
D29*
X92710000Y-117221000D02*
X93726000Y-118237000D01*
X92710000Y-108966000D02*
X92710000Y-117221000D01*
X93599000Y-108077000D02*
X93599000Y-98933000D01*
X93599000Y-108077000D02*
X92710000Y-108966000D01*
X95631000Y-118237000D02*
X103886000Y-126492000D01*
X93726000Y-118237000D02*
X95631000Y-118237000D01*
X73152000Y-87884000D02*
X73405998Y-88137998D01*
X73025000Y-82804000D02*
X73025000Y-83947000D01*
X73025000Y-83947000D02*
X73533000Y-84455000D01*
X73533000Y-84455000D02*
X73533000Y-85090000D01*
X73533000Y-85090000D02*
X73152002Y-85470998D01*
X73152002Y-85470998D02*
X73152000Y-87884000D01*
X72517000Y-82296000D02*
X73025000Y-82804000D01*
X73405998Y-88137998D02*
X74168000Y-88137998D01*
X74168000Y-88137998D02*
X74168004Y-88137998D01*
X75946000Y-118237000D02*
X75946000Y-118364000D01*
X78105000Y-126238000D02*
X78105000Y-120523000D01*
X78486000Y-126619000D02*
X78105000Y-126238000D01*
X91313000Y-114300000D02*
X91440000Y-114173000D01*
X91440000Y-114173000D02*
X91440000Y-107823000D01*
X92456000Y-99695000D02*
X92456000Y-106807000D01*
X92456000Y-106807000D02*
X91440000Y-107823000D01*
X81661000Y-89408000D02*
X82169000Y-89408000D01*
X82169000Y-89408000D02*
X92456000Y-99695000D01*
X75946000Y-118364000D02*
X78105000Y-120523000D01*
D31*
X78486000Y-128016000D02*
X78486000Y-126619000D01*
X78486000Y-126619000D02*
X78486000Y-126619000D01*
D32*
X118491000Y-110490000D02*
X114935000Y-106934000D01*
D31*
X114935000Y-106934000D02*
X114681000Y-106680000D01*
X114681000Y-107061000D02*
X114681000Y-106045000D01*
X114681000Y-105029000D02*
X114681000Y-106045000D01*
D32*
X119126000Y-128016000D02*
X119126000Y-127762000D01*
X118491000Y-127127000D02*
X118491000Y-110490000D01*
X119126000Y-127762000D02*
X118491000Y-127127000D01*
D29*
X96266000Y-126873000D02*
X93853000Y-124460000D01*
X93853000Y-124460000D02*
X87376000Y-124460000D01*
X86233000Y-123317000D02*
X87376000Y-124460000D01*
D31*
X96266000Y-128016000D02*
X96266000Y-126873000D01*
D29*
X86233000Y-114554000D02*
X86233000Y-123317000D01*
X85090000Y-113411000D02*
X86233000Y-114554000D01*
X85090000Y-102997000D02*
X85090000Y-113411000D01*
X84201000Y-98171000D02*
X84201000Y-102108000D01*
X85217000Y-97155000D02*
X84201000Y-98171000D01*
X84201000Y-102108000D02*
X85090000Y-102997000D01*
X85217000Y-93853000D02*
X85217000Y-97155000D01*
X82042000Y-90678000D02*
X85217000Y-93853000D01*
X81661000Y-90678000D02*
X82042000Y-90678000D01*
X98806000Y-126873000D02*
X97917000Y-125984000D01*
X97917000Y-125984000D02*
X96012000Y-125984000D01*
X96012000Y-125984000D02*
X94107000Y-124079000D01*
X94107000Y-124079000D02*
X87757000Y-124079000D01*
X86614000Y-122936000D02*
X87757000Y-124079000D01*
D31*
X98806000Y-128016000D02*
X98806000Y-126873000D01*
D29*
X86614000Y-114300000D02*
X86614000Y-122936000D01*
X85471000Y-113157000D02*
X86614000Y-114300000D01*
X85471000Y-102743000D02*
X85471000Y-113157000D01*
X84582000Y-101854000D02*
X85471000Y-102743000D01*
X84582000Y-98425000D02*
X84582000Y-101854000D01*
X85598000Y-97409000D02*
X84582000Y-98425000D01*
X85598000Y-93629828D02*
X85598000Y-97409000D01*
X82011172Y-90043000D02*
X85598000Y-93629828D01*
X81661000Y-90043000D02*
X82011172Y-90043000D01*
X79248000Y-120142000D02*
X79248000Y-125095000D01*
X79248000Y-125095000D02*
X80010000Y-125857000D01*
X72263000Y-115697000D02*
X73914000Y-117348000D01*
X73914000Y-117348000D02*
X76454000Y-117348000D01*
X76454000Y-117348000D02*
X79248000Y-120142000D01*
X72263000Y-99695000D02*
X72263000Y-115697000D01*
X71628000Y-99060000D02*
X72263000Y-99695000D01*
X71628000Y-80518000D02*
X71628000Y-99060000D01*
X72517000Y-79629000D02*
X71628000Y-80518000D01*
X78740000Y-120269000D02*
X78740000Y-125476000D01*
X78740000Y-125476000D02*
X79629000Y-126365000D01*
X71882000Y-115951000D02*
X73660000Y-117729000D01*
X73660000Y-117729000D02*
X76200000Y-117729000D01*
X76200000Y-117729000D02*
X78740000Y-120269000D01*
X71882000Y-99949000D02*
X71882000Y-115951000D01*
X71247000Y-99314000D02*
X71882000Y-99949000D01*
X71247000Y-79756000D02*
X71247000Y-99314000D01*
X72517000Y-78486000D02*
X71247000Y-79756000D01*
X76708000Y-96901000D02*
X76708000Y-107061000D01*
X76073000Y-96266000D02*
X76708000Y-96901000D01*
X76073000Y-94742000D02*
X76073000Y-96266000D01*
X77978000Y-92837000D02*
X76073000Y-94742000D01*
X77978000Y-91186000D02*
X77978000Y-92837000D01*
X76708000Y-107061000D02*
X76835000Y-107188000D01*
X78613000Y-112522000D02*
X78613000Y-114300000D01*
X75438000Y-109347000D02*
X78613000Y-112522000D01*
X75438000Y-109347000D02*
X75438000Y-107061000D01*
X75438000Y-107061000D02*
X75311000Y-106934000D01*
X75184000Y-106807000D02*
X75311000Y-106934000D01*
X75184000Y-98679000D02*
X75184000Y-106807000D01*
X75565000Y-98298000D02*
X75184000Y-98679000D01*
X75565000Y-97663000D02*
X75565000Y-98298000D01*
X75057000Y-97155000D02*
X75565000Y-97663000D01*
X74930000Y-97155000D02*
X75057000Y-97155000D01*
X78105000Y-112649000D02*
X78105000Y-114554000D01*
X75057000Y-109601000D02*
X78105000Y-112649000D01*
X75057000Y-107569000D02*
X75057000Y-109601000D01*
X74930000Y-107442000D02*
X75057000Y-107569000D01*
X78105000Y-114554000D02*
X78613000Y-115062000D01*
X74803000Y-107315000D02*
X74930000Y-107442000D01*
X74803000Y-97917000D02*
X74803000Y-107315000D01*
X74930000Y-97790000D02*
X74803000Y-97917000D01*
X101346000Y-127000000D02*
X101346000Y-125476000D01*
D31*
X101346000Y-128016000D02*
X101346000Y-127000000D01*
D29*
X91948000Y-117729000D02*
X93218000Y-118999000D01*
X91948000Y-107950000D02*
X91948000Y-117729000D01*
X92837000Y-107061000D02*
X92837000Y-99441000D01*
X81153000Y-87757000D02*
X92837000Y-99441000D01*
X75819000Y-87757000D02*
X81153000Y-87757000D01*
X72644000Y-88900000D02*
X74676000Y-88900000D01*
X72390000Y-88646000D02*
X72644000Y-88900000D01*
X74676000Y-88900000D02*
X75819000Y-87757000D01*
X72390000Y-83693000D02*
X72390000Y-88646000D01*
X72517000Y-83566000D02*
X72390000Y-83693000D01*
X92837000Y-107061000D02*
X91948000Y-107950000D01*
X94869000Y-118999000D02*
X101346000Y-125476000D01*
X93218000Y-118999000D02*
X94869000Y-118999000D01*
X103124000Y-127254000D02*
X103124000Y-126492000D01*
D31*
X103886000Y-128016000D02*
X103124000Y-127254000D01*
D29*
X110236000Y-93091000D02*
X115316000Y-88011000D01*
X115316000Y-88011000D02*
X115316000Y-85090000D01*
X93218000Y-99187000D02*
X93218000Y-107569000D01*
X93218000Y-107569000D02*
X92964000Y-107823000D01*
X92964000Y-107823000D02*
X92329000Y-108458000D01*
X107950000Y-106299000D02*
X107950000Y-107823000D01*
X110236000Y-93091000D02*
X110236000Y-104013000D01*
X110236000Y-104013000D02*
X107950000Y-106299000D01*
X115824000Y-80899000D02*
X115824000Y-84582000D01*
X115824000Y-84582000D02*
X115316000Y-85090000D01*
X92329000Y-117475000D02*
X93472000Y-118618000D01*
X92329000Y-108458000D02*
X92329000Y-117475000D01*
X75565000Y-87376000D02*
X81407000Y-87376000D01*
X73025000Y-88519000D02*
X74422000Y-88519000D01*
X81407000Y-87376000D02*
X93218000Y-99187000D01*
X74422000Y-88519000D02*
X75565000Y-87376000D01*
X72771000Y-88265000D02*
X73025000Y-88519000D01*
X72771000Y-84963000D02*
X72771000Y-88265000D01*
X72898000Y-84836000D02*
X72771000Y-84963000D01*
X95250000Y-118618000D02*
X103124000Y-126492000D01*
X93472000Y-118618000D02*
X95250000Y-118618000D01*
D28*
G36*
X92329000Y-74041000D02*
X92338667Y-74089601D01*
X92366197Y-74130803D01*
X92407399Y-74158333D01*
X92456000Y-74168000D01*
X93091000Y-74168000D01*
X93091000Y-75972896D01*
X90246948Y-78816948D01*
X90114803Y-79014716D01*
X90068400Y-79248000D01*
X90068400Y-82423000D01*
X90114803Y-82656284D01*
X90246948Y-82854052D01*
X92735400Y-85342505D01*
X92735400Y-89789000D01*
X92781803Y-90022284D01*
X92913948Y-90220052D01*
X93119887Y-90425992D01*
X93119873Y-90442163D01*
X93231231Y-90711669D01*
X93437247Y-90918045D01*
X93706558Y-91029872D01*
X93998163Y-91030127D01*
X94170591Y-90958881D01*
X94341558Y-91029872D01*
X94436521Y-91029955D01*
X94445683Y-91043667D01*
X94500993Y-91177526D01*
X94604220Y-91280933D01*
X94621382Y-91306618D01*
X94646843Y-91323631D01*
X94749168Y-91426134D01*
X94884108Y-91482166D01*
X94909794Y-91499329D01*
X94939828Y-91505303D01*
X95073590Y-91560846D01*
X95219704Y-91560974D01*
X95250000Y-91567000D01*
X95739802Y-91567000D01*
X96004194Y-91743662D01*
X96393000Y-91821000D01*
X106640160Y-91821000D01*
X107061000Y-92241841D01*
X107061000Y-93091000D01*
X107138338Y-93479806D01*
X107358580Y-93809420D01*
X107688194Y-94029662D01*
X108077000Y-94107000D01*
X108465806Y-94029662D01*
X108795420Y-93809420D01*
X109015662Y-93479806D01*
X109093000Y-93091000D01*
X109093000Y-91821000D01*
X109028194Y-91495197D01*
X109015662Y-91432193D01*
X108795421Y-91102580D01*
X108218440Y-90525600D01*
X109727304Y-90525600D01*
X109855000Y-90551000D01*
X110098004Y-90502664D01*
X110304013Y-90365013D01*
X110685013Y-89984013D01*
X110822664Y-89778005D01*
X110871000Y-89535000D01*
X110871000Y-85226026D01*
X110880026Y-85217000D01*
X112522000Y-85217000D01*
X112765004Y-85168664D01*
X112971013Y-85031013D01*
X113225013Y-84777013D01*
X113362664Y-84571004D01*
X113411000Y-84328000D01*
X113411000Y-80645000D01*
X113375667Y-80467365D01*
X113362664Y-80401995D01*
X113307339Y-80319197D01*
X113225013Y-80195987D01*
X113225010Y-80195985D01*
X110871000Y-77841974D01*
X110871000Y-76454005D01*
X110871001Y-76454000D01*
X110822664Y-76210996D01*
X110685013Y-76004987D01*
X110109000Y-75428974D01*
X110109000Y-74930000D01*
X110744000Y-74930000D01*
X110792601Y-74920333D01*
X110833803Y-74892803D01*
X110861333Y-74851601D01*
X110871000Y-74803000D01*
X110871000Y-74071016D01*
X114099404Y-74071016D01*
X114494366Y-74513548D01*
X115932902Y-74958461D01*
X117432197Y-74819004D01*
X118169634Y-74513548D01*
X118564596Y-74071016D01*
X118435074Y-73941494D01*
X118459118Y-73936711D01*
X118519526Y-73731791D01*
X117983000Y-73195264D01*
X117835922Y-73342342D01*
X117538502Y-73044922D01*
X117579838Y-73003586D01*
X117452994Y-72876742D01*
X117558736Y-72771000D01*
X117022209Y-72234474D01*
X116817289Y-72294882D01*
X116812610Y-72319030D01*
X116332000Y-71838420D01*
X115843922Y-72326498D01*
X115802586Y-72285162D01*
X115707039Y-72380709D01*
X115641791Y-72361474D01*
X115105264Y-72898000D01*
X115147506Y-72940242D01*
X115084162Y-73003586D01*
X115125498Y-73044922D01*
X114764578Y-73405842D01*
X114681000Y-73322264D01*
X114144474Y-73858791D01*
X114182531Y-73987889D01*
X114099404Y-74071016D01*
X110871000Y-74071016D01*
X110871000Y-70720902D01*
X112493539Y-70720902D01*
X112632996Y-72220197D01*
X112938452Y-72957634D01*
X113380984Y-73352596D01*
X113489436Y-73244144D01*
X113515289Y-73374118D01*
X113720209Y-73434526D01*
X114256736Y-72898000D01*
X114095516Y-72736780D01*
X114519780Y-72312516D01*
X114681000Y-72473736D01*
X115217526Y-71937209D01*
X115157118Y-71732289D01*
X115095838Y-71720414D01*
X115166838Y-71649414D01*
X115125502Y-71608078D01*
X115613580Y-71120000D01*
X115133074Y-70639494D01*
X115157118Y-70634711D01*
X115217526Y-70429791D01*
X114681000Y-69893264D01*
X114575258Y-69999006D01*
X114448414Y-69872162D01*
X114407078Y-69913498D01*
X114109658Y-69616078D01*
X114256736Y-69469000D01*
X113720209Y-68932474D01*
X113515289Y-68992882D01*
X113510610Y-69017030D01*
X113380984Y-68887404D01*
X112938452Y-69282366D01*
X112493539Y-70720902D01*
X110871000Y-70720902D01*
X110871000Y-67691000D01*
X114579955Y-67691000D01*
X114494366Y-67726452D01*
X114099404Y-68168984D01*
X114228926Y-68298506D01*
X114204882Y-68303289D01*
X114144474Y-68508209D01*
X114681000Y-69044736D01*
X114828078Y-68897658D01*
X115125498Y-69195078D01*
X115084162Y-69236414D01*
X115211006Y-69363258D01*
X115105264Y-69469000D01*
X115641791Y-70005526D01*
X115846711Y-69945118D01*
X115851390Y-69920970D01*
X116332000Y-70401580D01*
X116812506Y-69921074D01*
X116817289Y-69945118D01*
X117022209Y-70005526D01*
X117558736Y-69469000D01*
X117452994Y-69363258D01*
X117579838Y-69236414D01*
X117538502Y-69195078D01*
X117835922Y-68897658D01*
X117983000Y-69044736D01*
X118519526Y-68508209D01*
X118459118Y-68303289D01*
X118434970Y-68298610D01*
X118564596Y-68168984D01*
X118169634Y-67726452D01*
X118055007Y-67691000D01*
X119761000Y-67691000D01*
X119761000Y-69367955D01*
X119725548Y-69282366D01*
X119283016Y-68887404D01*
X119153494Y-69016926D01*
X119148711Y-68992882D01*
X118943791Y-68932474D01*
X118407264Y-69469000D01*
X118554342Y-69616078D01*
X118256922Y-69913498D01*
X118215586Y-69872162D01*
X118088742Y-69999006D01*
X117983000Y-69893264D01*
X117446474Y-70429791D01*
X117506882Y-70634711D01*
X117531030Y-70639390D01*
X117050420Y-71120000D01*
X117530926Y-71600506D01*
X117506882Y-71605289D01*
X117446474Y-71810209D01*
X117983000Y-72346736D01*
X118088742Y-72240994D01*
X118215586Y-72367838D01*
X118256922Y-72326502D01*
X118554342Y-72623922D01*
X118407264Y-72771000D01*
X118943791Y-73307526D01*
X119148711Y-73247118D01*
X119153390Y-73222970D01*
X119283016Y-73352596D01*
X119725548Y-72957634D01*
X119761000Y-72843007D01*
X119761000Y-88392000D01*
X119380000Y-88392000D01*
X119136996Y-88440336D01*
X118930987Y-88577987D01*
X118793336Y-88783996D01*
X118745000Y-89027000D01*
X118745000Y-91141998D01*
X118636759Y-91141998D01*
X118581956Y-91061675D01*
X118275749Y-90698917D01*
X117854029Y-90480953D01*
X117667000Y-90601373D01*
X117667000Y-91350000D01*
X117745000Y-91350000D01*
X117745000Y-91950000D01*
X117667000Y-91950000D01*
X117667000Y-92698627D01*
X117854029Y-92819047D01*
X118275749Y-92601083D01*
X118581956Y-92238325D01*
X118636759Y-92158002D01*
X118745000Y-92158002D01*
X118745000Y-98341998D01*
X118636759Y-98341998D01*
X118581956Y-98261675D01*
X118275749Y-97898917D01*
X117854029Y-97680953D01*
X117667000Y-97801373D01*
X117667000Y-98550000D01*
X117745000Y-98550000D01*
X117745000Y-99150000D01*
X117667000Y-99150000D01*
X117667000Y-99898627D01*
X117854029Y-100019047D01*
X118275749Y-99801083D01*
X118581956Y-99438325D01*
X118636759Y-99358002D01*
X118745000Y-99358002D01*
X118745000Y-101473000D01*
X118793336Y-101716004D01*
X118930987Y-101922013D01*
X119136996Y-102059664D01*
X119380000Y-102108000D01*
X119761000Y-102108000D01*
X119761000Y-110490000D01*
X119664327Y-110003992D01*
X119389026Y-109591974D01*
X119389023Y-109591972D01*
X115833026Y-106035974D01*
X115697000Y-105945085D01*
X115697000Y-105029000D01*
X115619662Y-104640194D01*
X115399420Y-104310580D01*
X115069806Y-104090338D01*
X114681000Y-104013000D01*
X114427000Y-104063524D01*
X114427000Y-101355026D01*
X116077091Y-99704935D01*
X116158251Y-99801083D01*
X116579971Y-100019047D01*
X116767000Y-99898627D01*
X116767000Y-99150000D01*
X116689000Y-99150000D01*
X116689000Y-98550000D01*
X116767000Y-98550000D01*
X116767000Y-97801373D01*
X116579971Y-97680953D01*
X116459000Y-97743476D01*
X116459000Y-92756524D01*
X116579971Y-92819047D01*
X116767000Y-92698627D01*
X116767000Y-91950000D01*
X116689000Y-91950000D01*
X116689000Y-91350000D01*
X116767000Y-91350000D01*
X116767000Y-90601373D01*
X116579971Y-90480953D01*
X116459000Y-90543476D01*
X116459000Y-85726145D01*
X116556872Y-85490442D01*
X116557127Y-85198837D01*
X116445769Y-84929331D01*
X116365033Y-84848454D01*
X116387197Y-84815284D01*
X116433600Y-84582000D01*
X116433600Y-81326178D01*
X116445045Y-81314753D01*
X116556872Y-81045442D01*
X116557127Y-80753837D01*
X116445769Y-80484331D01*
X116239753Y-80277955D01*
X115970442Y-80166128D01*
X115678837Y-80165873D01*
X115409331Y-80277231D01*
X115202955Y-80483247D01*
X115091128Y-80752558D01*
X115090873Y-81044163D01*
X115202231Y-81313669D01*
X115214400Y-81325859D01*
X115214400Y-84329495D01*
X114884949Y-84658947D01*
X114884948Y-84658948D01*
X114752803Y-84856716D01*
X114706400Y-85090000D01*
X114706400Y-87758496D01*
X109804948Y-92659948D01*
X109672803Y-92857716D01*
X109626400Y-93091000D01*
X109626400Y-103760496D01*
X107518948Y-105867948D01*
X107386803Y-106065716D01*
X107340400Y-106299000D01*
X107340400Y-107395822D01*
X107328955Y-107407247D01*
X107217128Y-107676558D01*
X107216873Y-107968163D01*
X107328231Y-108237669D01*
X107534247Y-108444045D01*
X107803558Y-108555872D01*
X108095163Y-108556127D01*
X108331000Y-108458681D01*
X108331000Y-118744995D01*
X108330999Y-118745000D01*
X108427673Y-119231008D01*
X108702974Y-119643026D01*
X109855000Y-120795051D01*
X109855000Y-124205995D01*
X109854999Y-124206000D01*
X109951673Y-124692008D01*
X110226974Y-125104026D01*
X110988975Y-125866026D01*
X111400992Y-126141327D01*
X111498194Y-126160662D01*
X111539986Y-126168975D01*
X111887000Y-126238001D01*
X111887005Y-126238000D01*
X113030000Y-126238000D01*
X113418806Y-126160662D01*
X113748420Y-125940420D01*
X113968662Y-125610806D01*
X114046000Y-125222000D01*
X113968662Y-124833194D01*
X113748420Y-124503580D01*
X113418806Y-124283338D01*
X113030000Y-124206000D01*
X112875915Y-124206000D01*
X112785026Y-124069975D01*
X112395000Y-123679948D01*
X112395000Y-120269000D01*
X112298327Y-119782992D01*
X112023026Y-119370974D01*
X112023023Y-119370972D01*
X111495153Y-118843102D01*
X111524163Y-118843127D01*
X111793669Y-118731769D01*
X112000045Y-118525753D01*
X112111872Y-118256442D01*
X112112127Y-117964837D01*
X112000769Y-117695331D01*
X111988600Y-117683141D01*
X111988600Y-99333716D01*
X112310671Y-99333716D01*
X112382044Y-99438325D01*
X112688251Y-99801083D01*
X113109971Y-100019047D01*
X113297000Y-99898627D01*
X113297000Y-99150000D01*
X112413407Y-99150000D01*
X112310671Y-99333716D01*
X111988600Y-99333716D01*
X111988600Y-98366284D01*
X112310671Y-98366284D01*
X112413407Y-98550000D01*
X113297000Y-98550000D01*
X113297000Y-97801373D01*
X113109971Y-97680953D01*
X112688251Y-97898917D01*
X112382044Y-98261675D01*
X112310671Y-98366284D01*
X111988600Y-98366284D01*
X111988600Y-96238905D01*
X112069197Y-96118284D01*
X112070129Y-96113599D01*
X112115600Y-95885000D01*
X112115600Y-95677178D01*
X112127045Y-95665753D01*
X112238872Y-95396442D01*
X112239127Y-95104837D01*
X112127769Y-94835331D01*
X111921753Y-94628955D01*
X111652442Y-94517128D01*
X111360837Y-94516873D01*
X111091331Y-94628231D01*
X110884955Y-94834247D01*
X110858533Y-94897878D01*
X110852837Y-94897873D01*
X110845600Y-94900863D01*
X110845600Y-93343504D01*
X112212000Y-91977104D01*
X112212000Y-92158002D01*
X112327241Y-92158002D01*
X112382044Y-92238325D01*
X112688251Y-92601083D01*
X113109971Y-92819047D01*
X113297000Y-92698627D01*
X113297000Y-91950000D01*
X113219000Y-91950000D01*
X113219000Y-91350000D01*
X113297000Y-91350000D01*
X113297000Y-91122000D01*
X114197000Y-91122000D01*
X114197000Y-91350000D01*
X114275000Y-91350000D01*
X114275000Y-91950000D01*
X114197000Y-91950000D01*
X114197000Y-92698627D01*
X114373794Y-92812457D01*
X114259140Y-93088574D01*
X114258860Y-93410016D01*
X114381611Y-93707097D01*
X114608707Y-93934590D01*
X114905574Y-94057860D01*
X115189000Y-94058107D01*
X115189000Y-96442106D01*
X114906984Y-96441860D01*
X114609903Y-96564611D01*
X114382410Y-96791707D01*
X114259140Y-97088574D01*
X114258860Y-97410016D01*
X114373587Y-97687676D01*
X114197000Y-97801373D01*
X114197000Y-98550000D01*
X114275000Y-98550000D01*
X114275000Y-99150000D01*
X114197000Y-99150000D01*
X114197000Y-99788974D01*
X113342987Y-100642987D01*
X113205336Y-100848996D01*
X113157000Y-101092000D01*
X113157000Y-107569000D01*
X113205336Y-107812004D01*
X113342987Y-108018013D01*
X116078000Y-110753026D01*
X116078000Y-110869855D01*
X115980128Y-111105558D01*
X115979873Y-111397163D01*
X116091231Y-111666669D01*
X116297247Y-111873045D01*
X116566558Y-111984872D01*
X116583783Y-111984887D01*
X116738400Y-112139505D01*
X116738400Y-119127495D01*
X116460496Y-119405400D01*
X115997178Y-119405400D01*
X115985753Y-119393955D01*
X115716442Y-119282128D01*
X115424837Y-119281873D01*
X115155331Y-119393231D01*
X114948955Y-119599247D01*
X114837128Y-119868558D01*
X114836873Y-120160163D01*
X114948231Y-120429669D01*
X115154247Y-120636045D01*
X115423558Y-120747872D01*
X115715163Y-120748127D01*
X115984669Y-120636769D01*
X115996859Y-120624600D01*
X116713000Y-120624600D01*
X116946284Y-120578197D01*
X117144052Y-120446052D01*
X117221000Y-120369104D01*
X117221000Y-126662577D01*
X117177396Y-126706181D01*
X117101559Y-126550166D01*
X116501364Y-126464450D01*
X116070441Y-126550166D01*
X115965230Y-126766612D01*
X116586000Y-127387382D01*
X116645044Y-127328339D01*
X117273662Y-127956957D01*
X117214618Y-128016000D01*
X117273662Y-128075044D01*
X116697705Y-128651000D01*
X116592382Y-128651000D01*
X116586000Y-128644618D01*
X116579618Y-128651000D01*
X116474295Y-128651000D01*
X115898339Y-128075044D01*
X115957382Y-128016000D01*
X115336612Y-127395230D01*
X115307006Y-127409621D01*
X115231010Y-127225697D01*
X114838370Y-126832371D01*
X114325100Y-126619243D01*
X113769339Y-126618758D01*
X113255697Y-126830990D01*
X112862371Y-127223630D01*
X112776051Y-127431512D01*
X112691010Y-127225697D01*
X112298370Y-126832371D01*
X111785100Y-126619243D01*
X111229339Y-126618758D01*
X110715697Y-126830990D01*
X110322371Y-127223630D01*
X110236051Y-127431512D01*
X110151010Y-127225697D01*
X109758370Y-126832371D01*
X109245100Y-126619243D01*
X109005874Y-126619034D01*
X108795420Y-126408580D01*
X108465807Y-126188338D01*
X108077000Y-126111001D01*
X107948638Y-126136533D01*
X107873052Y-126060948D01*
X107675284Y-125928803D01*
X107442000Y-125882400D01*
X104138504Y-125882400D01*
X96062052Y-117805948D01*
X95864284Y-117673803D01*
X95631000Y-117627400D01*
X93978504Y-117627400D01*
X93319600Y-116968496D01*
X93319600Y-109218504D01*
X94030052Y-108508052D01*
X94162197Y-108310284D01*
X94208600Y-108077000D01*
X94208600Y-103352600D01*
X94488000Y-103352600D01*
X94721284Y-103306197D01*
X94919052Y-103174052D01*
X94932500Y-103160604D01*
X94945948Y-103174052D01*
X95143716Y-103306197D01*
X95377000Y-103352600D01*
X95758000Y-103352600D01*
X95991284Y-103306197D01*
X96189052Y-103174052D01*
X96316052Y-103047052D01*
X96369958Y-102966377D01*
X96373558Y-102967872D01*
X96665163Y-102968127D01*
X96934669Y-102856769D01*
X97141045Y-102650753D01*
X97252872Y-102381442D01*
X97253022Y-102209600D01*
X97270824Y-102209600D01*
X97295231Y-102268669D01*
X97501247Y-102475045D01*
X97770558Y-102586872D01*
X98062163Y-102587127D01*
X98331669Y-102475769D01*
X98343859Y-102463600D01*
X99758349Y-102463600D01*
X99835231Y-102649669D01*
X100041247Y-102856045D01*
X100310558Y-102967872D01*
X100602163Y-102968127D01*
X100871669Y-102856769D01*
X101078045Y-102650753D01*
X101160835Y-102451370D01*
X101311247Y-102602045D01*
X101580558Y-102713872D01*
X101872163Y-102714127D01*
X102141669Y-102602769D01*
X102348045Y-102396753D01*
X102459872Y-102127442D01*
X102460127Y-101835837D01*
X102348769Y-101566331D01*
X102336600Y-101554141D01*
X102336600Y-101473000D01*
X102290197Y-101239716D01*
X102210959Y-101121128D01*
X102158053Y-101041948D01*
X101523052Y-100406948D01*
X101325284Y-100274803D01*
X101092000Y-100228400D01*
X97280504Y-100228400D01*
X95732600Y-98680496D01*
X95732600Y-97663000D01*
X95686197Y-97429716D01*
X95684491Y-97427163D01*
X95570525Y-97256600D01*
X98298000Y-97256600D01*
X98531284Y-97210197D01*
X98729052Y-97078052D01*
X99110052Y-96697053D01*
X99242197Y-96499284D01*
X99253382Y-96443052D01*
X99288600Y-96266000D01*
X99288600Y-95605600D01*
X102871496Y-95605600D01*
X103022400Y-95756505D01*
X103022400Y-96013496D01*
X102438948Y-96596948D01*
X102306803Y-96794716D01*
X102260400Y-97028000D01*
X102260400Y-99187000D01*
X102306803Y-99420284D01*
X102438948Y-99618052D01*
X102644887Y-99823992D01*
X102644873Y-99840163D01*
X102756231Y-100109669D01*
X102962247Y-100316045D01*
X103231558Y-100427872D01*
X103523163Y-100428127D01*
X103792669Y-100316769D01*
X103999045Y-100110753D01*
X104110872Y-99841442D01*
X104111127Y-99549837D01*
X103999769Y-99280331D01*
X103793753Y-99073955D01*
X103524442Y-98962128D01*
X103507217Y-98962113D01*
X103479600Y-98934496D01*
X103479600Y-97887978D01*
X103650163Y-97888127D01*
X103919669Y-97776769D01*
X104126045Y-97570753D01*
X104237872Y-97301442D01*
X104237887Y-97284218D01*
X104444052Y-97078053D01*
X104537602Y-96938046D01*
X104740247Y-97141045D01*
X104942848Y-97225172D01*
X104942848Y-98463100D01*
X104982275Y-98661312D01*
X105029000Y-98731241D01*
X105029000Y-98806000D01*
X105057873Y-98951154D01*
X105057873Y-98951163D01*
X105057876Y-98951171D01*
X105087004Y-99097605D01*
X105169228Y-99220661D01*
X105169231Y-99220669D01*
X105169237Y-99220675D01*
X105252185Y-99344815D01*
X105375240Y-99427038D01*
X105375247Y-99427045D01*
X105375256Y-99427049D01*
X105499395Y-99509996D01*
X105644552Y-99538870D01*
X105644558Y-99538872D01*
X105644564Y-99538872D01*
X105791000Y-99568000D01*
X105936154Y-99539127D01*
X105936163Y-99539127D01*
X105936171Y-99539124D01*
X106082605Y-99509996D01*
X106205661Y-99427772D01*
X106205669Y-99427769D01*
X106205675Y-99427763D01*
X106329815Y-99344815D01*
X106412038Y-99221760D01*
X106412045Y-99221753D01*
X106412049Y-99221744D01*
X106494996Y-99097605D01*
X106518180Y-98981052D01*
X106604727Y-98981052D01*
X106625102Y-99001427D01*
X106858491Y-99098100D01*
X107118150Y-99098100D01*
X107276900Y-98939350D01*
X107276900Y-98063050D01*
X107861100Y-98063050D01*
X107861100Y-98939350D01*
X108019850Y-99098100D01*
X108279509Y-99098100D01*
X108512898Y-99001427D01*
X108691527Y-98822799D01*
X108788200Y-98589410D01*
X108788200Y-98221800D01*
X108629450Y-98063050D01*
X107861100Y-98063050D01*
X107276900Y-98063050D01*
X107147152Y-98063050D01*
X107147152Y-97262950D01*
X107276900Y-97262950D01*
X107276900Y-96386650D01*
X107861100Y-96386650D01*
X107861100Y-97262950D01*
X108629450Y-97262950D01*
X108788200Y-97104200D01*
X108788200Y-96736590D01*
X108691527Y-96503201D01*
X108512898Y-96324573D01*
X108279509Y-96227900D01*
X108019850Y-96227900D01*
X107861100Y-96386650D01*
X107276900Y-96386650D01*
X107118150Y-96227900D01*
X106858491Y-96227900D01*
X106625102Y-96324573D01*
X106604727Y-96344948D01*
X105876777Y-96344948D01*
X105777769Y-96105331D01*
X105638600Y-95965919D01*
X105638600Y-94996000D01*
X105592197Y-94762716D01*
X105460052Y-94564948D01*
X104317052Y-93421948D01*
X104119284Y-93289803D01*
X103886000Y-93243400D01*
X94105505Y-93243400D01*
X88874600Y-88012496D01*
X88874600Y-87757000D01*
X88828197Y-87523716D01*
X88696052Y-87325948D01*
X86791052Y-85420948D01*
X86593284Y-85288803D01*
X86360000Y-85242400D01*
X84755178Y-85242400D01*
X84743753Y-85230955D01*
X84474442Y-85119128D01*
X84182837Y-85118873D01*
X83913331Y-85230231D01*
X83706955Y-85436247D01*
X83595128Y-85705558D01*
X83594951Y-85907847D01*
X83108052Y-85420948D01*
X82910284Y-85288803D01*
X82759614Y-85258833D01*
X82643200Y-85142419D01*
X82543219Y-85242400D01*
X82456095Y-85242400D01*
X82040038Y-84826343D01*
X82183581Y-84682800D01*
X83102819Y-84682800D01*
X83654084Y-85234065D01*
X83861056Y-85165902D01*
X83953228Y-84663075D01*
X83861056Y-84199698D01*
X83654084Y-84131535D01*
X83102819Y-84682800D01*
X82183581Y-84682800D01*
X81632316Y-84131535D01*
X81462100Y-84187593D01*
X81291884Y-84131535D01*
X80740619Y-84682800D01*
X80884162Y-84826343D01*
X80468105Y-85242400D01*
X80380981Y-85242400D01*
X80281000Y-85142419D01*
X80181019Y-85242400D01*
X80093895Y-85242400D01*
X79677838Y-84826343D01*
X79821381Y-84682800D01*
X79270116Y-84131535D01*
X79125300Y-84179228D01*
X78980484Y-84131535D01*
X78429219Y-84682800D01*
X78572762Y-84826343D01*
X78156705Y-85242400D01*
X78069581Y-85242400D01*
X77969600Y-85142419D01*
X77869619Y-85242400D01*
X77782495Y-85242400D01*
X77366438Y-84826343D01*
X77509981Y-84682800D01*
X76958716Y-84131535D01*
X76751744Y-84199698D01*
X76659572Y-84702525D01*
X76751744Y-85165902D01*
X76764029Y-85169948D01*
X76691577Y-85242400D01*
X74112286Y-85242400D01*
X74142600Y-85090000D01*
X74142600Y-84455000D01*
X74096197Y-84221716D01*
X74073514Y-84187769D01*
X73964052Y-84023947D01*
X73634600Y-83694496D01*
X73634600Y-83229884D01*
X77418335Y-83229884D01*
X77486498Y-83436856D01*
X77559984Y-83450327D01*
X77486498Y-83464944D01*
X77418335Y-83671916D01*
X77969600Y-84223181D01*
X78487018Y-83705763D01*
X79628344Y-83705763D01*
X79750764Y-83926458D01*
X80018566Y-83960747D01*
X80281000Y-84223181D01*
X80519741Y-83984440D01*
X80811236Y-83926458D01*
X80933656Y-83705763D01*
X80799097Y-83571204D01*
X80764102Y-83464944D01*
X80676841Y-83448948D01*
X80457777Y-83229884D01*
X82091935Y-83229884D01*
X82160098Y-83436856D01*
X82233584Y-83450327D01*
X82160098Y-83464944D01*
X82091935Y-83671916D01*
X82643200Y-84223181D01*
X83194465Y-83671916D01*
X83126302Y-83464944D01*
X83052816Y-83451473D01*
X83126302Y-83436856D01*
X83194465Y-83229884D01*
X82643200Y-82678619D01*
X82091935Y-83229884D01*
X80457777Y-83229884D01*
X80281000Y-83053107D01*
X79886858Y-83447249D01*
X79797898Y-83464944D01*
X79762903Y-83571204D01*
X79628344Y-83705763D01*
X78487018Y-83705763D01*
X78520865Y-83671916D01*
X78452702Y-83464944D01*
X78379216Y-83451473D01*
X78452702Y-83436856D01*
X78520865Y-83229884D01*
X77969600Y-82678619D01*
X77418335Y-83229884D01*
X73634600Y-83229884D01*
X73634600Y-82804000D01*
X73588197Y-82570716D01*
X73539205Y-82497394D01*
X73456052Y-82372947D01*
X73321830Y-82238725D01*
X76659572Y-82238725D01*
X76751744Y-82702102D01*
X76958716Y-82770265D01*
X77509981Y-82219000D01*
X78429219Y-82219000D01*
X78623976Y-82413757D01*
X78617935Y-82460941D01*
X78700542Y-82876236D01*
X78921237Y-82998656D01*
X79573893Y-82346000D01*
X80988107Y-82346000D01*
X81640763Y-82998656D01*
X81861458Y-82876236D01*
X81910666Y-82491915D01*
X82183581Y-82219000D01*
X83102819Y-82219000D01*
X83654084Y-82770265D01*
X83861056Y-82702102D01*
X83953228Y-82199275D01*
X83861056Y-81735898D01*
X83654084Y-81667735D01*
X83102819Y-82219000D01*
X82183581Y-82219000D01*
X81881598Y-81917017D01*
X81861458Y-81815764D01*
X81679303Y-81714722D01*
X81632316Y-81667735D01*
X81425344Y-81735898D01*
X81386544Y-81947563D01*
X80988107Y-82346000D01*
X79573893Y-82346000D01*
X79242993Y-82015100D01*
X79187456Y-81735898D01*
X78980484Y-81667735D01*
X78938056Y-81710163D01*
X78921237Y-81693344D01*
X78700542Y-81815764D01*
X78681172Y-81967047D01*
X78429219Y-82219000D01*
X77509981Y-82219000D01*
X76958716Y-81667735D01*
X76751744Y-81735898D01*
X76659572Y-82238725D01*
X73321830Y-82238725D01*
X73250113Y-82167008D01*
X73250127Y-82150837D01*
X73138769Y-81881331D01*
X72932753Y-81674955D01*
X72899396Y-81661104D01*
X72931669Y-81647769D01*
X73138045Y-81441753D01*
X73249872Y-81172442D01*
X73250027Y-80994684D01*
X77418335Y-80994684D01*
X77453480Y-81101400D01*
X77418335Y-81208116D01*
X77969600Y-81759381D01*
X78520865Y-81208116D01*
X78485720Y-81101400D01*
X78520865Y-80994684D01*
X78512418Y-80986237D01*
X79628344Y-80986237D01*
X79775376Y-81133269D01*
X79797898Y-81201656D01*
X79854057Y-81211950D01*
X80281000Y-81638893D01*
X80706848Y-81213045D01*
X80764102Y-81201656D01*
X80786624Y-81133269D01*
X80925209Y-80994684D01*
X82091935Y-80994684D01*
X82127080Y-81101400D01*
X82091935Y-81208116D01*
X82643200Y-81759381D01*
X83194465Y-81208116D01*
X83159320Y-81101400D01*
X83194465Y-80994684D01*
X82643200Y-80443419D01*
X82091935Y-80994684D01*
X80925209Y-80994684D01*
X80933656Y-80986237D01*
X80811236Y-80765542D01*
X80572564Y-80734983D01*
X80281000Y-80443419D01*
X80010552Y-80713867D01*
X79750764Y-80765542D01*
X79628344Y-80986237D01*
X78512418Y-80986237D01*
X77969600Y-80443419D01*
X77418335Y-80994684D01*
X73250027Y-80994684D01*
X73250127Y-80880837D01*
X73138769Y-80611331D01*
X72932753Y-80404955D01*
X72746093Y-80327448D01*
X72931669Y-80250769D01*
X73138045Y-80044753D01*
X73155164Y-80003525D01*
X76659572Y-80003525D01*
X76751744Y-80466902D01*
X76958716Y-80535065D01*
X77509981Y-79983800D01*
X78429219Y-79983800D01*
X78980484Y-80535065D01*
X79125300Y-80487372D01*
X79270116Y-80535065D01*
X79821381Y-79983800D01*
X80740619Y-79983800D01*
X81291884Y-80535065D01*
X81462100Y-80479007D01*
X81632316Y-80535065D01*
X82183581Y-79983800D01*
X83102819Y-79983800D01*
X83654084Y-80535065D01*
X83861056Y-80466902D01*
X83953228Y-79964075D01*
X83861056Y-79500698D01*
X83654084Y-79432535D01*
X83102819Y-79983800D01*
X82183581Y-79983800D01*
X81632316Y-79432535D01*
X81462100Y-79488593D01*
X81291884Y-79432535D01*
X80740619Y-79983800D01*
X79821381Y-79983800D01*
X79270116Y-79432535D01*
X79125300Y-79480228D01*
X78980484Y-79432535D01*
X78429219Y-79983800D01*
X77509981Y-79983800D01*
X76958716Y-79432535D01*
X76751744Y-79500698D01*
X76659572Y-80003525D01*
X73155164Y-80003525D01*
X73249872Y-79775442D01*
X73250127Y-79483837D01*
X73138769Y-79214331D01*
X72982119Y-79057407D01*
X73066757Y-78972916D01*
X77418335Y-78972916D01*
X77969600Y-79524181D01*
X78520865Y-78972916D01*
X79729735Y-78972916D01*
X80281000Y-79524181D01*
X80832265Y-78972916D01*
X82091935Y-78972916D01*
X82643200Y-79524181D01*
X83194465Y-78972916D01*
X83126302Y-78765944D01*
X82623475Y-78673772D01*
X82160098Y-78765944D01*
X82091935Y-78972916D01*
X80832265Y-78972916D01*
X80764102Y-78765944D01*
X80261275Y-78673772D01*
X79797898Y-78765944D01*
X79729735Y-78972916D01*
X78520865Y-78972916D01*
X78452702Y-78765944D01*
X77949875Y-78673772D01*
X77486498Y-78765944D01*
X77418335Y-78972916D01*
X73066757Y-78972916D01*
X73138045Y-78901753D01*
X73249872Y-78632442D01*
X73250127Y-78340837D01*
X73138769Y-78071331D01*
X72932753Y-77864955D01*
X72899396Y-77851104D01*
X72931669Y-77837769D01*
X73138045Y-77631753D01*
X73249872Y-77362442D01*
X73250127Y-77070837D01*
X73138769Y-76801331D01*
X72932753Y-76594955D01*
X72663442Y-76483128D01*
X72371837Y-76482873D01*
X72102331Y-76594231D01*
X71895955Y-76800247D01*
X71784128Y-77069558D01*
X71784113Y-77086782D01*
X70434948Y-78435948D01*
X70302803Y-78633716D01*
X70256400Y-78867000D01*
X70256400Y-99568000D01*
X70302803Y-99801284D01*
X70434948Y-99999052D01*
X70764400Y-100328505D01*
X70764400Y-103712822D01*
X70752955Y-103724247D01*
X70641128Y-103993558D01*
X70640873Y-104285163D01*
X70752231Y-104554669D01*
X70764400Y-104566859D01*
X70764400Y-116078000D01*
X70810803Y-116311284D01*
X70942948Y-116509052D01*
X72952147Y-118518251D01*
X72051803Y-118601996D01*
X71314366Y-118907452D01*
X70919404Y-119349984D01*
X71048926Y-119479506D01*
X71024882Y-119484289D01*
X70964474Y-119689209D01*
X71501000Y-120225736D01*
X71648078Y-120078658D01*
X71945498Y-120376078D01*
X71904162Y-120417414D01*
X72031006Y-120544258D01*
X71925264Y-120650000D01*
X72461791Y-121186526D01*
X72666711Y-121126118D01*
X72671390Y-121101970D01*
X73152000Y-121582580D01*
X73166143Y-121568438D01*
X73884563Y-122286858D01*
X73870420Y-122301000D01*
X74350926Y-122781506D01*
X74326882Y-122786289D01*
X74266474Y-122991209D01*
X74803000Y-123527736D01*
X74908742Y-123421994D01*
X75035586Y-123548838D01*
X75076922Y-123507502D01*
X75374342Y-123804922D01*
X75227264Y-123952000D01*
X75763791Y-124488526D01*
X75968711Y-124428118D01*
X75973390Y-124403970D01*
X76103016Y-124533596D01*
X76545548Y-124138634D01*
X76990461Y-122700098D01*
X76851004Y-121200803D01*
X76633432Y-120675537D01*
X77114400Y-121156505D01*
X77114400Y-124588496D01*
X76074363Y-125628533D01*
X75946000Y-125603000D01*
X75557194Y-125680338D01*
X75227580Y-125900580D01*
X75007338Y-126230194D01*
X74930000Y-126619000D01*
X74930000Y-127056293D01*
X74762371Y-127223630D01*
X74685116Y-127409680D01*
X74655388Y-127395230D01*
X74034618Y-128016000D01*
X74093662Y-128075044D01*
X73517705Y-128651000D01*
X73412382Y-128651000D01*
X73406000Y-128644618D01*
X73399618Y-128651000D01*
X73294295Y-128651000D01*
X72718339Y-128075044D01*
X72777382Y-128016000D01*
X72272952Y-127511570D01*
X72272952Y-127127000D01*
X72233525Y-126928788D01*
X72125162Y-126766612D01*
X72785230Y-126766612D01*
X73406000Y-127387382D01*
X74026770Y-126766612D01*
X73921559Y-126550166D01*
X73321364Y-126464450D01*
X72890441Y-126550166D01*
X72785230Y-126766612D01*
X72125162Y-126766612D01*
X72121247Y-126760753D01*
X71953212Y-126648475D01*
X71755000Y-126609048D01*
X70231000Y-126609048D01*
X70231000Y-125252016D01*
X70919404Y-125252016D01*
X71314366Y-125694548D01*
X72752902Y-126139461D01*
X74252197Y-126000004D01*
X74989634Y-125694548D01*
X75384596Y-125252016D01*
X75255074Y-125122494D01*
X75279118Y-125117711D01*
X75339526Y-124912791D01*
X74803000Y-124376264D01*
X74655922Y-124523342D01*
X74358502Y-124225922D01*
X74399838Y-124184586D01*
X74272994Y-124057742D01*
X74378736Y-123952000D01*
X73842209Y-123415474D01*
X73637289Y-123475882D01*
X73632610Y-123500030D01*
X73152000Y-123019420D01*
X72663922Y-123507498D01*
X72622586Y-123466162D01*
X72527039Y-123561709D01*
X72461791Y-123542474D01*
X71925264Y-124079000D01*
X71967506Y-124121242D01*
X71904162Y-124184586D01*
X71945498Y-124225922D01*
X71584578Y-124586842D01*
X71501000Y-124503264D01*
X70964474Y-125039791D01*
X71002531Y-125168889D01*
X70919404Y-125252016D01*
X70231000Y-125252016D01*
X70231000Y-124503580D01*
X70309436Y-124425144D01*
X70335289Y-124555118D01*
X70540209Y-124615526D01*
X71076736Y-124079000D01*
X70915516Y-123917780D01*
X71339780Y-123493516D01*
X71501000Y-123654736D01*
X72037526Y-123118209D01*
X71977118Y-122913289D01*
X71915838Y-122901414D01*
X71986838Y-122830414D01*
X71945502Y-122789078D01*
X72433580Y-122301000D01*
X71953074Y-121820494D01*
X71977118Y-121815711D01*
X72037526Y-121610791D01*
X71501000Y-121074264D01*
X71395258Y-121180006D01*
X71268414Y-121053162D01*
X71227078Y-121094498D01*
X70929658Y-120797078D01*
X71076736Y-120650000D01*
X70540209Y-120113474D01*
X70335289Y-120173882D01*
X70330610Y-120198030D01*
X70231000Y-120098420D01*
X70231000Y-73787000D01*
X89154000Y-73787000D01*
X89397004Y-73738664D01*
X89603013Y-73601013D01*
X89740664Y-73395004D01*
X89789000Y-73152000D01*
X89789000Y-67691000D01*
X92329000Y-67691000D01*
X92329000Y-74041000D01*
X92329000Y-74041000D01*
G37*
X92329000Y-74041000D02*
X92338667Y-74089601D01*
X92366197Y-74130803D01*
X92407399Y-74158333D01*
X92456000Y-74168000D01*
X93091000Y-74168000D01*
X93091000Y-75972896D01*
X90246948Y-78816948D01*
X90114803Y-79014716D01*
X90068400Y-79248000D01*
X90068400Y-82423000D01*
X90114803Y-82656284D01*
X90246948Y-82854052D01*
X92735400Y-85342505D01*
X92735400Y-89789000D01*
X92781803Y-90022284D01*
X92913948Y-90220052D01*
X93119887Y-90425992D01*
X93119873Y-90442163D01*
X93231231Y-90711669D01*
X93437247Y-90918045D01*
X93706558Y-91029872D01*
X93998163Y-91030127D01*
X94170591Y-90958881D01*
X94341558Y-91029872D01*
X94436521Y-91029955D01*
X94445683Y-91043667D01*
X94500993Y-91177526D01*
X94604220Y-91280933D01*
X94621382Y-91306618D01*
X94646843Y-91323631D01*
X94749168Y-91426134D01*
X94884108Y-91482166D01*
X94909794Y-91499329D01*
X94939828Y-91505303D01*
X95073590Y-91560846D01*
X95219704Y-91560974D01*
X95250000Y-91567000D01*
X95739802Y-91567000D01*
X96004194Y-91743662D01*
X96393000Y-91821000D01*
X106640160Y-91821000D01*
X107061000Y-92241841D01*
X107061000Y-93091000D01*
X107138338Y-93479806D01*
X107358580Y-93809420D01*
X107688194Y-94029662D01*
X108077000Y-94107000D01*
X108465806Y-94029662D01*
X108795420Y-93809420D01*
X109015662Y-93479806D01*
X109093000Y-93091000D01*
X109093000Y-91821000D01*
X109028194Y-91495197D01*
X109015662Y-91432193D01*
X108795421Y-91102580D01*
X108218440Y-90525600D01*
X109727304Y-90525600D01*
X109855000Y-90551000D01*
X110098004Y-90502664D01*
X110304013Y-90365013D01*
X110685013Y-89984013D01*
X110822664Y-89778005D01*
X110871000Y-89535000D01*
X110871000Y-85226026D01*
X110880026Y-85217000D01*
X112522000Y-85217000D01*
X112765004Y-85168664D01*
X112971013Y-85031013D01*
X113225013Y-84777013D01*
X113362664Y-84571004D01*
X113411000Y-84328000D01*
X113411000Y-80645000D01*
X113375667Y-80467365D01*
X113362664Y-80401995D01*
X113307339Y-80319197D01*
X113225013Y-80195987D01*
X113225010Y-80195985D01*
X110871000Y-77841974D01*
X110871000Y-76454005D01*
X110871001Y-76454000D01*
X110822664Y-76210996D01*
X110685013Y-76004987D01*
X110109000Y-75428974D01*
X110109000Y-74930000D01*
X110744000Y-74930000D01*
X110792601Y-74920333D01*
X110833803Y-74892803D01*
X110861333Y-74851601D01*
X110871000Y-74803000D01*
X110871000Y-74071016D01*
X114099404Y-74071016D01*
X114494366Y-74513548D01*
X115932902Y-74958461D01*
X117432197Y-74819004D01*
X118169634Y-74513548D01*
X118564596Y-74071016D01*
X118435074Y-73941494D01*
X118459118Y-73936711D01*
X118519526Y-73731791D01*
X117983000Y-73195264D01*
X117835922Y-73342342D01*
X117538502Y-73044922D01*
X117579838Y-73003586D01*
X117452994Y-72876742D01*
X117558736Y-72771000D01*
X117022209Y-72234474D01*
X116817289Y-72294882D01*
X116812610Y-72319030D01*
X116332000Y-71838420D01*
X115843922Y-72326498D01*
X115802586Y-72285162D01*
X115707039Y-72380709D01*
X115641791Y-72361474D01*
X115105264Y-72898000D01*
X115147506Y-72940242D01*
X115084162Y-73003586D01*
X115125498Y-73044922D01*
X114764578Y-73405842D01*
X114681000Y-73322264D01*
X114144474Y-73858791D01*
X114182531Y-73987889D01*
X114099404Y-74071016D01*
X110871000Y-74071016D01*
X110871000Y-70720902D01*
X112493539Y-70720902D01*
X112632996Y-72220197D01*
X112938452Y-72957634D01*
X113380984Y-73352596D01*
X113489436Y-73244144D01*
X113515289Y-73374118D01*
X113720209Y-73434526D01*
X114256736Y-72898000D01*
X114095516Y-72736780D01*
X114519780Y-72312516D01*
X114681000Y-72473736D01*
X115217526Y-71937209D01*
X115157118Y-71732289D01*
X115095838Y-71720414D01*
X115166838Y-71649414D01*
X115125502Y-71608078D01*
X115613580Y-71120000D01*
X115133074Y-70639494D01*
X115157118Y-70634711D01*
X115217526Y-70429791D01*
X114681000Y-69893264D01*
X114575258Y-69999006D01*
X114448414Y-69872162D01*
X114407078Y-69913498D01*
X114109658Y-69616078D01*
X114256736Y-69469000D01*
X113720209Y-68932474D01*
X113515289Y-68992882D01*
X113510610Y-69017030D01*
X113380984Y-68887404D01*
X112938452Y-69282366D01*
X112493539Y-70720902D01*
X110871000Y-70720902D01*
X110871000Y-67691000D01*
X114579955Y-67691000D01*
X114494366Y-67726452D01*
X114099404Y-68168984D01*
X114228926Y-68298506D01*
X114204882Y-68303289D01*
X114144474Y-68508209D01*
X114681000Y-69044736D01*
X114828078Y-68897658D01*
X115125498Y-69195078D01*
X115084162Y-69236414D01*
X115211006Y-69363258D01*
X115105264Y-69469000D01*
X115641791Y-70005526D01*
X115846711Y-69945118D01*
X115851390Y-69920970D01*
X116332000Y-70401580D01*
X116812506Y-69921074D01*
X116817289Y-69945118D01*
X117022209Y-70005526D01*
X117558736Y-69469000D01*
X117452994Y-69363258D01*
X117579838Y-69236414D01*
X117538502Y-69195078D01*
X117835922Y-68897658D01*
X117983000Y-69044736D01*
X118519526Y-68508209D01*
X118459118Y-68303289D01*
X118434970Y-68298610D01*
X118564596Y-68168984D01*
X118169634Y-67726452D01*
X118055007Y-67691000D01*
X119761000Y-67691000D01*
X119761000Y-69367955D01*
X119725548Y-69282366D01*
X119283016Y-68887404D01*
X119153494Y-69016926D01*
X119148711Y-68992882D01*
X118943791Y-68932474D01*
X118407264Y-69469000D01*
X118554342Y-69616078D01*
X118256922Y-69913498D01*
X118215586Y-69872162D01*
X118088742Y-69999006D01*
X117983000Y-69893264D01*
X117446474Y-70429791D01*
X117506882Y-70634711D01*
X117531030Y-70639390D01*
X117050420Y-71120000D01*
X117530926Y-71600506D01*
X117506882Y-71605289D01*
X117446474Y-71810209D01*
X117983000Y-72346736D01*
X118088742Y-72240994D01*
X118215586Y-72367838D01*
X118256922Y-72326502D01*
X118554342Y-72623922D01*
X118407264Y-72771000D01*
X118943791Y-73307526D01*
X119148711Y-73247118D01*
X119153390Y-73222970D01*
X119283016Y-73352596D01*
X119725548Y-72957634D01*
X119761000Y-72843007D01*
X119761000Y-88392000D01*
X119380000Y-88392000D01*
X119136996Y-88440336D01*
X118930987Y-88577987D01*
X118793336Y-88783996D01*
X118745000Y-89027000D01*
X118745000Y-91141998D01*
X118636759Y-91141998D01*
X118581956Y-91061675D01*
X118275749Y-90698917D01*
X117854029Y-90480953D01*
X117667000Y-90601373D01*
X117667000Y-91350000D01*
X117745000Y-91350000D01*
X117745000Y-91950000D01*
X117667000Y-91950000D01*
X117667000Y-92698627D01*
X117854029Y-92819047D01*
X118275749Y-92601083D01*
X118581956Y-92238325D01*
X118636759Y-92158002D01*
X118745000Y-92158002D01*
X118745000Y-98341998D01*
X118636759Y-98341998D01*
X118581956Y-98261675D01*
X118275749Y-97898917D01*
X117854029Y-97680953D01*
X117667000Y-97801373D01*
X117667000Y-98550000D01*
X117745000Y-98550000D01*
X117745000Y-99150000D01*
X117667000Y-99150000D01*
X117667000Y-99898627D01*
X117854029Y-100019047D01*
X118275749Y-99801083D01*
X118581956Y-99438325D01*
X118636759Y-99358002D01*
X118745000Y-99358002D01*
X118745000Y-101473000D01*
X118793336Y-101716004D01*
X118930987Y-101922013D01*
X119136996Y-102059664D01*
X119380000Y-102108000D01*
X119761000Y-102108000D01*
X119761000Y-110490000D01*
X119664327Y-110003992D01*
X119389026Y-109591974D01*
X119389023Y-109591972D01*
X115833026Y-106035974D01*
X115697000Y-105945085D01*
X115697000Y-105029000D01*
X115619662Y-104640194D01*
X115399420Y-104310580D01*
X115069806Y-104090338D01*
X114681000Y-104013000D01*
X114427000Y-104063524D01*
X114427000Y-101355026D01*
X116077091Y-99704935D01*
X116158251Y-99801083D01*
X116579971Y-100019047D01*
X116767000Y-99898627D01*
X116767000Y-99150000D01*
X116689000Y-99150000D01*
X116689000Y-98550000D01*
X116767000Y-98550000D01*
X116767000Y-97801373D01*
X116579971Y-97680953D01*
X116459000Y-97743476D01*
X116459000Y-92756524D01*
X116579971Y-92819047D01*
X116767000Y-92698627D01*
X116767000Y-91950000D01*
X116689000Y-91950000D01*
X116689000Y-91350000D01*
X116767000Y-91350000D01*
X116767000Y-90601373D01*
X116579971Y-90480953D01*
X116459000Y-90543476D01*
X116459000Y-85726145D01*
X116556872Y-85490442D01*
X116557127Y-85198837D01*
X116445769Y-84929331D01*
X116365033Y-84848454D01*
X116387197Y-84815284D01*
X116433600Y-84582000D01*
X116433600Y-81326178D01*
X116445045Y-81314753D01*
X116556872Y-81045442D01*
X116557127Y-80753837D01*
X116445769Y-80484331D01*
X116239753Y-80277955D01*
X115970442Y-80166128D01*
X115678837Y-80165873D01*
X115409331Y-80277231D01*
X115202955Y-80483247D01*
X115091128Y-80752558D01*
X115090873Y-81044163D01*
X115202231Y-81313669D01*
X115214400Y-81325859D01*
X115214400Y-84329495D01*
X114884949Y-84658947D01*
X114884948Y-84658948D01*
X114752803Y-84856716D01*
X114706400Y-85090000D01*
X114706400Y-87758496D01*
X109804948Y-92659948D01*
X109672803Y-92857716D01*
X109626400Y-93091000D01*
X109626400Y-103760496D01*
X107518948Y-105867948D01*
X107386803Y-106065716D01*
X107340400Y-106299000D01*
X107340400Y-107395822D01*
X107328955Y-107407247D01*
X107217128Y-107676558D01*
X107216873Y-107968163D01*
X107328231Y-108237669D01*
X107534247Y-108444045D01*
X107803558Y-108555872D01*
X108095163Y-108556127D01*
X108331000Y-108458681D01*
X108331000Y-118744995D01*
X108330999Y-118745000D01*
X108427673Y-119231008D01*
X108702974Y-119643026D01*
X109855000Y-120795051D01*
X109855000Y-124205995D01*
X109854999Y-124206000D01*
X109951673Y-124692008D01*
X110226974Y-125104026D01*
X110988975Y-125866026D01*
X111400992Y-126141327D01*
X111498194Y-126160662D01*
X111539986Y-126168975D01*
X111887000Y-126238001D01*
X111887005Y-126238000D01*
X113030000Y-126238000D01*
X113418806Y-126160662D01*
X113748420Y-125940420D01*
X113968662Y-125610806D01*
X114046000Y-125222000D01*
X113968662Y-124833194D01*
X113748420Y-124503580D01*
X113418806Y-124283338D01*
X113030000Y-124206000D01*
X112875915Y-124206000D01*
X112785026Y-124069975D01*
X112395000Y-123679948D01*
X112395000Y-120269000D01*
X112298327Y-119782992D01*
X112023026Y-119370974D01*
X112023023Y-119370972D01*
X111495153Y-118843102D01*
X111524163Y-118843127D01*
X111793669Y-118731769D01*
X112000045Y-118525753D01*
X112111872Y-118256442D01*
X112112127Y-117964837D01*
X112000769Y-117695331D01*
X111988600Y-117683141D01*
X111988600Y-99333716D01*
X112310671Y-99333716D01*
X112382044Y-99438325D01*
X112688251Y-99801083D01*
X113109971Y-100019047D01*
X113297000Y-99898627D01*
X113297000Y-99150000D01*
X112413407Y-99150000D01*
X112310671Y-99333716D01*
X111988600Y-99333716D01*
X111988600Y-98366284D01*
X112310671Y-98366284D01*
X112413407Y-98550000D01*
X113297000Y-98550000D01*
X113297000Y-97801373D01*
X113109971Y-97680953D01*
X112688251Y-97898917D01*
X112382044Y-98261675D01*
X112310671Y-98366284D01*
X111988600Y-98366284D01*
X111988600Y-96238905D01*
X112069197Y-96118284D01*
X112070129Y-96113599D01*
X112115600Y-95885000D01*
X112115600Y-95677178D01*
X112127045Y-95665753D01*
X112238872Y-95396442D01*
X112239127Y-95104837D01*
X112127769Y-94835331D01*
X111921753Y-94628955D01*
X111652442Y-94517128D01*
X111360837Y-94516873D01*
X111091331Y-94628231D01*
X110884955Y-94834247D01*
X110858533Y-94897878D01*
X110852837Y-94897873D01*
X110845600Y-94900863D01*
X110845600Y-93343504D01*
X112212000Y-91977104D01*
X112212000Y-92158002D01*
X112327241Y-92158002D01*
X112382044Y-92238325D01*
X112688251Y-92601083D01*
X113109971Y-92819047D01*
X113297000Y-92698627D01*
X113297000Y-91950000D01*
X113219000Y-91950000D01*
X113219000Y-91350000D01*
X113297000Y-91350000D01*
X113297000Y-91122000D01*
X114197000Y-91122000D01*
X114197000Y-91350000D01*
X114275000Y-91350000D01*
X114275000Y-91950000D01*
X114197000Y-91950000D01*
X114197000Y-92698627D01*
X114373794Y-92812457D01*
X114259140Y-93088574D01*
X114258860Y-93410016D01*
X114381611Y-93707097D01*
X114608707Y-93934590D01*
X114905574Y-94057860D01*
X115189000Y-94058107D01*
X115189000Y-96442106D01*
X114906984Y-96441860D01*
X114609903Y-96564611D01*
X114382410Y-96791707D01*
X114259140Y-97088574D01*
X114258860Y-97410016D01*
X114373587Y-97687676D01*
X114197000Y-97801373D01*
X114197000Y-98550000D01*
X114275000Y-98550000D01*
X114275000Y-99150000D01*
X114197000Y-99150000D01*
X114197000Y-99788974D01*
X113342987Y-100642987D01*
X113205336Y-100848996D01*
X113157000Y-101092000D01*
X113157000Y-107569000D01*
X113205336Y-107812004D01*
X113342987Y-108018013D01*
X116078000Y-110753026D01*
X116078000Y-110869855D01*
X115980128Y-111105558D01*
X115979873Y-111397163D01*
X116091231Y-111666669D01*
X116297247Y-111873045D01*
X116566558Y-111984872D01*
X116583783Y-111984887D01*
X116738400Y-112139505D01*
X116738400Y-119127495D01*
X116460496Y-119405400D01*
X115997178Y-119405400D01*
X115985753Y-119393955D01*
X115716442Y-119282128D01*
X115424837Y-119281873D01*
X115155331Y-119393231D01*
X114948955Y-119599247D01*
X114837128Y-119868558D01*
X114836873Y-120160163D01*
X114948231Y-120429669D01*
X115154247Y-120636045D01*
X115423558Y-120747872D01*
X115715163Y-120748127D01*
X115984669Y-120636769D01*
X115996859Y-120624600D01*
X116713000Y-120624600D01*
X116946284Y-120578197D01*
X117144052Y-120446052D01*
X117221000Y-120369104D01*
X117221000Y-126662577D01*
X117177396Y-126706181D01*
X117101559Y-126550166D01*
X116501364Y-126464450D01*
X116070441Y-126550166D01*
X115965230Y-126766612D01*
X116586000Y-127387382D01*
X116645044Y-127328339D01*
X117273662Y-127956957D01*
X117214618Y-128016000D01*
X117273662Y-128075044D01*
X116697705Y-128651000D01*
X116592382Y-128651000D01*
X116586000Y-128644618D01*
X116579618Y-128651000D01*
X116474295Y-128651000D01*
X115898339Y-128075044D01*
X115957382Y-128016000D01*
X115336612Y-127395230D01*
X115307006Y-127409621D01*
X115231010Y-127225697D01*
X114838370Y-126832371D01*
X114325100Y-126619243D01*
X113769339Y-126618758D01*
X113255697Y-126830990D01*
X112862371Y-127223630D01*
X112776051Y-127431512D01*
X112691010Y-127225697D01*
X112298370Y-126832371D01*
X111785100Y-126619243D01*
X111229339Y-126618758D01*
X110715697Y-126830990D01*
X110322371Y-127223630D01*
X110236051Y-127431512D01*
X110151010Y-127225697D01*
X109758370Y-126832371D01*
X109245100Y-126619243D01*
X109005874Y-126619034D01*
X108795420Y-126408580D01*
X108465807Y-126188338D01*
X108077000Y-126111001D01*
X107948638Y-126136533D01*
X107873052Y-126060948D01*
X107675284Y-125928803D01*
X107442000Y-125882400D01*
X104138504Y-125882400D01*
X96062052Y-117805948D01*
X95864284Y-117673803D01*
X95631000Y-117627400D01*
X93978504Y-117627400D01*
X93319600Y-116968496D01*
X93319600Y-109218504D01*
X94030052Y-108508052D01*
X94162197Y-108310284D01*
X94208600Y-108077000D01*
X94208600Y-103352600D01*
X94488000Y-103352600D01*
X94721284Y-103306197D01*
X94919052Y-103174052D01*
X94932500Y-103160604D01*
X94945948Y-103174052D01*
X95143716Y-103306197D01*
X95377000Y-103352600D01*
X95758000Y-103352600D01*
X95991284Y-103306197D01*
X96189052Y-103174052D01*
X96316052Y-103047052D01*
X96369958Y-102966377D01*
X96373558Y-102967872D01*
X96665163Y-102968127D01*
X96934669Y-102856769D01*
X97141045Y-102650753D01*
X97252872Y-102381442D01*
X97253022Y-102209600D01*
X97270824Y-102209600D01*
X97295231Y-102268669D01*
X97501247Y-102475045D01*
X97770558Y-102586872D01*
X98062163Y-102587127D01*
X98331669Y-102475769D01*
X98343859Y-102463600D01*
X99758349Y-102463600D01*
X99835231Y-102649669D01*
X100041247Y-102856045D01*
X100310558Y-102967872D01*
X100602163Y-102968127D01*
X100871669Y-102856769D01*
X101078045Y-102650753D01*
X101160835Y-102451370D01*
X101311247Y-102602045D01*
X101580558Y-102713872D01*
X101872163Y-102714127D01*
X102141669Y-102602769D01*
X102348045Y-102396753D01*
X102459872Y-102127442D01*
X102460127Y-101835837D01*
X102348769Y-101566331D01*
X102336600Y-101554141D01*
X102336600Y-101473000D01*
X102290197Y-101239716D01*
X102210959Y-101121128D01*
X102158053Y-101041948D01*
X101523052Y-100406948D01*
X101325284Y-100274803D01*
X101092000Y-100228400D01*
X97280504Y-100228400D01*
X95732600Y-98680496D01*
X95732600Y-97663000D01*
X95686197Y-97429716D01*
X95684491Y-97427163D01*
X95570525Y-97256600D01*
X98298000Y-97256600D01*
X98531284Y-97210197D01*
X98729052Y-97078052D01*
X99110052Y-96697053D01*
X99242197Y-96499284D01*
X99253382Y-96443052D01*
X99288600Y-96266000D01*
X99288600Y-95605600D01*
X102871496Y-95605600D01*
X103022400Y-95756505D01*
X103022400Y-96013496D01*
X102438948Y-96596948D01*
X102306803Y-96794716D01*
X102260400Y-97028000D01*
X102260400Y-99187000D01*
X102306803Y-99420284D01*
X102438948Y-99618052D01*
X102644887Y-99823992D01*
X102644873Y-99840163D01*
X102756231Y-100109669D01*
X102962247Y-100316045D01*
X103231558Y-100427872D01*
X103523163Y-100428127D01*
X103792669Y-100316769D01*
X103999045Y-100110753D01*
X104110872Y-99841442D01*
X104111127Y-99549837D01*
X103999769Y-99280331D01*
X103793753Y-99073955D01*
X103524442Y-98962128D01*
X103507217Y-98962113D01*
X103479600Y-98934496D01*
X103479600Y-97887978D01*
X103650163Y-97888127D01*
X103919669Y-97776769D01*
X104126045Y-97570753D01*
X104237872Y-97301442D01*
X104237887Y-97284218D01*
X104444052Y-97078053D01*
X104537602Y-96938046D01*
X104740247Y-97141045D01*
X104942848Y-97225172D01*
X104942848Y-98463100D01*
X104982275Y-98661312D01*
X105029000Y-98731241D01*
X105029000Y-98806000D01*
X105057873Y-98951154D01*
X105057873Y-98951163D01*
X105057876Y-98951171D01*
X105087004Y-99097605D01*
X105169228Y-99220661D01*
X105169231Y-99220669D01*
X105169237Y-99220675D01*
X105252185Y-99344815D01*
X105375240Y-99427038D01*
X105375247Y-99427045D01*
X105375256Y-99427049D01*
X105499395Y-99509996D01*
X105644552Y-99538870D01*
X105644558Y-99538872D01*
X105644564Y-99538872D01*
X105791000Y-99568000D01*
X105936154Y-99539127D01*
X105936163Y-99539127D01*
X105936171Y-99539124D01*
X106082605Y-99509996D01*
X106205661Y-99427772D01*
X106205669Y-99427769D01*
X106205675Y-99427763D01*
X106329815Y-99344815D01*
X106412038Y-99221760D01*
X106412045Y-99221753D01*
X106412049Y-99221744D01*
X106494996Y-99097605D01*
X106518180Y-98981052D01*
X106604727Y-98981052D01*
X106625102Y-99001427D01*
X106858491Y-99098100D01*
X107118150Y-99098100D01*
X107276900Y-98939350D01*
X107276900Y-98063050D01*
X107861100Y-98063050D01*
X107861100Y-98939350D01*
X108019850Y-99098100D01*
X108279509Y-99098100D01*
X108512898Y-99001427D01*
X108691527Y-98822799D01*
X108788200Y-98589410D01*
X108788200Y-98221800D01*
X108629450Y-98063050D01*
X107861100Y-98063050D01*
X107276900Y-98063050D01*
X107147152Y-98063050D01*
X107147152Y-97262950D01*
X107276900Y-97262950D01*
X107276900Y-96386650D01*
X107861100Y-96386650D01*
X107861100Y-97262950D01*
X108629450Y-97262950D01*
X108788200Y-97104200D01*
X108788200Y-96736590D01*
X108691527Y-96503201D01*
X108512898Y-96324573D01*
X108279509Y-96227900D01*
X108019850Y-96227900D01*
X107861100Y-96386650D01*
X107276900Y-96386650D01*
X107118150Y-96227900D01*
X106858491Y-96227900D01*
X106625102Y-96324573D01*
X106604727Y-96344948D01*
X105876777Y-96344948D01*
X105777769Y-96105331D01*
X105638600Y-95965919D01*
X105638600Y-94996000D01*
X105592197Y-94762716D01*
X105460052Y-94564948D01*
X104317052Y-93421948D01*
X104119284Y-93289803D01*
X103886000Y-93243400D01*
X94105505Y-93243400D01*
X88874600Y-88012496D01*
X88874600Y-87757000D01*
X88828197Y-87523716D01*
X88696052Y-87325948D01*
X86791052Y-85420948D01*
X86593284Y-85288803D01*
X86360000Y-85242400D01*
X84755178Y-85242400D01*
X84743753Y-85230955D01*
X84474442Y-85119128D01*
X84182837Y-85118873D01*
X83913331Y-85230231D01*
X83706955Y-85436247D01*
X83595128Y-85705558D01*
X83594951Y-85907847D01*
X83108052Y-85420948D01*
X82910284Y-85288803D01*
X82759614Y-85258833D01*
X82643200Y-85142419D01*
X82543219Y-85242400D01*
X82456095Y-85242400D01*
X82040038Y-84826343D01*
X82183581Y-84682800D01*
X83102819Y-84682800D01*
X83654084Y-85234065D01*
X83861056Y-85165902D01*
X83953228Y-84663075D01*
X83861056Y-84199698D01*
X83654084Y-84131535D01*
X83102819Y-84682800D01*
X82183581Y-84682800D01*
X81632316Y-84131535D01*
X81462100Y-84187593D01*
X81291884Y-84131535D01*
X80740619Y-84682800D01*
X80884162Y-84826343D01*
X80468105Y-85242400D01*
X80380981Y-85242400D01*
X80281000Y-85142419D01*
X80181019Y-85242400D01*
X80093895Y-85242400D01*
X79677838Y-84826343D01*
X79821381Y-84682800D01*
X79270116Y-84131535D01*
X79125300Y-84179228D01*
X78980484Y-84131535D01*
X78429219Y-84682800D01*
X78572762Y-84826343D01*
X78156705Y-85242400D01*
X78069581Y-85242400D01*
X77969600Y-85142419D01*
X77869619Y-85242400D01*
X77782495Y-85242400D01*
X77366438Y-84826343D01*
X77509981Y-84682800D01*
X76958716Y-84131535D01*
X76751744Y-84199698D01*
X76659572Y-84702525D01*
X76751744Y-85165902D01*
X76764029Y-85169948D01*
X76691577Y-85242400D01*
X74112286Y-85242400D01*
X74142600Y-85090000D01*
X74142600Y-84455000D01*
X74096197Y-84221716D01*
X74073514Y-84187769D01*
X73964052Y-84023947D01*
X73634600Y-83694496D01*
X73634600Y-83229884D01*
X77418335Y-83229884D01*
X77486498Y-83436856D01*
X77559984Y-83450327D01*
X77486498Y-83464944D01*
X77418335Y-83671916D01*
X77969600Y-84223181D01*
X78487018Y-83705763D01*
X79628344Y-83705763D01*
X79750764Y-83926458D01*
X80018566Y-83960747D01*
X80281000Y-84223181D01*
X80519741Y-83984440D01*
X80811236Y-83926458D01*
X80933656Y-83705763D01*
X80799097Y-83571204D01*
X80764102Y-83464944D01*
X80676841Y-83448948D01*
X80457777Y-83229884D01*
X82091935Y-83229884D01*
X82160098Y-83436856D01*
X82233584Y-83450327D01*
X82160098Y-83464944D01*
X82091935Y-83671916D01*
X82643200Y-84223181D01*
X83194465Y-83671916D01*
X83126302Y-83464944D01*
X83052816Y-83451473D01*
X83126302Y-83436856D01*
X83194465Y-83229884D01*
X82643200Y-82678619D01*
X82091935Y-83229884D01*
X80457777Y-83229884D01*
X80281000Y-83053107D01*
X79886858Y-83447249D01*
X79797898Y-83464944D01*
X79762903Y-83571204D01*
X79628344Y-83705763D01*
X78487018Y-83705763D01*
X78520865Y-83671916D01*
X78452702Y-83464944D01*
X78379216Y-83451473D01*
X78452702Y-83436856D01*
X78520865Y-83229884D01*
X77969600Y-82678619D01*
X77418335Y-83229884D01*
X73634600Y-83229884D01*
X73634600Y-82804000D01*
X73588197Y-82570716D01*
X73539205Y-82497394D01*
X73456052Y-82372947D01*
X73321830Y-82238725D01*
X76659572Y-82238725D01*
X76751744Y-82702102D01*
X76958716Y-82770265D01*
X77509981Y-82219000D01*
X78429219Y-82219000D01*
X78623976Y-82413757D01*
X78617935Y-82460941D01*
X78700542Y-82876236D01*
X78921237Y-82998656D01*
X79573893Y-82346000D01*
X80988107Y-82346000D01*
X81640763Y-82998656D01*
X81861458Y-82876236D01*
X81910666Y-82491915D01*
X82183581Y-82219000D01*
X83102819Y-82219000D01*
X83654084Y-82770265D01*
X83861056Y-82702102D01*
X83953228Y-82199275D01*
X83861056Y-81735898D01*
X83654084Y-81667735D01*
X83102819Y-82219000D01*
X82183581Y-82219000D01*
X81881598Y-81917017D01*
X81861458Y-81815764D01*
X81679303Y-81714722D01*
X81632316Y-81667735D01*
X81425344Y-81735898D01*
X81386544Y-81947563D01*
X80988107Y-82346000D01*
X79573893Y-82346000D01*
X79242993Y-82015100D01*
X79187456Y-81735898D01*
X78980484Y-81667735D01*
X78938056Y-81710163D01*
X78921237Y-81693344D01*
X78700542Y-81815764D01*
X78681172Y-81967047D01*
X78429219Y-82219000D01*
X77509981Y-82219000D01*
X76958716Y-81667735D01*
X76751744Y-81735898D01*
X76659572Y-82238725D01*
X73321830Y-82238725D01*
X73250113Y-82167008D01*
X73250127Y-82150837D01*
X73138769Y-81881331D01*
X72932753Y-81674955D01*
X72899396Y-81661104D01*
X72931669Y-81647769D01*
X73138045Y-81441753D01*
X73249872Y-81172442D01*
X73250027Y-80994684D01*
X77418335Y-80994684D01*
X77453480Y-81101400D01*
X77418335Y-81208116D01*
X77969600Y-81759381D01*
X78520865Y-81208116D01*
X78485720Y-81101400D01*
X78520865Y-80994684D01*
X78512418Y-80986237D01*
X79628344Y-80986237D01*
X79775376Y-81133269D01*
X79797898Y-81201656D01*
X79854057Y-81211950D01*
X80281000Y-81638893D01*
X80706848Y-81213045D01*
X80764102Y-81201656D01*
X80786624Y-81133269D01*
X80925209Y-80994684D01*
X82091935Y-80994684D01*
X82127080Y-81101400D01*
X82091935Y-81208116D01*
X82643200Y-81759381D01*
X83194465Y-81208116D01*
X83159320Y-81101400D01*
X83194465Y-80994684D01*
X82643200Y-80443419D01*
X82091935Y-80994684D01*
X80925209Y-80994684D01*
X80933656Y-80986237D01*
X80811236Y-80765542D01*
X80572564Y-80734983D01*
X80281000Y-80443419D01*
X80010552Y-80713867D01*
X79750764Y-80765542D01*
X79628344Y-80986237D01*
X78512418Y-80986237D01*
X77969600Y-80443419D01*
X77418335Y-80994684D01*
X73250027Y-80994684D01*
X73250127Y-80880837D01*
X73138769Y-80611331D01*
X72932753Y-80404955D01*
X72746093Y-80327448D01*
X72931669Y-80250769D01*
X73138045Y-80044753D01*
X73155164Y-80003525D01*
X76659572Y-80003525D01*
X76751744Y-80466902D01*
X76958716Y-80535065D01*
X77509981Y-79983800D01*
X78429219Y-79983800D01*
X78980484Y-80535065D01*
X79125300Y-80487372D01*
X79270116Y-80535065D01*
X79821381Y-79983800D01*
X80740619Y-79983800D01*
X81291884Y-80535065D01*
X81462100Y-80479007D01*
X81632316Y-80535065D01*
X82183581Y-79983800D01*
X83102819Y-79983800D01*
X83654084Y-80535065D01*
X83861056Y-80466902D01*
X83953228Y-79964075D01*
X83861056Y-79500698D01*
X83654084Y-79432535D01*
X83102819Y-79983800D01*
X82183581Y-79983800D01*
X81632316Y-79432535D01*
X81462100Y-79488593D01*
X81291884Y-79432535D01*
X80740619Y-79983800D01*
X79821381Y-79983800D01*
X79270116Y-79432535D01*
X79125300Y-79480228D01*
X78980484Y-79432535D01*
X78429219Y-79983800D01*
X77509981Y-79983800D01*
X76958716Y-79432535D01*
X76751744Y-79500698D01*
X76659572Y-80003525D01*
X73155164Y-80003525D01*
X73249872Y-79775442D01*
X73250127Y-79483837D01*
X73138769Y-79214331D01*
X72982119Y-79057407D01*
X73066757Y-78972916D01*
X77418335Y-78972916D01*
X77969600Y-79524181D01*
X78520865Y-78972916D01*
X79729735Y-78972916D01*
X80281000Y-79524181D01*
X80832265Y-78972916D01*
X82091935Y-78972916D01*
X82643200Y-79524181D01*
X83194465Y-78972916D01*
X83126302Y-78765944D01*
X82623475Y-78673772D01*
X82160098Y-78765944D01*
X82091935Y-78972916D01*
X80832265Y-78972916D01*
X80764102Y-78765944D01*
X80261275Y-78673772D01*
X79797898Y-78765944D01*
X79729735Y-78972916D01*
X78520865Y-78972916D01*
X78452702Y-78765944D01*
X77949875Y-78673772D01*
X77486498Y-78765944D01*
X77418335Y-78972916D01*
X73066757Y-78972916D01*
X73138045Y-78901753D01*
X73249872Y-78632442D01*
X73250127Y-78340837D01*
X73138769Y-78071331D01*
X72932753Y-77864955D01*
X72899396Y-77851104D01*
X72931669Y-77837769D01*
X73138045Y-77631753D01*
X73249872Y-77362442D01*
X73250127Y-77070837D01*
X73138769Y-76801331D01*
X72932753Y-76594955D01*
X72663442Y-76483128D01*
X72371837Y-76482873D01*
X72102331Y-76594231D01*
X71895955Y-76800247D01*
X71784128Y-77069558D01*
X71784113Y-77086782D01*
X70434948Y-78435948D01*
X70302803Y-78633716D01*
X70256400Y-78867000D01*
X70256400Y-99568000D01*
X70302803Y-99801284D01*
X70434948Y-99999052D01*
X70764400Y-100328505D01*
X70764400Y-103712822D01*
X70752955Y-103724247D01*
X70641128Y-103993558D01*
X70640873Y-104285163D01*
X70752231Y-104554669D01*
X70764400Y-104566859D01*
X70764400Y-116078000D01*
X70810803Y-116311284D01*
X70942948Y-116509052D01*
X72952147Y-118518251D01*
X72051803Y-118601996D01*
X71314366Y-118907452D01*
X70919404Y-119349984D01*
X71048926Y-119479506D01*
X71024882Y-119484289D01*
X70964474Y-119689209D01*
X71501000Y-120225736D01*
X71648078Y-120078658D01*
X71945498Y-120376078D01*
X71904162Y-120417414D01*
X72031006Y-120544258D01*
X71925264Y-120650000D01*
X72461791Y-121186526D01*
X72666711Y-121126118D01*
X72671390Y-121101970D01*
X73152000Y-121582580D01*
X73166143Y-121568438D01*
X73884563Y-122286858D01*
X73870420Y-122301000D01*
X74350926Y-122781506D01*
X74326882Y-122786289D01*
X74266474Y-122991209D01*
X74803000Y-123527736D01*
X74908742Y-123421994D01*
X75035586Y-123548838D01*
X75076922Y-123507502D01*
X75374342Y-123804922D01*
X75227264Y-123952000D01*
X75763791Y-124488526D01*
X75968711Y-124428118D01*
X75973390Y-124403970D01*
X76103016Y-124533596D01*
X76545548Y-124138634D01*
X76990461Y-122700098D01*
X76851004Y-121200803D01*
X76633432Y-120675537D01*
X77114400Y-121156505D01*
X77114400Y-124588496D01*
X76074363Y-125628533D01*
X75946000Y-125603000D01*
X75557194Y-125680338D01*
X75227580Y-125900580D01*
X75007338Y-126230194D01*
X74930000Y-126619000D01*
X74930000Y-127056293D01*
X74762371Y-127223630D01*
X74685116Y-127409680D01*
X74655388Y-127395230D01*
X74034618Y-128016000D01*
X74093662Y-128075044D01*
X73517705Y-128651000D01*
X73412382Y-128651000D01*
X73406000Y-128644618D01*
X73399618Y-128651000D01*
X73294295Y-128651000D01*
X72718339Y-128075044D01*
X72777382Y-128016000D01*
X72272952Y-127511570D01*
X72272952Y-127127000D01*
X72233525Y-126928788D01*
X72125162Y-126766612D01*
X72785230Y-126766612D01*
X73406000Y-127387382D01*
X74026770Y-126766612D01*
X73921559Y-126550166D01*
X73321364Y-126464450D01*
X72890441Y-126550166D01*
X72785230Y-126766612D01*
X72125162Y-126766612D01*
X72121247Y-126760753D01*
X71953212Y-126648475D01*
X71755000Y-126609048D01*
X70231000Y-126609048D01*
X70231000Y-125252016D01*
X70919404Y-125252016D01*
X71314366Y-125694548D01*
X72752902Y-126139461D01*
X74252197Y-126000004D01*
X74989634Y-125694548D01*
X75384596Y-125252016D01*
X75255074Y-125122494D01*
X75279118Y-125117711D01*
X75339526Y-124912791D01*
X74803000Y-124376264D01*
X74655922Y-124523342D01*
X74358502Y-124225922D01*
X74399838Y-124184586D01*
X74272994Y-124057742D01*
X74378736Y-123952000D01*
X73842209Y-123415474D01*
X73637289Y-123475882D01*
X73632610Y-123500030D01*
X73152000Y-123019420D01*
X72663922Y-123507498D01*
X72622586Y-123466162D01*
X72527039Y-123561709D01*
X72461791Y-123542474D01*
X71925264Y-124079000D01*
X71967506Y-124121242D01*
X71904162Y-124184586D01*
X71945498Y-124225922D01*
X71584578Y-124586842D01*
X71501000Y-124503264D01*
X70964474Y-125039791D01*
X71002531Y-125168889D01*
X70919404Y-125252016D01*
X70231000Y-125252016D01*
X70231000Y-124503580D01*
X70309436Y-124425144D01*
X70335289Y-124555118D01*
X70540209Y-124615526D01*
X71076736Y-124079000D01*
X70915516Y-123917780D01*
X71339780Y-123493516D01*
X71501000Y-123654736D01*
X72037526Y-123118209D01*
X71977118Y-122913289D01*
X71915838Y-122901414D01*
X71986838Y-122830414D01*
X71945502Y-122789078D01*
X72433580Y-122301000D01*
X71953074Y-121820494D01*
X71977118Y-121815711D01*
X72037526Y-121610791D01*
X71501000Y-121074264D01*
X71395258Y-121180006D01*
X71268414Y-121053162D01*
X71227078Y-121094498D01*
X70929658Y-120797078D01*
X71076736Y-120650000D01*
X70540209Y-120113474D01*
X70335289Y-120173882D01*
X70330610Y-120198030D01*
X70231000Y-120098420D01*
X70231000Y-73787000D01*
X89154000Y-73787000D01*
X89397004Y-73738664D01*
X89603013Y-73601013D01*
X89740664Y-73395004D01*
X89789000Y-73152000D01*
X89789000Y-67691000D01*
X92329000Y-67691000D01*
X92329000Y-74041000D01*
G36*
X91846400Y-99947504D02*
X91846400Y-106554496D01*
X91008948Y-107391948D01*
X90876803Y-107589716D01*
X90830400Y-107823000D01*
X90830400Y-113746044D01*
X90691955Y-113884247D01*
X90580128Y-114153558D01*
X90579873Y-114445163D01*
X90691231Y-114714669D01*
X90897247Y-114921045D01*
X91166558Y-115032872D01*
X91338400Y-115033022D01*
X91338400Y-117729000D01*
X91384803Y-117962284D01*
X91516948Y-118160052D01*
X92786948Y-119430052D01*
X92984716Y-119562197D01*
X93218000Y-119608600D01*
X94616496Y-119608600D01*
X100736400Y-125728504D01*
X100736400Y-126208868D01*
X100627580Y-126281580D01*
X100407338Y-126611194D01*
X100330000Y-127000000D01*
X100330000Y-127056293D01*
X100162371Y-127223630D01*
X100076051Y-127431512D01*
X99991010Y-127225697D01*
X99822000Y-127056392D01*
X99822000Y-126873000D01*
X99744662Y-126484194D01*
X99524420Y-126154580D01*
X99194806Y-125934338D01*
X98806000Y-125857000D01*
X98677637Y-125882533D01*
X98348052Y-125552948D01*
X98150284Y-125420803D01*
X97917000Y-125374400D01*
X96264504Y-125374400D01*
X94538052Y-123647948D01*
X94340284Y-123515803D01*
X94107000Y-123469400D01*
X88009504Y-123469400D01*
X87223600Y-122683496D01*
X87223600Y-122036929D01*
X87483558Y-122144872D01*
X87775163Y-122145127D01*
X88044669Y-122033769D01*
X88251045Y-121827753D01*
X88362872Y-121558442D01*
X88363127Y-121266837D01*
X88251769Y-120997331D01*
X88045753Y-120790955D01*
X87858600Y-120713243D01*
X87858600Y-119835704D01*
X89563887Y-121540992D01*
X89563873Y-121557163D01*
X89675231Y-121826669D01*
X89881247Y-122033045D01*
X90150558Y-122144872D01*
X90442163Y-122145127D01*
X90711669Y-122033769D01*
X90918045Y-121827753D01*
X90995171Y-121642012D01*
X92499579Y-123146420D01*
X92672244Y-123261791D01*
X92829194Y-123366662D01*
X93218000Y-123444000D01*
X95250000Y-123444000D01*
X95638806Y-123366662D01*
X95968420Y-123146420D01*
X96188662Y-122816806D01*
X96266000Y-122428000D01*
X96188662Y-122039194D01*
X95968420Y-121709580D01*
X95638806Y-121489338D01*
X95250000Y-121412000D01*
X93638841Y-121412000D01*
X89789000Y-117562160D01*
X89789000Y-106553000D01*
X89711662Y-106164194D01*
X89660376Y-106087440D01*
X89839052Y-105968052D01*
X90171992Y-105635113D01*
X90188163Y-105635127D01*
X90457669Y-105523769D01*
X90664045Y-105317753D01*
X90775872Y-105048442D01*
X90776127Y-104756837D01*
X90664769Y-104487331D01*
X90458753Y-104280955D01*
X90398600Y-104255977D01*
X90398600Y-102997000D01*
X90352197Y-102763716D01*
X90220052Y-102565948D01*
X90093052Y-102438948D01*
X89895284Y-102306803D01*
X89662000Y-102260400D01*
X89281000Y-102260400D01*
X89047716Y-102306803D01*
X88849948Y-102438948D01*
X88836500Y-102452396D01*
X88823052Y-102438948D01*
X88625284Y-102306803D01*
X88392000Y-102260400D01*
X88011000Y-102260400D01*
X87858600Y-102290714D01*
X87858600Y-102108000D01*
X87812197Y-101874716D01*
X87680052Y-101676948D01*
X86969600Y-100966496D01*
X86969600Y-99360178D01*
X86981045Y-99348753D01*
X87092872Y-99079442D01*
X87093127Y-98787837D01*
X86981769Y-98518331D01*
X86775753Y-98311955D01*
X86506442Y-98200128D01*
X86214837Y-98199873D01*
X85945331Y-98311231D01*
X85738955Y-98517247D01*
X85627128Y-98786558D01*
X85626873Y-99078163D01*
X85738231Y-99347669D01*
X85750400Y-99359859D01*
X85750400Y-101219000D01*
X85796803Y-101452284D01*
X85928948Y-101650052D01*
X86639400Y-102360504D01*
X86639400Y-104140000D01*
X86685803Y-104373284D01*
X86817948Y-104571052D01*
X86944948Y-104698052D01*
X87142716Y-104830197D01*
X87376000Y-104876600D01*
X87555296Y-104876600D01*
X86817948Y-105613948D01*
X86685803Y-105811716D01*
X86639400Y-106045000D01*
X86639400Y-113463296D01*
X86080600Y-112904496D01*
X86080600Y-102743000D01*
X86034197Y-102509716D01*
X85902052Y-102311948D01*
X85191600Y-101601496D01*
X85191600Y-98677504D01*
X86029052Y-97840052D01*
X86161197Y-97642284D01*
X86207600Y-97409000D01*
X86207600Y-94308704D01*
X91846400Y-99947504D01*
X91846400Y-99947504D01*
G37*
X91846400Y-99947504D02*
X91846400Y-106554496D01*
X91008948Y-107391948D01*
X90876803Y-107589716D01*
X90830400Y-107823000D01*
X90830400Y-113746044D01*
X90691955Y-113884247D01*
X90580128Y-114153558D01*
X90579873Y-114445163D01*
X90691231Y-114714669D01*
X90897247Y-114921045D01*
X91166558Y-115032872D01*
X91338400Y-115033022D01*
X91338400Y-117729000D01*
X91384803Y-117962284D01*
X91516948Y-118160052D01*
X92786948Y-119430052D01*
X92984716Y-119562197D01*
X93218000Y-119608600D01*
X94616496Y-119608600D01*
X100736400Y-125728504D01*
X100736400Y-126208868D01*
X100627580Y-126281580D01*
X100407338Y-126611194D01*
X100330000Y-127000000D01*
X100330000Y-127056293D01*
X100162371Y-127223630D01*
X100076051Y-127431512D01*
X99991010Y-127225697D01*
X99822000Y-127056392D01*
X99822000Y-126873000D01*
X99744662Y-126484194D01*
X99524420Y-126154580D01*
X99194806Y-125934338D01*
X98806000Y-125857000D01*
X98677637Y-125882533D01*
X98348052Y-125552948D01*
X98150284Y-125420803D01*
X97917000Y-125374400D01*
X96264504Y-125374400D01*
X94538052Y-123647948D01*
X94340284Y-123515803D01*
X94107000Y-123469400D01*
X88009504Y-123469400D01*
X87223600Y-122683496D01*
X87223600Y-122036929D01*
X87483558Y-122144872D01*
X87775163Y-122145127D01*
X88044669Y-122033769D01*
X88251045Y-121827753D01*
X88362872Y-121558442D01*
X88363127Y-121266837D01*
X88251769Y-120997331D01*
X88045753Y-120790955D01*
X87858600Y-120713243D01*
X87858600Y-119835704D01*
X89563887Y-121540992D01*
X89563873Y-121557163D01*
X89675231Y-121826669D01*
X89881247Y-122033045D01*
X90150558Y-122144872D01*
X90442163Y-122145127D01*
X90711669Y-122033769D01*
X90918045Y-121827753D01*
X90995171Y-121642012D01*
X92499579Y-123146420D01*
X92672244Y-123261791D01*
X92829194Y-123366662D01*
X93218000Y-123444000D01*
X95250000Y-123444000D01*
X95638806Y-123366662D01*
X95968420Y-123146420D01*
X96188662Y-122816806D01*
X96266000Y-122428000D01*
X96188662Y-122039194D01*
X95968420Y-121709580D01*
X95638806Y-121489338D01*
X95250000Y-121412000D01*
X93638841Y-121412000D01*
X89789000Y-117562160D01*
X89789000Y-106553000D01*
X89711662Y-106164194D01*
X89660376Y-106087440D01*
X89839052Y-105968052D01*
X90171992Y-105635113D01*
X90188163Y-105635127D01*
X90457669Y-105523769D01*
X90664045Y-105317753D01*
X90775872Y-105048442D01*
X90776127Y-104756837D01*
X90664769Y-104487331D01*
X90458753Y-104280955D01*
X90398600Y-104255977D01*
X90398600Y-102997000D01*
X90352197Y-102763716D01*
X90220052Y-102565948D01*
X90093052Y-102438948D01*
X89895284Y-102306803D01*
X89662000Y-102260400D01*
X89281000Y-102260400D01*
X89047716Y-102306803D01*
X88849948Y-102438948D01*
X88836500Y-102452396D01*
X88823052Y-102438948D01*
X88625284Y-102306803D01*
X88392000Y-102260400D01*
X88011000Y-102260400D01*
X87858600Y-102290714D01*
X87858600Y-102108000D01*
X87812197Y-101874716D01*
X87680052Y-101676948D01*
X86969600Y-100966496D01*
X86969600Y-99360178D01*
X86981045Y-99348753D01*
X87092872Y-99079442D01*
X87093127Y-98787837D01*
X86981769Y-98518331D01*
X86775753Y-98311955D01*
X86506442Y-98200128D01*
X86214837Y-98199873D01*
X85945331Y-98311231D01*
X85738955Y-98517247D01*
X85627128Y-98786558D01*
X85626873Y-99078163D01*
X85738231Y-99347669D01*
X85750400Y-99359859D01*
X85750400Y-101219000D01*
X85796803Y-101452284D01*
X85928948Y-101650052D01*
X86639400Y-102360504D01*
X86639400Y-104140000D01*
X86685803Y-104373284D01*
X86817948Y-104571052D01*
X86944948Y-104698052D01*
X87142716Y-104830197D01*
X87376000Y-104876600D01*
X87555296Y-104876600D01*
X86817948Y-105613948D01*
X86685803Y-105811716D01*
X86639400Y-106045000D01*
X86639400Y-113463296D01*
X86080600Y-112904496D01*
X86080600Y-102743000D01*
X86034197Y-102509716D01*
X85902052Y-102311948D01*
X85191600Y-101601496D01*
X85191600Y-98677504D01*
X86029052Y-97840052D01*
X86161197Y-97642284D01*
X86207600Y-97409000D01*
X86207600Y-94308704D01*
X91846400Y-99947504D01*
G36*
X75832955Y-90643247D02*
X75721128Y-90912558D01*
X75720873Y-91204163D01*
X75832231Y-91473669D01*
X75844400Y-91485859D01*
X75844400Y-92838496D01*
X74879948Y-93802948D01*
X74747803Y-94000716D01*
X74701400Y-94234000D01*
X74701400Y-96456349D01*
X74515331Y-96533231D01*
X74308955Y-96739247D01*
X74197128Y-97008558D01*
X74196873Y-97300163D01*
X74268119Y-97472591D01*
X74197128Y-97643558D01*
X74196904Y-97899383D01*
X74193400Y-97917000D01*
X74193400Y-107315000D01*
X74197095Y-107333575D01*
X74196873Y-107587163D01*
X74308231Y-107856669D01*
X74447400Y-107996081D01*
X74447400Y-109601000D01*
X74493803Y-109834284D01*
X74625948Y-110032052D01*
X77495400Y-112901504D01*
X77495400Y-114554000D01*
X77541803Y-114787284D01*
X77673948Y-114985052D01*
X77879887Y-115190992D01*
X77879873Y-115207163D01*
X77991231Y-115476669D01*
X78197247Y-115683045D01*
X78466558Y-115794872D01*
X78657901Y-115795039D01*
X78684803Y-115930284D01*
X78816948Y-116128052D01*
X80162400Y-117473505D01*
X80162400Y-124921822D01*
X80150955Y-124933247D01*
X80091510Y-125076406D01*
X79857600Y-124842496D01*
X79857600Y-120142000D01*
X79811197Y-119908716D01*
X79763911Y-119837948D01*
X79679053Y-119710948D01*
X76885052Y-116916948D01*
X76687284Y-116784803D01*
X76454000Y-116738400D01*
X74166505Y-116738400D01*
X72872600Y-115444496D01*
X72872600Y-99695000D01*
X72826197Y-99461716D01*
X72773267Y-99382502D01*
X72702345Y-99276358D01*
X72757045Y-99221753D01*
X72868872Y-98952442D01*
X72869127Y-98660837D01*
X72757769Y-98391331D01*
X72618600Y-98251919D01*
X72618600Y-90649089D01*
X72662163Y-90649127D01*
X72931669Y-90537769D01*
X72943859Y-90525600D01*
X75950808Y-90525600D01*
X75832955Y-90643247D01*
X75832955Y-90643247D01*
G37*
X75832955Y-90643247D02*
X75721128Y-90912558D01*
X75720873Y-91204163D01*
X75832231Y-91473669D01*
X75844400Y-91485859D01*
X75844400Y-92838496D01*
X74879948Y-93802948D01*
X74747803Y-94000716D01*
X74701400Y-94234000D01*
X74701400Y-96456349D01*
X74515331Y-96533231D01*
X74308955Y-96739247D01*
X74197128Y-97008558D01*
X74196873Y-97300163D01*
X74268119Y-97472591D01*
X74197128Y-97643558D01*
X74196904Y-97899383D01*
X74193400Y-97917000D01*
X74193400Y-107315000D01*
X74197095Y-107333575D01*
X74196873Y-107587163D01*
X74308231Y-107856669D01*
X74447400Y-107996081D01*
X74447400Y-109601000D01*
X74493803Y-109834284D01*
X74625948Y-110032052D01*
X77495400Y-112901504D01*
X77495400Y-114554000D01*
X77541803Y-114787284D01*
X77673948Y-114985052D01*
X77879887Y-115190992D01*
X77879873Y-115207163D01*
X77991231Y-115476669D01*
X78197247Y-115683045D01*
X78466558Y-115794872D01*
X78657901Y-115795039D01*
X78684803Y-115930284D01*
X78816948Y-116128052D01*
X80162400Y-117473505D01*
X80162400Y-124921822D01*
X80150955Y-124933247D01*
X80091510Y-125076406D01*
X79857600Y-124842496D01*
X79857600Y-120142000D01*
X79811197Y-119908716D01*
X79763911Y-119837948D01*
X79679053Y-119710948D01*
X76885052Y-116916948D01*
X76687284Y-116784803D01*
X76454000Y-116738400D01*
X74166505Y-116738400D01*
X72872600Y-115444496D01*
X72872600Y-99695000D01*
X72826197Y-99461716D01*
X72773267Y-99382502D01*
X72702345Y-99276358D01*
X72757045Y-99221753D01*
X72868872Y-98952442D01*
X72869127Y-98660837D01*
X72757769Y-98391331D01*
X72618600Y-98251919D01*
X72618600Y-90649089D01*
X72662163Y-90649127D01*
X72931669Y-90537769D01*
X72943859Y-90525600D01*
X75950808Y-90525600D01*
X75832955Y-90643247D01*
G36*
X79629000Y-91059000D02*
X79693507Y-91383300D01*
X79706338Y-91447807D01*
X79926580Y-91777420D01*
X80561580Y-92412421D01*
X80891193Y-92632662D01*
X81280000Y-92710000D01*
X81367160Y-92710000D01*
X82666261Y-94009102D01*
X82404837Y-94008873D01*
X82135331Y-94120231D01*
X81928955Y-94326247D01*
X81817128Y-94595558D01*
X81816873Y-94887163D01*
X81928231Y-95156669D01*
X81940400Y-95168859D01*
X81940400Y-96394495D01*
X81610948Y-96723948D01*
X81478803Y-96921716D01*
X81432400Y-97155000D01*
X81432400Y-103251000D01*
X81478803Y-103484284D01*
X81610948Y-103682052D01*
X82575400Y-104646504D01*
X82575400Y-104775000D01*
X82621803Y-105008284D01*
X82753948Y-105206052D01*
X83591400Y-106043504D01*
X83591400Y-108743602D01*
X83585442Y-108741128D01*
X83293837Y-108740873D01*
X83024331Y-108852231D01*
X83012141Y-108864400D01*
X82929504Y-108864400D01*
X81381600Y-107316496D01*
X81381600Y-96647000D01*
X81335197Y-96413716D01*
X81203052Y-96215948D01*
X80492600Y-95505496D01*
X80492600Y-94107000D01*
X80446197Y-93873716D01*
X80314052Y-93675948D01*
X79222600Y-92584496D01*
X79222600Y-90932000D01*
X79176197Y-90698716D01*
X79044052Y-90500948D01*
X78205104Y-89662000D01*
X79629000Y-89662000D01*
X79629000Y-91059000D01*
X79629000Y-91059000D01*
G37*
X79629000Y-91059000D02*
X79693507Y-91383300D01*
X79706338Y-91447807D01*
X79926580Y-91777420D01*
X80561580Y-92412421D01*
X80891193Y-92632662D01*
X81280000Y-92710000D01*
X81367160Y-92710000D01*
X82666261Y-94009102D01*
X82404837Y-94008873D01*
X82135331Y-94120231D01*
X81928955Y-94326247D01*
X81817128Y-94595558D01*
X81816873Y-94887163D01*
X81928231Y-95156669D01*
X81940400Y-95168859D01*
X81940400Y-96394495D01*
X81610948Y-96723948D01*
X81478803Y-96921716D01*
X81432400Y-97155000D01*
X81432400Y-103251000D01*
X81478803Y-103484284D01*
X81610948Y-103682052D01*
X82575400Y-104646504D01*
X82575400Y-104775000D01*
X82621803Y-105008284D01*
X82753948Y-105206052D01*
X83591400Y-106043504D01*
X83591400Y-108743602D01*
X83585442Y-108741128D01*
X83293837Y-108740873D01*
X83024331Y-108852231D01*
X83012141Y-108864400D01*
X82929504Y-108864400D01*
X81381600Y-107316496D01*
X81381600Y-96647000D01*
X81335197Y-96413716D01*
X81203052Y-96215948D01*
X80492600Y-95505496D01*
X80492600Y-94107000D01*
X80446197Y-93873716D01*
X80314052Y-93675948D01*
X79222600Y-92584496D01*
X79222600Y-90932000D01*
X79176197Y-90698716D01*
X79044052Y-90500948D01*
X78205104Y-89662000D01*
X79629000Y-89662000D01*
X79629000Y-91059000D01*
G36*
X115189000Y-91141998D02*
X115166759Y-91141998D01*
X115111956Y-91061675D01*
X114805749Y-90698917D01*
X114384029Y-90480953D01*
X114255002Y-90564028D01*
X114255002Y-90415000D01*
X113774104Y-90415000D01*
X115189000Y-89000104D01*
X115189000Y-91141998D01*
X115189000Y-91141998D01*
G37*
X115189000Y-91141998D02*
X115166759Y-91141998D01*
X115111956Y-91061675D01*
X114805749Y-90698917D01*
X114384029Y-90480953D01*
X114255002Y-90564028D01*
X114255002Y-90415000D01*
X113774104Y-90415000D01*
X115189000Y-89000104D01*
X115189000Y-91141998D01*
G36*
X109474000Y-73178962D02*
X109340721Y-72856403D01*
X108966070Y-72481097D01*
X108476313Y-72277732D01*
X107946013Y-72277269D01*
X107455903Y-72479779D01*
X107080597Y-72854430D01*
X106939905Y-73193253D01*
X106800721Y-72856403D01*
X106426070Y-72481097D01*
X105936313Y-72277732D01*
X105406013Y-72277269D01*
X104915903Y-72479779D01*
X104540597Y-72854430D01*
X104337232Y-73344187D01*
X104336769Y-73874487D01*
X104539279Y-74364597D01*
X104913930Y-74739903D01*
X105403687Y-74943268D01*
X105933987Y-74943731D01*
X106424097Y-74741221D01*
X106799403Y-74366570D01*
X106940095Y-74027747D01*
X107079279Y-74364597D01*
X107206798Y-74492339D01*
X107271338Y-74816806D01*
X107491580Y-75146420D01*
X107821194Y-75366662D01*
X108210000Y-75444000D01*
X108308401Y-75424427D01*
X109474000Y-76590026D01*
X109474000Y-79405374D01*
X109363378Y-79385444D01*
X109153998Y-79427092D01*
X109422633Y-78780147D01*
X109423365Y-77941532D01*
X109103117Y-77166474D01*
X108510645Y-76572967D01*
X107736147Y-76251367D01*
X106897532Y-76250635D01*
X106122474Y-76570883D01*
X105528967Y-77163355D01*
X105207367Y-77937853D01*
X105206635Y-78776468D01*
X105526883Y-79551526D01*
X106119355Y-80145033D01*
X106893853Y-80466633D01*
X107732468Y-80467365D01*
X107737757Y-80465180D01*
X107771797Y-80499220D01*
X107516463Y-80668453D01*
X107376444Y-81445622D01*
X107516463Y-82149547D01*
X107771797Y-82318780D01*
X107611443Y-82479134D01*
X107809309Y-82677000D01*
X95390691Y-82677000D01*
X95588557Y-82479134D01*
X95428203Y-82318780D01*
X95683537Y-82149547D01*
X95823556Y-81372378D01*
X95683537Y-80668453D01*
X95428203Y-80499220D01*
X95461689Y-80465734D01*
X95463853Y-80466633D01*
X96302468Y-80467365D01*
X97077526Y-80147117D01*
X97671033Y-79554645D01*
X97992633Y-78780147D01*
X97993365Y-77941532D01*
X97673117Y-77166474D01*
X97080645Y-76572967D01*
X96306147Y-76251367D01*
X95467532Y-76250635D01*
X94692474Y-76570883D01*
X94098967Y-77163355D01*
X93777367Y-77937853D01*
X93776635Y-78776468D01*
X94049564Y-79437005D01*
X93763378Y-79385444D01*
X93726000Y-79392879D01*
X93726000Y-77062104D01*
X94861637Y-75926467D01*
X94990000Y-75952000D01*
X95378806Y-75874662D01*
X95708420Y-75654420D01*
X95928662Y-75324806D01*
X96006000Y-74936000D01*
X96006000Y-74479775D01*
X96119403Y-74366570D01*
X96260095Y-74027747D01*
X96399279Y-74364597D01*
X96773930Y-74739903D01*
X97263687Y-74943268D01*
X97793987Y-74943731D01*
X98284097Y-74741221D01*
X98659403Y-74366570D01*
X98862768Y-73876813D01*
X98863231Y-73346513D01*
X98660721Y-72856403D01*
X98286070Y-72481097D01*
X97796313Y-72277732D01*
X97266013Y-72277269D01*
X96775903Y-72479779D01*
X96400597Y-72854430D01*
X96259905Y-73193253D01*
X96120721Y-72856403D01*
X95746070Y-72481097D01*
X95256313Y-72277732D01*
X94726013Y-72277269D01*
X94235903Y-72479779D01*
X93860597Y-72854430D01*
X93726000Y-73178575D01*
X93726000Y-67691000D01*
X109474000Y-67691000D01*
X109474000Y-73178962D01*
X109474000Y-73178962D01*
G37*
X109474000Y-73178962D02*
X109340721Y-72856403D01*
X108966070Y-72481097D01*
X108476313Y-72277732D01*
X107946013Y-72277269D01*
X107455903Y-72479779D01*
X107080597Y-72854430D01*
X106939905Y-73193253D01*
X106800721Y-72856403D01*
X106426070Y-72481097D01*
X105936313Y-72277732D01*
X105406013Y-72277269D01*
X104915903Y-72479779D01*
X104540597Y-72854430D01*
X104337232Y-73344187D01*
X104336769Y-73874487D01*
X104539279Y-74364597D01*
X104913930Y-74739903D01*
X105403687Y-74943268D01*
X105933987Y-74943731D01*
X106424097Y-74741221D01*
X106799403Y-74366570D01*
X106940095Y-74027747D01*
X107079279Y-74364597D01*
X107206798Y-74492339D01*
X107271338Y-74816806D01*
X107491580Y-75146420D01*
X107821194Y-75366662D01*
X108210000Y-75444000D01*
X108308401Y-75424427D01*
X109474000Y-76590026D01*
X109474000Y-79405374D01*
X109363378Y-79385444D01*
X109153998Y-79427092D01*
X109422633Y-78780147D01*
X109423365Y-77941532D01*
X109103117Y-77166474D01*
X108510645Y-76572967D01*
X107736147Y-76251367D01*
X106897532Y-76250635D01*
X106122474Y-76570883D01*
X105528967Y-77163355D01*
X105207367Y-77937853D01*
X105206635Y-78776468D01*
X105526883Y-79551526D01*
X106119355Y-80145033D01*
X106893853Y-80466633D01*
X107732468Y-80467365D01*
X107737757Y-80465180D01*
X107771797Y-80499220D01*
X107516463Y-80668453D01*
X107376444Y-81445622D01*
X107516463Y-82149547D01*
X107771797Y-82318780D01*
X107611443Y-82479134D01*
X107809309Y-82677000D01*
X95390691Y-82677000D01*
X95588557Y-82479134D01*
X95428203Y-82318780D01*
X95683537Y-82149547D01*
X95823556Y-81372378D01*
X95683537Y-80668453D01*
X95428203Y-80499220D01*
X95461689Y-80465734D01*
X95463853Y-80466633D01*
X96302468Y-80467365D01*
X97077526Y-80147117D01*
X97671033Y-79554645D01*
X97992633Y-78780147D01*
X97993365Y-77941532D01*
X97673117Y-77166474D01*
X97080645Y-76572967D01*
X96306147Y-76251367D01*
X95467532Y-76250635D01*
X94692474Y-76570883D01*
X94098967Y-77163355D01*
X93777367Y-77937853D01*
X93776635Y-78776468D01*
X94049564Y-79437005D01*
X93763378Y-79385444D01*
X93726000Y-79392879D01*
X93726000Y-77062104D01*
X94861637Y-75926467D01*
X94990000Y-75952000D01*
X95378806Y-75874662D01*
X95708420Y-75654420D01*
X95928662Y-75324806D01*
X96006000Y-74936000D01*
X96006000Y-74479775D01*
X96119403Y-74366570D01*
X96260095Y-74027747D01*
X96399279Y-74364597D01*
X96773930Y-74739903D01*
X97263687Y-74943268D01*
X97793987Y-74943731D01*
X98284097Y-74741221D01*
X98659403Y-74366570D01*
X98862768Y-73876813D01*
X98863231Y-73346513D01*
X98660721Y-72856403D01*
X98286070Y-72481097D01*
X97796313Y-72277732D01*
X97266013Y-72277269D01*
X96775903Y-72479779D01*
X96400597Y-72854430D01*
X96259905Y-73193253D01*
X96120721Y-72856403D01*
X95746070Y-72481097D01*
X95256313Y-72277732D01*
X94726013Y-72277269D01*
X94235903Y-72479779D01*
X93860597Y-72854430D01*
X93726000Y-73178575D01*
X93726000Y-67691000D01*
X109474000Y-67691000D01*
X109474000Y-73178962D01*
G36*
X109474000Y-80736295D02*
X109474000Y-82081705D01*
X109414143Y-82141563D01*
X109400000Y-82127420D01*
X109385858Y-82141563D01*
X108667438Y-81423143D01*
X108681580Y-81409000D01*
X108667438Y-81394858D01*
X109385858Y-80676438D01*
X109400000Y-80690580D01*
X109414143Y-80676438D01*
X109474000Y-80736295D01*
X109474000Y-80736295D01*
G37*
X109474000Y-80736295D02*
X109474000Y-82081705D01*
X109414143Y-82141563D01*
X109400000Y-82127420D01*
X109385858Y-82141563D01*
X108667438Y-81423143D01*
X108681580Y-81409000D01*
X108667438Y-81394858D01*
X109385858Y-80676438D01*
X109400000Y-80690580D01*
X109414143Y-80676438D01*
X109474000Y-80736295D01*
G36*
X94532563Y-81394858D02*
X94518420Y-81409000D01*
X94532563Y-81423143D01*
X93814143Y-82141563D01*
X93800000Y-82127420D01*
X93785858Y-82141563D01*
X93726000Y-82081705D01*
X93726000Y-80736295D01*
X93785858Y-80676438D01*
X93800000Y-80690580D01*
X93814143Y-80676438D01*
X94532563Y-81394858D01*
X94532563Y-81394858D01*
G37*
X94532563Y-81394858D02*
X94518420Y-81409000D01*
X94532563Y-81423143D01*
X93814143Y-82141563D01*
X93800000Y-82127420D01*
X93785858Y-82141563D01*
X93726000Y-82081705D01*
X93726000Y-80736295D01*
X93785858Y-80676438D01*
X93800000Y-80690580D01*
X93814143Y-80676438D01*
X94532563Y-81394858D01*
M02*
