M48
;DRILL file {KiCad no-vcs-found-097f89d~58~ubuntu14.04.1} date Wed May  3 15:28:17 2017
;FORMAT={-:-/ absolute / metric / decimal}
FMAT,2
METRIC,TZ
T1C0.300
T2C0.300
T3C0.500
T4C0.600
T5C0.900
T6C1.000
T7C1.100
T8C1.200
T9C1.800
T10C3.200
T11C3.300
%
G90
G05
M71
T1
X100.449Y-99.344
T2
X98.649Y-97.544
X98.649Y-98.544
X99.449Y-96.744
X99.449Y-99.344
X100.449Y-96.744
X101.249Y-97.544
X101.249Y-98.544
X70.231Y-92.583
X70.231Y-109.093
X70.231Y-112.268
X70.231Y-116.332
X71.374Y-104.14
X72.136Y-98.806
X72.517Y-77.216
X72.517Y-78.486
X72.517Y-79.629
X72.517Y-81.026
X72.517Y-82.296
X72.517Y-83.566
X72.517Y-89.916
X72.898Y-84.836
X73.787Y-87.63
X74.295Y-86.36
X74.295Y-87.122
X74.93Y-97.155
X74.93Y-97.79
X74.93Y-107.442
X75.057Y-118.237
X75.311Y-106.934
X75.946Y-118.237
X76.454Y-91.059
X76.581Y-95.123
X76.835Y-107.188
X77.089Y-95.504
X77.216Y-91.186
X77.47Y-94.361
X77.724Y-95.885
X77.978Y-91.186
X78.105Y-89.662
X78.359Y-94.361
X78.613Y-89.662
X78.613Y-114.3
X78.613Y-115.062
X79.121Y-89.662
X79.121Y-94.361
X79.629Y-126.365
X80.01Y-125.857
X80.137Y-98.298
X80.264Y-97.282
X80.772Y-125.349
X81.534Y-125.095
X81.661Y-89.408
X81.661Y-90.043
X81.661Y-90.678
X82.55Y-94.742
X83.312Y-94.742
X83.439Y-109.474
X83.82Y-104.521
X84.074Y-97.028
X84.328Y-85.852
X84.328Y-86.614
X85.09Y-115.062
X85.09Y-119.761
X85.09Y-121.412
X85.725Y-86.36
X85.725Y-87.122
X86.106Y-88.265
X86.233Y-94.615
X86.36Y-98.933
X86.868Y-96.774
X87.63Y-121.412
X89.281Y-104.902
X89.662Y-97.917
X89.662Y-98.425
X90.043Y-104.902
X90.297Y-121.412
X91.313Y-114.3
X92.964Y-107.823
X93.853Y-90.297
X94.488Y-90.297
X95.123Y-126.873
X96.52Y-102.235
X97.917Y-101.854
X99.314Y-90.805
X100.457Y-102.235
X100.965Y-101.473
X101.727Y-101.981
X102.362Y-95.504
X102.997Y-95.758
X103.378Y-99.695
X103.505Y-97.155
X104.521Y-95.885
X105.156Y-96.52
X105.791Y-98.806
X105.918Y-101.219
X105.918Y-101.727
X105.918Y-102.235
X106.426Y-89.281
X107.95Y-107.823
X110.871Y-117.729
X110.998Y-95.631
X111.379Y-118.11
X111.506Y-95.25
X115.57Y-120.015
X115.824Y-80.899
X115.824Y-85.344
X116.713Y-111.252
X119.761Y-102.997
X119.761Y-105.537
X119.761Y-109.728
X119.761Y-113.919
X119.761Y-118.364
X119.761Y-121.92
T3
X95.25Y-90.678
T4
X70.739Y-122.301
X71.501Y-120.65
X71.501Y-124.079
X73.152Y-119.888
X73.152Y-124.714
X74.803Y-120.65
X74.803Y-123.952
X75.565Y-122.301
X113.919Y-71.12
X114.681Y-69.469
X114.681Y-72.898
X116.332Y-68.707
X116.332Y-73.533
X117.983Y-69.469
X117.983Y-72.771
X118.745Y-71.12
X77.97Y-79.984
X77.97Y-82.219
X77.97Y-84.683
X80.281Y-79.984
X80.281Y-84.683
X82.643Y-79.984
X82.643Y-82.219
X82.643Y-84.683
X72.517Y-74.549
X73.914Y-94.361
X73.914Y-95.631
X73.914Y-101.219
X73.914Y-102.108
X73.914Y-104.394
X73.914Y-108.458
X73.914Y-109.474
X74.168Y-90.805
X74.168Y-116.459
X75.184Y-90.805
X75.184Y-116.459
X75.565Y-74.295
X75.565Y-78.105
X75.565Y-81.28
X75.819Y-83.693
X76.2Y-88.646
X76.2Y-116.459
X77.089Y-76.073
X78.74Y-74.295
X78.74Y-78.105
X80.391Y-76.073
X81.915Y-74.295
X81.915Y-78.105
X82.804Y-107.442
X82.804Y-108.458
X83.185Y-76.073
X84.201Y-103.378
X84.455Y-74.295
X84.455Y-78.105
X85.471Y-99.949
X85.979Y-76.073
X86.36Y-108.458
X86.995Y-74.549
X88.773Y-106.553
X88.773Y-107.569
X88.773Y-113.538
X88.773Y-117.983
X90.17Y-109.982
X90.17Y-111.125
X90.17Y-112.141
X91.059Y-68.199
X91.059Y-69.469
X91.567Y-88.138
X91.567Y-104.775
X91.694Y-74.676
X92.456Y-88.138
X92.71Y-74.676
X93.853Y-110.998
X93.853Y-112.014
X93.853Y-113.03
X93.98Y-120.015
X94.234Y-91.821
X95.25Y-70.485
X95.25Y-122.428
X96.52Y-68.58
X97.155Y-75.565
X97.409Y-123.444
X97.536Y-114.173
X97.79Y-70.485
X97.79Y-81.915
X97.917Y-110.871
X98.806Y-104.648
X99.695Y-68.58
X99.695Y-72.39
X99.695Y-76.2
X99.695Y-80.01
X99.949Y-114.173
X100.457Y-110.871
X101.092Y-116.967
X101.092Y-118.491
X101.092Y-121.158
X101.219Y-115.443
X101.6Y-70.485
X101.6Y-74.295
X101.6Y-78.105
X101.6Y-81.915
X102.362Y-119.761
X102.362Y-122.428
X102.743Y-112.649
X103.124Y-101.092
X103.124Y-101.981
X103.505Y-68.58
X103.505Y-72.39
X103.505Y-76.2
X103.505Y-80.01
X103.505Y-90.805
X103.632Y-111.125
X103.632Y-118.491
X103.632Y-121.158
X104.902Y-115.443
X105.41Y-70.485
X105.41Y-81.915
X105.537Y-110.744
X106.045Y-75.565
X106.172Y-114.173
X106.426Y-94.107
X106.426Y-95.123
X106.68Y-68.58
X107.315Y-117.094
X107.569Y-110.744
X107.95Y-70.485
X107.95Y-114.173
X108.077Y-93.091
X109.093Y-106.553
X109.347Y-94.107
X109.347Y-95.123
X109.347Y-96.139
X110.109Y-106.553
X111.125Y-120.269
X111.887Y-125.222
X112.649Y-105.029
X112.649Y-119.253
X112.649Y-120.904
X113.03Y-125.222
X113.284Y-111.76
X114.3Y-111.76
X114.3Y-113.411
X114.681Y-105.029
X114.681Y-106.045
X114.681Y-107.061
X115.57Y-118.364
X116.586Y-118.364
T5
X97.165Y-87.599
X98.435Y-85.059
X99.705Y-87.599
X100.975Y-85.059
X102.245Y-87.599
X103.515Y-85.059
X104.785Y-87.599
X106.055Y-85.059
T6
X70.866Y-128.016
X73.406Y-128.016
X75.946Y-128.016
X78.486Y-128.016
X81.026Y-128.016
X83.566Y-128.016
X86.106Y-128.016
X88.646Y-128.016
X91.186Y-128.016
X93.726Y-128.016
X96.266Y-128.016
X98.806Y-128.016
X101.346Y-128.016
X103.886Y-128.016
X106.426Y-128.016
X108.966Y-128.016
X111.506Y-128.016
X114.046Y-128.016
X116.586Y-128.016
X119.126Y-128.016
X80.281Y-82.346
T7
X94.99Y-73.611
X97.53Y-73.611
X105.67Y-73.611
X108.21Y-73.611
T8
X99.949Y-98.044
T9
X93.8Y-81.409
X109.4Y-81.409
T10
X95.885Y-78.359
X107.315Y-78.359
T11
X73.152Y-122.301
X116.332Y-71.12
T4
X113.447Y-91.65G85X114.047Y-91.65
G05
X113.447Y-98.85G85X114.047Y-98.85
G05
X116.917Y-91.65G85X117.517Y-91.65
G05
X116.917Y-98.85G85X117.517Y-98.85
G05
T0
M30
