G04 #@! TF.GenerationSoftware,KiCad,Pcbnew,no-vcs-found-097f89d~58~ubuntu14.04.1*
G04 #@! TF.CreationDate,2017-05-03T15:29:04+03:00*
G04 #@! TF.ProjectId,ESP32-GATEWAY_Rev_A,45535033322D474154455741595F5265,B*
G04 #@! TF.FileFunction,Paste,Top*
G04 #@! TF.FilePolarity,Positive*
%FSLAX46Y46*%
G04 Gerber Fmt 4.6, Leading zero omitted, Abs format (unit mm)*
G04 Created by KiCad (PCBNEW no-vcs-found-097f89d~58~ubuntu14.04.1) date Wed May  3 15:29:04 2017*
%MOMM*%
%LPD*%
G01*
G04 APERTURE LIST*
%ADD10C,0.100000*%
%ADD11C,0.254000*%
%ADD12C,0.200000*%
%ADD13R,1.270000X0.325000*%
%ADD14R,0.230000X0.780000*%
%ADD15R,0.780000X0.230000*%
%ADD16R,0.914400X0.914400*%
%ADD17R,1.435000X0.635000*%
%ADD18R,0.635000X1.435000*%
%ADD19R,1.400000X1.400000*%
%ADD20R,1.500000X3.100000*%
%ADD21R,1.500000X0.800000*%
%ADD22R,1.524000X1.270000*%
%ADD23R,1.016000X1.016000*%
%ADD24R,1.270000X1.524000*%
%ADD25R,1.200000X1.400000*%
%ADD26R,1.778000X2.286000*%
%ADD27R,3.398400X1.498400*%
%ADD28R,1.168400X1.422400*%
%ADD29R,1.422400X1.168400*%
%ADD30R,0.800000X0.800000*%
%ADD31R,0.914400X0.279400*%
%ADD32R,0.914400X0.533400*%
%ADD33R,0.279400X0.914400*%
%ADD34R,0.533400X0.914400*%
%ADD35R,0.448400X1.098400*%
%ADD36R,1.778000X1.016000*%
%ADD37R,2.000000X1.700000*%
%ADD38R,0.898400X1.298400*%
%ADD39R,4.724400X0.998400*%
%ADD40R,1.298400X0.898400*%
%ADD41R,1.098400X0.448400*%
%ADD42R,1.000000X1.400000*%
%ADD43R,1.000000X1.100000*%
%ADD44R,2.150000X0.325000*%
G04 APERTURE END LIST*
D10*
D11*
X120396000Y-101473000D02*
X120396000Y-129286000D01*
X119380000Y-101473000D02*
X120396000Y-101473000D01*
X119380000Y-89027000D02*
X119380000Y-101473000D01*
X120396000Y-89027000D02*
X119380000Y-89027000D01*
X120396000Y-67056000D02*
X120396000Y-89027000D01*
X120396000Y-67056000D02*
X89154000Y-67056000D01*
X69596000Y-129286000D02*
X120396000Y-129286000D01*
X69596000Y-73152000D02*
X69596000Y-129286000D01*
X89154000Y-73152000D02*
X89154000Y-67056000D01*
X69596000Y-73152000D02*
X89154000Y-73152000D01*
D12*
X101549000Y-97244000D02*
X101549000Y-96444000D01*
X100749000Y-97244000D02*
X101549000Y-97244000D01*
X100749000Y-96444000D02*
X100749000Y-97244000D01*
X101549000Y-96444000D02*
X100749000Y-96444000D01*
X101549000Y-96544000D02*
X100749000Y-96544000D01*
X101549000Y-96644000D02*
X100749000Y-96644000D01*
X101549000Y-96744000D02*
X100749000Y-96744000D01*
X101549000Y-96844000D02*
X100749000Y-96844000D01*
X101549000Y-96944000D02*
X100749000Y-96944000D01*
X101549000Y-97044000D02*
X100749000Y-97044000D01*
X101549000Y-97144000D02*
X100749000Y-97144000D01*
X99149000Y-97144000D02*
X98349000Y-97144000D01*
X99149000Y-97044000D02*
X98349000Y-97044000D01*
X99149000Y-96944000D02*
X98349000Y-96944000D01*
X99149000Y-96844000D02*
X98349000Y-96844000D01*
X99149000Y-96744000D02*
X98349000Y-96744000D01*
X99149000Y-96644000D02*
X98349000Y-96644000D01*
X99149000Y-96544000D02*
X98349000Y-96544000D01*
X99149000Y-96444000D02*
X98349000Y-96444000D01*
X98349000Y-96444000D02*
X98349000Y-97244000D01*
X98349000Y-97244000D02*
X99149000Y-97244000D01*
X99149000Y-97244000D02*
X99149000Y-96444000D01*
X101549000Y-99544000D02*
X100749000Y-99544000D01*
X101549000Y-99444000D02*
X100749000Y-99444000D01*
X101549000Y-99344000D02*
X100749000Y-99344000D01*
X101549000Y-99244000D02*
X100749000Y-99244000D01*
X101549000Y-99144000D02*
X100749000Y-99144000D01*
X101549000Y-99044000D02*
X100749000Y-99044000D01*
X101549000Y-98944000D02*
X100749000Y-98944000D01*
X101549000Y-98844000D02*
X100749000Y-98844000D01*
X100749000Y-98844000D02*
X100749000Y-99644000D01*
X100749000Y-99644000D02*
X101549000Y-99644000D01*
X101549000Y-99644000D02*
X101549000Y-98844000D01*
X99149000Y-99644000D02*
X99149000Y-98844000D01*
X98349000Y-99644000D02*
X99149000Y-99644000D01*
X98349000Y-98844000D02*
X98349000Y-99644000D01*
X99149000Y-98844000D02*
X98349000Y-98844000D01*
X99149000Y-98944000D02*
X98349000Y-98944000D01*
X99149000Y-99044000D02*
X98349000Y-99044000D01*
X99149000Y-99144000D02*
X98349000Y-99144000D01*
X99149000Y-99244000D02*
X98349000Y-99244000D01*
X99149000Y-99344000D02*
X98349000Y-99344000D01*
X99149000Y-99444000D02*
X98349000Y-99444000D01*
X99149000Y-99544000D02*
X98349000Y-99544000D01*
X99749000Y-96444000D02*
X100149000Y-96444000D01*
X99749000Y-97244000D02*
X99749000Y-96444000D01*
X100149000Y-97244000D02*
X99749000Y-97244000D01*
X100149000Y-96444000D02*
X100149000Y-97244000D01*
X100049000Y-96444000D02*
X100049000Y-97244000D01*
X99949000Y-96444000D02*
X99949000Y-97244000D01*
X99849000Y-96444000D02*
X99849000Y-97244000D01*
X99849000Y-98844000D02*
X99849000Y-99644000D01*
X99949000Y-98844000D02*
X99949000Y-99644000D01*
X100049000Y-98844000D02*
X100049000Y-99644000D01*
X100149000Y-98844000D02*
X100149000Y-99644000D01*
X100149000Y-99644000D02*
X99749000Y-99644000D01*
X99749000Y-99644000D02*
X99749000Y-98844000D01*
X99749000Y-98844000D02*
X100149000Y-98844000D01*
X101549000Y-98244000D02*
X101549000Y-97844000D01*
X100749000Y-98244000D02*
X101549000Y-98244000D01*
X100749000Y-97844000D02*
X100749000Y-98244000D01*
X101549000Y-97844000D02*
X100749000Y-97844000D01*
X101549000Y-97944000D02*
X100749000Y-97944000D01*
X100749000Y-98044000D02*
X101549000Y-98044000D01*
X101549000Y-98144000D02*
X100749000Y-98144000D01*
X99149000Y-98144000D02*
X98349000Y-98144000D01*
X98349000Y-98044000D02*
X99149000Y-98044000D01*
X99149000Y-97944000D02*
X98349000Y-97944000D01*
X99149000Y-97844000D02*
X98349000Y-97844000D01*
X98349000Y-97844000D02*
X98349000Y-98244000D01*
X98349000Y-98244000D02*
X99149000Y-98244000D01*
X99149000Y-98244000D02*
X99149000Y-97844000D01*
D13*
X105346500Y-122686000D03*
X105346500Y-122036000D03*
X105346500Y-121386000D03*
X105346500Y-120736000D03*
X105346500Y-120086000D03*
X105346500Y-119436000D03*
X105346500Y-118786000D03*
X105346500Y-118136000D03*
X105346500Y-117486000D03*
X105346500Y-116836000D03*
X98107500Y-116836000D03*
X98107500Y-117486000D03*
X98107500Y-118136000D03*
X98107500Y-118786000D03*
X98107500Y-119436000D03*
X98107500Y-120086000D03*
X98107500Y-120736000D03*
X98107500Y-121386000D03*
X98107500Y-122036000D03*
X98107500Y-122686000D03*
D14*
X98199000Y-95594000D03*
X98699000Y-95594000D03*
X99199000Y-95594000D03*
X99699000Y-95594000D03*
X100199000Y-95594000D03*
X100699000Y-95594000D03*
X101199000Y-95594000D03*
X101699000Y-95594000D03*
D15*
X102399000Y-96294000D03*
X102399000Y-96794000D03*
X102399000Y-97294000D03*
X102399000Y-97794000D03*
X102399000Y-98294000D03*
X102399000Y-98794000D03*
X102399000Y-99294000D03*
X102399000Y-99794000D03*
D14*
X101699000Y-100494000D03*
X101199000Y-100494000D03*
X100699000Y-100494000D03*
X100199000Y-100494000D03*
X99699000Y-100494000D03*
X99199000Y-100494000D03*
X98699000Y-100494000D03*
X98199000Y-100494000D03*
D15*
X97499000Y-99794000D03*
X97499000Y-99294000D03*
X97499000Y-98794000D03*
X97499000Y-98294000D03*
X97499000Y-97794000D03*
X97499000Y-97294000D03*
X97499000Y-96794000D03*
X97499000Y-96294000D03*
D16*
X104775000Y-92583000D03*
X104775000Y-90805000D03*
D17*
X89010000Y-74673000D03*
X89010000Y-75943000D03*
X89010000Y-77213000D03*
X89010000Y-78483000D03*
X89010000Y-79753000D03*
X89010000Y-81023000D03*
X89010000Y-82293000D03*
X89010000Y-83563000D03*
X89010000Y-84833000D03*
X89010000Y-86103000D03*
X89010000Y-87373000D03*
X89010000Y-88643000D03*
X89010000Y-89913000D03*
X89010000Y-91183000D03*
D18*
X85740000Y-92633000D03*
X84470000Y-92633000D03*
X83200000Y-92633000D03*
X81930000Y-92633000D03*
X80660000Y-92633000D03*
X79390000Y-92633000D03*
X78120000Y-92633000D03*
X76850000Y-92633000D03*
X75580000Y-92633000D03*
X74310000Y-92633000D03*
D17*
X71010000Y-91143000D03*
X71010000Y-89873000D03*
X71010000Y-88603000D03*
X71010000Y-87333000D03*
X71010000Y-86063000D03*
X71010000Y-84793000D03*
X71010000Y-83523000D03*
X71010000Y-82253000D03*
X71010000Y-80983000D03*
X71010000Y-79713000D03*
X71010000Y-78443000D03*
X71010000Y-77173000D03*
X71010000Y-75903000D03*
X71010000Y-74633000D03*
D19*
X79011000Y-80949000D03*
X81551000Y-80949000D03*
X79036400Y-83616000D03*
X81576400Y-83616000D03*
D20*
X81577000Y-114275000D03*
X81577000Y-108215000D03*
D21*
X72327000Y-107275000D03*
X72327000Y-108375000D03*
X72327000Y-109475000D03*
X72327000Y-110575000D03*
X72327000Y-111675000D03*
X72327000Y-112775000D03*
X72327000Y-113875000D03*
X72327000Y-114975000D03*
D22*
X112395000Y-122047000D03*
X112395000Y-124079000D03*
D23*
X105664000Y-104902000D03*
X105664000Y-103124000D03*
X104140000Y-104902000D03*
X104140000Y-103124000D03*
D24*
X85217000Y-112014000D03*
X87249000Y-112014000D03*
D23*
X106426000Y-92583000D03*
X106426000Y-90805000D03*
X109474000Y-104775000D03*
X109474000Y-102997000D03*
X97790000Y-104902000D03*
X97790000Y-103124000D03*
X103632000Y-94234000D03*
X105410000Y-94234000D03*
X94488000Y-94615000D03*
X92710000Y-94615000D03*
X94488000Y-99822000D03*
X92710000Y-99822000D03*
X92710000Y-98298000D03*
X94488000Y-98298000D03*
X105029000Y-98679000D03*
X106807000Y-98679000D03*
D25*
X90551000Y-100838000D03*
X90551000Y-98298000D03*
X88011000Y-98298000D03*
X88011000Y-100838000D03*
D26*
X113647000Y-109982000D03*
X118001000Y-109982000D03*
D27*
X115443000Y-124644000D03*
X115443000Y-122244000D03*
D28*
X107569000Y-104648000D03*
X107569000Y-102616000D03*
D29*
X85217000Y-113919000D03*
X87249000Y-113919000D03*
D30*
X117094000Y-85344000D03*
X118618000Y-85344000D03*
D23*
X83185000Y-95758000D03*
X81407000Y-95758000D03*
X82931000Y-103759000D03*
X81153000Y-103759000D03*
X85852000Y-102997000D03*
X85852000Y-101219000D03*
X91694000Y-71501000D03*
X91694000Y-73279000D03*
X111633000Y-77851000D03*
X111633000Y-76073000D03*
X98552000Y-90805000D03*
X98552000Y-92583000D03*
X85344000Y-115824000D03*
X87122000Y-115824000D03*
X96266000Y-92583000D03*
X96266000Y-90805000D03*
X102362000Y-90805000D03*
X102362000Y-92583000D03*
X100076000Y-92583000D03*
X100076000Y-90805000D03*
X90170000Y-103378000D03*
X88392000Y-103378000D03*
X110109000Y-122809000D03*
X108331000Y-122809000D03*
X87884000Y-95758000D03*
X89662000Y-95758000D03*
X106807000Y-100203000D03*
X105029000Y-100203000D03*
X94488000Y-93091000D03*
X92710000Y-93091000D03*
X110109000Y-121285000D03*
X108331000Y-121285000D03*
X95758000Y-116967000D03*
X93980000Y-116967000D03*
D31*
X84963000Y-106299000D03*
X84963000Y-105537000D03*
X86487000Y-106299000D03*
X86487000Y-105537000D03*
D32*
X84963000Y-107188000D03*
X86487000Y-107188000D03*
X84963000Y-104648000D03*
X86487000Y-104648000D03*
D33*
X94996000Y-104775000D03*
X94234000Y-104775000D03*
X94996000Y-103251000D03*
X94234000Y-103251000D03*
D34*
X95885000Y-104775000D03*
X95885000Y-103251000D03*
X93345000Y-104775000D03*
X93345000Y-103251000D03*
X102235000Y-104775000D03*
X102235000Y-103251000D03*
X99695000Y-104775000D03*
X99695000Y-103251000D03*
D33*
X101346000Y-104775000D03*
X100584000Y-104775000D03*
X101346000Y-103251000D03*
X100584000Y-103251000D03*
D35*
X118171000Y-117064000D03*
X116271000Y-117064000D03*
X118171000Y-119664000D03*
X117221000Y-119664000D03*
X116271000Y-119664000D03*
D23*
X85344000Y-110236000D03*
X87122000Y-110236000D03*
D29*
X71120000Y-97155000D03*
X79248000Y-97155000D03*
X71120000Y-102997000D03*
X79248000Y-102997000D03*
D36*
X92075000Y-86995000D03*
X92075000Y-83439000D03*
X92075000Y-79375000D03*
X92075000Y-75819000D03*
D23*
X93980000Y-114300000D03*
X95758000Y-114300000D03*
X109474000Y-114300000D03*
X111252000Y-114300000D03*
X93980000Y-121158000D03*
X95758000Y-121158000D03*
X108331000Y-119253000D03*
X110109000Y-119253000D03*
X79502000Y-101092000D03*
X79502000Y-99314000D03*
D37*
X113070000Y-106680000D03*
X118070000Y-106680000D03*
D38*
X117345460Y-101894640D03*
X118300500Y-104104440D03*
X116398040Y-104104440D03*
D39*
X97917000Y-112395000D03*
X107315000Y-112395000D03*
D40*
X89829640Y-116207540D03*
X92039440Y-115252500D03*
X92039440Y-117154960D03*
X89702640Y-119763540D03*
X91912440Y-118808500D03*
X91912440Y-120710960D03*
D23*
X114681000Y-103886000D03*
X112903000Y-103886000D03*
X93980000Y-118745000D03*
X95758000Y-118745000D03*
X83185000Y-97282000D03*
X81407000Y-97282000D03*
X81407000Y-98806000D03*
X83185000Y-98806000D03*
X84963000Y-98679000D03*
X84963000Y-96901000D03*
X116967000Y-87122000D03*
X118745000Y-87122000D03*
X114173000Y-119761000D03*
X114173000Y-117983000D03*
X114173000Y-114681000D03*
X114173000Y-116459000D03*
D24*
X117983000Y-112903000D03*
X115951000Y-112903000D03*
X115951000Y-114935000D03*
X117983000Y-114935000D03*
D23*
X86360000Y-119761000D03*
X88138000Y-119761000D03*
D41*
X81504000Y-100269000D03*
X81504000Y-102169000D03*
X84104000Y-100269000D03*
X84104000Y-101219000D03*
X84104000Y-102169000D03*
D42*
X88077000Y-124163000D03*
X89977000Y-124163000D03*
X89027000Y-121963000D03*
X82743000Y-124163000D03*
X84643000Y-124163000D03*
X83693000Y-121963000D03*
D23*
X86360000Y-122555000D03*
X86360000Y-124333000D03*
D43*
X118367000Y-93750000D03*
X118367000Y-96750000D03*
D44*
X114067000Y-93950000D03*
X114067000Y-94600000D03*
X114067000Y-95250000D03*
X114067000Y-95900000D03*
X114067000Y-96550000D03*
D30*
X117094000Y-80899000D03*
X118618000Y-80899000D03*
D23*
X116967000Y-82677000D03*
X118745000Y-82677000D03*
M02*
