G04 #@! TF.GenerationSoftware,KiCad,Pcbnew,no-vcs-found-097f89d~58~ubuntu14.04.1*
G04 #@! TF.CreationDate,2017-05-03T15:29:04+03:00*
G04 #@! TF.ProjectId,ESP32-GATEWAY_Rev_A,45535033322D474154455741595F5265,B*
G04 #@! TF.FileFunction,Soldermask,Bot*
G04 #@! TF.FilePolarity,Negative*
%FSLAX46Y46*%
G04 Gerber Fmt 4.6, Leading zero omitted, Abs format (unit mm)*
G04 Created by KiCad (PCBNEW no-vcs-found-097f89d~58~ubuntu14.04.1) date Wed May  3 15:29:04 2017*
%MOMM*%
%LPD*%
G01*
G04 APERTURE LIST*
%ADD10C,0.100000*%
%ADD11C,0.254000*%
%ADD12C,1.600000*%
%ADD13C,6.700000*%
%ADD14R,1.822400X1.822400*%
%ADD15C,1.700000*%
%ADD16C,2.400000*%
%ADD17C,3.600000*%
%ADD18C,2.050000*%
%ADD19C,3.100000*%
%ADD20C,1.810000*%
%ADD21R,1.270000X1.701800*%
%ADD22O,2.200000X1.600000*%
%ADD23C,0.700000*%
%ADD24C,1.879600*%
%ADD25R,1.879600X1.879600*%
G04 APERTURE END LIST*
D10*
D11*
X120396000Y-101473000D02*
X120396000Y-129286000D01*
X119380000Y-101473000D02*
X120396000Y-101473000D01*
X119380000Y-89027000D02*
X119380000Y-101473000D01*
X120396000Y-89027000D02*
X119380000Y-89027000D01*
X120396000Y-67056000D02*
X120396000Y-89027000D01*
X120396000Y-67056000D02*
X89154000Y-67056000D01*
X69596000Y-129286000D02*
X120396000Y-129286000D01*
X69596000Y-73152000D02*
X69596000Y-129286000D01*
X89154000Y-73152000D02*
X89154000Y-67056000D01*
X69596000Y-73152000D02*
X89154000Y-73152000D01*
D12*
X113919000Y-71120000D03*
X118745000Y-71120000D03*
X117983000Y-72771000D03*
X114681000Y-72898000D03*
X117983000Y-69469000D03*
X114681000Y-69469000D03*
X116332000Y-73533000D03*
X116332000Y-68707000D03*
D13*
X116332000Y-71120000D03*
X73152000Y-122301000D03*
D12*
X73152000Y-119888000D03*
X73152000Y-124714000D03*
X71501000Y-120650000D03*
X74803000Y-120650000D03*
X71501000Y-124079000D03*
X74803000Y-123952000D03*
X75565000Y-122301000D03*
X70739000Y-122301000D03*
D14*
X99949000Y-98044000D03*
D15*
X77969600Y-84682800D03*
D16*
X80281000Y-82346000D03*
D15*
X82643200Y-84682800D03*
X77969600Y-79983800D03*
X82643200Y-79983800D03*
X80281000Y-79983800D03*
X80281000Y-84682800D03*
X77969600Y-82219000D03*
X82643200Y-82219000D03*
D17*
X95885000Y-78359000D03*
X107315000Y-78359000D03*
D18*
X105670000Y-73610500D03*
X94990000Y-73610500D03*
D19*
X93800000Y-81409000D03*
X109400000Y-81409000D03*
D18*
X108210000Y-73610500D03*
X97530000Y-73610500D03*
D20*
X97165000Y-87599000D03*
X98435000Y-85059000D03*
X99705000Y-87599000D03*
X100975000Y-85059000D03*
X102245000Y-87599000D03*
X103515000Y-85059000D03*
X104785000Y-87599000D03*
X106055000Y-85059000D03*
D21*
X107569000Y-97663000D03*
X107569000Y-97663000D03*
X106045000Y-97663000D03*
D22*
X117217000Y-91650000D03*
X113747000Y-91650000D03*
X113747000Y-98850000D03*
X117217000Y-98850000D03*
D23*
X115067000Y-93250000D03*
X115067000Y-97250000D03*
D24*
X111506000Y-128016000D03*
X114046000Y-128016000D03*
X119126000Y-128016000D03*
X116586000Y-128016000D03*
X106426000Y-128016000D03*
X108966000Y-128016000D03*
X103886000Y-128016000D03*
X101346000Y-128016000D03*
X96266000Y-128016000D03*
X98806000Y-128016000D03*
X93726000Y-128016000D03*
X91186000Y-128016000D03*
X86106000Y-128016000D03*
X88646000Y-128016000D03*
X83566000Y-128016000D03*
X81026000Y-128016000D03*
D25*
X70866000Y-128016000D03*
D24*
X73406000Y-128016000D03*
X75946000Y-128016000D03*
X78486000Y-128016000D03*
M02*
